G04 start of page 9 for group -4014 idx -4014 *
G04 Title: (unknown), bottompaste *
G04 Creator: pcb 20091103 *
G04 CreationDate: Mon 30 Aug 2010 13:37:24 GMT UTC *
G04 For: thomas *
G04 Format: Gerber/RS-274X *
G04 PCB-Dimensions: 600000 500000 *
G04 PCB-Coordinate-Origin: lower left *
%MOIN*%
%FSLAX25Y25*%
%LNBACKPASTE*%
%ADD22R,0.0295X0.0295*%
%ADD35R,0.0490X0.0490*%
G54D22*X240000Y306000D02*Y305016D01*
X245118Y306000D02*Y305016D01*
X212000Y305984D02*Y305000D01*
X217118Y305984D02*Y305000D01*
X41882Y315000D02*Y314016D01*
X47000Y315000D02*Y314016D01*
X31882Y314984D02*Y314000D01*
X37000Y314984D02*Y314000D01*
X51882Y301984D02*Y301000D01*
X57000Y301984D02*Y301000D01*
X31882Y301984D02*Y301000D01*
X37000Y301984D02*Y301000D01*
X61882Y315000D02*Y314016D01*
X67000Y315000D02*Y314016D01*
X81882Y315000D02*Y314016D01*
X87000Y315000D02*Y314016D01*
X140882Y397000D02*Y396016D01*
X146000Y397000D02*Y396016D01*
X52882Y383000D02*Y382016D01*
X58000Y383000D02*Y382016D01*
X199000Y429000D02*X199984D01*
X199000Y423882D02*X199984D01*
X245118Y315984D02*Y315000D01*
X240000Y315984D02*Y315000D01*
X105016Y422000D02*X106000D01*
X105016Y416882D02*X106000D01*
X189118Y305984D02*Y305000D01*
X184000Y305984D02*Y305000D01*
X126441Y386492D02*Y385508D01*
X131559Y386492D02*Y385508D01*
X205441Y387492D02*Y386508D01*
X210559Y387492D02*Y386508D01*
G54D35*X94000Y414000D02*Y410400D01*
X84000Y414000D02*Y410400D01*
X193200Y381000D02*X196800D01*
X193200Y391000D02*X196800D01*
G54D22*X91882Y314984D02*Y314000D01*
X97000Y314984D02*Y314000D01*
X71882Y315000D02*Y314016D01*
X77000Y315000D02*Y314016D01*
X51882Y314984D02*Y314000D01*
X57000Y314984D02*Y314000D01*
X146000Y360882D02*X146984D01*
X146000Y366000D02*X146984D01*
X41882Y301984D02*Y301000D01*
X47000Y301984D02*Y301000D01*
X197882Y361984D02*Y361000D01*
X203000Y361984D02*Y361000D01*
X197882Y355000D02*Y354016D01*
X203000Y355000D02*Y354016D01*
M02*
