G04 start of page 7 for group -4079 idx -4079 *
G04 Title: (unknown), topsilk *
G04 Creator: pcb 20091103 *
G04 CreationDate: Sun 29 Aug 2010 13:54:54 GMT UTC *
G04 For: thomas *
G04 Format: Gerber/RS-274X *
G04 PCB-Dimensions: 600000 500000 *
G04 PCB-Coordinate-Origin: lower left *
%MOIN*%
%FSLAX25Y25*%
%LNFRONTSILK*%
%ADD11C,0.0100*%
%ADD14C,0.0200*%
%ADD56C,0.0079*%
%ADD57C,0.0080*%
G54D11*X131000Y335000D02*Y337000D01*
X130000Y336000D02*X132000D01*
X197000Y327000D02*X199000D01*
X201000Y329000D01*
X197000Y327000D02*X198000Y328000D01*
X197000Y327000D02*X198000Y326000D01*
X227000Y424000D02*X228000D01*
X227000Y428000D02*X228000D01*
X182000Y422000D02*Y421000D01*
X181000Y422000D02*X182000D01*
X180000Y420000D01*
X228000Y428000D02*X229000Y427000D01*
X209000Y439000D02*Y440000D01*
X208000Y441000D01*
Y440000D02*Y441000D01*
X209000D01*
X229000Y427000D02*Y425000D01*
X228000Y424000D01*
Y418000D02*X227000Y419000D01*
X228000Y416000D02*Y418000D01*
X225000Y415000D02*X227000D01*
X228000Y416000D01*
X142500Y426000D02*Y422000D01*
X142000Y426000D02*X144000D01*
X144500Y425500D01*
Y424500D01*
X144000Y424000D02*X144500Y424500D01*
X142500Y424000D02*X144000D01*
X145701Y426000D02*X146701D01*
X146201D02*Y422000D01*
X145701D02*X146701D01*
X148402D02*X149902D01*
X147902Y422500D02*X148402Y422000D01*
X147902Y425500D02*Y422500D01*
Y425500D02*X148402Y426000D01*
X149902D01*
X151603Y422000D02*X152603D01*
X152103Y426000D02*Y422000D01*
X151103Y425000D02*X152103Y426000D01*
X153804Y422500D02*X154304Y422000D01*
X153804Y423500D02*Y422500D01*
Y423500D02*X154304Y424000D01*
X155304D01*
X155804Y423500D01*
Y422500D01*
X155304Y422000D02*X155804Y422500D01*
X154304Y422000D02*X155304D01*
X153804Y424500D02*X154304Y424000D01*
X153804Y425500D02*Y424500D01*
Y425500D02*X154304Y426000D01*
X155304D01*
X155804Y425500D01*
Y424500D01*
X155304Y424000D02*X155804Y424500D01*
X158805Y426000D02*X159805D01*
X159305D02*Y422000D01*
X158805D02*X159805D01*
X161506D02*X163006D01*
X161006Y422500D02*X161506Y422000D01*
X161006Y425500D02*Y422500D01*
Y425500D02*X161506Y426000D01*
X163006D01*
X166207D02*X166707Y425500D01*
X164707Y426000D02*X166207D01*
X164207Y425500D02*X164707Y426000D01*
X164207Y425500D02*Y424500D01*
X164707Y424000D01*
X166207D01*
X166707Y423500D01*
Y422500D01*
X166207Y422000D02*X166707Y422500D01*
X164707Y422000D02*X166207D01*
X164207Y422500D02*X164707Y422000D01*
X168408Y426000D02*Y422000D01*
X167908Y426000D02*X169908D01*
X170408Y425500D01*
Y424500D01*
X169908Y424000D02*X170408Y424500D01*
X168408Y424000D02*X169908D01*
X114500Y421000D02*X115500D01*
X115000Y425000D02*Y421000D01*
X114000Y424000D02*X115000Y425000D01*
X223000Y444000D02*X225000D01*
X225500Y444500D01*
Y445500D02*Y444500D01*
X225000Y446000D02*X225500Y445500D01*
X223500Y446000D02*X225000D01*
X223500Y448000D02*Y444000D01*
X223000Y448000D02*X225000D01*
X225500Y447500D01*
Y446500D01*
X225000Y446000D02*X225500Y446500D01*
X228201Y446000D02*X228701Y445500D01*
X227201Y446000D02*X228201D01*
X226701Y445500D02*X227201Y446000D01*
X226701Y445500D02*Y444500D01*
X227201Y444000D01*
X228701Y446000D02*Y444500D01*
X229201Y444000D01*
X227201D02*X228201D01*
X228701Y444500D01*
X230902Y448000D02*Y444500D01*
X231402Y444000D01*
X230402Y446500D02*X231402D01*
X232903Y448000D02*Y444500D01*
X233403Y444000D01*
X232403Y446500D02*X233403D01*
X234904Y444000D02*X236404D01*
X234404Y444500D02*X234904Y444000D01*
X234404Y445500D02*Y444500D01*
Y445500D02*X234904Y446000D01*
X235904D01*
X236404Y445500D01*
X234404Y445000D02*X236404D01*
Y445500D02*Y445000D01*
X238105Y445500D02*Y444000D01*
Y445500D02*X238605Y446000D01*
X239605D01*
X237605D02*X238105Y445500D01*
X240806Y446000D02*Y444500D01*
X241306Y444000D01*
X242806Y446000D02*Y443000D01*
X242306Y442500D02*X242806Y443000D01*
X241306Y442500D02*X242306D01*
X240806Y443000D02*X241306Y442500D01*
Y444000D02*X242306D01*
X242806Y444500D01*
X245807Y448000D02*X246807D01*
X246307D02*Y444000D01*
X245807D02*X246807D01*
X248508Y445500D02*Y444000D01*
Y445500D02*X249008Y446000D01*
X249508D01*
X250008Y445500D01*
Y444000D01*
X248008Y446000D02*X248508Y445500D01*
X217000Y439000D02*X219000D01*
X218000Y440000D02*Y438000D01*
X220201Y441000D02*X222201D01*
X220201D02*Y439000D01*
X220701Y439500D01*
X221701D01*
X222201Y439000D01*
Y437500D01*
X221701Y437000D02*X222201Y437500D01*
X220701Y437000D02*X221701D01*
X220201Y437500D02*X220701Y437000D01*
X223402D02*X223902D01*
X225103Y441000D02*X227103D01*
X225103D02*Y439000D01*
X225603Y439500D01*
X226603D01*
X227103Y439000D01*
Y437500D01*
X226603Y437000D02*X227103Y437500D01*
X225603Y437000D02*X226603D01*
X225103Y437500D02*X225603Y437000D01*
X228304Y441000D02*Y438000D01*
X229304Y437000D01*
X230304Y438000D01*
Y441000D02*Y438000D01*
X233805Y441000D02*Y437500D01*
X234305Y437000D01*
X233305Y439500D02*X234305D01*
X235306Y438500D02*Y437500D01*
Y438500D02*X235806Y439000D01*
X236806D01*
X237306Y438500D01*
Y437500D01*
X236806Y437000D02*X237306Y437500D01*
X235806Y437000D02*X236806D01*
X235306Y437500D02*X235806Y437000D01*
X240307Y439000D02*X242307D01*
X241307Y440000D02*Y438000D01*
X243508Y440500D02*X244008Y441000D01*
X245508D01*
X246008Y440500D01*
Y439500D01*
X243508Y437000D02*X246008Y439500D01*
X243508Y437000D02*X246008D01*
X247209Y441000D02*X249209D01*
X247209D02*Y439000D01*
X247709Y439500D01*
X248709D01*
X249209Y439000D01*
Y437500D01*
X248709Y437000D02*X249209Y437500D01*
X247709Y437000D02*X248709D01*
X247209Y437500D02*X247709Y437000D01*
X250410Y441000D02*Y438000D01*
X251410Y437000D01*
X252410Y438000D01*
Y441000D02*Y438000D01*
X196000D02*X198000D01*
X197000Y439000D02*Y437000D01*
X240000Y371000D02*X244000D01*
Y370500D02*X243500Y371000D01*
X244000Y370500D02*Y369500D01*
X243500Y369000D02*X244000Y369500D01*
X242500Y369000D02*X243500D01*
X242500D02*X242000Y369500D01*
Y370500D02*Y369500D01*
Y370500D02*X242500Y371000D01*
X244000Y374201D02*Y372701D01*
Y374201D02*X243500Y374701D01*
X243000Y374201D02*X243500Y374701D01*
X243000Y374201D02*Y372701D01*
X242500Y372201D02*X243000Y372701D01*
X242500Y372201D02*X242000Y372701D01*
Y374201D02*Y372701D01*
Y374201D02*X242500Y374701D01*
X243500Y372201D02*X244000Y372701D01*
X240000Y376402D02*X244000D01*
X240000Y377902D02*Y375902D01*
Y377902D02*X240500Y378402D01*
X241500D01*
X242000Y377902D02*X241500Y378402D01*
X242000Y377902D02*Y376402D01*
X240000Y380603D02*Y379603D01*
Y380103D02*X244000D01*
Y380603D02*Y379603D01*
Y383804D02*Y382304D01*
X243500Y381804D02*X244000Y382304D01*
X240500Y381804D02*X243500D01*
X240500D02*X240000Y382304D01*
Y383804D02*Y382304D01*
Y387805D02*Y386805D01*
Y387305D02*X244000D01*
Y387805D02*Y386805D01*
Y391006D02*Y389506D01*
X243500Y389006D02*X244000Y389506D01*
X240500Y389006D02*X243500D01*
X240500D02*X240000Y389506D01*
Y391006D02*Y389506D01*
Y394207D02*X240500Y394707D01*
X240000Y394207D02*Y392707D01*
X240500Y392207D02*X240000Y392707D01*
X240500Y392207D02*X241500D01*
X242000Y392707D01*
Y394207D02*Y392707D01*
Y394207D02*X242500Y394707D01*
X243500D01*
X244000Y394207D02*X243500Y394707D01*
X244000Y394207D02*Y392707D01*
X243500Y392207D02*X244000Y392707D01*
X240000Y396408D02*X244000D01*
X240000Y397908D02*Y395908D01*
Y397908D02*X240500Y398408D01*
X241500D01*
X242000Y397908D02*X241500Y398408D01*
X242000Y397908D02*Y396408D01*
X240500Y341000D02*X241500D01*
X241000Y345000D02*Y341000D01*
X240000Y344000D02*X241000Y345000D01*
X217500Y297000D02*Y293000D01*
X219000Y297000D02*X219500Y296500D01*
Y293500D01*
X219000Y293000D02*X219500Y293500D01*
X217000Y293000D02*X219000D01*
X217000Y297000D02*X219000D01*
X220701D02*Y293000D01*
Y297000D02*Y296500D01*
X223201Y294000D01*
Y297000D02*Y293000D01*
X246000Y297500D02*Y294500D01*
Y297500D02*X246500Y298000D01*
X247500D01*
X248000Y297500D01*
Y294500D01*
X247500Y294000D02*X248000Y294500D01*
X246500Y294000D02*X247500D01*
X246000Y294500D02*X246500Y294000D01*
X249201Y298000D02*Y294000D01*
Y296000D02*X251201Y298000D01*
X249201Y296000D02*X251201Y294000D01*
X190000Y297000D02*Y293500D01*
X190500Y293000D01*
X191500D01*
X192000Y293500D01*
Y297000D02*Y293500D01*
X193701Y297000D02*Y293000D01*
X193201Y297000D02*X195201D01*
X195701Y296500D01*
Y295500D01*
X195201Y295000D02*X195701Y295500D01*
X193701Y295000D02*X195201D01*
X6000Y491000D02*Y489000D01*
X4000Y491000D02*X6000D01*
X4000D02*X4500Y490500D01*
Y489500D01*
X4000Y489000D01*
X2500D02*X4000D01*
X2000Y489500D02*X2500Y489000D01*
X2000Y490500D02*Y489500D01*
X2500Y491000D02*X2000Y490500D01*
X2500Y487799D02*X2000Y487299D01*
X2500Y487799D02*X5500D01*
X6000Y487299D01*
Y486299D01*
X5500Y485799D01*
X2500D02*X5500D01*
X2000Y486299D02*X2500Y485799D01*
X2000Y487299D02*Y486299D01*
X3000Y487799D02*X5000Y485799D01*
X2000Y484098D02*X3500D01*
X4000Y483598D01*
Y483098D01*
X3500Y482598D01*
X2000D02*X3500D01*
X4000Y482098D01*
Y481598D01*
X3500Y481098D01*
X2000D02*X3500D01*
X4000Y484598D02*X3500Y484098D01*
X2000Y479397D02*X3500D01*
X4000Y478897D01*
Y478397D01*
X3500Y477897D01*
X2000D02*X3500D01*
X4000Y477397D01*
Y476897D01*
X3500Y476397D01*
X2000D02*X3500D01*
X4000Y479897D02*X3500Y479397D01*
X9000Y494000D02*X11500Y496500D01*
Y498000D02*Y496500D01*
X9000Y498000D02*X11500D01*
X12701Y494500D02*X13201Y494000D01*
X12701Y497500D02*Y494500D01*
Y497500D02*X13201Y498000D01*
X14201D01*
X14701Y497500D01*
Y494500D01*
X14201Y494000D02*X14701Y494500D01*
X13201Y494000D02*X14201D01*
X12701Y495000D02*X14701Y497000D01*
X16402Y495500D02*Y494000D01*
Y495500D02*X16902Y496000D01*
X17402D01*
X17902Y495500D01*
Y494000D01*
Y495500D02*X18402Y496000D01*
X18902D01*
X19402Y495500D01*
Y494000D01*
X15902Y496000D02*X16402Y495500D01*
X21103D02*Y494000D01*
Y495500D02*X21603Y496000D01*
X22103D01*
X22603Y495500D01*
Y494000D01*
Y495500D02*X23103Y496000D01*
X23603D01*
X24103Y495500D01*
Y494000D01*
X20603Y496000D02*X21103Y495500D01*
X23000Y380000D02*X23500Y380500D01*
X23000Y380000D02*Y378500D01*
X23500Y378000D02*X23000Y378500D01*
X23500Y378000D02*X24500D01*
X25000Y378500D01*
Y380000D02*Y378500D01*
Y380000D02*X25500Y380500D01*
X26500D01*
X27000Y380000D02*X26500Y380500D01*
X27000Y380000D02*Y378500D01*
X26500Y378000D02*X27000Y378500D01*
X23000Y382201D02*X27000D01*
X23000Y383701D02*X23500Y384201D01*
X26500D01*
X27000Y383701D02*X26500Y384201D01*
X27000Y383701D02*Y381701D01*
X23000Y383701D02*Y381701D01*
X26500Y385402D02*X23500Y388402D01*
X23000Y389603D02*X27000D01*
X23000D02*X24500Y391103D01*
X23000Y392603D01*
X27000D01*
X23000Y393804D02*X27000D01*
X23000D02*X24500Y395304D01*
X23000Y396804D01*
X27000D01*
Y400005D02*Y398505D01*
X26500Y398005D02*X27000Y398505D01*
X23500Y398005D02*X26500D01*
X23500D02*X23000Y398505D01*
Y400005D02*Y398505D01*
X87000Y484000D02*Y482000D01*
X86000Y483000D02*X88000D01*
X89000Y480799D02*Y478799D01*
X87000Y480799D02*X89000D01*
X87000D02*X87500Y480299D01*
Y479299D01*
X87000Y478799D01*
X85500D02*X87000D01*
X85000Y479299D02*X85500Y478799D01*
X85000Y480299D02*Y479299D01*
X85500Y480799D02*X85000Y480299D01*
X86000Y477598D02*X89000D01*
X86000D02*X85000Y476598D01*
X86000Y475598D01*
X89000D01*
X85000Y472597D02*Y470597D01*
X85500Y470097D01*
X86500D01*
X87000Y470597D02*X86500Y470097D01*
X87000Y472097D02*Y470597D01*
X85000Y472097D02*X89000D01*
Y472597D02*Y470597D01*
X88500Y470097D01*
X87500D02*X88500D01*
X87000Y470597D02*X87500Y470097D01*
X87000Y468896D02*Y467396D01*
X85000Y468896D02*Y466896D01*
Y468896D02*X89000D01*
Y466896D01*
X85000Y465195D02*Y463695D01*
X85500Y465695D02*X85000Y465195D01*
X85500Y465695D02*X88500D01*
X89000Y465195D01*
Y463695D01*
X87500Y460694D02*X88000D01*
X85000D02*X86500D01*
X85000Y459193D02*X86500D01*
X87000Y458693D01*
Y458193D01*
X86500Y457693D01*
X85000D02*X86500D01*
X87000Y459693D02*X86500Y459193D01*
X51000Y483500D02*X55000D01*
Y484000D02*Y482000D01*
X54500Y481500D01*
X53500D02*X54500D01*
X53000Y482000D02*X53500Y481500D01*
X53000Y483500D02*Y482000D01*
X55000Y478299D02*X54500Y477799D01*
X55000Y479799D02*Y478299D01*
X54500Y480299D02*X55000Y479799D01*
X53500Y480299D02*X54500D01*
X53500D02*X53000Y479799D01*
Y478299D01*
X52500Y477799D01*
X51500D02*X52500D01*
X51000Y478299D02*X51500Y477799D01*
X51000Y479799D02*Y478299D01*
X51500Y480299D02*X51000Y479799D01*
X51500Y476598D02*X55000D01*
X51500D02*X51000Y476098D01*
Y475098D01*
X51500Y474598D01*
X55000D01*
X51000Y471597D02*Y469597D01*
X51500Y469097D01*
X52500D01*
X53000Y469597D02*X52500Y469097D01*
X53000Y471097D02*Y469597D01*
X51000Y471097D02*X55000D01*
Y471597D02*Y469597D01*
X54500Y469097D01*
X53500D02*X54500D01*
X53000Y469597D02*X53500Y469097D01*
X51000Y467396D02*X52500D01*
X53000Y466896D01*
Y465896D01*
Y467896D02*X52500Y467396D01*
X51000Y464195D02*Y462695D01*
X51500Y464695D02*X51000Y464195D01*
X51500Y464695D02*X52500D01*
X53000Y464195D01*
Y463195D01*
X52500Y462695D01*
X52000Y464695D02*Y462695D01*
X52500D01*
X53000Y459994D02*X52500Y459494D01*
X53000Y460994D02*Y459994D01*
X52500Y461494D02*X53000Y460994D01*
X51500Y461494D02*X52500D01*
X51500D02*X51000Y460994D01*
X51500Y459494D02*X53000D01*
X51500D02*X51000Y458994D01*
Y460994D02*Y459994D01*
X51500Y459494D01*
X51000Y457793D02*X55000D01*
X52500D02*X51000Y456293D01*
X52500Y457793D02*X53500Y456793D01*
X51500Y455092D02*X52500D01*
X53000Y454592D01*
Y453592D01*
X52500Y453092D01*
X51500D02*X52500D01*
X51000Y453592D02*X51500Y453092D01*
X51000Y454592D02*Y453592D01*
X51500Y455092D02*X51000Y454592D01*
X51500Y451891D02*X53000D01*
X51500D02*X51000Y451391D01*
Y450391D01*
X51500Y449891D01*
X53000D01*
X51500Y448190D02*X55000D01*
X51500D02*X51000Y447690D01*
X53500Y448690D02*Y447690D01*
G54D14*X247300Y410500D02*Y403500D01*
G54D11*Y410500D02*X244800Y411500D01*
X231700D02*X244800D01*
X231700D02*Y402500D01*
X244800D01*
X247300Y403500D01*
G54D14*X230700Y421500D02*Y414500D01*
G54D11*X233200Y413500D01*
X246300D01*
Y422500D01*
X233200D01*
X230700Y421500D01*
G54D14*X178200Y483300D02*X207200D01*
G54D11*X178200D02*X174100Y477200D01*
Y445100D01*
X211300D01*
Y477200D02*Y445100D01*
Y477200D02*X207200Y483300D01*
X150500Y451100D02*X171200D01*
X150500D02*Y432800D01*
X171200D01*
Y451100D02*Y432800D01*
X129800Y483200D02*X171200D01*
X129800D02*Y454700D01*
X171200D01*
Y483200D02*Y454700D01*
X110133Y410095D02*X170133D01*
Y420095D02*Y410095D01*
X110133Y420095D02*X170133D01*
X110133D02*Y410095D01*
X120133Y420095D02*Y410095D01*
X110133Y420095D02*X120133D01*
X221500Y483500D02*X246500D01*
Y458500D01*
Y460500D02*X221500D01*
Y458500D02*Y483500D01*
X246500Y458500D02*X221500D01*
X183500Y431000D02*Y412000D01*
X214500D01*
Y431000D02*Y412000D01*
X183500Y431000D02*X196500D01*
X201500D02*X214500D01*
X196500D02*G75*G03X201500Y431000I2500J0D01*G01*
G54D56*X15715Y431008D02*X54101D01*
X15715Y344394D02*Y333568D01*
X106266Y423134D02*Y333568D01*
X15715D02*X23589D01*
X40322D02*X106266D01*
X40322Y442819D02*X99377D01*
X15715D02*X23589D01*
X15715D02*Y431008D01*
Y344394D02*X43274D01*
Y354237D02*Y344394D01*
Y354237D02*X55085D01*
Y365064D02*Y354237D01*
X54101Y365064D02*X55085D01*
X54101Y374906D02*Y365064D01*
X51148Y374906D02*X54101D01*
X51148Y394591D02*Y374906D01*
Y394591D02*X54101D01*
Y431008D02*Y394591D01*
G54D11*X57500Y483500D02*X82500D01*
Y458500D01*
Y460500D02*X57500D01*
Y458500D02*Y483500D01*
X82500Y458500D02*X57500D01*
G54D14*X99500Y452200D02*X122900D01*
G54D11*X126200Y457100D01*
Y483200D02*Y457100D01*
X96200Y483200D02*X126200D01*
X96200D02*Y457100D01*
X99500Y452200D01*
X14500Y483500D02*X49500D01*
Y458500D01*
X14500Y460500D02*X49500D01*
X14500Y483500D02*Y458500D01*
X49500D01*
X29500Y296500D02*X104500D01*
X29500Y321500D02*Y296500D01*
Y319500D02*X104500D01*
Y321500D02*Y296500D01*
X29500Y321500D02*X104500D01*
X113133Y408595D02*Y339595D01*
X159133D01*
Y408595D02*Y339595D01*
X113133Y408595D02*X133633D01*
X138633D02*X159133D01*
X133633D02*G75*G03X138633Y408595I2500J0D01*G01*
X224133D02*Y339595D01*
X178133Y408595D02*X224133D01*
X178133D02*Y339595D01*
X203633D02*X224133D01*
X178133D02*X198633D01*
X203633D02*G75*G03X198633Y339595I-2500J0D01*G01*
G54D57*X237047Y322016D02*Y298394D01*
Y322016D02*X260669D01*
Y298394D01*
X237047D02*X260669D01*
X241772Y310400D02*G75*G03X248858Y303314I7086J0D01*G01*
X248860Y317487D02*G75*G03X241772Y310399I0J-7088D01*G01*
X255945Y310401D02*G75*G03X248859Y317487I-7086J0D01*G01*
Y303314D02*G75*G03X255945Y310400I0J7086D01*G01*
X209047Y322016D02*Y298394D01*
Y322016D02*X232669D01*
Y298394D01*
X209047D02*X232669D01*
X213772Y310400D02*G75*G03X220858Y303314I7086J0D01*G01*
X220860Y317487D02*G75*G03X213772Y310399I0J-7088D01*G01*
X227945Y310401D02*G75*G03X220859Y317487I-7086J0D01*G01*
Y303314D02*G75*G03X227945Y310400I0J7086D01*G01*
G54D11*X238000Y399000D02*Y339000D01*
X228000Y399000D02*X238000D01*
X228000D02*Y339000D01*
X238000D01*
X228000Y349000D02*X238000D01*
X228000D02*Y339000D01*
G54D57*X181047Y322016D02*Y298394D01*
Y322016D02*X204669D01*
Y298394D01*
X181047D02*X204669D01*
X185772Y310400D02*G75*G03X192858Y303314I7086J0D01*G01*
X192860Y317487D02*G75*G03X185772Y310399I0J-7088D01*G01*
X199945Y310401D02*G75*G03X192859Y317487I-7086J0D01*G01*
Y303314D02*G75*G03X199945Y310400I0J7086D01*G01*
G54D11*X108500Y296500D02*X173500D01*
X108500Y321500D02*Y296500D01*
Y319500D02*X173500D01*
Y321500D02*Y296500D01*
X108500Y321500D02*X173500D01*
X244000Y351000D02*Y349500D01*
X243500Y349000D02*X244000Y349500D01*
X240500Y349000D02*X243500D01*
X240500D02*X240000Y349500D01*
Y351000D02*Y349500D01*
X240500Y352201D02*X243500D01*
X240500D02*X240000Y352701D01*
Y353701D02*Y352701D01*
Y353701D02*X240500Y354201D01*
X243500D01*
X244000Y353701D02*X243500Y354201D01*
X244000Y353701D02*Y352701D01*
X243500Y352201D02*X244000Y352701D01*
X240000Y355402D02*X244000D01*
X240000D02*X240500D01*
X243000Y357902D01*
X240000D02*X244000D01*
X240000Y359103D02*X244000D01*
X240000D02*X240500D01*
X243000Y361603D01*
X240000D02*X244000D01*
X240000Y364304D02*X240500Y364804D01*
X240000Y364304D02*Y363304D01*
X240500Y362804D02*X240000Y363304D01*
X240500Y362804D02*X243500D01*
X244000Y363304D01*
X242000Y364304D02*X242500Y364804D01*
X242000Y364304D02*Y362804D01*
X244000Y364304D02*Y363304D01*
Y364304D02*X243500Y364804D01*
X242500D02*X243500D01*
X166658Y347209D02*Y345709D01*
X167158Y347709D02*X166658Y347209D01*
X167158Y347709D02*X170158D01*
X170658Y347209D01*
Y345709D01*
X166658Y344508D02*X168658Y342508D01*
X170158D01*
X170658Y343008D02*X170158Y342508D01*
X170658Y344008D02*Y343008D01*
X170158Y344508D02*X170658Y344008D01*
X169158Y344508D02*X170158D01*
X169158D02*X168658Y344008D01*
Y342508D01*
X59750Y450500D02*X62000D01*
X59000Y451250D02*X59750Y450500D01*
X59000Y455750D02*Y451250D01*
Y455750D02*X59750Y456500D01*
X62000D01*
X63801Y455750D02*Y451250D01*
Y455750D02*X64551Y456500D01*
X66051D01*
X66801Y455750D01*
Y451250D01*
X66051Y450500D02*X66801Y451250D01*
X64551Y450500D02*X66051D01*
X63801Y451250D02*X64551Y450500D01*
X68603Y456500D02*Y450500D01*
Y456500D02*Y455750D01*
X72353Y452000D01*
Y456500D02*Y450500D01*
X74154Y456500D02*Y450500D01*
Y456500D02*Y455750D01*
X77904Y452000D01*
Y456500D02*Y450500D01*
X79706Y451250D02*X80456Y450500D01*
X79706Y452750D02*Y451250D01*
Y452750D02*X80456Y453500D01*
X81956D01*
X82706Y452750D01*
Y451250D01*
X81956Y450500D02*X82706Y451250D01*
X80456Y450500D02*X81956D01*
X79706Y454250D02*X80456Y453500D01*
X79706Y455750D02*Y454250D01*
Y455750D02*X80456Y456500D01*
X81956D01*
X82706Y455750D01*
Y454250D01*
X81956Y453500D02*X82706Y454250D01*
X145709Y443358D02*X147209D01*
X147709Y442858D02*X147209Y443358D01*
X147709Y442858D02*Y439858D01*
X147209Y439358D01*
X145709D02*X147209D01*
X143008Y443358D02*X144008D01*
X143508D02*Y439358D01*
X144508Y440358D02*X143508Y439358D01*
X141807Y442858D02*X141307Y443358D01*
X141807Y442858D02*Y439858D01*
X141307Y439358D01*
X140307D02*X141307D01*
X140307D02*X139807Y439858D01*
Y442858D02*Y439858D01*
X140307Y443358D02*X139807Y442858D01*
X140307Y443358D02*X141307D01*
X141807Y442358D02*X139807Y440358D01*
X87700Y451200D02*X89200D01*
X87200Y451700D02*X87700Y451200D01*
X87200Y454700D02*Y451700D01*
Y454700D02*X87700Y455200D01*
X89200D01*
X90901Y451200D02*X91901D01*
X91401Y455200D02*Y451200D01*
X90401Y454200D02*X91401Y455200D01*
X93102Y454700D02*X93602Y455200D01*
X95102D01*
X95602Y454700D01*
Y453700D01*
X93102Y451200D02*X95602Y453700D01*
X93102Y451200D02*X95602D01*
X22750Y450500D02*X25000D01*
X22000Y451250D02*X22750Y450500D01*
X22000Y455750D02*Y451250D01*
Y455750D02*X22750Y456500D01*
X25000D01*
X26801Y455750D02*Y451250D01*
Y455750D02*X27551Y456500D01*
X29051D01*
X29801Y455750D01*
Y451250D01*
X29051Y450500D02*X29801Y451250D01*
X27551Y450500D02*X29051D01*
X26801Y451250D02*X27551Y450500D01*
X31603Y456500D02*Y450500D01*
Y456500D02*Y455750D01*
X35353Y452000D01*
Y456500D02*Y450500D01*
X37154Y456500D02*Y450500D01*
Y456500D02*Y455750D01*
X40904Y452000D01*
Y456500D02*Y450500D01*
X42706D02*X45706Y453500D01*
Y455750D02*Y453500D01*
X44956Y456500D02*X45706Y455750D01*
X43456Y456500D02*X44956D01*
X42706Y455750D02*X43456Y456500D01*
X42706Y455750D02*Y454250D01*
X43456Y453500D01*
X45706D01*
X119633Y422095D02*X121133D01*
X119133Y422595D02*X119633Y422095D01*
X119133Y425595D02*Y422595D01*
Y425595D02*X119633Y426095D01*
X121133D01*
X122334Y425595D02*Y422595D01*
Y425595D02*X122834Y426095D01*
X123834D01*
X124334Y425595D01*
Y422595D01*
X123834Y422095D02*X124334Y422595D01*
X122834Y422095D02*X123834D01*
X122334Y422595D02*X122834Y422095D01*
X125535Y426095D02*Y422095D01*
Y426095D02*Y425595D01*
X128035Y423095D01*
Y426095D02*Y422095D01*
X129236Y426095D02*Y422095D01*
Y426095D02*Y425595D01*
X131736Y423095D01*
Y426095D02*Y422095D01*
X132937Y424095D02*X134937Y426095D01*
X132937Y424095D02*X135437D01*
X134937Y426095D02*Y422095D01*
X107905Y404133D02*X111405D01*
X111905Y404633D01*
Y405633D02*Y404633D01*
Y405633D02*X111405Y406133D01*
X107905D02*X111405D01*
X111905Y408834D02*Y407834D01*
X107905Y408334D02*X111905D01*
X108905Y407334D02*X107905Y408334D01*
X148200Y452200D02*Y448700D01*
Y452200D02*X147700Y452700D01*
X146700D02*X147700D01*
X146700D02*X146200Y452200D01*
Y448700D01*
X144999Y450700D02*X142999Y448700D01*
X142499Y450700D02*X144999D01*
X142999Y452700D02*Y448700D01*
X16899Y424732D02*X18399D01*
X16399Y425232D02*X16899Y424732D01*
X16399Y428232D02*Y425232D01*
Y428232D02*X16899Y428732D01*
X18399D01*
X19600Y428232D02*Y425232D01*
Y428232D02*X20100Y428732D01*
X21100D01*
X21600Y428232D01*
Y425232D01*
X21100Y424732D02*X21600Y425232D01*
X20100Y424732D02*X21100D01*
X19600Y425232D02*X20100Y424732D01*
X22801Y428732D02*Y424732D01*
Y428732D02*Y428232D01*
X25301Y425732D01*
Y428732D02*Y424732D01*
X26502Y428732D02*Y424732D01*
Y428732D02*Y428232D01*
X29002Y425732D01*
Y428732D02*Y424732D01*
X30203Y428232D02*X30703Y428732D01*
X32203D01*
X32703Y428232D01*
Y427232D01*
X30203Y424732D02*X32703Y427232D01*
X30203Y424732D02*X32703D01*
X225700Y407500D02*Y405000D01*
Y407500D02*X226200D01*
X228700Y405000D02*X226200Y407500D01*
X228700Y405000D02*X229700D01*
Y407500D02*Y405000D01*
Y410201D02*Y409201D01*
X225700Y409701D02*X229700D01*
X226700Y408701D02*X225700Y409701D01*
X217909Y412642D02*X219409D01*
X217409Y413142D02*X217909Y412642D01*
X217409Y416142D02*Y413142D01*
Y416142D02*X217909Y416642D01*
X219409D01*
X220610Y412642D02*X223110Y415142D01*
Y416642D02*Y415142D01*
X220610Y416642D02*X223110D01*
X218700Y450100D02*X220200D01*
X220700Y449600D02*X220200Y450100D01*
X220700Y449600D02*Y446600D01*
X220200Y446100D01*
X218700D02*X220200D01*
X215999Y450100D02*X216999D01*
X216499D02*Y446100D01*
X217499Y447100D02*X216499Y446100D01*
X213298Y450100D02*X214298D01*
X213798D02*Y446100D01*
X214798Y447100D02*X213798Y446100D01*
X222750Y450500D02*X225000D01*
X222000Y451250D02*X222750Y450500D01*
X222000Y455750D02*Y451250D01*
Y455750D02*X222750Y456500D01*
X225000D01*
X226801Y455750D02*Y451250D01*
Y455750D02*X227551Y456500D01*
X229051D01*
X229801Y455750D01*
Y451250D01*
X229051Y450500D02*X229801Y451250D01*
X227551Y450500D02*X229051D01*
X226801Y451250D02*X227551Y450500D01*
X231603Y456500D02*Y450500D01*
Y456500D02*Y455750D01*
X235353Y452000D01*
Y456500D02*Y450500D01*
X237154Y456500D02*Y450500D01*
Y456500D02*Y455750D01*
X240904Y452000D01*
Y456500D02*Y450500D01*
X242706D02*X246456Y454250D01*
Y456500D02*Y454250D01*
X242706Y456500D02*X246456D01*
X216409Y430658D02*X218409D01*
X218909Y430158D01*
Y429158D01*
X218409Y428658D02*X218909Y429158D01*
X216909Y428658D02*X218409D01*
X216909Y430658D02*Y426658D01*
Y428658D02*X218909Y426658D01*
X220610D02*X221610D01*
X221110Y430658D02*Y426658D01*
X220110Y429658D02*X221110Y430658D01*
X222811Y426658D02*X224811Y428658D01*
Y430158D02*Y428658D01*
X224311Y430658D02*X224811Y430158D01*
X223311Y430658D02*X224311D01*
X222811Y430158D02*X223311Y430658D01*
X222811Y430158D02*Y429158D01*
X223311Y428658D01*
X224811D01*
X204850Y437150D02*Y433150D01*
X206850D01*
X208051Y435150D02*X209551D01*
X208051Y433150D02*X210051D01*
X208051Y437150D02*Y433150D01*
Y437150D02*X210051D01*
X211752D02*Y433150D01*
X213252Y437150D02*X213752Y436650D01*
Y433650D01*
X213252Y433150D02*X213752Y433650D01*
X211252Y433150D02*X213252D01*
X211252Y437150D02*X213252D01*
X214953Y436650D02*X215453Y437150D01*
X216953D01*
X217453Y436650D01*
Y435650D01*
X214953Y433150D02*X217453Y435650D01*
X214953Y433150D02*X217453D01*
X235000Y428300D02*X237500D01*
Y427800D01*
X235000Y425300D02*X237500Y427800D01*
X235000Y425300D02*Y424300D01*
X237500D01*
X238701Y427800D02*X239201Y428300D01*
X240701D01*
X241201Y427800D01*
Y426800D01*
X238701Y424300D02*X241201Y426800D01*
X238701Y424300D02*X241201D01*
X108409Y333642D02*X110409D01*
X110909Y333142D01*
Y332142D01*
X110409Y331642D02*X110909Y332142D01*
X108909Y331642D02*X110409D01*
X108909Y333642D02*Y329642D01*
Y331642D02*X110909Y329642D01*
X112610D02*X113610D01*
X113110Y333642D02*Y329642D01*
X112110Y332642D02*X113110Y333642D01*
X114811D02*X116811D01*
X114811D02*Y331642D01*
X115311Y332142D01*
X116311D01*
X116811Y331642D01*
Y330142D01*
X116311Y329642D02*X116811Y330142D01*
X115311Y329642D02*X116311D01*
X114811Y330142D02*X115311Y329642D01*
X80750Y323500D02*X83000D01*
X80000Y324250D02*X80750Y323500D01*
X80000Y328750D02*Y324250D01*
Y328750D02*X80750Y329500D01*
X83000D01*
X84801Y328750D02*Y324250D01*
Y328750D02*X85551Y329500D01*
X87051D01*
X87801Y328750D01*
Y324250D01*
X87051Y323500D02*X87801Y324250D01*
X85551Y323500D02*X87051D01*
X84801Y324250D02*X85551Y323500D01*
X89603Y329500D02*Y323500D01*
Y329500D02*Y328750D01*
X93353Y325000D01*
Y329500D02*Y323500D01*
X95154Y329500D02*Y323500D01*
Y329500D02*Y328750D01*
X98904Y325000D01*
Y329500D02*Y323500D01*
X101456D02*X102956D01*
X102206Y329500D02*Y323500D01*
X100706Y328000D02*X102206Y329500D01*
X119409Y333674D02*Y329674D01*
X121409D01*
X122610Y331674D02*X124110D01*
X122610Y329674D02*X124610D01*
X122610Y333674D02*Y329674D01*
Y333674D02*X124610D01*
X126311D02*Y329674D01*
X127811Y333674D02*X128311Y333174D01*
Y330174D01*
X127811Y329674D02*X128311Y330174D01*
X125811Y329674D02*X127811D01*
X125811Y333674D02*X127811D01*
X130012Y329674D02*X131012D01*
X130512Y333674D02*Y329674D01*
X129512Y332674D02*X130512Y333674D01*
X149750Y323500D02*X152000D01*
X149000Y324250D02*X149750Y323500D01*
X149000Y328750D02*Y324250D01*
Y328750D02*X149750Y329500D01*
X152000D01*
X153801Y328750D02*Y324250D01*
Y328750D02*X154551Y329500D01*
X156051D01*
X156801Y328750D01*
Y324250D01*
X156051Y323500D02*X156801Y324250D01*
X154551Y323500D02*X156051D01*
X153801Y324250D02*X154551Y323500D01*
X158603Y329500D02*Y323500D01*
Y329500D02*Y328750D01*
X162353Y325000D01*
Y329500D02*Y323500D01*
X164154Y329500D02*Y323500D01*
Y329500D02*Y328750D01*
X167904Y325000D01*
Y329500D02*Y323500D01*
X169706Y328750D02*X170456Y329500D01*
X171956D01*
X172706Y328750D01*
Y324250D01*
X171956Y323500D02*X172706Y324250D01*
X170456Y323500D02*X171956D01*
X169706Y324250D02*X170456Y323500D01*
Y326500D02*X172706D01*
X185591Y328358D02*X187591D01*
X185591D02*X185091Y328858D01*
Y329858D02*Y328858D01*
X185591Y330358D02*X185091Y329858D01*
X185591Y330358D02*X187091D01*
Y332358D02*Y328358D01*
Y330358D02*X185091Y332358D01*
X183890Y328858D02*X183390Y328358D01*
X181890D02*X183390D01*
X181890D02*X181390Y328858D01*
Y329858D02*Y328858D01*
X183890Y332358D02*X181390Y329858D01*
Y332358D02*X183890D01*
X180189Y328858D02*X179689Y328358D01*
X178189D02*X179689D01*
X178189D02*X177689Y328858D01*
Y329858D02*Y328858D01*
X180189Y332358D02*X177689Y329858D01*
Y332358D02*X180189D01*
X185150Y333850D02*X187150D01*
X185150D02*X184650Y334350D01*
Y335350D02*Y334350D01*
X185150Y335850D02*X184650Y335350D01*
X185150Y335850D02*X186650D01*
Y337850D02*Y333850D01*
Y335850D02*X184650Y337850D01*
X183449Y334350D02*X182949Y333850D01*
X181449D02*X182949D01*
X181449D02*X180949Y334350D01*
Y335350D02*Y334350D01*
X183449Y337850D02*X180949Y335350D01*
Y337850D02*X183449D01*
X178248D02*X179248D01*
X178748D02*Y333850D01*
X179748Y334850D02*X178748Y333850D01*
X175000Y314409D02*X175500Y314909D01*
X175000Y314409D02*Y312909D01*
X175500Y312409D02*X175000Y312909D01*
X175500Y312409D02*X176500D01*
X177000Y312909D01*
Y314409D02*Y312909D01*
Y314409D02*X177500Y314909D01*
X178500D01*
X179000Y314409D02*X178500Y314909D01*
X179000Y314409D02*Y312909D01*
X178500Y312409D02*X179000Y312909D01*
Y317610D02*Y316610D01*
X175000Y317110D02*X179000D01*
X176000Y316110D02*X175000Y317110D01*
X226291Y332642D02*X228291D01*
X228791Y332142D01*
Y331142D01*
X228291Y330642D02*X228791Y331142D01*
X226791Y330642D02*X228291D01*
X226791Y332642D02*Y328642D01*
Y330642D02*X228791Y328642D01*
X229992Y332142D02*X230492Y332642D01*
X231992D01*
X232492Y332142D01*
Y331142D01*
X229992Y328642D02*X232492Y331142D01*
X229992Y328642D02*X232492D01*
X233693Y329142D02*X234193Y328642D01*
X233693Y332142D02*Y329142D01*
Y332142D02*X234193Y332642D01*
X235193D01*
X235693Y332142D01*
Y329142D01*
X235193Y328642D02*X235693Y329142D01*
X234193Y328642D02*X235193D01*
X233693Y329642D02*X235693Y331642D01*
X210150Y327850D02*X212150D01*
X210150D02*X209650Y328350D01*
Y329350D02*Y328350D01*
X210150Y329850D02*X209650Y329350D01*
X210150Y329850D02*X211650D01*
Y331850D02*Y327850D01*
Y329850D02*X209650Y331850D01*
X208449Y328350D02*X207949Y327850D01*
X206449D02*X207949D01*
X206449D02*X205949Y328350D01*
Y329350D02*Y328350D01*
X208449Y331850D02*X205949Y329350D01*
Y331850D02*X208449D01*
X204748Y328350D02*X204248Y327850D01*
X203248D02*X204248D01*
X203248D02*X202748Y328350D01*
Y331350D02*Y328350D01*
X203248Y331850D02*X202748Y331350D01*
X203248Y331850D02*X204248D01*
X204748Y331350D02*X204248Y331850D01*
X202748Y329850D02*X204248D01*
X219409Y327000D02*X219909Y326500D01*
X217909Y327000D02*X219409D01*
X217409Y326500D02*X217909Y327000D01*
X217409Y326500D02*Y325500D01*
X217909Y325000D01*
X219409D01*
X219909Y324500D01*
Y323500D01*
X219409Y323000D02*X219909Y323500D01*
X217909Y323000D02*X219409D01*
X217409Y323500D02*X217909Y323000D01*
X221110Y326500D02*X221610Y327000D01*
X223110D01*
X223610Y326500D01*
Y325500D01*
X221110Y323000D02*X223610Y325500D01*
X221110Y323000D02*X223610D01*
X249409Y327000D02*X249909Y326500D01*
X247909Y327000D02*X249409D01*
X247409Y326500D02*X247909Y327000D01*
X247409Y326500D02*Y325500D01*
X247909Y325000D01*
X249409D01*
X249909Y324500D01*
Y323500D01*
X249409Y323000D02*X249909Y323500D01*
X247909Y323000D02*X249409D01*
X247409Y323500D02*X247909Y323000D01*
X251110Y326500D02*X251610Y327000D01*
X252610D01*
X253110Y326500D01*
Y323500D01*
X252610Y323000D02*X253110Y323500D01*
X251610Y323000D02*X252610D01*
X251110Y323500D02*X251610Y323000D01*
Y325000D02*X253110D01*
X173095Y402867D02*X176595D01*
X177095Y403367D01*
Y404367D02*Y403367D01*
Y404367D02*X176595Y404867D01*
X173095D02*X176595D01*
X173595Y406068D02*X173095Y406568D01*
Y407568D02*Y406568D01*
Y407568D02*X173595Y408068D01*
X176595D01*
X177095Y407568D02*X176595Y408068D01*
X177095Y407568D02*Y406568D01*
X176595Y406068D02*X177095Y406568D01*
X175095Y408068D02*Y406568D01*
X173000Y419500D02*Y416000D01*
X173500Y415500D01*
X174500D01*
X175000Y416000D01*
Y419500D02*Y416000D01*
X176201Y419000D02*X176701Y419500D01*
X178201D01*
X178701Y419000D01*
Y418000D01*
X176201Y415500D02*X178701Y418000D01*
X176201Y415500D02*X178701D01*
X178200Y437300D02*Y433800D01*
Y437300D02*X177700Y437800D01*
X176700D02*X177700D01*
X176700D02*X176200Y437300D01*
Y433800D01*
X172999D02*X174999D01*
Y435800D02*Y433800D01*
Y435800D02*X174499Y435300D01*
X173499D02*X174499D01*
X173499D02*X172999Y435800D01*
Y437300D02*Y435800D01*
X173499Y437800D02*X172999Y437300D01*
X173499Y437800D02*X174499D01*
X174999Y437300D02*X174499Y437800D01*
X174791Y426642D02*X176291D01*
X174291Y427142D02*X174791Y426642D01*
X174291Y430142D02*Y427142D01*
Y430142D02*X174791Y430642D01*
X176291D01*
X177492D02*X179492D01*
X177492D02*Y428642D01*
X177992Y429142D01*
X178992D01*
X179492Y428642D01*
Y427142D01*
X178992Y426642D02*X179492Y427142D01*
X177992Y426642D02*X178992D01*
X177492Y427142D02*X177992Y426642D01*
X176850Y443150D02*X178850D01*
X179350Y442650D01*
Y441650D01*
X178850Y441150D02*X179350Y441650D01*
X177350Y441150D02*X178850D01*
X177350Y443150D02*Y439150D01*
Y441150D02*X179350Y439150D01*
X180551Y442650D02*X181051Y443150D01*
X182551D01*
X183051Y442650D01*
Y441650D01*
X180551Y439150D02*X183051Y441650D01*
X180551Y439150D02*X183051D01*
X185752Y443150D02*X186252Y442650D01*
X184752Y443150D02*X185752D01*
X184252Y442650D02*X184752Y443150D01*
X184252Y442650D02*Y439650D01*
X184752Y439150D01*
X185752Y441150D02*X186252Y440650D01*
X184252Y441150D02*X185752D01*
X184752Y439150D02*X185752D01*
X186252Y439650D01*
Y440650D02*Y439650D01*
M02*
