G04 start of page 2 for group 0 idx 0 *
G04 Title: (unknown), component *
G04 Creator: pcb 20091103 *
G04 CreationDate: Sun 29 Aug 2010 13:54:54 GMT UTC *
G04 For: thomas *
G04 Format: Gerber/RS-274X *
G04 PCB-Dimensions: 600000 500000 *
G04 PCB-Coordinate-Origin: lower left *
%MOIN*%
%FSLAX25Y25*%
%LNFRONT*%
%ADD11C,0.0100*%
%ADD12C,0.0250*%
%ADD13C,0.0600*%
%ADD14C,0.0200*%
%ADD15C,0.0827*%
%ADD16C,0.0630*%
%ADD17C,0.0360*%
%ADD18R,0.0370X0.0370*%
%ADD19R,0.1063X0.1063*%
%ADD20R,0.0433X0.0433*%
%ADD21R,0.0200X0.0200*%
%ADD22R,0.0295X0.0295*%
%ADD23R,0.0510X0.0510*%
%ADD24R,0.0560X0.0560*%
%ADD25R,0.0394X0.0394*%
%ADD26R,0.0551X0.0551*%
%ADD27R,0.0990X0.0990*%
%ADD28R,0.1230X0.1230*%
%ADD29R,0.0610X0.0610*%
%ADD30R,0.1220X0.1220*%
%ADD31C,0.0394*%
%ADD32C,0.0380*%
%ADD33C,0.0433*%
%ADD34C,0.0350*%
G54D11*X111000Y391000D02*X114538D01*
X115133Y391595D01*
X111000Y386000D02*X114538D01*
X115133Y386595D01*
X125133Y394133D02*X123000Y392000D01*
X111000Y401000D02*X114538D01*
X115133Y401595D01*
X111000Y396000D02*X114538D01*
X115133Y396595D01*
X111000Y376000D02*X114538D01*
X157133Y371595D02*X160405D01*
X162000Y370000D01*
X151133Y376595D02*X148595D01*
X142000Y370000D01*
X147000Y371000D02*Y370728D01*
X142595Y381595D02*X151133D01*
X121133D02*X103405D01*
X136000Y386000D02*Y367000D01*
X129000Y362000D02*X142000D01*
X123000Y392000D02*Y368000D01*
X129000Y362000D01*
X115133Y371595D02*X110595D01*
X108000Y369000D01*
X151133Y356595D02*X144595D01*
X157133Y361595D02*X169405D01*
X174000Y357000D01*
X144595Y356595D02*X139000Y351000D01*
X144000Y368000D02*Y364000D01*
X142000Y362000D01*
X147000Y371000D02*X144000Y368000D01*
X142000Y342462D02*X151133Y351595D01*
X147000Y336000D02*X163000D01*
X166000Y339000D01*
X124000Y344462D02*X121133Y341595D01*
X124000Y346000D02*Y344462D01*
X147000Y370728D02*X151133Y366595D01*
X180133Y346595D02*X174405D01*
X185236Y336492D02*X179728Y342000D01*
X180133Y346595D02*X174523D01*
X173016Y342000D02*X179728D01*
X180133Y341595D01*
X151133Y391595D02*X141595D01*
X157133D02*X157405D01*
X162000Y387000D01*
X141595Y391595D02*X136000Y386000D01*
X151133Y406595D02*Y409095D01*
X115133Y415095D02*Y406595D01*
X125133Y415095D02*Y394133D01*
X163000Y399000D02*Y393000D01*
X157133Y401595D02*X159595D01*
X161000Y403000D01*
Y409228D01*
X155133Y415095D01*
X151133Y409095D02*X145133Y415095D01*
X180000Y414000D02*X178000Y412000D01*
X185500Y414000D02*X180000D01*
X180133Y401595D02*X176405D01*
X173000Y405000D01*
X171000Y404000D02*X176000Y399000D01*
X185500Y419000D02*X176000D01*
X173000Y416000D01*
Y405000D01*
X171000Y417000D02*Y404000D01*
X179538Y396000D02*X180133Y396595D01*
X176266Y387728D02*X180133Y391595D01*
X174000Y396000D02*X179538D01*
X166000Y387728D02*X176266D01*
X166000Y388000D02*Y384000D01*
Y387728D02*X157133Y396595D01*
X163000Y393000D02*X162000Y392000D01*
X101405Y346595D02*X78000Y370000D01*
X52000Y319000D02*X81000Y348000D01*
X76000Y349000D02*X51000Y324000D01*
X46000Y325000D02*X71000Y350000D01*
X85000Y343000D02*X64882Y322882D01*
X72000Y323000D02*X90000Y341000D01*
X115133Y356595D02*X96405D01*
X110000Y362000D02*X114728D01*
X115133Y361595D01*
X102000Y337000D02*X109984D01*
X110000Y336984D01*
X32449Y350102D02*Y333765D01*
X31464Y332780D01*
X115133Y346595D02*X101405D01*
X121133Y351595D02*X121595D01*
X124000Y354000D01*
Y358000D02*X123000Y359000D01*
X124000Y354000D02*Y358000D01*
X108000Y359000D02*X123000D01*
X115118Y336984D02*X122102D01*
X122118Y337000D01*
X127236D02*Y360492D01*
X121133Y366595D01*
X102000Y330000D02*X128000D01*
X139000Y351000D02*Y331000D01*
X142000Y328000D02*Y342462D01*
X145000Y334000D02*X147000Y336000D01*
X139000Y301000D02*X146000Y308000D01*
X145000Y334000D02*Y325000D01*
X139000Y331000D02*X116000Y308000D01*
X126000D02*Y312000D01*
X112000Y301000D02*X139000D01*
X110000Y303000D02*X112000Y301000D01*
X110000Y311000D02*X126000Y327000D01*
X136000Y316000D02*Y308000D01*
X126000Y312000D02*X142000Y328000D01*
X145000Y325000D02*X136000Y316000D01*
Y333000D02*X130000Y327000D01*
X110000Y303000D02*Y311000D01*
X130000Y327000D02*X126000D01*
X128000Y330000D02*X131000Y333000D01*
Y342000D01*
X136000Y333000D02*Y347000D01*
X133000Y343000D02*X132000D01*
X131000Y342000D01*
X114538Y376000D02*X115133Y376595D01*
X78000Y370000D02*X48213D01*
X48000Y369787D01*
Y419000D02*X108000Y359000D01*
X96405Y356595D02*X53685Y399315D01*
X94000Y391000D02*Y404000D01*
X103405Y381595D02*X94000Y391000D01*
X58000Y389000D02*X58472Y389472D01*
X35000Y383379D02*X38749Y379630D01*
X35000Y368614D02*X43670Y359944D01*
X35000Y383000D02*Y352653D01*
X32449Y350102D01*
X28000Y366000D02*Y367000D01*
X222133Y361595D02*Y362133D01*
X226000Y366000D01*
X222133Y356595D02*X224595D01*
X228000Y360000D01*
Y369000D01*
X226000Y366000D02*Y377000D01*
X233000Y384000D01*
X228000Y369000D02*X233000Y374000D01*
Y344000D02*X227000D01*
X239000Y386000D02*Y370000D01*
X233000Y364000D01*
X222133Y366595D02*X207405D01*
X205000Y369000D01*
X197000Y374000D02*X213728D01*
X216133Y371595D01*
X222133Y376595D02*Y378133D01*
X225000Y381000D01*
X174000Y347118D02*Y357000D01*
X189441Y331492D02*X175492D01*
X166000Y322000D01*
Y308000D01*
X189441Y336492D02*X185236D01*
X174523Y346595D02*X174000Y347118D01*
X194559Y336492D02*X205492D01*
X211000Y342000D01*
X194559Y326492D02*X200492D01*
X209000Y335000D01*
X198492Y331492D02*X201000Y334000D01*
X189441Y326492D02*X189559D01*
X194559Y331492D01*
X198492D01*
X222133Y341595D02*X224595D01*
X227000Y344000D01*
X233000D02*Y335000D01*
X227882Y335984D02*X222984D01*
X220000Y333000D01*
G54D12*X184400Y472000D02*Y478600D01*
X181000Y482000D01*
X145600D01*
X141600Y478000D01*
Y469000D02*X153000D01*
Y448700D01*
X153600Y448100D01*
X135000Y459900D02*Y453000D01*
X129000Y475000D02*X135000Y469000D01*
X146000Y442000D02*X153600D01*
G54D11*X146000Y436000D02*X153500D01*
G54D12*X151000Y430000D02*X133000D01*
X135000Y453000D02*X146000Y442000D01*
G54D11*X153500Y436000D02*X153600Y435900D01*
G54D12*Y432600D01*
X151000Y430000D01*
G54D11*X177000D01*
X153600Y442000D02*X161000D01*
X48000Y399315D02*X53685D01*
X44851Y389472D02*X58472D01*
X41898Y425496D02*X38496D01*
X35000Y422000D01*
Y416055D01*
X41898Y409157D02*X37843D01*
X35000Y412000D01*
Y416000D02*Y383379D01*
X31464Y443410D02*Y425536D01*
X35000Y422000D01*
X113353Y441245D02*Y436520D01*
X114139Y435734D01*
Y429825D01*
X113354Y429040D01*
X121188D01*
X135133Y415095D01*
X140882Y436000D02*X137000D01*
X135000Y438000D01*
G54D12*X133000Y430000D02*X127000Y436000D01*
Y443000D01*
X122000Y448000D01*
X135000Y459900D02*X105900D01*
X104400Y461400D01*
X129000Y475000D02*X78000D01*
X69000Y461000D02*X104000D01*
X104400Y461400D01*
X122000Y448000D02*X66000D01*
X78000Y475000D02*X75000Y472000D01*
X65000D02*Y465000D01*
X69000Y461000D01*
X66000Y448000D02*X42000Y472000D01*
G54D11*X191000Y386000D02*X201000D01*
Y397000D02*X205000Y393000D01*
X201000Y386000D02*X205000Y382000D01*
X190000Y397000D02*X201000D01*
X180133Y381595D02*X186595D01*
X191000Y386000D01*
X180133Y386595D02*X185595D01*
X188000Y389000D01*
Y395000D01*
X190000Y397000D01*
X195000Y410000D02*X192000Y407000D01*
X186538D01*
X186133Y406595D01*
X191000Y402000D02*X192000D01*
X195595Y406595D02*X191000Y402000D01*
X176000Y399000D02*X196000D01*
X203595Y406595D01*
X216133Y401595D02*X212595D01*
X248000Y401000D02*X222728D01*
X222133Y401595D01*
X212595D02*X211000Y400000D01*
X224000Y424118D02*X216118D01*
X224984D02*X237582D01*
X235300Y415400D02*X242700Y408000D01*
X235300D02*X223538D01*
X222133Y406595D01*
X235300Y419000D02*Y415400D01*
X237582Y424118D02*X242700Y419000D01*
X234000Y438000D02*X249000Y423000D01*
Y402000D01*
X248000Y401000D01*
X192000Y429000D02*X193000D01*
X195000Y427000D01*
Y410000D01*
X201000Y434000D02*X207500D01*
X212500Y429000D01*
X216118Y424118D02*X213000Y421000D01*
X204000D02*X213000D01*
X199000Y418000D02*X201000D01*
X204000Y421000D01*
X179000Y423984D02*X185484D01*
X185500Y424000D01*
X173882Y423984D02*Y419882D01*
X171000Y417000D01*
X216133Y406595D02*X195595D01*
X177000Y430000D02*X185000Y438000D01*
Y440000D01*
X186000Y441000D01*
X187949D01*
X193559Y441492D02*X199441D01*
X185000Y438000D02*X234000D01*
X225000Y381000D02*Y386000D01*
X228000Y389000D01*
X236000D01*
X239000Y386000D01*
X212500Y419000D02*X224000D01*
X204559Y441492D02*X215492D01*
X218000Y444000D01*
Y453000D01*
G54D12*X201000Y472000D02*X229000D01*
X201000Y455400D02*X222400D01*
X239000Y472000D01*
G54D11*X218000Y453000D02*X220000Y455000D01*
G54D13*X240000Y323000D03*
X257717Y297409D03*
Y323000D03*
X240000Y297409D03*
X212000Y323000D03*
X229717Y297409D03*
Y323000D03*
X212000Y297409D03*
X201717D03*
Y323000D03*
G54D14*G36*
X112133Y418095D02*Y412095D01*
X118133D01*
Y418095D01*
X112133D01*
G37*
G54D13*X125133Y415095D03*
X135133D03*
X145133D03*
X155133D03*
G54D14*G36*
X62000Y475000D02*Y469000D01*
X68000D01*
Y475000D01*
X62000D01*
G37*
G54D13*X75000Y472000D03*
G54D15*X43275Y339079D03*
G54D16*Y436717D03*
G54D14*G36*
X19000Y475000D02*Y469000D01*
X25000D01*
Y475000D01*
X19000D01*
G37*
G54D13*X32000Y472000D03*
X42000D03*
X165133Y415095D03*
G54D14*G36*
X226000Y475000D02*Y469000D01*
X232000D01*
Y475000D01*
X226000D01*
G37*
G54D13*X239000Y472000D03*
G54D14*G36*
X230000Y347000D02*Y341000D01*
X236000D01*
Y347000D01*
X230000D01*
G37*
G54D13*X233000Y354000D03*
Y364000D03*
Y374000D03*
Y384000D03*
Y394000D03*
X184000Y323000D03*
Y297409D03*
G54D14*G36*
X163000Y311000D02*Y305000D01*
X169000D01*
Y311000D01*
X163000D01*
G37*
G54D13*X156000Y308000D03*
X146000D03*
X136000D03*
X126000D03*
X116000D03*
G54D14*G36*
X94000Y311000D02*Y305000D01*
X100000D01*
Y311000D01*
X94000D01*
G37*
G54D13*X87000Y308000D03*
X77000D03*
X67000D03*
X57000D03*
X47000D03*
X37000D03*
G54D17*X142595Y381595D03*
X138000Y388000D03*
X162000Y387000D03*
X166000Y384000D03*
X205000Y382000D03*
Y369000D03*
X198000D03*
X197000Y374000D03*
X174000Y396000D03*
X178000Y412000D03*
X163000Y399000D03*
X211000Y400000D03*
X205000Y393000D03*
X199000Y418000D03*
X201000Y434000D03*
X191000Y402000D03*
G54D13*X153000Y469000D03*
G54D17*X135000Y438000D03*
G54D13*X127000Y436000D03*
G54D17*X161000Y442000D03*
X63000Y300000D03*
X64882Y322882D03*
X72000Y323000D03*
X52000Y319000D03*
X46000Y325000D03*
X51000Y324000D03*
X85000Y343000D03*
X90000Y341000D03*
X102000Y337000D03*
X103000Y330000D03*
X81000Y348000D03*
X76000Y349000D03*
X71000Y350000D03*
X112000Y376000D03*
X110000Y362000D03*
X108000Y369000D03*
X112000Y386000D03*
Y391000D03*
Y396000D03*
Y401000D03*
X94000Y404000D03*
X82000D03*
X58472Y389472D03*
X28000Y366000D03*
X35000Y374000D03*
X162000Y370000D03*
X170000Y374000D03*
X172000Y359000D03*
X133000Y343000D03*
X166000Y339000D03*
X211000Y342000D03*
X220000Y333000D03*
X209000Y335000D03*
X201000Y334000D03*
X142000Y370000D03*
X136000Y367000D03*
X147000Y371000D03*
X125000Y366000D03*
X146000Y352000D03*
X124000Y346000D03*
X136000Y347000D03*
G54D18*X153600Y442000D02*X156000D01*
G54D19*X31464Y443410D02*X32645D01*
G54D20*X41898Y419000D02*X48000D01*
X41898Y425496D02*X48000D01*
X41898Y409157D02*X48000D01*
G54D21*X151133Y406595D02*X157133D01*
G54D22*X188441Y441492D02*Y440508D01*
G54D20*X41898Y399315D02*X48000D01*
G54D21*X115133Y406595D02*X121133D01*
X115133Y401595D02*X121133D01*
X115133Y396595D02*X121133D01*
X115133Y391595D02*X121133D01*
X115133Y386595D02*X121133D01*
X115133Y381595D02*X121133D01*
X115133Y376595D02*X121133D01*
X115133Y371595D02*X121133D01*
X115133Y366595D02*X121133D01*
X115133Y361595D02*X121133D01*
X115133Y356595D02*X121133D01*
G54D22*X173016Y347118D02*X174000D01*
X173016Y342000D02*X174000D01*
G54D21*X151133Y341595D02*X157133D01*
X151133Y346595D02*X157133D01*
X151133Y351595D02*X157133D01*
X151133Y356595D02*X157133D01*
X151133Y361595D02*X157133D01*
X151133Y366595D02*X157133D01*
X151133Y371595D02*X157133D01*
X151133Y376595D02*X157133D01*
X151133Y381595D02*X157133D01*
X151133Y386595D02*X157133D01*
X151133Y391595D02*X157133D01*
X151133Y396595D02*X157133D01*
X151133Y401595D02*X157133D01*
G54D22*X173882Y423984D02*Y423000D01*
X179000Y423984D02*Y423000D01*
G54D23*X242700Y408000D02*Y406000D01*
X235300Y408000D02*Y406000D01*
G54D21*X216133Y376595D02*X222133D01*
X216133Y381595D02*X222133D01*
X216133Y386595D02*X222133D01*
X216133Y391595D02*X222133D01*
X216133Y396595D02*X222133D01*
X216133Y401595D02*X222133D01*
X216133Y406595D02*X222133D01*
G54D22*X217984Y419000D02*X218968D01*
X224000D02*X224984D01*
G54D23*X235300D02*Y417000D01*
X242700Y419000D02*Y417000D01*
G54D22*X217984Y424118D02*X218968D01*
X224000D02*X224984D01*
G54D21*X216133Y341595D02*X222133D01*
X216133Y346595D02*X222133D01*
X216133Y351595D02*X222133D01*
X216133Y356595D02*X222133D01*
X216133Y361595D02*X222133D01*
X216133Y366595D02*X222133D01*
X216133Y371595D02*X222133D01*
X180133Y401595D02*X186133D01*
X180133Y396595D02*X186133D01*
X180133Y391595D02*X186133D01*
X180133Y386595D02*X186133D01*
X180133Y381595D02*X186133D01*
X180133Y406595D02*X186133D01*
X185500Y419000D02*X192000D01*
X185500Y414000D02*X192000D01*
X206000D02*X212500D01*
X206000Y419000D02*X212500D01*
X206000Y424000D02*X212500D01*
X206000Y429000D02*X212500D01*
X180133Y376595D02*X186133D01*
X180133Y371595D02*X186133D01*
X180133Y366595D02*X186133D01*
X180133Y361595D02*X186133D01*
X180133Y356595D02*X186133D01*
X180133Y351595D02*X186133D01*
X180133Y346595D02*X186133D01*
X180133Y341595D02*X186133D01*
G54D22*X189441Y326492D02*Y325508D01*
X194559Y326492D02*Y325508D01*
X189441Y331492D02*Y330508D01*
X194559Y331492D02*Y330508D01*
Y336492D02*Y335508D01*
X189441Y336492D02*Y335508D01*
X227882Y335984D02*Y335000D01*
X233000Y335984D02*Y335000D01*
X127236Y337000D02*Y336016D01*
X122118Y337000D02*Y336016D01*
X110000Y336984D02*Y336000D01*
X115118Y336984D02*Y336000D01*
G54D21*X115133Y351595D02*X121133D01*
X115133Y346595D02*X121133D01*
X115133Y341595D02*X121133D01*
G54D20*X32449Y350102D02*X38551D01*
G54D19*X31464Y332780D02*X32645D01*
G54D20*X43670Y359944D02*X49772D01*
X41898Y369787D02*X48000D01*
X38749Y379630D02*X44851D01*
X38749Y389472D02*X44851D01*
G54D22*X146118Y436984D02*Y436000D01*
X141000Y436984D02*Y436000D01*
G54D24*X135000Y478000D02*X141600D01*
X135000Y469000D02*X141600D01*
X135000Y459900D02*X141600D01*
G54D18*X153600Y448100D02*X156000D01*
X153600Y435900D02*X156000D01*
G54D25*X104297Y435734D02*X114139D01*
G54D26*X105085Y441245D02*X113353D01*
X109023Y429040D02*X113354D01*
G54D27*X104400Y461400D02*X118000D01*
X104400Y475000D02*X118000D01*
G54D28*X184400Y472000D02*X201000D01*
G54D29*X167000Y445000D02*Y439000D01*
G54D30*X162700Y473500D02*Y464500D01*
G54D28*X184400Y455400D02*X201000D01*
G54D21*X185500Y429000D02*X192000D01*
X185500Y424000D02*X192000D01*
G54D22*X199441Y441492D02*Y440508D01*
X204559Y441492D02*Y440508D01*
X193559Y441492D02*Y440508D01*
G54D31*G54D32*G54D16*G54D33*G54D32*G54D31*G54D32*G54D14*G54D34*G54D14*G54D34*G54D14*M02*
