G04 start of page 10 for group -4015 idx -4015 *
G04 Title: (unknown), toppaste *
G04 Creator: pcb 20091103 *
G04 CreationDate: Sun 29 Aug 2010 13:54:54 GMT UTC *
G04 For: thomas *
G04 Format: Gerber/RS-274X *
G04 PCB-Dimensions: 600000 500000 *
G04 PCB-Coordinate-Origin: lower left *
%MOIN*%
%FSLAX25Y25*%
%LNFRONTPASTE*%
%ADD18R,0.0370X0.0370*%
%ADD19R,0.1063X0.1063*%
%ADD20R,0.0433X0.0433*%
%ADD21R,0.0200X0.0200*%
%ADD22R,0.0295X0.0295*%
%ADD23R,0.0510X0.0510*%
%ADD24R,0.0560X0.0560*%
%ADD25R,0.0394X0.0394*%
%ADD26R,0.0551X0.0551*%
%ADD27R,0.0990X0.0990*%
%ADD28R,0.1230X0.1230*%
%ADD29R,0.0610X0.0610*%
%ADD30R,0.1220X0.1220*%
G54D22*X188441Y441492D02*Y440508D01*
X193559Y441492D02*Y440508D01*
X199441Y441492D02*Y440508D01*
X204559Y441492D02*Y440508D01*
G54D23*X235300Y419000D02*Y417000D01*
X242700Y419000D02*Y417000D01*
G54D22*X194559Y336492D02*Y335508D01*
X189441Y336492D02*Y335508D01*
X224000Y419000D02*X224984D01*
X224000Y424118D02*X224984D01*
X173882Y423984D02*Y423000D01*
X179000Y423984D02*Y423000D01*
G54D21*X115133Y406595D02*X121133D01*
X115133Y401595D02*X121133D01*
X115133Y396595D02*X121133D01*
X115133Y391595D02*X121133D01*
X115133Y386595D02*X121133D01*
X115133Y381595D02*X121133D01*
X115133Y376595D02*X121133D01*
X115133Y371595D02*X121133D01*
X115133Y366595D02*X121133D01*
X115133Y361595D02*X121133D01*
X115133Y356595D02*X121133D01*
X115133Y351595D02*X121133D01*
X115133Y346595D02*X121133D01*
X115133Y341595D02*X121133D01*
X151133D02*X157133D01*
X151133Y346595D02*X157133D01*
X151133Y351595D02*X157133D01*
X151133Y356595D02*X157133D01*
X151133Y361595D02*X157133D01*
X151133Y366595D02*X157133D01*
X151133Y371595D02*X157133D01*
X151133Y376595D02*X157133D01*
X151133Y381595D02*X157133D01*
X151133Y386595D02*X157133D01*
X151133Y391595D02*X157133D01*
X151133Y396595D02*X157133D01*
X151133Y401595D02*X157133D01*
X151133Y406595D02*X157133D01*
G54D22*X189441Y331492D02*Y330508D01*
X194559Y331492D02*Y330508D01*
X173016Y347118D02*X174000D01*
X173016Y342000D02*X174000D01*
G54D21*X185500Y429000D02*X192000D01*
X185500Y424000D02*X192000D01*
X185500Y419000D02*X192000D01*
X185500Y414000D02*X192000D01*
X206000D02*X212500D01*
X206000Y419000D02*X212500D01*
X206000Y424000D02*X212500D01*
X206000Y429000D02*X212500D01*
G54D22*X189441Y326492D02*Y325508D01*
X194559Y326492D02*Y325508D01*
X227882Y335984D02*Y335000D01*
X233000Y335984D02*Y335000D01*
G54D27*X104400Y461400D02*X118000D01*
X104400Y475000D02*X118000D01*
G54D22*X110000Y336984D02*Y336000D01*
X115118Y336984D02*Y336000D01*
X217984Y419000D02*X218968D01*
X217984Y424118D02*X218968D01*
G54D25*X104297Y435734D02*X114139D01*
G54D26*X105085Y441245D02*X113353D01*
X109023Y429040D02*X113354D01*
G54D20*X32449Y350102D02*X38551D01*
G54D19*X31464Y443410D02*X32645D01*
G54D20*X41898Y419000D02*X48000D01*
X41898Y425496D02*X48000D01*
X41898Y409157D02*X48000D01*
X41898Y399315D02*X48000D01*
G54D19*X31464Y332780D02*X32645D01*
G54D20*X43670Y359944D02*X49772D01*
X41898Y369787D02*X48000D01*
X38749Y379630D02*X44851D01*
X38749Y389472D02*X44851D01*
G54D22*X127236Y337000D02*Y336016D01*
X122118Y337000D02*Y336016D01*
G54D24*X135000Y478000D02*X141600D01*
X135000Y469000D02*X141600D01*
X135000Y459900D02*X141600D01*
G54D30*X162700Y473500D02*Y464500D01*
G54D18*X153600Y448100D02*X156000D01*
X153600Y442000D02*X156000D01*
X153600Y435900D02*X156000D01*
G54D29*X167000Y445000D02*Y439000D01*
G54D28*X184400Y472000D02*X201000D01*
X184400Y455400D02*X201000D01*
G54D22*X146118Y436984D02*Y436000D01*
X141000Y436984D02*Y436000D01*
G54D21*X216133Y341595D02*X222133D01*
X216133Y346595D02*X222133D01*
X216133Y351595D02*X222133D01*
X216133Y356595D02*X222133D01*
X216133Y361595D02*X222133D01*
X216133Y366595D02*X222133D01*
X216133Y371595D02*X222133D01*
X216133Y376595D02*X222133D01*
X216133Y381595D02*X222133D01*
X216133Y386595D02*X222133D01*
X216133Y391595D02*X222133D01*
X216133Y396595D02*X222133D01*
X216133Y401595D02*X222133D01*
X216133Y406595D02*X222133D01*
X180133D02*X186133D01*
X180133Y401595D02*X186133D01*
X180133Y396595D02*X186133D01*
X180133Y391595D02*X186133D01*
X180133Y386595D02*X186133D01*
X180133Y381595D02*X186133D01*
X180133Y376595D02*X186133D01*
X180133Y371595D02*X186133D01*
X180133Y366595D02*X186133D01*
X180133Y361595D02*X186133D01*
X180133Y356595D02*X186133D01*
X180133Y351595D02*X186133D01*
X180133Y346595D02*X186133D01*
X180133Y341595D02*X186133D01*
G54D23*X242700Y408000D02*Y406000D01*
X235300Y408000D02*Y406000D01*
M02*
