G04 start of page 5 for group -4062 idx -4062 *
G04 Title: (unknown), soldermask *
G04 Creator: pcb 20091103 *
G04 CreationDate: Mon 30 Aug 2010 13:37:24 GMT UTC *
G04 For: thomas *
G04 Format: Gerber/RS-274X *
G04 PCB-Dimensions: 600000 500000 *
G04 PCB-Coordinate-Origin: lower left *
%MOIN*%
%FSLAX25Y25*%
%LNBACKMASK*%
%ADD14C,0.0200*%
%ADD36C,0.0660*%
%ADD37C,0.0887*%
%ADD38C,0.0690*%
%ADD43R,0.0355X0.0355*%
%ADD52R,0.0550X0.0550*%
G54D36*X240000Y323000D03*
X257717Y297409D03*
Y323000D03*
X240000Y297409D03*
X212000Y323000D03*
X229717Y297409D03*
Y323000D03*
X212000Y297409D03*
X201717D03*
Y323000D03*
G54D14*G36*
X111833Y418395D02*Y411795D01*
X118433D01*
Y418395D01*
X111833D01*
G37*
G54D36*X125133Y415095D03*
X135133D03*
X145133D03*
X155133D03*
G54D14*G36*
X61700Y475300D02*Y468700D01*
X68300D01*
Y475300D01*
X61700D01*
G37*
G54D36*X75000Y472000D03*
G54D37*X43275Y339079D03*
G54D38*Y436717D03*
G54D14*G36*
X18700Y475300D02*Y468700D01*
X25300D01*
Y475300D01*
X18700D01*
G37*
G54D36*X32000Y472000D03*
X42000D03*
X165133Y415095D03*
G54D14*G36*
X225700Y475300D02*Y468700D01*
X232300D01*
Y475300D01*
X225700D01*
G37*
G54D36*X239000Y472000D03*
G54D14*G36*
X229700Y347300D02*Y340700D01*
X236300D01*
Y347300D01*
X229700D01*
G37*
G54D36*X233000Y354000D03*
Y364000D03*
Y374000D03*
Y384000D03*
Y394000D03*
X184000Y323000D03*
Y297409D03*
G54D14*G36*
X162700Y311300D02*Y304700D01*
X169300D01*
Y311300D01*
X162700D01*
G37*
G54D36*X156000Y308000D03*
X146000D03*
X136000D03*
X126000D03*
X116000D03*
G54D14*G36*
X93700Y311300D02*Y304700D01*
X100300D01*
Y311300D01*
X93700D01*
G37*
G54D36*X87000Y308000D03*
X77000D03*
X67000D03*
X57000D03*
X47000D03*
X37000D03*
G54D52*X84000Y414000D02*Y410400D01*
X94000Y414000D02*Y410400D01*
G54D43*X105016Y422000D02*X106000D01*
X105016Y416882D02*X106000D01*
X126441Y386492D02*Y385508D01*
X131559Y386492D02*Y385508D01*
X140882Y397000D02*Y396016D01*
X146000Y397000D02*Y396016D01*
X189118Y305984D02*Y305000D01*
X184000Y305984D02*Y305000D01*
X31882Y314984D02*Y314000D01*
X37000Y314984D02*Y314000D01*
X41882Y315000D02*Y314016D01*
X47000Y315000D02*Y314016D01*
X197882Y355000D02*Y354016D01*
Y361984D02*Y361000D01*
X203000Y355000D02*Y354016D01*
Y361984D02*Y361000D01*
X146000Y360882D02*X146984D01*
X146000Y366000D02*X146984D01*
G54D52*X193200Y381000D02*X196800D01*
X193200Y391000D02*X196800D01*
G54D43*X205441Y387492D02*Y386508D01*
X210559Y387492D02*Y386508D01*
X212000Y305984D02*Y305000D01*
X217118Y305984D02*Y305000D01*
X245118Y315984D02*Y315000D01*
X240000Y315984D02*Y315000D01*
Y306000D02*Y305016D01*
X245118Y306000D02*Y305016D01*
X52882Y383000D02*Y382016D01*
X58000Y383000D02*Y382016D01*
X41882Y301984D02*Y301000D01*
X37000Y301984D02*Y301000D01*
X47000Y301984D02*Y301000D01*
X51882Y314984D02*Y314000D01*
X57000Y314984D02*Y314000D01*
X51882Y301984D02*Y301000D01*
X57000Y301984D02*Y301000D01*
X91882Y314984D02*Y314000D01*
X97000Y314984D02*Y314000D01*
X81882Y315000D02*Y314016D01*
X87000Y315000D02*Y314016D01*
X61882Y315000D02*Y314016D01*
X71882Y315000D02*Y314016D01*
X77000Y315000D02*Y314016D01*
X67000Y315000D02*Y314016D01*
X31882Y301984D02*Y301000D01*
X199000Y429000D02*X199984D01*
X199000Y423882D02*X199984D01*
M02*
