M48
INCH
T14C0.020
T32C0.038
T34C0.035
T53C0.039
T54C0.063
T55C0.043
%
T14
X014259Y038159
X013800Y038800
X016200Y038700
X016600Y038400
X020500Y038200
X020500Y036900
X019800Y036900
X019700Y037400
X017400Y039600
X017800Y041200
X016300Y039900
X021100Y040000
X020500Y039300
X019900Y041800
X020100Y043400
X019100Y040200
X013500Y043800
X016100Y044200
X006300Y030000
X006488Y032288
X007200Y032300
X005200Y031900
X004600Y032500
X005100Y032400
X008500Y034300
X009000Y034100
X010200Y033700
X010300Y033000
X008100Y034800
X007600Y034900
X007100Y035000
X011200Y037600
X011000Y036200
X010800Y036900
X011200Y038600
X011200Y039100
X011200Y039600
X011200Y040100
X009400Y040400
X008200Y040400
X005847Y038947
X002800Y036600
X003500Y037400
X016200Y037000
X017000Y037400
X017200Y035900
X013300Y034300
X016600Y033900
X021100Y034200
X022000Y033300
X020900Y033500
X020100Y033400
X014200Y037000
X013600Y036700
X014700Y037100
X012500Y036600
X014600Y035200
X012400Y034600
X013600Y034700
T34
X015300Y046900
X012700Y043600
T32
X011513Y041509
X012513Y041509
X013513Y041509
X014513Y041509
X015513Y041509
X006500Y047200
X007500Y047200
X002200Y047200
X003200Y047200
X004200Y047200
X016513Y041509
X022900Y047200
X023900Y047200
X023300Y034400
X023300Y035400
X023300Y036400
X023300Y037400
X023300Y038400
X023300Y039400
X016600Y030800
X015600Y030800
X014600Y030800
X013600Y030800
X012600Y030800
X011600Y030800
X009700Y030800
X008700Y030800
X007700Y030800
X006700Y030800
X005700Y030800
X004700Y030800
X003700Y030800
T53
X024000Y032300
X025771Y029740
X025771Y032300
X024000Y029740
X021200Y032300
X022971Y029740
X022971Y032300
X021200Y029740
X020171Y029740
X020171Y032300
X018400Y032300
X018400Y029740
T55
X004327Y043671
T54
X004327Y033907
M30
