G04 start of page 8 for group -4078 idx -4078 *
G04 Title: (unknown), bottomsilk *
G04 Creator: pcb 20091103 *
G04 CreationDate: Mon 30 Aug 2010 13:37:24 GMT UTC *
G04 For: thomas *
G04 Format: Gerber/RS-274X *
G04 PCB-Dimensions: 600000 500000 *
G04 PCB-Coordinate-Origin: lower left *
%MOIN*%
%FSLAX25Y25*%
%LNBACKSILK*%
%ADD11C,0.0100*%
%ADD14C,0.0200*%
G54D11*X72000Y444000D02*X78000D01*
X80000Y446000D01*
Y448000D01*
X75000Y453000D01*
X74000Y437000D02*X70000Y441000D01*
Y442000D01*
X72000Y444000D01*
X78000Y440000D02*X100000D01*
X81000Y443000D02*X100000D01*
X83000Y446000D02*X100000D01*
X86000Y449000D02*X92000D01*
X79000Y451000D02*Y452500D01*
X79500Y453000D01*
X80500D01*
X81000Y452500D01*
Y451000D02*Y452500D01*
X82701Y451500D02*Y454500D01*
X82201Y451000D02*X82701Y451500D01*
X83201Y451000D01*
X84201D01*
X84701Y451500D01*
Y452500D01*
X84201Y453000D02*X84701Y452500D01*
X83201Y453000D02*X84201D01*
X82701Y452500D02*X83201Y453000D01*
X86402D02*X87902D01*
X85902Y452500D02*X86402Y453000D01*
X85902Y451500D02*Y452500D01*
Y451500D02*X86402Y451000D01*
X87402D01*
X87902Y451500D01*
X85902Y452000D02*X87902D01*
Y451500D02*Y452000D01*
X89603Y451500D02*Y453000D01*
Y451500D02*X90103Y451000D01*
X91103D01*
X89103D02*X89603Y451500D01*
X94104Y449500D02*Y452500D01*
Y449500D02*X94604Y449000D01*
X95604D01*
X96104Y449500D01*
Y452500D01*
X95604Y453000D02*X96104Y452500D01*
X94604Y453000D02*X95604D01*
X94104Y452500D02*X94604Y453000D01*
X99305Y449000D02*X99805Y449500D01*
X97805Y449000D02*X99305D01*
X97305Y449500D02*X97805Y449000D01*
X97305Y449500D02*Y450500D01*
X97805Y451000D01*
X99305D01*
X99805Y451500D01*
Y452500D01*
X99305Y453000D02*X99805Y452500D01*
X97805Y453000D02*X99305D01*
X97305Y452500D02*X97805Y453000D01*
X101506Y449000D02*Y453000D01*
X103006Y449000D02*X103506Y449500D01*
Y452500D01*
X103006Y453000D02*X103506Y452500D01*
X101006Y453000D02*X103006D01*
X101006Y449000D02*X103006D01*
X58000Y457000D02*Y461000D01*
Y460500D02*X58500Y461000D01*
X59500D01*
X60000Y460500D01*
Y459500D02*Y460500D01*
X59500Y459000D02*X60000Y459500D01*
X58500Y459000D02*X59500D01*
X58000Y459500D02*X58500Y459000D01*
X61201D02*Y460500D01*
X61701Y461000D01*
X63201Y459000D02*Y462000D01*
X62701Y462500D02*X63201Y462000D01*
X61701Y462500D02*X62701D01*
X61201Y462000D02*X61701Y462500D01*
Y461000D02*X62701D01*
X63201Y460500D01*
X66202Y457000D02*X68202D01*
X67202D02*Y461000D01*
X69403D02*X69903D01*
X72904Y457500D02*Y460500D01*
Y457500D02*X73404Y457000D01*
X74404D01*
X74904Y457500D01*
Y460500D01*
X74404Y461000D02*X74904Y460500D01*
X73404Y461000D02*X74404D01*
X72904Y460500D02*X73404Y461000D01*
X76105Y457000D02*Y460500D01*
X76605Y461000D01*
X79606Y457000D02*Y461000D01*
X79106D02*X79606Y460500D01*
X78106Y461000D02*X79106D01*
X77606Y460500D02*X78106Y461000D01*
X77606Y459500D02*Y460500D01*
Y459500D02*X78106Y459000D01*
X79106D01*
X79606Y459500D01*
X80807Y457000D02*Y461000D01*
Y460500D02*X81307Y461000D01*
X82307D01*
X82807Y460500D01*
Y459500D02*Y460500D01*
X82307Y459000D02*X82807Y459500D01*
X81307Y459000D02*X82307D01*
X80807Y459500D02*X81307Y459000D01*
X84008D02*Y460500D01*
X84508Y461000D01*
X85508D01*
X86008Y460500D01*
Y459000D02*Y460500D01*
X87709Y459500D02*Y461000D01*
Y459500D02*X88209Y459000D01*
X89209D01*
X87209D02*X87709Y459500D01*
X90410Y459000D02*Y460500D01*
X90910Y461000D01*
X92410Y459000D02*Y462000D01*
X91910Y462500D02*X92410Y462000D01*
X90910Y462500D02*X91910D01*
X90410Y462000D02*X90910Y462500D01*
Y461000D02*X91910D01*
X92410Y460500D01*
X93611Y462000D02*X94611Y461000D01*
X97612Y457500D02*X98112Y457000D01*
X99612D01*
X100112Y457500D01*
Y458500D01*
X97612Y461000D02*X100112Y458500D01*
X97612Y461000D02*X100112D01*
X101313Y460500D02*X101813Y461000D01*
X101313Y459500D02*Y460500D01*
Y459500D02*X101813Y459000D01*
X102813D01*
X103313Y459500D01*
Y460500D01*
X102813Y461000D02*X103313Y460500D01*
X101813Y461000D02*X102813D01*
X101313Y458500D02*X101813Y459000D01*
X101313Y457500D02*Y458500D01*
Y457500D02*X101813Y457000D01*
X102813D01*
X103313Y457500D01*
Y458500D01*
X102813Y459000D02*X103313Y458500D01*
X104514Y457500D02*Y461000D01*
Y457500D02*X105014Y457000D01*
X106514D01*
X107014Y457500D01*
Y461000D01*
X104514Y459000D02*X107014D01*
X108215D02*Y460500D01*
X108715Y461000D01*
X109715D01*
X110215Y460500D01*
Y459000D02*Y460500D01*
X112916Y459000D02*X113416Y459500D01*
X111916Y459000D02*X112916D01*
X111416Y459500D02*X111916Y459000D01*
X111416Y459500D02*Y460500D01*
X111916Y461000D01*
X112916D01*
X113416Y460500D01*
X111416Y462000D02*X111916Y462500D01*
X112916D01*
X113416Y462000D01*
Y459000D02*Y462000D01*
X115117Y461000D02*X116117D01*
X115617Y457000D02*Y461000D01*
X114617Y458000D02*X115617Y457000D01*
X117318Y460500D02*X117818Y461000D01*
X117318Y457500D02*Y460500D01*
Y457500D02*X117818Y457000D01*
X118818D01*
X119318Y457500D01*
Y460500D01*
X118818Y461000D02*X119318Y460500D01*
X117818Y461000D02*X118818D01*
X117318Y460000D02*X119318Y458000D01*
G54D14*X190700Y376400D02*X199300D01*
G54D11*X190700D02*X189500Y378800D01*
Y394600D02*Y378800D01*
Y394600D02*X200500D01*
Y378800D01*
X199300Y376400D01*
G54D14*X98600Y416500D02*Y407900D01*
G54D11*X96200Y406700D01*
X80400D02*X96200D01*
X80400Y417700D02*Y406700D01*
Y417700D02*X96200D01*
X98600Y416500D01*
X31291Y294342D02*X33291D01*
X33791Y294842D01*
Y295842D01*
X33291Y296342D02*X33791Y295842D01*
X31791Y296342D02*X33291D01*
X31791Y294342D02*Y298342D01*
Y296342D02*X33791Y298342D01*
X34992Y297842D02*X35492Y298342D01*
X34992Y296842D02*Y297842D01*
Y296842D02*X35492Y296342D01*
X36492D01*
X36992Y296842D01*
Y297842D01*
X36492Y298342D02*X36992Y297842D01*
X35492Y298342D02*X36492D01*
X34992Y295842D02*X35492Y296342D01*
X34992Y294842D02*Y295842D01*
Y294842D02*X35492Y294342D01*
X36492D01*
X36992Y294842D01*
Y295842D01*
X36492Y296342D02*X36992Y295842D01*
X41291Y294342D02*X43291D01*
X43791Y294842D01*
Y295842D01*
X43291Y296342D02*X43791Y295842D01*
X41791Y296342D02*X43291D01*
X41791Y294342D02*Y298342D01*
Y296342D02*X43791Y298342D01*
X44992D02*X46992Y296342D01*
Y294842D02*Y296342D01*
X46492Y294342D02*X46992Y294842D01*
X45492Y294342D02*X46492D01*
X44992Y294842D02*X45492Y294342D01*
X44992Y294842D02*Y295842D01*
X45492Y296342D01*
X46992D01*
X50291Y294342D02*X52291D01*
X52791Y294842D01*
Y295842D01*
X52291Y296342D02*X52791Y295842D01*
X50791Y296342D02*X52291D01*
X50791Y294342D02*Y298342D01*
Y296342D02*X52791Y298342D01*
X54492D02*X55492D01*
X54992Y294342D02*Y298342D01*
X53992Y295342D02*X54992Y294342D01*
X56693Y297842D02*X57193Y298342D01*
X56693Y294842D02*Y297842D01*
Y294842D02*X57193Y294342D01*
X58193D01*
X58693Y294842D01*
Y297842D01*
X58193Y298342D02*X58693Y297842D01*
X57193Y298342D02*X58193D01*
X56693Y297342D02*X58693Y295342D01*
X91409Y317358D02*X93409D01*
X93909Y317858D01*
Y318858D01*
X93409Y319358D02*X93909Y318858D01*
X91909Y319358D02*X93409D01*
X91909Y317358D02*Y321358D01*
Y319358D02*X93909Y321358D01*
X95610D02*X96610D01*
X96110Y317358D02*Y321358D01*
X95110Y318358D02*X96110Y317358D01*
X63291D02*X65291D01*
X65791Y317858D01*
Y318858D01*
X65291Y319358D02*X65791Y318858D01*
X63791Y319358D02*X65291D01*
X63791Y317358D02*Y321358D01*
Y319358D02*X65791Y321358D01*
X66992Y319358D02*X68992Y317358D01*
X66992Y319358D02*X69492D01*
X68992Y317358D02*Y321358D01*
X81291Y317358D02*X83291D01*
X83791Y317858D01*
Y318858D01*
X83291Y319358D02*X83791Y318858D01*
X81791Y319358D02*X83291D01*
X81791Y317358D02*Y321358D01*
Y319358D02*X83791Y321358D01*
X84992Y317858D02*X85492Y317358D01*
X86992D01*
X87492Y317858D01*
Y318858D01*
X84992Y321358D02*X87492Y318858D01*
X84992Y321358D02*X87492D01*
X71409Y317358D02*X73409D01*
X73909Y317858D01*
Y318858D01*
X73409Y319358D02*X73909Y318858D01*
X71909Y319358D02*X73409D01*
X71909Y317358D02*Y321358D01*
Y319358D02*X73909Y321358D01*
X75110Y317858D02*X75610Y317358D01*
X76610D01*
X77110Y317858D01*
Y320858D01*
X76610Y321358D02*X77110Y320858D01*
X75610Y321358D02*X76610D01*
X75110Y320858D02*X75610Y321358D01*
Y319358D02*X77110D01*
X55409Y317358D02*X57409D01*
X57909Y317858D01*
Y318858D01*
X57409Y319358D02*X57909Y318858D01*
X55909Y319358D02*X57409D01*
X55909Y317358D02*Y321358D01*
Y319358D02*X57909Y321358D01*
X59110Y317358D02*X61110D01*
X59110D02*Y319358D01*
X59610Y318858D01*
X60610D01*
X61110Y319358D01*
Y320858D01*
X60610Y321358D02*X61110Y320858D01*
X59610Y321358D02*X60610D01*
X59110Y320858D02*X59610Y321358D01*
X31291Y317342D02*X33291D01*
X33791Y317842D01*
Y318842D01*
X33291Y319342D02*X33791Y318842D01*
X31791Y319342D02*X33291D01*
X31791Y317342D02*Y321342D01*
Y319342D02*X33791Y321342D01*
X34992D02*X37492Y318842D01*
Y317342D02*Y318842D01*
X34992Y317342D02*X37492D01*
X41291Y317358D02*X43291D01*
X43791Y317858D01*
Y318858D01*
X43291Y319358D02*X43791Y318858D01*
X41791Y319358D02*X43291D01*
X41791Y317358D02*Y321358D01*
Y319358D02*X43791Y321358D01*
X46492Y317358D02*X46992Y317858D01*
X45492Y317358D02*X46492D01*
X44992Y317858D02*X45492Y317358D01*
X44992Y317858D02*Y320858D01*
X45492Y321358D01*
X46492Y319358D02*X46992Y319858D01*
X44992Y319358D02*X46492D01*
X45492Y321358D02*X46492D01*
X46992Y320858D01*
Y319858D02*Y320858D01*
X195342Y427591D02*Y429091D01*
X194842Y429591D02*X195342Y429091D01*
X191842Y429591D02*X194842D01*
X191842D02*X191342Y429091D01*
Y427591D02*Y429091D01*
Y424890D02*X191842Y424390D01*
X191342Y424890D02*Y425890D01*
X191842Y426390D02*X191342Y425890D01*
X191842Y426390D02*X194842D01*
X195342Y425890D01*
X193342Y424890D02*X193842Y424390D01*
X193342Y424890D02*Y426390D01*
X195342Y424890D02*Y425890D01*
Y424890D02*X194842Y424390D01*
X193842D02*X194842D01*
X205350Y388850D02*X206850D01*
X204850Y388350D02*X205350Y388850D01*
X204850Y385350D02*Y388350D01*
Y385350D02*X205350Y384850D01*
X206850D01*
X208051Y386850D02*X210051Y384850D01*
X208051Y386850D02*X210551D01*
X210051Y384850D02*Y388850D01*
X195000Y396600D02*X196500D01*
X197000Y397100D02*X196500Y396600D01*
X197000Y397100D02*Y400100D01*
X196500Y400600D01*
X195000D02*X196500D01*
X193799Y397100D02*X193299Y396600D01*
X193799Y397100D02*Y398100D01*
X193299Y398600D01*
X192299D02*X193299D01*
X192299D02*X191799Y398100D01*
Y397100D02*Y398100D01*
X192299Y396600D02*X191799Y397100D01*
X192299Y396600D02*X193299D01*
X193799Y399100D02*X193299Y398600D01*
X193799Y399100D02*Y400100D01*
X193299Y400600D01*
X192299D02*X193299D01*
X192299D02*X191799Y400100D01*
Y399100D02*Y400100D01*
X192299Y398600D02*X191799Y399100D01*
X138775Y361386D02*Y362886D01*
X139275Y360886D02*X138775Y361386D01*
X139275Y360886D02*X142275D01*
X142775Y361386D01*
Y362886D01*
X142275Y364087D02*X142775Y364587D01*
Y365587D01*
X142275Y366087D01*
X139275D02*X142275D01*
X138775Y365587D02*X139275Y366087D01*
X138775Y364587D02*Y365587D01*
X139275Y364087D02*X138775Y364587D01*
X140775D02*Y366087D01*
X139291Y400358D02*X141291D01*
X141791Y400858D01*
Y401858D01*
X141291Y402358D02*X141791Y401858D01*
X139791Y402358D02*X141291D01*
X139791Y400358D02*Y404358D01*
Y402358D02*X141791Y404358D01*
X143492D02*X144492D01*
X143992Y400358D02*Y404358D01*
X142992Y401358D02*X143992Y400358D01*
X145693Y403858D02*X146193Y404358D01*
X145693Y402858D02*Y403858D01*
Y402858D02*X146193Y402358D01*
X147193D01*
X147693Y402858D01*
Y403858D01*
X147193Y404358D02*X147693Y403858D01*
X146193Y404358D02*X147193D01*
X145693Y401858D02*X146193Y402358D01*
X145693Y400858D02*Y401858D01*
Y400858D02*X146193Y400358D01*
X147193D01*
X147693Y400858D01*
Y401858D01*
X147193Y402358D02*X147693Y401858D01*
X124850Y388850D02*X126850D01*
X127350Y389350D01*
Y390350D01*
X126850Y390850D02*X127350Y390350D01*
X125350Y390850D02*X126850D01*
X125350Y388850D02*Y392850D01*
Y390850D02*X127350Y392850D01*
X129051D02*X130051D01*
X129551Y388850D02*Y392850D01*
X128551Y389850D02*X129551Y388850D01*
X131252Y392850D02*X133752Y390350D01*
Y388850D02*Y390350D01*
X131252Y388850D02*X133752D01*
X234709Y317642D02*X236709D01*
X234709D02*X234209Y317142D01*
Y316142D02*Y317142D01*
X234709Y315642D02*X234209Y316142D01*
X234709Y315642D02*X236209D01*
Y313642D02*Y317642D01*
Y315642D02*X234209Y313642D01*
X231508D02*X232508D01*
X232008D02*Y317642D01*
X233008Y316642D02*X232008Y317642D01*
X230307Y317142D02*X229807Y317642D01*
X228307D02*X229807D01*
X228307D02*X227807Y317142D01*
Y316142D02*Y317142D01*
X230307Y313642D02*X227807Y316142D01*
Y313642D02*X230307D01*
X185542Y358937D02*X187542D01*
X188042Y359437D01*
Y360437D01*
X187542Y360937D02*X188042Y360437D01*
X186042Y360937D02*X187542D01*
X186042Y358937D02*Y362937D01*
Y360937D02*X188042Y362937D01*
X189243Y359437D02*X189743Y358937D01*
X191243D01*
X191743Y359437D01*
Y360437D01*
X189243Y362937D02*X191743Y360437D01*
X189243Y362937D02*X191743D01*
X192944Y358937D02*X194944D01*
X192944D02*Y360937D01*
X193444Y360437D01*
X194444D01*
X194944Y360937D01*
Y362437D01*
X194444Y362937D02*X194944Y362437D01*
X193444Y362937D02*X194444D01*
X192944Y362437D02*X193444Y362937D01*
X185291Y352358D02*X187291D01*
X187791Y352858D01*
Y353858D01*
X187291Y354358D02*X187791Y353858D01*
X185791Y354358D02*X187291D01*
X185791Y352358D02*Y356358D01*
Y354358D02*X187791Y356358D01*
X188992Y352858D02*X189492Y352358D01*
X190992D01*
X191492Y352858D01*
Y353858D01*
X188992Y356358D02*X191492Y353858D01*
X188992Y356358D02*X191492D01*
X192693Y354358D02*X194693Y352358D01*
X192693Y354358D02*X195193D01*
X194693Y352358D02*Y356358D01*
X188709Y312642D02*X190709D01*
X188709D02*X188209Y312142D01*
Y311142D02*Y312142D01*
X188709Y310642D02*X188209Y311142D01*
X188709Y310642D02*X190209D01*
Y308642D02*Y312642D01*
Y310642D02*X188209Y308642D01*
X185508D02*X186508D01*
X186008D02*Y312642D01*
X187008Y311642D02*X186008Y312642D01*
X182807Y308642D02*X183807D01*
X183307D02*Y312642D01*
X184307Y311642D02*X183307Y312642D01*
X217591Y312658D02*X219591D01*
X217591D02*X217091Y312158D01*
Y311158D02*Y312158D01*
X217591Y310658D02*X217091Y311158D01*
X217591Y310658D02*X219091D01*
Y308658D02*Y312658D01*
Y310658D02*X217091Y308658D01*
X214390D02*X215390D01*
X214890D02*Y312658D01*
X215890Y311658D02*X214890Y312658D01*
X213189Y312158D02*X212689Y312658D01*
X211689D02*X212689D01*
X211689D02*X211189Y312158D01*
Y309158D02*Y312158D01*
X211689Y308658D02*X211189Y309158D01*
X211689Y308658D02*X212689D01*
X213189Y309158D02*X212689Y308658D01*
X211189Y310658D02*X212689D01*
X234827Y306642D02*X236827D01*
X234827D02*X234327Y306142D01*
Y305142D02*Y306142D01*
X234827Y304642D02*X234327Y305142D01*
X234827Y304642D02*X236327D01*
Y302642D02*Y306642D01*
Y304642D02*X234327Y302642D01*
X231626D02*X232626D01*
X232126D02*Y306642D01*
X233126Y305642D02*X232126Y306642D01*
X230425Y304642D02*X228425Y306642D01*
X227925Y304642D02*X230425D01*
X228425Y302642D02*Y306642D01*
X53791Y379358D02*X55291D01*
X53291Y378858D02*X53791Y379358D01*
X53291Y375858D02*Y378858D01*
Y375858D02*X53791Y375358D01*
X55291D01*
X56992Y379358D02*X57992D01*
X57492Y375358D02*Y379358D01*
X56492Y376358D02*X57492Y375358D01*
X103358Y411591D02*Y413591D01*
Y411591D02*X103858Y411091D01*
X104858D01*
X105358Y411591D02*X104858Y411091D01*
X105358Y411591D02*Y413091D01*
X103358D02*X107358D01*
X105358D02*X107358Y411091D01*
Y408390D02*Y409390D01*
X103358Y408890D02*X107358D01*
X104358Y409890D02*X103358Y408890D01*
Y405689D02*X103858Y405189D01*
X103358Y405689D02*Y406689D01*
X103858Y407189D02*X103358Y406689D01*
X103858Y407189D02*X106858D01*
X107358Y406689D01*
X105358Y405689D02*X105858Y405189D01*
X105358Y405689D02*Y407189D01*
X107358Y405689D02*Y406689D01*
Y405689D02*X106858Y405189D01*
X105858D02*X106858D01*
X78400Y414200D02*Y415700D01*
X77900Y416200D02*X78400Y415700D01*
X74900Y416200D02*X77900D01*
X74900D02*X74400Y415700D01*
Y414200D02*Y415700D01*
X74900Y412999D02*X74400Y412499D01*
Y410999D02*Y412499D01*
Y410999D02*X74900Y410499D01*
X75900D01*
X78400Y412999D02*X75900Y410499D01*
X78400D02*Y412999D01*
M02*
