G04 start of page 4 for group -4063 idx -4063 *
G04 Title: (unknown), componentmask *
G04 Creator: pcb 20091103 *
G04 CreationDate: Mon 30 Aug 2010 13:37:24 GMT UTC *
G04 For: thomas *
G04 Format: Gerber/RS-274X *
G04 PCB-Dimensions: 600000 500000 *
G04 PCB-Coordinate-Origin: lower left *
%MOIN*%
%FSLAX25Y25*%
%LNFRONTMASK*%
%ADD14C,0.0200*%
%ADD36C,0.0660*%
%ADD37C,0.0887*%
%ADD38C,0.0690*%
%ADD39R,0.0430X0.0430*%
%ADD40R,0.1263X0.1263*%
%ADD41R,0.0633X0.0633*%
%ADD42R,0.0300X0.0300*%
%ADD43R,0.0355X0.0355*%
%ADD44R,0.0570X0.0570*%
%ADD45R,0.0620X0.0620*%
%ADD46R,0.0594X0.0594*%
%ADD47R,0.0751X0.0751*%
%ADD48R,0.1050X0.1050*%
%ADD49R,0.1290X0.1290*%
%ADD50R,0.0670X0.0670*%
%ADD51R,0.1280X0.1280*%
G54D36*X240000Y323000D03*
X257717Y297409D03*
Y323000D03*
X240000Y297409D03*
X212000Y323000D03*
X229717Y297409D03*
Y323000D03*
X212000Y297409D03*
X201717D03*
Y323000D03*
G54D14*G36*
X111833Y418395D02*Y411795D01*
X118433D01*
Y418395D01*
X111833D01*
G37*
G54D36*X125133Y415095D03*
X135133D03*
X145133D03*
X155133D03*
G54D14*G36*
X61700Y475300D02*Y468700D01*
X68300D01*
Y475300D01*
X61700D01*
G37*
G54D36*X75000Y472000D03*
G54D37*X43275Y339079D03*
G54D38*Y436717D03*
G54D14*G36*
X18700Y475300D02*Y468700D01*
X25300D01*
Y475300D01*
X18700D01*
G37*
G54D36*X32000Y472000D03*
X42000D03*
X165133Y415095D03*
G54D14*G36*
X225700Y475300D02*Y468700D01*
X232300D01*
Y475300D01*
X225700D01*
G37*
G54D36*X239000Y472000D03*
G54D14*G36*
X229700Y347300D02*Y340700D01*
X236300D01*
Y347300D01*
X229700D01*
G37*
G54D36*X233000Y354000D03*
Y364000D03*
Y374000D03*
Y384000D03*
Y394000D03*
X184000Y323000D03*
Y297409D03*
G54D14*G36*
X162700Y311300D02*Y304700D01*
X169300D01*
Y311300D01*
X162700D01*
G37*
G54D36*X156000Y308000D03*
X146000D03*
X136000D03*
X126000D03*
X116000D03*
G54D14*G36*
X93700Y311300D02*Y304700D01*
X100300D01*
Y311300D01*
X93700D01*
G37*
G54D36*X87000Y308000D03*
X77000D03*
X67000D03*
X57000D03*
X47000D03*
X37000D03*
G54D39*X153600Y442000D02*X156000D01*
G54D40*X31464Y443410D02*X32645D01*
G54D41*X41898Y419000D02*X48000D01*
X41898Y425496D02*X48000D01*
X41898Y409157D02*X48000D01*
G54D42*X151133Y406595D02*X157133D01*
G54D43*X188441Y441492D02*Y440508D01*
G54D41*X41898Y399315D02*X48000D01*
G54D42*X115133Y406595D02*X121133D01*
X115133Y401595D02*X121133D01*
X115133Y396595D02*X121133D01*
X115133Y391595D02*X121133D01*
X115133Y386595D02*X121133D01*
X115133Y381595D02*X121133D01*
X115133Y376595D02*X121133D01*
X115133Y371595D02*X121133D01*
X115133Y366595D02*X121133D01*
X115133Y361595D02*X121133D01*
X115133Y356595D02*X121133D01*
G54D43*X173016Y347118D02*X174000D01*
X173016Y342000D02*X174000D01*
G54D42*X151133Y341595D02*X157133D01*
X151133Y346595D02*X157133D01*
X151133Y351595D02*X157133D01*
X151133Y356595D02*X157133D01*
X151133Y361595D02*X157133D01*
X151133Y366595D02*X157133D01*
X151133Y371595D02*X157133D01*
X151133Y376595D02*X157133D01*
X151133Y381595D02*X157133D01*
X151133Y386595D02*X157133D01*
X151133Y391595D02*X157133D01*
X151133Y396595D02*X157133D01*
X151133Y401595D02*X157133D01*
G54D43*X173882Y423984D02*Y423000D01*
X179000Y423984D02*Y423000D01*
G54D44*X242700Y408000D02*Y406000D01*
X235300Y408000D02*Y406000D01*
G54D42*X216133Y376595D02*X222133D01*
X216133Y381595D02*X222133D01*
X216133Y386595D02*X222133D01*
X216133Y391595D02*X222133D01*
X216133Y396595D02*X222133D01*
X216133Y401595D02*X222133D01*
X216133Y406595D02*X222133D01*
G54D43*X217984Y419000D02*X218968D01*
X224000D02*X224984D01*
G54D44*X235300D02*Y417000D01*
X242700Y419000D02*Y417000D01*
G54D43*X217984Y424118D02*X218968D01*
X224000D02*X224984D01*
G54D42*X216133Y341595D02*X222133D01*
X216133Y346595D02*X222133D01*
X216133Y351595D02*X222133D01*
X216133Y356595D02*X222133D01*
X216133Y361595D02*X222133D01*
X216133Y366595D02*X222133D01*
X216133Y371595D02*X222133D01*
X180133Y401595D02*X186133D01*
X180133Y396595D02*X186133D01*
X180133Y391595D02*X186133D01*
X180133Y386595D02*X186133D01*
X180133Y381595D02*X186133D01*
X180133Y406595D02*X186133D01*
X185500Y419000D02*X192000D01*
X185500Y414000D02*X192000D01*
X206000D02*X212500D01*
X206000Y419000D02*X212500D01*
X206000Y424000D02*X212500D01*
X206000Y429000D02*X212500D01*
X180133Y376595D02*X186133D01*
X180133Y371595D02*X186133D01*
X180133Y366595D02*X186133D01*
X180133Y361595D02*X186133D01*
X180133Y356595D02*X186133D01*
X180133Y351595D02*X186133D01*
X180133Y346595D02*X186133D01*
X180133Y341595D02*X186133D01*
G54D43*X189441Y326492D02*Y325508D01*
X194559Y326492D02*Y325508D01*
X189441Y331492D02*Y330508D01*
X194559Y331492D02*Y330508D01*
Y336492D02*Y335508D01*
X189441Y336492D02*Y335508D01*
X227882Y335984D02*Y335000D01*
X233000Y335984D02*Y335000D01*
X127236Y337000D02*Y336016D01*
X122118Y337000D02*Y336016D01*
X110000Y336984D02*Y336000D01*
X115118Y336984D02*Y336000D01*
G54D42*X115133Y351595D02*X121133D01*
X115133Y346595D02*X121133D01*
X115133Y341595D02*X121133D01*
G54D41*X32449Y350102D02*X38551D01*
G54D40*X31464Y332780D02*X32645D01*
G54D41*X43670Y359944D02*X49772D01*
X41898Y369787D02*X48000D01*
X38749Y379630D02*X44851D01*
X38749Y389472D02*X44851D01*
G54D43*X146118Y436984D02*Y436000D01*
X141000Y436984D02*Y436000D01*
G54D45*X135000Y478000D02*X141600D01*
X135000Y469000D02*X141600D01*
X135000Y459900D02*X141600D01*
G54D39*X153600Y448100D02*X156000D01*
X153600Y435900D02*X156000D01*
G54D46*X104297Y435734D02*X114139D01*
G54D47*X105085Y441245D02*X113353D01*
X109023Y429040D02*X113354D01*
G54D48*X104400Y461400D02*X118000D01*
X104400Y475000D02*X118000D01*
G54D49*X184400Y472000D02*X201000D01*
G54D50*X167000Y445000D02*Y439000D01*
G54D51*X162700Y473500D02*Y464500D01*
G54D49*X184400Y455400D02*X201000D01*
G54D42*X185500Y429000D02*X192000D01*
X185500Y424000D02*X192000D01*
G54D43*X199441Y441492D02*Y440508D01*
X204559Y441492D02*Y440508D01*
X193559Y441492D02*Y440508D01*
M02*
