G04 start of page 11 for group -3984 idx -3984 *
G04 Title: (unknown), fab *
G04 Creator: pcb 20091103 *
G04 CreationDate: Mon 30 Aug 2010 13:37:24 GMT UTC *
G04 For: thomas *
G04 Format: Gerber/RS-274X *
G04 PCB-Dimensions: 600000 500000 *
G04 PCB-Coordinate-Origin: lower left *
%MOIN*%
%FSLAX25Y25*%
%LNFAB*%
%ADD11C,0.0100*%
%ADD14C,0.0200*%
%ADD58R,0.0080X0.0080*%
%ADD59C,0.0060*%
G54D58*X43275Y339079D02*Y335879D01*
G54D14*G36*
X42728Y339226D02*X46194Y341226D01*
X46594Y340533D01*
X43128Y338533D01*
X42728Y339226D01*
G37*
G36*
X43421Y338533D02*X39955Y340533D01*
X40355Y341226D01*
X43821Y339226D01*
X43421Y338533D01*
G37*
G54D58*X41675Y339079D02*G75*G03X44875Y339079I1600J0D01*G01*
G75*G03X41675Y339079I-1600J0D01*G01*
X15000Y511250D02*Y508050D01*
G54D14*G36*
X14453Y511396D02*X17919Y513396D01*
X18319Y512703D01*
X14853Y510703D01*
X14453Y511396D01*
G37*
G36*
X15146Y510703D02*X11680Y512703D01*
X12080Y513396D01*
X15546Y511396D01*
X15146Y510703D01*
G37*
G54D58*X13400Y511250D02*G75*G03X16600Y511250I1600J0D01*G01*
G75*G03X13400Y511250I-1600J0D01*G01*
G54D59*X135000Y513500D02*Y512750D01*
X136500Y511250D01*
X138000Y512750D01*
Y513500D02*Y512750D01*
X136500Y511250D02*Y507500D01*
X139801Y510500D02*X142051D01*
X139801Y507500D02*X142801D01*
X139801Y513500D02*Y507500D01*
Y513500D02*X142801D01*
X147603D02*X148353Y512750D01*
X145353Y513500D02*X147603D01*
X144603Y512750D02*X145353Y513500D01*
X144603Y512750D02*Y511250D01*
X145353Y510500D01*
X147603D01*
X148353Y509750D01*
Y508250D01*
X147603Y507500D02*X148353Y508250D01*
X145353Y507500D02*X147603D01*
X144603Y508250D02*X145353Y507500D01*
X135000Y504249D02*X150154D01*
X98750Y507500D02*X100250D01*
X99500Y513500D02*Y507500D01*
X98000Y512000D02*X99500Y513500D01*
X98000Y504249D02*X102051D01*
X45000Y508250D02*X45750Y507500D01*
X45000Y512750D02*Y508250D01*
Y512750D02*X45750Y513500D01*
X47250D01*
X48000Y512750D01*
Y508250D01*
X47250Y507500D02*X48000Y508250D01*
X45750Y507500D02*X47250D01*
X45000Y509000D02*X48000Y512000D01*
X49801Y507500D02*X50551D01*
X52353Y508250D02*X53103Y507500D01*
X52353Y512750D02*Y508250D01*
Y512750D02*X53103Y513500D01*
X54603D01*
X55353Y512750D01*
Y508250D01*
X54603Y507500D02*X55353Y508250D01*
X53103Y507500D02*X54603D01*
X52353Y509000D02*X55353Y512000D01*
X59404Y513500D02*X60154Y512750D01*
X57904Y513500D02*X59404D01*
X57154Y512750D02*X57904Y513500D01*
X57154Y512750D02*Y508250D01*
X57904Y507500D01*
X59404Y510500D02*X60154Y509750D01*
X57154Y510500D02*X59404D01*
X57904Y507500D02*X59404D01*
X60154Y508250D01*
Y509750D02*Y508250D01*
X61956Y512750D02*X62706Y513500D01*
X64206D01*
X64956Y512750D01*
Y508250D01*
X64206Y507500D02*X64956Y508250D01*
X62706Y507500D02*X64206D01*
X61956Y508250D02*X62706Y507500D01*
Y510500D02*X64956D01*
X45000Y504249D02*X66757D01*
X41675Y438317D02*X44875D01*
X41675D02*Y435117D01*
X44875D01*
Y438317D02*Y435117D01*
X13400Y527850D02*X16600D01*
X13400D02*Y524650D01*
X16600D01*
Y527850D02*Y524650D01*
X135000Y528500D02*Y527750D01*
X136500Y526250D01*
X138000Y527750D01*
Y528500D02*Y527750D01*
X136500Y526250D02*Y522500D01*
X139801Y525500D02*X142051D01*
X139801Y522500D02*X142801D01*
X139801Y528500D02*Y522500D01*
Y528500D02*X142801D01*
X147603D02*X148353Y527750D01*
X145353Y528500D02*X147603D01*
X144603Y527750D02*X145353Y528500D01*
X144603Y527750D02*Y526250D01*
X145353Y525500D01*
X147603D01*
X148353Y524750D01*
Y523250D01*
X147603Y522500D02*X148353Y523250D01*
X145353Y522500D02*X147603D01*
X144603Y523250D02*X145353Y522500D01*
X135000Y519249D02*X150154D01*
X98750Y522500D02*X100250D01*
X99500Y528500D02*Y522500D01*
X98000Y527000D02*X99500Y528500D01*
X98000Y519249D02*X102051D01*
X45000Y523250D02*X45750Y522500D01*
X45000Y527750D02*Y523250D01*
Y527750D02*X45750Y528500D01*
X47250D01*
X48000Y527750D01*
Y523250D01*
X47250Y522500D02*X48000Y523250D01*
X45750Y522500D02*X47250D01*
X45000Y524000D02*X48000Y527000D01*
X49801Y522500D02*X50551D01*
X52353Y523250D02*X53103Y522500D01*
X52353Y527750D02*Y523250D01*
Y527750D02*X53103Y528500D01*
X54603D01*
X55353Y527750D01*
Y523250D01*
X54603Y522500D02*X55353Y523250D01*
X53103Y522500D02*X54603D01*
X52353Y524000D02*X55353Y527000D01*
X57154Y525500D02*X60154Y528500D01*
X57154Y525500D02*X60904D01*
X60154Y528500D02*Y522500D01*
X62706Y527750D02*X63456Y528500D01*
X64956D01*
X65706Y527750D01*
Y523250D01*
X64956Y522500D02*X65706Y523250D01*
X63456Y522500D02*X64956D01*
X62706Y523250D02*X63456Y522500D01*
Y525500D02*X65706D01*
X45000Y519249D02*X67507D01*
X183200Y323000D02*G75*G03X184800Y323000I800J0D01*G01*
G75*G03X183200Y323000I-800J0D01*G01*
X200917Y297409D02*G75*G03X202517Y297409I800J0D01*G01*
G75*G03X200917Y297409I-800J0D01*G01*
Y323000D02*G75*G03X202517Y323000I800J0D01*G01*
G75*G03X200917Y323000I-800J0D01*G01*
X183200Y297409D02*G75*G03X184800Y297409I800J0D01*G01*
G75*G03X183200Y297409I-800J0D01*G01*
X211200Y323000D02*G75*G03X212800Y323000I800J0D01*G01*
G75*G03X211200Y323000I-800J0D01*G01*
X228917Y297409D02*G75*G03X230517Y297409I800J0D01*G01*
G75*G03X228917Y297409I-800J0D01*G01*
Y323000D02*G75*G03X230517Y323000I800J0D01*G01*
G75*G03X228917Y323000I-800J0D01*G01*
X211200Y297409D02*G75*G03X212800Y297409I800J0D01*G01*
G75*G03X211200Y297409I-800J0D01*G01*
X239200Y323000D02*G75*G03X240800Y323000I800J0D01*G01*
G75*G03X239200Y323000I-800J0D01*G01*
X256917Y297409D02*G75*G03X258517Y297409I800J0D01*G01*
G75*G03X256917Y297409I-800J0D01*G01*
Y323000D02*G75*G03X258517Y323000I800J0D01*G01*
G75*G03X256917Y323000I-800J0D01*G01*
X239200Y297409D02*G75*G03X240800Y297409I800J0D01*G01*
G75*G03X239200Y297409I-800J0D01*G01*
X14200Y541250D02*G75*G03X15800Y541250I800J0D01*G01*
G75*G03X14200Y541250I-800J0D01*G01*
X135000Y543500D02*Y542750D01*
X136500Y541250D01*
X138000Y542750D01*
Y543500D02*Y542750D01*
X136500Y541250D02*Y537500D01*
X139801Y540500D02*X142051D01*
X139801Y537500D02*X142801D01*
X139801Y543500D02*Y537500D01*
Y543500D02*X142801D01*
X147603D02*X148353Y542750D01*
X145353Y543500D02*X147603D01*
X144603Y542750D02*X145353Y543500D01*
X144603Y542750D02*Y541250D01*
X145353Y540500D01*
X147603D01*
X148353Y539750D01*
Y538250D01*
X147603Y537500D02*X148353Y538250D01*
X145353Y537500D02*X147603D01*
X144603Y538250D02*X145353Y537500D01*
X135000Y534249D02*X150154D01*
X98750Y537500D02*X100250D01*
X99500Y543500D02*Y537500D01*
X98000Y542000D02*X99500Y543500D01*
X102051Y542750D02*X102801Y543500D01*
X105051D01*
X105801Y542750D01*
Y541250D01*
X102051Y537500D02*X105801Y541250D01*
X102051Y537500D02*X105801D01*
X98000Y534249D02*X107603D01*
X45000Y538250D02*X45750Y537500D01*
X45000Y542750D02*Y538250D01*
Y542750D02*X45750Y543500D01*
X47250D01*
X48000Y542750D01*
Y538250D01*
X47250Y537500D02*X48000Y538250D01*
X45750Y537500D02*X47250D01*
X45000Y539000D02*X48000Y542000D01*
X49801Y537500D02*X50551D01*
X52353Y538250D02*X53103Y537500D01*
X52353Y542750D02*Y538250D01*
Y542750D02*X53103Y543500D01*
X54603D01*
X55353Y542750D01*
Y538250D01*
X54603Y537500D02*X55353Y538250D01*
X53103Y537500D02*X54603D01*
X52353Y539000D02*X55353Y542000D01*
X57154Y542750D02*X57904Y543500D01*
X59404D01*
X60154Y542750D01*
Y538250D01*
X59404Y537500D02*X60154Y538250D01*
X57904Y537500D02*X59404D01*
X57154Y538250D02*X57904Y537500D01*
Y540500D02*X60154D01*
X61956Y537500D02*X64956Y540500D01*
Y542750D02*Y540500D01*
X64206Y543500D02*X64956Y542750D01*
X62706Y543500D02*X64206D01*
X61956Y542750D02*X62706Y543500D01*
X61956Y542750D02*Y541250D01*
X62706Y540500D01*
X64956D01*
X45000Y534249D02*X66757D01*
X95800Y309200D02*X98200Y306800D01*
X95800D02*X98200Y309200D01*
X85800D02*X88200Y306800D01*
X85800D02*X88200Y309200D01*
X75800D02*X78200Y306800D01*
X75800D02*X78200Y309200D01*
X65800D02*X68200Y306800D01*
X65800D02*X68200Y309200D01*
X55800D02*X58200Y306800D01*
X55800D02*X58200Y309200D01*
X45800D02*X48200Y306800D01*
X45800D02*X48200Y309200D01*
X35800D02*X38200Y306800D01*
X35800D02*X38200Y309200D01*
X164800D02*X167200Y306800D01*
X164800D02*X167200Y309200D01*
X154800D02*X157200Y306800D01*
X154800D02*X157200Y309200D01*
X144800D02*X147200Y306800D01*
X144800D02*X147200Y309200D01*
X134800D02*X137200Y306800D01*
X134800D02*X137200Y309200D01*
X124800D02*X127200Y306800D01*
X124800D02*X127200Y309200D01*
X114800D02*X117200Y306800D01*
X114800D02*X117200Y309200D01*
X20800Y473200D02*X23200Y470800D01*
X20800D02*X23200Y473200D01*
X30800D02*X33200Y470800D01*
X30800D02*X33200Y473200D01*
X40800D02*X43200Y470800D01*
X40800D02*X43200Y473200D01*
X231800Y345200D02*X234200Y342800D01*
X231800D02*X234200Y345200D01*
X231800Y355200D02*X234200Y352800D01*
X231800D02*X234200Y355200D01*
X231800Y365200D02*X234200Y362800D01*
X231800D02*X234200Y365200D01*
X231800Y375200D02*X234200Y372800D01*
X231800D02*X234200Y375200D01*
X231800Y385200D02*X234200Y382800D01*
X231800D02*X234200Y385200D01*
X231800Y395200D02*X234200Y392800D01*
X231800D02*X234200Y395200D01*
X227800Y473200D02*X230200Y470800D01*
X227800D02*X230200Y473200D01*
X237800D02*X240200Y470800D01*
X237800D02*X240200Y473200D01*
X113933Y416295D02*X116333Y413895D01*
X113933D02*X116333Y416295D01*
X123933D02*X126333Y413895D01*
X123933D02*X126333Y416295D01*
X133933D02*X136333Y413895D01*
X133933D02*X136333Y416295D01*
X143933D02*X146333Y413895D01*
X143933D02*X146333Y416295D01*
X153933D02*X156333Y413895D01*
X153933D02*X156333Y416295D01*
X163933D02*X166333Y413895D01*
X163933D02*X166333Y416295D01*
X63800Y473200D02*X66200Y470800D01*
X63800D02*X66200Y473200D01*
X73800D02*X76200Y470800D01*
X73800D02*X76200Y473200D01*
X13800Y557450D02*X16200Y555050D01*
X13800D02*X16200Y557450D01*
X135000Y558500D02*Y557750D01*
X136500Y556250D01*
X138000Y557750D01*
Y558500D02*Y557750D01*
X136500Y556250D02*Y552500D01*
X139801Y555500D02*X142051D01*
X139801Y552500D02*X142801D01*
X139801Y558500D02*Y552500D01*
Y558500D02*X142801D01*
X147603D02*X148353Y557750D01*
X145353Y558500D02*X147603D01*
X144603Y557750D02*X145353Y558500D01*
X144603Y557750D02*Y556250D01*
X145353Y555500D01*
X147603D01*
X148353Y554750D01*
Y553250D01*
X147603Y552500D02*X148353Y553250D01*
X145353Y552500D02*X147603D01*
X144603Y553250D02*X145353Y552500D01*
X135000Y549249D02*X150154D01*
X98000Y557750D02*X98750Y558500D01*
X100250D01*
X101000Y557750D01*
Y553250D01*
X100250Y552500D02*X101000Y553250D01*
X98750Y552500D02*X100250D01*
X98000Y553250D02*X98750Y552500D01*
Y555500D02*X101000D01*
X102801Y557750D02*X103551Y558500D01*
X105801D01*
X106551Y557750D01*
Y556250D01*
X102801Y552500D02*X106551Y556250D01*
X102801Y552500D02*X106551D01*
X98000Y549249D02*X108353D01*
X45000Y553250D02*X45750Y552500D01*
X45000Y557750D02*Y553250D01*
Y557750D02*X45750Y558500D01*
X47250D01*
X48000Y557750D01*
Y553250D01*
X47250Y552500D02*X48000Y553250D01*
X45750Y552500D02*X47250D01*
X45000Y554000D02*X48000Y557000D01*
X49801Y552500D02*X50551D01*
X52353Y553250D02*X53103Y552500D01*
X52353Y557750D02*Y553250D01*
Y557750D02*X53103Y558500D01*
X54603D01*
X55353Y557750D01*
Y553250D01*
X54603Y552500D02*X55353Y553250D01*
X53103Y552500D02*X54603D01*
X52353Y554000D02*X55353Y557000D01*
X57154Y557750D02*X57904Y558500D01*
X59404D01*
X60154Y557750D01*
Y553250D01*
X59404Y552500D02*X60154Y553250D01*
X57904Y552500D02*X59404D01*
X57154Y553250D02*X57904Y552500D01*
Y555500D02*X60154D01*
X61956Y553250D02*X62706Y552500D01*
X61956Y554750D02*Y553250D01*
Y554750D02*X62706Y555500D01*
X64206D01*
X64956Y554750D01*
Y553250D01*
X64206Y552500D02*X64956Y553250D01*
X62706Y552500D02*X64206D01*
X61956Y556250D02*X62706Y555500D01*
X61956Y557750D02*Y556250D01*
Y557750D02*X62706Y558500D01*
X64206D01*
X64956Y557750D01*
Y556250D01*
X64206Y555500D02*X64956Y556250D01*
X45000Y549249D02*X66757D01*
X153000Y470600D02*Y467400D01*
X151400Y469000D02*X154600D01*
X127000Y437600D02*Y434400D01*
X125400Y436000D02*X128600D01*
X15000Y572850D02*Y569650D01*
X13400Y571250D02*X16600D01*
X135000Y573500D02*Y572750D01*
X136500Y571250D01*
X138000Y572750D01*
Y573500D02*Y572750D01*
X136500Y571250D02*Y567500D01*
X139801Y570500D02*X142051D01*
X139801Y567500D02*X142801D01*
X139801Y573500D02*Y567500D01*
Y573500D02*X142801D01*
X147603D02*X148353Y572750D01*
X145353Y573500D02*X147603D01*
X144603Y572750D02*X145353Y573500D01*
X144603Y572750D02*Y571250D01*
X145353Y570500D01*
X147603D01*
X148353Y569750D01*
Y568250D01*
X147603Y567500D02*X148353Y568250D01*
X145353Y567500D02*X147603D01*
X144603Y568250D02*X145353Y567500D01*
X135000Y564249D02*X150154D01*
X98000Y572750D02*X98750Y573500D01*
X101000D01*
X101750Y572750D01*
Y571250D01*
X98000Y567500D02*X101750Y571250D01*
X98000Y567500D02*X101750D01*
X98000Y564249D02*X103551D01*
X45000Y568250D02*X45750Y567500D01*
X45000Y572750D02*Y568250D01*
Y572750D02*X45750Y573500D01*
X47250D01*
X48000Y572750D01*
Y568250D01*
X47250Y567500D02*X48000Y568250D01*
X45750Y567500D02*X47250D01*
X45000Y569000D02*X48000Y572000D01*
X49801Y567500D02*X50551D01*
X52353Y568250D02*X53103Y567500D01*
X52353Y572750D02*Y568250D01*
Y572750D02*X53103Y573500D01*
X54603D01*
X55353Y572750D01*
Y568250D01*
X54603Y567500D02*X55353Y568250D01*
X53103Y567500D02*X54603D01*
X52353Y569000D02*X55353Y572000D01*
X57154Y572750D02*X57904Y573500D01*
X59404D01*
X60154Y572750D01*
Y568250D01*
X59404Y567500D02*X60154Y568250D01*
X57904Y567500D02*X59404D01*
X57154Y568250D02*X57904Y567500D01*
Y570500D02*X60154D01*
X61956Y573500D02*X64956D01*
X61956D02*Y570500D01*
X62706Y571250D01*
X64206D01*
X64956Y570500D01*
Y568250D01*
X64206Y567500D02*X64956Y568250D01*
X62706Y567500D02*X64206D01*
X61956Y568250D02*X62706Y567500D01*
X45000Y564249D02*X66757D01*
X63000Y300000D02*Y298400D01*
Y300000D02*X64386Y300800D01*
X63000Y300000D02*X61614Y300800D01*
X112000Y376000D02*Y374400D01*
Y376000D02*X113386Y376800D01*
X112000Y376000D02*X110614Y376800D01*
X112000Y386000D02*Y384400D01*
Y386000D02*X113386Y386800D01*
X112000Y386000D02*X110614Y386800D01*
X112000Y391000D02*Y389400D01*
Y391000D02*X113386Y391800D01*
X112000Y391000D02*X110614Y391800D01*
X112000Y396000D02*Y394400D01*
Y396000D02*X113386Y396800D01*
X112000Y396000D02*X110614Y396800D01*
X112000Y401000D02*Y399400D01*
Y401000D02*X113386Y401800D01*
X112000Y401000D02*X110614Y401800D01*
X64882Y322882D02*Y321282D01*
Y322882D02*X66268Y323682D01*
X64882Y322882D02*X63496Y323682D01*
X52000Y319000D02*Y317400D01*
Y319000D02*X53386Y319800D01*
X52000Y319000D02*X50614Y319800D01*
X85000Y343000D02*Y341400D01*
Y343000D02*X86386Y343800D01*
X85000Y343000D02*X83614Y343800D01*
X81000Y348000D02*Y346400D01*
Y348000D02*X82386Y348800D01*
X81000Y348000D02*X79614Y348800D01*
X76000Y349000D02*Y347400D01*
Y349000D02*X77386Y349800D01*
X76000Y349000D02*X74614Y349800D01*
X71000Y350000D02*Y348400D01*
Y350000D02*X72386Y350800D01*
X71000Y350000D02*X69614Y350800D01*
X46000Y325000D02*Y323400D01*
Y325000D02*X47386Y325800D01*
X46000Y325000D02*X44614Y325800D01*
X51000Y324000D02*Y322400D01*
Y324000D02*X52386Y324800D01*
X51000Y324000D02*X49614Y324800D01*
X90000Y341000D02*Y339400D01*
Y341000D02*X91386Y341800D01*
X90000Y341000D02*X88614Y341800D01*
X72000Y323000D02*Y321400D01*
Y323000D02*X73386Y323800D01*
X72000Y323000D02*X70614Y323800D01*
X110000Y362000D02*Y360400D01*
Y362000D02*X111386Y362800D01*
X110000Y362000D02*X108614Y362800D01*
X102000Y337000D02*Y335400D01*
Y337000D02*X103386Y337800D01*
X102000Y337000D02*X100614Y337800D01*
X162000Y370000D02*Y368400D01*
Y370000D02*X163386Y370800D01*
X162000Y370000D02*X160614Y370800D01*
X133000Y343000D02*Y341400D01*
Y343000D02*X134386Y343800D01*
X133000Y343000D02*X131614Y343800D01*
X103000Y330000D02*Y328400D01*
Y330000D02*X104386Y330800D01*
X103000Y330000D02*X101614Y330800D01*
X142000Y370000D02*Y368400D01*
Y370000D02*X143386Y370800D01*
X142000Y370000D02*X140614Y370800D01*
X142595Y381595D02*Y379995D01*
Y381595D02*X143981Y382395D01*
X142595Y381595D02*X141209Y382395D01*
X162000Y387000D02*Y385400D01*
Y387000D02*X163386Y387800D01*
X162000Y387000D02*X160614Y387800D01*
X174000Y396000D02*Y394400D01*
Y396000D02*X175386Y396800D01*
X174000Y396000D02*X172614Y396800D01*
X138000Y388000D02*Y386400D01*
Y388000D02*X139386Y388800D01*
X138000Y388000D02*X136614Y388800D01*
X146000Y352000D02*Y350400D01*
Y352000D02*X147386Y352800D01*
X146000Y352000D02*X144614Y352800D01*
X94000Y404000D02*Y402400D01*
Y404000D02*X95386Y404800D01*
X94000Y404000D02*X92614Y404800D01*
X82000Y404000D02*Y402400D01*
Y404000D02*X83386Y404800D01*
X82000Y404000D02*X80614Y404800D01*
X136000Y367000D02*Y365400D01*
Y367000D02*X137386Y367800D01*
X136000Y367000D02*X134614Y367800D01*
X170000Y374000D02*Y372400D01*
Y374000D02*X171386Y374800D01*
X170000Y374000D02*X168614Y374800D01*
X58472Y389472D02*Y387872D01*
Y389472D02*X59858Y390272D01*
X58472Y389472D02*X57086Y390272D01*
X28000Y366000D02*Y364400D01*
Y366000D02*X29386Y366800D01*
X28000Y366000D02*X26614Y366800D01*
X35000Y374000D02*Y372400D01*
Y374000D02*X36386Y374800D01*
X35000Y374000D02*X33614Y374800D01*
X108000Y369000D02*Y367400D01*
Y369000D02*X109386Y369800D01*
X108000Y369000D02*X106614Y369800D01*
X211000Y400000D02*Y398400D01*
Y400000D02*X212386Y400800D01*
X211000Y400000D02*X209614Y400800D01*
X147000Y371000D02*Y369400D01*
Y371000D02*X148386Y371800D01*
X147000Y371000D02*X145614Y371800D01*
X166000Y384000D02*Y382400D01*
Y384000D02*X167386Y384800D01*
X166000Y384000D02*X164614Y384800D01*
X166000Y339000D02*Y337400D01*
Y339000D02*X167386Y339800D01*
X166000Y339000D02*X164614Y339800D01*
X172000Y359000D02*Y357400D01*
Y359000D02*X173386Y359800D01*
X172000Y359000D02*X170614Y359800D01*
X125000Y366000D02*Y364400D01*
Y366000D02*X126386Y366800D01*
X125000Y366000D02*X123614Y366800D01*
X124000Y346000D02*Y344400D01*
Y346000D02*X125386Y346800D01*
X124000Y346000D02*X122614Y346800D01*
X205000Y393000D02*Y391400D01*
Y393000D02*X206386Y393800D01*
X205000Y393000D02*X203614Y393800D01*
X205000Y382000D02*Y380400D01*
Y382000D02*X206386Y382800D01*
X205000Y382000D02*X203614Y382800D01*
X178000Y412000D02*Y410400D01*
Y412000D02*X179386Y412800D01*
X178000Y412000D02*X176614Y412800D01*
X199000Y418000D02*Y416400D01*
Y418000D02*X200386Y418800D01*
X199000Y418000D02*X197614Y418800D01*
X211000Y342000D02*Y340400D01*
Y342000D02*X212386Y342800D01*
X211000Y342000D02*X209614Y342800D01*
X201000Y434000D02*Y432400D01*
Y434000D02*X202386Y434800D01*
X201000Y434000D02*X199614Y434800D01*
X220000Y333000D02*Y331400D01*
Y333000D02*X221386Y333800D01*
X220000Y333000D02*X218614Y333800D01*
X205000Y369000D02*Y367400D01*
Y369000D02*X206386Y369800D01*
X205000Y369000D02*X203614Y369800D01*
X198000Y369000D02*Y367400D01*
Y369000D02*X199386Y369800D01*
X198000Y369000D02*X196614Y369800D01*
X136000Y347000D02*Y345400D01*
Y347000D02*X137386Y347800D01*
X136000Y347000D02*X134614Y347800D01*
X197000Y374000D02*Y372400D01*
Y374000D02*X198386Y374800D01*
X197000Y374000D02*X195614Y374800D01*
X209000Y335000D02*Y333400D01*
Y335000D02*X210386Y335800D01*
X209000Y335000D02*X207614Y335800D01*
X201000Y334000D02*Y332400D01*
Y334000D02*X202386Y334800D01*
X201000Y334000D02*X199614Y334800D01*
X191000Y402000D02*Y400400D01*
Y402000D02*X192386Y402800D01*
X191000Y402000D02*X189614Y402800D01*
X135000Y438000D02*Y436400D01*
Y438000D02*X136386Y438800D01*
X135000Y438000D02*X133614Y438800D01*
X161000Y442000D02*Y440400D01*
Y442000D02*X162386Y442800D01*
X161000Y442000D02*X159614Y442800D01*
X163000Y399000D02*Y397400D01*
Y399000D02*X164386Y399800D01*
X163000Y399000D02*X161614Y399800D01*
X15000Y586250D02*Y584650D01*
Y586250D02*X16386Y587050D01*
X15000Y586250D02*X13614Y587050D01*
X135000Y588500D02*Y587750D01*
X136500Y586250D01*
X138000Y587750D01*
Y588500D02*Y587750D01*
X136500Y586250D02*Y582500D01*
X139801Y585500D02*X142051D01*
X139801Y582500D02*X142801D01*
X139801Y588500D02*Y582500D01*
Y588500D02*X142801D01*
X147603D02*X148353Y587750D01*
X145353Y588500D02*X147603D01*
X144603Y587750D02*X145353Y588500D01*
X144603Y587750D02*Y586250D01*
X145353Y585500D01*
X147603D01*
X148353Y584750D01*
Y583250D01*
X147603Y582500D02*X148353Y583250D01*
X145353Y582500D02*X147603D01*
X144603Y583250D02*X145353Y582500D01*
X135000Y579249D02*X150154D01*
X98000Y588500D02*X101000D01*
X98000D02*Y585500D01*
X98750Y586250D01*
X100250D01*
X101000Y585500D01*
Y583250D01*
X100250Y582500D02*X101000Y583250D01*
X98750Y582500D02*X100250D01*
X98000Y583250D02*X98750Y582500D01*
X102801D02*X105801Y585500D01*
Y587750D02*Y585500D01*
X105051Y588500D02*X105801Y587750D01*
X103551Y588500D02*X105051D01*
X102801Y587750D02*X103551Y588500D01*
X102801Y587750D02*Y586250D01*
X103551Y585500D01*
X105801D01*
X98000Y579249D02*X107603D01*
X45000Y583250D02*X45750Y582500D01*
X45000Y587750D02*Y583250D01*
Y587750D02*X45750Y588500D01*
X47250D01*
X48000Y587750D01*
Y583250D01*
X47250Y582500D02*X48000Y583250D01*
X45750Y582500D02*X47250D01*
X45000Y584000D02*X48000Y587000D01*
X49801Y582500D02*X50551D01*
X52353Y583250D02*X53103Y582500D01*
X52353Y587750D02*Y583250D01*
Y587750D02*X53103Y588500D01*
X54603D01*
X55353Y587750D01*
Y583250D01*
X54603Y582500D02*X55353Y583250D01*
X53103Y582500D02*X54603D01*
X52353Y584000D02*X55353Y587000D01*
X57154Y587750D02*X57904Y588500D01*
X60154D01*
X60904Y587750D01*
Y586250D01*
X57154Y582500D02*X60904Y586250D01*
X57154Y582500D02*X60904D01*
X62706Y583250D02*X63456Y582500D01*
X62706Y587750D02*Y583250D01*
Y587750D02*X63456Y588500D01*
X64956D01*
X65706Y587750D01*
Y583250D01*
X64956Y582500D02*X65706Y583250D01*
X63456Y582500D02*X64956D01*
X62706Y584000D02*X65706Y587000D01*
X45000Y579249D02*X67507D01*
X3000Y603500D02*X3750Y602750D01*
X750Y603500D02*X3000D01*
X0Y602750D02*X750Y603500D01*
X0Y602750D02*Y601250D01*
X750Y600500D01*
X3000D01*
X3750Y599750D01*
Y598250D01*
X3000Y597500D02*X3750Y598250D01*
X750Y597500D02*X3000D01*
X0Y598250D02*X750Y597500D01*
X5551Y600500D02*Y598250D01*
X6301Y597500D01*
X8551Y600500D02*Y596000D01*
X7801Y595250D02*X8551Y596000D01*
X6301Y595250D02*X7801D01*
X5551Y596000D02*X6301Y595250D01*
Y597500D02*X7801D01*
X8551Y598250D01*
X11103Y599750D02*Y597500D01*
Y599750D02*X11853Y600500D01*
X12603D01*
X13353Y599750D01*
Y597500D01*
Y599750D02*X14103Y600500D01*
X14853D01*
X15603Y599750D01*
Y597500D01*
X10353Y600500D02*X11103Y599750D01*
X17404Y603500D02*Y597500D01*
Y598250D02*X18154Y597500D01*
X19654D01*
X20404Y598250D01*
Y599750D02*Y598250D01*
X19654Y600500D02*X20404Y599750D01*
X18154Y600500D02*X19654D01*
X17404Y599750D02*X18154Y600500D01*
X22206Y599750D02*Y598250D01*
Y599750D02*X22956Y600500D01*
X24456D01*
X25206Y599750D01*
Y598250D01*
X24456Y597500D02*X25206Y598250D01*
X22956Y597500D02*X24456D01*
X22206Y598250D02*X22956Y597500D01*
X27007Y603500D02*Y598250D01*
X27757Y597500D01*
X41750Y603500D02*Y597500D01*
X44000Y603500D02*X44750Y602750D01*
Y598250D01*
X44000Y597500D02*X44750Y598250D01*
X41000Y597500D02*X44000D01*
X41000Y603500D02*X44000D01*
X46551Y602000D02*Y601250D01*
Y599750D02*Y597500D01*
X50303Y600500D02*X51053Y599750D01*
X48803Y600500D02*X50303D01*
X48053Y599750D02*X48803Y600500D01*
X48053Y599750D02*Y598250D01*
X48803Y597500D01*
X51053Y600500D02*Y598250D01*
X51803Y597500D01*
X48803D02*X50303D01*
X51053Y598250D01*
X54354Y599750D02*Y597500D01*
Y599750D02*X55104Y600500D01*
X55854D01*
X56604Y599750D01*
Y597500D01*
Y599750D02*X57354Y600500D01*
X58104D01*
X58854Y599750D01*
Y597500D01*
X53604Y600500D02*X54354Y599750D01*
X60656Y597500D02*X61406D01*
X65907Y598250D02*X66657Y597500D01*
X65907Y602750D02*X66657Y603500D01*
X65907Y602750D02*Y598250D01*
X68459Y603500D02*X69959D01*
X69209D02*Y597500D01*
X68459D02*X69959D01*
X72510Y599750D02*Y597500D01*
Y599750D02*X73260Y600500D01*
X74010D01*
X74760Y599750D01*
Y597500D01*
X71760Y600500D02*X72510Y599750D01*
X77312Y600500D02*X79562D01*
X76562Y599750D02*X77312Y600500D01*
X76562Y599750D02*Y598250D01*
X77312Y597500D01*
X79562D01*
X81363Y603500D02*Y597500D01*
Y599750D02*X82113Y600500D01*
X83613D01*
X84363Y599750D01*
Y597500D01*
X86165Y603500D02*X86915Y602750D01*
Y598250D01*
X86165Y597500D02*X86915Y598250D01*
X95750Y597500D02*X98000D01*
X95000Y598250D02*X95750Y597500D01*
X95000Y602750D02*Y598250D01*
Y602750D02*X95750Y603500D01*
X98000D01*
X99801Y599750D02*Y598250D01*
Y599750D02*X100551Y600500D01*
X102051D01*
X102801Y599750D01*
Y598250D01*
X102051Y597500D02*X102801Y598250D01*
X100551Y597500D02*X102051D01*
X99801Y598250D02*X100551Y597500D01*
X104603Y600500D02*Y598250D01*
X105353Y597500D01*
X106853D01*
X107603Y598250D01*
Y600500D02*Y598250D01*
X110154Y599750D02*Y597500D01*
Y599750D02*X110904Y600500D01*
X111654D01*
X112404Y599750D01*
Y597500D01*
X109404Y600500D02*X110154Y599750D01*
X114956Y603500D02*Y598250D01*
X115706Y597500D01*
X114206Y601250D02*X115706D01*
X130750Y603500D02*Y597500D01*
X130000Y603500D02*X133000D01*
X133750Y602750D01*
Y601250D01*
X133000Y600500D02*X133750Y601250D01*
X130750Y600500D02*X133000D01*
X135551Y603500D02*Y598250D01*
X136301Y597500D01*
X140053Y600500D02*X140803Y599750D01*
X138553Y600500D02*X140053D01*
X137803Y599750D02*X138553Y600500D01*
X137803Y599750D02*Y598250D01*
X138553Y597500D01*
X140803Y600500D02*Y598250D01*
X141553Y597500D01*
X138553D02*X140053D01*
X140803Y598250D01*
X144104Y603500D02*Y598250D01*
X144854Y597500D01*
X143354Y601250D02*X144854D01*
X147106Y597500D02*X149356D01*
X146356Y598250D02*X147106Y597500D01*
X146356Y599750D02*Y598250D01*
Y599750D02*X147106Y600500D01*
X148606D01*
X149356Y599750D01*
X146356Y599000D02*X149356D01*
Y599750D02*Y599000D01*
X154157Y603500D02*Y597500D01*
X153407D02*X154157Y598250D01*
X151907Y597500D02*X153407D01*
X151157Y598250D02*X151907Y597500D01*
X151157Y599750D02*Y598250D01*
Y599750D02*X151907Y600500D01*
X153407D01*
X154157Y599750D01*
X157459Y600500D02*Y599750D01*
Y598250D02*Y597500D01*
X155959Y602750D02*Y602000D01*
Y602750D02*X156709Y603500D01*
X158209D01*
X158959Y602750D01*
Y602000D01*
X157459Y600500D02*X158959Y602000D01*
X0Y618500D02*X3000D01*
X1500D02*Y612500D01*
X4801Y618500D02*Y612500D01*
Y614750D02*X5551Y615500D01*
X7051D01*
X7801Y614750D01*
Y612500D01*
X10353D02*X12603D01*
X9603Y613250D02*X10353Y612500D01*
X9603Y614750D02*Y613250D01*
Y614750D02*X10353Y615500D01*
X11853D01*
X12603Y614750D01*
X9603Y614000D02*X12603D01*
Y614750D02*Y614000D01*
X15154Y614750D02*Y612500D01*
Y614750D02*X15904Y615500D01*
X17404D01*
X14404D02*X15154Y614750D01*
X19956Y612500D02*X22206D01*
X19206Y613250D02*X19956Y612500D01*
X19206Y614750D02*Y613250D01*
Y614750D02*X19956Y615500D01*
X21456D01*
X22206Y614750D01*
X19206Y614000D02*X22206D01*
Y614750D02*Y614000D01*
X28957Y615500D02*X29707Y614750D01*
X27457Y615500D02*X28957D01*
X26707Y614750D02*X27457Y615500D01*
X26707Y614750D02*Y613250D01*
X27457Y612500D01*
X29707Y615500D02*Y613250D01*
X30457Y612500D01*
X27457D02*X28957D01*
X29707Y613250D01*
X33009Y614750D02*Y612500D01*
Y614750D02*X33759Y615500D01*
X35259D01*
X32259D02*X33009Y614750D01*
X37810Y612500D02*X40060D01*
X37060Y613250D02*X37810Y612500D01*
X37060Y614750D02*Y613250D01*
Y614750D02*X37810Y615500D01*
X39310D01*
X40060Y614750D01*
X37060Y614000D02*X40060D01*
Y614750D02*Y614000D01*
X46812Y618500D02*X47562Y617750D01*
X45312Y618500D02*X46812D01*
X44562Y617750D02*X45312Y618500D01*
X44562Y617750D02*Y613250D01*
X45312Y612500D01*
X46812Y615500D02*X47562Y614750D01*
X44562Y615500D02*X46812D01*
X45312Y612500D02*X46812D01*
X47562Y613250D01*
Y614750D02*Y613250D01*
X55063Y618500D02*Y612500D01*
X54313D02*X55063Y613250D01*
X52813Y612500D02*X54313D01*
X52063Y613250D02*X52813Y612500D01*
X52063Y614750D02*Y613250D01*
Y614750D02*X52813Y615500D01*
X54313D01*
X55063Y614750D01*
X56865Y617000D02*Y616250D01*
Y614750D02*Y612500D01*
X59116Y617750D02*Y612500D01*
Y617750D02*X59866Y618500D01*
X60616D01*
X58366Y615500D02*X59866D01*
X62868Y617750D02*Y612500D01*
Y617750D02*X63618Y618500D01*
X64368D01*
X62118Y615500D02*X63618D01*
X66619Y612500D02*X68869D01*
X65869Y613250D02*X66619Y612500D01*
X65869Y614750D02*Y613250D01*
Y614750D02*X66619Y615500D01*
X68119D01*
X68869Y614750D01*
X65869Y614000D02*X68869D01*
Y614750D02*Y614000D01*
X71421Y614750D02*Y612500D01*
Y614750D02*X72171Y615500D01*
X73671D01*
X70671D02*X71421Y614750D01*
X76222Y612500D02*X78472D01*
X75472Y613250D02*X76222Y612500D01*
X75472Y614750D02*Y613250D01*
Y614750D02*X76222Y615500D01*
X77722D01*
X78472Y614750D01*
X75472Y614000D02*X78472D01*
Y614750D02*Y614000D01*
X81024Y614750D02*Y612500D01*
Y614750D02*X81774Y615500D01*
X82524D01*
X83274Y614750D01*
Y612500D01*
X80274Y615500D02*X81024Y614750D01*
X85825Y618500D02*Y613250D01*
X86575Y612500D01*
X85075Y616250D02*X86575D01*
X93777Y618500D02*Y612500D01*
X93027D02*X93777Y613250D01*
X91527Y612500D02*X93027D01*
X90777Y613250D02*X91527Y612500D01*
X90777Y614750D02*Y613250D01*
Y614750D02*X91527Y615500D01*
X93027D01*
X93777Y614750D01*
X96328D02*Y612500D01*
Y614750D02*X97078Y615500D01*
X98578D01*
X95578D02*X96328Y614750D01*
X100380Y617000D02*Y616250D01*
Y614750D02*Y612500D01*
X101881Y618500D02*Y613250D01*
X102631Y612500D01*
X104133Y618500D02*Y613250D01*
X104883Y612500D01*
X109834D02*X112084D01*
X112834Y613250D01*
X112084Y614000D02*X112834Y613250D01*
X109834Y614000D02*X112084D01*
X109084Y614750D02*X109834Y614000D01*
X109084Y614750D02*X109834Y615500D01*
X112084D01*
X112834Y614750D01*
X109084Y613250D02*X109834Y612500D01*
X114636Y617000D02*Y616250D01*
Y614750D02*Y612500D01*
X116137Y615500D02*X119137D01*
X116137Y612500D02*X119137Y615500D01*
X116137Y612500D02*X119137D01*
X121689D02*X123939D01*
X120939Y613250D02*X121689Y612500D01*
X120939Y614750D02*Y613250D01*
Y614750D02*X121689Y615500D01*
X123189D01*
X123939Y614750D01*
X120939Y614000D02*X123939D01*
Y614750D02*Y614000D01*
X126490Y612500D02*X128740D01*
X129490Y613250D01*
X128740Y614000D02*X129490Y613250D01*
X126490Y614000D02*X128740D01*
X125740Y614750D02*X126490Y614000D01*
X125740Y614750D02*X126490Y615500D01*
X128740D01*
X129490Y614750D01*
X125740Y613250D02*X126490Y612500D01*
X133992Y615500D02*Y613250D01*
X134742Y612500D01*
X136242D01*
X136992Y613250D01*
Y615500D02*Y613250D01*
X139543Y612500D02*X141793D01*
X142543Y613250D01*
X141793Y614000D02*X142543Y613250D01*
X139543Y614000D02*X141793D01*
X138793Y614750D02*X139543Y614000D01*
X138793Y614750D02*X139543Y615500D01*
X141793D01*
X142543Y614750D01*
X138793Y613250D02*X139543Y612500D01*
X145095D02*X147345D01*
X144345Y613250D02*X145095Y612500D01*
X144345Y614750D02*Y613250D01*
Y614750D02*X145095Y615500D01*
X146595D01*
X147345Y614750D01*
X144345Y614000D02*X147345D01*
Y614750D02*Y614000D01*
X152146Y618500D02*Y612500D01*
X151396D02*X152146Y613250D01*
X149896Y612500D02*X151396D01*
X149146Y613250D02*X149896Y612500D01*
X149146Y614750D02*Y613250D01*
Y614750D02*X149896Y615500D01*
X151396D01*
X152146Y614750D01*
X156648Y617000D02*Y616250D01*
Y614750D02*Y612500D01*
X158899Y614750D02*Y612500D01*
Y614750D02*X159649Y615500D01*
X160399D01*
X161149Y614750D01*
Y612500D01*
X158149Y615500D02*X158899Y614750D01*
X166401Y618500D02*Y613250D01*
X167151Y612500D01*
X165651Y616250D02*X167151D01*
X168652Y618500D02*Y612500D01*
Y614750D02*X169402Y615500D01*
X170902D01*
X171652Y614750D01*
Y612500D01*
X173454Y617000D02*Y616250D01*
Y614750D02*Y612500D01*
X175705D02*X177955D01*
X178705Y613250D01*
X177955Y614000D02*X178705Y613250D01*
X175705Y614000D02*X177955D01*
X174955Y614750D02*X175705Y614000D01*
X174955Y614750D02*X175705Y615500D01*
X177955D01*
X178705Y614750D01*
X174955Y613250D02*X175705Y612500D01*
X183207Y618500D02*Y613250D01*
X183957Y612500D01*
X187708Y615500D02*X188458Y614750D01*
X186208Y615500D02*X187708D01*
X185458Y614750D02*X186208Y615500D01*
X185458Y614750D02*Y613250D01*
X186208Y612500D01*
X188458Y615500D02*Y613250D01*
X189208Y612500D01*
X186208D02*X187708D01*
X188458Y613250D01*
X191010Y615500D02*Y613250D01*
X191760Y612500D01*
X194010Y615500D02*Y611000D01*
X193260Y610250D02*X194010Y611000D01*
X191760Y610250D02*X193260D01*
X191010Y611000D02*X191760Y610250D01*
Y612500D02*X193260D01*
X194010Y613250D01*
X195811Y614750D02*Y613250D01*
Y614750D02*X196561Y615500D01*
X198061D01*
X198811Y614750D01*
Y613250D01*
X198061Y612500D02*X198811Y613250D01*
X196561Y612500D02*X198061D01*
X195811Y613250D02*X196561Y612500D01*
X200613Y615500D02*Y613250D01*
X201363Y612500D01*
X202863D01*
X203613Y613250D01*
Y615500D02*Y613250D01*
X206164Y618500D02*Y613250D01*
X206914Y612500D01*
X205414Y616250D02*X206914D01*
X208416Y611000D02*X209916Y612500D01*
X215167D02*X216667D01*
X215917Y618500D02*Y612500D01*
X214417Y617000D02*X215917Y618500D01*
X218469Y613250D02*X219219Y612500D01*
X218469Y617750D02*Y613250D01*
Y617750D02*X219219Y618500D01*
X220719D01*
X221469Y617750D01*
Y613250D01*
X220719Y612500D02*X221469Y613250D01*
X219219Y612500D02*X220719D01*
X218469Y614000D02*X221469Y617000D01*
X223270Y612500D02*X227020Y616250D01*
Y618500D02*Y616250D01*
X223270Y618500D02*X227020D01*
X231522D02*Y612500D01*
Y614750D02*X232272Y615500D01*
X233772D01*
X234522Y614750D01*
Y612500D01*
X236323Y614750D02*Y613250D01*
Y614750D02*X237073Y615500D01*
X238573D01*
X239323Y614750D01*
Y613250D01*
X238573Y612500D02*X239323Y613250D01*
X237073Y612500D02*X238573D01*
X236323Y613250D02*X237073Y612500D01*
X241125Y618500D02*Y613250D01*
X241875Y612500D01*
X244126D02*X246376D01*
X243376Y613250D02*X244126Y612500D01*
X243376Y614750D02*Y613250D01*
Y614750D02*X244126Y615500D01*
X245626D01*
X246376Y614750D01*
X243376Y614000D02*X246376D01*
Y614750D02*Y614000D01*
X248928Y612500D02*X251178D01*
X251928Y613250D01*
X251178Y614000D02*X251928Y613250D01*
X248928Y614000D02*X251178D01*
X248178Y614750D02*X248928Y614000D01*
X248178Y614750D02*X248928Y615500D01*
X251178D01*
X251928Y614750D01*
X248178Y613250D02*X248928Y612500D01*
X257179Y618500D02*Y613250D01*
X257929Y612500D01*
X256429Y616250D02*X257929D01*
X259431Y614750D02*Y613250D01*
Y614750D02*X260181Y615500D01*
X261681D01*
X262431Y614750D01*
Y613250D01*
X261681Y612500D02*X262431Y613250D01*
X260181Y612500D02*X261681D01*
X259431Y613250D02*X260181Y612500D01*
X264982Y618500D02*Y613250D01*
X265732Y612500D01*
X264232Y616250D02*X265732D01*
X269484Y615500D02*X270234Y614750D01*
X267984Y615500D02*X269484D01*
X267234Y614750D02*X267984Y615500D01*
X267234Y614750D02*Y613250D01*
X267984Y612500D01*
X270234Y615500D02*Y613250D01*
X270984Y612500D01*
X267984D02*X269484D01*
X270234Y613250D01*
X272785Y618500D02*Y613250D01*
X273535Y612500D01*
G54D11*X0Y500000D02*X600000D01*
X0D02*Y0D01*
X600000Y500000D02*Y0D01*
X0D02*X600000D01*
G54D59*X200000Y513500D02*Y507500D01*
Y513500D02*X202250Y511250D01*
X204500Y513500D01*
Y507500D01*
X208551Y510500D02*X209301Y509750D01*
X207051Y510500D02*X208551D01*
X206301Y509750D02*X207051Y510500D01*
X206301Y509750D02*Y508250D01*
X207051Y507500D01*
X209301Y510500D02*Y508250D01*
X210051Y507500D01*
X207051D02*X208551D01*
X209301Y508250D01*
X211853Y510500D02*X214853Y507500D01*
X211853D02*X214853Y510500D01*
X216654Y512000D02*Y511250D01*
Y509750D02*Y507500D01*
X218906Y509750D02*Y507500D01*
Y509750D02*X219656Y510500D01*
X220406D01*
X221156Y509750D01*
Y507500D01*
Y509750D02*X221906Y510500D01*
X222656D01*
X223406Y509750D01*
Y507500D01*
X218156Y510500D02*X218906Y509750D01*
X225207Y510500D02*Y508250D01*
X225957Y507500D01*
X227457D01*
X228207Y508250D01*
Y510500D02*Y508250D01*
X230759Y509750D02*Y507500D01*
Y509750D02*X231509Y510500D01*
X232259D01*
X233009Y509750D01*
Y507500D01*
Y509750D02*X233759Y510500D01*
X234509D01*
X235259Y509750D01*
Y507500D01*
X230009Y510500D02*X230759Y509750D01*
X240510Y513500D02*Y507500D01*
X242760Y513500D02*X243510Y512750D01*
Y508250D01*
X242760Y507500D02*X243510Y508250D01*
X239760Y507500D02*X242760D01*
X239760Y513500D02*X242760D01*
X245312Y512000D02*Y511250D01*
Y509750D02*Y507500D01*
X247563Y509750D02*Y507500D01*
Y509750D02*X248313Y510500D01*
X249063D01*
X249813Y509750D01*
Y507500D01*
Y509750D02*X250563Y510500D01*
X251313D01*
X252063Y509750D01*
Y507500D01*
X246813Y510500D02*X247563Y509750D01*
X254615Y507500D02*X256865D01*
X253865Y508250D02*X254615Y507500D01*
X253865Y509750D02*Y508250D01*
Y509750D02*X254615Y510500D01*
X256115D01*
X256865Y509750D01*
X253865Y509000D02*X256865D01*
Y509750D02*Y509000D01*
X259416Y509750D02*Y507500D01*
Y509750D02*X260166Y510500D01*
X260916D01*
X261666Y509750D01*
Y507500D01*
X258666Y510500D02*X259416Y509750D01*
X264218Y507500D02*X266468D01*
X267218Y508250D01*
X266468Y509000D02*X267218Y508250D01*
X264218Y509000D02*X266468D01*
X263468Y509750D02*X264218Y509000D01*
X263468Y509750D02*X264218Y510500D01*
X266468D01*
X267218Y509750D01*
X263468Y508250D02*X264218Y507500D01*
X269019Y512000D02*Y511250D01*
Y509750D02*Y507500D01*
X270521Y509750D02*Y508250D01*
Y509750D02*X271271Y510500D01*
X272771D01*
X273521Y509750D01*
Y508250D01*
X272771Y507500D02*X273521Y508250D01*
X271271Y507500D02*X272771D01*
X270521Y508250D02*X271271Y507500D01*
X276072Y509750D02*Y507500D01*
Y509750D02*X276822Y510500D01*
X277572D01*
X278322Y509750D01*
Y507500D01*
X275322Y510500D02*X276072Y509750D01*
X280874Y507500D02*X283124D01*
X283874Y508250D01*
X283124Y509000D02*X283874Y508250D01*
X280874Y509000D02*X283124D01*
X280124Y509750D02*X280874Y509000D01*
X280124Y509750D02*X280874Y510500D01*
X283124D01*
X283874Y509750D01*
X280124Y508250D02*X280874Y507500D01*
X285675Y511250D02*X286425D01*
X285675Y509750D02*X286425D01*
X293177Y513500D02*X293927Y512750D01*
X291677Y513500D02*X293177D01*
X290927Y512750D02*X291677Y513500D01*
X290927Y512750D02*Y508250D01*
X291677Y507500D01*
X293177Y510500D02*X293927Y509750D01*
X290927Y510500D02*X293177D01*
X291677Y507500D02*X293177D01*
X293927Y508250D01*
Y509750D02*Y508250D01*
X295728D02*X296478Y507500D01*
X295728Y512750D02*Y508250D01*
Y512750D02*X296478Y513500D01*
X297978D01*
X298728Y512750D01*
Y508250D01*
X297978Y507500D02*X298728Y508250D01*
X296478Y507500D02*X297978D01*
X295728Y509000D02*X298728Y512000D01*
X300530Y508250D02*X301280Y507500D01*
X300530Y512750D02*Y508250D01*
Y512750D02*X301280Y513500D01*
X302780D01*
X303530Y512750D01*
Y508250D01*
X302780Y507500D02*X303530Y508250D01*
X301280Y507500D02*X302780D01*
X300530Y509000D02*X303530Y512000D01*
X305331Y508250D02*X306081Y507500D01*
X305331Y512750D02*Y508250D01*
Y512750D02*X306081Y513500D01*
X307581D01*
X308331Y512750D01*
Y508250D01*
X307581Y507500D02*X308331Y508250D01*
X306081Y507500D02*X307581D01*
X305331Y509000D02*X308331Y512000D01*
X313583Y509750D02*Y507500D01*
Y509750D02*X314333Y510500D01*
X315083D01*
X315833Y509750D01*
Y507500D01*
Y509750D02*X316583Y510500D01*
X317333D01*
X318083Y509750D01*
Y507500D01*
X312833Y510500D02*X313583Y509750D01*
X319884Y512000D02*Y511250D01*
Y509750D02*Y507500D01*
X321386Y513500D02*Y508250D01*
X322136Y507500D01*
X324387D02*X326637D01*
X327387Y508250D01*
X326637Y509000D02*X327387Y508250D01*
X324387Y509000D02*X326637D01*
X323637Y509750D02*X324387Y509000D01*
X323637Y509750D02*X324387Y510500D01*
X326637D01*
X327387Y509750D01*
X323637Y508250D02*X324387Y507500D01*
X331889Y510500D02*Y508250D01*
X332639Y507500D01*
X333389D01*
X334139Y508250D01*
Y510500D02*Y508250D01*
X334889Y507500D01*
X335639D01*
X336389Y508250D01*
Y510500D02*Y508250D01*
X338190Y512000D02*Y511250D01*
Y509750D02*Y507500D01*
X342692Y513500D02*Y507500D01*
X341942D02*X342692Y508250D01*
X340442Y507500D02*X341942D01*
X339692Y508250D02*X340442Y507500D01*
X339692Y509750D02*Y508250D01*
Y509750D02*X340442Y510500D01*
X341942D01*
X342692Y509750D01*
X345243Y507500D02*X347493D01*
X344493Y508250D02*X345243Y507500D01*
X344493Y509750D02*Y508250D01*
Y509750D02*X345243Y510500D01*
X346743D01*
X347493Y509750D01*
X344493Y509000D02*X347493D01*
Y509750D02*Y509000D01*
X349295Y506000D02*X350795Y507500D01*
X355296Y513500D02*X358296D01*
X355296D02*Y510500D01*
X356046Y511250D01*
X357546D01*
X358296Y510500D01*
Y508250D01*
X357546Y507500D02*X358296Y508250D01*
X356046Y507500D02*X357546D01*
X355296Y508250D02*X356046Y507500D01*
X360098Y508250D02*X360848Y507500D01*
X360098Y512750D02*Y508250D01*
Y512750D02*X360848Y513500D01*
X362348D01*
X363098Y512750D01*
Y508250D01*
X362348Y507500D02*X363098Y508250D01*
X360848Y507500D02*X362348D01*
X360098Y509000D02*X363098Y512000D01*
X364899Y508250D02*X365649Y507500D01*
X364899Y512750D02*Y508250D01*
Y512750D02*X365649Y513500D01*
X367149D01*
X367899Y512750D01*
Y508250D01*
X367149Y507500D02*X367899Y508250D01*
X365649Y507500D02*X367149D01*
X364899Y509000D02*X367899Y512000D01*
X369701Y508250D02*X370451Y507500D01*
X369701Y512750D02*Y508250D01*
Y512750D02*X370451Y513500D01*
X371951D01*
X372701Y512750D01*
Y508250D01*
X371951Y507500D02*X372701Y508250D01*
X370451Y507500D02*X371951D01*
X369701Y509000D02*X372701Y512000D01*
X377952Y509750D02*Y507500D01*
Y509750D02*X378702Y510500D01*
X379452D01*
X380202Y509750D01*
Y507500D01*
Y509750D02*X380952Y510500D01*
X381702D01*
X382452Y509750D01*
Y507500D01*
X377202Y510500D02*X377952Y509750D01*
X384254Y512000D02*Y511250D01*
Y509750D02*Y507500D01*
X385755Y513500D02*Y508250D01*
X386505Y507500D01*
X388757D02*X391007D01*
X391757Y508250D01*
X391007Y509000D02*X391757Y508250D01*
X388757Y509000D02*X391007D01*
X388007Y509750D02*X388757Y509000D01*
X388007Y509750D02*X388757Y510500D01*
X391007D01*
X391757Y509750D01*
X388007Y508250D02*X388757Y507500D01*
X396258Y513500D02*Y507500D01*
Y509750D02*X397008Y510500D01*
X398508D01*
X399258Y509750D01*
Y507500D01*
X401060Y512000D02*Y511250D01*
Y509750D02*Y507500D01*
X404811Y510500D02*X405561Y509750D01*
X403311Y510500D02*X404811D01*
X402561Y509750D02*X403311Y510500D01*
X402561Y509750D02*Y508250D01*
X403311Y507500D01*
X404811D01*
X405561Y508250D01*
X402561Y506000D02*X403311Y505250D01*
X404811D01*
X405561Y506000D01*
Y510500D02*Y506000D01*
X407363Y513500D02*Y507500D01*
Y509750D02*X408113Y510500D01*
X409613D01*
X410363Y509750D01*
Y507500D01*
X142226Y-9500D02*X145226D01*
X145976Y-8750D01*
Y-7250D02*Y-8750D01*
X145226Y-6500D02*X145976Y-7250D01*
X142976Y-6500D02*X145226D01*
X142976Y-3500D02*Y-9500D01*
X142226Y-3500D02*X145226D01*
X145976Y-4250D01*
Y-5750D01*
X145226Y-6500D02*X145976Y-5750D01*
X147777Y-7250D02*Y-8750D01*
Y-7250D02*X148527Y-6500D01*
X150027D01*
X150777Y-7250D01*
Y-8750D01*
X150027Y-9500D02*X150777Y-8750D01*
X148527Y-9500D02*X150027D01*
X147777Y-8750D02*X148527Y-9500D01*
X154829Y-6500D02*X155579Y-7250D01*
X153329Y-6500D02*X154829D01*
X152579Y-7250D02*X153329Y-6500D01*
X152579Y-7250D02*Y-8750D01*
X153329Y-9500D01*
X155579Y-6500D02*Y-8750D01*
X156329Y-9500D01*
X153329D02*X154829D01*
X155579Y-8750D01*
X158880Y-7250D02*Y-9500D01*
Y-7250D02*X159630Y-6500D01*
X161130D01*
X158130D02*X158880Y-7250D01*
X165932Y-3500D02*Y-9500D01*
X165182D02*X165932Y-8750D01*
X163682Y-9500D02*X165182D01*
X162932Y-8750D02*X163682Y-9500D01*
X162932Y-7250D02*Y-8750D01*
Y-7250D02*X163682Y-6500D01*
X165182D01*
X165932Y-7250D01*
X170433D02*Y-8750D01*
Y-7250D02*X171183Y-6500D01*
X172683D01*
X173433Y-7250D01*
Y-8750D01*
X172683Y-9500D02*X173433Y-8750D01*
X171183Y-9500D02*X172683D01*
X170433Y-8750D02*X171183Y-9500D01*
X175235Y-6500D02*Y-8750D01*
X175985Y-9500D01*
X177485D01*
X178235Y-8750D01*
Y-6500D02*Y-8750D01*
X180786Y-3500D02*Y-8750D01*
X181536Y-9500D01*
X180036Y-5750D02*X181536D01*
X183038Y-3500D02*Y-8750D01*
X183788Y-9500D01*
X185289Y-5000D02*Y-5750D01*
Y-7250D02*Y-9500D01*
X187541Y-7250D02*Y-9500D01*
Y-7250D02*X188291Y-6500D01*
X189041D01*
X189791Y-7250D01*
Y-9500D01*
X186791Y-6500D02*X187541Y-7250D01*
X192342Y-9500D02*X194592D01*
X191592Y-8750D02*X192342Y-9500D01*
X191592Y-7250D02*Y-8750D01*
Y-7250D02*X192342Y-6500D01*
X193842D01*
X194592Y-7250D01*
X191592Y-8000D02*X194592D01*
Y-7250D02*Y-8000D01*
X199094Y-5000D02*Y-5750D01*
Y-7250D02*Y-9500D01*
X201345D02*X203595D01*
X204345Y-8750D01*
X203595Y-8000D02*X204345Y-8750D01*
X201345Y-8000D02*X203595D01*
X200595Y-7250D02*X201345Y-8000D01*
X200595Y-7250D02*X201345Y-6500D01*
X203595D01*
X204345Y-7250D01*
X200595Y-8750D02*X201345Y-9500D01*
X209597Y-3500D02*Y-8750D01*
X210347Y-9500D01*
X208847Y-5750D02*X210347D01*
X211848Y-3500D02*Y-9500D01*
Y-7250D02*X212598Y-6500D01*
X214098D01*
X214848Y-7250D01*
Y-9500D01*
X217400D02*X219650D01*
X216650Y-8750D02*X217400Y-9500D01*
X216650Y-7250D02*Y-8750D01*
Y-7250D02*X217400Y-6500D01*
X218900D01*
X219650Y-7250D01*
X216650Y-8000D02*X219650D01*
Y-7250D02*Y-8000D01*
X224901Y-6500D02*X227151D01*
X224151Y-7250D02*X224901Y-6500D01*
X224151Y-7250D02*Y-8750D01*
X224901Y-9500D01*
X227151D01*
X229703D02*X231953D01*
X228953Y-8750D02*X229703Y-9500D01*
X228953Y-7250D02*Y-8750D01*
Y-7250D02*X229703Y-6500D01*
X231203D01*
X231953Y-7250D01*
X228953Y-8000D02*X231953D01*
Y-7250D02*Y-8000D01*
X234504Y-7250D02*Y-9500D01*
Y-7250D02*X235254Y-6500D01*
X236004D01*
X236754Y-7250D01*
Y-9500D01*
X233754Y-6500D02*X234504Y-7250D01*
X239306Y-3500D02*Y-8750D01*
X240056Y-9500D01*
X238556Y-5750D02*X240056D01*
X242307Y-9500D02*X244557D01*
X241557Y-8750D02*X242307Y-9500D01*
X241557Y-7250D02*Y-8750D01*
Y-7250D02*X242307Y-6500D01*
X243807D01*
X244557Y-7250D01*
X241557Y-8000D02*X244557D01*
Y-7250D02*Y-8000D01*
X247109Y-7250D02*Y-9500D01*
Y-7250D02*X247859Y-6500D01*
X249359D01*
X246359D02*X247109Y-7250D01*
X251160Y-3500D02*Y-8750D01*
X251910Y-9500D01*
X253412Y-5000D02*Y-5750D01*
Y-7250D02*Y-9500D01*
X255663Y-7250D02*Y-9500D01*
Y-7250D02*X256413Y-6500D01*
X257163D01*
X257913Y-7250D01*
Y-9500D01*
X254913Y-6500D02*X255663Y-7250D01*
X260465Y-9500D02*X262715D01*
X259715Y-8750D02*X260465Y-9500D01*
X259715Y-7250D02*Y-8750D01*
Y-7250D02*X260465Y-6500D01*
X261965D01*
X262715Y-7250D01*
X259715Y-8000D02*X262715D01*
Y-7250D02*Y-8000D01*
X267216Y-7250D02*Y-8750D01*
Y-7250D02*X267966Y-6500D01*
X269466D01*
X270216Y-7250D01*
Y-8750D01*
X269466Y-9500D02*X270216Y-8750D01*
X267966Y-9500D02*X269466D01*
X267216Y-8750D02*X267966Y-9500D01*
X272768Y-4250D02*Y-9500D01*
Y-4250D02*X273518Y-3500D01*
X274268D01*
X272018Y-6500D02*X273518D01*
X279219Y-3500D02*Y-8750D01*
X279969Y-9500D01*
X278469Y-5750D02*X279969D01*
X281471Y-3500D02*Y-9500D01*
Y-7250D02*X282221Y-6500D01*
X283721D01*
X284471Y-7250D01*
Y-9500D01*
X286272Y-5000D02*Y-5750D01*
Y-7250D02*Y-9500D01*
X288524D02*X290774D01*
X291524Y-8750D01*
X290774Y-8000D02*X291524Y-8750D01*
X288524Y-8000D02*X290774D01*
X287774Y-7250D02*X288524Y-8000D01*
X287774Y-7250D02*X288524Y-6500D01*
X290774D01*
X291524Y-7250D01*
X287774Y-8750D02*X288524Y-9500D01*
X296775D02*X298275D01*
X297525Y-3500D02*Y-9500D01*
X296025Y-5000D02*X297525Y-3500D01*
X300077Y-8750D02*X300827Y-9500D01*
X300077Y-4250D02*Y-8750D01*
Y-4250D02*X300827Y-3500D01*
X302327D01*
X303077Y-4250D01*
Y-8750D01*
X302327Y-9500D02*X303077Y-8750D01*
X300827Y-9500D02*X302327D01*
X300077Y-8000D02*X303077Y-5000D01*
X308328Y-7250D02*Y-9500D01*
Y-7250D02*X309078Y-6500D01*
X309828D01*
X310578Y-7250D01*
Y-9500D01*
Y-7250D02*X311328Y-6500D01*
X312078D01*
X312828Y-7250D01*
Y-9500D01*
X307578Y-6500D02*X308328Y-7250D01*
X314630Y-5000D02*Y-5750D01*
Y-7250D02*Y-9500D01*
X316131Y-3500D02*Y-8750D01*
X316881Y-9500D01*
X321833Y-7250D02*Y-9500D01*
Y-7250D02*X322583Y-6500D01*
X324083D01*
X321083D02*X321833Y-7250D01*
X326634Y-9500D02*X328884D01*
X325884Y-8750D02*X326634Y-9500D01*
X325884Y-7250D02*Y-8750D01*
Y-7250D02*X326634Y-6500D01*
X328134D01*
X328884Y-7250D01*
X325884Y-8000D02*X328884D01*
Y-7250D02*Y-8000D01*
X331436Y-6500D02*X333686D01*
X330686Y-7250D02*X331436Y-6500D01*
X330686Y-7250D02*Y-8750D01*
X331436Y-9500D01*
X333686D01*
X336237Y-3500D02*Y-8750D01*
X336987Y-9500D01*
X335487Y-5750D02*X336987D01*
X340739Y-6500D02*X341489Y-7250D01*
X339239Y-6500D02*X340739D01*
X338489Y-7250D02*X339239Y-6500D01*
X338489Y-7250D02*Y-8750D01*
X339239Y-9500D01*
X341489Y-6500D02*Y-8750D01*
X342239Y-9500D01*
X339239D02*X340739D01*
X341489Y-8750D01*
X344790Y-7250D02*Y-9500D01*
Y-7250D02*X345540Y-6500D01*
X346290D01*
X347040Y-7250D01*
Y-9500D01*
X344040Y-6500D02*X344790Y-7250D01*
X351092Y-6500D02*X351842Y-7250D01*
X349592Y-6500D02*X351092D01*
X348842Y-7250D02*X349592Y-6500D01*
X348842Y-7250D02*Y-8750D01*
X349592Y-9500D01*
X351092D01*
X351842Y-8750D01*
X348842Y-11000D02*X349592Y-11750D01*
X351092D01*
X351842Y-11000D01*
Y-6500D02*Y-11000D01*
X353643Y-3500D02*Y-8750D01*
X354393Y-9500D01*
X356645D02*X358895D01*
X355895Y-8750D02*X356645Y-9500D01*
X355895Y-7250D02*Y-8750D01*
Y-7250D02*X356645Y-6500D01*
X358145D01*
X358895Y-7250D01*
X355895Y-8000D02*X358895D01*
Y-7250D02*Y-8000D01*
X363396Y-6500D02*X366396D01*
X370898Y-8750D02*X371648Y-9500D01*
X370898Y-4250D02*Y-8750D01*
Y-4250D02*X371648Y-3500D01*
X373148D01*
X373898Y-4250D01*
Y-8750D01*
X373148Y-9500D02*X373898Y-8750D01*
X371648Y-9500D02*X373148D01*
X370898Y-8000D02*X373898Y-5000D01*
X375699Y-11000D02*X377199Y-9500D01*
X379001Y-8750D02*X379751Y-9500D01*
X379001Y-4250D02*Y-8750D01*
Y-4250D02*X379751Y-3500D01*
X381251D01*
X382001Y-4250D01*
Y-8750D01*
X381251Y-9500D02*X382001Y-8750D01*
X379751Y-9500D02*X381251D01*
X379001Y-8000D02*X382001Y-5000D01*
X387252Y-3500D02*Y-8750D01*
X388002Y-9500D01*
X386502Y-5750D02*X388002D01*
X389504Y-7250D02*Y-8750D01*
Y-7250D02*X390254Y-6500D01*
X391754D01*
X392504Y-7250D01*
Y-8750D01*
X391754Y-9500D02*X392504Y-8750D01*
X390254Y-9500D02*X391754D01*
X389504Y-8750D02*X390254Y-9500D01*
X399255Y-3500D02*X400005Y-4250D01*
X397755Y-3500D02*X399255D01*
X397005Y-4250D02*X397755Y-3500D01*
X397005Y-4250D02*Y-8750D01*
X397755Y-9500D01*
X399255Y-6500D02*X400005Y-7250D01*
X397005Y-6500D02*X399255D01*
X397755Y-9500D02*X399255D01*
X400005Y-8750D01*
Y-7250D02*Y-8750D01*
X401807D02*X402557Y-9500D01*
X401807Y-4250D02*Y-8750D01*
Y-4250D02*X402557Y-3500D01*
X404057D01*
X404807Y-4250D01*
Y-8750D01*
X404057Y-9500D02*X404807Y-8750D01*
X402557Y-9500D02*X404057D01*
X401807Y-8000D02*X404807Y-5000D01*
X406608Y-8750D02*X407358Y-9500D01*
X406608Y-4250D02*Y-8750D01*
Y-4250D02*X407358Y-3500D01*
X408858D01*
X409608Y-4250D01*
Y-8750D01*
X408858Y-9500D02*X409608Y-8750D01*
X407358Y-9500D02*X408858D01*
X406608Y-8000D02*X409608Y-5000D01*
X411410Y-8750D02*X412160Y-9500D01*
X411410Y-4250D02*Y-8750D01*
Y-4250D02*X412160Y-3500D01*
X413660D01*
X414410Y-4250D01*
Y-8750D01*
X413660Y-9500D02*X414410Y-8750D01*
X412160Y-9500D02*X413660D01*
X411410Y-8000D02*X414410Y-5000D01*
X416211Y-11000D02*X417711Y-9500D01*
X419513Y-3500D02*X422513D01*
X419513D02*Y-6500D01*
X420263Y-5750D01*
X421763D01*
X422513Y-6500D01*
Y-8750D01*
X421763Y-9500D02*X422513Y-8750D01*
X420263Y-9500D02*X421763D01*
X419513Y-8750D02*X420263Y-9500D01*
X424314Y-8750D02*X425064Y-9500D01*
X424314Y-4250D02*Y-8750D01*
Y-4250D02*X425064Y-3500D01*
X426564D01*
X427314Y-4250D01*
Y-8750D01*
X426564Y-9500D02*X427314Y-8750D01*
X425064Y-9500D02*X426564D01*
X424314Y-8000D02*X427314Y-5000D01*
X429116Y-8750D02*X429866Y-9500D01*
X429116Y-4250D02*Y-8750D01*
Y-4250D02*X429866Y-3500D01*
X431366D01*
X432116Y-4250D01*
Y-8750D01*
X431366Y-9500D02*X432116Y-8750D01*
X429866Y-9500D02*X431366D01*
X429116Y-8000D02*X432116Y-5000D01*
X433917Y-8750D02*X434667Y-9500D01*
X433917Y-4250D02*Y-8750D01*
Y-4250D02*X434667Y-3500D01*
X436167D01*
X436917Y-4250D01*
Y-8750D01*
X436167Y-9500D02*X436917Y-8750D01*
X434667Y-9500D02*X436167D01*
X433917Y-8000D02*X436917Y-5000D01*
X442169Y-7250D02*Y-9500D01*
Y-7250D02*X442919Y-6500D01*
X443669D01*
X444419Y-7250D01*
Y-9500D01*
Y-7250D02*X445169Y-6500D01*
X445919D01*
X446669Y-7250D01*
Y-9500D01*
X441419Y-6500D02*X442169Y-7250D01*
X448470Y-5000D02*Y-5750D01*
Y-7250D02*Y-9500D01*
X449972Y-3500D02*Y-8750D01*
X450722Y-9500D01*
X452973D02*X455223D01*
X455973Y-8750D01*
X455223Y-8000D02*X455973Y-8750D01*
X452973Y-8000D02*X455223D01*
X452223Y-7250D02*X452973Y-8000D01*
X452223Y-7250D02*X452973Y-6500D01*
X455223D01*
X455973Y-7250D01*
X452223Y-8750D02*X452973Y-9500D01*
X200750Y528500D02*Y522500D01*
X203000Y528500D02*X203750Y527750D01*
Y523250D01*
X203000Y522500D02*X203750Y523250D01*
X200000Y522500D02*X203000D01*
X200000Y528500D02*X203000D01*
X207801Y525500D02*X208551Y524750D01*
X206301Y525500D02*X207801D01*
X205551Y524750D02*X206301Y525500D01*
X205551Y524750D02*Y523250D01*
X206301Y522500D01*
X208551Y525500D02*Y523250D01*
X209301Y522500D01*
X206301D02*X207801D01*
X208551Y523250D01*
X211853Y528500D02*Y523250D01*
X212603Y522500D01*
X211103Y526250D02*X212603D01*
X214854Y522500D02*X217104D01*
X214104Y523250D02*X214854Y522500D01*
X214104Y524750D02*Y523250D01*
Y524750D02*X214854Y525500D01*
X216354D01*
X217104Y524750D01*
X214104Y524000D02*X217104D01*
Y524750D02*Y524000D01*
X218906Y526250D02*X219656D01*
X218906Y524750D02*X219656D01*
X224157Y528500D02*Y522500D01*
Y528500D02*X226407Y526250D01*
X228657Y528500D01*
Y522500D01*
X230459Y524750D02*Y523250D01*
Y524750D02*X231209Y525500D01*
X232709D01*
X233459Y524750D01*
Y523250D01*
X232709Y522500D02*X233459Y523250D01*
X231209Y522500D02*X232709D01*
X230459Y523250D02*X231209Y522500D01*
X236010Y524750D02*Y522500D01*
Y524750D02*X236760Y525500D01*
X237510D01*
X238260Y524750D01*
Y522500D01*
X235260Y525500D02*X236010Y524750D01*
X242762Y527750D02*X243512Y528500D01*
X245012D01*
X245762Y527750D01*
Y523250D01*
X245012Y522500D02*X245762Y523250D01*
X243512Y522500D02*X245012D01*
X242762Y523250D02*X243512Y522500D01*
Y525500D02*X245762D01*
X247563Y523250D02*X248313Y522500D01*
X247563Y527750D02*Y523250D01*
Y527750D02*X248313Y528500D01*
X249813D01*
X250563Y527750D01*
Y523250D01*
X249813Y522500D02*X250563Y523250D01*
X248313Y522500D02*X249813D01*
X247563Y524000D02*X250563Y527000D01*
X255065Y527750D02*Y522500D01*
Y527750D02*X255815Y528500D01*
X258065D01*
X258815Y527750D01*
Y522500D01*
X255065Y525500D02*X258815D01*
X260616D02*Y523250D01*
X261366Y522500D01*
X262866D01*
X263616Y523250D01*
Y525500D02*Y523250D01*
X267668Y525500D02*X268418Y524750D01*
X266168Y525500D02*X267668D01*
X265418Y524750D02*X266168Y525500D01*
X265418Y524750D02*Y523250D01*
X266168Y522500D01*
X267668D01*
X268418Y523250D01*
X265418Y521000D02*X266168Y520250D01*
X267668D01*
X268418Y521000D01*
Y525500D02*Y521000D01*
X272919Y527750D02*X273669Y528500D01*
X275919D01*
X276669Y527750D01*
Y526250D01*
X272919Y522500D02*X276669Y526250D01*
X272919Y522500D02*X276669D01*
X278471Y523250D02*X279221Y522500D01*
X278471Y527750D02*Y523250D01*
Y527750D02*X279221Y528500D01*
X280721D01*
X281471Y527750D01*
Y523250D01*
X280721Y522500D02*X281471Y523250D01*
X279221Y522500D02*X280721D01*
X278471Y524000D02*X281471Y527000D01*
X284022Y522500D02*X285522D01*
X284772Y528500D02*Y522500D01*
X283272Y527000D02*X284772Y528500D01*
X287324Y523250D02*X288074Y522500D01*
X287324Y527750D02*Y523250D01*
Y527750D02*X288074Y528500D01*
X289574D01*
X290324Y527750D01*
Y523250D01*
X289574Y522500D02*X290324Y523250D01*
X288074Y522500D02*X289574D01*
X287324Y524000D02*X290324Y527000D01*
X295575Y522500D02*X297075D01*
X296325Y528500D02*Y522500D01*
X294825Y527000D02*X296325Y528500D01*
X298877Y527750D02*X299627Y528500D01*
X301127D01*
X301877Y527750D01*
Y523250D01*
X301127Y522500D02*X301877Y523250D01*
X299627Y522500D02*X301127D01*
X298877Y523250D02*X299627Y522500D01*
Y525500D02*X301877D01*
X303678Y526250D02*X304428D01*
X303678Y524750D02*X304428D01*
X306230Y527750D02*X306980Y528500D01*
X308480D01*
X309230Y527750D01*
Y523250D01*
X308480Y522500D02*X309230Y523250D01*
X306980Y522500D02*X308480D01*
X306230Y523250D02*X306980Y522500D01*
Y525500D02*X309230D01*
X311031Y522500D02*X314781Y526250D01*
Y528500D02*Y526250D01*
X311031Y528500D02*X314781D01*
X316583Y526250D02*X317333D01*
X316583Y524750D02*X317333D01*
X319134Y527750D02*X319884Y528500D01*
X322134D01*
X322884Y527750D01*
Y526250D01*
X319134Y522500D02*X322884Y526250D01*
X319134Y522500D02*X322884D01*
X324686Y525500D02*X327686Y528500D01*
X324686Y525500D02*X328436D01*
X327686Y528500D02*Y522500D01*
X335937Y528500D02*X336687Y527750D01*
X333687Y528500D02*X335937D01*
X332937Y527750D02*X333687Y528500D01*
X332937Y527750D02*Y523250D01*
X333687Y522500D01*
X335937D01*
X336687Y523250D01*
Y524750D02*Y523250D01*
X335937Y525500D02*X336687Y524750D01*
X334437Y525500D02*X335937D01*
X338489Y528500D02*Y522500D01*
Y528500D02*X340739Y526250D01*
X342989Y528500D01*
Y522500D01*
X344790Y528500D02*X347790D01*
X346290D02*Y522500D01*
X352292Y528500D02*Y523250D01*
X353042Y522500D01*
X354542D01*
X355292Y523250D01*
Y528500D02*Y523250D01*
X357093Y528500D02*X360093D01*
X358593D02*Y522500D01*
X362645D02*X364895D01*
X361895Y523250D02*X362645Y522500D01*
X361895Y527750D02*Y523250D01*
Y527750D02*X362645Y528500D01*
X364895D01*
X200000Y542750D02*Y537500D01*
Y542750D02*X200750Y543500D01*
X203000D01*
X203750Y542750D01*
Y537500D01*
X200000Y540500D02*X203750D01*
X205551D02*Y538250D01*
X206301Y537500D01*
X207801D01*
X208551Y538250D01*
Y540500D02*Y538250D01*
X211103Y543500D02*Y538250D01*
X211853Y537500D01*
X210353Y541250D02*X211853D01*
X213354Y543500D02*Y537500D01*
Y539750D02*X214104Y540500D01*
X215604D01*
X216354Y539750D01*
Y537500D01*
X218156Y539750D02*Y538250D01*
Y539750D02*X218906Y540500D01*
X220406D01*
X221156Y539750D01*
Y538250D01*
X220406Y537500D02*X221156Y538250D01*
X218906Y537500D02*X220406D01*
X218156Y538250D02*X218906Y537500D01*
X223707Y539750D02*Y537500D01*
Y539750D02*X224457Y540500D01*
X225957D01*
X222957D02*X223707Y539750D01*
X227759Y541250D02*X228509D01*
X227759Y539750D02*X228509D01*
X233010Y543500D02*X236010D01*
X234510D02*Y537500D01*
X237812Y543500D02*Y537500D01*
Y539750D02*X238562Y540500D01*
X240062D01*
X240812Y539750D01*
Y537500D01*
X242613Y539750D02*Y538250D01*
Y539750D02*X243363Y540500D01*
X244863D01*
X245613Y539750D01*
Y538250D01*
X244863Y537500D02*X245613Y538250D01*
X243363Y537500D02*X244863D01*
X242613Y538250D02*X243363Y537500D01*
X248165Y539750D02*Y537500D01*
Y539750D02*X248915Y540500D01*
X249665D01*
X250415Y539750D01*
Y537500D01*
Y539750D02*X251165Y540500D01*
X251915D01*
X252665Y539750D01*
Y537500D01*
X247415Y540500D02*X248165Y539750D01*
X256716Y540500D02*X257466Y539750D01*
X255216Y540500D02*X256716D01*
X254466Y539750D02*X255216Y540500D01*
X254466Y539750D02*Y538250D01*
X255216Y537500D01*
X257466Y540500D02*Y538250D01*
X258216Y537500D01*
X255216D02*X256716D01*
X257466Y538250D01*
X260768Y537500D02*X263018D01*
X263768Y538250D01*
X263018Y539000D02*X263768Y538250D01*
X260768Y539000D02*X263018D01*
X260018Y539750D02*X260768Y539000D01*
X260018Y539750D02*X260768Y540500D01*
X263018D01*
X263768Y539750D01*
X260018Y538250D02*X260768Y537500D01*
X268269Y542750D02*Y538250D01*
Y542750D02*X269019Y543500D01*
X270519D01*
X271269Y542750D01*
Y538250D01*
X270519Y537500D02*X271269Y538250D01*
X269019Y537500D02*X270519D01*
X268269Y538250D02*X269019Y537500D01*
X273071Y543500D02*Y538250D01*
X273821Y537500D01*
X278322Y543500D02*Y537500D01*
X277572D02*X278322Y538250D01*
X276072Y537500D02*X277572D01*
X275322Y538250D02*X276072Y537500D01*
X275322Y539750D02*Y538250D01*
Y539750D02*X276072Y540500D01*
X277572D01*
X278322Y539750D01*
X280124Y543500D02*Y537500D01*
Y538250D02*X280874Y537500D01*
X282374D01*
X283124Y538250D01*
Y539750D02*Y538250D01*
X282374Y540500D02*X283124Y539750D01*
X280874Y540500D02*X282374D01*
X280124Y539750D02*X280874Y540500D01*
X284925D02*Y538250D01*
X285675Y537500D01*
X287175D01*
X287925Y538250D01*
Y540500D02*Y538250D01*
X290477Y539750D02*Y537500D01*
Y539750D02*X291227Y540500D01*
X292727D01*
X289727D02*X290477Y539750D01*
X294528Y540500D02*Y538250D01*
X295278Y537500D01*
X297528Y540500D02*Y536000D01*
X296778Y535250D02*X297528Y536000D01*
X295278Y535250D02*X296778D01*
X294528Y536000D02*X295278Y535250D01*
Y537500D02*X296778D01*
X297528Y538250D01*
X200000Y558500D02*X203000D01*
X201500D02*Y552500D01*
X204801Y557000D02*Y556250D01*
Y554750D02*Y552500D01*
X207053Y558500D02*Y553250D01*
X207803Y552500D01*
X206303Y556250D02*X207803D01*
X209304Y558500D02*Y553250D01*
X210054Y552500D01*
X212306D02*X214556D01*
X211556Y553250D02*X212306Y552500D01*
X211556Y554750D02*Y553250D01*
Y554750D02*X212306Y555500D01*
X213806D01*
X214556Y554750D01*
X211556Y554000D02*X214556D01*
Y554750D02*Y554000D01*
X216357Y556250D02*X217107D01*
X216357Y554750D02*X217107D01*
X221609Y553250D02*X222359Y552500D01*
X221609Y557750D02*X222359Y558500D01*
X221609Y557750D02*Y553250D01*
X224160Y555500D02*Y553250D01*
X224910Y552500D01*
X226410D01*
X227160Y553250D01*
Y555500D02*Y553250D01*
X229712Y554750D02*Y552500D01*
Y554750D02*X230462Y555500D01*
X231212D01*
X231962Y554750D01*
Y552500D01*
X228962Y555500D02*X229712Y554750D01*
X233763Y558500D02*Y552500D01*
Y554750D02*X236013Y552500D01*
X233763Y554750D02*X235263Y556250D01*
X238565Y554750D02*Y552500D01*
Y554750D02*X239315Y555500D01*
X240065D01*
X240815Y554750D01*
Y552500D01*
X237815Y555500D02*X238565Y554750D01*
X242616D02*Y553250D01*
Y554750D02*X243366Y555500D01*
X244866D01*
X245616Y554750D01*
Y553250D01*
X244866Y552500D02*X245616Y553250D01*
X243366Y552500D02*X244866D01*
X242616Y553250D02*X243366Y552500D01*
X247418Y555500D02*Y553250D01*
X248168Y552500D01*
X248918D01*
X249668Y553250D01*
Y555500D02*Y553250D01*
X250418Y552500D01*
X251168D01*
X251918Y553250D01*
Y555500D02*Y553250D01*
X254469Y554750D02*Y552500D01*
Y554750D02*X255219Y555500D01*
X255969D01*
X256719Y554750D01*
Y552500D01*
X253719Y555500D02*X254469Y554750D01*
X258521Y558500D02*X259271Y557750D01*
Y553250D01*
X258521Y552500D02*X259271Y553250D01*
X263772Y555500D02*X266772D01*
X271274Y558500D02*Y552500D01*
Y558500D02*X274274D01*
X271274Y555500D02*X273524D01*
X278325D02*X279075Y554750D01*
X276825Y555500D02*X278325D01*
X276075Y554750D02*X276825Y555500D01*
X276075Y554750D02*Y553250D01*
X276825Y552500D01*
X279075Y555500D02*Y553250D01*
X279825Y552500D01*
X276825D02*X278325D01*
X279075Y553250D01*
X281627Y558500D02*Y552500D01*
Y553250D02*X282377Y552500D01*
X283877D01*
X284627Y553250D01*
Y554750D02*Y553250D01*
X283877Y555500D02*X284627Y554750D01*
X282377Y555500D02*X283877D01*
X281627Y554750D02*X282377Y555500D01*
X287178Y554750D02*Y552500D01*
Y554750D02*X287928Y555500D01*
X289428D01*
X286428D02*X287178Y554750D01*
X291230Y557000D02*Y556250D01*
Y554750D02*Y552500D01*
X293481Y555500D02*X295731D01*
X292731Y554750D02*X293481Y555500D01*
X292731Y554750D02*Y553250D01*
X293481Y552500D01*
X295731D01*
X299783Y555500D02*X300533Y554750D01*
X298283Y555500D02*X299783D01*
X297533Y554750D02*X298283Y555500D01*
X297533Y554750D02*Y553250D01*
X298283Y552500D01*
X300533Y555500D02*Y553250D01*
X301283Y552500D01*
X298283D02*X299783D01*
X300533Y553250D01*
X303834Y558500D02*Y553250D01*
X304584Y552500D01*
X303084Y556250D02*X304584D01*
X306086Y557000D02*Y556250D01*
Y554750D02*Y552500D01*
X307587Y554750D02*Y553250D01*
Y554750D02*X308337Y555500D01*
X309837D01*
X310587Y554750D01*
Y553250D01*
X309837Y552500D02*X310587Y553250D01*
X308337Y552500D02*X309837D01*
X307587Y553250D02*X308337Y552500D01*
X313139Y554750D02*Y552500D01*
Y554750D02*X313889Y555500D01*
X314639D01*
X315389Y554750D01*
Y552500D01*
X312389Y555500D02*X313139Y554750D01*
X320640Y558500D02*Y552500D01*
X322890Y558500D02*X323640Y557750D01*
Y553250D01*
X322890Y552500D02*X323640Y553250D01*
X319890Y552500D02*X322890D01*
X319890Y558500D02*X322890D01*
X326192Y554750D02*Y552500D01*
Y554750D02*X326942Y555500D01*
X328442D01*
X325442D02*X326192Y554750D01*
X332493Y555500D02*X333243Y554750D01*
X330993Y555500D02*X332493D01*
X330243Y554750D02*X330993Y555500D01*
X330243Y554750D02*Y553250D01*
X330993Y552500D01*
X333243Y555500D02*Y553250D01*
X333993Y552500D01*
X330993D02*X332493D01*
X333243Y553250D01*
X335795Y555500D02*Y553250D01*
X336545Y552500D01*
X337295D01*
X338045Y553250D01*
Y555500D02*Y553250D01*
X338795Y552500D01*
X339545D01*
X340295Y553250D01*
Y555500D02*Y553250D01*
X342096Y557000D02*Y556250D01*
Y554750D02*Y552500D01*
X344348Y554750D02*Y552500D01*
Y554750D02*X345098Y555500D01*
X345848D01*
X346598Y554750D01*
Y552500D01*
X343598Y555500D02*X344348Y554750D01*
X350649Y555500D02*X351399Y554750D01*
X349149Y555500D02*X350649D01*
X348399Y554750D02*X349149Y555500D01*
X348399Y554750D02*Y553250D01*
X349149Y552500D01*
X350649D01*
X351399Y553250D01*
X348399Y551000D02*X349149Y550250D01*
X350649D01*
X351399Y551000D01*
Y555500D02*Y551000D01*
M02*
