G04 start of page 7 for group -4079 idx -4079 *
G04 Title: (unknown), topsilk *
G04 Creator: pcb 20091103 *
G04 CreationDate: Sat 26 Feb 2011 00:53:29 GMT UTC *
G04 For: thomas *
G04 Format: Gerber/RS-274X *
G04 PCB-Dimensions: 240157 142913 *
G04 PCB-Coordinate-Origin: lower left *
%MOIN*%
%FSLAX25Y25*%
%LNFRONTSILK*%
%ADD11C,0.0200*%
%ADD13C,0.0080*%
%ADD58C,0.0060*%
%ADD59C,0.0100*%
G54D13*X48500Y42413D02*X50000D01*
X48500Y34413D02*X48000Y33913D01*
Y32413D01*
X47500Y31913D01*
X49500Y3413D02*X43500D01*
X43000Y3913D01*
X98500Y71413D02*Y72913D01*
X99500Y73913D01*
X102000D01*
X100500Y75413D02*X102000Y73913D01*
X101500Y73413D02*Y74413D01*
X100500Y72413D02*X102000Y73913D01*
X106693Y8661D02*X107480Y7874D01*
X105905Y8661D02*X106693D01*
X91000Y30913D02*X95000D01*
X96000Y29913D01*
X95000D01*
X96000D02*Y30913D01*
X95000Y29913D02*X96000Y30913D01*
X149500Y47413D02*X149000Y46913D01*
X148500Y44913D02*X149500Y45913D01*
Y47413D01*
X147500Y44913D02*X148500D01*
X149000Y46913D02*X150000D01*
X149500Y47413D01*
X106299Y4724D02*Y8661D01*
X105905D02*X105118Y7874D01*
X21000Y99913D02*X22000Y100913D01*
X33500Y85413D02*Y83913D01*
X34000Y83413D01*
X38583Y75590D02*Y76830D01*
X34000Y68913D02*Y71346D01*
X33441Y71905D01*
X38500Y76854D02*X38583Y76771D01*
X20500Y99913D02*X21000D01*
X38000Y77413D02*X38583Y76830D01*
X38500Y76913D02*Y76854D01*
X32000Y25413D02*X31000Y26413D01*
X30000D01*
X23000Y32413D02*X24000D01*
X25000Y31413D01*
X50000Y42413D02*X50500Y41913D01*
X31000Y4413D02*X30000Y3413D01*
X25000D01*
X24000Y4413D01*
X34500Y43913D02*X33000Y42413D01*
X31000Y54913D02*X29000Y56913D01*
X3000Y55913D02*X2500D01*
X1500Y54913D01*
Y50413D01*
X2500Y49413D01*
X4000D01*
X29000Y56913D02*X26500D01*
X25500Y55913D01*
X61500Y134413D02*X62500Y135413D01*
X65000D01*
X66000Y134413D01*
X92500Y122913D02*X81000D01*
X92500Y140413D02*Y138913D01*
X93000Y128913D02*X89000D01*
X88500Y128413D01*
X95000Y140913D02*X93000D01*
X92500Y140413D01*
X81000Y122913D02*X79000Y124913D01*
X44500Y80413D02*X43500D01*
X46000Y75913D02*X45000Y76913D01*
Y79913D01*
X44500Y80413D01*
X46000Y75913D02*X49500D01*
X50000Y75413D01*
X45500Y89913D02*X56000D01*
X57000Y88913D01*
X55000Y57913D02*X57000D01*
X58000Y58913D01*
X54000Y122913D02*Y124913D01*
X54500Y125413D01*
X45000Y116913D02*X44500D01*
X43500Y117913D01*
G54D58*X129134Y135964D02*X131034Y137864D01*
Y139004D02*Y137864D01*
X129134Y139004D02*X131034D01*
X131946Y135964D02*X132326D01*
X133239Y138624D02*X133619Y139004D01*
X134379D01*
X134759Y138624D01*
Y136344D01*
X134379Y135964D02*X134759Y136344D01*
X133619Y135964D02*X134379D01*
X133239Y136344D02*X133619Y135964D01*
Y137484D02*X134759D01*
X135672Y135964D02*X137572Y137864D01*
Y139004D02*Y137864D01*
X135672Y139004D02*X137572D01*
X138485Y138624D02*X138865Y139004D01*
X140005D01*
X140385Y138624D01*
Y137864D01*
X138485Y135964D02*X140385Y137864D01*
X138485Y135964D02*X140385D01*
X141297Y136344D02*X141677Y135964D01*
X141297Y137104D02*Y136344D01*
Y137104D02*X141677Y137484D01*
X142437D01*
X142817Y137104D01*
Y136344D01*
X142437Y135964D02*X142817Y136344D01*
X141677Y135964D02*X142437D01*
X141297Y137864D02*X141677Y137484D01*
X141297Y138624D02*Y137864D01*
Y138624D02*X141677Y139004D01*
X142437D01*
X142817Y138624D01*
Y137864D01*
X142437Y137484D02*X142817Y137864D01*
X145098Y139004D02*Y135964D01*
Y139004D02*X146238Y137864D01*
X147378Y139004D01*
Y135964D01*
X148291Y139004D02*Y135964D01*
X150191Y139004D02*Y135964D01*
X148291Y137484D02*X150191D01*
X151104D02*X152624D01*
X151104Y135964D02*X152624Y137484D01*
X151104Y135964D02*X152624D01*
X154904Y137104D02*Y136344D01*
Y137104D02*X155284Y137484D01*
X156044D01*
X156424Y137104D01*
Y136344D01*
X156044Y135964D02*X156424Y136344D01*
X155284Y135964D02*X156044D01*
X154904Y136344D02*X155284Y135964D01*
X157717Y137104D02*Y135964D01*
Y137104D02*X158097Y137484D01*
X158477D01*
X158857Y137104D01*
Y135964D01*
X157337Y137484D02*X157717Y137104D01*
X159770Y139004D02*Y136344D01*
X160150Y135964D01*
X160911Y137484D02*Y136344D01*
X161291Y135964D01*
X162431Y137484D02*Y135204D01*
X162051Y134824D02*X162431Y135204D01*
X161291Y134824D02*X162051D01*
X160911Y135204D02*X161291Y134824D01*
Y135964D02*X162051D01*
X162431Y136344D01*
X200500Y103913D02*X202500D01*
X203000Y104413D01*
Y105413D02*Y104413D01*
X202500Y105913D02*X203000Y105413D01*
X201000Y105913D02*X202500D01*
X201000Y107913D02*Y103913D01*
X200500Y107913D02*X202500D01*
X203000Y107413D01*
Y106413D01*
X202500Y105913D02*X203000Y106413D01*
X183500Y107413D02*Y103913D01*
Y107413D02*X184000Y107913D01*
X185500D01*
X186000Y107413D01*
Y103913D01*
X183500Y105913D02*X186000D01*
X170472Y139477D02*Y136757D01*
X172172Y139477D02*Y136757D01*
X170472Y138117D02*X172172D01*
X172988Y139477D02*Y136757D01*
X174008Y137777D01*
X175028Y136757D01*
Y139477D02*Y136757D01*
X177069Y139137D02*X177409Y139477D01*
X178089D01*
X178429Y139137D01*
Y137097D01*
X178089Y136757D02*X178429Y137097D01*
X177409Y136757D02*X178089D01*
X177069Y137097D02*X177409Y136757D01*
Y138117D02*X178429D01*
X179246Y136757D02*X179586D01*
X180402Y139137D02*X180742Y139477D01*
X181762D01*
X182102Y139137D01*
Y138457D01*
X180402Y136757D02*X182102Y138457D01*
X180402Y136757D02*X182102D01*
X182919Y139477D02*X184279D01*
X182919D02*Y138117D01*
X183259Y138457D01*
X183939D01*
X184279Y138117D01*
Y137097D01*
X183939Y136757D02*X184279Y137097D01*
X183259Y136757D02*X183939D01*
X182919Y137097D02*X183259Y136757D01*
X185096D02*X186456D01*
X186796Y137097D01*
Y137777D02*Y137097D01*
X186456Y138117D02*X186796Y137777D01*
X185436Y138117D02*X186456D01*
X185436Y139477D02*Y136757D01*
X185096Y139477D02*X186456D01*
X186796Y139137D01*
Y138457D01*
X186456Y138117D02*X186796Y138457D01*
X59500Y42413D02*Y40913D01*
X60000Y40413D01*
X60500D01*
X61000Y40913D01*
Y42413D02*Y40913D01*
X61500Y40413D01*
X62000D01*
X62500Y40913D01*
Y42413D02*Y40913D01*
X58000Y44913D02*Y41913D01*
X57500Y45413D02*X58000Y44913D01*
X58500Y45413D01*
X59500D01*
X60000Y44913D01*
Y43913D01*
X59500Y43413D02*X60000Y43913D01*
X58500Y43413D02*X59500D01*
X58000Y43913D02*X58500Y43413D01*
X63500D02*Y41913D01*
Y43413D02*X64000Y43913D01*
X65000D01*
X63000D02*X63500Y43413D01*
X92500Y70913D02*Y67413D01*
X93000Y66913D01*
X92000Y69413D02*X93000D01*
X94501Y66913D02*X96001D01*
X94001Y67413D02*X94501Y66913D01*
X94001Y68413D02*Y67413D01*
Y68413D02*X94501Y68913D01*
X95501D01*
X96001Y68413D01*
X94001Y67913D02*X96001D01*
Y68413D02*Y67913D01*
X97702Y68413D02*Y66913D01*
Y68413D02*X98202Y68913D01*
X98702D01*
X99202Y68413D01*
Y66913D01*
Y68413D02*X99702Y68913D01*
X100202D01*
X100702Y68413D01*
Y66913D01*
X97202Y68913D02*X97702Y68413D01*
X102403D02*Y65413D01*
X101903Y68913D02*X102403Y68413D01*
X102903Y68913D01*
X103903D01*
X104403Y68413D01*
Y67413D01*
X103903Y66913D02*X104403Y67413D01*
X102903Y66913D02*X103903D01*
X102403Y67413D02*X102903Y66913D01*
X92500Y62413D02*X94000D01*
X94500Y62913D01*
X94000Y63413D02*X94500Y62913D01*
X92500Y63413D02*X94000D01*
X92000Y63913D02*X92500Y63413D01*
X92000Y63913D02*X92500Y64413D01*
X94000D01*
X94500Y63913D01*
X92000Y62913D02*X92500Y62413D01*
X96201Y63913D02*Y62413D01*
Y63913D02*X96701Y64413D01*
X97201D01*
X97701Y63913D01*
Y62413D01*
X95701Y64413D02*X96201Y63913D01*
X99402Y62413D02*X100902D01*
X101402Y62913D01*
X100902Y63413D02*X101402Y62913D01*
X99402Y63413D02*X100902D01*
X98902Y63913D02*X99402Y63413D01*
X98902Y63913D02*X99402Y64413D01*
X100902D01*
X101402Y63913D01*
X98902Y62913D02*X99402Y62413D01*
X103103Y63913D02*Y62413D01*
Y63913D02*X103603Y64413D01*
X104603D01*
X102603D02*X103103Y63913D01*
X93701Y3584D02*Y1304D01*
Y3584D02*X94081Y3964D01*
X94841D01*
X95221Y3584D01*
Y1304D01*
X94841Y924D02*X95221Y1304D01*
X94081Y924D02*X94841D01*
X93701Y1304D02*X94081Y924D01*
X96133Y3964D02*Y924D01*
Y2444D02*X97653Y3964D01*
X96133Y2444D02*X97653Y924D01*
X98566Y1304D02*X100846Y3584D01*
X101759Y3964D02*Y924D01*
Y3964D02*X102899Y2824D01*
X104039Y3964D01*
Y924D01*
X104952Y2444D02*X106092D01*
X104952Y924D02*X106472D01*
X104952Y3964D02*Y924D01*
Y3964D02*X106472D01*
X107384D02*Y924D01*
Y3964D02*Y3584D01*
X109284Y1684D01*
Y3964D02*Y924D01*
X110197Y3964D02*Y1304D01*
X110577Y924D01*
X111337D01*
X111717Y1304D01*
Y3964D02*Y1304D01*
X203201Y102046D02*X203581Y101666D01*
X202061Y102046D02*X203201D01*
X201681Y101666D02*X202061Y102046D01*
X201681Y101666D02*Y100906D01*
X202061Y100526D01*
X203201D01*
X203581Y100146D01*
Y99386D01*
X203201Y99006D02*X203581Y99386D01*
X202061Y99006D02*X203201D01*
X201681Y99386D02*X202061Y99006D01*
X204493Y102046D02*X206013D01*
X205253D02*Y99006D01*
X206926Y101666D02*Y99006D01*
Y101666D02*X207306Y102046D01*
X208446D01*
X208826Y101666D01*
Y99006D01*
X206926Y100526D02*X208826D01*
X209739Y102046D02*X211259D01*
X210499D02*Y99006D01*
X212172Y102046D02*Y99386D01*
X212552Y99006D01*
X213312D01*
X213692Y99386D01*
Y102046D02*Y99386D01*
X216124Y102046D02*X216504Y101666D01*
X214984Y102046D02*X216124D01*
X214604Y101666D02*X214984Y102046D01*
X214604Y101666D02*Y100906D01*
X214984Y100526D01*
X216124D01*
X216504Y100146D01*
Y99386D01*
X216124Y99006D02*X216504Y99386D01*
X214984Y99006D02*X216124D01*
X214604Y99386D02*X214984Y99006D01*
X222000Y31003D02*X222470Y31473D01*
X223410D01*
X223880Y31003D01*
Y28183D01*
X223410Y27713D02*X223880Y28183D01*
X222470Y27713D02*X223410D01*
X222000Y28183D02*X222470Y27713D01*
Y29593D02*X223880D01*
X225008Y31473D02*Y28653D01*
X225948Y27713D01*
X226888Y28653D01*
Y31473D02*Y28653D01*
X228017Y31003D02*X228487Y31473D01*
X229427D01*
X229897Y31003D01*
Y28183D01*
X229427Y27713D02*X229897Y28183D01*
X228487Y27713D02*X229427D01*
X228017Y28183D02*X228487Y27713D01*
Y29593D02*X229897D01*
X222000Y39393D02*Y37353D01*
Y39393D02*X222340Y39733D01*
X223020D01*
X223360Y39393D01*
Y37353D01*
X223020Y37013D02*X223360Y37353D01*
X222340Y37013D02*X223020D01*
X222000Y37353D02*X222340Y37013D01*
X225536Y39733D02*X225876Y39393D01*
X224516Y39733D02*X225536D01*
X224176Y39393D02*X224516Y39733D01*
X224176Y39393D02*Y38713D01*
X224516Y38373D01*
X225536D01*
X225876Y38033D01*
Y37353D01*
X225536Y37013D02*X225876Y37353D01*
X224516Y37013D02*X225536D01*
X224176Y37353D02*X224516Y37013D01*
X227033D02*X228053D01*
X226693Y37353D02*X227033Y37013D01*
X226693Y39393D02*Y37353D01*
Y39393D02*X227033Y39733D01*
X228053D01*
X228870D02*X229550D01*
X229210D02*Y37013D01*
X228870D02*X229550D01*
X230366Y39733D02*Y37013D01*
X231726D01*
X232543Y39733D02*Y37013D01*
X233903D01*
X234720Y39393D02*Y37353D01*
Y39393D02*X235060Y39733D01*
X235740D01*
X236080Y39393D01*
Y37353D01*
X235740Y37013D02*X236080Y37353D01*
X235060Y37013D02*X235740D01*
X234720Y37353D02*X235060Y37013D01*
X236896Y38373D02*X238256D01*
X224860Y35733D02*X225200Y35393D01*
X223840Y35733D02*X224860D01*
X223500Y35393D02*X223840Y35733D01*
X223500Y35393D02*Y34713D01*
X223840Y34373D01*
X224860D01*
X225200Y34033D01*
Y33353D01*
X224860Y33013D02*X225200Y33353D01*
X223840Y33013D02*X224860D01*
X223500Y33353D02*X223840Y33013D01*
X226356D02*X227376D01*
X226016Y33353D02*X226356Y33013D01*
X226016Y35393D02*Y33353D01*
Y35393D02*X226356Y35733D01*
X227376D01*
X228193Y35393D02*Y33353D01*
Y35393D02*X228533Y35733D01*
X229213D01*
X229553Y35393D01*
Y33353D01*
X229213Y33013D02*X229553Y33353D01*
X228533Y33013D02*X229213D01*
X228193Y33353D02*X228533Y33013D01*
X230710Y35733D02*Y33013D01*
X230370Y35733D02*X231730D01*
X232070Y35393D01*
Y34713D01*
X231730Y34373D02*X232070Y34713D01*
X230710Y34373D02*X231730D01*
X232886D02*X233906D01*
X232886Y33013D02*X234246D01*
X232886Y35733D02*Y33013D01*
Y35733D02*X234246D01*
X223880Y24473D02*X224350Y24003D01*
X222470Y24473D02*X223880D01*
X222000Y24003D02*X222470Y24473D01*
X222000Y24003D02*Y21183D01*
X222470Y20713D01*
X223880D01*
X224350Y21183D01*
Y22123D02*Y21183D01*
X223880Y22593D02*X224350Y22123D01*
X222940Y22593D02*X223880D01*
X225478Y24473D02*Y20713D01*
Y24473D02*Y24003D01*
X227828Y21653D01*
Y24473D02*Y20713D01*
X229427Y24473D02*Y20713D01*
X230837Y24473D02*X231307Y24003D01*
Y21183D01*
X230837Y20713D02*X231307Y21183D01*
X228957Y20713D02*X230837D01*
X228957Y24473D02*X230837D01*
X196457Y2709D02*X197337D01*
X196897D02*Y949D01*
X197865Y2709D02*Y949D01*
X198965Y2709D02*Y949D01*
X197865Y1829D02*X198965D01*
X199493Y2709D02*X199933D01*
X199713D02*Y949D01*
X199493D02*X199933D01*
X201342Y2709D02*X201562Y2489D01*
X200682Y2709D02*X201342D01*
X200462Y2489D02*X200682Y2709D01*
X200462Y2489D02*Y2049D01*
X200682Y1829D01*
X201342D01*
X201562Y1609D01*
Y1169D01*
X201342Y949D02*X201562Y1169D01*
X200682Y949D02*X201342D01*
X200462Y1169D02*X200682Y949D01*
X203762Y2709D02*X203982Y2489D01*
X203102Y2709D02*X203762D01*
X202882Y2489D02*X203102Y2709D01*
X202882Y2489D02*Y2049D01*
X203102Y1829D01*
X203762D01*
X203982Y1609D01*
Y1169D01*
X203762Y949D02*X203982Y1169D01*
X203102Y949D02*X203762D01*
X202882Y1169D02*X203102Y949D01*
X204731Y2709D02*Y949D01*
X204511Y2709D02*X205391D01*
X205611Y2489D01*
Y2049D01*
X205391Y1829D02*X205611Y2049D01*
X204731Y1829D02*X205391D01*
X206139Y2489D02*Y949D01*
Y2489D02*X206359Y2709D01*
X207019D01*
X207239Y2489D01*
Y949D01*
X206139Y1829D02*X207239D01*
X207988Y949D02*X208648D01*
X207768Y1169D02*X207988Y949D01*
X207768Y2489D02*Y1169D01*
Y2489D02*X207988Y2709D01*
X208648D01*
X209176Y1829D02*X209836D01*
X209176Y949D02*X210056D01*
X209176Y2709D02*Y949D01*
Y2709D02*X210056D01*
X211376D02*X211816D01*
X211596D02*Y949D01*
X211376D02*X211816D01*
X212345Y2709D02*Y949D01*
Y2709D02*Y2489D01*
X213445Y1389D01*
Y2709D02*Y949D01*
X213973Y2709D02*X214853D01*
X214413D02*Y949D01*
X215382Y1829D02*X216042D01*
X215382Y949D02*X216262D01*
X215382Y2709D02*Y949D01*
Y2709D02*X216262D01*
X216790D02*Y949D01*
Y2709D02*Y2489D01*
X217890Y1389D01*
Y2709D02*Y949D01*
X218419Y2709D02*X219299D01*
X218859D02*Y949D01*
X219827Y2709D02*X220267D01*
X220047D02*Y949D01*
X219827D02*X220267D01*
X220796Y2489D02*Y1169D01*
Y2489D02*X221016Y2709D01*
X221456D01*
X221676Y2489D01*
Y1169D01*
X221456Y949D02*X221676Y1169D01*
X221016Y949D02*X221456D01*
X220796Y1169D02*X221016Y949D01*
X222204Y2709D02*Y949D01*
Y2709D02*Y2489D01*
X223304Y1389D01*
Y2709D02*Y949D01*
X223832Y2489D02*Y949D01*
Y2489D02*X224052Y2709D01*
X224712D01*
X224932Y2489D01*
Y949D01*
X223832Y1829D02*X224932D01*
X225461Y2709D02*Y949D01*
X226341D01*
X226869Y2709D02*Y949D01*
X227749D01*
X228278Y2709D02*Y2489D01*
X228718Y2049D01*
X229158Y2489D01*
Y2709D02*Y2489D01*
X228718Y2049D02*Y949D01*
X230478D02*X231358D01*
X231578Y1169D01*
Y1609D02*Y1169D01*
X231358Y1829D02*X231578Y1609D01*
X230698Y1829D02*X231358D01*
X230698Y2709D02*Y949D01*
X230478Y2709D02*X231358D01*
X231578Y2489D01*
Y2049D01*
X231358Y1829D02*X231578Y2049D01*
X232107Y2709D02*Y949D01*
X232987D01*
X233515Y2489D02*Y949D01*
Y2489D02*X233735Y2709D01*
X234395D01*
X234615Y2489D01*
Y949D01*
X233515Y1829D02*X234615D01*
X235144Y2709D02*Y949D01*
Y2709D02*Y2489D01*
X236244Y1389D01*
Y2709D02*Y949D01*
X236772Y2709D02*Y949D01*
Y1829D02*X237652Y2709D01*
X236772Y1829D02*X237652Y949D01*
X147244Y40185D02*Y37525D01*
X147624Y37145D01*
X148384D01*
X148764Y37525D01*
Y40185D02*Y37525D01*
X150056Y40185D02*Y37145D01*
X149676Y40185D02*X151196D01*
X151576Y39805D01*
Y39045D01*
X151196Y38665D02*X151576Y39045D01*
X150056Y38665D02*X151196D01*
X152489Y37525D02*X154769Y39805D01*
X155682Y40185D02*Y39805D01*
X156442Y39045D01*
X157202Y39805D01*
Y40185D02*Y39805D01*
X156442Y39045D02*Y37145D01*
X158115Y38665D02*X159255D01*
X158115Y37145D02*X159635D01*
X158115Y40185D02*Y37145D01*
Y40185D02*X159635D01*
X162067D02*X162447Y39805D01*
X160927Y40185D02*X162067D01*
X160547Y39805D02*X160927Y40185D01*
X160547Y39805D02*Y39045D01*
X160927Y38665D01*
X162067D01*
X162447Y38285D01*
Y37525D01*
X162067Y37145D02*X162447Y37525D01*
X160927Y37145D02*X162067D01*
X160547Y37525D02*X160927Y37145D01*
X171640Y40578D02*Y37538D01*
X172780Y40578D02*X173160Y40198D01*
Y37918D01*
X172780Y37538D02*X173160Y37918D01*
X171260Y37538D02*X172780D01*
X171260Y40578D02*X172780D01*
X174072Y40198D02*Y37918D01*
Y40198D02*X174452Y40578D01*
X175212D01*
X175592Y40198D01*
Y37918D01*
X175212Y37538D02*X175592Y37918D01*
X174452Y37538D02*X175212D01*
X174072Y37918D02*X174452Y37538D01*
X176505Y40578D02*Y37538D01*
X177645Y38678D01*
X178785Y37538D01*
Y40578D02*Y37538D01*
X179698Y40578D02*Y37538D01*
Y40578D02*Y40198D01*
X181598Y38298D01*
Y40578D02*Y37538D01*
X182511Y37918D02*X184791Y40198D01*
X185703Y40578D02*Y37538D01*
Y40578D02*Y40198D01*
X187603Y38298D01*
Y40578D02*Y37538D01*
X188516Y40198D02*Y37918D01*
Y40198D02*X188896Y40578D01*
X189656D01*
X190036Y40198D01*
Y37918D01*
X189656Y37538D02*X190036Y37918D01*
X188896Y37538D02*X189656D01*
X188516Y37918D02*X188896Y37538D01*
X153096Y41875D02*X154116D01*
X152756Y42215D02*X153096Y41875D01*
X152756Y44255D02*Y42215D01*
Y44255D02*X153096Y44595D01*
X154116D01*
X154932Y44255D02*Y42215D01*
Y44255D02*X155272Y44595D01*
X155952D01*
X156292Y44255D01*
Y42215D01*
X155952Y41875D02*X156292Y42215D01*
X155272Y41875D02*X155952D01*
X154932Y42215D02*X155272Y41875D01*
X157109Y44595D02*Y41875D01*
Y44595D02*X158129Y43575D01*
X159149Y44595D01*
Y41875D01*
X160306Y44595D02*Y41875D01*
X159966Y44595D02*X161326D01*
X161666Y44255D01*
Y43575D01*
X161326Y43235D02*X161666Y43575D01*
X160306Y43235D02*X161326D01*
X162482Y44255D02*Y42215D01*
Y44255D02*X162822Y44595D01*
X163502D01*
X163842Y44255D01*
Y42215D01*
X163502Y41875D02*X163842Y42215D01*
X162822Y41875D02*X163502D01*
X162482Y42215D02*X162822Y41875D01*
X164659Y44595D02*Y41875D01*
Y44595D02*Y44255D01*
X166359Y42555D01*
Y44595D02*Y41875D01*
X167176Y43235D02*X168196D01*
X167176Y41875D02*X168536D01*
X167176Y44595D02*Y41875D01*
Y44595D02*X168536D01*
X169352D02*Y41875D01*
Y44595D02*Y44255D01*
X171052Y42555D01*
Y44595D02*Y41875D01*
X171869Y44595D02*X173229D01*
X172549D02*Y41875D01*
X176630Y44595D02*X176970Y44255D01*
X175610Y44595D02*X176630D01*
X175270Y44255D02*X175610Y44595D01*
X175270Y44255D02*Y43575D01*
X175610Y43235D01*
X176630D01*
X176970Y42895D01*
Y42215D01*
X176630Y41875D02*X176970Y42215D01*
X175610Y41875D02*X176630D01*
X175270Y42215D02*X175610Y41875D01*
X177786Y44595D02*X178466D01*
X178126D02*Y41875D01*
X177786D02*X178466D01*
X179623Y44595D02*Y41875D01*
X180643Y44595D02*X180983Y44255D01*
Y42215D01*
X180643Y41875D02*X180983Y42215D01*
X179283Y41875D02*X180643D01*
X179283Y44595D02*X180643D01*
X181800Y43235D02*X182820D01*
X181800Y41875D02*X183160D01*
X181800Y44595D02*Y41875D01*
Y44595D02*X183160D01*
G54D13*X60000Y39413D02*Y32413D01*
X72000D01*
Y39413D01*
X60000D01*
X61000D02*Y32413D01*
G54D59*X45500Y56413D02*X95500D01*
X45500D02*Y46413D01*
X95500D01*
Y56413D02*Y46413D01*
X85500Y56413D02*Y46413D01*
X95500D01*
G54D13*X89059Y20870D02*Y16146D01*
X81579Y20870D02*Y16146D01*
G54D59*X54146Y31225D02*Y7603D01*
X79980Y31225D02*Y7603D01*
X91100Y23513D02*Y9613D01*
X103900D01*
Y23513D01*
X91100D01*
X6000Y98413D02*Y58413D01*
X16000D01*
Y98413D01*
X6000D01*
Y88413D02*X16000D01*
Y98413D01*
X17500D02*Y58413D01*
X27500D01*
Y98413D01*
X17500D01*
Y88413D02*X27500D01*
Y98413D01*
X23050Y112100D02*X32250D01*
X36050D02*X45350D01*
Y100300D01*
X23050D01*
Y112100D01*
X32250D02*G75*G03X36050Y112100I1900J0D01*G01*
G54D13*X39245Y93306D02*Y92520D01*
X44755Y93306D02*Y92520D01*
G54D59*X20434Y140519D02*Y119307D01*
X51566D01*
Y140519D01*
X20434D02*X33500D01*
X51566D02*X38500D01*
X33500D02*G75*G03X38500Y140519I2500J0D01*G01*
G54D13*X58615Y113698D02*X94285D01*
Y75128D01*
X55715D01*
Y110798D01*
X58615Y113698D01*
X57615Y110798D02*G75*G03X57615Y110798I1000J0D01*G01*
G54D59*X74500Y129113D02*X88400D01*
Y140913D02*Y129113D01*
X74500Y140913D02*X88400D01*
X74500D02*Y129113D01*
G54D11*X49420Y13055D02*Y6055D01*
G54D59*Y13055D02*X46920Y14055D01*
X33820D02*X46920D01*
X33820D02*Y5055D01*
X46920D01*
X49420Y6055D01*
X35607Y29053D02*X49507D01*
X35607D02*Y17253D01*
X49507D01*
Y29053D02*Y17253D01*
G54D13*X28480Y16461D02*Y11737D01*
X21000Y16461D02*Y11737D01*
X41607Y41168D02*X42393D01*
X41607Y35658D02*X42393D01*
G54D11*X19000Y34413D02*X27000D01*
G54D59*X28100Y37813D01*
Y55413D02*Y37813D01*
X17900Y55413D02*X28100D01*
X17900D02*Y37813D01*
X19000Y34413D01*
X6000Y53413D02*Y23413D01*
X16000D01*
Y53413D01*
X6000D01*
Y43413D02*X16000D01*
Y53413D01*
X105600Y62613D02*Y76513D01*
Y62613D02*X118400D01*
Y76513D01*
X105600D02*X118400D01*
X107047Y33929D02*X130669D01*
X107047Y10307D02*X130669D01*
X107047Y33929D02*Y10307D01*
X130669Y33929D02*Y10307D01*
X98000Y47513D02*X111900D01*
Y60313D02*Y47513D01*
X98000Y60313D02*X111900D01*
X98000D02*Y47513D01*
G54D13*X134138Y16263D02*Y15477D01*
X139648Y16263D02*Y15477D01*
G54D59*X143047Y34429D02*X166669D01*
X143047Y10807D02*X166669D01*
X143047Y34429D02*Y10807D01*
X166669Y34429D02*Y10807D01*
X171500Y130913D02*Y111913D01*
X207500D01*
Y130913D02*Y111913D01*
X171500Y130913D02*X187000D01*
X192000D02*X207500D01*
X187000D02*G75*G03X192000Y130913I2500J0D01*G01*
G54D13*X187500Y110413D02*Y103413D01*
X199500D01*
Y110413D01*
X187500D01*
X188500D02*Y103413D01*
G54D59*X223000Y122913D02*Y82913D01*
X233000D01*
Y122913D01*
X223000D01*
Y112913D02*X233000D01*
Y122913D01*
G54D13*X204000Y110413D02*Y103413D01*
X216000D01*
Y110413D01*
X204000D01*
X205000D02*Y103413D01*
G54D59*X169047Y34429D02*X192669D01*
X169047Y10807D02*X192669D01*
X169047Y34429D02*Y10807D01*
X192669Y34429D02*Y10807D01*
X205000Y29413D02*Y9413D01*
X195000Y29413D02*X205000D01*
X195000D02*Y9413D01*
X205000D01*
X195000Y19413D02*X205000D01*
X195000D02*Y9413D01*
X217000Y29413D02*Y9413D01*
X207000Y29413D02*X217000D01*
X207000D02*Y9413D01*
X217000D01*
X207000Y19413D02*X217000D01*
X207000D02*Y9413D01*
X154000Y46413D02*X204000D01*
Y56413D02*Y46413D01*
X154000Y56413D02*X204000D01*
X154000D02*Y46413D01*
X164000Y56413D02*Y46413D01*
X154000Y56413D02*X164000D01*
X210500Y92913D02*Y62913D01*
X220500D01*
Y92913D01*
X210500D01*
Y82913D02*X220500D01*
Y92913D01*
X210500Y61413D02*Y31413D01*
X220500D01*
Y61413D01*
X210500D01*
Y51413D02*X220500D01*
Y61413D01*
X223000Y81413D02*Y41413D01*
X233000D01*
Y81413D01*
X223000D01*
Y71413D02*X233000D01*
Y81413D01*
X124052Y121760D02*X168736D01*
X124052Y140066D02*Y121760D01*
Y140066D02*X168736D01*
Y121760D01*
G54D13*X132013Y110450D02*X167683D01*
Y71880D01*
X129113D01*
Y107550D01*
X132013Y110450D01*
X131013Y107550D02*G75*G03X131013Y107550I1000J0D01*G01*
X115862Y94349D02*Y93563D01*
X110352Y94349D02*Y93563D01*
G54D58*X109180Y81837D02*Y78337D01*
X109680Y77837D01*
X110680D01*
X111180Y78337D01*
Y81837D02*Y78337D01*
X112381D02*X112881Y77837D01*
X112381Y79337D02*Y78337D01*
Y79337D02*X112881Y79837D01*
X113881D01*
X114381Y79337D01*
Y78337D01*
X113881Y77837D02*X114381Y78337D01*
X112881Y77837D02*X113881D01*
X112381Y80337D02*X112881Y79837D01*
X112381Y81337D02*Y80337D01*
Y81337D02*X112881Y81837D01*
X113881D01*
X114381Y81337D01*
Y80337D01*
X113881Y79837D02*X114381Y80337D01*
X111257Y106606D02*Y105106D01*
X111757Y107106D02*X111257Y106606D01*
X111757Y107106D02*X114757D01*
X115257Y106606D01*
Y105106D01*
X114757Y103905D02*X115257Y103405D01*
Y101905D01*
X114757Y101405D01*
X113757D02*X114757D01*
X111257Y103905D02*X113757Y101405D01*
X111257Y103905D02*Y101405D01*
X68150Y133563D02*Y131563D01*
X67650Y131063D01*
X66650D02*X67650D01*
X66150Y131563D02*X66650Y131063D01*
X66150Y133063D02*Y131563D01*
X64150Y133063D02*X68150D01*
X66150D02*X64150Y131063D01*
X67650Y129862D02*X68150Y129362D01*
Y128362D01*
X67650Y127862D01*
X64650D02*X67650D01*
X64150Y128362D02*X64650Y127862D01*
X64150Y129362D02*Y128362D01*
X64650Y129862D02*X64150Y129362D01*
X66150D02*Y127862D01*
X64650Y126661D02*X64150Y126161D01*
X64650Y126661D02*X65650D01*
X66150Y126161D01*
Y125161D01*
X65650Y124661D01*
X64650D02*X65650D01*
X64150Y125161D02*X64650Y124661D01*
X64150Y126161D02*Y125161D01*
X66650Y126661D02*X66150Y126161D01*
X66650Y126661D02*X67650D01*
X68150Y126161D01*
Y125161D01*
X67650Y124661D01*
X66650D02*X67650D01*
X66150Y125161D02*X66650Y124661D01*
X96642Y140488D02*Y138988D01*
X97142Y140988D02*X96642Y140488D01*
X97142Y140988D02*X100142D01*
X100642Y140488D01*
Y138988D01*
X100142Y137787D02*X100642Y137287D01*
Y135787D01*
X100142Y135287D01*
X99142D02*X100142D01*
X96642Y137787D02*X99142Y135287D01*
X96642Y137787D02*Y135287D01*
X97142Y134086D02*X96642Y133586D01*
X97142Y134086D02*X100142D01*
X100642Y133586D01*
Y132586D01*
X100142Y132086D01*
X97142D02*X100142D01*
X96642Y132586D02*X97142Y132086D01*
X96642Y133586D02*Y132586D01*
X97642Y134086D02*X99642Y132086D01*
X95350Y126063D02*X96850D01*
X94850Y126563D02*X95350Y126063D01*
X94850Y129563D02*Y126563D01*
Y129563D02*X95350Y130063D01*
X96850D01*
X98051Y129563D02*X98551Y130063D01*
X100051D01*
X100551Y129563D01*
Y128563D01*
X98051Y126063D02*X100551Y128563D01*
X98051Y126063D02*X100551D01*
X102252D02*X103252D01*
X102752Y130063D02*Y126063D01*
X101752Y129063D02*X102752Y130063D01*
X70000Y134413D02*X73500D01*
X70000D02*X69500Y133913D01*
Y132913D01*
X70000Y132413D01*
X73500D01*
X71500Y131212D02*X73500Y129212D01*
X71500Y131212D02*Y128712D01*
X69500Y129212D02*X73500D01*
X95350Y120563D02*X96850D01*
X94850Y121063D02*X95350Y120563D01*
X94850Y124063D02*Y121063D01*
Y124063D02*X95350Y124563D01*
X96850D01*
X98551Y120563D02*X99551D01*
X99051Y124563D02*Y120563D01*
X98051Y123563D02*X99051Y124563D01*
X100752D02*X102752D01*
X100752D02*Y122563D01*
X101252Y123063D01*
X102252D01*
X102752Y122563D01*
Y121063D01*
X102252Y120563D02*X102752Y121063D01*
X101252Y120563D02*X102252D01*
X100752Y121063D02*X101252Y120563D01*
X96500Y117413D02*Y113913D01*
X97000Y113413D01*
X98000D01*
X98500Y113913D01*
Y117413D02*Y113913D01*
X100201Y113413D02*X101201D01*
X100701Y117413D02*Y113413D01*
X99701Y116413D02*X100701Y117413D01*
X65409Y136555D02*X66909D01*
X64909Y137055D02*X65409Y136555D01*
X64909Y140055D02*Y137055D01*
Y140055D02*X65409Y140555D01*
X66909D01*
X68110Y140055D02*X68610Y140555D01*
X70110D01*
X70610Y140055D01*
Y139055D01*
X68110Y136555D02*X70610Y139055D01*
X68110Y136555D02*X70610D01*
X71811Y140055D02*X72311Y140555D01*
X73811D01*
X74311Y140055D01*
Y139055D01*
X71811Y136555D02*X74311Y139055D01*
X71811Y136555D02*X74311D01*
X104650Y108063D02*Y106563D01*
X105150Y108563D02*X104650Y108063D01*
X105150Y108563D02*X108150D01*
X108650Y108063D01*
Y106563D01*
X104650Y104862D02*Y103862D01*
Y104362D02*X108650D01*
X107650Y105362D02*X108650Y104362D01*
X106650Y102661D02*X108650Y100661D01*
X106650Y102661D02*Y100161D01*
X104650Y100661D02*X108650D01*
X1000Y96913D02*Y95413D01*
X1500Y97413D02*X1000Y96913D01*
X1500Y97413D02*X4500D01*
X5000Y96913D01*
Y95413D01*
X1000Y94212D02*X5000D01*
X4500D02*X5000D01*
X4500D02*X2000Y91712D01*
X1000D02*X5000D01*
X4500Y90511D02*X5000Y90011D01*
Y89011D01*
X4500Y88511D01*
X1500D02*X4500D01*
X1000Y89011D02*X1500Y88511D01*
X1000Y90011D02*Y89011D01*
X1500Y90511D02*X1000Y90011D01*
X3000D02*Y88511D01*
X6158Y111504D02*Y110004D01*
X6658Y112004D02*X6158Y111504D01*
X6658Y112004D02*X9658D01*
X10158Y111504D01*
Y110004D01*
X6158Y108303D02*Y107303D01*
Y107803D02*X10158D01*
X9158Y108803D02*X10158Y107803D01*
X6658Y106102D02*X6158Y105602D01*
X6658Y106102D02*X7658D01*
X8158Y105602D01*
Y104602D01*
X7658Y104102D01*
X6658D02*X7658D01*
X6158Y104602D02*X6658Y104102D01*
X6158Y105602D02*Y104602D01*
X8658Y106102D02*X8158Y105602D01*
X8658Y106102D02*X9658D01*
X10158Y105602D01*
Y104602D01*
X9658Y104102D01*
X8658D02*X9658D01*
X8158Y104602D02*X8658Y104102D01*
X1150Y111563D02*Y110063D01*
X1650Y112063D02*X1150Y111563D01*
X1650Y112063D02*X4650D01*
X5150Y111563D01*
Y110063D01*
X1150Y108362D02*Y107362D01*
Y107862D02*X5150D01*
X4150Y108862D02*X5150Y107862D01*
X1150Y106161D02*X3150Y104161D01*
X4650D01*
X5150Y104661D02*X4650Y104161D01*
X5150Y105661D02*Y104661D01*
X4650Y106161D02*X5150Y105661D01*
X3650Y106161D02*X4650D01*
X3650D02*X3150Y105661D01*
Y104161D01*
X14376Y102988D02*Y99488D01*
X14876Y98988D01*
X15876D01*
X16376Y99488D01*
Y102988D02*Y99488D01*
X17577Y102488D02*X18077Y102988D01*
X19577D01*
X20077Y102488D01*
Y101488D01*
X17577Y98988D02*X20077Y101488D01*
X17577Y98988D02*X20077D01*
X33850Y118063D02*X35850D01*
X36350Y117563D01*
Y116563D01*
X35850Y116063D02*X36350Y116563D01*
X34350Y116063D02*X35850D01*
X34350Y118063D02*Y114063D01*
Y116063D02*X36350Y114063D01*
X37551Y117563D02*X38051Y118063D01*
X39051D01*
X39551Y117563D01*
Y114563D01*
X39051Y114063D02*X39551Y114563D01*
X38051Y114063D02*X39051D01*
X37551Y114563D02*X38051Y114063D01*
Y116063D02*X39551D01*
X42252Y118063D02*X42752Y117563D01*
X41252Y118063D02*X42252D01*
X40752Y117563D02*X41252Y118063D01*
X40752Y117563D02*Y114563D01*
X41252Y114063D01*
X42252Y116063D02*X42752Y115563D01*
X40752Y116063D02*X42252D01*
X41252Y114063D02*X42252D01*
X42752Y114563D01*
Y115563D02*Y114563D01*
X32150Y100563D02*Y98563D01*
X31650Y98063D01*
X30650D02*X31650D01*
X30150Y98563D02*X30650Y98063D01*
X30150Y100063D02*Y98563D01*
X28150Y100063D02*X32150D01*
X30150D02*X28150Y98063D01*
X31650Y96862D02*X32150Y96362D01*
Y95362D01*
X31650Y94862D01*
X28650D02*X31650D01*
X28150Y95362D02*X28650Y94862D01*
X28150Y96362D02*Y95362D01*
X28650Y96862D02*X28150Y96362D01*
X30150D02*Y94862D01*
X32150Y93661D02*Y91661D01*
X30150Y93661D02*X32150D01*
X30150D02*X30650Y93161D01*
Y92161D01*
X30150Y91661D01*
X28650D02*X30150D01*
X28150Y92161D02*X28650Y91661D01*
X28150Y93161D02*Y92161D01*
X28650Y93661D02*X28150Y93161D01*
X28850Y90063D02*X30850D01*
X31350Y89563D01*
Y88563D01*
X30850Y88063D02*X31350Y88563D01*
X29350Y88063D02*X30850D01*
X29350Y90063D02*Y86063D01*
Y88063D02*X31350Y86063D01*
X32551Y88063D02*X34551Y90063D01*
X32551Y88063D02*X35051D01*
X34551Y90063D02*Y86063D01*
X36752D02*X37752D01*
X37252Y90063D02*Y86063D01*
X36252Y89063D02*X37252Y90063D01*
X58350Y87063D02*X59850D01*
X57850Y87563D02*X58350Y87063D01*
X57850Y90563D02*Y87563D01*
Y90563D02*X58350Y91063D01*
X59850D01*
X61051Y90563D02*X61551Y91063D01*
X63051D01*
X63551Y90563D01*
Y89563D01*
X61051Y87063D02*X63551Y89563D01*
X61051Y87063D02*X63551D01*
X64752Y91063D02*X66752D01*
X64752D02*Y89063D01*
X65252Y89563D01*
X66252D01*
X66752Y89063D01*
Y87563D01*
X66252Y87063D02*X66752Y87563D01*
X65252Y87063D02*X66252D01*
X64752Y87563D02*X65252Y87063D01*
X45500Y117913D02*Y114413D01*
X46000Y113913D01*
X47000D01*
X47500Y114413D01*
Y117913D02*Y114413D01*
X48701Y117413D02*X49201Y117913D01*
X50201D01*
X50701Y117413D01*
Y114413D01*
X50201Y113913D02*X50701Y114413D01*
X49201Y113913D02*X50201D01*
X48701Y114413D02*X49201Y113913D01*
Y115913D02*X50701D01*
X10791Y118571D02*X12291D01*
X10291Y119071D02*X10791Y118571D01*
X10291Y122071D02*Y119071D01*
Y122071D02*X10791Y122571D01*
X12291D01*
X13992Y118571D02*X14992D01*
X14492Y122571D02*Y118571D01*
X13492Y121571D02*X14492Y122571D01*
X16193Y118571D02*X18693Y121071D01*
Y122571D02*Y121071D01*
X16193Y122571D02*X18693D01*
X57752Y122815D02*Y120815D01*
X57252Y120315D01*
X56252D02*X57252D01*
X55752Y120815D02*X56252Y120315D01*
X55752Y122315D02*Y120815D01*
X53752Y122315D02*X57752D01*
X55752D02*X53752Y120315D01*
X57252Y119114D02*X57752Y118614D01*
Y117614D01*
X57252Y117114D01*
X54252D02*X57252D01*
X53752Y117614D02*X54252Y117114D01*
X53752Y118614D02*Y117614D01*
X54252Y119114D02*X53752Y118614D01*
X55752D02*Y117114D01*
X53752Y115913D02*X56252Y113413D01*
X57752D01*
Y115913D02*Y113413D01*
X221598Y112091D02*Y110091D01*
X221098Y109591D01*
X220098D02*X221098D01*
X219598Y110091D02*X220098Y109591D01*
X219598Y111591D02*Y110091D01*
X217598Y111591D02*X221598D01*
X219598D02*X217598Y109591D01*
Y107890D02*Y106890D01*
Y107390D02*X221598D01*
X220598Y108390D02*X221598Y107390D01*
X219598Y105689D02*X221598Y103689D01*
X219598Y105689D02*Y103189D01*
X217598Y103689D02*X221598D01*
X212123Y93771D02*X213623D01*
X211623Y94271D02*X212123Y93771D01*
X211623Y97271D02*Y94271D01*
Y97271D02*X212123Y97771D01*
X213623D01*
X214824D02*Y93771D01*
Y97771D02*Y97271D01*
X217324Y94771D01*
Y97771D02*Y93771D01*
X218525Y97771D02*X220525D01*
X218525D02*Y95771D01*
X219025Y96271D01*
X220025D01*
X220525Y95771D01*
Y94271D01*
X220025Y93771D02*X220525Y94271D01*
X219025Y93771D02*X220025D01*
X218525Y94271D02*X219025Y93771D01*
X206850Y141063D02*X208850D01*
X209350Y140563D01*
Y139563D01*
X208850Y139063D02*X209350Y139563D01*
X207350Y139063D02*X208850D01*
X207350Y141063D02*Y137063D01*
Y139063D02*X209350Y137063D01*
X210551Y139063D02*X212551Y141063D01*
X210551Y139063D02*X213051D01*
X212551Y141063D02*Y137063D01*
X214252Y140563D02*X214752Y141063D01*
X216252D01*
X216752Y140563D01*
Y139563D01*
X214252Y137063D02*X216752Y139563D01*
X214252Y137063D02*X216752D01*
X187500Y126413D02*Y122913D01*
X188000Y122413D01*
X189000D01*
X189500Y122913D01*
Y126413D02*Y122913D01*
X190701Y122413D02*X193201Y124913D01*
Y126413D02*Y124913D01*
X190701Y126413D02*X193201D01*
X186500Y102413D02*Y98413D01*
X188500D01*
X189701Y100413D02*X191201D01*
X189701Y98413D02*X191701D01*
X189701Y102413D02*Y98413D01*
Y102413D02*X191701D01*
X193402D02*Y98413D01*
X194902Y102413D02*X195402Y101913D01*
Y98913D01*
X194902Y98413D02*X195402Y98913D01*
X192902Y98413D02*X194902D01*
X192902Y102413D02*X194902D01*
X196603Y101913D02*X197103Y102413D01*
X198103D01*
X198603Y101913D01*
Y98913D01*
X198103Y98413D02*X198603Y98913D01*
X197103Y98413D02*X198103D01*
X196603Y98913D02*X197103Y98413D01*
Y100413D02*X198603D01*
X209500Y125413D02*X213500D01*
X209500D02*Y123413D01*
X211500Y122212D02*Y120712D01*
X209500Y122212D02*Y120212D01*
Y122212D02*X213500D01*
Y120212D01*
X209500Y118511D02*X213500D01*
Y117011D02*X213000Y116511D01*
X210000D02*X213000D01*
X209500Y117011D02*X210000Y116511D01*
X209500Y119011D02*Y117011D01*
X213500Y119011D02*Y117011D01*
X213000Y115310D02*X213500Y114810D01*
Y113310D01*
X213000Y112810D01*
X212000D02*X213000D01*
X209500Y115310D02*X212000Y112810D01*
X209500Y115310D02*Y112810D01*
X188791Y132555D02*X190291D01*
X188291Y133055D02*X188791Y132555D01*
X188291Y136055D02*Y133055D01*
Y136055D02*X188791Y136555D01*
X190291D01*
X191492Y132555D02*X193992Y135055D01*
Y136555D02*Y135055D01*
X191492Y136555D02*X193992D01*
X188763Y78752D02*X190763D01*
X191263Y78252D01*
Y77252D01*
X190763Y76752D02*X191263Y77252D01*
X189263Y76752D02*X190763D01*
X189263Y78752D02*Y74752D01*
Y76752D02*X191263Y74752D01*
X192464Y78752D02*X194464D01*
X192464D02*Y76752D01*
X192964Y77252D01*
X193964D01*
X194464Y76752D01*
Y75252D01*
X193964Y74752D02*X194464Y75252D01*
X192964Y74752D02*X193964D01*
X192464Y75252D02*X192964Y74752D01*
X187956Y88563D02*X189956D01*
X190456Y88063D01*
Y87063D01*
X189956Y86563D02*X190456Y87063D01*
X188456Y86563D02*X189956D01*
X188456Y88563D02*Y84563D01*
Y86563D02*X190456Y84563D01*
X191657Y88063D02*X192157Y88563D01*
X193657D01*
X194157Y88063D01*
Y87063D01*
X191657Y84563D02*X194157Y87063D01*
X191657Y84563D02*X194157D01*
X234002Y80520D02*Y79020D01*
X234502Y81020D02*X234002Y80520D01*
X234502Y81020D02*X237502D01*
X238002Y80520D01*
Y79020D01*
X234002Y77819D02*X238002D01*
X237502D02*X238002D01*
X237502D02*X235002Y75319D01*
X234002D02*X238002D01*
X234502Y74118D02*X234002Y73618D01*
X234502Y74118D02*X235502D01*
X236002Y73618D01*
Y72618D01*
X235502Y72118D01*
X234502D02*X235502D01*
X234002Y72618D02*X234502Y72118D01*
X234002Y73618D02*Y72618D01*
X236502Y74118D02*X236002Y73618D01*
X236502Y74118D02*X237502D01*
X238002Y73618D01*
Y72618D01*
X237502Y72118D01*
X236502D02*X237502D01*
X236002Y72618D02*X236502Y72118D01*
X234046Y91571D02*Y90071D01*
X234546Y92071D02*X234046Y91571D01*
X234546Y92071D02*X237546D01*
X238046Y91571D01*
Y90071D01*
X234046Y88870D02*X238046D01*
X237546D02*X238046D01*
X237546D02*X235046Y86370D01*
X234046D02*X238046D01*
X234046Y85169D02*X236046Y83169D01*
X237546D01*
X238046Y83669D02*X237546Y83169D01*
X238046Y84669D02*Y83669D01*
X237546Y85169D02*X238046Y84669D01*
X236546Y85169D02*X237546D01*
X236546D02*X236046Y84669D01*
Y83169D01*
X200350Y88563D02*X202350D01*
X202850Y88063D01*
Y87063D01*
X202350Y86563D02*X202850Y87063D01*
X200850Y86563D02*X202350D01*
X200850Y88563D02*Y84563D01*
Y86563D02*X202850Y84563D01*
X204551D02*X205551D01*
X205051Y88563D02*Y84563D01*
X204051Y87563D02*X205051Y88563D01*
X188322Y68511D02*X190322D01*
X190822Y68011D01*
Y67011D01*
X190322Y66511D02*X190822Y67011D01*
X188822Y66511D02*X190322D01*
X188822Y68511D02*Y64511D01*
Y66511D02*X190822Y64511D01*
X193523Y68511D02*X194023Y68011D01*
X192523Y68511D02*X193523D01*
X192023Y68011D02*X192523Y68511D01*
X192023Y68011D02*Y65011D01*
X192523Y64511D01*
X193523Y66511D02*X194023Y66011D01*
X192023Y66511D02*X193523D01*
X192523Y64511D02*X193523D01*
X194023Y65011D01*
Y66011D02*Y65011D01*
X170685Y72051D02*X172685D01*
X173185Y71551D01*
Y70551D01*
X172685Y70051D02*X173185Y70551D01*
X171185Y70051D02*X172685D01*
X171185Y72051D02*Y68051D01*
Y70051D02*X173185Y68051D01*
X174386D02*X176886Y70551D01*
Y72051D02*Y70551D01*
X174386Y72051D02*X176886D01*
X200350Y78563D02*X202350D01*
X202850Y78063D01*
Y77063D01*
X202350Y76563D02*X202850Y77063D01*
X200850Y76563D02*X202350D01*
X200850Y78563D02*Y74563D01*
Y76563D02*X202850Y74563D01*
X204051Y78063D02*X204551Y78563D01*
X205551D01*
X206051Y78063D01*
Y75063D01*
X205551Y74563D02*X206051Y75063D01*
X204551Y74563D02*X205551D01*
X204051Y75063D02*X204551Y74563D01*
Y76563D02*X206051D01*
X154500Y57413D02*X156000D01*
X154000Y57913D02*X154500Y57413D01*
X154000Y60913D02*Y57913D01*
Y60913D02*X154500Y61413D01*
X156000D01*
X157201D02*Y57413D01*
Y61413D02*Y60913D01*
X159701Y58413D01*
Y61413D02*Y57413D01*
X160902Y59413D02*X162902Y61413D01*
X160902Y59413D02*X163402D01*
X162902Y61413D02*Y57413D01*
X200350Y68563D02*X202350D01*
X202850Y68063D01*
Y67063D01*
X202350Y66563D02*X202850Y67063D01*
X200850Y66563D02*X202350D01*
X200850Y68563D02*Y64563D01*
Y66563D02*X202850Y64563D01*
X204051Y66563D02*X206051Y68563D01*
X204051Y66563D02*X206551D01*
X206051Y68563D02*Y64563D01*
X114350Y122563D02*X116350D01*
X116850Y122063D01*
Y121063D01*
X116350Y120563D02*X116850Y121063D01*
X114850Y120563D02*X116350D01*
X114850Y122563D02*Y118563D01*
Y120563D02*X116850Y118563D01*
X118551D02*X119551D01*
X119051Y122563D02*Y118563D01*
X118051Y121563D02*X119051Y122563D01*
X121252Y118563D02*X122252D01*
X121752Y122563D02*Y118563D01*
X120752Y121563D02*X121752Y122563D01*
X122776Y72543D02*Y69043D01*
X123276Y68543D01*
X124276D01*
X124776Y69043D01*
Y72543D02*Y69043D01*
X127477Y72543D02*X127977Y72043D01*
X126477Y72543D02*X127477D01*
X125977Y72043D02*X126477Y72543D01*
X125977Y72043D02*Y69043D01*
X126477Y68543D01*
X127477Y70543D02*X127977Y70043D01*
X125977Y70543D02*X127477D01*
X126477Y68543D02*X127477D01*
X127977Y69043D01*
Y70043D02*Y69043D01*
X114350Y117063D02*X116350D01*
X116850Y116563D01*
Y115563D01*
X116350Y115063D02*X116850Y115563D01*
X114850Y115063D02*X116350D01*
X114850Y117063D02*Y113063D01*
Y115063D02*X116850Y113063D01*
X118551D02*X119551D01*
X119051Y117063D02*Y113063D01*
X118051Y116063D02*X119051Y117063D01*
X120752Y113563D02*X121252Y113063D01*
X120752Y116563D02*Y113563D01*
Y116563D02*X121252Y117063D01*
X122252D01*
X122752Y116563D01*
Y113563D01*
X122252Y113063D02*X122752Y113563D01*
X121252Y113063D02*X122252D01*
X120752Y114063D02*X122752Y116063D01*
X143340Y133066D02*Y132566D01*
X145840Y130066D01*
Y129066D01*
X143340Y130066D02*Y129066D01*
Y130066D02*X145840Y132566D01*
Y133066D02*Y132566D01*
X147541Y129066D02*X148541D01*
X148041Y133066D02*Y129066D01*
X147041Y132066D02*X148041Y133066D01*
X177205Y92401D02*Y90901D01*
X177705Y92901D02*X177205Y92401D01*
X177705Y92901D02*X180705D01*
X181205Y92401D01*
Y90901D01*
Y89700D02*Y87700D01*
X179205Y89700D02*X181205D01*
X179205D02*X179705Y89200D01*
Y88200D01*
X179205Y87700D01*
X177705D02*X179205D01*
X177205Y88200D02*X177705Y87700D01*
X177205Y89200D02*Y88200D01*
X177705Y89700D02*X177205Y89200D01*
X113291Y5071D02*X115291D01*
X115791Y4571D01*
Y3571D01*
X115291Y3071D02*X115791Y3571D01*
X113791Y3071D02*X115291D01*
X113791Y5071D02*Y1071D01*
Y3071D02*X115791Y1071D01*
X116992Y4571D02*X117492Y5071D01*
X118992D01*
X119492Y4571D01*
Y3571D01*
X116992Y1071D02*X119492Y3571D01*
X116992Y1071D02*X119492D01*
X121193D02*X122193D01*
X121693Y5071D02*Y1071D01*
X120693Y4071D02*X121693Y5071D01*
X131350Y8063D02*Y4063D01*
X130850Y8063D02*X132850D01*
X133350Y7563D01*
Y6563D01*
X132850Y6063D02*X133350Y6563D01*
X131350Y6063D02*X132850D01*
X134551Y8063D02*X136551D01*
X135551D02*Y4063D01*
X138252D02*X139752D01*
X137752Y4563D02*X138252Y4063D01*
X137752Y7563D02*Y4563D01*
Y7563D02*X138252Y8063D01*
X139752D01*
X140953Y7563D02*X141453Y8063D01*
X142953D01*
X143453Y7563D01*
Y6563D01*
X140953Y4063D02*X143453Y6563D01*
X140953Y4063D02*X143453D01*
X136634Y54563D02*Y53063D01*
X137134Y55063D02*X136634Y54563D01*
X137134Y55063D02*X140134D01*
X140634Y54563D01*
Y53063D01*
Y50362D02*X140134Y49862D01*
X140634Y51362D02*Y50362D01*
X140134Y51862D02*X140634Y51362D01*
X137134Y51862D02*X140134D01*
X137134D02*X136634Y51362D01*
X138634Y50362D02*X138134Y49862D01*
X138634Y51862D02*Y50362D01*
X136634Y51362D02*Y50362D01*
X137134Y49862D01*
X138134D01*
X136291Y58071D02*X137791D01*
X135791Y58571D02*X136291Y58071D01*
X135791Y61571D02*Y58571D01*
Y61571D02*X136291Y62071D01*
X137791D01*
X138992Y58571D02*X139492Y58071D01*
X138992Y59571D02*Y58571D01*
Y59571D02*X139492Y60071D01*
X140492D01*
X140992Y59571D01*
Y58571D01*
X140492Y58071D02*X140992Y58571D01*
X139492Y58071D02*X140492D01*
X138992Y60571D02*X139492Y60071D01*
X138992Y61571D02*Y60571D01*
Y61571D02*X139492Y62071D01*
X140492D01*
X140992Y61571D01*
Y60571D01*
X140492Y60071D02*X140992Y60571D01*
X127409Y43071D02*X129409D01*
X129909Y42571D01*
Y41571D01*
X129409Y41071D02*X129909Y41571D01*
X127909Y41071D02*X129409D01*
X127909Y43071D02*Y39071D01*
Y41071D02*X129909Y39071D01*
X131110Y42571D02*X131610Y43071D01*
X133110D01*
X133610Y42571D01*
Y41571D01*
X131110Y39071D02*X133610Y41571D01*
X131110Y39071D02*X133610D01*
X134811Y39571D02*X135311Y39071D01*
X134811Y42571D02*Y39571D01*
Y42571D02*X135311Y43071D01*
X136311D01*
X136811Y42571D01*
Y39571D01*
X136311Y39071D02*X136811Y39571D01*
X135311Y39071D02*X136311D01*
X134811Y40071D02*X136811Y42071D01*
X137850Y47063D02*X139850D01*
X140350Y46563D01*
Y45563D01*
X139850Y45063D02*X140350Y45563D01*
X138350Y45063D02*X139850D01*
X138350Y47063D02*Y43063D01*
Y45063D02*X140350Y43063D01*
X142051D02*X143051D01*
X142551Y47063D02*Y43063D01*
X141551Y46063D02*X142551Y47063D01*
X144252Y43563D02*X144752Y43063D01*
X144252Y44563D02*Y43563D01*
Y44563D02*X144752Y45063D01*
X145752D01*
X146252Y44563D01*
Y43563D01*
X145752Y43063D02*X146252Y43563D01*
X144752Y43063D02*X145752D01*
X144252Y45563D02*X144752Y45063D01*
X144252Y46563D02*Y45563D01*
Y46563D02*X144752Y47063D01*
X145752D01*
X146252Y46563D01*
Y45563D01*
X145752Y45063D02*X146252Y45563D01*
X122850Y52563D02*X124850D01*
X125350Y52063D01*
Y51063D01*
X124850Y50563D02*X125350Y51063D01*
X123350Y50563D02*X124850D01*
X123350Y52563D02*Y48563D01*
Y50563D02*X125350Y48563D01*
X127051D02*X128051D01*
X127551Y52563D02*Y48563D01*
X126551Y51563D02*X127551Y52563D01*
X129252Y48563D02*X131252Y50563D01*
Y52063D02*Y50563D01*
X130752Y52563D02*X131252Y52063D01*
X129752Y52563D02*X130752D01*
X129252Y52063D02*X129752Y52563D01*
X129252Y52063D02*Y51063D01*
X129752Y50563D01*
X131252D01*
X122850Y58563D02*X124850D01*
X125350Y58063D01*
Y57063D01*
X124850Y56563D02*X125350Y57063D01*
X123350Y56563D02*X124850D01*
X123350Y58563D02*Y54563D01*
Y56563D02*X125350Y54563D01*
X126551Y58063D02*X127051Y58563D01*
X128551D01*
X129051Y58063D01*
Y57063D01*
X126551Y54563D02*X129051Y57063D01*
X126551Y54563D02*X129051D01*
X130252Y55063D02*X130752Y54563D01*
X130252Y56063D02*Y55063D01*
Y56063D02*X130752Y56563D01*
X131752D01*
X132252Y56063D01*
Y55063D01*
X131752Y54563D02*X132252Y55063D01*
X130752Y54563D02*X131752D01*
X130252Y57063D02*X130752Y56563D01*
X130252Y58063D02*Y57063D01*
Y58063D02*X130752Y58563D01*
X131752D01*
X132252Y58063D01*
Y57063D01*
X131752Y56563D02*X132252Y57063D01*
X135650Y36563D02*Y34563D01*
X135150Y34063D01*
X134150D02*X135150D01*
X133650Y34563D02*X134150Y34063D01*
X133650Y36063D02*Y34563D01*
X131650Y36063D02*X135650D01*
X133650D02*X131650Y34063D01*
X135150Y32862D02*X135650Y32362D01*
Y30862D01*
X135150Y30362D01*
X134150D02*X135150D01*
X131650Y32862D02*X134150Y30362D01*
X131650Y32862D02*Y30362D01*
X133650Y29161D02*X135650Y27161D01*
X133650Y29161D02*Y26661D01*
X131650Y27161D02*X135650D01*
X118102Y24268D02*X118602Y23768D01*
X116602Y24268D02*X118102D01*
X116102Y23768D02*X116602Y24268D01*
X116102Y23768D02*Y22768D01*
X116602Y22268D01*
X118102D01*
X118602Y21768D01*
Y20768D01*
X118102Y20268D02*X118602Y20768D01*
X116602Y20268D02*X118102D01*
X116102Y20768D02*X116602Y20268D01*
X120303D02*X121303D01*
X120803Y24268D02*Y20268D01*
X119803Y23268D02*X120803Y24268D01*
X113350Y44563D02*X115350D01*
X115850Y44063D01*
Y43063D01*
X115350Y42563D02*X115850Y43063D01*
X113850Y42563D02*X115350D01*
X113850Y44563D02*Y40563D01*
Y42563D02*X115850Y40563D01*
X117051Y44063D02*X117551Y44563D01*
X119051D01*
X119551Y44063D01*
Y43063D01*
X117051Y40563D02*X119551Y43063D01*
X117051Y40563D02*X119551D01*
X120752D02*X123252Y43063D01*
Y44563D02*Y43063D01*
X120752Y44563D02*X123252D01*
X46409Y56071D02*X47909D01*
X45909Y56571D02*X46409Y56071D01*
X45909Y59571D02*Y56571D01*
Y59571D02*X46409Y60071D01*
X47909D01*
X49110Y59571D02*X49610Y60071D01*
X51110D01*
X51610Y59571D01*
Y58571D01*
X49110Y56071D02*X51610Y58571D01*
X49110Y56071D02*X51610D01*
X52811Y58071D02*X54811Y60071D01*
X52811Y58071D02*X55311D01*
X54811Y60071D02*Y56071D01*
X45350Y65063D02*X47350D01*
X47850Y64563D01*
Y63563D01*
X47350Y63063D02*X47850Y63563D01*
X45850Y63063D02*X47350D01*
X45850Y65063D02*Y61063D01*
Y63063D02*X47850Y61063D01*
X49051Y64563D02*X49551Y65063D01*
X50551D01*
X51051Y64563D01*
Y61563D01*
X50551Y61063D02*X51051Y61563D01*
X49551Y61063D02*X50551D01*
X49051Y61563D02*X49551Y61063D01*
Y63063D02*X51051D01*
X52252Y64563D02*X52752Y65063D01*
X53752D01*
X54252Y64563D01*
Y61563D01*
X53752Y61063D02*X54252Y61563D01*
X52752Y61063D02*X53752D01*
X52252Y61563D02*X52752Y61063D01*
Y63063D02*X54252D01*
X48350Y74563D02*X50350D01*
X50850Y74063D01*
Y73063D01*
X50350Y72563D02*X50850Y73063D01*
X48850Y72563D02*X50350D01*
X48850Y74563D02*Y70563D01*
Y72563D02*X50850Y70563D01*
X52051Y72563D02*X54051Y74563D01*
X52051Y72563D02*X54551D01*
X54051Y74563D02*Y70563D01*
X55752Y71063D02*X56252Y70563D01*
X55752Y74063D02*Y71063D01*
Y74063D02*X56252Y74563D01*
X57252D01*
X57752Y74063D01*
Y71063D01*
X57252Y70563D02*X57752Y71063D01*
X56252Y70563D02*X57252D01*
X55752Y71563D02*X57752Y73563D01*
X94291Y45055D02*X96291D01*
X96791Y44555D01*
Y43555D01*
X96291Y43055D02*X96791Y43555D01*
X94791Y43055D02*X96291D01*
X94791Y45055D02*Y41055D01*
Y43055D02*X96791Y41055D01*
X98492D02*X99492D01*
X98992Y45055D02*Y41055D01*
X97992Y44055D02*X98992Y45055D01*
X102193D02*X102693Y44555D01*
X101193Y45055D02*X102193D01*
X100693Y44555D02*X101193Y45055D01*
X100693Y44555D02*Y41555D01*
X101193Y41055D01*
X102193Y43055D02*X102693Y42555D01*
X100693Y43055D02*X102193D01*
X101193Y41055D02*X102193D01*
X102693Y41555D01*
Y42555D02*Y41555D01*
X66000Y45413D02*Y41413D01*
X68000D01*
X69201Y43413D02*X70701D01*
X69201Y41413D02*X71201D01*
X69201Y45413D02*Y41413D01*
Y45413D02*X71201D01*
X72902D02*Y41413D01*
X74402Y45413D02*X74902Y44913D01*
Y41913D01*
X74402Y41413D02*X74902Y41913D01*
X72402Y41413D02*X74402D01*
X72402Y45413D02*X74402D01*
X76603Y41413D02*X77603D01*
X77103Y45413D02*Y41413D01*
X76103Y44413D02*X77103Y45413D01*
X29350Y48063D02*X31350D01*
X31850Y47563D01*
Y46563D01*
X31350Y46063D02*X31850Y46563D01*
X29850Y46063D02*X31350D01*
X29850Y48063D02*Y44063D01*
Y46063D02*X31850Y44063D01*
X33051Y47563D02*X33551Y48063D01*
X35051D01*
X35551Y47563D01*
Y46563D01*
X33051Y44063D02*X35551Y46563D01*
X33051Y44063D02*X35551D01*
X36752D02*X38752Y46063D01*
Y47563D02*Y46063D01*
X38252Y48063D02*X38752Y47563D01*
X37252Y48063D02*X38252D01*
X36752Y47563D02*X37252Y48063D01*
X36752Y47563D02*Y46563D01*
X37252Y46063D01*
X38752D01*
X105000Y46494D02*Y42994D01*
X105500Y42494D01*
X106500D01*
X107000Y42994D01*
Y46494D02*Y42994D01*
X108201Y42494D02*X110201Y44494D01*
Y45994D02*Y44494D01*
X109701Y46494D02*X110201Y45994D01*
X108701Y46494D02*X109701D01*
X108201Y45994D02*X108701Y46494D01*
X108201Y45994D02*Y44994D01*
X108701Y44494D01*
X110201D01*
X81169Y16658D02*X82669D01*
X80669Y17158D02*X81169Y16658D01*
X80669Y20158D02*Y17158D01*
Y20158D02*X81169Y20658D01*
X82669D01*
X84370Y16658D02*X85370D01*
X84870Y20658D02*Y16658D01*
X83870Y19658D02*X84870Y20658D01*
X86571Y20158D02*X87071Y20658D01*
X88571D01*
X89071Y20158D01*
Y19158D01*
X86571Y16658D02*X89071Y19158D01*
X86571Y16658D02*X89071D01*
X92900Y7813D02*Y4813D01*
Y7813D02*X93400Y8313D01*
X94400D01*
X94900Y7813D01*
Y4813D01*
X94400Y4313D02*X94900Y4813D01*
X93400Y4313D02*X94400D01*
X92900Y4813D02*X93400Y4313D01*
X93900Y5313D02*X94900Y4313D01*
X96601D02*X97601D01*
X97101Y8313D02*Y4313D01*
X96101Y7313D02*X97101Y8313D01*
X82650Y43063D02*Y41063D01*
X82150Y40563D01*
X81150D02*X82150D01*
X80650Y41063D02*X81150Y40563D01*
X80650Y42563D02*Y41063D01*
X78650Y42563D02*X82650D01*
X80650D02*X78650Y40563D01*
X82150Y39362D02*X82650Y38862D01*
Y37862D01*
X82150Y37362D01*
X79150D02*X82150D01*
X78650Y37862D02*X79150Y37362D01*
X78650Y38862D02*Y37862D01*
X79150Y39362D02*X78650Y38862D01*
X80650D02*Y37362D01*
X78650Y35661D02*Y34661D01*
Y35161D02*X82650D01*
X81650Y36161D02*X82650Y35161D01*
X78850Y59563D02*X80350D01*
X78350Y60063D02*X78850Y59563D01*
X78350Y63063D02*Y60063D01*
Y63063D02*X78850Y63563D01*
X80350D01*
X82051Y59563D02*X83051D01*
X82551Y63563D02*Y59563D01*
X81551Y62563D02*X82551Y63563D01*
X85752D02*X86252Y63063D01*
X84752Y63563D02*X85752D01*
X84252Y63063D02*X84752Y63563D01*
X84252Y63063D02*Y60063D01*
X84752Y59563D01*
X85752Y61563D02*X86252Y61063D01*
X84252Y61563D02*X85752D01*
X84752Y59563D02*X85752D01*
X86252Y60063D01*
Y61063D02*Y60063D01*
X40600Y54113D02*Y52613D01*
X41100Y54613D02*X40600Y54113D01*
X41100Y54613D02*X44100D01*
X44600Y54113D01*
Y52613D01*
X40600Y51412D02*X44600D01*
X44100D02*X44600D01*
X44100D02*X41600Y48912D01*
X40600D02*X44600D01*
X40600Y47211D02*Y46211D01*
Y46711D02*X44600D01*
X43600Y47711D02*X44600Y46711D01*
X33732Y59047D02*X35732D01*
X36232Y58547D01*
Y57547D01*
X35732Y57047D02*X36232Y57547D01*
X34232Y57047D02*X35732D01*
X34232Y59047D02*Y55047D01*
Y57047D02*X36232Y55047D01*
X37433Y58547D02*X37933Y59047D01*
X38933D01*
X39433Y58547D01*
Y55547D01*
X38933Y55047D02*X39433Y55547D01*
X37933Y55047D02*X38933D01*
X37433Y55547D02*X37933Y55047D01*
Y57047D02*X39433D01*
X40634D02*X42634Y59047D01*
X40634Y57047D02*X43134D01*
X42634Y59047D02*Y55047D01*
X80798Y32091D02*X82798D01*
X83298Y31591D01*
Y30591D01*
X82798Y30091D02*X83298Y30591D01*
X81298Y30091D02*X82798D01*
X81298Y32091D02*Y28091D01*
Y30091D02*X83298Y28091D01*
X84499Y31591D02*X84999Y32091D01*
X86499D01*
X86999Y31591D01*
Y30591D01*
X84499Y28091D02*X86999Y30591D01*
X84499Y28091D02*X86999D01*
X89700Y32091D02*X90200Y31591D01*
X88700Y32091D02*X89700D01*
X88200Y31591D02*X88700Y32091D01*
X88200Y31591D02*Y28591D01*
X88700Y28091D01*
X89700Y30091D02*X90200Y29591D01*
X88200Y30091D02*X89700D01*
X88700Y28091D02*X89700D01*
X90200Y28591D01*
Y29591D02*Y28591D01*
X94291Y39555D02*X96291D01*
X96791Y39055D01*
Y38055D01*
X96291Y37555D02*X96791Y38055D01*
X94791Y37555D02*X96291D01*
X94791Y39555D02*Y35555D01*
Y37555D02*X96791Y35555D01*
X98492D02*X99492D01*
X98992Y39555D02*Y35555D01*
X97992Y38555D02*X98992Y39555D01*
X100693Y35555D02*X103193Y38055D01*
Y39555D02*Y38055D01*
X100693Y39555D02*X103193D01*
X51407Y6806D02*Y2806D01*
X52907Y6806D02*X53407Y6306D01*
Y3306D01*
X52907Y2806D02*X53407Y3306D01*
X50907Y2806D02*X52907D01*
X50907Y6806D02*X52907D01*
X55108Y2806D02*X56108D01*
X55608Y6806D02*Y2806D01*
X54608Y5806D02*X55608Y6806D01*
X50422Y17695D02*X53922D01*
X54422Y18195D01*
Y19195D02*Y18195D01*
Y19195D02*X53922Y19695D01*
X50422D02*X53922D01*
X50422Y22896D02*Y20896D01*
X52422D01*
X51922Y21396D01*
Y22396D02*Y21396D01*
Y22396D02*X52422Y22896D01*
X53922D01*
X54422Y22396D02*X53922Y22896D01*
X54422Y22396D02*Y21396D01*
X53922Y20896D02*X54422Y21396D01*
X49664Y31531D02*X51164D01*
X49164Y32031D02*X49664Y31531D01*
X49164Y35031D02*Y32031D01*
Y35031D02*X49664Y35531D01*
X51164D01*
X52865Y31531D02*X53865D01*
X53365Y35531D02*Y31531D01*
X52365Y34531D02*X53365Y35531D01*
X55066Y32031D02*X55566Y31531D01*
X55066Y35031D02*Y32031D01*
Y35031D02*X55566Y35531D01*
X56566D01*
X57066Y35031D01*
Y32031D01*
X56566Y31531D02*X57066Y32031D01*
X55566Y31531D02*X56566D01*
X55066Y32531D02*X57066Y34531D01*
X49893Y36956D02*X51393D01*
X49393Y37456D02*X49893Y36956D01*
X49393Y40456D02*Y37456D01*
Y40456D02*X49893Y40956D01*
X51393D01*
X53094Y36956D02*X54094D01*
X53594Y40956D02*Y36956D01*
X52594Y39956D02*X53594Y40956D01*
X55795Y36956D02*X56795D01*
X56295Y40956D02*Y36956D01*
X55295Y39956D02*X56295Y40956D01*
X63879Y6730D02*Y2730D01*
X65879D01*
X67580D02*X68580D01*
X68080Y6730D02*Y2730D01*
X67080Y5730D02*X68080Y6730D01*
X17179Y32723D02*Y31223D01*
X17679Y33223D02*X17179Y32723D01*
X17679Y33223D02*X20679D01*
X21179Y32723D01*
Y31223D01*
X17179Y29522D02*Y28522D01*
Y29022D02*X21179D01*
X20179Y30022D02*X21179Y29022D01*
X20679Y27321D02*X21179Y26821D01*
Y25821D01*
X20679Y25321D01*
X17679D02*X20679D01*
X17179Y25821D02*X17679Y25321D01*
X17179Y26821D02*Y25821D01*
X17679Y27321D02*X17179Y26821D01*
X19179D02*Y25321D01*
X4720Y53626D02*X6220D01*
X4220Y54126D02*X4720Y53626D01*
X4220Y57126D02*Y54126D01*
Y57126D02*X4720Y57626D01*
X6220D01*
X7421D02*Y53626D01*
Y57626D02*Y57126D01*
X9921Y54626D01*
Y57626D02*Y53626D01*
X11622D02*X12622D01*
X12122Y57626D02*Y53626D01*
X11122Y56626D02*X12122Y57626D01*
X13823Y54126D02*X14323Y53626D01*
X13823Y57126D02*Y54126D01*
Y57126D02*X14323Y57626D01*
X15323D01*
X15823Y57126D01*
Y54126D01*
X15323Y53626D02*X15823Y54126D01*
X14323Y53626D02*X15323D01*
X13823Y54626D02*X15823Y56626D01*
X19850Y26563D02*X21850D01*
X22350Y26063D01*
Y25063D01*
X21850Y24563D02*X22350Y25063D01*
X20350Y24563D02*X21850D01*
X20350Y26563D02*Y22563D01*
Y24563D02*X22350Y22563D01*
X23551Y26063D02*X24051Y26563D01*
X25051D01*
X25551Y26063D01*
Y23063D01*
X25051Y22563D02*X25551Y23063D01*
X24051Y22563D02*X25051D01*
X23551Y23063D02*X24051Y22563D01*
Y24563D02*X25551D01*
X26752Y23063D02*X27252Y22563D01*
X26752Y26063D02*Y23063D01*
Y26063D02*X27252Y26563D01*
X28252D01*
X28752Y26063D01*
Y23063D01*
X28252Y22563D02*X28752Y23063D01*
X27252Y22563D02*X28252D01*
X26752Y23563D02*X28752Y25563D01*
X32794Y7824D02*Y6324D01*
X32294Y5824D02*X32794Y6324D01*
X29294Y5824D02*X32294D01*
X29294D02*X28794Y6324D01*
Y7824D02*Y6324D01*
X32794Y9025D02*X30794Y11025D01*
X29294D02*X30794D01*
X28794Y10525D02*X29294Y11025D01*
X28794Y10525D02*Y9525D01*
X29294Y9025D02*X28794Y9525D01*
X29294Y9025D02*X30294D01*
X30794Y9525D01*
Y11025D02*Y9525D01*
X30100Y54113D02*Y50113D01*
X31600Y54113D02*X32100Y53613D01*
Y50613D01*
X31600Y50113D02*X32100Y50613D01*
X29600Y50113D02*X31600D01*
X29600Y54113D02*X31600D01*
X33301Y53613D02*X33801Y54113D01*
X35301D01*
X35801Y53613D01*
Y52613D01*
X33301Y50113D02*X35801Y52613D01*
X33301Y50113D02*X35801D01*
X33291Y68555D02*X35291D01*
X35791Y68055D01*
Y67055D01*
X35291Y66555D02*X35791Y67055D01*
X33791Y66555D02*X35291D01*
X33791Y68555D02*Y64555D01*
Y66555D02*X35791Y64555D01*
X36992Y68055D02*X37492Y68555D01*
X38492D01*
X38992Y68055D01*
Y65055D01*
X38492Y64555D02*X38992Y65055D01*
X37492Y64555D02*X38492D01*
X36992Y65055D02*X37492Y64555D01*
Y66555D02*X38992D01*
X40193Y64555D02*X42193Y66555D01*
Y68055D02*Y66555D01*
X41693Y68555D02*X42193Y68055D01*
X40693Y68555D02*X41693D01*
X40193Y68055D02*X40693Y68555D01*
X40193Y68055D02*Y67055D01*
X40693Y66555D01*
X42193D01*
X38858Y70504D02*X40358D01*
X38358Y71004D02*X38858Y70504D01*
X38358Y74004D02*Y71004D01*
Y74004D02*X38858Y74504D01*
X40358D01*
X41559Y74004D02*X42059Y74504D01*
X43559D01*
X44059Y74004D01*
Y73004D01*
X41559Y70504D02*X44059Y73004D01*
X41559Y70504D02*X44059D01*
X45260Y74004D02*X45760Y74504D01*
X46760D01*
X47260Y74004D01*
Y71004D01*
X46760Y70504D02*X47260Y71004D01*
X45760Y70504D02*X46760D01*
X45260Y71004D02*X45760Y70504D01*
Y72504D02*X47260D01*
X28500Y68413D02*Y66913D01*
X29000Y68913D02*X28500Y68413D01*
X29000Y68913D02*X32000D01*
X32500Y68413D01*
Y66913D01*
X28500Y65712D02*X32500D01*
X32000D02*X32500D01*
X32000D02*X29500Y63212D01*
X28500D02*X32500D01*
X32000Y62011D02*X32500Y61511D01*
Y60011D01*
X32000Y59511D01*
X31000D02*X32000D01*
X28500Y62011D02*X31000Y59511D01*
X28500Y62011D02*Y59511D01*
X179709Y24768D02*X180209Y24268D01*
X178209Y24768D02*X179709D01*
X177709Y24268D02*X178209Y24768D01*
X177709Y24268D02*Y23268D01*
X178209Y22768D01*
X179709D01*
X180209Y22268D01*
Y21268D01*
X179709Y20768D02*X180209Y21268D01*
X178209Y20768D02*X179709D01*
X177709Y21268D02*X178209Y20768D01*
X181410Y24268D02*X181910Y24768D01*
X182910D01*
X183410Y24268D01*
Y21268D01*
X182910Y20768D02*X183410Y21268D01*
X181910Y20768D02*X182910D01*
X181410Y21268D02*X181910Y20768D01*
Y22768D02*X183410D01*
X176350Y5063D02*X178350D01*
X178850Y4563D01*
Y3563D01*
X178350Y3063D02*X178850Y3563D01*
X176850Y3063D02*X178350D01*
X176850Y5063D02*Y1063D01*
Y3063D02*X178850Y1063D01*
X180051Y4563D02*X180551Y5063D01*
X182051D01*
X182551Y4563D01*
Y3563D01*
X180051Y1063D02*X182551Y3563D01*
X180051Y1063D02*X182551D01*
X183752Y4563D02*X184252Y5063D01*
X185252D01*
X185752Y4563D01*
Y1563D01*
X185252Y1063D02*X185752Y1563D01*
X184252Y1063D02*X185252D01*
X183752Y1563D02*X184252Y1063D01*
Y3063D02*X185752D01*
X191500Y4413D02*X193000D01*
X191000Y4913D02*X191500Y4413D01*
X191000Y7913D02*Y4913D01*
Y7913D02*X191500Y8413D01*
X193000D01*
X194201D02*Y4413D01*
Y8413D02*Y7913D01*
X196701Y5413D01*
Y8413D02*Y4413D01*
X198402D02*X199402D01*
X198902Y8413D02*Y4413D01*
X197902Y7413D02*X198902Y8413D01*
X201103Y4413D02*X202103D01*
X201603Y8413D02*Y4413D01*
X200603Y7413D02*X201603Y8413D01*
X153708Y24768D02*X154208Y24268D01*
X152208Y24768D02*X153708D01*
X151708Y24268D02*X152208Y24768D01*
X151708Y24268D02*Y23268D01*
X152208Y22768D01*
X153708D01*
X154208Y22268D01*
Y21268D01*
X153708Y20768D02*X154208Y21268D01*
X152208Y20768D02*X153708D01*
X151708Y21268D02*X152208Y20768D01*
X155409Y24268D02*X155909Y24768D01*
X157409D01*
X157909Y24268D01*
Y23268D01*
X155409Y20768D02*X157909Y23268D01*
X155409Y20768D02*X157909D01*
X150350Y5063D02*X152350D01*
X152850Y4563D01*
Y3563D01*
X152350Y3063D02*X152850Y3563D01*
X150850Y3063D02*X152350D01*
X150850Y5063D02*Y1063D01*
Y3063D02*X152850Y1063D01*
X154051Y4563D02*X154551Y5063D01*
X156051D01*
X156551Y4563D01*
Y3563D01*
X154051Y1063D02*X156551Y3563D01*
X154051Y1063D02*X156551D01*
X157752Y4563D02*X158252Y5063D01*
X159752D01*
X160252Y4563D01*
Y3563D01*
X157752Y1063D02*X160252Y3563D01*
X157752Y1063D02*X160252D01*
X205067Y60865D02*Y59365D01*
X205567Y61365D02*X205067Y60865D01*
X205567Y61365D02*X208567D01*
X209067Y60865D01*
Y59365D01*
X205067Y58164D02*X209067D01*
X208567D02*X209067D01*
X208567D02*X206067Y55664D01*
X205067D02*X209067D01*
Y52963D02*X208567Y52463D01*
X209067Y53963D02*Y52963D01*
X208567Y54463D02*X209067Y53963D01*
X205567Y54463D02*X208567D01*
X205567D02*X205067Y53963D01*
X207067Y52963D02*X206567Y52463D01*
X207067Y54463D02*Y52963D01*
X205067Y53963D02*Y52963D01*
X205567Y52463D01*
X206567D01*
X187850Y44563D02*X189850D01*
X190350Y44063D01*
Y43063D01*
X189850Y42563D02*X190350Y43063D01*
X188350Y42563D02*X189850D01*
X188350Y44563D02*Y40563D01*
Y42563D02*X190350Y40563D01*
X191551D02*X193551Y42563D01*
Y44063D02*Y42563D01*
X193051Y44563D02*X193551Y44063D01*
X192051Y44563D02*X193051D01*
X191551Y44063D02*X192051Y44563D01*
X191551Y44063D02*Y43063D01*
X192051Y42563D01*
X193551D01*
X197791Y34055D02*X199791D01*
X200291Y33555D01*
Y32555D01*
X199791Y32055D02*X200291Y32555D01*
X198291Y32055D02*X199791D01*
X198291Y34055D02*Y30055D01*
Y32055D02*X200291Y30055D01*
X201492Y30555D02*X201992Y30055D01*
X201492Y31555D02*Y30555D01*
Y31555D02*X201992Y32055D01*
X202992D01*
X203492Y31555D01*
Y30555D01*
X202992Y30055D02*X203492Y30555D01*
X201992Y30055D02*X202992D01*
X201492Y32555D02*X201992Y32055D01*
X201492Y33555D02*Y32555D01*
Y33555D02*X201992Y34055D01*
X202992D01*
X203492Y33555D01*
Y32555D01*
X202992Y32055D02*X203492Y32555D01*
X208000Y4413D02*X209500D01*
X207500Y4913D02*X208000Y4413D01*
X207500Y7913D02*Y4913D01*
Y7913D02*X208000Y8413D01*
X209500D01*
X210701D02*Y4413D01*
Y8413D02*Y7913D01*
X213201Y5413D01*
Y8413D02*Y4413D01*
X214402D02*X216902Y6913D01*
Y8413D02*Y6913D01*
X214402Y8413D02*X216902D01*
M02*
