G04 start of page 7 for group -4079 idx -4079 *
G04 Title: (unknown), topsilk *
G04 Creator: pcb 20091103 *
G04 CreationDate: Sun 20 Feb 2011 16:36:46 GMT UTC *
G04 For: thomas *
G04 Format: Gerber/RS-274X *
G04 PCB-Dimensions: 240157 142913 *
G04 PCB-Coordinate-Origin: lower left *
%MOIN*%
%FSLAX25Y25*%
%LNFRONTSILK*%
%ADD11C,0.0200*%
%ADD14C,0.0080*%
%ADD60C,0.0060*%
%ADD61C,0.0100*%
G54D14*X54000Y122913D02*Y124913D01*
X54500Y125413D01*
X61500Y134413D02*X62500Y135413D01*
X65000D01*
X66000Y134413D01*
X45000Y116913D02*X44500D01*
X43500Y117913D01*
X92500Y122913D02*X81000D01*
X79000Y124913D01*
X92500Y140413D02*Y138913D01*
X93000Y128913D02*X89000D01*
X88500Y128413D01*
X96000Y139913D02*X95000Y140913D01*
X93000D01*
X92500Y140413D01*
X98500Y71413D02*Y72913D01*
X99500Y73913D01*
X102000D01*
X100500Y75413D02*X102000Y73913D01*
X101500Y73413D02*Y74413D01*
X100500Y72413D02*X102000Y73913D01*
X150000Y44913D02*X151000D01*
X152000Y45913D01*
Y47413D01*
X151500Y46913D01*
X152500D01*
X152000Y47413D01*
X91000Y30913D02*X95000D01*
X96000Y29913D01*
X95000D01*
X96000D02*Y30913D01*
X95000Y29913D02*X96000Y30913D01*
X106299Y4724D02*Y8661D01*
X105905D02*X105118Y7874D01*
X105905Y8661D02*X106693D01*
X107480Y7874D01*
X32000Y25413D02*X31000Y26413D01*
X30000D01*
X23000Y32413D02*X24000D01*
X25000Y31413D01*
X34500Y43913D02*X33000Y42413D01*
X3000Y55913D02*X2500D01*
X1500Y54913D01*
Y50413D01*
X2500Y49413D01*
X4000D01*
X31000Y54913D02*X29000Y56913D01*
X26500D01*
X25500Y55913D01*
X21000Y99913D02*X22000Y100913D01*
X33500Y85413D02*Y83913D01*
X34000Y83413D01*
X20500Y99913D02*X21000D01*
X38500Y74413D02*Y76913D01*
X38000Y77413D01*
X34000Y68913D02*Y71346D01*
X33441Y71905D01*
X44500Y80413D02*X43500D01*
X46000Y75913D02*X45000Y76913D01*
Y79913D01*
X44500Y80413D01*
X46000Y75913D02*X49500D01*
X50000Y75413D01*
X55000Y57913D02*X57000D01*
X58000Y58913D01*
X45500Y89913D02*X56000D01*
X57000Y88913D01*
X48500Y42413D02*X50000D01*
X50500Y41913D01*
X48500Y34413D02*X48000Y33913D01*
Y32413D01*
X47500Y31913D01*
X49500Y3413D02*X43500D01*
X43000Y3913D01*
X31000Y4413D02*X30000Y3413D01*
X25000D01*
X24000Y4413D01*
G54D60*X184000Y107413D02*Y103913D01*
Y107413D02*X184500Y107913D01*
X186000D01*
X186500Y107413D01*
Y103913D01*
X184000Y105913D02*X186500D01*
X200500Y103913D02*X202500D01*
X203000Y104413D01*
Y105413D02*Y104413D01*
X202500Y105913D02*X203000Y105413D01*
X201000Y105913D02*X202500D01*
X201000Y107913D02*Y103913D01*
X200500Y107913D02*X202500D01*
X203000Y107413D01*
Y106413D01*
X202500Y105913D02*X203000Y106413D01*
X129134Y135964D02*X131034Y137864D01*
Y139004D02*Y137864D01*
X129134Y139004D02*X131034D01*
X131946Y135964D02*X132326D01*
X133239Y138624D02*X133619Y139004D01*
X134379D01*
X134759Y138624D01*
Y136344D01*
X134379Y135964D02*X134759Y136344D01*
X133619Y135964D02*X134379D01*
X133239Y136344D02*X133619Y135964D01*
Y137484D02*X134759D01*
X135672Y135964D02*X137572Y137864D01*
Y139004D02*Y137864D01*
X135672Y139004D02*X137572D01*
X138485Y138624D02*X138865Y139004D01*
X140005D01*
X140385Y138624D01*
Y137864D01*
X138485Y135964D02*X140385Y137864D01*
X138485Y135964D02*X140385D01*
X141297Y136344D02*X141677Y135964D01*
X141297Y137104D02*Y136344D01*
Y137104D02*X141677Y137484D01*
X142437D01*
X142817Y137104D01*
Y136344D01*
X142437Y135964D02*X142817Y136344D01*
X141677Y135964D02*X142437D01*
X141297Y137864D02*X141677Y137484D01*
X141297Y138624D02*Y137864D01*
Y138624D02*X141677Y139004D01*
X142437D01*
X142817Y138624D01*
Y137864D01*
X142437Y137484D02*X142817Y137864D01*
X145098Y139004D02*Y135964D01*
Y139004D02*X146238Y137864D01*
X147378Y139004D01*
Y135964D01*
X148291Y139004D02*Y135964D01*
X150191Y139004D02*Y135964D01*
X148291Y137484D02*X150191D01*
X151104D02*X152624D01*
X151104Y135964D02*X152624Y137484D01*
X151104Y135964D02*X152624D01*
X154904Y137104D02*Y136344D01*
Y137104D02*X155284Y137484D01*
X156044D01*
X156424Y137104D01*
Y136344D01*
X156044Y135964D02*X156424Y136344D01*
X155284Y135964D02*X156044D01*
X154904Y136344D02*X155284Y135964D01*
X157717Y137104D02*Y135964D01*
Y137104D02*X158097Y137484D01*
X158477D01*
X158857Y137104D01*
Y135964D01*
X157337Y137484D02*X157717Y137104D01*
X159770Y139004D02*Y136344D01*
X160150Y135964D01*
X160911Y137484D02*Y136344D01*
X161291Y135964D01*
X162431Y137484D02*Y135204D01*
X162051Y134824D02*X162431Y135204D01*
X161291Y134824D02*X162051D01*
X160911Y135204D02*X161291Y134824D01*
Y135964D02*X162051D01*
X162431Y136344D01*
X59500Y42413D02*Y40913D01*
X60000Y40413D01*
X60500D01*
X61000Y40913D01*
Y42413D02*Y40913D01*
X61500Y40413D01*
X62000D01*
X62500Y40913D01*
Y42413D02*Y40913D01*
X58000Y44913D02*Y41913D01*
X57500Y45413D02*X58000Y44913D01*
X58500Y45413D01*
X59500D01*
X60000Y44913D01*
Y43913D01*
X59500Y43413D02*X60000Y43913D01*
X58500Y43413D02*X59500D01*
X58000Y43913D02*X58500Y43413D01*
X63500D02*Y41913D01*
Y43413D02*X64000Y43913D01*
X65000D01*
X63000D02*X63500Y43413D01*
X92500Y70913D02*Y67413D01*
X93000Y66913D01*
X92000Y69413D02*X93000D01*
X94501Y66913D02*X96001D01*
X94001Y67413D02*X94501Y66913D01*
X94001Y68413D02*Y67413D01*
Y68413D02*X94501Y68913D01*
X95501D01*
X96001Y68413D01*
X94001Y67913D02*X96001D01*
Y68413D02*Y67913D01*
X97702Y68413D02*Y66913D01*
Y68413D02*X98202Y68913D01*
X98702D01*
X99202Y68413D01*
Y66913D01*
Y68413D02*X99702Y68913D01*
X100202D01*
X100702Y68413D01*
Y66913D01*
X97202Y68913D02*X97702Y68413D01*
X102403D02*Y65413D01*
X101903Y68913D02*X102403Y68413D01*
X102903Y68913D01*
X103903D01*
X104403Y68413D01*
Y67413D01*
X103903Y66913D02*X104403Y67413D01*
X102903Y66913D02*X103903D01*
X102403Y67413D02*X102903Y66913D01*
X92500Y62413D02*X94000D01*
X94500Y62913D01*
X94000Y63413D02*X94500Y62913D01*
X92500Y63413D02*X94000D01*
X92000Y63913D02*X92500Y63413D01*
X92000Y63913D02*X92500Y64413D01*
X94000D01*
X94500Y63913D01*
X92000Y62913D02*X92500Y62413D01*
X96201Y63913D02*Y62413D01*
Y63913D02*X96701Y64413D01*
X97201D01*
X97701Y63913D01*
Y62413D01*
X95701Y64413D02*X96201Y63913D01*
X99402Y62413D02*X100902D01*
X101402Y62913D01*
X100902Y63413D02*X101402Y62913D01*
X99402Y63413D02*X100902D01*
X98902Y63913D02*X99402Y63413D01*
X98902Y63913D02*X99402Y64413D01*
X100902D01*
X101402Y63913D01*
X98902Y62913D02*X99402Y62413D01*
X103103Y63913D02*Y62413D01*
Y63913D02*X103603Y64413D01*
X104603D01*
X102603D02*X103103Y63913D01*
X93701Y3584D02*Y1304D01*
Y3584D02*X94081Y3964D01*
X94841D01*
X95221Y3584D01*
Y1304D01*
X94841Y924D02*X95221Y1304D01*
X94081Y924D02*X94841D01*
X93701Y1304D02*X94081Y924D01*
X96133Y3964D02*Y924D01*
Y2444D02*X97653Y3964D01*
X96133Y2444D02*X97653Y924D01*
X98566Y1304D02*X100846Y3584D01*
X101759Y3964D02*Y924D01*
Y3964D02*X102899Y2824D01*
X104039Y3964D01*
Y924D01*
X104952Y2444D02*X106092D01*
X104952Y924D02*X106472D01*
X104952Y3964D02*Y924D01*
Y3964D02*X106472D01*
X107384D02*Y924D01*
Y3964D02*Y3584D01*
X109284Y1684D01*
Y3964D02*Y924D01*
X110197Y3964D02*Y1304D01*
X110577Y924D01*
X111337D01*
X111717Y1304D01*
Y3964D02*Y1304D01*
X203201Y102046D02*X203581Y101666D01*
X202061Y102046D02*X203201D01*
X201681Y101666D02*X202061Y102046D01*
X201681Y101666D02*Y100906D01*
X202061Y100526D01*
X203201D01*
X203581Y100146D01*
Y99386D01*
X203201Y99006D02*X203581Y99386D01*
X202061Y99006D02*X203201D01*
X201681Y99386D02*X202061Y99006D01*
X204493Y102046D02*X206013D01*
X205253D02*Y99006D01*
X206926Y101666D02*Y99006D01*
Y101666D02*X207306Y102046D01*
X208446D01*
X208826Y101666D01*
Y99006D01*
X206926Y100526D02*X208826D01*
X209739Y102046D02*X211259D01*
X210499D02*Y99006D01*
X212172Y102046D02*Y99386D01*
X212552Y99006D01*
X213312D01*
X213692Y99386D01*
Y102046D02*Y99386D01*
X216124Y102046D02*X216504Y101666D01*
X214984Y102046D02*X216124D01*
X214604Y101666D02*X214984Y102046D01*
X214604Y101666D02*Y100906D01*
X214984Y100526D01*
X216124D01*
X216504Y100146D01*
Y99386D01*
X216124Y99006D02*X216504Y99386D01*
X214984Y99006D02*X216124D01*
X214604Y99386D02*X214984Y99006D01*
X222000Y31503D02*X222470Y31973D01*
X223410D01*
X223880Y31503D01*
Y28683D01*
X223410Y28213D02*X223880Y28683D01*
X222470Y28213D02*X223410D01*
X222000Y28683D02*X222470Y28213D01*
Y30093D02*X223880D01*
X225008Y31973D02*Y29153D01*
X225948Y28213D01*
X226888Y29153D01*
Y31973D02*Y29153D01*
X228017Y31503D02*X228487Y31973D01*
X229427D01*
X229897Y31503D01*
Y28683D01*
X229427Y28213D02*X229897Y28683D01*
X228487Y28213D02*X229427D01*
X228017Y28683D02*X228487Y28213D01*
Y30093D02*X229897D01*
X223880Y24473D02*X224350Y24003D01*
X222470Y24473D02*X223880D01*
X222000Y24003D02*X222470Y24473D01*
X222000Y24003D02*Y21183D01*
X222470Y20713D01*
X223880D01*
X224350Y21183D01*
Y22123D02*Y21183D01*
X223880Y22593D02*X224350Y22123D01*
X222940Y22593D02*X223880D01*
X225478Y24473D02*Y20713D01*
Y24473D02*Y24003D01*
X227828Y21653D01*
Y24473D02*Y20713D01*
X229427Y24473D02*Y20713D01*
X230837Y24473D02*X231307Y24003D01*
Y21183D01*
X230837Y20713D02*X231307Y21183D01*
X228957Y20713D02*X230837D01*
X228957Y24473D02*X230837D01*
X147244Y40185D02*Y37525D01*
X147624Y37145D01*
X148384D01*
X148764Y37525D01*
Y40185D02*Y37525D01*
X150056Y40185D02*Y37145D01*
X149676Y40185D02*X151196D01*
X151576Y39805D01*
Y39045D01*
X151196Y38665D02*X151576Y39045D01*
X150056Y38665D02*X151196D01*
X152489Y37525D02*X154769Y39805D01*
X155682Y40185D02*Y39805D01*
X156442Y39045D01*
X157202Y39805D01*
Y40185D02*Y39805D01*
X156442Y39045D02*Y37145D01*
X158115Y38665D02*X159255D01*
X158115Y37145D02*X159635D01*
X158115Y40185D02*Y37145D01*
Y40185D02*X159635D01*
X162067D02*X162447Y39805D01*
X160927Y40185D02*X162067D01*
X160547Y39805D02*X160927Y40185D01*
X160547Y39805D02*Y39045D01*
X160927Y38665D01*
X162067D01*
X162447Y38285D01*
Y37525D01*
X162067Y37145D02*X162447Y37525D01*
X160927Y37145D02*X162067D01*
X160547Y37525D02*X160927Y37145D01*
X171640Y40578D02*Y37538D01*
X172780Y40578D02*X173160Y40198D01*
Y37918D01*
X172780Y37538D02*X173160Y37918D01*
X171260Y37538D02*X172780D01*
X171260Y40578D02*X172780D01*
X174072Y40198D02*Y37918D01*
Y40198D02*X174452Y40578D01*
X175212D01*
X175592Y40198D01*
Y37918D01*
X175212Y37538D02*X175592Y37918D01*
X174452Y37538D02*X175212D01*
X174072Y37918D02*X174452Y37538D01*
X176505Y40578D02*Y37538D01*
X177645Y38678D01*
X178785Y37538D01*
Y40578D02*Y37538D01*
X179698Y40578D02*Y37538D01*
Y40578D02*Y40198D01*
X181598Y38298D01*
Y40578D02*Y37538D01*
X182511Y37918D02*X184791Y40198D01*
X185703Y40578D02*Y37538D01*
Y40578D02*Y40198D01*
X187603Y38298D01*
Y40578D02*Y37538D01*
X188516Y40198D02*Y37918D01*
Y40198D02*X188896Y40578D01*
X189656D01*
X190036Y40198D01*
Y37918D01*
X189656Y37538D02*X190036Y37918D01*
X188896Y37538D02*X189656D01*
X188516Y37918D02*X188896Y37538D01*
G54D14*X60000Y39413D02*Y32413D01*
X72000D01*
Y39413D01*
X60000D01*
X61000D02*Y32413D01*
G54D61*X45500Y56413D02*X95500D01*
X45500D02*Y46413D01*
X95500D01*
Y56413D02*Y46413D01*
X85500Y56413D02*Y46413D01*
X95500D01*
G54D14*X89059Y20870D02*Y16146D01*
X81579Y20870D02*Y16146D01*
G54D61*X54146Y31225D02*Y7603D01*
X79980Y31225D02*Y7603D01*
X91100Y23513D02*Y9613D01*
X103900D01*
Y23513D01*
X91100D01*
X20434Y140519D02*Y119307D01*
X51566D01*
Y140519D01*
X20434D02*X33500D01*
X51566D02*X38500D01*
X33500D02*G75*G03X38500Y140519I2500J0D01*G01*
X6000Y98413D02*Y58413D01*
X16000D01*
Y98413D01*
X6000D01*
Y88413D02*X16000D01*
Y98413D01*
X17500D02*Y58413D01*
X27500D01*
Y98413D01*
X17500D01*
Y88413D02*X27500D01*
Y98413D01*
X23050Y112100D02*X32250D01*
X36050D02*X45350D01*
Y100300D01*
X23050D01*
Y112100D01*
X32250D02*G75*G03X36050Y112100I1900J0D01*G01*
G54D14*X39245Y93306D02*Y92520D01*
X44755Y93306D02*Y92520D01*
X58615Y113698D02*X94285D01*
Y75128D01*
X55715D01*
Y110798D01*
X58615Y113698D01*
X57615Y110798D02*G75*G03X57615Y110798I1000J0D01*G01*
G54D61*X74500Y129113D02*X88400D01*
Y140913D02*Y129113D01*
X74500Y140913D02*X88400D01*
X74500D02*Y129113D01*
G54D11*X49420Y13055D02*Y6055D01*
G54D61*Y13055D02*X46920Y14055D01*
X33820D02*X46920D01*
X33820D02*Y5055D01*
X46920D01*
X49420Y6055D01*
X35607Y29053D02*X49507D01*
X35607D02*Y17253D01*
X49507D01*
Y29053D02*Y17253D01*
G54D14*X28480Y16461D02*Y11737D01*
X21000Y16461D02*Y11737D01*
X41607Y41168D02*X42393D01*
X41607Y35658D02*X42393D01*
G54D11*X19000Y34413D02*X27000D01*
G54D61*X28100Y37813D01*
Y55413D02*Y37813D01*
X17900Y55413D02*X28100D01*
X17900D02*Y37813D01*
X19000Y34413D01*
X6000Y53413D02*Y23413D01*
X16000D01*
Y53413D01*
X6000D01*
Y43413D02*X16000D01*
Y53413D01*
X105600Y62613D02*Y76513D01*
Y62613D02*X118400D01*
Y76513D01*
X105600D02*X118400D01*
G54D14*X134138Y16263D02*Y15477D01*
X139648Y16263D02*Y15477D01*
G54D61*X107047Y33929D02*X130669D01*
X107047Y10307D02*X130669D01*
X107047Y33929D02*Y10307D01*
X130669Y33929D02*Y10307D01*
X98000Y47513D02*X111900D01*
Y60313D02*Y47513D01*
X98000Y60313D02*X111900D01*
X98000D02*Y47513D01*
X143047Y34429D02*X166669D01*
X143047Y10807D02*X166669D01*
X143047Y34429D02*Y10807D01*
X166669Y34429D02*Y10807D01*
X171500Y130913D02*Y111913D01*
X207500D01*
Y130913D02*Y111913D01*
X171500Y130913D02*X187000D01*
X192000D02*X207500D01*
X187000D02*G75*G03X192000Y130913I2500J0D01*G01*
G54D14*X187500Y110413D02*Y103413D01*
X199500D01*
Y110413D01*
X187500D01*
X188500D02*Y103413D01*
G54D61*X223000Y122913D02*Y82913D01*
X233000D01*
Y122913D01*
X223000D01*
Y112913D02*X233000D01*
Y122913D01*
G54D14*X204000Y110413D02*Y103413D01*
X216000D01*
Y110413D01*
X204000D01*
X205000D02*Y103413D01*
G54D61*X169047Y34429D02*X192669D01*
X169047Y10807D02*X192669D01*
X169047Y34429D02*Y10807D01*
X192669Y34429D02*Y10807D01*
X205000Y29413D02*Y9413D01*
X195000Y29413D02*X205000D01*
X195000D02*Y9413D01*
X205000D01*
X195000Y19413D02*X205000D01*
X195000D02*Y9413D01*
X217000Y29413D02*Y9413D01*
X207000Y29413D02*X217000D01*
X207000D02*Y9413D01*
X217000D01*
X207000Y19413D02*X217000D01*
X207000D02*Y9413D01*
X154000Y46413D02*X204000D01*
Y56413D02*Y46413D01*
X154000Y56413D02*X204000D01*
X154000D02*Y46413D01*
X164000Y56413D02*Y46413D01*
X154000Y56413D02*X164000D01*
X210500Y92913D02*Y62913D01*
X220500D01*
Y92913D01*
X210500D01*
Y82913D02*X220500D01*
Y92913D01*
X210500Y61413D02*Y31413D01*
X220500D01*
Y61413D01*
X210500D01*
Y51413D02*X220500D01*
Y61413D01*
X223000Y81413D02*Y41413D01*
X233000D01*
Y81413D01*
X223000D01*
Y71413D02*X233000D01*
Y81413D01*
G54D14*X132013Y110450D02*X167683D01*
Y71880D01*
X129113D01*
Y107550D01*
X132013Y110450D01*
X131013Y107550D02*G75*G03X131013Y107550I1000J0D01*G01*
G54D61*X124052Y121760D02*X168736D01*
X124052Y140066D02*Y121760D01*
Y140066D02*X168736D01*
Y121760D01*
G54D14*X115862Y94349D02*Y93563D01*
X110352Y94349D02*Y93563D01*
G54D60*X109180Y81837D02*Y78337D01*
X109680Y77837D01*
X110680D01*
X111180Y78337D01*
Y81837D02*Y78337D01*
X112381D02*X112881Y77837D01*
X112381Y79337D02*Y78337D01*
Y79337D02*X112881Y79837D01*
X113881D01*
X114381Y79337D01*
Y78337D01*
X113881Y77837D02*X114381Y78337D01*
X112881Y77837D02*X113881D01*
X112381Y80337D02*X112881Y79837D01*
X112381Y81337D02*Y80337D01*
Y81337D02*X112881Y81837D01*
X113881D01*
X114381Y81337D01*
Y80337D01*
X113881Y79837D02*X114381Y80337D01*
X104650Y108063D02*Y106563D01*
X105150Y108563D02*X104650Y108063D01*
X105150Y108563D02*X108150D01*
X108650Y108063D01*
Y106563D01*
X108150Y105362D02*X108650Y104862D01*
Y103862D01*
X108150Y103362D01*
X105150D02*X108150D01*
X104650Y103862D02*X105150Y103362D01*
X104650Y104862D02*Y103862D01*
X105150Y105362D02*X104650Y104862D01*
X106650D02*Y103362D01*
X104650Y101661D02*Y100661D01*
Y101161D02*X108650D01*
X107650Y102161D02*X108650Y101161D01*
X58350Y87063D02*X59850D01*
X57850Y87563D02*X58350Y87063D01*
X57850Y90563D02*Y87563D01*
Y90563D02*X58350Y91063D01*
X59850D01*
X61051Y89063D02*X63051Y91063D01*
X61051Y89063D02*X63551D01*
X63051Y91063D02*Y87063D01*
X64752Y90563D02*X65252Y91063D01*
X66752D01*
X67252Y90563D01*
Y89563D01*
X64752Y87063D02*X67252Y89563D01*
X64752Y87063D02*X67252D01*
X45500Y117913D02*Y114413D01*
X46000Y113913D01*
X47000D01*
X47500Y114413D01*
Y117913D02*Y114413D01*
X48701Y117413D02*X49201Y117913D01*
X50201D01*
X50701Y117413D01*
Y114413D01*
X50201Y113913D02*X50701Y114413D01*
X49201Y113913D02*X50201D01*
X48701Y114413D02*X49201Y113913D01*
Y115913D02*X50701D01*
X57752Y122815D02*Y120815D01*
X57252Y120315D01*
X56252D02*X57252D01*
X55752Y120815D02*X56252Y120315D01*
X55752Y122315D02*Y120815D01*
X53752Y122315D02*X57752D01*
X55752D02*X53752Y120315D01*
X57752Y119114D02*Y117114D01*
X55752Y119114D02*X57752D01*
X55752D02*X56252Y118614D01*
Y117614D01*
X55752Y117114D01*
X54252D02*X55752D01*
X53752Y117614D02*X54252Y117114D01*
X53752Y118614D02*Y117614D01*
X54252Y119114D02*X53752Y118614D01*
X57252Y115913D02*X57752Y115413D01*
Y113913D01*
X57252Y113413D01*
X56252D02*X57252D01*
X53752Y115913D02*X56252Y113413D01*
X53752Y115913D02*Y113413D01*
X65409Y136555D02*X66909D01*
X64909Y137055D02*X65409Y136555D01*
X64909Y140055D02*Y137055D01*
Y140055D02*X65409Y140555D01*
X66909D01*
X68110Y140055D02*X68610Y140555D01*
X69610D01*
X70110Y140055D01*
Y137055D01*
X69610Y136555D02*X70110Y137055D01*
X68610Y136555D02*X69610D01*
X68110Y137055D02*X68610Y136555D01*
Y138555D02*X70110D01*
X71311Y136555D02*X73311Y138555D01*
Y140055D02*Y138555D01*
X72811Y140555D02*X73311Y140055D01*
X71811Y140555D02*X72811D01*
X71311Y140055D02*X71811Y140555D01*
X71311Y140055D02*Y139055D01*
X71811Y138555D01*
X73311D01*
X68150Y133563D02*Y131563D01*
X67650Y131063D01*
X66650D02*X67650D01*
X66150Y131563D02*X66650Y131063D01*
X66150Y133063D02*Y131563D01*
X64150Y133063D02*X68150D01*
X66150D02*X64150Y131063D01*
X68150Y129862D02*Y127862D01*
X66150Y129862D02*X68150D01*
X66150D02*X66650Y129362D01*
Y128362D01*
X66150Y127862D01*
X64650D02*X66150D01*
X64150Y128362D02*X64650Y127862D01*
X64150Y129362D02*Y128362D01*
X64650Y129862D02*X64150Y129362D01*
X67650Y126661D02*X68150Y126161D01*
Y125161D01*
X67650Y124661D01*
X64650D02*X67650D01*
X64150Y125161D02*X64650Y124661D01*
X64150Y126161D02*Y125161D01*
X64650Y126661D02*X64150Y126161D01*
X66150D02*Y124661D01*
X95642Y138488D02*Y136988D01*
X96142Y138988D02*X95642Y138488D01*
X96142Y138988D02*X99142D01*
X99642Y138488D01*
Y136988D01*
X99142Y135787D02*X99642Y135287D01*
Y134287D01*
X99142Y133787D01*
X96142D02*X99142D01*
X95642Y134287D02*X96142Y133787D01*
X95642Y135287D02*Y134287D01*
X96142Y135787D02*X95642Y135287D01*
X97642D02*Y133787D01*
X95642Y132586D02*X98142Y130086D01*
X99642D01*
Y132586D02*Y130086D01*
X70000Y134413D02*X73500D01*
X70000D02*X69500Y133913D01*
Y132913D01*
X70000Y132413D01*
X73500D01*
X71500Y131212D02*X73500Y129212D01*
X71500Y131212D02*Y128712D01*
X69500Y129212D02*X73500D01*
X93850Y124563D02*X95350D01*
X93350Y125063D02*X93850Y124563D01*
X93350Y128063D02*Y125063D01*
Y128063D02*X93850Y128563D01*
X95350D01*
X96551Y128063D02*X97051Y128563D01*
X98051D01*
X98551Y128063D01*
Y125063D01*
X98051Y124563D02*X98551Y125063D01*
X97051Y124563D02*X98051D01*
X96551Y125063D02*X97051Y124563D01*
Y126563D02*X98551D01*
X99752Y125063D02*X100252Y124563D01*
X99752Y126063D02*Y125063D01*
Y126063D02*X100252Y126563D01*
X101252D01*
X101752Y126063D01*
Y125063D01*
X101252Y124563D02*X101752Y125063D01*
X100252Y124563D02*X101252D01*
X99752Y127063D02*X100252Y126563D01*
X99752Y128063D02*Y127063D01*
Y128063D02*X100252Y128563D01*
X101252D01*
X101752Y128063D01*
Y127063D01*
X101252Y126563D02*X101752Y127063D01*
X93850Y119063D02*X95350D01*
X93350Y119563D02*X93850Y119063D01*
X93350Y122563D02*Y119563D01*
Y122563D02*X93850Y123063D01*
X95350D01*
X96551Y122563D02*X97051Y123063D01*
X98051D01*
X98551Y122563D01*
Y119563D01*
X98051Y119063D02*X98551Y119563D01*
X97051Y119063D02*X98051D01*
X96551Y119563D02*X97051Y119063D01*
Y121063D02*X98551D01*
X99752Y122563D02*X100252Y123063D01*
X101752D01*
X102252Y122563D01*
Y121563D01*
X99752Y119063D02*X102252Y121563D01*
X99752Y119063D02*X102252D01*
X93500Y117913D02*Y114413D01*
X94000Y113913D01*
X95000D01*
X95500Y114413D01*
Y117913D02*Y114413D01*
X97201Y113913D02*X98201D01*
X97701Y117913D02*Y113913D01*
X96701Y116913D02*X97701Y117913D01*
X111257Y108106D02*Y106606D01*
X111757Y108606D02*X111257Y108106D01*
X111757Y108606D02*X114757D01*
X115257Y108106D01*
Y106606D01*
X111257Y104905D02*Y103905D01*
Y104405D02*X115257D01*
X114257Y105405D02*X115257Y104405D01*
X111257Y102704D02*X113257Y100704D01*
X114757D01*
X115257Y101204D02*X114757Y100704D01*
X115257Y102204D02*Y101204D01*
X114757Y102704D02*X115257Y102204D01*
X113757Y102704D02*X114757D01*
X113757D02*X113257Y102204D01*
Y100704D01*
X1000Y96913D02*Y95413D01*
X1500Y97413D02*X1000Y96913D01*
X1500Y97413D02*X4500D01*
X5000Y96913D01*
Y95413D01*
X1000Y94212D02*X5000D01*
X4500D02*X5000D01*
X4500D02*X2000Y91712D01*
X1000D02*X5000D01*
X4500Y90511D02*X5000Y90011D01*
Y89011D01*
X4500Y88511D01*
X1500D02*X4500D01*
X1000Y89011D02*X1500Y88511D01*
X1000Y90011D02*Y89011D01*
X1500Y90511D02*X1000Y90011D01*
X3000D02*Y88511D01*
X6158Y111504D02*Y110004D01*
X6658Y112004D02*X6158Y111504D01*
X6658Y112004D02*X9658D01*
X10158Y111504D01*
Y110004D01*
X9658Y108803D02*X10158Y108303D01*
Y107303D01*
X9658Y106803D01*
X6658D02*X9658D01*
X6158Y107303D02*X6658Y106803D01*
X6158Y108303D02*Y107303D01*
X6658Y108803D02*X6158Y108303D01*
X8158D02*Y106803D01*
X10158Y105602D02*Y103602D01*
X8158Y105602D02*X10158D01*
X8158D02*X8658Y105102D01*
Y104102D01*
X8158Y103602D01*
X6658D02*X8158D01*
X6158Y104102D02*X6658Y103602D01*
X6158Y105102D02*Y104102D01*
X6658Y105602D02*X6158Y105102D01*
X1150Y111563D02*Y110063D01*
X1650Y112063D02*X1150Y111563D01*
X1650Y112063D02*X4650D01*
X5150Y111563D01*
Y110063D01*
X4650Y108862D02*X5150Y108362D01*
Y107362D01*
X4650Y106862D01*
X1650D02*X4650D01*
X1150Y107362D02*X1650Y106862D01*
X1150Y108362D02*Y107362D01*
X1650Y108862D02*X1150Y108362D01*
X3150D02*Y106862D01*
X5150Y104161D02*X4650Y103661D01*
X5150Y105161D02*Y104161D01*
X4650Y105661D02*X5150Y105161D01*
X1650Y105661D02*X4650D01*
X1650D02*X1150Y105161D01*
X3150Y104161D02*X2650Y103661D01*
X3150Y105661D02*Y104161D01*
X1150Y105161D02*Y104161D01*
X1650Y103661D01*
X2650D01*
X14376Y102988D02*Y99488D01*
X14876Y98988D01*
X15876D01*
X16376Y99488D01*
Y102988D02*Y99488D01*
X17577Y102488D02*X18077Y102988D01*
X19577D01*
X20077Y102488D01*
Y101488D01*
X17577Y98988D02*X20077Y101488D01*
X17577Y98988D02*X20077D01*
X10791Y118571D02*X12291D01*
X10291Y119071D02*X10791Y118571D01*
X10291Y122071D02*Y119071D01*
Y122071D02*X10791Y122571D01*
X12291D01*
X13492Y122071D02*X13992Y122571D01*
X14992D01*
X15492Y122071D01*
Y119071D01*
X14992Y118571D02*X15492Y119071D01*
X13992Y118571D02*X14992D01*
X13492Y119071D02*X13992Y118571D01*
Y120571D02*X15492D01*
X16693D02*X18693Y122571D01*
X16693Y120571D02*X19193D01*
X18693Y122571D02*Y118571D01*
X33850Y118063D02*X35850D01*
X36350Y117563D01*
Y116563D01*
X35850Y116063D02*X36350Y116563D01*
X34350Y116063D02*X35850D01*
X34350Y118063D02*Y114063D01*
Y116063D02*X36350Y114063D01*
X37551Y118063D02*X39551D01*
X37551D02*Y116063D01*
X38051Y116563D01*
X39051D01*
X39551Y116063D01*
Y114563D01*
X39051Y114063D02*X39551Y114563D01*
X38051Y114063D02*X39051D01*
X37551Y114563D02*X38051Y114063D01*
X41252D02*X42252D01*
X41752Y118063D02*Y114063D01*
X40752Y117063D02*X41752Y118063D01*
X32150Y100563D02*Y98563D01*
X31650Y98063D01*
X30650D02*X31650D01*
X30150Y98563D02*X30650Y98063D01*
X30150Y100063D02*Y98563D01*
X28150Y100063D02*X32150D01*
X30150D02*X28150Y98063D01*
X32150Y96862D02*Y94862D01*
X30150Y96862D02*X32150D01*
X30150D02*X30650Y96362D01*
Y95362D01*
X30150Y94862D01*
X28650D02*X30150D01*
X28150Y95362D02*X28650Y94862D01*
X28150Y96362D02*Y95362D01*
X28650Y96862D02*X28150Y96362D01*
X28650Y93661D02*X28150Y93161D01*
X28650Y93661D02*X31650D01*
X32150Y93161D01*
Y92161D01*
X31650Y91661D01*
X28650D02*X31650D01*
X28150Y92161D02*X28650Y91661D01*
X28150Y93161D02*Y92161D01*
X29150Y93661D02*X31150Y91661D01*
X28850Y90063D02*X30850D01*
X31350Y89563D01*
Y88563D01*
X30850Y88063D02*X31350Y88563D01*
X29350Y88063D02*X30850D01*
X29350Y90063D02*Y86063D01*
Y88063D02*X31350Y86063D01*
X32551Y90063D02*X34551D01*
X32551D02*Y88063D01*
X33051Y88563D01*
X34051D01*
X34551Y88063D01*
Y86563D01*
X34051Y86063D02*X34551Y86563D01*
X33051Y86063D02*X34051D01*
X32551Y86563D02*X33051Y86063D01*
X37252Y90063D02*X37752Y89563D01*
X36252Y90063D02*X37252D01*
X35752Y89563D02*X36252Y90063D01*
X35752Y89563D02*Y86563D01*
X36252Y86063D01*
X37252Y88063D02*X37752Y87563D01*
X35752Y88063D02*X37252D01*
X36252Y86063D02*X37252D01*
X37752Y86563D01*
Y87563D02*Y86563D01*
X220098Y132091D02*Y130091D01*
X219598Y129591D01*
X218598D02*X219598D01*
X218098Y130091D02*X218598Y129591D01*
X218098Y131591D02*Y130091D01*
X216098Y131591D02*X220098D01*
X218098D02*X216098Y129591D01*
X219598Y128390D02*X220098Y127890D01*
Y126390D01*
X219598Y125890D01*
X218598D02*X219598D01*
X216098Y128390D02*X218598Y125890D01*
X216098Y128390D02*Y125890D01*
Y124689D02*X218098Y122689D01*
X219598D01*
X220098Y123189D02*X219598Y122689D01*
X220098Y124189D02*Y123189D01*
X219598Y124689D02*X220098Y124189D01*
X218598Y124689D02*X219598D01*
X218598D02*X218098Y124189D01*
Y122689D01*
X206850Y141063D02*X208850D01*
X209350Y140563D01*
Y139563D01*
X208850Y139063D02*X209350Y139563D01*
X207350Y139063D02*X208850D01*
X207350Y141063D02*Y137063D01*
Y139063D02*X209350Y137063D01*
X210551Y141063D02*X212551D01*
X210551D02*Y139063D01*
X211051Y139563D01*
X212051D01*
X212551Y139063D01*
Y137563D01*
X212051Y137063D02*X212551Y137563D01*
X211051Y137063D02*X212051D01*
X210551Y137563D02*X211051Y137063D01*
X213752D02*X216252Y139563D01*
Y141063D02*Y139563D01*
X213752Y141063D02*X216252D01*
X187500Y126413D02*Y122913D01*
X188000Y122413D01*
X189000D01*
X189500Y122913D01*
Y126413D02*Y122913D01*
X190701Y122413D02*X193201Y124913D01*
Y126413D02*Y124913D01*
X190701Y126413D02*X193201D01*
X186500Y102413D02*Y98413D01*
X188500D01*
X189701Y100413D02*X191201D01*
X189701Y98413D02*X191701D01*
X189701Y102413D02*Y98413D01*
Y102413D02*X191701D01*
X193402D02*Y98413D01*
X194902Y102413D02*X195402Y101913D01*
Y98913D01*
X194902Y98413D02*X195402Y98913D01*
X192902Y98413D02*X194902D01*
X192902Y102413D02*X194902D01*
X196603Y101913D02*X197103Y102413D01*
X198103D01*
X198603Y101913D01*
Y98913D01*
X198103Y98413D02*X198603Y98913D01*
X197103Y98413D02*X198103D01*
X196603Y98913D02*X197103Y98413D01*
Y100413D02*X198603D01*
X209500Y125413D02*X213500D01*
X209500D02*Y123413D01*
X211500Y122212D02*Y120712D01*
X209500Y122212D02*Y120212D01*
Y122212D02*X213500D01*
Y120212D01*
X209500Y118511D02*X213500D01*
Y117011D02*X213000Y116511D01*
X210000D02*X213000D01*
X209500Y117011D02*X210000Y116511D01*
X209500Y119011D02*Y117011D01*
X213500Y119011D02*Y117011D01*
X213000Y115310D02*X213500Y114810D01*
Y113310D01*
X213000Y112810D01*
X212000D02*X213000D01*
X209500Y115310D02*X212000Y112810D01*
X209500Y115310D02*Y112810D01*
X188350Y88563D02*X190350D01*
X190850Y88063D01*
Y87063D01*
X190350Y86563D02*X190850Y87063D01*
X188850Y86563D02*X190350D01*
X188850Y88563D02*Y84563D01*
Y86563D02*X190850Y84563D01*
X192551D02*X193551D01*
X193051Y88563D02*Y84563D01*
X192051Y87563D02*X193051Y88563D01*
X194752Y84563D02*X197252Y87063D01*
Y88563D02*Y87063D01*
X194752Y88563D02*X197252D01*
X177205Y92401D02*Y90901D01*
X177705Y92901D02*X177205Y92401D01*
X177705Y92901D02*X180705D01*
X181205Y92401D01*
Y90901D01*
X180705Y89700D02*X181205Y89200D01*
Y87700D01*
X180705Y87200D01*
X179705D02*X180705D01*
X177205Y89700D02*X179705Y87200D01*
X177205Y89700D02*Y87200D01*
X180705Y85999D02*X181205Y85499D01*
Y83999D01*
X180705Y83499D01*
X179705D02*X180705D01*
X177205Y85999D02*X179705Y83499D01*
X177205Y85999D02*Y83499D01*
X212123Y93771D02*X213623D01*
X211623Y94271D02*X212123Y93771D01*
X211623Y97271D02*Y94271D01*
Y97271D02*X212123Y97771D01*
X213623D01*
X214824D02*Y93771D01*
Y97771D02*Y97271D01*
X217324Y94771D01*
Y97771D02*Y93771D01*
X218525Y97771D02*X220525D01*
X218525D02*Y95771D01*
X219025Y96271D01*
X220025D01*
X220525Y95771D01*
Y94271D01*
X220025Y93771D02*X220525Y94271D01*
X219025Y93771D02*X220025D01*
X218525Y94271D02*X219025Y93771D01*
X234002Y80520D02*Y79020D01*
X234502Y81020D02*X234002Y80520D01*
X234502Y81020D02*X237502D01*
X238002Y80520D01*
Y79020D01*
X234002Y77819D02*X238002D01*
X237502D02*X238002D01*
X237502D02*X235002Y75319D01*
X234002D02*X238002D01*
X234502Y74118D02*X234002Y73618D01*
X234502Y74118D02*X235502D01*
X236002Y73618D01*
Y72618D01*
X235502Y72118D01*
X234502D02*X235502D01*
X234002Y72618D02*X234502Y72118D01*
X234002Y73618D02*Y72618D01*
X236502Y74118D02*X236002Y73618D01*
X236502Y74118D02*X237502D01*
X238002Y73618D01*
Y72618D01*
X237502Y72118D01*
X236502D02*X237502D01*
X236002Y72618D02*X236502Y72118D01*
X234046Y91571D02*Y90071D01*
X234546Y92071D02*X234046Y91571D01*
X234546Y92071D02*X237546D01*
X238046Y91571D01*
Y90071D01*
X234046Y88870D02*X238046D01*
X237546D02*X238046D01*
X237546D02*X235046Y86370D01*
X234046D02*X238046D01*
X234046Y85169D02*X236046Y83169D01*
X237546D01*
X238046Y83669D02*X237546Y83169D01*
X238046Y84669D02*Y83669D01*
X237546Y85169D02*X238046Y84669D01*
X236546Y85169D02*X237546D01*
X236546D02*X236046Y84669D01*
Y83169D01*
X185291Y133055D02*X186791D01*
X184791Y133555D02*X185291Y133055D01*
X184791Y136555D02*Y133555D01*
Y136555D02*X185291Y137055D01*
X186791D01*
X187992Y136555D02*X188492Y137055D01*
X189992D01*
X190492Y136555D01*
Y135555D01*
X187992Y133055D02*X190492Y135555D01*
X187992Y133055D02*X190492D01*
X191693Y135055D02*X193693Y137055D01*
X191693Y135055D02*X194193D01*
X193693Y137055D02*Y133055D01*
X200350Y88563D02*X202350D01*
X202850Y88063D01*
Y87063D01*
X202350Y86563D02*X202850Y87063D01*
X200850Y86563D02*X202350D01*
X200850Y88563D02*Y84563D01*
Y86563D02*X202850Y84563D01*
X204551D02*X205551D01*
X205051Y88563D02*Y84563D01*
X204051Y87563D02*X205051Y88563D01*
X208252D02*X208752Y88063D01*
X207252Y88563D02*X208252D01*
X206752Y88063D02*X207252Y88563D01*
X206752Y88063D02*Y85063D01*
X207252Y84563D01*
X208252Y86563D02*X208752Y86063D01*
X206752Y86563D02*X208252D01*
X207252Y84563D02*X208252D01*
X208752Y85063D01*
Y86063D02*Y85063D01*
X188322Y68511D02*X190322D01*
X190822Y68011D01*
Y67011D01*
X190322Y66511D02*X190822Y67011D01*
X188822Y66511D02*X190322D01*
X188822Y68511D02*Y64511D01*
Y66511D02*X190822Y64511D01*
X192023Y68011D02*X192523Y68511D01*
X194023D01*
X194523Y68011D01*
Y67011D01*
X192023Y64511D02*X194523Y67011D01*
X192023Y64511D02*X194523D01*
X196224D02*X197224D01*
X196724Y68511D02*Y64511D01*
X195724Y67511D02*X196724Y68511D01*
X180638Y75228D02*Y73228D01*
X180138Y72728D01*
X179138D02*X180138D01*
X178638Y73228D02*X179138Y72728D01*
X178638Y74728D02*Y73228D01*
X176638Y74728D02*X180638D01*
X178638D02*X176638Y72728D01*
X180138Y71527D02*X180638Y71027D01*
Y69527D01*
X180138Y69027D01*
X179138D02*X180138D01*
X176638Y71527D02*X179138Y69027D01*
X176638Y71527D02*Y69027D01*
X180138Y67826D02*X180638Y67326D01*
Y65826D01*
X180138Y65326D01*
X179138D02*X180138D01*
X176638Y67826D02*X179138Y65326D01*
X176638Y67826D02*Y65326D01*
X200350Y78563D02*X202350D01*
X202850Y78063D01*
Y77063D01*
X202350Y76563D02*X202850Y77063D01*
X200850Y76563D02*X202350D01*
X200850Y78563D02*Y74563D01*
Y76563D02*X202850Y74563D01*
X204551D02*X205551D01*
X205051Y78563D02*Y74563D01*
X204051Y77563D02*X205051Y78563D01*
X206752Y75063D02*X207252Y74563D01*
X206752Y76063D02*Y75063D01*
Y76063D02*X207252Y76563D01*
X208252D01*
X208752Y76063D01*
Y75063D01*
X208252Y74563D02*X208752Y75063D01*
X207252Y74563D02*X208252D01*
X206752Y77063D02*X207252Y76563D01*
X206752Y78063D02*Y77063D01*
Y78063D02*X207252Y78563D01*
X208252D01*
X208752Y78063D01*
Y77063D01*
X208252Y76563D02*X208752Y77063D01*
X154500Y57413D02*X156000D01*
X154000Y57913D02*X154500Y57413D01*
X154000Y60913D02*Y57913D01*
Y60913D02*X154500Y61413D01*
X156000D01*
X157201D02*Y57413D01*
Y61413D02*Y60913D01*
X159701Y58413D01*
Y61413D02*Y57413D01*
X160902Y59413D02*X162902Y61413D01*
X160902Y59413D02*X163402D01*
X162902Y61413D02*Y57413D01*
X188850Y78563D02*X190850D01*
X191350Y78063D01*
Y77063D01*
X190850Y76563D02*X191350Y77063D01*
X189350Y76563D02*X190850D01*
X189350Y78563D02*Y74563D01*
Y76563D02*X191350Y74563D01*
X192551Y78063D02*X193051Y78563D01*
X194551D01*
X195051Y78063D01*
Y77063D01*
X192551Y74563D02*X195051Y77063D01*
X192551Y74563D02*X195051D01*
X196252Y75063D02*X196752Y74563D01*
X196252Y78063D02*Y75063D01*
Y78063D02*X196752Y78563D01*
X197752D01*
X198252Y78063D01*
Y75063D01*
X197752Y74563D02*X198252Y75063D01*
X196752Y74563D02*X197752D01*
X196252Y75563D02*X198252Y77563D01*
X200350Y68563D02*X202350D01*
X202850Y68063D01*
Y67063D01*
X202350Y66563D02*X202850Y67063D01*
X200850Y66563D02*X202350D01*
X200850Y68563D02*Y64563D01*
Y66563D02*X202850Y64563D01*
X204551D02*X205551D01*
X205051Y68563D02*Y64563D01*
X204051Y67563D02*X205051Y68563D01*
X206752Y64563D02*X208752Y66563D01*
Y68063D02*Y66563D01*
X208252Y68563D02*X208752Y68063D01*
X207252Y68563D02*X208252D01*
X206752Y68063D02*X207252Y68563D01*
X206752Y68063D02*Y67063D01*
X207252Y66563D01*
X208752D01*
X122776Y72543D02*Y69043D01*
X123276Y68543D01*
X124276D01*
X124776Y69043D01*
Y72543D02*Y69043D01*
X127477Y72543D02*X127977Y72043D01*
X126477Y72543D02*X127477D01*
X125977Y72043D02*X126477Y72543D01*
X125977Y72043D02*Y69043D01*
X126477Y68543D01*
X127477Y70543D02*X127977Y70043D01*
X125977Y70543D02*X127477D01*
X126477Y68543D02*X127477D01*
X127977Y69043D01*
Y70043D02*Y69043D01*
X114350Y122563D02*X116350D01*
X116850Y122063D01*
Y121063D01*
X116350Y120563D02*X116850Y121063D01*
X114850Y120563D02*X116350D01*
X114850Y122563D02*Y118563D01*
Y120563D02*X116850Y118563D01*
X118051Y122063D02*X118551Y122563D01*
X120051D01*
X120551Y122063D01*
Y121063D01*
X118051Y118563D02*X120551Y121063D01*
X118051Y118563D02*X120551D01*
X123252Y122563D02*X123752Y122063D01*
X122252Y122563D02*X123252D01*
X121752Y122063D02*X122252Y122563D01*
X121752Y122063D02*Y119063D01*
X122252Y118563D01*
X123252Y120563D02*X123752Y120063D01*
X121752Y120563D02*X123252D01*
X122252Y118563D02*X123252D01*
X123752Y119063D01*
Y120063D02*Y119063D01*
X114350Y117063D02*X116350D01*
X116850Y116563D01*
Y115563D01*
X116350Y115063D02*X116850Y115563D01*
X114850Y115063D02*X116350D01*
X114850Y117063D02*Y113063D01*
Y115063D02*X116850Y113063D01*
X118051Y116563D02*X118551Y117063D01*
X120051D01*
X120551Y116563D01*
Y115563D01*
X118051Y113063D02*X120551Y115563D01*
X118051Y113063D02*X120551D01*
X121752Y117063D02*X123752D01*
X121752D02*Y115063D01*
X122252Y115563D01*
X123252D01*
X123752Y115063D01*
Y113563D01*
X123252Y113063D02*X123752Y113563D01*
X122252Y113063D02*X123252D01*
X121752Y113563D02*X122252Y113063D01*
X143340Y133066D02*Y132566D01*
X145840Y130066D01*
Y129066D01*
X143340Y130066D02*Y129066D01*
Y130066D02*X145840Y132566D01*
Y133066D02*Y132566D01*
X147541Y129066D02*X148541D01*
X148041Y133066D02*Y129066D01*
X147041Y132066D02*X148041Y133066D01*
X131791Y58071D02*X133291D01*
X131291Y58571D02*X131791Y58071D01*
X131291Y61571D02*Y58571D01*
Y61571D02*X131791Y62071D01*
X133291D01*
X134492Y61571D02*X134992Y62071D01*
X136492D01*
X136992Y61571D01*
Y60571D01*
X134492Y58071D02*X136992Y60571D01*
X134492Y58071D02*X136992D01*
X138193Y62071D02*X140193D01*
X138193D02*Y60071D01*
X138693Y60571D01*
X139693D01*
X140193Y60071D01*
Y58571D01*
X139693Y58071D02*X140193Y58571D01*
X138693Y58071D02*X139693D01*
X138193Y58571D02*X138693Y58071D01*
X113291Y5071D02*X115291D01*
X115791Y4571D01*
Y3571D01*
X115291Y3071D02*X115791Y3571D01*
X113791Y3071D02*X115291D01*
X113791Y5071D02*Y1071D01*
Y3071D02*X115791Y1071D01*
X116992Y4571D02*X117492Y5071D01*
X118492D01*
X118992Y4571D01*
Y1571D01*
X118492Y1071D02*X118992Y1571D01*
X117492Y1071D02*X118492D01*
X116992Y1571D02*X117492Y1071D01*
Y3071D02*X118992D01*
X121693Y5071D02*X122193Y4571D01*
X120693Y5071D02*X121693D01*
X120193Y4571D02*X120693Y5071D01*
X120193Y4571D02*Y1571D01*
X120693Y1071D01*
X121693Y3071D02*X122193Y2571D01*
X120193Y3071D02*X121693D01*
X120693Y1071D02*X121693D01*
X122193Y1571D01*
Y2571D02*Y1571D01*
X131350Y8063D02*Y4063D01*
X130850Y8063D02*X132850D01*
X133350Y7563D01*
Y6563D01*
X132850Y6063D02*X133350Y6563D01*
X131350Y6063D02*X132850D01*
X134551Y8063D02*X136551D01*
X135551D02*Y4063D01*
X138252D02*X139752D01*
X137752Y4563D02*X138252Y4063D01*
X137752Y7563D02*Y4563D01*
Y7563D02*X138252Y8063D01*
X139752D01*
X140953Y7563D02*X141453Y8063D01*
X142953D01*
X143453Y7563D01*
Y6563D01*
X140953Y4063D02*X143453Y6563D01*
X140953Y4063D02*X143453D01*
X135634Y56563D02*Y55063D01*
X136134Y57063D02*X135634Y56563D01*
X136134Y57063D02*X139134D01*
X139634Y56563D01*
Y55063D01*
X139134Y53862D02*X139634Y53362D01*
Y51862D01*
X139134Y51362D01*
X138134D02*X139134D01*
X135634Y53862D02*X138134Y51362D01*
X135634Y53862D02*Y51362D01*
X139134Y50161D02*X139634Y49661D01*
Y48661D01*
X139134Y48161D01*
X136134D02*X139134D01*
X135634Y48661D02*X136134Y48161D01*
X135634Y49661D02*Y48661D01*
X136134Y50161D02*X135634Y49661D01*
X137634D02*Y48161D01*
X127409Y43071D02*X129409D01*
X129909Y42571D01*
Y41571D01*
X129409Y41071D02*X129909Y41571D01*
X127909Y41071D02*X129409D01*
X127909Y43071D02*Y39071D01*
Y41071D02*X129909Y39071D01*
X131110Y42571D02*X131610Y43071D01*
X132610D01*
X133110Y42571D01*
Y39571D01*
X132610Y39071D02*X133110Y39571D01*
X131610Y39071D02*X132610D01*
X131110Y39571D02*X131610Y39071D01*
Y41071D02*X133110D01*
X134311Y43071D02*X136311D01*
X134311D02*Y41071D01*
X134811Y41571D01*
X135811D01*
X136311Y41071D01*
Y39571D01*
X135811Y39071D02*X136311Y39571D01*
X134811Y39071D02*X135811D01*
X134311Y39571D02*X134811Y39071D01*
X139850Y47063D02*X141850D01*
X142350Y46563D01*
Y45563D01*
X141850Y45063D02*X142350Y45563D01*
X140350Y45063D02*X141850D01*
X140350Y47063D02*Y43063D01*
Y45063D02*X142350Y43063D01*
X143551Y46563D02*X144051Y47063D01*
X145051D01*
X145551Y46563D01*
Y43563D01*
X145051Y43063D02*X145551Y43563D01*
X144051Y43063D02*X145051D01*
X143551Y43563D02*X144051Y43063D01*
Y45063D02*X145551D01*
X146752Y46563D02*X147252Y47063D01*
X148252D01*
X148752Y46563D01*
Y43563D01*
X148252Y43063D02*X148752Y43563D01*
X147252Y43063D02*X148252D01*
X146752Y43563D02*X147252Y43063D01*
Y45063D02*X148752D01*
X122850Y52563D02*X124850D01*
X125350Y52063D01*
Y51063D01*
X124850Y50563D02*X125350Y51063D01*
X123350Y50563D02*X124850D01*
X123350Y52563D02*Y48563D01*
Y50563D02*X125350Y48563D01*
X126551Y52063D02*X127051Y52563D01*
X128051D01*
X128551Y52063D01*
Y49063D01*
X128051Y48563D02*X128551Y49063D01*
X127051Y48563D02*X128051D01*
X126551Y49063D02*X127051Y48563D01*
Y50563D02*X128551D01*
X129752D02*X131752Y52563D01*
X129752Y50563D02*X132252D01*
X131752Y52563D02*Y48563D01*
X122850Y58563D02*X124850D01*
X125350Y58063D01*
Y57063D01*
X124850Y56563D02*X125350Y57063D01*
X123350Y56563D02*X124850D01*
X123350Y58563D02*Y54563D01*
Y56563D02*X125350Y54563D01*
X126551Y56563D02*X128551Y58563D01*
X126551Y56563D02*X129051D01*
X128551Y58563D02*Y54563D01*
X130252Y58063D02*X130752Y58563D01*
X131752D01*
X132252Y58063D01*
Y55063D01*
X131752Y54563D02*X132252Y55063D01*
X130752Y54563D02*X131752D01*
X130252Y55063D02*X130752Y54563D01*
Y56563D02*X132252D01*
X131850Y28263D02*Y26263D01*
Y28263D02*X132350Y28763D01*
X133350D01*
X133850Y28263D02*X133350Y28763D01*
X133850Y28263D02*Y26763D01*
X131850D02*X135850D01*
X133850D02*X135850Y28763D01*
X132350Y29964D02*X131850Y30464D01*
Y31464D02*Y30464D01*
Y31464D02*X132350Y31964D01*
X135350D01*
X135850Y31464D02*X135350Y31964D01*
X135850Y31464D02*Y30464D01*
X135350Y29964D02*X135850Y30464D01*
X133850Y31964D02*Y30464D01*
X135850Y33165D02*X133850Y35165D01*
X132350D02*X133850D01*
X131850Y34665D02*X132350Y35165D01*
X131850Y34665D02*Y33665D01*
X132350Y33165D02*X131850Y33665D01*
X132350Y33165D02*X133350D01*
X133850Y33665D01*
Y35165D02*Y33665D01*
X118102Y24268D02*X118602Y23768D01*
X116602Y24268D02*X118102D01*
X116102Y23768D02*X116602Y24268D01*
X116102Y23768D02*Y22768D01*
X116602Y22268D01*
X118102D01*
X118602Y21768D01*
Y20768D01*
X118102Y20268D02*X118602Y20768D01*
X116602Y20268D02*X118102D01*
X116102Y20768D02*X116602Y20268D01*
X120303D02*X121303D01*
X120803Y24268D02*Y20268D01*
X119803Y23268D02*X120803Y24268D01*
X113350Y44563D02*X115350D01*
X115850Y44063D01*
Y43063D01*
X115350Y42563D02*X115850Y43063D01*
X113850Y42563D02*X115350D01*
X113850Y44563D02*Y40563D01*
Y42563D02*X115850Y40563D01*
X117051Y42563D02*X119051Y44563D01*
X117051Y42563D02*X119551D01*
X119051Y44563D02*Y40563D01*
X120752Y44063D02*X121252Y44563D01*
X122752D01*
X123252Y44063D01*
Y43063D01*
X120752Y40563D02*X123252Y43063D01*
X120752Y40563D02*X123252D01*
X46409Y56071D02*X47909D01*
X45909Y56571D02*X46409Y56071D01*
X45909Y59571D02*Y56571D01*
Y59571D02*X46409Y60071D01*
X47909D01*
X49110Y58071D02*X51110Y60071D01*
X49110Y58071D02*X51610D01*
X51110Y60071D02*Y56071D01*
X53311D02*X54311D01*
X53811Y60071D02*Y56071D01*
X52811Y59071D02*X53811Y60071D01*
X30100Y54113D02*Y50113D01*
X31600Y54113D02*X32100Y53613D01*
Y50613D01*
X31600Y50113D02*X32100Y50613D01*
X29600Y50113D02*X31600D01*
X29600Y54113D02*X31600D01*
X33301Y53613D02*X33801Y54113D01*
X35301D01*
X35801Y53613D01*
Y52613D01*
X33301Y50113D02*X35801Y52613D01*
X33301Y50113D02*X35801D01*
X45350Y65063D02*X47350D01*
X47850Y64563D01*
Y63563D01*
X47350Y63063D02*X47850Y63563D01*
X45850Y63063D02*X47350D01*
X45850Y65063D02*Y61063D01*
Y63063D02*X47850Y61063D01*
X49051Y63063D02*X51051Y65063D01*
X49051Y63063D02*X51551D01*
X51051Y65063D02*Y61063D01*
X52752Y61563D02*X53252Y61063D01*
X52752Y62563D02*Y61563D01*
Y62563D02*X53252Y63063D01*
X54252D01*
X54752Y62563D01*
Y61563D01*
X54252Y61063D02*X54752Y61563D01*
X53252Y61063D02*X54252D01*
X52752Y63563D02*X53252Y63063D01*
X52752Y64563D02*Y63563D01*
Y64563D02*X53252Y65063D01*
X54252D01*
X54752Y64563D01*
Y63563D01*
X54252Y63063D02*X54752Y63563D01*
X38858Y70504D02*X40358D01*
X38358Y71004D02*X38858Y70504D01*
X38358Y74004D02*Y71004D01*
Y74004D02*X38858Y74504D01*
X40358D01*
X41559Y72504D02*X43559Y74504D01*
X41559Y72504D02*X44059D01*
X43559Y74504D02*Y70504D01*
X45260Y71004D02*X45760Y70504D01*
X45260Y74004D02*Y71004D01*
Y74004D02*X45760Y74504D01*
X46760D01*
X47260Y74004D01*
Y71004D01*
X46760Y70504D02*X47260Y71004D01*
X45760Y70504D02*X46760D01*
X45260Y71504D02*X47260Y73504D01*
X33732Y59047D02*X35732D01*
X36232Y58547D01*
Y57547D01*
X35732Y57047D02*X36232Y57547D01*
X34232Y57047D02*X35732D01*
X34232Y59047D02*Y55047D01*
Y57047D02*X36232Y55047D01*
X37433Y57047D02*X39433Y59047D01*
X37433Y57047D02*X39933D01*
X39433Y59047D02*Y55047D01*
X41134D02*X43134Y57047D01*
Y58547D02*Y57047D01*
X42634Y59047D02*X43134Y58547D01*
X41634Y59047D02*X42634D01*
X41134Y58547D02*X41634Y59047D01*
X41134Y58547D02*Y57547D01*
X41634Y57047D01*
X43134D01*
X22435Y27684D02*Y26184D01*
X21935Y25684D02*X22435Y26184D01*
X18935Y25684D02*X21935D01*
X18935D02*X18435Y26184D01*
Y27684D02*Y26184D01*
X18935Y28885D02*X18435Y29385D01*
Y30385D02*Y29385D01*
Y30385D02*X18935Y30885D01*
X21935D01*
X22435Y30385D02*X21935Y30885D01*
X22435Y30385D02*Y29385D01*
X21935Y28885D02*X22435Y29385D01*
X20435Y30885D02*Y29385D01*
X21935Y32086D02*X22435Y32586D01*
X18935Y32086D02*X21935D01*
X18935D02*X18435Y32586D01*
Y33586D02*Y32586D01*
Y33586D02*X18935Y34086D01*
X21935D01*
X22435Y33586D02*X21935Y34086D01*
X22435Y33586D02*Y32586D01*
X21435Y32086D02*X19435Y34086D01*
X4720Y53626D02*X6220D01*
X4220Y54126D02*X4720Y53626D01*
X4220Y57126D02*Y54126D01*
Y57126D02*X4720Y57626D01*
X6220D01*
X7421D02*Y53626D01*
Y57626D02*Y57126D01*
X9921Y54626D01*
Y57626D02*Y53626D01*
X11622D02*X12622D01*
X12122Y57626D02*Y53626D01*
X11122Y56626D02*X12122Y57626D01*
X13823Y54126D02*X14323Y53626D01*
X13823Y57126D02*Y54126D01*
Y57126D02*X14323Y57626D01*
X15323D01*
X15823Y57126D01*
Y54126D01*
X15323Y53626D02*X15823Y54126D01*
X14323Y53626D02*X15323D01*
X13823Y54626D02*X15823Y56626D01*
X19850Y26563D02*X21850D01*
X22350Y26063D01*
Y25063D01*
X21850Y24563D02*X22350Y25063D01*
X20350Y24563D02*X21850D01*
X20350Y26563D02*Y22563D01*
Y24563D02*X22350Y22563D01*
X23551Y24563D02*X25551Y26563D01*
X23551Y24563D02*X26051D01*
X25551Y26563D02*Y22563D01*
X27252Y26563D02*X29252D01*
X27252D02*Y24563D01*
X27752Y25063D01*
X28752D01*
X29252Y24563D01*
Y23063D01*
X28752Y22563D02*X29252Y23063D01*
X27752Y22563D02*X28752D01*
X27252Y23063D02*X27752Y22563D01*
X48350Y74563D02*X50350D01*
X50850Y74063D01*
Y73063D01*
X50350Y72563D02*X50850Y73063D01*
X48850Y72563D02*X50350D01*
X48850Y74563D02*Y70563D01*
Y72563D02*X50850Y70563D01*
X52051Y74563D02*X54051D01*
X52051D02*Y72563D01*
X52551Y73063D01*
X53551D01*
X54051Y72563D01*
Y71063D01*
X53551Y70563D02*X54051Y71063D01*
X52551Y70563D02*X53551D01*
X52051Y71063D02*X52551Y70563D01*
X55252Y74563D02*X57252D01*
X55252D02*Y72563D01*
X55752Y73063D01*
X56752D01*
X57252Y72563D01*
Y71063D01*
X56752Y70563D02*X57252Y71063D01*
X55752Y70563D02*X56752D01*
X55252Y71063D02*X55752Y70563D01*
X28500Y68413D02*Y66913D01*
X29000Y68913D02*X28500Y68413D01*
X29000Y68913D02*X32000D01*
X32500Y68413D01*
Y66913D01*
X28500Y65712D02*X32500D01*
X32000D02*X32500D01*
X32000D02*X29500Y63212D01*
X28500D02*X32500D01*
X32000Y62011D02*X32500Y61511D01*
Y60011D01*
X32000Y59511D01*
X31000D02*X32000D01*
X28500Y62011D02*X31000Y59511D01*
X28500Y62011D02*Y59511D01*
X40600Y54113D02*Y52613D01*
X41100Y54613D02*X40600Y54113D01*
X41100Y54613D02*X44100D01*
X44600Y54113D01*
Y52613D01*
X40600Y51412D02*X44600D01*
X44100D02*X44600D01*
X44100D02*X41600Y48912D01*
X40600D02*X44600D01*
X40600Y47211D02*Y46211D01*
Y46711D02*X44600D01*
X43600Y47711D02*X44600Y46711D01*
X51407Y6806D02*Y2806D01*
X52907Y6806D02*X53407Y6306D01*
Y3306D01*
X52907Y2806D02*X53407Y3306D01*
X50907Y2806D02*X52907D01*
X50907Y6806D02*X52907D01*
X55108Y2806D02*X56108D01*
X55608Y6806D02*Y2806D01*
X54608Y5806D02*X55608Y6806D01*
X50422Y17695D02*X53922D01*
X54422Y18195D01*
Y19195D02*Y18195D01*
Y19195D02*X53922Y19695D01*
X50422D02*X53922D01*
X50422Y22896D02*Y20896D01*
X52422D01*
X51922Y21396D01*
Y22396D02*Y21396D01*
Y22396D02*X52422Y22896D01*
X53922D01*
X54422Y22396D02*X53922Y22896D01*
X54422Y22396D02*Y21396D01*
X53922Y20896D02*X54422Y21396D01*
X63879Y6730D02*Y2730D01*
X65879D01*
X67580D02*X68580D01*
X68080Y6730D02*Y2730D01*
X67080Y5730D02*X68080Y6730D01*
X32794Y7824D02*Y6324D01*
X32294Y5824D02*X32794Y6324D01*
X29294Y5824D02*X32294D01*
X29294D02*X28794Y6324D01*
Y7824D02*Y6324D01*
X29294Y9025D02*X28794Y9525D01*
Y11025D02*Y9525D01*
Y11025D02*X29294Y11525D01*
X30294D01*
X32794Y9025D02*X30294Y11525D01*
X32794D02*Y9025D01*
X28794Y14226D02*X29294Y14726D01*
X28794Y14226D02*Y13226D01*
X29294Y12726D02*X28794Y13226D01*
X29294Y12726D02*X32294D01*
X32794Y13226D01*
X30794Y14226D02*X31294Y14726D01*
X30794Y14226D02*Y12726D01*
X32794Y14226D02*Y13226D01*
Y14226D02*X32294Y14726D01*
X31294D02*X32294D01*
X94291Y45055D02*X96291D01*
X96791Y44555D01*
Y43555D01*
X96291Y43055D02*X96791Y43555D01*
X94791Y43055D02*X96291D01*
X94791Y45055D02*Y41055D01*
Y43055D02*X96791Y41055D01*
X97992Y44555D02*X98492Y45055D01*
X99492D01*
X99992Y44555D01*
Y41555D01*
X99492Y41055D02*X99992Y41555D01*
X98492Y41055D02*X99492D01*
X97992Y41555D02*X98492Y41055D01*
Y43055D02*X99992D01*
X101693Y41055D02*X102693D01*
X102193Y45055D02*Y41055D01*
X101193Y44055D02*X102193Y45055D01*
X66000Y45413D02*Y41413D01*
X68000D01*
X69201Y43413D02*X70701D01*
X69201Y41413D02*X71201D01*
X69201Y45413D02*Y41413D01*
Y45413D02*X71201D01*
X72902D02*Y41413D01*
X74402Y45413D02*X74902Y44913D01*
Y41913D01*
X74402Y41413D02*X74902Y41913D01*
X72402Y41413D02*X74402D01*
X72402Y45413D02*X74402D01*
X76603Y41413D02*X77603D01*
X77103Y45413D02*Y41413D01*
X76103Y44413D02*X77103Y45413D01*
X29350Y48063D02*X31350D01*
X31850Y47563D01*
Y46563D01*
X31350Y46063D02*X31850Y46563D01*
X29850Y46063D02*X31350D01*
X29850Y48063D02*Y44063D01*
Y46063D02*X31850Y44063D01*
X33051Y46063D02*X35051Y48063D01*
X33051Y46063D02*X35551D01*
X35051Y48063D02*Y44063D01*
X36752Y46063D02*X38752Y48063D01*
X36752Y46063D02*X39252D01*
X38752Y48063D02*Y44063D01*
X105000Y46494D02*Y42994D01*
X105500Y42494D01*
X106500D01*
X107000Y42994D01*
Y46494D02*Y42994D01*
X108201Y42494D02*X110201Y44494D01*
Y45994D02*Y44494D01*
X109701Y46494D02*X110201Y45994D01*
X108701Y46494D02*X109701D01*
X108201Y45994D02*X108701Y46494D01*
X108201Y45994D02*Y44994D01*
X108701Y44494D01*
X110201D01*
X81169Y16658D02*X82669D01*
X80669Y17158D02*X81169Y16658D01*
X80669Y20158D02*Y17158D01*
Y20158D02*X81169Y20658D01*
X82669D01*
X83870Y20158D02*X84370Y20658D01*
X85870D01*
X86370Y20158D01*
Y19158D01*
X83870Y16658D02*X86370Y19158D01*
X83870Y16658D02*X86370D01*
X87571D02*X89571Y18658D01*
Y20158D02*Y18658D01*
X89071Y20658D02*X89571Y20158D01*
X88071Y20658D02*X89071D01*
X87571Y20158D02*X88071Y20658D01*
X87571Y20158D02*Y19158D01*
X88071Y18658D01*
X89571D01*
X80798Y32091D02*X82798D01*
X83298Y31591D01*
Y30591D01*
X82798Y30091D02*X83298Y30591D01*
X81298Y30091D02*X82798D01*
X81298Y32091D02*Y28091D01*
Y30091D02*X83298Y28091D01*
X84499Y30091D02*X86499Y32091D01*
X84499Y30091D02*X86999D01*
X86499Y32091D02*Y28091D01*
X88700D02*X89700D01*
X89200Y32091D02*Y28091D01*
X88200Y31091D02*X89200Y32091D01*
X92900Y7813D02*Y4813D01*
Y7813D02*X93400Y8313D01*
X94400D01*
X94900Y7813D01*
Y4813D01*
X94400Y4313D02*X94900Y4813D01*
X93400Y4313D02*X94400D01*
X92900Y4813D02*X93400Y4313D01*
X93900Y5313D02*X94900Y4313D01*
X96601D02*X97601D01*
X97101Y8313D02*Y4313D01*
X96101Y7313D02*X97101Y8313D01*
X82650Y43063D02*Y41063D01*
X82150Y40563D01*
X81150D02*X82150D01*
X80650Y41063D02*X81150Y40563D01*
X80650Y42563D02*Y41063D01*
X78650Y42563D02*X82650D01*
X80650D02*X78650Y40563D01*
X80650Y39362D02*X82650Y37362D01*
X80650Y39362D02*Y36862D01*
X78650Y37362D02*X82650D01*
Y34161D02*X82150Y33661D01*
X82650Y35161D02*Y34161D01*
X82150Y35661D02*X82650Y35161D01*
X79150Y35661D02*X82150D01*
X79150D02*X78650Y35161D01*
X80650Y34161D02*X80150Y33661D01*
X80650Y35661D02*Y34161D01*
X78650Y35161D02*Y34161D01*
X79150Y33661D01*
X80150D01*
X94291Y39555D02*X96291D01*
X96791Y39055D01*
Y38055D01*
X96291Y37555D02*X96791Y38055D01*
X94791Y37555D02*X96291D01*
X94791Y39555D02*Y35555D01*
Y37555D02*X96791Y35555D01*
X97992Y39055D02*X98492Y39555D01*
X99492D01*
X99992Y39055D01*
Y36055D01*
X99492Y35555D02*X99992Y36055D01*
X98492Y35555D02*X99492D01*
X97992Y36055D02*X98492Y35555D01*
Y37555D02*X99992D01*
X101193Y39055D02*X101693Y39555D01*
X103193D01*
X103693Y39055D01*
Y38055D01*
X101193Y35555D02*X103693Y38055D01*
X101193Y35555D02*X103693D01*
X49664Y31531D02*X51164D01*
X49164Y32031D02*X49664Y31531D01*
X49164Y35031D02*Y32031D01*
Y35031D02*X49664Y35531D01*
X51164D01*
X52365Y35031D02*X52865Y35531D01*
X54365D01*
X54865Y35031D01*
Y34031D01*
X52365Y31531D02*X54865Y34031D01*
X52365Y31531D02*X54865D01*
X56066D02*X58566Y34031D01*
Y35531D02*Y34031D01*
X56066Y35531D02*X58566D01*
X49893Y36956D02*X51393D01*
X49393Y37456D02*X49893Y36956D01*
X49393Y40456D02*Y37456D01*
Y40456D02*X49893Y40956D01*
X51393D01*
X52594Y40456D02*X53094Y40956D01*
X54594D01*
X55094Y40456D01*
Y39456D01*
X52594Y36956D02*X55094Y39456D01*
X52594Y36956D02*X55094D01*
X56295Y37456D02*X56795Y36956D01*
X56295Y38456D02*Y37456D01*
Y38456D02*X56795Y38956D01*
X57795D01*
X58295Y38456D01*
Y37456D01*
X57795Y36956D02*X58295Y37456D01*
X56795Y36956D02*X57795D01*
X56295Y39456D02*X56795Y38956D01*
X56295Y40456D02*Y39456D01*
Y40456D02*X56795Y40956D01*
X57795D01*
X58295Y40456D01*
Y39456D01*
X57795Y38956D02*X58295Y39456D01*
X33291Y68555D02*X35291D01*
X35791Y68055D01*
Y67055D01*
X35291Y66555D02*X35791Y67055D01*
X33791Y66555D02*X35291D01*
X33791Y68555D02*Y64555D01*
Y66555D02*X35791Y64555D01*
X36992Y68555D02*X38992D01*
X36992D02*Y66555D01*
X37492Y67055D01*
X38492D01*
X38992Y66555D01*
Y65055D01*
X38492Y64555D02*X38992Y65055D01*
X37492Y64555D02*X38492D01*
X36992Y65055D02*X37492Y64555D01*
X40193Y66555D02*X42193Y68555D01*
X40193Y66555D02*X42693D01*
X42193Y68555D02*Y64555D01*
X78850Y59563D02*X80350D01*
X78350Y60063D02*X78850Y59563D01*
X78350Y63063D02*Y60063D01*
Y63063D02*X78850Y63563D01*
X80350D01*
X81551Y63063D02*X82051Y63563D01*
X83051D01*
X83551Y63063D01*
Y60063D01*
X83051Y59563D02*X83551Y60063D01*
X82051Y59563D02*X83051D01*
X81551Y60063D02*X82051Y59563D01*
Y61563D02*X83551D01*
X84752Y63063D02*X85252Y63563D01*
X86252D01*
X86752Y63063D01*
Y60063D01*
X86252Y59563D02*X86752Y60063D01*
X85252Y59563D02*X86252D01*
X84752Y60063D02*X85252Y59563D01*
Y61563D02*X86752D01*
X179709Y24768D02*X180209Y24268D01*
X178209Y24768D02*X179709D01*
X177709Y24268D02*X178209Y24768D01*
X177709Y24268D02*Y23268D01*
X178209Y22768D01*
X179709D01*
X180209Y22268D01*
Y21268D01*
X179709Y20768D02*X180209Y21268D01*
X178209Y20768D02*X179709D01*
X177709Y21268D02*X178209Y20768D01*
X181410Y24268D02*X181910Y24768D01*
X182910D01*
X183410Y24268D01*
Y21268D01*
X182910Y20768D02*X183410Y21268D01*
X181910Y20768D02*X182910D01*
X181410Y21268D02*X181910Y20768D01*
Y22768D02*X183410D01*
X176350Y5063D02*X178350D01*
X178850Y4563D01*
Y3563D01*
X178350Y3063D02*X178850Y3563D01*
X176850Y3063D02*X178350D01*
X176850Y5063D02*Y1063D01*
Y3063D02*X178850Y1063D01*
X180051Y4563D02*X180551Y5063D01*
X181551D01*
X182051Y4563D01*
Y1563D01*
X181551Y1063D02*X182051Y1563D01*
X180551Y1063D02*X181551D01*
X180051Y1563D02*X180551Y1063D01*
Y3063D02*X182051D01*
X183252Y1563D02*X183752Y1063D01*
X183252Y2563D02*Y1563D01*
Y2563D02*X183752Y3063D01*
X184752D01*
X185252Y2563D01*
Y1563D01*
X184752Y1063D02*X185252Y1563D01*
X183752Y1063D02*X184752D01*
X183252Y3563D02*X183752Y3063D01*
X183252Y4563D02*Y3563D01*
Y4563D02*X183752Y5063D01*
X184752D01*
X185252Y4563D01*
Y3563D01*
X184752Y3063D02*X185252Y3563D01*
X191500Y4413D02*X193000D01*
X191000Y4913D02*X191500Y4413D01*
X191000Y7913D02*Y4913D01*
Y7913D02*X191500Y8413D01*
X193000D01*
X194201D02*Y4413D01*
Y8413D02*Y7913D01*
X196701Y5413D01*
Y8413D02*Y4413D01*
X198402D02*X199402D01*
X198902Y8413D02*Y4413D01*
X197902Y7413D02*X198902Y8413D01*
X201103Y4413D02*X202103D01*
X201603Y8413D02*Y4413D01*
X200603Y7413D02*X201603Y8413D01*
X153708Y24768D02*X154208Y24268D01*
X152208Y24768D02*X153708D01*
X151708Y24268D02*X152208Y24768D01*
X151708Y24268D02*Y23268D01*
X152208Y22768D01*
X153708D01*
X154208Y22268D01*
Y21268D01*
X153708Y20768D02*X154208Y21268D01*
X152208Y20768D02*X153708D01*
X151708Y21268D02*X152208Y20768D01*
X155409Y24268D02*X155909Y24768D01*
X157409D01*
X157909Y24268D01*
Y23268D01*
X155409Y20768D02*X157909Y23268D01*
X155409Y20768D02*X157909D01*
X150350Y5063D02*X152350D01*
X152850Y4563D01*
Y3563D01*
X152350Y3063D02*X152850Y3563D01*
X150850Y3063D02*X152350D01*
X150850Y5063D02*Y1063D01*
Y3063D02*X152850Y1063D01*
X154051Y4563D02*X154551Y5063D01*
X155551D01*
X156051Y4563D01*
Y1563D01*
X155551Y1063D02*X156051Y1563D01*
X154551Y1063D02*X155551D01*
X154051Y1563D02*X154551Y1063D01*
Y3063D02*X156051D01*
X157252Y1063D02*X159752Y3563D01*
Y5063D02*Y3563D01*
X157252Y5063D02*X159752D01*
X209500Y54413D02*Y52913D01*
X209000Y52413D02*X209500Y52913D01*
X206000Y52413D02*X209000D01*
X206000D02*X205500Y52913D01*
Y54413D02*Y52913D01*
Y55614D02*X209500D01*
X205500D02*X206000D01*
X208500Y58114D01*
X205500D02*X209500D01*
X205500Y60815D02*X206000Y61315D01*
X205500Y60815D02*Y59815D01*
X206000Y59315D02*X205500Y59815D01*
X206000Y59315D02*X209000D01*
X209500Y59815D01*
X207500Y60815D02*X208000Y61315D01*
X207500Y60815D02*Y59315D01*
X209500Y60815D02*Y59815D01*
Y60815D02*X209000Y61315D01*
X208000D02*X209000D01*
X187850Y44563D02*X189850D01*
X190350Y44063D01*
Y43063D01*
X189850Y42563D02*X190350Y43063D01*
X188350Y42563D02*X189850D01*
X188350Y44563D02*Y40563D01*
Y42563D02*X190350Y40563D01*
X191551Y44063D02*X192051Y44563D01*
X193551D01*
X194051Y44063D01*
Y43063D01*
X191551Y40563D02*X194051Y43063D01*
X191551Y40563D02*X194051D01*
X195252Y42563D02*X197252Y44563D01*
X195252Y42563D02*X197752D01*
X197252Y44563D02*Y40563D01*
X197791Y34055D02*X199791D01*
X200291Y33555D01*
Y32555D01*
X199791Y32055D02*X200291Y32555D01*
X198291Y32055D02*X199791D01*
X198291Y34055D02*Y30055D01*
Y32055D02*X200291Y30055D01*
X201492Y33555D02*X201992Y34055D01*
X203492D01*
X203992Y33555D01*
Y32555D01*
X201492Y30055D02*X203992Y32555D01*
X201492Y30055D02*X203992D01*
X205193Y33555D02*X205693Y34055D01*
X206693D01*
X207193Y33555D01*
Y30555D01*
X206693Y30055D02*X207193Y30555D01*
X205693Y30055D02*X206693D01*
X205193Y30555D02*X205693Y30055D01*
Y32055D02*X207193D01*
X208000Y4413D02*X209500D01*
X207500Y4913D02*X208000Y4413D01*
X207500Y7913D02*Y4913D01*
Y7913D02*X208000Y8413D01*
X209500D01*
X210701D02*Y4413D01*
Y8413D02*Y7913D01*
X213201Y5413D01*
Y8413D02*Y4413D01*
X214402D02*X216902Y6913D01*
Y8413D02*Y6913D01*
X214402Y8413D02*X216902D01*
M02*
