G04 start of page 8 for group -4078 idx -4078 *
G04 Title: (unknown), bottomsilk *
G04 Creator: pcb 20091103 *
G04 CreationDate: Sat 26 Feb 2011 00:53:29 GMT UTC *
G04 For: thomas *
G04 Format: Gerber/RS-274X *
G04 PCB-Dimensions: 240157 142913 *
G04 PCB-Coordinate-Origin: lower left *
%MOIN*%
%FSLAX25Y25*%
%LNBACKSILK*%
%ADD12C,0.0120*%
%ADD13C,0.0080*%
%ADD58C,0.0060*%
%ADD59C,0.0100*%
%ADD60C,0.0130*%
%ADD61C,0.0074*%
G54D60*X192500Y17413D02*Y18413D01*
X197500D02*X195000Y20913D01*
X192500Y18413D02*X195000Y20913D01*
X192500Y21413D02*X197500D01*
Y17413D02*Y18413D01*
X195000Y10413D02*Y17413D01*
X192500D02*X197500D01*
X195000Y21913D02*Y26913D01*
G54D13*X66641Y25132D02*Y24632D01*
Y23632D02*Y21632D01*
G54D12*X60141Y26132D02*X73141D01*
G54D13*X55906Y19291D02*X55118D01*
X54331Y20865D02*X55512Y19685D01*
X55119Y19291D02*X55906Y20078D01*
X55907Y19290D02*Y20077D01*
G54D12*X66641Y19632D02*X60141Y26132D01*
X73141D02*X66641Y19632D01*
G54D13*X142520Y83464D02*X143701D01*
X144882Y84645D01*
X143701D01*
X144882Y83464D01*
Y84645D01*
X124016Y73621D02*X123228Y74409D01*
Y81888D01*
X124410Y83070D01*
X124803Y78739D02*Y80314D01*
X105906Y48425D02*Y47637D01*
X107480Y46063D01*
X122047Y60236D02*X121654D01*
X121260Y60630D01*
X124803Y80314D02*X125984Y81495D01*
X131103D01*
X124410Y83070D02*X132677D01*
X133858Y81889D01*
X126378Y75983D02*Y77165D01*
X133071Y73621D02*X124016D01*
X131103Y81495D02*X132284Y80314D01*
Y78739D01*
X133858Y81889D02*Y74408D01*
X133071Y73621D01*
X130709Y77165D02*Y75983D01*
G54D60*X211500Y99913D02*X219500D01*
X217000Y97413D02*X219500Y99913D01*
X217000Y102413D01*
G54D13*X157000Y136413D02*Y141413D01*
X162000Y136413D02*X157000D01*
X167500D02*Y141413D01*
X172500D02*Y136413D01*
X167500D01*
X157000Y141413D02*X162000D01*
X167500D02*X172500D01*
X215748Y139370D02*X216929Y140551D01*
X219685Y137795D01*
X162000Y141413D02*Y136413D01*
X149712Y86231D02*Y84231D01*
G54D12*Y82231D02*X143212Y88731D01*
X156212D01*
X149712Y82231D01*
G54D13*Y87731D02*Y87231D01*
X97244Y135826D02*X101181D01*
X86614Y132676D02*X87795Y133857D01*
X92126Y132676D02*X86614D01*
X87795Y131495D01*
Y133858D02*Y131496D01*
X100394Y137401D02*X98031D01*
X98819Y138976D02*X99607D01*
X92519Y109448D02*X93700D01*
X99213Y132677D02*X103543D01*
X99213D02*Y135826D01*
X123622Y142128D02*Y139765D01*
X127559Y142128D02*Y139765D01*
X131496Y142128D02*Y139765D01*
X119685Y140944D02*X135433D01*
X100500Y86413D02*X102000Y84913D01*
X103000D01*
X101000Y81913D02*X103000D01*
X101000Y78913D02*X103000D01*
X99000Y90413D02*X103000D01*
X90157Y109448D02*X90158D01*
X91732D02*X92519Y108661D01*
X92520Y110236D02*X91732Y109448D01*
X103000Y90413D02*X104000Y89413D01*
X98500Y86413D02*X100500D01*
X92520Y108661D02*Y110236D01*
X40551Y92913D02*X38583D01*
X36614Y96850D02*X34646Y94882D01*
X35000Y95913D02*X35500Y96413D01*
X34646Y96850D02*Y94882D01*
Y96850D02*X36614D01*
X38583Y92913D02*X34646Y96850D01*
X26772Y35433D02*X28346D01*
Y35432D01*
X28740Y36614D02*X28347D01*
X27559Y35826D01*
X28346Y35432D02*X27559Y34645D01*
Y35826D02*Y34645D01*
Y34646D01*
X26772Y35433D01*
X43307Y30708D02*X42520Y29921D01*
Y29922D01*
X41733Y30709D01*
X43307D01*
X42520Y29921D02*Y31890D01*
X81102Y96063D02*X86220Y101181D01*
X75984Y98425D02*X80315Y102756D01*
Y107480D01*
X86220Y101181D02*Y107480D01*
X81102Y96063D02*X64567D01*
X75984Y98425D02*X67323D01*
X71653Y100787D02*X74409Y103543D01*
X7192Y107415D02*Y106915D01*
G54D12*X692Y108415D02*X13692D01*
G54D13*X7192Y105915D02*Y103915D01*
G54D12*Y101915D02*X692Y108415D01*
X13692D02*X7192Y101915D01*
G54D13*X74409Y103543D02*Y107480D01*
X71653Y100787D02*X64567D01*
X66929Y103149D02*X67716D01*
X68504Y103937D01*
Y107086D01*
X62992Y106693D02*Y107086D01*
X72441Y113779D02*X70473D01*
X72441D02*Y113780D01*
X73228Y114567D01*
Y115354D01*
X63386Y113779D02*X61418D01*
X60630Y114567D01*
Y115354D01*
X79133Y116535D02*X78346Y115748D01*
X79134Y116535D02*X79133D01*
X81102Y118504D02*X79528D01*
X78346Y117322D01*
Y115748D01*
X77559Y116535D01*
X79134D01*
G54D58*X164500Y138093D02*Y140813D01*
Y138093D02*Y138433D01*
X166200Y140133D01*
Y138093D02*Y140813D01*
X205118Y137687D02*X206478D01*
X206818Y138027D01*
Y138707D01*
X206478Y139047D02*X206818Y138707D01*
X205458Y139047D02*X206478D01*
X205458Y137687D02*Y140407D01*
Y139047D02*X206818Y140407D01*
X207634Y139387D02*Y140067D01*
Y139387D02*X207974Y139047D01*
X208654D01*
X208994Y139387D01*
Y140067D01*
X208654Y140407D02*X208994Y140067D01*
X207974Y140407D02*X208654D01*
X207634Y140067D02*X207974Y140407D01*
X209811Y137687D02*Y140407D01*
X211511Y137687D02*Y140407D01*
X209811Y139047D02*X211511D01*
X213688Y137687D02*X214028Y138027D01*
X212668Y137687D02*X213688D01*
X212328Y138027D02*X212668Y137687D01*
X212328Y138027D02*Y138707D01*
X212668Y139047D01*
X213688D01*
X214028Y139387D01*
Y140067D01*
X213688Y140407D02*X214028Y140067D01*
X212668Y140407D02*X213688D01*
X212328Y140067D02*X212668Y140407D01*
X175500Y137593D02*X176860D01*
X176180D02*Y140313D01*
X178016D02*X179036D01*
X177676Y139973D02*X178016Y140313D01*
X177676Y139293D02*Y139973D01*
Y139293D02*X178016Y138953D01*
X178696D01*
X179036Y139293D01*
X177676Y139633D02*X179036D01*
Y139293D02*Y139633D01*
X180193Y140313D02*X181213D01*
X181553Y139973D01*
X181213Y139633D02*X181553Y139973D01*
X180193Y139633D02*X181213D01*
X179853Y139293D02*X180193Y139633D01*
X179853Y139293D02*X180193Y138953D01*
X181213D01*
X181553Y139293D01*
X179853Y139973D02*X180193Y140313D01*
X182710Y137593D02*Y139973D01*
X183050Y140313D01*
X182370Y138613D02*X183050D01*
X184070Y140313D02*X185090D01*
X183730Y139973D02*X184070Y140313D01*
X183730Y139293D02*Y139973D01*
Y139293D02*X184070Y138953D01*
X184750D01*
X185090Y139293D01*
X183730Y139633D02*X185090D01*
Y139293D02*Y139633D01*
X187267Y137593D02*Y140313D01*
X186927D02*X187267Y139973D01*
X186247Y140313D02*X186927D01*
X185907Y139973D02*X186247Y140313D01*
X185907Y139293D02*Y139973D01*
Y139293D02*X186247Y138953D01*
X186927D01*
X187267Y139293D01*
X232180Y99553D02*X232520Y99213D01*
X232180Y99553D02*Y100573D01*
X232520Y100913D02*X232180Y100573D01*
X232520Y100913D02*X233200D01*
X233540Y100573D01*
Y99553D02*Y100573D01*
Y99553D02*X233880Y99213D01*
X234560D01*
X234900Y99553D02*X234560Y99213D01*
X234900Y99553D02*Y100573D01*
X234560Y100913D02*X234900Y100573D01*
X232180Y98057D02*X234900D01*
X232180Y97037D02*X232520Y96697D01*
X234560D01*
X234900Y97037D02*X234560Y96697D01*
X234900Y97037D02*Y98397D01*
X232180Y97037D02*Y98397D01*
X232520Y95880D02*X234900D01*
X232520D02*X232180Y95540D01*
Y94520D02*Y95540D01*
Y94520D02*X232520Y94180D01*
X234900D01*
X233540D02*Y95880D01*
X193000Y98978D02*X193355Y98623D01*
X194420D01*
X194775Y98978D01*
Y99688D01*
X193000Y101463D02*X194775Y99688D01*
X193000Y101463D02*X194775D01*
X198183Y98623D02*X199603D01*
X198893D02*Y101463D01*
X200456Y98623D02*Y101463D01*
Y98623D02*X201521Y99688D01*
X202586Y98623D01*
Y101463D01*
X191500Y100623D02*X192210D01*
X191855D02*Y103463D01*
X191500D02*X192210D01*
X195973D02*X197038D01*
X195618Y103108D02*X195973Y103463D01*
X195618Y100978D02*Y103108D01*
Y100978D02*X195973Y100623D01*
X197038D01*
X191000Y106043D02*X192065D01*
X191000Y107463D02*X192420D01*
X191000Y104623D02*Y107463D01*
Y104623D02*X192420D01*
X193272D02*Y104978D01*
X195047Y106753D01*
Y107463D01*
X193272Y106753D02*Y107463D01*
Y106753D02*X195047Y104978D01*
Y104623D02*Y104978D01*
X196255Y104623D02*Y107463D01*
X195900Y104623D02*X197320D01*
X197675Y104978D01*
Y105688D01*
X197320Y106043D02*X197675Y105688D01*
X196255Y106043D02*X197320D01*
X198528Y104978D02*Y107463D01*
Y104978D02*X198883Y104623D01*
X199948D01*
X200303Y104978D01*
Y107463D01*
X198528Y106043D02*X200303D01*
X201155Y104623D02*Y107463D01*
Y104623D02*Y104978D01*
X202930Y106753D01*
Y104623D02*Y107463D01*
X205203Y104623D02*X205558Y104978D01*
X204138Y104623D02*X205203D01*
X203783Y104978D02*X204138Y104623D01*
X203783Y104978D02*Y105688D01*
X204138Y106043D01*
X205203D01*
X205558Y106398D01*
Y107108D01*
X205203Y107463D02*X205558Y107108D01*
X204138Y107463D02*X205203D01*
X203783Y107108D02*X204138Y107463D01*
X206411Y104623D02*X207121D01*
X206766D02*Y107463D01*
X206411D02*X207121D01*
X207973Y104978D02*Y107108D01*
Y104978D02*X208328Y104623D01*
X209038D01*
X209393Y104978D01*
Y107108D01*
X209038Y107463D02*X209393Y107108D01*
X208328Y107463D02*X209038D01*
X207973Y107108D02*X208328Y107463D01*
X210246Y104623D02*Y107463D01*
Y104623D02*Y104978D01*
X212021Y106753D01*
Y104623D02*Y107463D01*
X214507Y104623D02*Y107463D01*
X214152Y104623D02*X215572D01*
X215927Y104978D01*
Y105688D01*
X215572Y106043D02*X215927Y105688D01*
X214507Y106043D02*X215572D01*
X216780Y104978D02*Y107108D01*
Y104978D02*X217135Y104623D01*
X217845D01*
X218200Y104978D01*
Y107108D01*
X217845Y107463D02*X218200Y107108D01*
X217135Y107463D02*X217845D01*
X216780Y107108D02*X217135Y107463D01*
X219052Y104623D02*X220472D01*
X220827Y104978D01*
Y105688D01*
X220472Y106043D02*X220827Y105688D01*
X219407Y106043D02*X220472D01*
X219407Y104623D02*Y107463D01*
Y106043D02*X220827Y107463D01*
X221680Y104623D02*X223100D01*
X222390D02*Y107463D01*
X190945Y109681D02*X191285Y109341D01*
X191965D01*
X192305Y109681D01*
Y111721D01*
X191965Y112061D02*X192305Y111721D01*
X191285Y112061D02*X191965D01*
X190945Y111721D02*X191285Y112061D01*
Y110701D02*X192305D01*
X193121Y109341D02*Y111381D01*
X193801Y112061D01*
X194481Y111381D01*
Y109341D02*Y111381D01*
X195298Y109681D02*X195638Y109341D01*
X196318D01*
X196658Y109681D01*
Y111721D01*
X196318Y112061D02*X196658Y111721D01*
X195638Y112061D02*X196318D01*
X195298Y111721D02*X195638Y112061D01*
Y110701D02*X196658D01*
X197475Y112741D02*X198155Y112061D01*
X200535D02*X201215D01*
X200875Y109341D02*Y112061D01*
X200195Y110021D02*X200875Y109341D01*
X202032D02*Y112061D01*
Y111041D02*X203052Y112061D01*
X202032Y111041D02*X202712Y110361D01*
X205433Y109341D02*Y112061D01*
X205093Y109341D02*X206453D01*
X206793Y109681D01*
Y110361D01*
X206453Y110701D02*X206793Y110361D01*
X205433Y110701D02*X206453D01*
X207609Y109341D02*Y111721D01*
X207949Y112061D01*
X208629D01*
X208969Y111721D01*
Y109341D02*Y111721D01*
X232180Y89553D02*X232520Y89213D01*
X232180Y89553D02*Y90573D01*
X232520Y90913D02*X232180Y90573D01*
X232520Y90913D02*X233200D01*
X233540Y90573D01*
Y89553D02*Y90573D01*
Y89553D02*X233880Y89213D01*
X234560D01*
X234900Y89553D02*X234560Y89213D01*
X234900Y89553D02*Y90573D01*
X234560Y90913D02*X234900Y90573D01*
Y87037D02*Y88057D01*
X234560Y88397D02*X234900Y88057D01*
X232520Y88397D02*X234560D01*
X232520D02*X232180Y88057D01*
Y87037D02*Y88057D01*
Y86220D02*X234900D01*
Y84860D02*Y86220D01*
X232520Y78913D02*X232180Y78573D01*
Y77893D02*Y78573D01*
Y77893D02*X232520Y77553D01*
X234560D01*
X234900Y77893D02*X234560Y77553D01*
X234900Y77893D02*Y78573D01*
X234560Y78913D02*X234900Y78573D01*
X233540Y77553D02*Y78573D01*
X232180Y76737D02*X234220D01*
X234900Y76057D01*
X234220Y75377D01*
X232180D02*X234220D01*
X232520Y74560D02*X232180Y74220D01*
Y73540D02*Y74220D01*
Y73540D02*X232520Y73200D01*
X234560D01*
X234900Y73540D02*X234560Y73200D01*
X234900Y73540D02*Y74220D01*
X234560Y74560D02*X234900Y74220D01*
X233540Y73200D02*Y74220D01*
X232180Y109553D02*X232520Y109213D01*
X232180Y109553D02*Y110573D01*
X232520Y110913D02*X232180Y110573D01*
X232520Y110913D02*X234560D01*
X234900Y110573D01*
Y109553D02*Y110573D01*
Y109553D02*X234560Y109213D01*
X233880D02*X234560D01*
X233540Y109553D02*X233880Y109213D01*
X233540Y109553D02*Y110233D01*
X232180Y108397D02*X234900D01*
X232180D02*X232520D01*
X234220Y106697D01*
X232180D02*X234900D01*
X232180Y105540D02*X234900D01*
X232180Y104520D02*X232520Y104180D01*
X234560D01*
X234900Y104520D02*X234560Y104180D01*
X234900Y104520D02*Y105880D01*
X232180Y104520D02*Y105880D01*
X232520Y120913D02*X232180Y120573D01*
Y119893D02*Y120573D01*
Y119893D02*X232520Y119553D01*
X234560D01*
X234900Y119893D02*X234560Y119553D01*
X234900Y119893D02*Y120573D01*
X234560Y120913D02*X234900Y120573D01*
X233540Y119553D02*Y120573D01*
X232180Y118737D02*X234220D01*
X234900Y118057D01*
X234220Y117377D01*
X232180D02*X234220D01*
X232520Y116560D02*X232180Y116220D01*
Y115540D02*Y116220D01*
Y115540D02*X232520Y115200D01*
X234560D01*
X234900Y115540D02*X234560Y115200D01*
X234900Y115540D02*Y116220D01*
X234560Y116560D02*X234900Y116220D01*
X233540Y115200D02*Y116220D01*
X176000Y122593D02*Y125313D01*
Y122593D02*X177360D01*
X176000Y123953D02*X177020D01*
X178176Y122593D02*Y125313D01*
X179536D01*
X180353Y122933D02*Y125313D01*
Y122933D02*X180693Y122593D01*
X181713D01*
X182053Y122933D01*
Y125313D01*
X180353Y123953D02*X182053D01*
X184230Y122593D02*X184570Y122933D01*
X183210Y122593D02*X184230D01*
X182870Y122933D02*X183210Y122593D01*
X182870Y122933D02*Y123613D01*
X183210Y123953D01*
X184230D01*
X184570Y124293D01*
Y124973D01*
X184230Y125313D02*X184570Y124973D01*
X183210Y125313D02*X184230D01*
X182870Y124973D02*X183210Y125313D01*
X185386Y122593D02*Y125313D01*
X187086Y122593D02*Y125313D01*
X185386Y123953D02*X187086D01*
X189127Y122593D02*Y125313D01*
Y122593D02*X190147Y123613D01*
X191167Y122593D01*
Y125313D01*
X191984Y123953D02*X193004D01*
X191984Y125313D02*X193344D01*
X191984Y122593D02*Y125313D01*
Y122593D02*X193344D01*
X194160D02*Y125313D01*
Y122593D02*X195180Y123613D01*
X196200Y122593D01*
Y125313D01*
X197017Y122933D02*Y124973D01*
Y122933D02*X197357Y122593D01*
X198037D01*
X198377Y122933D01*
Y124973D01*
X198037Y125313D02*X198377Y124973D01*
X197357Y125313D02*X198037D01*
X197017Y124973D02*X197357Y125313D01*
X199194Y122593D02*X200554D01*
X200894Y122933D01*
Y123613D01*
X200554Y123953D02*X200894Y123613D01*
X199534Y123953D02*X200554D01*
X199534Y122593D02*Y125313D01*
Y123953D02*X200894Y125313D01*
X201710Y122593D02*Y122933D01*
X202390Y123613D01*
X203070Y122933D01*
Y122593D02*Y122933D01*
X202390Y123613D02*Y125313D01*
X184360Y118093D02*X184700Y118433D01*
X183340Y118093D02*X184360D01*
X183000Y118433D02*X183340Y118093D01*
X183000Y118433D02*Y119113D01*
X183340Y119453D01*
X184360D01*
X184700Y119793D01*
Y120473D01*
X184360Y120813D02*X184700Y120473D01*
X183340Y120813D02*X184360D01*
X183000Y120473D02*X183340Y120813D01*
X185516Y119453D02*X186536D01*
X185516Y120813D02*X186876D01*
X185516Y118093D02*Y120813D01*
Y118093D02*X186876D01*
X187693D02*X189053D01*
X189393Y118433D01*
Y119113D01*
X189053Y119453D02*X189393Y119113D01*
X188033Y119453D02*X189053D01*
X188033Y118093D02*Y120813D01*
Y119453D02*X189393Y120813D01*
X190210Y118093D02*X190890D01*
X190550D02*Y120813D01*
X190210D02*X190890D01*
X191706Y118433D02*Y120813D01*
Y118433D02*X192046Y118093D01*
X193066D01*
X193406Y118433D01*
Y120813D01*
X191706Y119453D02*X193406D01*
X194223Y118093D02*Y120813D01*
X195583D01*
X219180Y90413D02*X221900D01*
X219180Y88713D02*X221900D01*
X220540D02*Y90413D01*
X219180Y87897D02*X221220D01*
X221900Y87217D01*
X221220Y86537D01*
X219180D02*X221220D01*
X221900Y84700D02*Y85380D01*
X219180Y85040D02*X221900D01*
X219860Y85720D02*X219180Y85040D01*
Y80413D02*X221900D01*
X219180Y78713D02*X221900D01*
X220540D02*Y80413D01*
X219180Y77897D02*X221220D01*
X221900Y77217D01*
X221220Y76537D01*
X219180D02*X221220D01*
X219520Y75720D02*X219180Y75380D01*
Y74360D02*Y75380D01*
Y74360D02*X219520Y74020D01*
X220200D01*
X221900Y75720D02*X220200Y74020D01*
X221900D02*Y75720D01*
X207565Y88413D02*X210050D01*
X207565D02*X207210Y88058D01*
Y86993D02*Y88058D01*
Y86993D02*X207565Y86638D01*
X210050D01*
X208630D02*Y88413D01*
X207210Y85786D02*X210050D01*
X207210D02*X207565D01*
X209340Y84011D01*
X207210D02*X210050D01*
X207565Y83158D02*X210050D01*
X207565D02*X207210Y82803D01*
Y81738D02*Y82803D01*
Y81738D02*X207565Y81383D01*
X210050D01*
X208630D02*Y83158D01*
X207210Y80530D02*X210050D01*
Y79110D02*Y80530D01*
X207565Y78258D02*X209695D01*
X207565D02*X207210Y77903D01*
Y77193D02*Y77903D01*
Y77193D02*X207565Y76838D01*
X209695D01*
X210050Y77193D02*X209695Y76838D01*
X210050Y77193D02*Y77903D01*
X209695Y78258D02*X210050Y77903D01*
X207210Y74565D02*X207565Y74210D01*
X207210Y74565D02*Y75630D01*
X207565Y75985D02*X207210Y75630D01*
X207565Y75985D02*X209695D01*
X210050Y75630D01*
Y74565D02*Y75630D01*
Y74565D02*X209695Y74210D01*
X208985D02*X209695D01*
X208630Y74565D02*X208985Y74210D01*
X208630Y74565D02*Y75275D01*
X207210Y72079D02*X210050D01*
X207210Y70304D02*X210050D01*
X208630D02*Y72079D01*
X207210Y69452D02*X209340D01*
X210050Y68742D01*
X209340Y68032D01*
X207210D02*X209340D01*
X181666Y79024D02*X183026Y80384D01*
X181666D02*X183026Y79024D01*
X181666Y79704D02*X183026D01*
X182346Y79024D02*Y80384D01*
X183842Y79024D02*X185202Y80384D01*
X183842D02*X185202Y79024D01*
X183842Y79704D02*X185202D01*
X184522Y79024D02*Y80384D01*
X187243Y78344D02*Y81064D01*
Y78344D02*Y78684D01*
X188943Y80384D01*
Y78344D02*Y81064D01*
X189760Y79704D02*X190780D01*
X189760Y81064D02*X191120D01*
X189760Y78344D02*Y81064D01*
Y78344D02*X191120D01*
X191936D02*Y80384D01*
X192616Y81064D01*
X193296Y80384D01*
Y78344D02*Y80384D01*
X194113Y79704D02*X195133D01*
X194113Y81064D02*X195473D01*
X194113Y78344D02*Y81064D01*
Y78344D02*X195473D01*
X196290D02*X197650D01*
X197990Y78684D01*
Y79364D01*
X197650Y79704D02*X197990Y79364D01*
X196630Y79704D02*X197650D01*
X196630Y78344D02*Y81064D01*
Y79704D02*X197990Y81064D01*
X200030Y79024D02*X201390Y80384D01*
X200030D02*X201390Y79024D01*
X200030Y79704D02*X201390D01*
X200710Y79024D02*Y80384D01*
X202207Y79024D02*X203567Y80384D01*
X202207D02*X203567Y79024D01*
X202207Y79704D02*X203567D01*
X202887Y79024D02*Y80384D01*
X98372Y1861D02*Y4581D01*
X99392Y1861D02*X99732Y2201D01*
Y4241D01*
X99392Y4581D02*X99732Y4241D01*
X98032Y4581D02*X99392D01*
X98032Y1861D02*X99392D01*
X100548Y3221D02*X101568D01*
X100548Y4581D02*X101908D01*
X100548Y1861D02*Y4581D01*
Y1861D02*X101908D01*
X104085D02*X104425Y2201D01*
X103065Y1861D02*X104085D01*
X102725Y2201D02*X103065Y1861D01*
X102725Y2201D02*Y2881D01*
X103065Y3221D01*
X104085D01*
X104425Y3561D01*
Y4241D01*
X104085Y4581D02*X104425Y4241D01*
X103065Y4581D02*X104085D01*
X102725Y4241D02*X103065Y4581D01*
X105242Y1861D02*X105922D01*
X105582D02*Y4581D01*
X105242D02*X105922D01*
X108098Y1861D02*X108438Y2201D01*
X107078Y1861D02*X108098D01*
X106738Y2201D02*X107078Y1861D01*
X106738Y2201D02*Y4241D01*
X107078Y4581D01*
X108098D01*
X108438Y4241D01*
Y3561D02*Y4241D01*
X108098Y3221D02*X108438Y3561D01*
X107418Y3221D02*X108098D01*
X109255Y1861D02*Y4581D01*
Y1861D02*Y2201D01*
X110955Y3901D01*
Y1861D02*Y4581D01*
X111772Y3221D02*X112792D01*
X111772Y4581D02*X113132D01*
X111772Y1861D02*Y4581D01*
Y1861D02*X113132D01*
X114288D02*Y4581D01*
X115308Y1861D02*X115648Y2201D01*
Y4241D01*
X115308Y4581D02*X115648Y4241D01*
X113948Y4581D02*X115308D01*
X113948Y1861D02*X115308D01*
X117689D02*X118369D01*
X118029D02*Y4581D01*
X117689D02*X118369D01*
X119186Y1861D02*Y4581D01*
Y1861D02*Y2201D01*
X120886Y3901D01*
Y1861D02*Y4581D01*
X124286Y1861D02*X124626Y2201D01*
X123266Y1861D02*X124286D01*
X122926Y2201D02*X123266Y1861D01*
X122926Y2201D02*Y4241D01*
X123266Y4581D01*
X124286D01*
X124626Y4241D01*
Y3561D02*Y4241D01*
X124286Y3221D02*X124626Y3561D01*
X123606Y3221D02*X124286D01*
X125783Y1861D02*Y4581D01*
X125443Y1861D02*X126803D01*
X127143Y2201D01*
Y2881D01*
X126803Y3221D02*X127143Y2881D01*
X125783Y3221D02*X126803D01*
X127960Y1861D02*Y4581D01*
X129320D01*
X131360Y3221D02*X132380D01*
X131360Y4581D02*X132720D01*
X131360Y1861D02*Y4581D01*
Y1861D02*X132720D01*
X133877D02*Y4581D01*
X134897Y1861D02*X135237Y2201D01*
Y4241D01*
X134897Y4581D02*X135237Y4241D01*
X133537Y4581D02*X134897D01*
X133537Y1861D02*X134897D01*
X136054Y2201D02*Y4581D01*
Y2201D02*X136394Y1861D01*
X137414D01*
X137754Y2201D01*
Y4581D01*
X136054Y3221D02*X137754D01*
X139794Y4241D02*X140134Y4581D01*
X139794Y2201D02*X140134Y1861D01*
X139794Y2201D02*Y4241D01*
X141971Y3221D02*X142311Y3561D01*
X141291Y3221D02*X141971D01*
X140951Y3561D02*X141291Y3221D01*
X140951Y3561D02*Y4241D01*
X141291Y4581D01*
X141971D01*
X142311Y4241D01*
X140951Y5261D02*X141291Y5601D01*
X141971D01*
X142311Y5261D01*
Y3221D02*Y5261D01*
X143128Y3221D02*X144148D01*
X143128Y4581D02*X144488D01*
X143128Y1861D02*Y4581D01*
Y1861D02*X144488D01*
X145644D02*Y4581D01*
X146664Y1861D02*X147004Y2201D01*
Y4241D01*
X146664Y4581D02*X147004Y4241D01*
X145304Y4581D02*X146664D01*
X145304Y1861D02*X146664D01*
X147821Y2201D02*Y4581D01*
Y2201D02*X148161Y1861D01*
X149181D01*
X149521Y2201D01*
Y4581D01*
X147821Y3221D02*X149521D01*
X150338Y1861D02*X150678Y2201D01*
Y4241D01*
X150338Y4581D02*X150678Y4241D01*
X152718Y2201D02*Y4581D01*
Y2201D02*X153058Y1861D01*
X154078D01*
X154418Y2201D01*
Y4581D01*
X152718Y3221D02*X154418D01*
X155235Y1861D02*Y4581D01*
Y1861D02*Y2201D01*
X156935Y3901D01*
Y1861D02*Y4581D01*
X158092Y1861D02*Y4581D01*
X159112Y1861D02*X159452Y2201D01*
Y4241D01*
X159112Y4581D02*X159452Y4241D01*
X157752Y4581D02*X159112D01*
X157752Y1861D02*X159112D01*
X161833D02*Y4581D01*
X161493Y1861D02*X162853D01*
X163193Y2201D01*
Y2881D01*
X162853Y3221D02*X163193Y2881D01*
X161833Y3221D02*X162853D01*
X164349Y4581D02*X165369D01*
X164009Y4241D02*X164349Y4581D01*
X164009Y2201D02*Y4241D01*
Y2201D02*X164349Y1861D01*
X165369D01*
X166186Y4581D02*X167546D01*
X167886Y4241D01*
Y3561D02*Y4241D01*
X167546Y3221D02*X167886Y3561D01*
X166526Y3221D02*X167546D01*
X166526Y1861D02*Y4581D01*
X166186Y1861D02*X167546D01*
X167886Y2201D01*
Y2881D01*
X167546Y3221D02*X167886Y2881D01*
X169927Y2201D02*Y4241D01*
Y2201D02*X170267Y1861D01*
X170947D01*
X171287Y2201D01*
Y4241D01*
X170947Y4581D02*X171287Y4241D01*
X170267Y4581D02*X170947D01*
X169927Y4241D02*X170267Y4581D01*
X172103Y1861D02*Y4581D01*
Y1861D02*Y2201D01*
X173803Y3901D01*
Y1861D02*Y4581D01*
X175844Y1861D02*Y4241D01*
X176184Y4581D01*
X176864D01*
X177204Y4241D01*
Y1861D02*Y4241D01*
X178021Y4581D02*X179381D01*
X179721Y4241D01*
Y3561D02*Y4241D01*
X179381Y3221D02*X179721Y3561D01*
X178361Y3221D02*X179381D01*
X178361Y1861D02*Y4581D01*
X178021Y1861D02*X179381D01*
X179721Y2201D01*
Y2881D01*
X179381Y3221D02*X179721Y2881D01*
X180537Y1861D02*Y4241D01*
X180877Y4581D01*
X181557D01*
X181897Y4241D01*
Y1861D02*Y4241D01*
X182714Y1861D02*Y4581D01*
Y1861D02*Y2201D01*
X184414Y3901D01*
Y1861D02*Y4581D01*
X185231Y1861D02*X186591D01*
X185911D02*Y4581D01*
X187407Y1861D02*Y4241D01*
X187747Y4581D01*
X188427D01*
X188767Y4241D01*
Y1861D02*Y4241D01*
X190808Y1861D02*Y4581D01*
X192168D01*
X192985Y1861D02*X193665D01*
X193325D02*Y4581D01*
X192985D02*X193665D01*
X194481Y1861D02*Y4581D01*
Y1861D02*Y2201D01*
X196181Y3901D01*
Y1861D02*Y4581D01*
X196998Y1861D02*Y4241D01*
X197338Y4581D01*
X198018D01*
X198358Y4241D01*
Y1861D02*Y4241D01*
X199175Y1861D02*Y2201D01*
X200875Y3901D01*
Y4581D01*
X199175Y3901D02*Y4581D01*
Y3901D02*X200875Y2201D01*
Y1861D02*Y2201D01*
X19559Y2578D02*X19914Y2223D01*
X20624D01*
X20979Y2578D01*
Y4708D01*
X20624Y5063D02*X20979Y4708D01*
X19914Y5063D02*X20624D01*
X19559Y4708D02*X19914Y5063D01*
Y3643D02*X20979D01*
X21831Y5063D02*X22186D01*
X23039Y2578D02*X23394Y2223D01*
X24104D01*
X24459Y2578D01*
Y4708D01*
X24104Y5063D02*X24459Y4708D01*
X23394Y5063D02*X24104D01*
X23039Y4708D02*X23394Y5063D01*
Y3643D02*X24459D01*
X25312Y2223D02*Y4353D01*
X26022Y5063D01*
X26732Y4353D01*
Y2223D02*Y4353D01*
X28862Y2223D02*Y4353D01*
X29572Y5063D01*
X31702D01*
X32412Y2223D02*Y3998D01*
Y2223D02*X31702Y1513D01*
X29572D02*X31702D01*
X29572D02*X28862Y2223D01*
X29927Y2933D02*Y3643D01*
X30282Y3998D01*
X30992D01*
X31347Y3643D01*
X31702Y3998D01*
X31347Y2578D02*Y3643D01*
Y2933D02*X30992Y2578D01*
X30282D02*X30992D01*
X30282D02*X29927Y2933D01*
X31702Y3998D02*X32412D01*
X34543Y3643D02*X35963Y2223D01*
X34543Y3643D02*X36318D01*
X35963Y2223D02*Y5063D01*
X37171Y4708D02*X37526Y5063D01*
X37171Y2578D02*Y4708D01*
Y2578D02*X37526Y2223D01*
X38236D01*
X38591Y2578D01*
Y4708D01*
X38236Y5063D02*X38591Y4708D01*
X37526Y5063D02*X38236D01*
X37171Y4353D02*X38591Y2933D01*
X39443Y4708D02*X39798Y5063D01*
X39443Y2578D02*Y4708D01*
Y2578D02*X39798Y2223D01*
X40508D01*
X40863Y2578D01*
Y4708D01*
X40508Y5063D02*X40863Y4708D01*
X39798Y5063D02*X40508D01*
X39443Y4353D02*X40863Y2933D01*
X42071Y3998D02*Y5063D01*
Y3998D02*X42426Y3643D01*
X42781D01*
X43136Y3998D01*
Y5063D01*
Y3998D02*X43491Y3643D01*
X43846D01*
X44201Y3998D01*
Y5063D01*
X41716Y3643D02*X42071Y3998D01*
X45054Y2578D02*Y5063D01*
Y2578D02*X45409Y2223D01*
X46474D01*
X46829Y2578D01*
Y5063D01*
X45054Y3643D02*X46829D01*
X48960Y2223D02*Y5063D01*
Y4708D02*X49315Y5063D01*
X50025D01*
X50380Y4708D01*
Y3998D02*Y4708D01*
X50025Y3643D02*X50380Y3998D01*
X49315Y3643D02*X50025D01*
X48960Y3998D02*X49315Y3643D01*
X51232D02*Y4708D01*
X51587Y5063D01*
X52297D01*
X52652Y4708D01*
Y3643D02*Y4708D01*
X53860Y3643D02*X54925D01*
X53505Y3998D02*X53860Y3643D01*
X53505Y3998D02*Y4708D01*
X53860Y5063D01*
X54925D01*
X55778Y2223D02*Y5063D01*
Y3998D02*X56843Y5063D01*
X55778Y3998D02*X56488Y3288D01*
X59328Y3643D02*X60393D01*
X58973Y3998D02*X59328Y3643D01*
X58973Y3998D02*Y4708D01*
X59328Y5063D01*
X60393D01*
X61246Y3998D02*Y4708D01*
Y3998D02*X61601Y3643D01*
X62311D01*
X62666Y3998D01*
Y4708D01*
X62311Y5063D02*X62666Y4708D01*
X61601Y5063D02*X62311D01*
X61246Y4708D02*X61601Y5063D01*
X63874Y3998D02*Y5063D01*
Y3998D02*X64229Y3643D01*
X64584D01*
X64939Y3998D01*
Y5063D01*
X63519Y3643D02*X63874Y3998D01*
X65792Y3643D02*Y4353D01*
X66502Y5063D01*
X67212Y4353D01*
Y3643D02*Y4353D01*
X68419Y5063D02*X69484D01*
X68064Y4708D02*X68419Y5063D01*
X68064Y3998D02*Y4708D01*
Y3998D02*X68419Y3643D01*
X69129D01*
X69484Y3998D01*
X68064Y4353D02*X69484D01*
Y3998D02*Y4353D01*
X70692Y3998D02*Y5063D01*
Y3998D02*X71047Y3643D01*
X71757D01*
X70337D02*X70692Y3998D01*
X72965Y2223D02*Y4708D01*
X73320Y5063D01*
X72610Y3288D02*X73320D01*
X74385Y5063D02*X75450D01*
X74030Y4708D02*X74385Y5063D01*
X74030Y3998D02*Y4708D01*
Y3998D02*X74385Y3643D01*
X75095D01*
X75450Y3998D01*
X74030Y4353D02*X75450D01*
Y3998D02*Y4353D01*
X76658Y3998D02*Y5063D01*
Y3998D02*X77013Y3643D01*
X77723D01*
X76303D02*X76658Y3998D01*
X19559Y6223D02*Y9063D01*
Y7998D02*X19914Y7643D01*
X20624D01*
X20979Y7998D01*
Y9063D01*
X21831Y7998D02*Y8708D01*
Y7998D02*X22186Y7643D01*
X22896D01*
X23251Y7998D01*
Y8708D01*
X22896Y9063D02*X23251Y8708D01*
X22186Y9063D02*X22896D01*
X21831Y8708D02*X22186Y9063D01*
X24459Y6223D02*Y8708D01*
X24814Y9063D01*
X24104Y7288D02*X24814D01*
X25525Y7643D02*X26945D01*
X28152Y7998D02*Y10128D01*
X27797Y7643D02*X28152Y7998D01*
X28507Y7643D01*
X29217D01*
X29572Y7998D01*
Y8708D01*
X29217Y9063D02*X29572Y8708D01*
X28507Y9063D02*X29217D01*
X28152Y8708D02*X28507Y9063D01*
X30425Y6223D02*Y8708D01*
X30780Y9063D01*
X31491Y7643D02*Y8708D01*
X31846Y9063D01*
X32556D01*
X32911Y8708D01*
Y7643D02*Y8708D01*
X34828Y7643D02*X35183Y7998D01*
X34118Y7643D02*X34828D01*
X33763Y7998D02*X34118Y7643D01*
X33763Y7998D02*Y8708D01*
X34118Y9063D01*
X34828D01*
X35183Y8708D01*
X33763Y9773D02*X34118Y10128D01*
X34828D01*
X35183Y9773D01*
Y7643D02*Y9773D01*
X37101Y7643D02*X37456Y7998D01*
X36391Y7643D02*X37101D01*
X36036Y7998D02*X36391Y7643D01*
X36036Y7998D02*Y8708D01*
X36391Y9063D01*
X37101D01*
X37456Y8708D01*
X36036Y9773D02*X36391Y10128D01*
X37101D01*
X37456Y9773D01*
Y7643D02*Y9773D01*
X39374Y7643D02*X39729Y7998D01*
X38664Y7643D02*X39374D01*
X38309Y7998D02*X38664Y7643D01*
X38309Y7998D02*Y8708D01*
X38664Y9063D01*
X39729Y7643D02*Y8708D01*
X40084Y9063D01*
X38664D02*X39374D01*
X39729Y8708D01*
X40937Y6223D02*Y9063D01*
Y8708D02*X41292Y9063D01*
X42002D01*
X42357Y8708D01*
Y7998D02*Y8708D01*
X42002Y7643D02*X42357Y7998D01*
X41292Y7643D02*X42002D01*
X40937Y7998D02*X41292Y7643D01*
X43209Y6223D02*Y8708D01*
X43564Y9063D01*
X44630D02*X45695D01*
X44275Y8708D02*X44630Y9063D01*
X44275Y7998D02*Y8708D01*
Y7998D02*X44630Y7643D01*
X45340D01*
X45695Y7998D01*
X44275Y8353D02*X45695D01*
Y7998D02*Y8353D01*
X196501Y6441D02*Y9281D01*
X197921D01*
X198773Y7861D02*X199838D01*
X198773Y9281D02*X200193D01*
X198773Y6441D02*Y9281D01*
Y6441D02*X200193D01*
X201401D02*Y9281D01*
X202466Y6441D02*X202821Y6796D01*
Y8926D01*
X202466Y9281D02*X202821Y8926D01*
X201046Y9281D02*X202466D01*
X201046Y6441D02*X202466D01*
X104724Y23530D02*Y26350D01*
X105664Y27290D01*
X106604Y26350D01*
Y23530D02*Y26350D01*
X107732Y24000D02*X108202Y23530D01*
X109142D01*
X109612Y24000D01*
Y26820D01*
X109142Y27290D02*X109612Y26820D01*
X108202Y27290D02*X109142D01*
X107732Y26820D02*X108202Y27290D01*
Y25410D02*X109612D01*
X110741Y27290D02*X111211D01*
X112340Y24000D02*X112810Y23530D01*
X114220D01*
X114690Y24000D01*
Y24940D01*
X112340Y27290D02*X114690Y24940D01*
X112340Y27290D02*X114690D01*
X115819Y23530D02*X117699D01*
X115819D02*Y25410D01*
X116289Y24940D01*
X117229D01*
X117699Y25410D01*
Y26820D01*
X117229Y27290D02*X117699Y26820D01*
X116289Y27290D02*X117229D01*
X115819Y26820D02*X116289Y27290D01*
X120520Y23530D02*Y27290D01*
X122400D01*
X123529Y24470D02*Y24940D01*
Y25880D02*Y27290D01*
X124940Y23530D02*Y26820D01*
X125410Y27290D01*
X124470Y24940D02*X125410D01*
X126821Y27290D02*X128231D01*
X126351Y26820D02*X126821Y27290D01*
X126351Y25880D02*Y26820D01*
Y25880D02*X126821Y25410D01*
X127761D01*
X128231Y25880D01*
X126351Y26350D02*X128231D01*
Y25880D02*Y26350D01*
X147583Y25609D02*Y26629D01*
Y25609D02*X147923Y25269D01*
X148603D01*
X147243D02*X147583Y25609D01*
X149759Y26629D02*X150779D01*
X149419Y26289D02*X149759Y26629D01*
X149419Y25609D02*Y26289D01*
Y25609D02*X149759Y25269D01*
X150439D01*
X150779Y25609D01*
X149419Y25949D02*X150779D01*
Y25609D02*Y25949D01*
X151596Y25269D02*Y25949D01*
X152276Y26629D01*
X152956Y25949D01*
Y25269D02*Y25949D01*
X153773Y26629D02*X154113D01*
X156153D02*X157513D01*
X157853Y26289D01*
Y25609D02*Y26289D01*
X157513Y25269D02*X157853Y25609D01*
X156493Y25269D02*X157513D01*
X156493Y23909D02*Y26629D01*
X156153Y23909D02*X157513D01*
X157853Y24249D01*
Y24929D01*
X157513Y25269D02*X157853Y24929D01*
G54D61*X108444Y12639D02*X109374Y13569D01*
X105654Y12639D02*X108444D01*
X104724Y13569D02*X105654Y12639D01*
X104724Y13569D02*Y15429D01*
X105654Y16359D01*
X108444D01*
X109374Y17289D01*
Y19149D01*
X108444Y20079D02*X109374Y19149D01*
X105654Y20079D02*X108444D01*
X104724Y19149D02*X105654Y20079D01*
X111607Y12639D02*Y19149D01*
X112537Y20079D01*
X114397D01*
X115327Y19149D01*
Y12639D02*Y19149D01*
X118491Y12639D02*Y20079D01*
X117561Y12639D02*X121281D01*
X122211Y13569D01*
Y15429D01*
X121281Y16359D02*X122211Y15429D01*
X118491Y16359D02*X121281D01*
X124445D02*X127235D01*
X124445Y20079D02*X128165D01*
X124445Y12639D02*Y20079D01*
Y12639D02*X128165D01*
X130399D02*X134119D01*
X135049Y13569D01*
Y15429D01*
X134119Y16359D02*X135049Y15429D01*
X131329Y16359D02*X134119D01*
X131329Y12639D02*Y20079D01*
Y16359D02*X135049Y20079D01*
X140631Y13569D02*Y19149D01*
Y13569D02*X141561Y12639D01*
X143421D01*
X144351Y13569D01*
Y19149D01*
X143421Y20079D02*X144351Y19149D01*
X141561Y20079D02*X143421D01*
X140631Y19149D02*X141561Y20079D01*
X150305Y12639D02*X151235Y13569D01*
X147515Y12639D02*X150305D01*
X146585Y13569D02*X147515Y12639D01*
X146585Y13569D02*Y15429D01*
X147515Y16359D01*
X150305D01*
X151235Y17289D01*
Y19149D01*
X150305Y20079D02*X151235Y19149D01*
X147515Y20079D02*X150305D01*
X146585Y19149D02*X147515Y20079D01*
X154399Y12639D02*Y20079D01*
X157189Y12639D02*X158119Y13569D01*
Y19149D01*
X157189Y20079D02*X158119Y19149D01*
X153469Y20079D02*X157189D01*
X153469Y12639D02*X157189D01*
G54D58*X70230Y32472D02*X71150D01*
X70690Y32012D02*Y32932D01*
X55119Y33142D02*X56139D01*
X55119Y34502D02*X56479D01*
X55119Y31782D02*Y34502D01*
Y31782D02*X56479D01*
X57295D02*Y32122D01*
X58995Y33822D01*
Y34502D01*
X57295Y33822D02*Y34502D01*
Y33822D02*X58995Y32122D01*
Y31782D02*Y32122D01*
X60152Y34502D02*X61172D01*
X59812Y34162D02*X60152Y34502D01*
X59812Y32122D02*Y34162D01*
Y32122D02*X60152Y31782D01*
X61172D01*
X61989Y33142D02*X63009D01*
X61989Y34502D02*X63349D01*
X61989Y31782D02*Y34502D01*
Y31782D02*X63349D01*
X64165Y33142D02*X65185D01*
X64165Y34502D02*X65525D01*
X64165Y31782D02*Y34502D01*
Y31782D02*X65525D01*
X66682D02*Y34502D01*
X67702Y31782D02*X68042Y32122D01*
Y34162D01*
X67702Y34502D02*X68042Y34162D01*
X66342Y34502D02*X67702D01*
X66342Y31782D02*X67702D01*
X72531Y32122D02*X72871Y31782D01*
X73551D01*
X73891Y32122D01*
Y34162D01*
X73551Y34502D02*X73891Y34162D01*
X72871Y34502D02*X73551D01*
X72531Y34162D02*X72871Y34502D01*
Y33142D02*X73891D01*
X75727Y31782D02*X76067Y32122D01*
X75047Y31782D02*X75727D01*
X74707Y32122D02*X75047Y31782D01*
X74707Y32122D02*Y34162D01*
X75047Y34502D01*
X75727Y33142D02*X76067Y33482D01*
X74707Y33142D02*X75727D01*
X75047Y34502D02*X75727D01*
X76067Y34162D01*
Y33482D02*Y34162D01*
X76884Y31782D02*Y33822D01*
X77564Y34502D01*
X78244Y33822D01*
Y31782D02*Y33822D01*
X36194Y33589D02*Y36309D01*
X37554D01*
X38370Y33589D02*X39730D01*
X39050D02*Y36309D01*
X40887D02*X41567D01*
X41227Y33589D02*Y36309D01*
X40547Y34269D02*X41227Y33589D01*
X42384Y36309D02*X43744Y34949D01*
Y33929D02*Y34949D01*
X43404Y33589D02*X43744Y33929D01*
X42724Y33589D02*X43404D01*
X42384Y33929D02*X42724Y33589D01*
X42384Y33929D02*Y34609D01*
X42724Y34949D01*
X43744D01*
X44560Y33929D02*X44900Y33589D01*
X45580D01*
X45920Y33929D01*
Y35969D01*
X45580Y36309D02*X45920Y35969D01*
X44900Y36309D02*X45580D01*
X44560Y35969D02*X44900Y36309D01*
Y34949D02*X45920D01*
X46737Y33929D02*X47077Y33589D01*
X47757D01*
X48097Y33929D01*
Y35969D01*
X47757Y36309D02*X48097Y35969D01*
X47077Y36309D02*X47757D01*
X46737Y35969D02*X47077Y36309D01*
Y34949D02*X48097D01*
X33858Y40014D02*X35218D01*
X35558Y39674D01*
Y38994D02*Y39674D01*
X35218Y38654D02*X35558Y38994D01*
X34198Y38654D02*X35218D01*
X34198Y37294D02*Y40014D01*
X33858Y37294D02*X35218D01*
X35558Y37634D01*
Y38314D01*
X35218Y38654D02*X35558Y38314D01*
X36374Y37294D02*Y39674D01*
X36714Y40014D01*
X37394D01*
X37734Y39674D01*
Y37294D02*Y39674D01*
X38891Y40014D02*X39911D01*
X38551Y39674D02*X38891Y40014D01*
X38551Y37634D02*Y39674D01*
Y37634D02*X38891Y37294D01*
X39911D01*
X40728D02*Y40014D01*
Y38654D02*X42088Y37294D01*
X40728Y38654D02*X42088Y40014D01*
X44128Y37294D02*X45488D01*
X45828Y37634D01*
Y38314D01*
X45488Y38654D02*X45828Y38314D01*
X44468Y38654D02*X45488D01*
X44468Y37294D02*Y40014D01*
Y38654D02*X45828Y40014D01*
X46645Y38654D02*X47665D01*
X46645Y40014D02*X48005D01*
X46645Y37294D02*Y40014D01*
Y37294D02*X48005D01*
X50182D02*X50522Y37634D01*
X49162Y37294D02*X50182D01*
X48822Y37634D02*X49162Y37294D01*
X48822Y37634D02*Y39674D01*
X49162Y40014D01*
X50182D01*
X50522Y39674D01*
Y38994D02*Y39674D01*
X50182Y38654D02*X50522Y38994D01*
X49502Y38654D02*X50182D01*
X29528Y34931D02*Y37651D01*
Y34931D02*X30888D01*
X29528Y36291D02*X30548D01*
X31704Y37651D02*X33064D01*
X33404Y37311D01*
Y36631D02*Y37311D01*
X33064Y36291D02*X33404Y36631D01*
X32044Y36291D02*X33064D01*
X32044Y34931D02*Y37651D01*
X31704Y34931D02*X33064D01*
X33404Y35271D01*
Y35951D01*
X33064Y36291D02*X33404Y35951D01*
X70230Y34471D02*X71150D01*
X55118Y36452D02*Y38492D01*
Y36452D02*X55458Y36112D01*
X56138D01*
X56478Y36452D01*
Y38492D01*
X56138Y38832D02*X56478Y38492D01*
X55458Y38832D02*X56138D01*
X55118Y38492D02*X55458Y38832D01*
X57294Y36112D02*Y38832D01*
Y36112D02*Y36452D01*
X58994Y38152D01*
Y36112D02*Y38832D01*
X61035D02*X62395D01*
X62735Y38492D01*
Y37812D02*Y38492D01*
X62395Y37472D02*X62735Y37812D01*
X61375Y37472D02*X62395D01*
X61375Y36112D02*Y38832D01*
X61035Y36112D02*X62395D01*
X62735Y36452D01*
Y37132D01*
X62395Y37472D02*X62735Y37132D01*
X63552Y36452D02*Y38832D01*
Y36452D02*X63892Y36112D01*
X64912D01*
X65252Y36452D01*
Y38832D01*
X63552Y37472D02*X65252D01*
X66068Y36112D02*X67428D01*
X66748D02*Y38832D01*
X68245Y36112D02*X69605D01*
X68925D02*Y38832D01*
X70422Y37472D02*X71442D01*
X70422Y38832D02*X71782D01*
X70422Y36112D02*Y38832D01*
Y36112D02*X71782D01*
X72598D02*X73958D01*
X74298Y36452D01*
Y37132D01*
X73958Y37472D02*X74298Y37132D01*
X72938Y37472D02*X73958D01*
X72938Y36112D02*Y38832D01*
Y37472D02*X74298Y38832D01*
X75115Y36112D02*Y36452D01*
X75795Y37132D01*
X76475Y36452D01*
Y36112D02*Y36452D01*
X75795Y37132D02*Y38832D01*
X78516Y36112D02*X79196D01*
X78856D02*Y38832D01*
X78516D02*X79196D01*
X80012Y36112D02*Y38832D01*
Y36112D02*Y36452D01*
X81712Y38152D01*
Y36112D02*Y38832D01*
X82869Y36112D02*Y38832D01*
X82529Y36112D02*X83889D01*
X84229Y36452D01*
Y37132D01*
X83889Y37472D02*X84229Y37132D01*
X82869Y37472D02*X83889D01*
X85046Y36112D02*Y38492D01*
X85386Y38832D01*
X86066D01*
X86406Y38492D01*
Y36112D02*Y38492D01*
X87222Y36112D02*X88582D01*
X87902D02*Y38832D01*
X208355Y1942D02*Y4782D01*
X209420Y1942D02*X209775Y2297D01*
Y4427D01*
X209420Y4782D02*X209775Y4427D01*
X208000Y4782D02*X209420D01*
X208000Y1942D02*X209420D01*
X210627D02*Y4427D01*
X210982Y4782D01*
X211692D01*
X212047Y4427D01*
Y1942D02*Y4427D01*
X212900Y2297D02*Y4782D01*
Y2297D02*X213255Y1942D01*
X214320D01*
X214675Y2297D01*
Y4782D01*
X212900Y3362D02*X214675D01*
X215528Y1942D02*Y4782D01*
X216948D01*
X206037Y6442D02*Y9282D01*
X205682Y6442D02*X207102D01*
X207457Y6797D01*
Y7507D01*
X207102Y7862D02*X207457Y7507D01*
X206037Y7862D02*X207102D01*
X208664Y6442D02*Y9282D01*
X208309Y6442D02*X209729D01*
X210084Y6797D01*
Y7507D01*
X209729Y7862D02*X210084Y7507D01*
X208664Y7862D02*X209729D01*
X210937Y6442D02*Y9282D01*
Y6442D02*X212002Y7507D01*
X213067Y6442D01*
Y9282D01*
X213920Y8927D02*X216050Y6797D01*
X216902Y6442D02*X218322D01*
X218677Y6797D01*
Y7507D01*
X218322Y7862D02*X218677Y7507D01*
X217257Y7862D02*X218322D01*
X217257Y6442D02*Y9282D01*
Y7862D02*X218677Y9282D01*
X219885D02*X220950D01*
X219530Y8927D02*X219885Y9282D01*
X219530Y6797D02*Y8927D01*
Y6797D02*X219885Y6442D01*
X220950D01*
X204330Y23121D02*Y25841D01*
Y24481D02*X205690Y23121D01*
X204330Y24481D02*X205690Y25841D01*
X204331Y14012D02*Y16392D01*
Y14012D02*X204671Y13672D01*
X205691D01*
X206031Y14012D01*
Y16392D01*
X204331Y15032D02*X206031D01*
X185828Y29367D02*Y31747D01*
Y29367D02*X186168Y29027D01*
X187188D01*
X187528Y29367D01*
Y31747D01*
X185828Y30387D02*X187528D01*
X188344Y30047D02*X189704D01*
X188344Y30727D02*X189704D01*
X190521Y29367D02*X190861Y29027D01*
X191541D01*
X191881Y29367D01*
Y31407D01*
X191541Y31747D02*X191881Y31407D01*
X190861Y31747D02*X191541D01*
X190521Y31407D02*X190861Y31747D01*
Y30387D02*X191881D01*
X192698Y31747D02*X193038D01*
X193854Y29367D02*X194194Y29027D01*
X194874D01*
X195214Y29367D01*
Y31407D01*
X194874Y31747D02*X195214Y31407D01*
X194194Y31747D02*X194874D01*
X193854Y31407D02*X194194Y31747D01*
Y30387D02*X195214D01*
X196031Y29027D02*Y31067D01*
X196711Y31747D01*
X197391Y31067D01*
Y29027D02*Y31067D01*
X181166Y83704D02*X182186D01*
X181166Y85064D02*X182526D01*
X181166Y82344D02*Y85064D01*
Y82344D02*X182526D01*
X183342D02*Y82684D01*
X185042Y84384D01*
Y85064D01*
X183342Y84384D02*Y85064D01*
Y84384D02*X185042Y82684D01*
Y82344D02*Y82684D01*
X186199Y85064D02*X187219D01*
X185859Y84724D02*X186199Y85064D01*
X185859Y82684D02*Y84724D01*
Y82684D02*X186199Y82344D01*
X187219D01*
X188036Y83704D02*X189056D01*
X188036Y85064D02*X189396D01*
X188036Y82344D02*Y85064D01*
Y82344D02*X189396D01*
X190212Y83704D02*X191232D01*
X190212Y85064D02*X191572D01*
X190212Y82344D02*Y85064D01*
Y82344D02*X191572D01*
X192729D02*Y85064D01*
X193749Y82344D02*X194089Y82684D01*
Y84724D01*
X193749Y85064D02*X194089Y84724D01*
X192389Y85064D02*X193749D01*
X192389Y82344D02*X193749D01*
X198578Y83704D02*X199938Y82344D01*
X198578Y83704D02*X200278D01*
X199938Y82344D02*Y85064D01*
X201094Y82344D02*X202454D01*
X201094D02*Y83704D01*
X201434Y83364D01*
X202114D01*
X202454Y83704D01*
Y84724D01*
X202114Y85064D02*X202454Y84724D01*
X201434Y85064D02*X202114D01*
X201094Y84724D02*X201434Y85064D01*
X203271Y82344D02*Y84384D01*
X203951Y85064D01*
X204631Y84384D01*
Y82344D02*Y84384D01*
X196166Y85044D02*X197086D01*
X196166Y83044D02*X197086D01*
X196626Y82584D02*Y83504D01*
X177984Y86683D02*Y88723D01*
Y86683D02*X178324Y86343D01*
X179004D01*
X179344Y86683D01*
Y88723D01*
X179004Y89063D02*X179344Y88723D01*
X178324Y89063D02*X179004D01*
X177984Y88723D02*X178324Y89063D01*
X180160Y86343D02*Y89063D01*
Y86343D02*Y86683D01*
X181860Y88383D01*
Y86343D02*Y89063D01*
X183901Y86683D02*Y89063D01*
Y86683D02*X184241Y86343D01*
X185261D01*
X185601Y86683D01*
Y89063D01*
X183901Y87703D02*X185601D01*
X186418Y86343D02*Y89063D01*
Y86343D02*Y86683D01*
X188118Y88383D01*
Y86343D02*Y89063D01*
X188934Y86343D02*Y86683D01*
X189614Y87363D01*
X190294Y86683D01*
Y86343D02*Y86683D01*
X189614Y87363D02*Y89063D01*
X192335Y86683D02*Y89063D01*
Y86683D02*X192675Y86343D01*
X193695D01*
X194035Y86683D01*
Y89063D01*
X192335Y87703D02*X194035D01*
X194852Y86343D02*Y89063D01*
Y86343D02*Y86683D01*
X196552Y88383D01*
Y86343D02*Y89063D01*
X197368Y86683D02*Y89063D01*
Y86683D02*X197708Y86343D01*
X198728D01*
X199068Y86683D01*
Y89063D01*
X197368Y87703D02*X199068D01*
X199885Y86343D02*Y89063D01*
X201245D01*
X202062Y86683D02*Y88723D01*
Y86683D02*X202402Y86343D01*
X203082D01*
X203422Y86683D01*
Y88723D01*
X203082Y89063D02*X203422Y88723D01*
X202402Y89063D02*X203082D01*
X202062Y88723D02*X202402Y89063D01*
X205598Y86343D02*X205938Y86683D01*
X204578Y86343D02*X205598D01*
X204238Y86683D02*X204578Y86343D01*
X204238Y86683D02*Y88723D01*
X204578Y89063D01*
X205598D01*
X205938Y88723D01*
Y88043D02*Y88723D01*
X205598Y87703D02*X205938Y88043D01*
X204918Y87703D02*X205598D01*
X158813Y91907D02*Y92927D01*
Y91907D02*X159153Y91567D01*
X159493D01*
X159833Y91907D01*
Y92927D01*
Y91907D02*X160173Y91567D01*
X160513D01*
X160853Y91907D01*
Y92927D01*
X158473Y91567D02*X158813Y91907D01*
X162009Y92927D02*X163029D01*
X161669Y92587D02*X162009Y92927D01*
X161669Y91907D02*Y92587D01*
Y91907D02*X162009Y91567D01*
X162689D01*
X163029Y91907D01*
X161669Y92247D02*X163029D01*
Y91907D02*Y92247D01*
X164866Y91567D02*X165206Y91907D01*
X164186Y91567D02*X164866D01*
X163846Y91907D02*X164186Y91567D01*
X163846Y91907D02*Y92587D01*
X164186Y92927D01*
X165206Y91567D02*Y92587D01*
X165546Y92927D01*
X164186D02*X164866D01*
X165206Y92587D01*
X166703Y92927D02*X167723D01*
X168063Y92587D01*
X167723Y92247D02*X168063Y92587D01*
X166703Y92247D02*X167723D01*
X166363Y91907D02*X166703Y92247D01*
X166363Y91907D02*X166703Y91567D01*
X167723D01*
X168063Y91907D01*
X166363Y92587D02*X166703Y92927D01*
X168879Y91567D02*Y92587D01*
X169219Y92927D01*
X169899D01*
X170239Y92587D01*
Y91567D02*Y92587D01*
X171396Y91907D02*Y92927D01*
Y91907D02*X171736Y91567D01*
X172416D01*
X171056D02*X171396Y91907D01*
X173573Y92927D02*X174593D01*
X173233Y92587D02*X173573Y92927D01*
X173233Y91907D02*Y92587D01*
Y91907D02*X173573Y91567D01*
X174253D01*
X174593Y91907D01*
X173233Y92247D02*X174593D01*
Y91907D02*Y92247D01*
X176973Y91907D02*Y92927D01*
Y91907D02*X177313Y91567D01*
X177993D01*
X176633D02*X176973Y91907D01*
X179150Y92927D02*X180170D01*
X178810Y92587D02*X179150Y92927D01*
X178810Y91907D02*Y92587D01*
Y91907D02*X179150Y91567D01*
X179830D01*
X180170Y91907D01*
X178810Y92247D02*X180170D01*
Y91907D02*Y92247D01*
X180987Y90207D02*Y92587D01*
X181327Y92927D01*
X183027Y91567D02*X183367Y91907D01*
X182347Y91567D02*X183027D01*
X182007Y91907D02*X182347Y91567D01*
X182007Y91907D02*Y92587D01*
X182347Y92927D01*
X183367Y91567D02*Y92587D01*
X183707Y92927D01*
X182347D02*X183027D01*
X183367Y92587D01*
X184864Y90207D02*Y92587D01*
X185204Y92927D01*
X184524Y91227D02*X185204D01*
X185885Y90887D02*Y91227D01*
Y91907D02*Y92927D01*
X186565Y91567D02*Y92247D01*
X187245Y92927D01*
X187925Y92247D01*
Y91567D02*Y92247D01*
X189082Y92927D02*X190102D01*
X188742Y92587D02*X189082Y92927D01*
X188742Y91907D02*Y92587D01*
Y91907D02*X189082Y91567D01*
X189762D01*
X190102Y91907D01*
X188742Y92247D02*X190102D01*
Y91907D02*Y92247D01*
X192483Y90207D02*Y92587D01*
X192823Y92927D01*
X192143Y91227D02*X192823D01*
X193503Y91907D02*Y92587D01*
Y91907D02*X193843Y91567D01*
X194523D01*
X194863Y91907D01*
Y92587D01*
X194523Y92927D02*X194863Y92587D01*
X193843Y92927D02*X194523D01*
X193503Y92587D02*X193843Y92927D01*
X198264Y90207D02*X198604Y90547D01*
X197244Y90207D02*X198264D01*
X196904Y90547D02*X197244Y90207D01*
X196904Y90547D02*Y92587D01*
X197244Y92927D01*
X198264D01*
X198604Y92587D01*
Y91907D02*Y92587D01*
X198264Y91567D02*X198604Y91907D01*
X197584Y91567D02*X198264D01*
X199421Y90207D02*Y92927D01*
Y90207D02*Y90547D01*
X201121Y92247D01*
Y90207D02*Y92927D01*
X202277Y90207D02*Y92927D01*
X203297Y90207D02*X203637Y90547D01*
Y92587D01*
X203297Y92927D02*X203637Y92587D01*
X201937Y92927D02*X203297D01*
X201937Y90207D02*X203297D01*
X158500Y86103D02*Y88863D01*
X159880D01*
X160708Y86103D02*Y88173D01*
X161398Y88863D01*
X162088Y88173D01*
Y86103D02*Y88173D01*
X164159Y88518D02*X164504Y88863D01*
X164159Y86448D02*Y88518D01*
Y86448D02*X164504Y86103D01*
X165194D01*
X165539Y86448D01*
Y88518D01*
X165194Y88863D02*X165539Y88518D01*
X164504Y88863D02*X165194D01*
X164159Y88173D02*X165539Y86793D01*
X166368Y87483D02*X167748D01*
X168576Y86448D02*X168921Y86103D01*
X169956D01*
X170301Y86448D01*
Y87138D01*
X168576Y88863D02*X170301Y87138D01*
X168576Y88863D02*X170301D01*
X171130D02*X171475D01*
X172304Y86103D02*X173684D01*
X172304D02*Y87483D01*
X172649Y87138D01*
X173339D01*
X173684Y87483D01*
Y88518D01*
X173339Y88863D02*X173684Y88518D01*
X172649Y88863D02*X173339D01*
X172304Y88518D02*X172649Y88863D01*
X174512Y86103D02*Y88173D01*
X175202Y88863D01*
X175892Y88173D01*
Y86103D02*Y88173D01*
X158500Y81603D02*Y84363D01*
X160225Y81603D02*Y84363D01*
X158500Y82983D02*X160225D01*
X161053Y81603D02*Y83673D01*
X161743Y84363D01*
X162433Y83673D01*
Y81603D02*Y83673D01*
X164504Y84018D02*X164849Y84363D01*
X164504Y81948D02*Y84018D01*
Y81948D02*X164849Y81603D01*
X165539D01*
X165884Y81948D01*
Y84018D01*
X165539Y84363D02*X165884Y84018D01*
X164849Y84363D02*X165539D01*
X164504Y83673D02*X165884Y82293D01*
X166713Y82983D02*X168093D01*
X168921D02*X170301Y81603D01*
X168921Y82983D02*X170646D01*
X170301Y81603D02*Y84363D01*
X171475Y84018D02*X171820Y84363D01*
X171475Y81948D02*Y84018D01*
Y81948D02*X171820Y81603D01*
X172510D01*
X172855Y81948D01*
Y84018D01*
X172510Y84363D02*X172855Y84018D01*
X171820Y84363D02*X172510D01*
X171475Y83673D02*X172855Y82293D01*
X173684Y81603D02*Y83673D01*
X174374Y84363D01*
X175064Y83673D01*
Y81603D02*Y83673D01*
X141925Y76242D02*Y78962D01*
Y76242D02*X142945Y77262D01*
X143965Y76242D01*
Y78962D01*
X144781Y76582D02*Y78962D01*
Y76582D02*X145121Y76242D01*
X146141D01*
X146481Y76582D01*
Y78962D01*
X144781Y77602D02*X146481D01*
X147298Y76242D02*X147978D01*
X147638D02*Y78962D01*
X147298D02*X147978D01*
X148795Y76242D02*Y78962D01*
Y76242D02*Y76582D01*
X150495Y78282D01*
Y76242D02*Y78962D01*
X152535Y76242D02*Y78962D01*
Y76242D02*X153555Y77262D01*
X154575Y76242D01*
Y78962D01*
X155732D02*X156752D01*
X155392Y78622D02*X155732Y78962D01*
X155392Y76582D02*Y78622D01*
Y76582D02*X155732Y76242D01*
X156752D01*
X157569D02*Y78622D01*
X157909Y78962D01*
X158589D01*
X158929Y78622D01*
Y76242D02*Y78622D01*
X31101Y75485D02*Y78205D01*
Y75485D02*X32121Y76505D01*
X33141Y75485D01*
Y78205D01*
X33957Y75825D02*Y78205D01*
Y75825D02*X34297Y75485D01*
X35317D01*
X35657Y75825D01*
Y78205D01*
X33957Y76845D02*X35657D01*
X36814Y75485D02*Y78205D01*
X37834Y75485D02*X38174Y75825D01*
Y77865D01*
X37834Y78205D02*X38174Y77865D01*
X36474Y78205D02*X37834D01*
X36474Y75485D02*X37834D01*
X38991Y76845D02*X40011D01*
X38991Y78205D02*X40351D01*
X38991Y75485D02*Y78205D01*
Y75485D02*X40351D01*
X42391D02*X43071D01*
X42731D02*Y78205D01*
X42391D02*X43071D01*
X43888Y75485D02*Y78205D01*
Y75485D02*Y75825D01*
X45588Y77525D01*
Y75485D02*Y78205D01*
X47629Y75485D02*Y78205D01*
X49329Y75485D02*Y78205D01*
X47629Y76845D02*X49329D01*
X50145Y75825D02*Y77865D01*
Y75825D02*X50485Y75485D01*
X51165D01*
X51505Y75825D01*
Y77865D01*
X51165Y78205D02*X51505Y77865D01*
X50485Y78205D02*X51165D01*
X50145Y77865D02*X50485Y78205D01*
X52322Y75485D02*Y78205D01*
Y75485D02*Y75825D01*
X54022Y77525D01*
Y75485D02*Y78205D01*
X56199Y75485D02*X56539Y75825D01*
X55179Y75485D02*X56199D01*
X54839Y75825D02*X55179Y75485D01*
X54839Y75825D02*Y77865D01*
X55179Y78205D01*
X56199D01*
X56539Y77865D01*
Y77185D02*Y77865D01*
X56199Y76845D02*X56539Y77185D01*
X55519Y76845D02*X56199D01*
X58579Y75485D02*Y78205D01*
Y76845D02*X59939Y75485D01*
X58579Y76845D02*X59939Y78205D01*
X60756Y75825D02*Y77865D01*
Y75825D02*X61096Y75485D01*
X61776D01*
X62116Y75825D01*
Y77865D01*
X61776Y78205D02*X62116Y77865D01*
X61096Y78205D02*X61776D01*
X60756Y77865D02*X61096Y78205D01*
X62933Y75485D02*Y78205D01*
Y75485D02*Y75825D01*
X64633Y77525D01*
Y75485D02*Y78205D01*
X66809Y75485D02*X67149Y75825D01*
X65789Y75485D02*X66809D01*
X65449Y75825D02*X65789Y75485D01*
X65449Y75825D02*Y77865D01*
X65789Y78205D01*
X66809D01*
X67149Y77865D01*
Y77185D02*Y77865D01*
X66809Y76845D02*X67149Y77185D01*
X66129Y76845D02*X66809D01*
X31239Y64731D02*Y67451D01*
Y64731D02*X32599D01*
X31239Y66091D02*X32259D01*
X33415D02*Y67111D01*
X33755Y67451D01*
X34435D01*
X34775Y67111D01*
Y66091D02*Y67111D01*
X35592Y64731D02*Y67111D01*
X35932Y67451D01*
X36953Y65071D02*Y67451D01*
Y65071D02*X37293Y64731D01*
X37633D01*
X36613Y66091D02*X37293D01*
X38313Y65411D02*Y65751D01*
Y66431D02*Y67451D01*
X38994Y64731D02*Y67111D01*
X39334Y67451D01*
X40015Y64731D02*Y67111D01*
X40355Y67451D01*
X41375Y66431D02*Y67451D01*
Y66431D02*X41715Y66091D01*
X42055D01*
X42395Y66431D01*
Y67451D01*
Y66431D02*X42735Y66091D01*
X43075D01*
X43415Y66431D01*
Y67451D01*
X41035Y66091D02*X41375Y66431D01*
X44572Y67451D02*X45592D01*
X44232Y67111D02*X44572Y67451D01*
X44232Y66431D02*Y67111D01*
Y66431D02*X44572Y66091D01*
X45252D01*
X45592Y66431D01*
X44232Y66771D02*X45592D01*
Y66431D02*Y66771D01*
X46749Y66431D02*Y67451D01*
Y66431D02*X47089Y66091D01*
X47429D01*
X47769Y66431D01*
Y67451D01*
X46409Y66091D02*X46749Y66431D01*
X48925Y64731D02*Y67111D01*
X49265Y67451D01*
X48585Y65751D02*X49265D01*
X51170Y64731D02*Y67451D01*
Y67111D02*X51510Y67451D01*
X52190D01*
X52530Y67111D01*
Y66431D02*Y67111D01*
X52190Y66091D02*X52530Y66431D01*
X51510Y66091D02*X52190D01*
X51170Y66431D02*X51510Y66091D01*
X53347D02*Y67111D01*
X53687Y67451D01*
X54707Y66091D02*Y68131D01*
X54367Y68471D02*X54707Y68131D01*
X53687Y68471D02*X54367D01*
X53347Y68131D02*X53687Y68471D01*
Y67451D02*X54367D01*
X54707Y67111D01*
X58107Y64731D02*X58447Y65071D01*
X57087Y64731D02*X58107D01*
X56747Y65071D02*X57087Y64731D01*
X56747Y65071D02*Y65751D01*
X57087Y66091D01*
X58107D01*
X58447Y66431D01*
Y67111D01*
X58107Y67451D02*X58447Y67111D01*
X57087Y67451D02*X58107D01*
X56747Y67111D02*X57087Y67451D01*
X59604D02*X60624D01*
X59264Y67111D02*X59604Y67451D01*
X59264Y66431D02*Y67111D01*
Y66431D02*X59604Y66091D01*
X60284D01*
X60624Y66431D01*
X59264Y66771D02*X60624D01*
Y66431D02*Y66771D01*
X61781Y67451D02*X62801D01*
X61441Y67111D02*X61781Y67451D01*
X61441Y66431D02*Y67111D01*
Y66431D02*X61781Y66091D01*
X62461D01*
X62801Y66431D01*
X61441Y66771D02*X62801D01*
Y66431D02*Y66771D01*
X63957Y67451D02*X64977D01*
X63617Y67111D02*X63957Y67451D01*
X63617Y66431D02*Y67111D01*
Y66431D02*X63957Y66091D01*
X64637D01*
X64977Y66431D01*
X63617Y66771D02*X64977D01*
Y66431D02*Y66771D01*
X67154Y64731D02*Y67451D01*
X66814D02*X67154Y67111D01*
X66134Y67451D02*X66814D01*
X65794Y67111D02*X66134Y67451D01*
X65794Y66431D02*Y67111D01*
Y66431D02*X66134Y66091D01*
X66814D01*
X67154Y66431D01*
X69331Y64731D02*X69671Y65071D01*
X68311Y64731D02*X69331D01*
X67971Y65071D02*X68311Y64731D01*
X67971Y65071D02*Y65751D01*
X68311Y66091D01*
X69331D01*
X69671Y66431D01*
Y67111D01*
X69331Y67451D02*X69671Y67111D01*
X68311Y67451D02*X69331D01*
X67971Y67111D02*X68311Y67451D01*
X70827Y64731D02*Y67111D01*
X71167Y67451D01*
X70487Y65751D02*X71167D01*
X71848Y66091D02*Y67111D01*
X72188Y67451D01*
X72868D01*
X73208Y67111D01*
Y66091D02*Y67111D01*
X75385Y64731D02*Y67451D01*
X75045D02*X75385Y67111D01*
X74365Y67451D02*X75045D01*
X74025Y67111D02*X74365Y67451D01*
X74025Y66431D02*Y67111D01*
Y66431D02*X74365Y66091D01*
X75045D01*
X75385Y66431D01*
X76201Y65411D02*Y65751D01*
Y66431D02*Y67451D01*
X76882Y66431D02*Y67111D01*
Y66431D02*X77222Y66091D01*
X77902D01*
X78242Y66431D01*
Y67111D01*
X77902Y67451D02*X78242Y67111D01*
X77222Y67451D02*X77902D01*
X76882Y67111D02*X77222Y67451D01*
X79527Y86453D02*X79867Y86113D01*
X80547D01*
X80887Y86453D01*
Y88493D01*
X80547Y88833D02*X80887Y88493D01*
X79867Y88833D02*X80547D01*
X79527Y88493D02*X79867Y88833D01*
Y87473D02*X80887D01*
X81703Y86113D02*Y88153D01*
X82383Y88833D01*
X83063Y88153D01*
Y86113D02*Y88153D01*
X83880Y86453D02*X84220Y86113D01*
X84900D01*
X85240Y86453D01*
Y88493D01*
X84900Y88833D02*X85240Y88493D01*
X84220Y88833D02*X84900D01*
X83880Y88493D02*X84220Y88833D01*
Y87473D02*X85240D01*
X95275Y108161D02*Y110201D01*
X95955Y110881D01*
X96635Y110201D01*
Y108161D02*Y110201D01*
X97451Y108161D02*X98131D01*
X97791D02*Y110881D01*
X97451D02*X98131D01*
X99288Y108161D02*Y110881D01*
X100308Y108161D02*X100648Y108501D01*
Y110541D01*
X100308Y110881D02*X100648Y110541D01*
X98948Y110881D02*X100308D01*
X98948Y108161D02*X100308D01*
X101465Y110881D02*X101805D01*
X103845Y108161D02*X105205D01*
X104525D02*Y110881D01*
X106022Y108161D02*X106702D01*
X106362D02*Y110881D01*
X106022D02*X106702D01*
X107519Y108161D02*Y110881D01*
Y108161D02*X108539Y109181D01*
X109559Y108161D01*
Y110881D01*
X110375Y108161D02*X111055D01*
X110715D02*Y110881D01*
X110375D02*X111055D01*
X111872Y108161D02*Y110881D01*
Y108161D02*Y108501D01*
X113572Y110201D01*
Y108161D02*Y110881D01*
X115749Y108161D02*X116089Y108501D01*
X114729Y108161D02*X115749D01*
X114389Y108501D02*X114729Y108161D01*
X114389Y108501D02*Y110541D01*
X114729Y110881D01*
X115749D01*
X116089Y110541D01*
Y109861D02*Y110541D01*
X115749Y109521D02*X116089Y109861D01*
X115069Y109521D02*X115749D01*
X132677Y114459D02*X134037D01*
X134377Y114799D01*
Y115479D01*
X134037Y115819D02*X134377Y115479D01*
X133017Y115819D02*X134037D01*
X133017Y114459D02*Y117179D01*
Y115819D02*X134377Y117179D01*
X135193Y116159D02*Y116839D01*
Y116159D02*X135533Y115819D01*
X136213D01*
X136553Y116159D01*
Y116839D01*
X136213Y117179D02*X136553Y116839D01*
X135533Y117179D02*X136213D01*
X135193Y116839D02*X135533Y117179D01*
X137370Y115819D02*Y116839D01*
X137710Y117179D01*
X138390D01*
X138730Y116839D01*
Y115819D02*Y116839D01*
X139887Y114459D02*Y116839D01*
X140227Y117179D01*
X139547Y115479D02*X140227D01*
X141247Y117179D02*X142267D01*
X140907Y116839D02*X141247Y117179D01*
X140907Y116159D02*Y116839D01*
Y116159D02*X141247Y115819D01*
X141927D01*
X142267Y116159D01*
X140907Y116499D02*X142267D01*
Y116159D02*Y116499D01*
X144444Y114459D02*Y117179D01*
X144104D02*X144444Y116839D01*
X143424Y117179D02*X144104D01*
X143084Y116839D02*X143424Y117179D01*
X143084Y116159D02*Y116839D01*
Y116159D02*X143424Y115819D01*
X144104D01*
X144444Y116159D01*
X146485Y114459D02*Y117179D01*
Y116839D02*X146825Y117179D01*
X147505D01*
X147845Y116839D01*
Y116159D02*Y116839D01*
X147505Y115819D02*X147845Y116159D01*
X146825Y115819D02*X147505D01*
X146485Y116159D02*X146825Y115819D01*
X148661D02*Y116839D01*
X149001Y117179D01*
X150021Y115819D02*Y117859D01*
X149681Y118199D02*X150021Y117859D01*
X149001Y118199D02*X149681D01*
X148661Y117859D02*X149001Y118199D01*
Y117179D02*X149681D01*
X150021Y116839D01*
X152062Y114459D02*Y117179D01*
Y116159D02*X152402Y115819D01*
X153082D01*
X153422Y116159D01*
Y117179D01*
X155259Y115819D02*X155599Y116159D01*
X154579Y115819D02*X155259D01*
X154239Y116159D02*X154579Y115819D01*
X154239Y116159D02*Y116839D01*
X154579Y117179D01*
X155599Y115819D02*Y116839D01*
X155939Y117179D01*
X154579D02*X155259D01*
X155599Y116839D01*
X157095Y116159D02*Y117179D01*
Y116159D02*X157435Y115819D01*
X157775D01*
X158115Y116159D01*
Y117179D01*
X156755Y115819D02*X157095Y116159D01*
X160292Y114459D02*Y117179D01*
X159952D02*X160292Y116839D01*
X159272Y117179D02*X159952D01*
X158932Y116839D02*X159272Y117179D01*
X158932Y116159D02*Y116839D01*
Y116159D02*X159272Y115819D01*
X159952D01*
X160292Y116159D01*
X135826Y82516D02*X136166Y82176D01*
X136846D01*
X137186Y82516D01*
Y84556D01*
X136846Y84896D02*X137186Y84556D01*
X136166Y84896D02*X136846D01*
X135826Y84556D02*X136166Y84896D01*
Y83536D02*X137186D01*
X138002Y82176D02*Y84216D01*
X138682Y84896D01*
X139362Y84216D01*
Y82176D02*Y84216D01*
X140179Y82516D02*X140519Y82176D01*
X141199D01*
X141539Y82516D01*
Y84556D01*
X141199Y84896D02*X141539Y84556D01*
X140519Y84896D02*X141199D01*
X140179Y84556D02*X140519Y84896D01*
Y83536D02*X141539D01*
X122442Y58553D02*X123802D01*
X123122D02*Y61273D01*
X124958D02*X125978D01*
X124618Y60933D02*X124958Y61273D01*
X124618Y60253D02*Y60933D01*
Y60253D02*X124958Y59913D01*
X125638D01*
X125978Y60253D01*
X124618Y60593D02*X125978D01*
Y60253D02*Y60593D01*
X127135Y60253D02*Y61273D01*
Y60253D02*X127475Y59913D01*
X127815D01*
X128155Y60253D01*
Y61273D01*
Y60253D02*X128495Y59913D01*
X128835D01*
X129175Y60253D01*
Y61273D01*
X126795Y59913D02*X127135Y60253D01*
X130332D02*Y62293D01*
X129992Y59913D02*X130332Y60253D01*
X130672Y59913D01*
X131352D01*
X131692Y60253D01*
Y60933D01*
X131352Y61273D02*X131692Y60933D01*
X130672Y61273D02*X131352D01*
X130332Y60933D02*X130672Y61273D01*
X100600Y53593D02*Y55633D01*
X101280Y56313D01*
X101960Y55633D01*
Y53593D02*Y55633D01*
X102776Y53933D02*Y55973D01*
Y53933D02*X103116Y53593D01*
X103796D01*
X104136Y53933D01*
Y55973D01*
X103796Y56313D02*X104136Y55973D01*
X103116Y56313D02*X103796D01*
X102776Y55973D02*X103116Y56313D01*
X104953Y53593D02*Y56313D01*
X106313D01*
X107130Y53593D02*X108490D01*
X107810D02*Y56313D01*
X110530Y53593D02*X111890D01*
X112230Y53933D01*
Y54613D01*
X111890Y54953D02*X112230Y54613D01*
X110870Y54953D02*X111890D01*
X110870Y53593D02*Y56313D01*
Y54953D02*X112230Y56313D01*
X113047Y54953D02*X114067D01*
X113047Y56313D02*X114407D01*
X113047Y53593D02*Y56313D01*
Y53593D02*X114407D01*
X115224D02*Y56313D01*
Y53593D02*X116584D01*
X115224Y54953D02*X116244D01*
X97243Y40444D02*X98603D01*
X97923D02*Y43164D01*
X99419Y40444D02*Y43164D01*
X101119Y40444D02*Y43164D01*
X99419Y41804D02*X101119D01*
X101936Y40444D02*X102616D01*
X102276D02*Y43164D01*
X101936D02*X102616D01*
X104793Y40444D02*X105133Y40784D01*
X103773Y40444D02*X104793D01*
X103433Y40784D02*X103773Y40444D01*
X103433Y40784D02*Y41464D01*
X103773Y41804D01*
X104793D01*
X105133Y42144D01*
Y42824D01*
X104793Y43164D02*X105133Y42824D01*
X103773Y43164D02*X104793D01*
X103433Y42824D02*X103773Y43164D01*
X107173Y40444D02*X107853D01*
X107513D02*Y43164D01*
X107173D02*X107853D01*
X110030Y40444D02*X110370Y40784D01*
X109010Y40444D02*X110030D01*
X108670Y40784D02*X109010Y40444D01*
X108670Y40784D02*Y41464D01*
X109010Y41804D01*
X110030D01*
X110370Y42144D01*
Y42824D01*
X110030Y43164D02*X110370Y42824D01*
X109010Y43164D02*X110030D01*
X108670Y42824D02*X109010Y43164D01*
X112411Y40784D02*Y42824D01*
Y40784D02*X112751Y40444D01*
X113431D01*
X113771Y40784D01*
Y42824D01*
X113431Y43164D02*X113771Y42824D01*
X112751Y43164D02*X113431D01*
X112411Y42824D02*X112751Y43164D01*
X114927Y40444D02*Y43164D01*
X114587Y40444D02*X115947D01*
X116287Y40784D01*
Y41464D01*
X115947Y41804D02*X116287Y41464D01*
X114927Y41804D02*X115947D01*
X117104D02*X118124D01*
X117104Y43164D02*X118464D01*
X117104Y40444D02*Y43164D01*
Y40444D02*X118464D01*
X119281D02*Y43164D01*
Y40444D02*Y40784D01*
X120981Y42484D01*
Y40444D02*Y43164D01*
X123021Y40444D02*Y43164D01*
X124721Y40444D02*Y43164D01*
X123021Y41804D02*X124721D01*
X125538Y40784D02*Y43164D01*
Y40784D02*X125878Y40444D01*
X126898D01*
X127238Y40784D01*
Y43164D01*
X125538Y41804D02*X127238D01*
X128055Y40444D02*X129415D01*
X129755Y40784D01*
Y41464D01*
X129415Y41804D02*X129755Y41464D01*
X128395Y41804D02*X129415D01*
X128395Y40444D02*Y43164D01*
Y41804D02*X129755Y43164D01*
X130911Y40444D02*Y43164D01*
X131931Y40444D02*X132271Y40784D01*
Y42824D01*
X131931Y43164D02*X132271Y42824D01*
X130571Y43164D02*X131931D01*
X130571Y40444D02*X131931D01*
X133088D02*Y43164D01*
X134108Y42144D01*
X135128Y43164D01*
Y40444D02*Y43164D01*
X135945Y40784D02*Y43164D01*
Y40784D02*X136285Y40444D01*
X137305D01*
X137645Y40784D01*
Y43164D01*
X135945Y41804D02*X137645D01*
X138461Y40444D02*X139821D01*
X140161Y40784D01*
Y41464D01*
X139821Y41804D02*X140161Y41464D01*
X138801Y41804D02*X139821D01*
X138801Y40444D02*Y43164D01*
Y41804D02*X140161Y43164D01*
X140978Y41804D02*X141998D01*
X140978Y43164D02*X142338D01*
X140978Y40444D02*Y43164D01*
Y40444D02*X142338D01*
X101181Y47923D02*Y49963D01*
X101861Y50643D01*
X102541Y49963D01*
Y47923D02*Y49963D01*
X103697Y49623D02*Y50643D01*
Y49623D02*X104037Y49283D01*
X104717D01*
X103357D02*X103697Y49623D01*
X105874Y50643D02*X106894D01*
X105534Y50303D02*X105874Y50643D01*
X105534Y49623D02*Y50303D01*
Y49623D02*X105874Y49283D01*
X106554D01*
X106894Y49623D01*
X105534Y49963D02*X106894D01*
Y49623D02*Y49963D01*
X108051Y48263D02*Y50643D01*
Y48263D02*X108391Y47923D01*
X108731D01*
X107711Y49283D02*X108391D01*
X110635Y48263D02*X110975Y47923D01*
X111995D01*
X112335Y48263D01*
Y48943D01*
X110635Y50643D02*X112335Y48943D01*
X110635Y50643D02*X112335D01*
X113152D02*X113492D01*
X114309Y47923D02*X115669D01*
X114309D02*Y49283D01*
X114649Y48943D01*
X115329D01*
X115669Y49283D01*
Y50303D01*
X115329Y50643D02*X115669Y50303D01*
X114649Y50643D02*X115329D01*
X114309Y50303D02*X114649Y50643D01*
X116485Y47923D02*Y49963D01*
X117165Y50643D01*
X117845Y49963D01*
Y47923D02*Y49963D01*
X130101Y49891D02*X130441Y50231D01*
X129081Y49891D02*X130101D01*
X128741Y50231D02*X129081Y49891D01*
X128741Y50231D02*Y50911D01*
X129081Y51251D01*
X130101D01*
X130441Y51591D01*
Y52271D01*
X130101Y52611D02*X130441Y52271D01*
X129081Y52611D02*X130101D01*
X128741Y52271D02*X129081Y52611D01*
X131257Y50231D02*Y52271D01*
Y50231D02*X131597Y49891D01*
X132277D01*
X132617Y50231D01*
Y52271D01*
X132277Y52611D02*X132617Y52271D01*
X131597Y52611D02*X132277D01*
X131257Y52271D02*X131597Y52611D01*
X133434Y49891D02*Y52611D01*
X134794D01*
X135951Y49891D02*Y52611D01*
X136971Y49891D02*X137311Y50231D01*
Y52271D01*
X136971Y52611D02*X137311Y52271D01*
X135611Y52611D02*X136971D01*
X135611Y49891D02*X136971D01*
X138127Y51251D02*X139147D01*
X138127Y52611D02*X139487D01*
X138127Y49891D02*Y52611D01*
Y49891D02*X139487D01*
X140304D02*X141664D01*
X142004Y50231D01*
Y50911D01*
X141664Y51251D02*X142004Y50911D01*
X140644Y51251D02*X141664D01*
X140644Y49891D02*Y52611D01*
Y51251D02*X142004Y52611D01*
X145405Y49891D02*X145745Y50231D01*
X144385Y49891D02*X145405D01*
X144045Y50231D02*X144385Y49891D01*
X144045Y50231D02*Y50911D01*
X144385Y51251D01*
X145405D01*
X145745Y51591D01*
Y52271D01*
X145405Y52611D02*X145745Y52271D01*
X144385Y52611D02*X145405D01*
X144045Y52271D02*X144385Y52611D01*
X146561Y49891D02*X147241D01*
X146901D02*Y52611D01*
X146561D02*X147241D01*
X148398Y49891D02*Y52611D01*
X149418Y49891D02*X149758Y50231D01*
Y52271D01*
X149418Y52611D02*X149758Y52271D01*
X148058Y52611D02*X149418D01*
X148058Y49891D02*X149418D01*
X150575Y51251D02*X151595D01*
X150575Y52611D02*X151935D01*
X150575Y49891D02*Y52611D01*
Y49891D02*X151935D01*
X199947Y31746D02*X200627D01*
X200287Y29026D02*Y31746D01*
X199607Y29706D02*X200287Y29026D01*
X201443Y31406D02*X201783Y31746D01*
X201443Y29366D02*Y31406D01*
Y29366D02*X201783Y29026D01*
X202463D01*
X202803Y29366D01*
Y31406D01*
X202463Y31746D02*X202803Y31406D01*
X201783Y31746D02*X202463D01*
X201443Y31066D02*X202803Y29706D01*
X203620Y31406D02*X203960Y31746D01*
X203620Y29366D02*Y31406D01*
Y29366D02*X203960Y29026D01*
X204640D01*
X204980Y29366D01*
Y31406D01*
X204640Y31746D02*X204980Y31406D01*
X203960Y31746D02*X204640D01*
X203620Y31066D02*X204980Y29706D01*
X206137Y30726D02*Y31746D01*
Y30726D02*X206477Y30386D01*
X206817D01*
X207157Y30726D01*
Y31746D01*
Y30726D02*X207497Y30386D01*
X207837D01*
X208177Y30726D01*
Y31746D01*
X205797Y30386D02*X206137Y30726D01*
X208993Y29366D02*Y31746D01*
Y29366D02*X209333Y29026D01*
X210353D01*
X210693Y29366D01*
Y31746D01*
X208993Y30386D02*X210693D01*
X212734Y29026D02*Y31746D01*
Y29026D02*X213754Y30046D01*
X214774Y29026D01*
Y31746D01*
X215591Y29366D02*Y31746D01*
Y29366D02*X215931Y29026D01*
X216951D01*
X217291Y29366D01*
Y31746D01*
X215591Y30386D02*X217291D01*
X218107Y29026D02*Y29366D01*
X219807Y31066D01*
Y31746D01*
X218107Y31066D02*Y31746D01*
Y31066D02*X219807Y29366D01*
Y29026D02*Y29366D01*
X220624Y31406D02*Y31746D01*
Y29026D02*Y30726D01*
X104724Y28970D02*Y31010D01*
Y28970D02*X105064Y28630D01*
X105744D01*
X106084Y28970D01*
Y31010D01*
X105744Y31350D02*X106084Y31010D01*
X105064Y31350D02*X105744D01*
X104724Y31010D02*X105064Y31350D01*
X107240Y28630D02*Y31350D01*
X106900Y28630D02*X108260D01*
X108600Y28970D01*
Y29650D01*
X108260Y29990D02*X108600Y29650D01*
X107240Y29990D02*X108260D01*
X109417D02*X110437D01*
X109417Y31350D02*X110777D01*
X109417Y28630D02*Y31350D01*
Y28630D02*X110777D01*
X111594D02*Y31350D01*
Y28630D02*Y28970D01*
X113294Y30670D01*
Y28630D02*Y31350D01*
X116694Y28630D02*X117034Y28970D01*
X115674Y28630D02*X116694D01*
X115334Y28970D02*X115674Y28630D01*
X115334Y28970D02*Y29650D01*
X115674Y29990D01*
X116694D01*
X117034Y30330D01*
Y31010D01*
X116694Y31350D02*X117034Y31010D01*
X115674Y31350D02*X116694D01*
X115334Y31010D02*X115674Y31350D01*
X117851Y28970D02*Y31010D01*
Y28970D02*X118191Y28630D01*
X118871D01*
X119211Y28970D01*
Y31010D01*
X118871Y31350D02*X119211Y31010D01*
X118191Y31350D02*X118871D01*
X117851Y31010D02*X118191Y31350D01*
X120028Y28630D02*Y31010D01*
X120368Y31350D01*
X121048D01*
X121388Y31010D01*
Y28630D02*Y31010D01*
X122204Y28630D02*X123564D01*
X123904Y28970D01*
Y29650D01*
X123564Y29990D02*X123904Y29650D01*
X122544Y29990D02*X123564D01*
X122544Y28630D02*Y31350D01*
Y29990D02*X123904Y31350D01*
X125061D02*X126081D01*
X124721Y31010D02*X125061Y31350D01*
X124721Y28970D02*Y31010D01*
Y28970D02*X125061Y28630D01*
X126081D01*
X126898Y29990D02*X127918D01*
X126898Y31350D02*X128258D01*
X126898Y28630D02*Y31350D01*
Y28630D02*X128258D01*
X130298Y28970D02*Y31010D01*
Y28970D02*X130638Y28630D01*
X131318D01*
X131658Y28970D01*
Y31010D01*
X131318Y31350D02*X131658Y31010D01*
X130638Y31350D02*X131318D01*
X130298Y31010D02*X130638Y31350D01*
X132475Y28630D02*Y31350D01*
Y28630D02*Y28970D01*
X134175Y30670D01*
Y28630D02*Y31350D01*
X137576Y28630D02*X137916Y28970D01*
X136556Y28630D02*X137576D01*
X136216Y28970D02*X136556Y28630D01*
X136216Y28970D02*Y29650D01*
X136556Y29990D01*
X137576D01*
X137916Y30330D01*
Y31010D01*
X137576Y31350D02*X137916Y31010D01*
X136556Y31350D02*X137576D01*
X136216Y31010D02*X136556Y31350D01*
X139072D02*X140092D01*
X138732Y31010D02*X139072Y31350D01*
X138732Y28970D02*Y31010D01*
Y28970D02*X139072Y28630D01*
X140092D01*
X140909D02*X142269D01*
X142609Y28970D01*
Y29650D01*
X142269Y29990D02*X142609Y29650D01*
X141249Y29990D02*X142269D01*
X141249Y28630D02*Y31350D01*
Y29990D02*X142609Y31350D01*
X143426Y29990D02*X144446D01*
X143426Y31350D02*X144786D01*
X143426Y28630D02*Y31350D01*
Y28630D02*X144786D01*
X145602Y29990D02*X146622D01*
X145602Y31350D02*X146962D01*
X145602Y28630D02*Y31350D01*
Y28630D02*X146962D01*
X147779D02*Y31350D01*
Y28630D02*Y28970D01*
X149479Y30670D01*
Y28630D02*Y31350D01*
X151860Y28630D02*Y31350D01*
X152880Y28630D02*X153220Y28970D01*
Y31010D01*
X152880Y31350D02*X153220Y31010D01*
X151520Y31350D02*X152880D01*
X151520Y28630D02*X152880D01*
X154036D02*X154716D01*
X154376D02*Y31350D01*
X154036D02*X154716D01*
X156893Y28630D02*X157233Y28970D01*
X155873Y28630D02*X156893D01*
X155533Y28970D02*X155873Y28630D01*
X155533Y28970D02*Y29650D01*
X155873Y29990D01*
X156893D01*
X157233Y30330D01*
Y31010D01*
X156893Y31350D02*X157233Y31010D01*
X155873Y31350D02*X156893D01*
X155533Y31010D02*X155873Y31350D01*
X158390Y28630D02*Y31350D01*
X158050Y28630D02*X159410D01*
X159750Y28970D01*
Y29650D01*
X159410Y29990D02*X159750Y29650D01*
X158390Y29990D02*X159410D01*
X160566Y28630D02*Y31350D01*
X161926D01*
X162743Y28970D02*Y31350D01*
Y28970D02*X163083Y28630D01*
X164103D01*
X164443Y28970D01*
Y31350D01*
X162743Y29990D02*X164443D01*
X165260Y28630D02*Y28970D01*
X165940Y29650D01*
X166620Y28970D01*
Y28630D02*Y28970D01*
X165940Y29650D02*Y31350D01*
X168661Y28630D02*Y31350D01*
Y28630D02*X169681Y29650D01*
X170701Y28630D01*
Y31350D01*
X171517Y28970D02*Y31010D01*
Y28970D02*X171857Y28630D01*
X172537D01*
X172877Y28970D01*
Y31010D01*
X172537Y31350D02*X172877Y31010D01*
X171857Y31350D02*X172537D01*
X171517Y31010D02*X171857Y31350D01*
X174034Y28630D02*Y31350D01*
X175054Y28630D02*X175394Y28970D01*
Y31010D01*
X175054Y31350D02*X175394Y31010D01*
X173694Y31350D02*X175054D01*
X173694Y28630D02*X175054D01*
X176211D02*Y31010D01*
X176551Y31350D01*
X177231D01*
X177571Y31010D01*
Y28630D02*Y31010D01*
X178387Y28630D02*Y31350D01*
X179747D01*
X180564Y29990D02*X181584D01*
X180564Y31350D02*X181924D01*
X180564Y28630D02*Y31350D01*
Y28630D02*X181924D01*
X216142Y13618D02*Y15998D01*
Y13618D02*X216482Y13278D01*
X217502D01*
X217842Y13618D01*
Y15998D01*
X216142Y14638D02*X217842D01*
X216141Y26234D02*X217501D01*
X217841Y25894D01*
Y25214D02*Y25894D01*
X217501Y24874D02*X217841Y25214D01*
X216481Y24874D02*X217501D01*
X216481Y23514D02*Y26234D01*
X216141Y23514D02*X217501D01*
X217841Y23854D01*
Y24534D01*
X217501Y24874D02*X217841Y24534D01*
X223954Y39493D02*X224309Y39138D01*
X223954Y39493D02*Y40558D01*
X224309Y40913D02*X223954Y40558D01*
X224309Y40913D02*X226439D01*
X226794Y40558D01*
Y39493D02*Y40558D01*
Y39493D02*X226439Y39138D01*
X225729D02*X226439D01*
X225374Y39493D02*X225729Y39138D01*
X225374Y39493D02*Y40203D01*
X223954Y37931D02*X226794D01*
X223954Y36866D02*Y38286D01*
Y36866D02*X224309Y36511D01*
X225019D01*
X225374Y36866D02*X225019Y36511D01*
X225374Y36866D02*Y37931D01*
X223954Y34238D02*X224309Y33883D01*
X223954Y34238D02*Y35303D01*
X224309Y35658D02*X223954Y35303D01*
X224309Y35658D02*X225019D01*
X225374Y35303D01*
Y34238D02*Y35303D01*
Y34238D02*X225729Y33883D01*
X226439D01*
X226794Y34238D02*X226439Y33883D01*
X226794Y34238D02*Y35303D01*
X226439Y35658D02*X226794Y35303D01*
X226439Y33030D02*X224309Y30900D01*
X223954Y30048D02*X226439D01*
X226794Y29693D01*
Y28983D02*Y29693D01*
Y28983D02*X226439Y28628D01*
X223954D02*X226439D01*
X224309Y27775D02*X226794D01*
X224309D02*X223954Y27420D01*
Y26355D02*Y27420D01*
Y26355D02*X224309Y26000D01*
X226794D01*
X225374D02*Y27775D01*
X223954Y23727D02*Y25147D01*
Y23727D02*X224309Y23372D01*
X225019D01*
X225374Y23727D02*X225019Y23372D01*
X225374Y23727D02*Y24792D01*
X223954D02*X226794D01*
X225374D02*X226794Y23372D01*
X223954Y21100D02*Y22520D01*
Y21810D02*X226794D01*
X228239Y39584D02*Y40944D01*
X229599D01*
X229259Y40604D01*
Y39924D02*Y40604D01*
Y39924D02*X229599Y39584D01*
X230619D01*
X230959Y39924D02*X230619Y39584D01*
X230959Y39924D02*Y40604D01*
X230619Y40944D02*X230959Y40604D01*
X228239Y38768D02*X230279D01*
X230959Y38088D01*
X230279Y37408D01*
X228239D02*X230279D01*
X228239Y35027D02*X230619D01*
X230959Y34687D01*
X229259D02*Y35367D01*
X229939Y34006D02*X230619D01*
X229939D02*X229599Y33666D01*
Y32986D02*Y33666D01*
Y32986D02*X229939Y32646D01*
X230619D01*
X230959Y32986D02*X230619Y32646D01*
X230959Y32986D02*Y33666D01*
X230619Y34006D02*X230959Y33666D01*
X228239Y31830D02*X230619D01*
X230959Y31490D01*
Y29449D02*Y30469D01*
X230619Y30809D02*X230959Y30469D01*
X229939Y30809D02*X230619D01*
X229939D02*X229599Y30469D01*
Y29789D02*Y30469D01*
Y29789D02*X229939Y29449D01*
X230279D02*Y30809D01*
X229939Y29449D02*X230279D01*
X229939Y28292D02*X230959D01*
X229939D02*X229599Y27952D01*
Y27272D02*Y27952D01*
Y28632D02*X229939Y28292D01*
X229599Y25436D02*X229939Y25096D01*
X229599Y25436D02*Y26116D01*
X229939Y26456D02*X229599Y26116D01*
X229939Y26456D02*X230619D01*
X230959Y26116D01*
X229599Y25096D02*X230619D01*
X230959Y24756D01*
Y25436D02*Y26116D01*
Y25436D02*X230619Y25096D01*
X229939Y23599D02*X230959D01*
X229939D02*X229599Y23259D01*
Y22919D02*Y23259D01*
Y22919D02*X229939Y22579D01*
X230959D01*
X229599Y23939D02*X229939Y23599D01*
X228239Y21422D02*X230619D01*
X230959Y21082D01*
X229259D02*Y21762D01*
X232180Y48053D02*Y49413D01*
Y48733D02*X234900D01*
X232180Y47237D02*X232520D01*
X234220Y45537D01*
X234900D01*
X234220Y47237D02*X234900D01*
X234220D02*X232520Y45537D01*
X232180D02*X232520D01*
X232180Y57053D02*Y58413D01*
Y57053D02*X232520Y56713D01*
X233200D01*
X233540Y57053D02*X233200Y56713D01*
X233540Y57053D02*Y58073D01*
X232180D02*X234900D01*
X233540D02*X234900Y56713D01*
X232180Y55897D02*X232520D01*
X234220Y54197D01*
X234900D01*
X234220Y55897D02*X234900D01*
X234220D02*X232520Y54197D01*
X232180D02*X232520D01*
X232180Y67553D02*X232520Y67213D01*
X232180Y67553D02*Y68573D01*
X232520Y68913D02*X232180Y68573D01*
X232520Y68913D02*X234560D01*
X234900Y68573D01*
Y67553D02*Y68573D01*
Y67553D02*X234560Y67213D01*
X233880D02*X234560D01*
X233540Y67553D02*X233880Y67213D01*
X233540Y67553D02*Y68233D01*
X232180Y66397D02*X234900D01*
X232180D02*X232520D01*
X234220Y64697D01*
X232180D02*X234900D01*
X232180Y63540D02*X234900D01*
X232180Y62520D02*X232520Y62180D01*
X234560D01*
X234900Y62520D02*X234560Y62180D01*
X234900Y62520D02*Y63880D01*
X232180Y62520D02*Y63880D01*
X219180Y70413D02*X221900D01*
X219180Y68713D02*X221900D01*
X220540D02*Y70413D01*
X219180Y67897D02*X221220D01*
X221900Y67217D01*
X221220Y66537D01*
X219180D02*X221220D01*
X219520Y65720D02*X219180Y65380D01*
Y64700D02*Y65380D01*
Y64700D02*X219520Y64360D01*
X221560D01*
X221900Y64700D02*X221560Y64360D01*
X221900Y64700D02*Y65380D01*
X221560Y65720D02*X221900Y65380D01*
X220540Y64360D02*Y65380D01*
X207565Y56413D02*X210050D01*
X207565D02*X207210Y56058D01*
Y54993D02*Y56058D01*
Y54993D02*X207565Y54638D01*
X210050D01*
X208630D02*Y56413D01*
X207210Y53786D02*X210050D01*
X207210D02*X207565D01*
X209340Y52011D01*
X207210D02*X210050D01*
X207565Y51158D02*X210050D01*
X207565D02*X207210Y50803D01*
Y49738D02*Y50803D01*
Y49738D02*X207565Y49383D01*
X210050D01*
X208630D02*Y51158D01*
X207210Y48530D02*X210050D01*
Y47110D02*Y48530D01*
X207565Y46258D02*X209695D01*
X207565D02*X207210Y45903D01*
Y45193D02*Y45903D01*
Y45193D02*X207565Y44838D01*
X209695D01*
X210050Y45193D02*X209695Y44838D01*
X210050Y45193D02*Y45903D01*
X209695Y46258D02*X210050Y45903D01*
X207210Y42565D02*X207565Y42210D01*
X207210Y42565D02*Y43630D01*
X207565Y43985D02*X207210Y43630D01*
X207565Y43985D02*X209695D01*
X210050Y43630D01*
Y42565D02*Y43630D01*
Y42565D02*X209695Y42210D01*
X208985D02*X209695D01*
X208630Y42565D02*X208985Y42210D01*
X208630Y42565D02*Y43275D01*
X207210Y40079D02*X210050D01*
Y38659D02*Y40079D01*
X207210Y37807D02*X209340D01*
X210050Y37097D01*
X209340Y36387D01*
X207210D02*X209340D01*
X94701Y68267D02*Y70987D01*
X96401Y68267D02*Y70987D01*
X94701Y69627D02*X96401D01*
X98237D02*X98577Y69967D01*
X97557Y69627D02*X98237D01*
X97217Y69967D02*X97557Y69627D01*
X97217Y69967D02*Y70647D01*
X97557Y70987D01*
X98577Y69627D02*Y70647D01*
X98917Y70987D01*
X97557D02*X98237D01*
X98577Y70647D01*
X100074Y69967D02*Y72007D01*
X99734Y69627D02*X100074Y69967D01*
X100414Y69627D01*
X101094D01*
X101434Y69967D01*
Y70647D01*
X101094Y70987D02*X101434Y70647D01*
X100414Y70987D02*X101094D01*
X100074Y70647D02*X100414Y70987D01*
X102591Y69967D02*Y72007D01*
X102251Y69627D02*X102591Y69967D01*
X102931Y69627D01*
X103611D01*
X103951Y69967D01*
Y70647D01*
X103611Y70987D02*X103951Y70647D01*
X102931Y70987D02*X103611D01*
X102591Y70647D02*X102931Y70987D01*
X104767Y69627D02*Y70647D01*
X105107Y70987D01*
X106127Y69627D02*Y71667D01*
X105787Y72007D02*X106127Y71667D01*
X105107Y72007D02*X105787D01*
X104767Y71667D02*X105107Y72007D01*
Y70987D02*X105787D01*
X106127Y70647D01*
X108168Y68267D02*Y70987D01*
X109868Y68267D02*Y70987D01*
X108168Y69627D02*X109868D01*
X111705D02*X112045Y69967D01*
X111025Y69627D02*X111705D01*
X110685Y69967D02*X111025Y69627D01*
X110685Y69967D02*Y70647D01*
X111025Y70987D01*
X112045Y69627D02*Y70647D01*
X112385Y70987D01*
X111025D02*X111705D01*
X112045Y70647D01*
X113541Y69627D02*X114561D01*
X113201Y69967D02*X113541Y69627D01*
X113201Y69967D02*Y70647D01*
X113541Y70987D01*
X114561D01*
X115378Y68267D02*Y70987D01*
Y69967D02*X116398Y70987D01*
X115378Y69967D02*X116058Y69287D01*
X117215Y68947D02*Y69287D01*
Y69967D02*Y70987D01*
X118235Y69967D02*Y70987D01*
Y69967D02*X118575Y69627D01*
X118915D01*
X119255Y69967D01*
Y70987D01*
X117895Y69627D02*X118235Y69967D01*
X121092Y69627D02*X121432Y69967D01*
X120412Y69627D02*X121092D01*
X120072Y69967D02*X120412Y69627D01*
X120072Y69967D02*Y70647D01*
X120412Y70987D01*
X121092D01*
X121432Y70647D01*
X120072Y71667D02*X120412Y72007D01*
X121092D01*
X121432Y71667D01*
Y69627D02*Y71667D01*
X123813Y68607D02*Y70987D01*
Y68607D02*X124153Y68267D01*
X124493D01*
X123473Y69627D02*X124153D01*
X125513Y69967D02*Y70987D01*
Y69967D02*X125853Y69627D01*
X126533D01*
X125173D02*X125513Y69967D01*
X127350D02*Y70647D01*
Y69967D02*X127690Y69627D01*
X128370D01*
X128710Y69967D01*
Y70647D01*
X128370Y70987D02*X128710Y70647D01*
X127690Y70987D02*X128370D01*
X127350Y70647D02*X127690Y70987D01*
X129867Y69967D02*Y70987D01*
Y69967D02*X130207Y69627D01*
X130547D01*
X130887Y69967D01*
Y70987D01*
Y69967D02*X131227Y69627D01*
X131567D01*
X131907Y69967D01*
Y70987D01*
X129527Y69627D02*X129867Y69967D01*
X133947Y68267D02*X135307D01*
X134627D02*Y70987D01*
X136124Y69967D02*Y70647D01*
Y69967D02*X136464Y69627D01*
X137144D01*
X137484Y69967D01*
Y70647D01*
X137144Y70987D02*X137484Y70647D01*
X136464Y70987D02*X137144D01*
X136124Y70647D02*X136464Y70987D01*
X138641Y69967D02*Y70987D01*
Y69967D02*X138981Y69627D01*
X139321D01*
X139661Y69967D01*
Y70987D01*
Y69967D02*X140001Y69627D01*
X140341D01*
X140681Y69967D01*
Y70987D01*
X138301Y69627D02*X138641Y69967D01*
X93982Y66887D02*X95002D01*
X95342Y66547D01*
X95002Y66207D02*X95342Y66547D01*
X93982Y66207D02*X95002D01*
X93642Y65867D02*X93982Y66207D01*
X93642Y65867D02*X93982Y65527D01*
X95002D01*
X95342Y65867D01*
X93642Y66547D02*X93982Y66887D01*
X96158Y65527D02*Y66547D01*
X96498Y66887D01*
X97178D01*
X97518Y66547D01*
Y65527D02*Y66547D01*
X99695Y64167D02*Y66887D01*
X99355D02*X99695Y66547D01*
X98675Y66887D02*X99355D01*
X98335Y66547D02*X98675Y66887D01*
X98335Y65867D02*Y66547D01*
Y65867D02*X98675Y65527D01*
X99355D01*
X99695Y65867D01*
X100512D02*Y66547D01*
Y65867D02*X100852Y65527D01*
X101532D01*
X101872Y65867D01*
Y66547D01*
X101532Y66887D02*X101872Y66547D01*
X100852Y66887D02*X101532D01*
X100512Y66547D02*X100852Y66887D01*
X104252Y65867D02*Y66887D01*
Y65867D02*X104592Y65527D01*
X104932D01*
X105272Y65867D01*
Y66887D01*
Y65867D02*X105612Y65527D01*
X105952D01*
X106292Y65867D01*
Y66887D01*
X103912Y65527D02*X104252Y65867D01*
X108129Y65527D02*X108469Y65867D01*
X107449Y65527D02*X108129D01*
X107109Y65867D02*X107449Y65527D01*
X107109Y65867D02*Y66547D01*
X107449Y66887D01*
X108469Y65527D02*Y66547D01*
X108809Y66887D01*
X107449D02*X108129D01*
X108469Y66547D01*
X109626Y64167D02*Y66887D01*
Y65867D02*X110646Y66887D01*
X109626Y65867D02*X110306Y65187D01*
X111802Y66887D02*X112822D01*
X111462Y66547D02*X111802Y66887D01*
X111462Y65867D02*Y66547D01*
Y65867D02*X111802Y65527D01*
X112482D01*
X112822Y65867D01*
X111462Y66207D02*X112822D01*
Y65867D02*Y66207D01*
X115203Y65867D02*Y66887D01*
Y65867D02*X115543Y65527D01*
X115883D01*
X116223Y65867D01*
Y66887D01*
Y65867D02*X116563Y65527D01*
X116903D01*
X117243Y65867D01*
Y66887D01*
X114863Y65527D02*X115203Y65867D01*
X118400Y66887D02*X119420D01*
X118060Y66547D02*X118400Y66887D01*
X118060Y65867D02*Y66547D01*
Y65867D02*X118400Y65527D01*
X119080D01*
X119420Y65867D01*
X118060Y66207D02*X119420D01*
Y65867D02*Y66207D01*
X122480Y65527D02*X122820Y65867D01*
X121800Y65527D02*X122480D01*
X121460Y65867D02*X121800Y65527D01*
X121460Y65867D02*Y66547D01*
X121800Y66887D01*
X122820Y65527D02*Y66547D01*
X123160Y66887D01*
X121800D02*X122480D01*
X122820Y66547D01*
X125541Y66887D02*X126561D01*
X126901Y66547D01*
X126561Y66207D02*X126901Y66547D01*
X125541Y66207D02*X126561D01*
X125201Y65867D02*X125541Y66207D01*
X125201Y65867D02*X125541Y65527D01*
X126561D01*
X126901Y65867D01*
X125201Y66547D02*X125541Y66887D01*
X128738Y65527D02*X129078Y65867D01*
X128058Y65527D02*X128738D01*
X127718Y65867D02*X128058Y65527D01*
X127718Y65867D02*Y66547D01*
X128058Y66887D01*
X129078Y65527D02*Y66547D01*
X129418Y66887D01*
X128058D02*X128738D01*
X129078Y66547D01*
X130574Y65867D02*Y66887D01*
Y65867D02*X130914Y65527D01*
X131254D01*
X131594Y65867D01*
Y66887D01*
X130234Y65527D02*X130574Y65867D01*
X133771Y64167D02*Y66887D01*
X133431D02*X133771Y66547D01*
X132751Y66887D02*X133431D01*
X132411Y66547D02*X132751Y66887D01*
X132411Y65867D02*Y66547D01*
Y65867D02*X132751Y65527D01*
X133431D01*
X133771Y65867D01*
X134588Y65527D02*Y66547D01*
X134928Y66887D01*
X135268D01*
X135608Y66547D01*
Y65527D02*Y66547D01*
X135948Y66887D01*
X136288D01*
X136628Y66547D01*
Y65527D02*Y66547D01*
X137444Y64847D02*Y65187D01*
Y65867D02*Y66887D01*
X138465Y65527D02*X139485D01*
X138125Y65867D02*X138465Y65527D01*
X138125Y65867D02*Y66547D01*
X138465Y66887D01*
X139485D01*
X140302Y64167D02*Y66887D01*
Y65867D02*X140642Y65527D01*
X141322D01*
X141662Y65867D01*
Y66887D01*
X144434Y44166D02*X145454D01*
X144094Y44506D02*X144434Y44166D01*
X144094Y44506D02*Y45186D01*
X144434Y45526D01*
X145454D01*
X146270Y44506D02*Y45186D01*
Y44506D02*X146610Y44166D01*
X147290D01*
X147630Y44506D01*
Y45186D01*
X147290Y45526D02*X147630Y45186D01*
X146610Y45526D02*X147290D01*
X146270Y45186D02*X146610Y45526D01*
X149807Y42806D02*Y45526D01*
X149467D02*X149807Y45186D01*
X148787Y45526D02*X149467D01*
X148447Y45186D02*X148787Y45526D01*
X148447Y44506D02*Y45186D01*
Y44506D02*X148787Y44166D01*
X149467D01*
X149807Y44506D01*
X150964Y45526D02*X151984D01*
X150624Y45186D02*X150964Y45526D01*
X150624Y44506D02*Y45186D01*
Y44506D02*X150964Y44166D01*
X151644D01*
X151984Y44506D01*
X150624Y44846D02*X151984D01*
Y44506D02*Y44846D01*
X152800Y45526D02*X153140D01*
X154977Y44166D02*X155317Y44506D01*
X154297Y44166D02*X154977D01*
X153957Y44506D02*X154297Y44166D01*
X153957Y44506D02*Y45186D01*
X154297Y45526D01*
X154977D01*
X155317Y45186D01*
X153957Y46206D02*X154297Y46546D01*
X154977D01*
X155317Y46206D01*
Y44166D02*Y46206D01*
X156134Y44506D02*Y45186D01*
Y44506D02*X156474Y44166D01*
X157154D01*
X157494Y44506D01*
Y45186D01*
X157154Y45526D02*X157494Y45186D01*
X156474Y45526D02*X157154D01*
X156134Y45186D02*X156474Y45526D01*
X158310Y44506D02*Y45186D01*
Y44506D02*X158650Y44166D01*
X159330D01*
X159670Y44506D01*
Y45186D01*
X159330Y45526D02*X159670Y45186D01*
X158650Y45526D02*X159330D01*
X158310Y45186D02*X158650Y45526D01*
X161507Y44166D02*X161847Y44506D01*
X160827Y44166D02*X161507D01*
X160487Y44506D02*X160827Y44166D01*
X160487Y44506D02*Y45186D01*
X160827Y45526D01*
X161507D01*
X161847Y45186D01*
X160487Y46206D02*X160827Y46546D01*
X161507D01*
X161847Y46206D01*
Y44166D02*Y46206D01*
X162664Y42806D02*Y45186D01*
X163004Y45526D01*
X164024D02*X165044D01*
X163684Y45186D02*X164024Y45526D01*
X163684Y44506D02*Y45186D01*
Y44506D02*X164024Y44166D01*
X164704D01*
X165044Y44506D01*
X163684Y44846D02*X165044D01*
Y44506D02*Y44846D01*
X165861Y45526D02*X166201D01*
X167358Y44166D02*X168378D01*
X167018Y44506D02*X167358Y44166D01*
X167018Y44506D02*Y45186D01*
X167358Y45526D01*
X168378D01*
X169194Y44506D02*Y45186D01*
Y44506D02*X169534Y44166D01*
X170214D01*
X170554Y44506D01*
Y45186D01*
X170214Y45526D02*X170554Y45186D01*
X169534Y45526D02*X170214D01*
X169194Y45186D02*X169534Y45526D01*
X171711Y44506D02*Y45526D01*
Y44506D02*X172051Y44166D01*
X172391D01*
X172731Y44506D01*
Y45526D01*
Y44506D02*X173071Y44166D01*
X173411D01*
X173751Y44506D01*
Y45526D01*
X171371Y44166D02*X171711Y44506D01*
X174568Y45186D02*X176608Y43146D01*
X177764Y44506D02*Y46546D01*
X177424Y44166D02*X177764Y44506D01*
X178104Y44166D01*
X178784D01*
X179124Y44506D01*
Y45186D01*
X178784Y45526D02*X179124Y45186D01*
X178104Y45526D02*X178784D01*
X177764Y45186D02*X178104Y45526D01*
X179941Y45186D02*X181981Y43146D01*
X183138Y45526D02*X184158D01*
X184498Y45186D01*
X184158Y44846D02*X184498Y45186D01*
X183138Y44846D02*X184158D01*
X182798Y44506D02*X183138Y44846D01*
X182798Y44506D02*X183138Y44166D01*
X184158D01*
X184498Y44506D01*
X182798Y45186D02*X183138Y45526D01*
X185314Y44166D02*Y45186D01*
X185654Y45526D01*
X186334D01*
X186674Y45186D01*
Y44166D02*Y45186D01*
X187831Y44506D02*Y46546D01*
X187491Y44166D02*X187831Y44506D01*
X188171Y44166D01*
X188851D01*
X189191Y44506D01*
Y45186D01*
X188851Y45526D02*X189191Y45186D01*
X188171Y45526D02*X188851D01*
X187831Y45186D02*X188171Y45526D01*
X190348D02*X191368D01*
X190008Y45186D02*X190348Y45526D01*
X190008Y44506D02*Y45186D01*
Y44506D02*X190348Y44166D01*
X191028D01*
X191368Y44506D01*
X190008Y44846D02*X191368D01*
Y44506D02*Y44846D01*
X192524Y44506D02*Y45526D01*
Y44506D02*X192864Y44166D01*
X193544D01*
X192184D02*X192524Y44506D01*
X194361Y44166D02*X195721D01*
X196538Y44506D02*Y45186D01*
Y44506D02*X196878Y44166D01*
X197558D01*
X197898Y44506D01*
Y45186D01*
X197558Y45526D02*X197898Y45186D01*
X196878Y45526D02*X197558D01*
X196538Y45186D02*X196878Y45526D01*
X199055D02*X200075D01*
X200415Y45186D01*
X200075Y44846D02*X200415Y45186D01*
X199055Y44846D02*X200075D01*
X198715Y44506D02*X199055Y44846D01*
X198715Y44506D02*X199055Y44166D01*
X200075D01*
X200415Y44506D01*
X198715Y45186D02*X199055Y45526D01*
X202591Y42806D02*Y45526D01*
X202251D02*X202591Y45186D01*
X201571Y45526D02*X202251D01*
X201231Y45186D02*X201571Y45526D01*
X201231Y44506D02*Y45186D01*
Y44506D02*X201571Y44166D01*
X202251D01*
X202591Y44506D01*
X159926Y56691D02*X160606D01*
X160266D02*Y59411D01*
X159926D02*X160606D01*
X161762D02*X162782D01*
X161422Y59071D02*X161762Y59411D01*
X161422Y57031D02*Y59071D01*
Y57031D02*X161762Y56691D01*
X162782D01*
X164959D02*X165299Y57031D01*
X163939Y56691D02*X164959D01*
X163599Y57031D02*X163939Y56691D01*
X163599Y57031D02*Y57711D01*
X163939Y58051D01*
X164959D01*
X165299Y58391D01*
Y59071D01*
X164959Y59411D02*X165299Y59071D01*
X163939Y59411D02*X164959D01*
X163599Y59071D02*X163939Y59411D01*
X166456Y56691D02*Y59411D01*
X166116Y56691D02*X167476D01*
X167816Y57031D01*
Y57711D01*
X167476Y58051D02*X167816Y57711D01*
X166456Y58051D02*X167476D01*
X168632Y59071D02*X170672Y57031D01*
X171489Y56691D02*X172169D01*
X171829D02*Y59411D01*
X171489D02*X172169D01*
X173326D02*X174346D01*
X172986Y59071D02*X173326Y59411D01*
X172986Y57031D02*Y59071D01*
Y57031D02*X173326Y56691D01*
X174346D01*
X175502D02*Y59411D01*
X176522Y56691D02*X176862Y57031D01*
Y59071D01*
X176522Y59411D02*X176862Y59071D01*
X175162Y59411D02*X176522D01*
X175162Y56691D02*X176522D01*
X179243Y57031D02*Y59411D01*
Y57031D02*X179583Y56691D01*
X179923D01*
X178903Y58051D02*X179583D01*
X180604Y58391D02*Y59071D01*
Y58391D02*X180944Y58051D01*
X181624D01*
X181964Y58391D01*
Y59071D01*
X181624Y59411D02*X181964Y59071D01*
X180944Y59411D02*X181624D01*
X180604Y59071D02*X180944Y59411D01*
X183120Y58391D02*Y59411D01*
Y58391D02*X183460Y58051D01*
X184140D01*
X182780D02*X183120Y58391D01*
X186521Y56691D02*Y59411D01*
X186181Y56691D02*X187541D01*
X187881Y57031D01*
Y57711D01*
X187541Y58051D02*X187881Y57711D01*
X186521Y58051D02*X187541D01*
X188698Y56691D02*X189378D01*
X189038D02*Y59411D01*
X188698D02*X189378D01*
X190534D02*X191554D01*
X190194Y59071D02*X190534Y59411D01*
X190194Y57031D02*Y59071D01*
Y57031D02*X190534Y56691D01*
X191554D01*
X192371Y57031D02*X192711Y56691D01*
X193731D01*
X194071Y57031D01*
Y57711D01*
X192371Y59411D02*X194071Y57711D01*
X192371Y59411D02*X194071D01*
X194888Y58051D02*X196248Y56691D01*
X194888Y58051D02*X196588D01*
X196248Y56691D02*Y59411D01*
X197404Y56691D02*Y59411D01*
Y56691D02*X198764D01*
X197404Y58051D02*X198424D01*
X155512Y62884D02*X156872D01*
X156192D02*Y65604D01*
X157688Y62884D02*Y65604D01*
Y64584D02*X158028Y64244D01*
X158708D01*
X159048Y64584D01*
Y65604D01*
X160885Y64244D02*X161225Y64584D01*
X160205Y64244D02*X160885D01*
X159865Y64584D02*X160205Y64244D01*
X159865Y64584D02*Y65264D01*
X160205Y65604D01*
X161225Y64244D02*Y65264D01*
X161565Y65604D01*
X160205D02*X160885D01*
X161225Y65264D01*
X162722Y64584D02*Y65604D01*
Y64584D02*X163062Y64244D01*
X163402D01*
X163742Y64584D01*
Y65604D01*
X162382Y64244D02*X162722Y64584D01*
X164558Y62884D02*Y65604D01*
Y64584D02*X165578Y65604D01*
X164558Y64584D02*X165238Y63904D01*
X166735Y65604D02*X167755D01*
X168095Y65264D01*
X167755Y64924D02*X168095Y65264D01*
X166735Y64924D02*X167755D01*
X166395Y64584D02*X166735Y64924D01*
X166395Y64584D02*X166735Y64244D01*
X167755D01*
X168095Y64584D01*
X166395Y65264D02*X166735Y65604D01*
X170476Y62884D02*Y65264D01*
X170816Y65604D01*
X170136Y63904D02*X170816D01*
X171496Y64584D02*Y65264D01*
Y64584D02*X171836Y64244D01*
X172516D01*
X172856Y64584D01*
Y65264D01*
X172516Y65604D02*X172856Y65264D01*
X171836Y65604D02*X172516D01*
X171496Y65264D02*X171836Y65604D01*
X175917Y64244D02*X176257Y64584D01*
X175237Y64244D02*X175917D01*
X174897Y64584D02*X175237Y64244D01*
X174897Y64584D02*Y65264D01*
X175237Y65604D01*
X176257Y64244D02*Y65264D01*
X176597Y65604D01*
X175237D02*X175917D01*
X176257Y65264D01*
X177414Y62884D02*Y65264D01*
X177754Y65604D01*
X178434Y62884D02*Y65264D01*
X178774Y65604D01*
X181019Y62884D02*Y65264D01*
X181359Y65604D01*
X180679Y63904D02*X181359D01*
X182040Y62884D02*Y65604D01*
Y64584D02*X182380Y64244D01*
X183060D01*
X183400Y64584D01*
Y65604D01*
X184216Y64584D02*Y65264D01*
Y64584D02*X184556Y64244D01*
X185236D01*
X185576Y64584D01*
Y65264D01*
X185236Y65604D02*X185576Y65264D01*
X184556Y65604D02*X185236D01*
X184216Y65264D02*X184556Y65604D01*
X186733D02*X187753D01*
X188093Y65264D01*
X187753Y64924D02*X188093Y65264D01*
X186733Y64924D02*X187753D01*
X186393Y64584D02*X186733Y64924D01*
X186393Y64584D02*X186733Y64244D01*
X187753D01*
X188093Y64584D01*
X186393Y65264D02*X186733Y65604D01*
X189250D02*X190270D01*
X188910Y65264D02*X189250Y65604D01*
X188910Y64584D02*Y65264D01*
Y64584D02*X189250Y64244D01*
X189930D01*
X190270Y64584D01*
X188910Y64924D02*X190270D01*
Y64584D02*Y64924D01*
X192310Y64244D02*Y65264D01*
X192650Y65604D01*
X192990D01*
X193330Y65264D01*
Y64244D02*Y65264D01*
X193670Y65604D01*
X194010D01*
X194350Y65264D01*
Y64244D02*Y65264D01*
X195167Y62884D02*Y65604D01*
Y64584D02*X195507Y64244D01*
X196187D01*
X196527Y64584D01*
Y65604D01*
X197344Y64584D02*Y65264D01*
Y64584D02*X197684Y64244D01*
X198364D01*
X198704Y64584D01*
Y65264D01*
X198364Y65604D02*X198704Y65264D01*
X197684Y65604D02*X198364D01*
X197344Y65264D02*X197684Y65604D01*
X155459Y68737D02*Y71117D01*
Y68737D02*X155799Y68397D01*
X156139D01*
X155119Y69757D02*X155799D01*
X156819D02*Y70777D01*
X157159Y71117D01*
X157839D01*
X158179Y70777D01*
Y69757D02*Y70777D01*
X159336Y70097D02*Y71117D01*
Y70097D02*X159676Y69757D01*
X160016D01*
X160356Y70097D01*
Y71117D01*
X158996Y69757D02*X159336Y70097D01*
X162533Y68397D02*Y71117D01*
X162193D02*X162533Y70777D01*
X161513Y71117D02*X162193D01*
X161173Y70777D02*X161513Y71117D01*
X161173Y70097D02*Y70777D01*
Y70097D02*X161513Y69757D01*
X162193D01*
X162533Y70097D01*
X163689Y71117D02*X164709D01*
X163349Y70777D02*X163689Y71117D01*
X163349Y70097D02*Y70777D01*
Y70097D02*X163689Y69757D01*
X164369D01*
X164709Y70097D01*
X163349Y70437D02*X164709D01*
Y70097D02*Y70437D01*
X166886Y68397D02*Y71117D01*
X166546D02*X166886Y70777D01*
X165866Y71117D02*X166546D01*
X165526Y70777D02*X165866Y71117D01*
X165526Y70097D02*Y70777D01*
Y70097D02*X165866Y69757D01*
X166546D01*
X166886Y70097D01*
X169267D02*Y71117D01*
Y70097D02*X169607Y69757D01*
X169947D01*
X170287Y70097D01*
Y71117D01*
Y70097D02*X170627Y69757D01*
X170967D01*
X171307Y70097D01*
Y71117D01*
X168927Y69757D02*X169267Y70097D01*
X172463Y71117D02*X173483D01*
X172123Y70777D02*X172463Y71117D01*
X172123Y70097D02*Y70777D01*
Y70097D02*X172463Y69757D01*
X173143D01*
X173483Y70097D01*
X172123Y70437D02*X173483D01*
Y70097D02*Y70437D01*
X175524Y70097D02*Y70777D01*
Y70097D02*X175864Y69757D01*
X176544D01*
X176884Y70097D01*
Y70777D01*
X176544Y71117D02*X176884Y70777D01*
X175864Y71117D02*X176544D01*
X175524Y70777D02*X175864Y71117D01*
X178041Y70097D02*Y71117D01*
Y70097D02*X178381Y69757D01*
X178721D01*
X179061Y70097D01*
Y71117D01*
X177701Y69757D02*X178041Y70097D01*
X181101Y68397D02*X181781D01*
X181441D02*Y71117D01*
X181101D02*X181781D01*
X182938Y70097D02*Y71117D01*
Y70097D02*X183278Y69757D01*
X183618D01*
X183958Y70097D01*
Y71117D01*
X182598Y69757D02*X182938Y70097D01*
X186135Y68397D02*Y71117D01*
X185795D02*X186135Y70777D01*
X185115Y71117D02*X185795D01*
X184775Y70777D02*X185115Y71117D01*
X184775Y70097D02*Y70777D01*
Y70097D02*X185115Y69757D01*
X185795D01*
X186135Y70097D01*
X186951Y69077D02*Y69417D01*
Y70097D02*Y71117D01*
X187972D02*X188992D01*
X187632Y70777D02*X187972Y71117D01*
X187632Y70097D02*Y70777D01*
Y70097D02*X187972Y69757D01*
X188652D01*
X188992Y70097D01*
X187632Y70437D02*X188992D01*
Y70097D02*Y70437D01*
X191169Y68397D02*X191509Y68737D01*
X190149Y68397D02*X191169D01*
X189809Y68737D02*X190149Y68397D01*
X189809Y68737D02*Y70777D01*
X190149Y71117D01*
X191169D01*
X191509Y70777D01*
Y70097D02*Y70777D01*
X191169Y69757D02*X191509Y70097D01*
X190489Y69757D02*X191169D01*
X192325Y70097D02*Y70777D01*
Y70097D02*X192665Y69757D01*
X193345D01*
X193685Y70097D01*
Y70777D01*
X193345Y71117D02*X193685Y70777D01*
X192665Y71117D02*X193345D01*
X192325Y70777D02*X192665Y71117D01*
X195862Y68397D02*X196202Y68737D01*
X194842Y68397D02*X195862D01*
X194502Y68737D02*X194842Y68397D01*
X194502Y68737D02*Y70777D01*
X194842Y71117D01*
X195862D01*
X196202Y70777D01*
Y70097D02*Y70777D01*
X195862Y69757D02*X196202Y70097D01*
X195182Y69757D02*X195862D01*
X197019Y70097D02*Y70777D01*
Y70097D02*X197359Y69757D01*
X198039D01*
X198379Y70097D01*
Y70777D01*
X198039Y71117D02*X198379Y70777D01*
X197359Y71117D02*X198039D01*
X197019Y70777D02*X197359Y71117D01*
X199195Y70777D02*Y71117D01*
Y68397D02*Y70097D01*
X144093Y40230D02*Y41250D01*
X144433Y41590D01*
X144773D01*
X145113Y41250D01*
Y40230D02*Y41250D01*
X145453Y41590D01*
X145793D01*
X146133Y41250D01*
Y40230D02*Y41250D01*
X146949Y40230D02*Y41250D01*
X147289Y41590D01*
X147629D01*
X147969Y41250D01*
Y40230D02*Y41250D01*
X148309Y41590D01*
X148649D01*
X148989Y41250D01*
Y40230D02*Y41250D01*
X149806Y40230D02*Y41250D01*
X150146Y41590D01*
X150486D01*
X150826Y41250D01*
Y40230D02*Y41250D01*
X151166Y41590D01*
X151506D01*
X151846Y41250D01*
Y40230D02*Y41250D01*
X152663Y41590D02*X153003D01*
X154159D02*X155179D01*
X155519Y41250D01*
X155179Y40910D02*X155519Y41250D01*
X154159Y40910D02*X155179D01*
X153819Y40570D02*X154159Y40910D01*
X153819Y40570D02*X154159Y40230D01*
X155179D01*
X155519Y40570D01*
X153819Y41250D02*X154159Y41590D01*
X156336Y40230D02*Y41250D01*
X156676Y41590D01*
X157356D01*
X157696Y41250D01*
Y40230D02*Y41250D01*
X158853Y40570D02*Y42610D01*
X158513Y40230D02*X158853Y40570D01*
X159193Y40230D01*
X159873D01*
X160213Y40570D01*
Y41250D01*
X159873Y41590D02*X160213Y41250D01*
X159193Y41590D02*X159873D01*
X158853Y41250D02*X159193Y41590D01*
X161369D02*X162389D01*
X161029Y41250D02*X161369Y41590D01*
X161029Y40570D02*Y41250D01*
Y40570D02*X161369Y40230D01*
X162049D01*
X162389Y40570D01*
X161029Y40910D02*X162389D01*
Y40570D02*Y40910D01*
X163546Y40570D02*Y41590D01*
Y40570D02*X163886Y40230D01*
X164566D01*
X163206D02*X163546Y40570D01*
X165383Y40230D02*X166743D01*
X167559Y40570D02*Y41250D01*
Y40570D02*X167899Y40230D01*
X168579D01*
X168919Y40570D01*
Y41250D01*
X168579Y41590D02*X168919Y41250D01*
X167899Y41590D02*X168579D01*
X167559Y41250D02*X167899Y41590D01*
X170076D02*X171096D01*
X171436Y41250D01*
X171096Y40910D02*X171436Y41250D01*
X170076Y40910D02*X171096D01*
X169736Y40570D02*X170076Y40910D01*
X169736Y40570D02*X170076Y40230D01*
X171096D01*
X171436Y40570D01*
X169736Y41250D02*X170076Y41590D01*
X173613Y38870D02*Y41590D01*
X173273D02*X173613Y41250D01*
X172593Y41590D02*X173273D01*
X172253Y41250D02*X172593Y41590D01*
X172253Y40570D02*Y41250D01*
Y40570D02*X172593Y40230D01*
X173273D01*
X173613Y40570D01*
X174429Y41590D02*X174769D01*
X175926Y40230D02*X176946D01*
X175586Y40570D02*X175926Y40230D01*
X175586Y40570D02*Y41250D01*
X175926Y41590D01*
X176946D01*
X177763Y40570D02*Y41250D01*
Y40570D02*X178103Y40230D01*
X178783D01*
X179123Y40570D01*
Y41250D01*
X178783Y41590D02*X179123Y41250D01*
X178103Y41590D02*X178783D01*
X177763Y41250D02*X178103Y41590D01*
X180279Y40570D02*Y41590D01*
Y40570D02*X180619Y40230D01*
X180959D01*
X181299Y40570D01*
Y41590D01*
Y40570D02*X181639Y40230D01*
X181979D01*
X182319Y40570D01*
Y41590D01*
X179939Y40230D02*X180279Y40570D01*
X82623Y119935D02*X83643D01*
X82283Y119595D02*X82623Y119935D01*
X82283Y117555D02*Y119595D01*
Y117555D02*X82623Y117215D01*
X83643D01*
X84459D02*Y119935D01*
X85819D01*
X86636Y117215D02*Y119935D01*
Y118575D02*X87996Y117215D01*
X86636Y118575D02*X87996Y119935D01*
X90173Y117215D02*X90513Y117555D01*
X89153Y117215D02*X90173D01*
X88813Y117555D02*X89153Y117215D01*
X88813Y117555D02*Y118235D01*
X89153Y118575D01*
X90173D01*
X90513Y118915D01*
Y119595D01*
X90173Y119935D02*X90513Y119595D01*
X89153Y119935D02*X90173D01*
X88813Y119595D02*X89153Y119935D01*
X86221Y108161D02*Y110881D01*
X87921Y108161D02*Y110881D01*
X86221Y109521D02*X87921D01*
X90097Y108161D02*X90437Y108501D01*
X89077Y108161D02*X90097D01*
X88737Y108501D02*X89077Y108161D01*
X88737Y108501D02*Y109181D01*
X89077Y109521D01*
X90097D01*
X90437Y109861D01*
Y110541D01*
X90097Y110881D02*X90437Y110541D01*
X89077Y110881D02*X90097D01*
X88737Y110541D02*X89077Y110881D01*
X80314Y108160D02*Y110200D01*
X80994Y110880D01*
X81674Y110200D01*
Y108160D02*Y110200D01*
X83850Y108160D02*X84190Y108500D01*
X82830Y108160D02*X83850D01*
X82490Y108500D02*X82830Y108160D01*
X82490Y108500D02*Y109180D01*
X82830Y109520D01*
X83850D01*
X84190Y109860D01*
Y110540D01*
X83850Y110880D02*X84190Y110540D01*
X82830Y110880D02*X83850D01*
X82490Y110540D02*X82830Y110880D01*
X97000Y120433D02*Y122813D01*
Y120433D02*X97340Y120093D01*
X98360D01*
X98700Y120433D01*
Y122813D01*
X97000Y121453D02*X98700D01*
X99856Y122813D02*X100876D01*
X99516Y122473D02*X99856Y122813D01*
X99516Y120433D02*Y122473D01*
Y120433D02*X99856Y120093D01*
X100876D01*
X101693D02*Y122813D01*
X103393Y120093D02*Y122813D01*
X101693Y121453D02*X103393D01*
X94000Y89593D02*X95360D01*
X95700Y89933D01*
Y90613D01*
X95360Y90953D02*X95700Y90613D01*
X94340Y90953D02*X95360D01*
X94340Y89593D02*Y92313D01*
Y90953D02*X95700Y92313D01*
X96516Y89593D02*Y89933D01*
X98216Y91633D01*
Y92313D01*
X96516Y91633D02*Y92313D01*
Y91633D02*X98216Y89933D01*
Y89593D02*Y89933D01*
X94000Y85093D02*X95360D01*
X94680D02*Y87813D01*
X96176Y85093D02*Y85433D01*
X97876Y87133D01*
Y87813D01*
X96176Y87133D02*Y87813D01*
Y87133D02*X97876Y85433D01*
Y85093D02*Y85433D01*
X94340Y83313D02*X95360D01*
X94000Y82973D02*X94340Y83313D01*
X94000Y80933D02*Y82973D01*
Y80933D02*X94340Y80593D01*
X95360D01*
X96176D02*X97536D01*
X96856D02*Y83313D01*
X99713Y80593D02*X100053Y80933D01*
X98693Y80593D02*X99713D01*
X98353Y80933D02*X98693Y80593D01*
X98353Y80933D02*Y81613D01*
X98693Y81953D01*
X99713D01*
X100053Y82293D01*
Y82973D01*
X99713Y83313D02*X100053Y82973D01*
X98693Y83313D02*X99713D01*
X98353Y82973D02*X98693Y83313D01*
X94000Y76546D02*X95360D01*
X95700Y76886D01*
Y77566D01*
X95360Y77906D02*X95700Y77566D01*
X94340Y77906D02*X95360D01*
X94340Y76546D02*Y79266D01*
Y77906D02*X95700Y79266D01*
X96516Y76546D02*X97876D01*
X97196D02*Y79266D01*
X100053Y76546D02*X100393Y76886D01*
X99033Y76546D02*X100053D01*
X98693Y76886D02*X99033Y76546D01*
X98693Y76886D02*Y77566D01*
X99033Y77906D01*
X100053D01*
X100393Y78246D01*
Y78926D01*
X100053Y79266D02*X100393Y78926D01*
X99033Y79266D02*X100053D01*
X98693Y78926D02*X99033Y79266D01*
X70866Y116428D02*Y119148D01*
X72226D01*
X73042Y116428D02*Y118468D01*
X73722Y119148D01*
X74402Y118468D01*
Y116428D02*Y118468D01*
X75219Y116428D02*Y119148D01*
X76579D01*
X58268Y116429D02*Y119149D01*
Y116429D02*X59288Y117449D01*
X60308Y116429D01*
Y119149D01*
X62484Y116429D02*X62824Y116769D01*
X61464Y116429D02*X62484D01*
X61124Y116769D02*X61464Y116429D01*
X61124Y116769D02*Y117449D01*
X61464Y117789D01*
X62484D01*
X62824Y118129D01*
Y118809D01*
X62484Y119149D02*X62824Y118809D01*
X61464Y119149D02*X62484D01*
X61124Y118809D02*X61464Y119149D01*
X63641Y116429D02*Y119149D01*
Y117789D02*X65001Y116429D01*
X63641Y117789D02*X65001Y119149D01*
X71994Y110880D02*X73014D01*
X71654Y110540D02*X71994Y110880D01*
X71654Y108500D02*Y110540D01*
Y108500D02*X71994Y108160D01*
X73014D01*
X75190D02*X75530Y108500D01*
X74170Y108160D02*X75190D01*
X73830Y108500D02*X74170Y108160D01*
X73830Y108500D02*Y109180D01*
X74170Y109520D01*
X75190D01*
X75530Y109860D01*
Y110540D01*
X75190Y110880D02*X75530Y110540D01*
X74170Y110880D02*X75190D01*
X73830Y110540D02*X74170Y110880D01*
X65747Y110878D02*X67107D01*
X67447Y110538D01*
Y109858D02*Y110538D01*
X67107Y109518D02*X67447Y109858D01*
X66087Y109518D02*X67107D01*
X66087Y108158D02*Y110878D01*
X65747Y108158D02*X67107D01*
X67447Y108498D01*
Y109178D01*
X67107Y109518D02*X67447Y109178D01*
X68603Y108158D02*Y110878D01*
X68263Y108158D02*X69623D01*
X69963Y108498D01*
Y109178D01*
X69623Y109518D02*X69963Y109178D01*
X68603Y109518D02*X69623D01*
X60631Y108499D02*Y110539D01*
Y108499D02*X60971Y108159D01*
X61651D01*
X61991Y108499D01*
Y110539D01*
X61651Y110879D02*X61991Y110539D01*
X60971Y110879D02*X61651D01*
X60631Y110539D02*X60971Y110879D01*
X62807Y109519D02*X63827D01*
X62807Y110879D02*X64167D01*
X62807Y108159D02*Y110879D01*
Y108159D02*X64167D01*
X59646Y121543D02*Y123583D01*
Y121543D02*X59986Y121203D01*
X60666D01*
X61006Y121543D01*
Y123583D01*
X60666Y123923D02*X61006Y123583D01*
X59986Y123923D02*X60666D01*
X59646Y123583D02*X59986Y123923D01*
X63182Y121203D02*X63522Y121543D01*
X62162Y121203D02*X63182D01*
X61822Y121543D02*X62162Y121203D01*
X61822Y121543D02*Y122223D01*
X62162Y122563D01*
X63182D01*
X63522Y122903D01*
Y123583D01*
X63182Y123923D02*X63522Y123583D01*
X62162Y123923D02*X63182D01*
X61822Y123583D02*X62162Y123923D01*
X64679Y121203D02*Y123923D01*
X65699Y121203D02*X66039Y121543D01*
Y123583D01*
X65699Y123923D02*X66039Y123583D01*
X64339Y123923D02*X65699D01*
X64339Y121203D02*X65699D01*
X69440D02*Y123923D01*
X69100D02*X69440Y123583D01*
X68420Y123923D02*X69100D01*
X68080Y123583D02*X68420Y123923D01*
X68080Y122903D02*Y123583D01*
Y122903D02*X68420Y122563D01*
X69100D01*
X69440Y122903D01*
X71276Y122563D02*X71616Y122903D01*
X70596Y122563D02*X71276D01*
X70256Y122903D02*X70596Y122563D01*
X70256Y122903D02*Y123583D01*
X70596Y123923D01*
X71616Y122563D02*Y123583D01*
X71956Y123923D01*
X70596D02*X71276D01*
X71616Y123583D01*
X73113Y121203D02*Y123583D01*
X73453Y123923D01*
X72773Y122223D02*X73453D01*
X75154Y122563D02*X75494Y122903D01*
X74474Y122563D02*X75154D01*
X74134Y122903D02*X74474Y122563D01*
X74134Y122903D02*Y123583D01*
X74474Y123923D01*
X75494Y122563D02*Y123583D01*
X75834Y123923D01*
X74474D02*X75154D01*
X75494Y123583D01*
X45473Y94569D02*X45813Y94909D01*
X44453Y94569D02*X45473D01*
X44113Y94909D02*X44453Y94569D01*
X44113Y94909D02*Y95589D01*
X44453Y95929D01*
X45473D01*
X45813Y96269D01*
Y96949D01*
X45473Y97289D02*X45813Y96949D01*
X44453Y97289D02*X45473D01*
X44113Y96949D02*X44453Y97289D01*
X46629Y95929D02*X47649D01*
X46629Y97289D02*X47989D01*
X46629Y94569D02*Y97289D01*
Y94569D02*X47989D01*
X49146D02*Y97289D01*
X48806Y94569D02*X50166D01*
X50506Y94909D01*
Y95589D01*
X50166Y95929D02*X50506Y95589D01*
X49146Y95929D02*X50166D01*
X44473Y90069D02*X44813Y90409D01*
X43453Y90069D02*X44473D01*
X43113Y90409D02*X43453Y90069D01*
X43113Y90409D02*Y91089D01*
X43453Y91429D01*
X44473D01*
X44813Y91769D01*
Y92449D01*
X44473Y92789D02*X44813Y92449D01*
X43453Y92789D02*X44473D01*
X43113Y92449D02*X43453Y92789D01*
X45629Y90069D02*Y90409D01*
X46309Y91089D01*
X46989Y90409D01*
Y90069D02*Y90409D01*
X46309Y91089D02*Y92789D01*
X47806Y90069D02*Y92789D01*
Y90069D02*Y90409D01*
X49506Y92109D01*
Y90069D02*Y92789D01*
X50663D02*X51683D01*
X50323Y92449D02*X50663Y92789D01*
X50323Y90409D02*Y92449D01*
Y90409D02*X50663Y90069D01*
X51683D01*
X67894Y91220D02*Y93260D01*
Y91220D02*X68234Y90880D01*
X68914D01*
X69254Y91220D01*
Y93260D01*
X68914Y93600D02*X69254Y93260D01*
X68234Y93600D02*X68914D01*
X67894Y93260D02*X68234Y93600D01*
X71430Y90880D02*X71770Y91220D01*
X70410Y90880D02*X71430D01*
X70070Y91220D02*X70410Y90880D01*
X70070Y91220D02*Y91900D01*
X70410Y92240D01*
X71430D01*
X71770Y92580D01*
Y93260D01*
X71430Y93600D02*X71770Y93260D01*
X70410Y93600D02*X71430D01*
X70070Y93260D02*X70410Y93600D01*
X72927Y90880D02*Y93600D01*
X73947Y90880D02*X74287Y91220D01*
Y93260D01*
X73947Y93600D02*X74287Y93260D01*
X72587Y93600D02*X73947D01*
X72587Y90880D02*X73947D01*
X76668D02*Y93600D01*
X77688Y90880D02*X78028Y91220D01*
Y93260D01*
X77688Y93600D02*X78028Y93260D01*
X76328Y93600D02*X77688D01*
X76328Y90880D02*X77688D01*
X80204D02*X80544Y91220D01*
X79184Y90880D02*X80204D01*
X78844Y91220D02*X79184Y90880D01*
X78844Y91220D02*Y91900D01*
X79184Y92240D01*
X80204D01*
X80544Y92580D01*
Y93260D01*
X80204Y93600D02*X80544Y93260D01*
X79184Y93600D02*X80204D01*
X78844Y93260D02*X79184Y93600D01*
X81701Y90880D02*Y93600D01*
X81361Y90880D02*X82721D01*
X83061Y91220D01*
Y91900D01*
X82721Y92240D02*X83061Y91900D01*
X81701Y92240D02*X82721D01*
X24507Y126685D02*Y129065D01*
Y126685D02*X24847Y126345D01*
X25867D01*
X26207Y126685D01*
Y129065D01*
X24507Y127705D02*X26207D01*
X27023Y126345D02*Y129065D01*
Y126345D02*Y126685D01*
X28723Y128385D01*
Y126345D02*Y129065D01*
X29540Y126685D02*Y129065D01*
Y126685D02*X29880Y126345D01*
X30900D01*
X31240Y126685D01*
Y129065D01*
X29540Y127705D02*X31240D01*
X32057Y126345D02*Y129065D01*
X33417D01*
X34233Y126685D02*Y128725D01*
Y126685D02*X34573Y126345D01*
X35253D01*
X35593Y126685D01*
Y128725D01*
X35253Y129065D02*X35593Y128725D01*
X34573Y129065D02*X35253D01*
X34233Y128725D02*X34573Y129065D01*
X37770Y126345D02*X38110Y126685D01*
X36750Y126345D02*X37770D01*
X36410Y126685D02*X36750Y126345D01*
X36410Y126685D02*Y128725D01*
X36750Y129065D01*
X37770D01*
X38110Y128725D01*
Y128045D02*Y128725D01*
X37770Y127705D02*X38110Y128045D01*
X37090Y127705D02*X37770D01*
X41511Y126345D02*X41851Y126685D01*
X40491Y126345D02*X41511D01*
X40151Y126685D02*X40491Y126345D01*
X40151Y126685D02*Y127365D01*
X40491Y127705D01*
X41511D01*
X41851Y128045D01*
Y128725D01*
X41511Y129065D02*X41851Y128725D01*
X40491Y129065D02*X41511D01*
X40151Y128725D02*X40491Y129065D01*
X42667Y126345D02*Y129065D01*
X43687Y128045D01*
X44707Y129065D01*
Y126345D02*Y129065D01*
X25818Y121742D02*Y124462D01*
X27518Y121742D02*Y124462D01*
X25818Y123102D02*X27518D01*
X28334Y121742D02*X29014D01*
X28674D02*Y124462D01*
X28334D02*X29014D01*
X29831Y123102D02*X31191D01*
X33368Y121742D02*X33708Y122082D01*
X32348Y121742D02*X33368D01*
X32008Y122082D02*X32348Y121742D01*
X32008Y122082D02*Y122762D01*
X32348Y123102D01*
X33368D01*
X33708Y123442D01*
Y124122D01*
X33368Y124462D02*X33708Y124122D01*
X32348Y124462D02*X33368D01*
X32008Y124122D02*X32348Y124462D01*
X34864Y121742D02*Y124462D01*
X34524Y121742D02*X35884D01*
X36224Y122082D01*
Y122762D01*
X35884Y123102D02*X36224Y122762D01*
X34864Y123102D02*X35884D01*
X37041D02*X38061D01*
X37041Y124462D02*X38401D01*
X37041Y121742D02*Y124462D01*
Y121742D02*X38401D01*
X39218Y123102D02*X40238D01*
X39218Y124462D02*X40578D01*
X39218Y121742D02*Y124462D01*
Y121742D02*X40578D01*
X41734D02*Y124462D01*
X42754Y121742D02*X43094Y122082D01*
Y124122D01*
X42754Y124462D02*X43094Y124122D01*
X41394Y124462D02*X42754D01*
X41394Y121742D02*X42754D01*
X31101Y70760D02*Y73480D01*
Y72460D02*X31441Y72120D01*
X32121D01*
X32461Y72460D01*
Y73480D01*
X33617Y70760D02*Y73140D01*
X33957Y73480D01*
X33277Y71780D02*X33957D01*
X34978Y70760D02*Y73140D01*
X35318Y73480D01*
X34638Y71780D02*X35318D01*
X36339Y72460D02*Y74500D01*
X35999Y72120D02*X36339Y72460D01*
X36679Y72120D01*
X37359D01*
X37699Y72460D01*
Y73140D01*
X37359Y73480D02*X37699Y73140D01*
X36679Y73480D02*X37359D01*
X36339Y73140D02*X36679Y73480D01*
X38515Y71780D02*X38855D01*
X38515Y72460D02*X38855D01*
X39672Y73140D02*X41712Y71100D01*
X42529Y73140D02*X44569Y71100D01*
X45385Y72120D02*Y73140D01*
X45725Y73480D01*
X46065D01*
X46405Y73140D01*
Y72120D02*Y73140D01*
X46745Y73480D01*
X47085D01*
X47425Y73140D01*
Y72120D02*Y73140D01*
X48242Y72120D02*Y73140D01*
X48582Y73480D01*
X48922D01*
X49262Y73140D01*
Y72120D02*Y73140D01*
X49602Y73480D01*
X49942D01*
X50282Y73140D01*
Y72120D02*Y73140D01*
X51099Y72120D02*Y73140D01*
X51439Y73480D01*
X51779D01*
X52119Y73140D01*
Y72120D02*Y73140D01*
X52459Y73480D01*
X52799D01*
X53139Y73140D01*
Y72120D02*Y73140D01*
X53955Y73480D02*X54295D01*
X55452D02*X56472D01*
X56812Y73140D01*
X56472Y72800D02*X56812Y73140D01*
X55452Y72800D02*X56472D01*
X55112Y72460D02*X55452Y72800D01*
X55112Y72460D02*X55452Y72120D01*
X56472D01*
X56812Y72460D01*
X55112Y73140D02*X55452Y73480D01*
X57969D02*X58989D01*
X57629Y73140D02*X57969Y73480D01*
X57629Y72460D02*Y73140D01*
Y72460D02*X57969Y72120D01*
X58649D01*
X58989Y72460D01*
X57629Y72800D02*X58989D01*
Y72460D02*Y72800D01*
X60145Y73480D02*X61165D01*
X59805Y73140D02*X60145Y73480D01*
X59805Y72460D02*Y73140D01*
Y72460D02*X60145Y72120D01*
X60825D01*
X61165Y72460D01*
X59805Y72800D02*X61165D01*
Y72460D02*Y72800D01*
X62322Y73480D02*X63342D01*
X61982Y73140D02*X62322Y73480D01*
X61982Y72460D02*Y73140D01*
Y72460D02*X62322Y72120D01*
X63002D01*
X63342Y72460D01*
X61982Y72800D02*X63342D01*
Y72460D02*Y72800D01*
X65519Y70760D02*Y73480D01*
X65179D02*X65519Y73140D01*
X64499Y73480D02*X65179D01*
X64159Y73140D02*X64499Y73480D01*
X64159Y72460D02*Y73140D01*
Y72460D02*X64499Y72120D01*
X65179D01*
X65519Y72460D01*
X66675Y73480D02*X67695D01*
X68035Y73140D01*
X67695Y72800D02*X68035Y73140D01*
X66675Y72800D02*X67695D01*
X66335Y72460D02*X66675Y72800D01*
X66335Y72460D02*X66675Y72120D01*
X67695D01*
X68035Y72460D01*
X66335Y73140D02*X66675Y73480D01*
X69192Y70760D02*Y73140D01*
X69532Y73480D01*
X68852Y71780D02*X69532D01*
X70213Y72120D02*Y73140D01*
X70553Y73480D01*
X71233D01*
X71573Y73140D01*
Y72120D02*Y73140D01*
X73749Y70760D02*Y73480D01*
X73409D02*X73749Y73140D01*
X72729Y73480D02*X73409D01*
X72389Y73140D02*X72729Y73480D01*
X72389Y72460D02*Y73140D01*
Y72460D02*X72729Y72120D01*
X73409D01*
X73749Y72460D01*
X74566Y71440D02*Y71780D01*
Y72460D02*Y73480D01*
X75247Y72460D02*Y73140D01*
Y72460D02*X75587Y72120D01*
X76267D01*
X76607Y72460D01*
Y73140D01*
X76267Y73480D02*X76607Y73140D01*
X75587Y73480D02*X76267D01*
X75247Y73140D02*X75587Y73480D01*
X77423D02*X77763D01*
X78920Y72120D02*X79940D01*
X78580Y72460D02*X78920Y72120D01*
X78580Y72460D02*Y73140D01*
X78920Y73480D01*
X79940D01*
X80757Y72460D02*Y73140D01*
Y72460D02*X81097Y72120D01*
X81777D01*
X82117Y72460D01*
Y73140D01*
X81777Y73480D02*X82117Y73140D01*
X81097Y73480D02*X81777D01*
X80757Y73140D02*X81097Y73480D01*
X83274Y72460D02*Y73480D01*
Y72460D02*X83614Y72120D01*
X83954D01*
X84294Y72460D01*
Y73480D01*
Y72460D02*X84634Y72120D01*
X84974D01*
X85314Y72460D01*
Y73480D01*
X82934Y72120D02*X83274Y72460D01*
X86130Y73140D02*X88170Y71100D01*
X5855Y53623D02*Y56463D01*
X5500Y53623D02*X6920D01*
X7275Y53978D01*
Y54688D01*
X6920Y55043D02*X7275Y54688D01*
X5855Y55043D02*X6920D01*
X8127Y53978D02*Y56108D01*
Y53978D02*X8482Y53623D01*
X9192D01*
X9547Y53978D01*
Y56108D01*
X9192Y56463D02*X9547Y56108D01*
X8482Y56463D02*X9192D01*
X8127Y56108D02*X8482Y56463D01*
X10400Y53623D02*Y56463D01*
X11465Y55398D01*
X12530Y56463D01*
Y53623D02*Y56463D01*
X13383Y55043D02*X14448D01*
X13383Y56463D02*X14803D01*
X13383Y53623D02*Y56463D01*
Y53623D02*X14803D01*
X15655D02*X17075D01*
X17430Y53978D01*
Y54688D01*
X17075Y55043D02*X17430Y54688D01*
X16010Y55043D02*X17075D01*
X16010Y53623D02*Y56463D01*
Y55043D02*X17430Y56463D01*
X15180Y65553D02*X15520Y65213D01*
X15180Y65553D02*Y66573D01*
X15520Y66913D02*X15180Y66573D01*
X15520Y66913D02*X17560D01*
X17900Y66573D01*
Y65553D02*Y66573D01*
Y65553D02*X17560Y65213D01*
X16880D02*X17560D01*
X16540Y65553D02*X16880Y65213D01*
X16540Y65553D02*Y66233D01*
X15180Y64397D02*X17900D01*
X15180D02*X15520D01*
X17220Y62697D01*
X15180D02*X17900D01*
X15180Y61540D02*X17900D01*
X15180Y60520D02*X15520Y60180D01*
X17560D01*
X17900Y60520D02*X17560Y60180D01*
X17900Y60520D02*Y61880D01*
X15180Y60520D02*Y61880D01*
X4180Y65553D02*X4520Y65213D01*
X4180Y65553D02*Y66573D01*
X4520Y66913D02*X4180Y66573D01*
X4520Y66913D02*X6560D01*
X6900Y66573D01*
Y65553D02*Y66573D01*
Y65553D02*X6560Y65213D01*
X5880D02*X6560D01*
X5540Y65553D02*X5880Y65213D01*
X5540Y65553D02*Y66233D01*
X4180Y64397D02*X6900D01*
X4180D02*X4520D01*
X6220Y62697D01*
X4180D02*X6900D01*
X4180Y61540D02*X6900D01*
X4180Y60520D02*X4520Y60180D01*
X6560D01*
X6900Y60520D02*X6560Y60180D01*
X6900Y60520D02*Y61880D01*
X4180Y60520D02*Y61880D01*
X15180Y75913D02*X17900D01*
Y74553D02*Y75913D01*
X15180Y73057D02*Y73737D01*
Y73397D02*X17900D01*
Y73057D02*Y73737D01*
X15180Y72240D02*X17900D01*
X15180D02*X15520D01*
X17220Y70540D01*
X15180D02*X17900D01*
X15180Y86413D02*X17900D01*
Y85053D02*Y86413D01*
X15520Y84237D02*X17560D01*
X15520D02*X15180Y83897D01*
Y83217D02*Y83897D01*
Y83217D02*X15520Y82877D01*
X17560D01*
X17900Y83217D02*X17560Y82877D01*
X17900Y83217D02*Y83897D01*
X17560Y84237D02*X17900Y83897D01*
X15180Y82060D02*X17560D01*
X17900Y81720D01*
Y81040D02*Y81720D01*
Y81040D02*X17560Y80700D01*
X15180D02*X17560D01*
X15180Y78523D02*Y79883D01*
Y79203D02*X17900D01*
X15180Y95053D02*Y96413D01*
Y95053D02*X15520Y94713D01*
X16200D01*
X16540Y95053D02*X16200Y94713D01*
X16540Y95053D02*Y96073D01*
X15180D02*X17900D01*
X16540D02*X17900Y94713D01*
X15520Y93897D02*X17560D01*
X15520D02*X15180Y93557D01*
Y92877D02*Y93557D01*
Y92877D02*X15520Y92537D01*
X17560D01*
X17900Y92877D02*X17560Y92537D01*
X17900Y92877D02*Y93557D01*
X17560Y93897D02*X17900Y93557D01*
X15180Y91720D02*X17560D01*
X17900Y91380D01*
Y90700D02*Y91380D01*
Y90700D02*X17560Y90360D01*
X15180D02*X17560D01*
X15180Y88183D02*Y89543D01*
Y88863D02*X17900D01*
X13248Y103299D02*X13588Y102959D01*
X14268D01*
X14608Y103299D01*
Y105339D01*
X14268Y105679D02*X14608Y105339D01*
X13588Y105679D02*X14268D01*
X13248Y105339D02*X13588Y105679D01*
Y104319D02*X14608D01*
X15424Y105679D02*X15764D01*
X16581Y103299D02*X16921Y102959D01*
X17601D01*
X17941Y103299D01*
Y105339D01*
X17601Y105679D02*X17941Y105339D01*
X16921Y105679D02*X17601D01*
X16581Y105339D02*X16921Y105679D01*
Y104319D02*X17941D01*
X18758Y102959D02*Y104999D01*
X19438Y105679D01*
X20118Y104999D01*
Y102959D02*Y104999D01*
X22158Y102959D02*Y105679D01*
Y102959D02*X23178Y103979D01*
X24198Y102959D01*
Y105679D01*
X25015Y103299D02*Y105679D01*
Y103299D02*X25355Y102959D01*
X26375D01*
X26715Y103299D01*
Y105679D01*
X25015Y104319D02*X26715D01*
X27532Y102959D02*Y103299D01*
X29232Y104999D01*
Y105679D01*
X27532Y104999D02*Y105679D01*
Y104999D02*X29232Y103299D01*
Y102959D02*Y103299D01*
X30048Y105339D02*Y105679D01*
Y102959D02*Y104659D01*
X17866Y98431D02*Y100916D01*
Y98431D02*X18221Y98076D01*
X19286D01*
X19641Y98431D01*
Y100916D01*
X17866Y99496D02*X19641D01*
X20493Y98076D02*Y100561D01*
X20848Y100916D01*
X21558D01*
X21913Y100561D01*
Y98076D02*Y100561D01*
X23121Y98076D02*Y100916D01*
X24186Y98076D02*X24541Y98431D01*
Y100561D01*
X24186Y100916D02*X24541Y100561D01*
X22766Y100916D02*X24186D01*
X22766Y98076D02*X24186D01*
X25394D02*X26104D01*
X25749D02*Y100916D01*
X25394D02*X26104D01*
X26956Y98431D02*Y100561D01*
Y98431D02*X27311Y98076D01*
X28021D01*
X28376Y98431D01*
Y100561D01*
X28021Y100916D02*X28376Y100561D01*
X27311Y100916D02*X28021D01*
X26956Y100561D02*X27311Y100916D01*
X3819Y98123D02*Y100253D01*
X4529Y100963D01*
X5239Y100253D01*
Y98123D02*Y100253D01*
X6091Y98123D02*X6801D01*
X6446D02*Y100963D01*
X6091D02*X6801D01*
X8009Y98123D02*Y100963D01*
X9074Y98123D02*X9429Y98478D01*
Y100608D01*
X9074Y100963D02*X9429Y100608D01*
X7654Y100963D02*X9074D01*
X7654Y98123D02*X9074D01*
X10282Y99543D02*X11347D01*
X10282Y100963D02*X11702D01*
X10282Y98123D02*Y100963D01*
Y98123D02*X11702D01*
X12554Y98478D02*Y100608D01*
Y98478D02*X12909Y98123D01*
X13619D01*
X13974Y98478D01*
Y100608D01*
X13619Y100963D02*X13974Y100608D01*
X12909Y100963D02*X13619D01*
X12554Y100608D02*X12909Y100963D01*
X1181Y112885D02*X2541D01*
X1861D02*Y115605D01*
X3357Y113225D02*Y115265D01*
Y113225D02*X3697Y112885D01*
X4377D01*
X4717Y113225D01*
Y115265D01*
X4377Y115605D02*X4717Y115265D01*
X3697Y115605D02*X4377D01*
X3357Y115265D02*X3697Y115605D01*
X5534Y112885D02*Y115605D01*
Y112885D02*X6554Y113905D01*
X7574Y112885D01*
Y115605D01*
X8391Y113565D02*X9071Y112885D01*
X11247D02*X11587Y113225D01*
X10227Y112885D02*X11247D01*
X9887Y113225D02*X10227Y112885D01*
X9887Y113225D02*Y113905D01*
X10227Y114245D01*
X11247D01*
X11587Y114585D01*
Y115265D01*
X11247Y115605D02*X11587Y115265D01*
X10227Y115605D02*X11247D01*
X9887Y115265D02*X10227Y115605D01*
X1575Y118183D02*X2595D01*
X1575Y119543D02*X2935D01*
X1575Y116823D02*Y119543D01*
Y116823D02*X2935D01*
X3751D02*Y119543D01*
X5111D01*
X5928Y118183D02*X6948D01*
X5928Y119543D02*X7288D01*
X5928Y116823D02*Y119543D01*
Y116823D02*X7288D01*
X8445Y119543D02*X9465D01*
X8105Y119203D02*X8445Y119543D01*
X8105Y117163D02*Y119203D01*
Y117163D02*X8445Y116823D01*
X9465D01*
X10281D02*X11641D01*
X10961D02*Y119543D01*
X12458Y116823D02*X13818D01*
X14158Y117163D01*
Y117843D01*
X13818Y118183D02*X14158Y117843D01*
X12798Y118183D02*X13818D01*
X12798Y116823D02*Y119543D01*
Y118183D02*X14158Y119543D01*
X14975Y117163D02*Y119203D01*
Y117163D02*X15315Y116823D01*
X15995D01*
X16335Y117163D01*
Y119203D01*
X15995Y119543D02*X16335Y119203D01*
X15315Y119543D02*X15995D01*
X14975Y119203D02*X15315Y119543D01*
X17151Y116823D02*Y119543D01*
Y116823D02*Y117163D01*
X18851Y118863D01*
Y116823D02*Y119543D01*
X19668Y116823D02*X20348D01*
X20008D02*Y119543D01*
X19668D02*X20348D01*
X21505D02*X22525D01*
X21165Y119203D02*X21505Y119543D01*
X21165Y117163D02*Y119203D01*
Y117163D02*X21505Y116823D01*
X22525D01*
X24701D02*X25041Y117163D01*
X23681Y116823D02*X24701D01*
X23341Y117163D02*X23681Y116823D01*
X23341Y117163D02*Y117843D01*
X23681Y118183D01*
X24701D01*
X25041Y118523D01*
Y119203D01*
X24701Y119543D02*X25041Y119203D01*
X23681Y119543D02*X24701D01*
X23341Y119203D02*X23681Y119543D01*
X6900Y84553D02*Y85573D01*
X6560Y85913D02*X6900Y85573D01*
X4520Y85913D02*X6560D01*
X4520D02*X4180Y85573D01*
Y84553D02*Y85573D01*
Y83737D02*X6900D01*
X4180Y82037D02*X6900D01*
X5540D02*Y83737D01*
X4520Y81220D02*X4180Y80880D01*
Y79860D02*Y80880D01*
Y79860D02*X4520Y79520D01*
X5200D01*
X6900Y81220D02*X5200Y79520D01*
X6900D02*Y81220D01*
Y94553D02*Y95573D01*
X6560Y95913D02*X6900Y95573D01*
X4520Y95913D02*X6560D01*
X4520D02*X4180Y95573D01*
Y94553D02*Y95573D01*
Y93737D02*X6900D01*
X4180Y92037D02*X6900D01*
X5540D02*Y93737D01*
X6900Y90200D02*Y90880D01*
X4180Y90540D02*X6900D01*
X4860Y91220D02*X4180Y90540D01*
X4520Y75413D02*X6560D01*
X4520D02*X4180Y75073D01*
Y74393D02*Y75073D01*
Y74393D02*X4520Y74053D01*
X6560D01*
X6900Y74393D02*X6560Y74053D01*
X6900Y74393D02*Y75073D01*
X6560Y75413D02*X6900Y75073D01*
X4180Y73237D02*X6560D01*
X6900Y72897D01*
Y72217D02*Y72897D01*
Y72217D02*X6560Y71877D01*
X4180D02*X6560D01*
X4180Y69700D02*Y71060D01*
Y70380D02*X6900D01*
X154500Y138093D02*Y138433D01*
X155180Y139113D01*
X155860Y138433D01*
Y138093D02*Y138433D01*
X155180Y139113D02*Y140813D01*
X21583Y138889D02*X21923Y138549D01*
X22943D01*
X23283Y138889D01*
Y139569D01*
X21583Y141269D02*X23283Y139569D01*
X21583Y141269D02*X23283D01*
X25323Y138549D02*Y140929D01*
X25663Y141269D01*
X27364Y139909D02*X27704Y140249D01*
X26684Y139909D02*X27364D01*
X26344Y140249D02*X26684Y139909D01*
X26344Y140249D02*Y140929D01*
X26684Y141269D01*
X27704Y139909D02*Y140929D01*
X28044Y141269D01*
X26684D02*X27364D01*
X27704Y140929D01*
X28861Y139909D02*Y140929D01*
X29201Y141269D01*
X30221Y139909D02*Y141949D01*
X29881Y142289D02*X30221Y141949D01*
X29201Y142289D02*X29881D01*
X28861Y141949D02*X29201Y142289D01*
Y141269D02*X29881D01*
X30221Y140929D01*
X31377Y141269D02*X32397D01*
X31037Y140929D02*X31377Y141269D01*
X31037Y140249D02*Y140929D01*
Y140249D02*X31377Y139909D01*
X32057D01*
X32397Y140249D01*
X31037Y140589D02*X32397D01*
Y140249D02*Y140589D01*
X33554Y140249D02*Y141269D01*
Y140249D02*X33894Y139909D01*
X34574D01*
X33214D02*X33554Y140249D01*
X35731Y141269D02*X36751D01*
X37091Y140929D01*
X36751Y140589D02*X37091Y140929D01*
X35731Y140589D02*X36751D01*
X35391Y140249D02*X35731Y140589D01*
X35391Y140249D02*X35731Y139909D01*
X36751D01*
X37091Y140249D01*
X35391Y140929D02*X35731Y141269D01*
X37907Y141949D02*X38587Y141269D01*
X41648Y138549D02*X41988Y138889D01*
X40968Y138549D02*X41648D01*
X40628Y138889D02*X40968Y138549D01*
X40628Y138889D02*Y140929D01*
X40968Y141269D01*
X41648Y139909D02*X41988Y140249D01*
X40628Y139909D02*X41648D01*
X40968Y141269D02*X41648D01*
X41988Y140929D01*
Y140249D02*Y140929D01*
X42805D02*X44845Y138889D01*
X46681Y138549D02*X47021Y138889D01*
X46001Y138549D02*X46681D01*
X45661Y138889D02*X46001Y138549D01*
X45661Y138889D02*Y140929D01*
X46001Y141269D01*
X46681Y139909D02*X47021Y140249D01*
X45661Y139909D02*X46681D01*
X46001Y141269D02*X46681D01*
X47021Y140929D01*
Y140249D02*Y140929D01*
X49402Y140249D02*Y141269D01*
Y140249D02*X49742Y139909D01*
X50082D01*
X50422Y140249D01*
Y141269D01*
Y140249D02*X50762Y139909D01*
X51102D01*
X51442Y140249D01*
Y141269D01*
X49062Y139909D02*X49402Y140249D01*
X52259Y139229D02*Y139569D01*
Y140249D02*Y141269D01*
X52939Y138549D02*Y140929D01*
X53279Y141269D01*
X55524Y140249D02*Y141269D01*
Y140249D02*X55864Y139909D01*
X56544D01*
X55184D02*X55524Y140249D01*
X57361Y139909D02*Y140929D01*
X57701Y141269D01*
X58381D01*
X58721Y140929D01*
Y139909D02*Y140929D01*
X59537Y138549D02*Y140929D01*
X59877Y141269D01*
X60898D02*X61918D01*
X60558Y140929D02*X60898Y141269D01*
X60558Y140249D02*Y140929D01*
Y140249D02*X60898Y139909D01*
X61578D01*
X61918Y140249D01*
X60558Y140589D02*X61918D01*
Y140249D02*Y140589D01*
X63075Y141269D02*X64095D01*
X64435Y140929D01*
X64095Y140589D02*X64435Y140929D01*
X63075Y140589D02*X64095D01*
X62735Y140249D02*X63075Y140589D01*
X62735Y140249D02*X63075Y139909D01*
X64095D01*
X64435Y140249D01*
X62735Y140929D02*X63075Y141269D01*
X18757Y133755D02*Y136475D01*
X19777Y133755D02*X20117Y134095D01*
Y136135D01*
X19777Y136475D02*X20117Y136135D01*
X18417Y136475D02*X19777D01*
X18417Y133755D02*X19777D01*
X20933Y135115D02*X21953D01*
X20933Y136475D02*X22293D01*
X20933Y133755D02*Y136475D01*
Y133755D02*X22293D01*
X24470D02*X24810Y134095D01*
X23450Y133755D02*X24470D01*
X23110Y134095D02*X23450Y133755D01*
X23110Y134095D02*Y134775D01*
X23450Y135115D01*
X24470D01*
X24810Y135455D01*
Y136135D01*
X24470Y136475D02*X24810Y136135D01*
X23450Y136475D02*X24470D01*
X23110Y136135D02*X23450Y136475D01*
X25627Y133755D02*X26307D01*
X25967D02*Y136475D01*
X25627D02*X26307D01*
X28483Y133755D02*X28823Y134095D01*
X27463Y133755D02*X28483D01*
X27123Y134095D02*X27463Y133755D01*
X27123Y134095D02*Y136135D01*
X27463Y136475D01*
X28483D01*
X28823Y136135D01*
Y135455D02*Y136135D01*
X28483Y135115D02*X28823Y135455D01*
X27803Y135115D02*X28483D01*
X29640Y133755D02*Y136475D01*
Y133755D02*Y134095D01*
X31340Y135795D01*
Y133755D02*Y136475D01*
X33381Y135115D02*X34741D01*
X36781Y133755D02*X38141D01*
X37461D02*Y136475D01*
X38958Y133755D02*Y136475D01*
X40658Y133755D02*Y136475D01*
X38958Y135115D02*X40658D01*
X41475Y134095D02*Y136135D01*
Y134095D02*X41815Y133755D01*
X42495D01*
X42835Y134095D01*
Y136135D01*
X42495Y136475D02*X42835Y136135D01*
X41815Y136475D02*X42495D01*
X41475Y136135D02*X41815Y136475D01*
X43651Y133755D02*Y136475D01*
Y133755D02*X44671Y134775D01*
X45691Y133755D01*
Y136475D01*
X46508Y134095D02*Y136475D01*
Y134095D02*X46848Y133755D01*
X47868D01*
X48208Y134095D01*
Y136475D01*
X46508Y135115D02*X48208D01*
X50385Y133755D02*X50725Y134095D01*
X49365Y133755D02*X50385D01*
X49025Y134095D02*X49365Y133755D01*
X49025Y134095D02*Y134775D01*
X49365Y135115D01*
X50385D01*
X50725Y135455D01*
Y136135D01*
X50385Y136475D02*X50725Y136135D01*
X49365Y136475D02*X50385D01*
X49025Y136135D02*X49365Y136475D01*
X52765Y134095D02*Y136135D01*
Y134095D02*X53105Y133755D01*
X53785D01*
X54125Y134095D01*
Y136135D01*
X53785Y136475D02*X54125Y136135D01*
X53105Y136475D02*X53785D01*
X52765Y136135D02*X53105Y136475D01*
X54942Y133755D02*Y136475D01*
X56302D01*
X57459Y133755D02*Y136475D01*
X58479Y133755D02*X58819Y134095D01*
Y136135D01*
X58479Y136475D02*X58819Y136135D01*
X57119Y136475D02*X58479D01*
X57119Y133755D02*X58479D01*
X59635Y136475D02*X60995D01*
X61335Y136135D01*
Y135455D02*Y136135D01*
X60995Y135115D02*X61335Y135455D01*
X59975Y135115D02*X60995D01*
X59975Y133755D02*Y136475D01*
X59635Y133755D02*X60995D01*
X61335Y134095D01*
Y134775D01*
X60995Y135115D02*X61335Y134775D01*
X62152Y133755D02*Y136135D01*
X62492Y136475D01*
X63172D01*
X63512Y136135D01*
Y133755D02*Y136135D01*
X64329Y133755D02*X65689D01*
X66029Y134095D01*
Y134775D01*
X65689Y135115D02*X66029Y134775D01*
X64669Y135115D02*X65689D01*
X64669Y133755D02*Y136475D01*
Y135115D02*X66029Y136475D01*
X66845Y133755D02*Y134095D01*
X67525Y134775D01*
X68205Y134095D01*
Y133755D02*Y134095D01*
X67525Y134775D02*Y136475D01*
X136613Y139602D02*Y141982D01*
Y139602D02*X136953Y139262D01*
X137973D01*
X138313Y139602D01*
Y141982D01*
X136613Y140622D02*X138313D01*
X139129Y139262D02*Y141982D01*
X140489D01*
X142666Y139262D02*X143006Y139602D01*
X141646Y139262D02*X142666D01*
X141306Y139602D02*X141646Y139262D01*
X141306Y139602D02*Y141642D01*
X141646Y141982D01*
X142666D01*
X143006Y141642D01*
Y140962D02*Y141642D01*
X142666Y140622D02*X143006Y140962D01*
X141986Y140622D02*X142666D01*
X143823Y139262D02*Y141982D01*
Y139262D02*Y139602D01*
X145523Y141302D01*
Y139262D02*Y141982D01*
X121533Y137297D02*X121193Y136957D01*
Y136277D02*Y136957D01*
Y136277D02*X121533Y135937D01*
X123573D01*
X123913Y136277D02*X123573Y135937D01*
X123913Y136277D02*Y136957D01*
X123573Y137297D02*X123913Y136957D01*
X122553Y135937D02*Y136957D01*
X123913Y134781D02*Y135121D01*
X121533Y133964D02*X121193Y133624D01*
Y132944D02*Y133624D01*
Y132944D02*X121533Y132604D01*
X123573D01*
X123913Y132944D02*X123573Y132604D01*
X123913Y132944D02*Y133624D01*
X123573Y133964D02*X123913Y133624D01*
X122553Y132604D02*Y133624D01*
X122893Y131447D02*X123913D01*
X122893D02*X122553Y131107D01*
Y130767D02*Y131107D01*
Y130767D02*X122893Y130427D01*
X123913D01*
X122893D02*X122553Y130087D01*
Y129747D02*Y130087D01*
Y129747D02*X122893Y129407D01*
X123913D01*
X122553Y131787D02*X122893Y131447D01*
Y128251D02*X123913D01*
X122893D02*X122553Y127911D01*
Y127571D02*Y127911D01*
Y127571D02*X122893Y127231D01*
X123913D01*
X122893D02*X122553Y126891D01*
Y126551D02*Y126891D01*
Y126551D02*X122893Y126211D01*
X123913D01*
X122553Y128591D02*X122893Y128251D01*
X123573Y124170D02*X121533Y122130D01*
X121193Y120089D02*X123913D01*
X121193D02*X122213Y119069D01*
X121193Y118049D01*
X123913D01*
X121533Y117233D02*X121193Y116893D01*
Y115873D02*Y116893D01*
Y115873D02*X121533Y115533D01*
X122213D01*
X123913Y117233D02*X122213Y115533D01*
X123913D02*Y117233D01*
X106222Y119793D02*Y120813D01*
Y119793D02*X106562Y119453D01*
X106902D01*
X107242Y119793D01*
Y120813D01*
Y119793D02*X107582Y119453D01*
X107922D01*
X108262Y119793D01*
Y120813D01*
X105882Y119453D02*X106222Y119793D01*
X109078Y119453D02*Y120473D01*
X109418Y120813D01*
X110098D01*
X110438Y120473D01*
Y119453D02*Y120473D01*
X111255Y119453D02*X112615Y120813D01*
X111255D02*X112615Y119453D01*
X114996D02*X116016D01*
X114656Y119793D02*X114996Y119453D01*
X114656Y119793D02*Y120473D01*
X114996Y120813D01*
X116016D01*
X116832Y118093D02*Y120813D01*
Y119793D02*X117172Y119453D01*
X117852D01*
X118192Y119793D01*
Y120813D01*
X119009D02*X119349D01*
X94023Y139629D02*X96063D01*
X94023D02*X93683Y139289D01*
Y138609D02*Y139289D01*
Y138609D02*X94023Y138269D01*
X96063D01*
X96403Y138609D02*X96063Y138269D01*
X96403Y138609D02*Y139289D01*
X96063Y139629D02*X96403Y139289D01*
X93683Y137113D02*X96403D01*
X93683Y136093D02*Y137453D01*
Y136093D02*X94023Y135753D01*
X94703D01*
X95043Y136093D02*X94703Y135753D01*
X95043Y136093D02*Y137113D01*
Y133576D02*Y134936D01*
X94023Y132759D02*X96403D01*
X94023D02*X93683Y132419D01*
Y131399D02*Y132419D01*
Y131399D02*X94023Y131059D01*
X96403D01*
X95043D02*Y132759D01*
X93683Y130243D02*X96403D01*
X93683D02*X94703Y129223D01*
X93683Y128203D01*
X96403D01*
X93683Y127046D02*X96403D01*
X93683Y126026D02*Y127386D01*
Y126026D02*X94023Y125686D01*
X94703D01*
X95043Y126026D02*X94703Y125686D01*
X95043Y126026D02*Y127046D01*
X97000Y116593D02*Y118633D01*
X97680Y119313D01*
X98360Y118633D01*
Y116593D02*Y118633D01*
X99516Y119313D02*X100536D01*
X99176Y118973D02*X99516Y119313D01*
X99176Y116933D02*Y118973D01*
Y116933D02*X99516Y116593D01*
X100536D01*
X101353D02*Y119313D01*
X103053Y116593D02*Y119313D01*
X101353Y117953D02*X103053D01*
X83465Y28237D02*Y30277D01*
X84145Y30957D01*
X84825Y30277D01*
Y28237D02*Y30277D01*
X85641Y28917D02*Y29257D01*
Y29937D02*Y30957D01*
X86662Y29937D02*Y30957D01*
Y29937D02*X87002Y29597D01*
X87342D01*
X87682Y29937D01*
Y30957D01*
X86322Y29597D02*X86662Y29937D01*
X55445Y14923D02*X55800Y14568D01*
X56865D01*
X57220Y14923D01*
Y15633D01*
X55445Y17408D02*X57220Y15633D01*
X55445Y17408D02*X57220D01*
X59492Y14568D02*X59847Y14923D01*
X58427Y14568D02*X59492D01*
X58072Y14923D02*X58427Y14568D01*
X58072Y14923D02*Y15633D01*
X58427Y15988D01*
X59492D01*
X59847Y16343D01*
Y17053D01*
X59492Y17408D02*X59847Y17053D01*
X58427Y17408D02*X59492D01*
X58072Y17053D02*X58427Y17408D01*
X61978Y15988D02*X63398D01*
X65529Y17053D02*X65884Y17408D01*
X65529Y16343D02*Y17053D01*
Y16343D02*X65884Y15988D01*
X66594D01*
X66949Y16343D01*
Y17053D01*
X66594Y17408D02*X66949Y17053D01*
X65884Y17408D02*X66594D01*
X65529Y15633D02*X65884Y15988D01*
X65529Y14923D02*Y15633D01*
Y14923D02*X65884Y14568D01*
X66594D01*
X66949Y14923D01*
Y15633D01*
X66594Y15988D02*X66949Y15633D01*
X69221Y14568D02*X69576Y14923D01*
X68156Y14568D02*X69221D01*
X67801Y14923D02*X68156Y14568D01*
X67801Y14923D02*Y15633D01*
X68156Y15988D01*
X69221D01*
X69576Y16343D01*
Y17053D01*
X69221Y17408D02*X69576Y17053D01*
X68156Y17408D02*X69221D01*
X67801Y17053D02*X68156Y17408D01*
X71707Y14568D02*Y17408D01*
X73127D01*
X73980Y15278D02*Y15633D01*
Y16343D02*Y17408D01*
X75045Y14568D02*Y17408D01*
X74690Y14568D02*X76110D01*
X76465Y14923D01*
Y15633D01*
X76110Y15988D02*X76465Y15633D01*
X75045Y15988D02*X76110D01*
X77318Y16343D02*Y17053D01*
Y16343D02*X77673Y15988D01*
X78383D01*
X78738Y16343D01*
Y17053D01*
X78383Y17408D02*X78738Y17053D01*
X77673Y17408D02*X78383D01*
X77318Y17053D02*X77673Y17408D01*
X55511Y28131D02*X56871Y29491D01*
X55511D02*X56871Y28131D01*
X55511Y28811D02*X56871D01*
X56191Y28131D02*Y29491D01*
X57687Y28131D02*X59047Y29491D01*
X57687D02*X59047Y28131D01*
X57687Y28811D02*X59047D01*
X58367Y28131D02*Y29491D01*
X61088Y27451D02*Y30171D01*
Y27451D02*Y27791D01*
X62788Y29491D01*
Y27451D02*Y30171D01*
X63605Y28811D02*X64625D01*
X63605Y30171D02*X64965D01*
X63605Y27451D02*Y30171D01*
Y27451D02*X64965D01*
X65781D02*Y29491D01*
X66461Y30171D01*
X67141Y29491D01*
Y27451D02*Y29491D01*
X67958Y28811D02*X68978D01*
X67958Y30171D02*X69318D01*
X67958Y27451D02*Y30171D01*
Y27451D02*X69318D01*
X70135D02*X71495D01*
X71835Y27791D01*
Y28471D01*
X71495Y28811D02*X71835Y28471D01*
X70475Y28811D02*X71495D01*
X70475Y27451D02*Y30171D01*
Y28811D02*X71835Y30171D01*
X73875Y28131D02*X75235Y29491D01*
X73875D02*X75235Y28131D01*
X73875Y28811D02*X75235D01*
X74555Y28131D02*Y29491D01*
X76052Y28131D02*X77412Y29491D01*
X76052D02*X77412Y28131D01*
X76052Y28811D02*X77412D01*
X76732Y28131D02*Y29491D01*
X49500Y44093D02*X50180D01*
X49840D02*Y46813D01*
X49500D02*X50180D01*
X51336D02*X52356D01*
X50996Y46473D02*X51336Y46813D01*
X50996Y44433D02*Y46473D01*
Y44433D02*X51336Y44093D01*
X52356D01*
X54533D02*X54873Y44433D01*
X53513Y44093D02*X54533D01*
X53173Y44433D02*X53513Y44093D01*
X53173Y44433D02*Y45113D01*
X53513Y45453D01*
X54533D01*
X54873Y45793D01*
Y46473D01*
X54533Y46813D02*X54873Y46473D01*
X53513Y46813D02*X54533D01*
X53173Y46473D02*X53513Y46813D01*
X56030Y44093D02*Y46813D01*
X55690Y44093D02*X57050D01*
X57390Y44433D01*
Y45113D01*
X57050Y45453D02*X57390Y45113D01*
X56030Y45453D02*X57050D01*
X58206Y46473D02*X60246Y44433D01*
X61063Y44093D02*X61743D01*
X61403D02*Y46813D01*
X61063D02*X61743D01*
X62900D02*X63920D01*
X62560Y46473D02*X62900Y46813D01*
X62560Y44433D02*Y46473D01*
Y44433D02*X62900Y44093D01*
X63920D01*
X65076D02*Y46813D01*
X66096Y44093D02*X66436Y44433D01*
Y46473D01*
X66096Y46813D02*X66436Y46473D01*
X64736Y46813D02*X66096D01*
X64736Y44093D02*X66096D01*
X68817Y44433D02*Y46813D01*
Y44433D02*X69157Y44093D01*
X69497D01*
X68477Y45453D02*X69157D01*
X70178Y45793D02*Y46473D01*
Y45793D02*X70518Y45453D01*
X71198D01*
X71538Y45793D01*
Y46473D01*
X71198Y46813D02*X71538Y46473D01*
X70518Y46813D02*X71198D01*
X70178Y46473D02*X70518Y46813D01*
X72694Y45793D02*Y46813D01*
Y45793D02*X73034Y45453D01*
X73714D01*
X72354D02*X72694Y45793D01*
X77115Y44093D02*Y46813D01*
X76775D02*X77115Y46473D01*
X76095Y46813D02*X76775D01*
X75755Y46473D02*X76095Y46813D01*
X75755Y45793D02*Y46473D01*
Y45793D02*X76095Y45453D01*
X76775D01*
X77115Y45793D01*
X78272Y46813D02*X79292D01*
X79632Y46473D01*
X79292Y46133D02*X79632Y46473D01*
X78272Y46133D02*X79292D01*
X77932Y45793D02*X78272Y46133D01*
X77932Y45793D02*X78272Y45453D01*
X79292D01*
X79632Y45793D01*
X77932Y46473D02*X78272Y46813D01*
X80788Y44093D02*Y46813D01*
X80448Y44093D02*X81808D01*
X82148Y44433D01*
Y45113D01*
X81808Y45453D02*X82148Y45113D01*
X80788Y45453D02*X81808D01*
X82965Y44093D02*X83645D01*
X83305D02*Y46813D01*
X82965D02*X83645D01*
X84802D02*X85822D01*
X84462Y46473D02*X84802Y46813D01*
X84462Y44433D02*Y46473D01*
Y44433D02*X84802Y44093D01*
X85822D01*
X86638Y44433D02*X86978Y44093D01*
X87658D01*
X87998Y44433D01*
Y46473D01*
X87658Y46813D02*X87998Y46473D01*
X86978Y46813D02*X87658D01*
X86638Y46473D02*X86978Y46813D01*
Y45453D02*X87998D01*
X88815Y44433D02*X89155Y44093D01*
X89835D01*
X90175Y44433D01*
Y46473D01*
X89835Y46813D02*X90175Y46473D01*
X89155Y46813D02*X89835D01*
X88815Y46473D02*X89155Y46813D01*
Y45453D02*X90175D01*
X90992Y44093D02*Y46813D01*
Y44093D02*X92352D01*
X90992Y45453D02*X92012D01*
X50788Y11186D02*X52208Y9766D01*
X50788Y11186D02*X52563D01*
X52208Y9766D02*Y12606D01*
X53415D02*X53770D01*
X54623Y12251D02*X54978Y12606D01*
X54623Y11541D02*Y12251D01*
Y11541D02*X54978Y11186D01*
X55688D01*
X56043Y11541D01*
Y12251D01*
X55688Y12606D02*X56043Y12251D01*
X54978Y12606D02*X55688D01*
X54623Y10831D02*X54978Y11186D01*
X54623Y10121D02*Y10831D01*
Y10121D02*X54978Y9766D01*
X55688D01*
X56043Y10121D01*
Y10831D01*
X55688Y11186D02*X56043Y10831D01*
X56896Y9766D02*Y11896D01*
X57606Y12606D01*
X58316Y11896D01*
Y9766D02*Y11896D01*
X60446Y11186D02*X61866D01*
X63997Y10121D02*X64352Y9766D01*
X65062D01*
X65417Y10121D01*
Y12251D01*
X65062Y12606D02*X65417Y12251D01*
X64352Y12606D02*X65062D01*
X63997Y12251D02*X64352Y12606D01*
Y11186D02*X65417D01*
X66270D02*X67690Y9766D01*
X66270Y11186D02*X68045D01*
X67690Y9766D02*Y12606D01*
X68897Y9766D02*Y11896D01*
X69607Y12606D01*
X70317Y11896D01*
Y9766D02*Y11896D01*
X72448Y9766D02*X73158D01*
X72803D02*Y12606D01*
X72448D02*X73158D01*
X74011Y9766D02*Y12606D01*
Y9766D02*Y10121D01*
X75786Y11896D01*
Y9766D02*Y12606D01*
X76994Y9766D02*Y12606D01*
X76639Y9766D02*X78059D01*
X78414Y10121D01*
Y10831D01*
X78059Y11186D02*X78414Y10831D01*
X76994Y11186D02*X78059D01*
X79266Y9766D02*Y12251D01*
X79621Y12606D01*
X80331D01*
X80686Y12251D01*
Y9766D02*Y12251D01*
X81539Y9766D02*X82959D01*
X82249D02*Y12606D01*
X50180Y19577D02*X50520Y19917D01*
X49160Y19577D02*X50180D01*
X48820Y19917D02*X49160Y19577D01*
X48820Y19917D02*Y20597D01*
X49160Y20937D01*
X50180D01*
X50520Y21277D01*
Y21957D01*
X50180Y22297D02*X50520Y21957D01*
X49160Y22297D02*X50180D01*
X48820Y21957D02*X49160Y22297D01*
X51336Y19577D02*Y22297D01*
X52356Y21277D01*
X53376Y22297D01*
Y19577D02*Y22297D01*
X4565Y41413D02*X4210Y41058D01*
Y40348D02*Y41058D01*
Y40348D02*X4565Y39993D01*
X6695D01*
X7050Y40348D02*X6695Y39993D01*
X7050Y40348D02*Y41058D01*
X6695Y41413D02*X7050Y41058D01*
X5630Y39993D02*Y41058D01*
X4210Y39141D02*X6340D01*
X7050Y38431D01*
X6340Y37721D01*
X4210D02*X6340D01*
X4565Y36868D02*X4210Y36513D01*
Y35803D02*Y36513D01*
Y35803D02*X4565Y35448D01*
X6695D01*
X7050Y35803D02*X6695Y35448D01*
X7050Y35803D02*Y36513D01*
X6695Y36868D02*X7050Y36513D01*
X5630Y35448D02*Y36513D01*
X7050Y31993D02*Y33413D01*
Y31993D02*X6695Y31638D01*
X5985D02*X6695D01*
X5630Y31993D02*X5985Y31638D01*
X5630Y31993D02*Y33058D01*
X4210D02*X7050D01*
X4210Y31993D02*Y33413D01*
Y31993D02*X4565Y31638D01*
X5275D01*
X5630Y31993D02*X5275Y31638D01*
X4565Y30786D02*X7050D01*
X4565D02*X4210Y30431D01*
Y29366D02*Y30431D01*
Y29366D02*X4565Y29011D01*
X7050D01*
X5630D02*Y30786D01*
X4210Y26738D02*Y28158D01*
Y27448D02*X7050D01*
X4210Y24465D02*Y25885D01*
Y25175D02*X7050D01*
X4210Y49993D02*X4565Y49638D01*
X4210Y49993D02*Y51058D01*
X4565Y51413D02*X4210Y51058D01*
X4565Y51413D02*X6695D01*
X7050Y51058D01*
Y49993D02*Y51058D01*
Y49993D02*X6695Y49638D01*
X5985D02*X6695D01*
X5630Y49993D02*X5985Y49638D01*
X5630Y49993D02*Y50703D01*
X4210Y48786D02*X7050D01*
X4210D02*X4565D01*
X6340Y47011D01*
X4210D02*X7050D01*
X4210Y45803D02*X7050D01*
X4210Y44738D02*X4565Y44383D01*
X6695D01*
X7050Y44738D02*X6695Y44383D01*
X7050Y44738D02*Y46158D01*
X4210Y44738D02*Y46158D01*
G54D59*X30300Y58913D02*X44200D01*
Y46113D02*Y58913D01*
X30300Y46113D02*X44200D01*
X30300D02*Y58913D01*
G54D13*X20638Y42849D02*Y42063D01*
X26148Y42849D02*Y42063D01*
X25047Y24460D02*X29771D01*
X25047Y31940D02*X29771D01*
G54D58*X137850Y94563D02*Y96563D01*
Y94563D02*X138350Y94063D01*
X139350D01*
X139850Y94563D02*X139350Y94063D01*
X139850Y94563D02*Y96063D01*
X137850D02*X141850D01*
X139850D02*X141850Y94063D01*
Y91362D02*Y92362D01*
X137850Y91862D02*X141850D01*
X138850Y92862D02*X137850Y91862D01*
X138350Y90161D02*X137850Y89661D01*
Y88161D02*Y89661D01*
Y88161D02*X138350Y87661D01*
X139350D01*
X141850Y90161D02*X139350Y87661D01*
X141850D02*Y90161D01*
X132374Y94122D02*Y96122D01*
Y94122D02*X132874Y93622D01*
X133874D01*
X134374Y94122D02*X133874Y93622D01*
X134374Y94122D02*Y95622D01*
X132374D02*X136374D01*
X134374D02*X136374Y93622D01*
Y90921D02*Y91921D01*
X132374Y91421D02*X136374D01*
X133374Y92421D02*X132374Y91421D01*
X132874Y89720D02*X132374Y89220D01*
Y88220D02*Y89220D01*
Y88220D02*X132874Y87720D01*
X135874D01*
X136374Y88220D02*X135874Y87720D01*
X136374Y88220D02*Y89220D01*
X135874Y89720D02*X136374Y89220D01*
X134374Y87720D02*Y89220D01*
X144909Y104255D02*X146409D01*
X144409Y103755D02*X144909Y104255D01*
X144409Y100755D02*Y103755D01*
Y100755D02*X144909Y100255D01*
X146409D01*
X148110Y104255D02*X149110D01*
X148610Y100255D02*Y104255D01*
X147610Y101255D02*X148610Y100255D01*
X159032Y125779D02*Y127279D01*
X158532Y127779D02*X159032Y127279D01*
X155532Y127779D02*X158532D01*
X155532D02*X155032Y127279D01*
Y125779D02*Y127279D01*
X155532Y124578D02*X155032Y124078D01*
Y123078D02*Y124078D01*
Y123078D02*X155532Y122578D01*
X158532D01*
X159032Y123078D02*X158532Y122578D01*
X159032Y123078D02*Y124078D01*
X158532Y124578D02*X159032Y124078D01*
X157032Y122578D02*Y124078D01*
X137578Y125504D02*Y127004D01*
X137078Y127504D02*X137578Y127004D01*
X134078Y127504D02*X137078D01*
X134078D02*X133578Y127004D01*
Y125504D02*Y127004D01*
X135578Y124303D02*X133578Y122303D01*
X135578Y121803D02*Y124303D01*
X133578Y122303D02*X137578D01*
X30800Y41113D02*Y45113D01*
X32300Y41113D02*X32800Y41613D01*
Y44613D01*
X32300Y45113D02*X32800Y44613D01*
X30300Y45113D02*X32300D01*
X30300Y41113D02*X32300D01*
X34001Y41613D02*X34501Y41113D01*
X35501D01*
X36001Y41613D01*
Y44613D01*
X35501Y45113D02*X36001Y44613D01*
X34501Y45113D02*X35501D01*
X34001Y44613D02*X34501Y45113D01*
Y43113D02*X36001D01*
X15136Y47563D02*X19136D01*
X15136Y46063D02*Y48063D01*
Y46063D02*X15636Y45563D01*
X16636D01*
X17136Y46063D02*X16636Y45563D01*
X17136Y46063D02*Y47563D01*
X15136Y42362D02*Y44362D01*
Y43362D02*X19136D01*
Y39161D02*Y40661D01*
X18636Y41161D02*X19136Y40661D01*
X15636Y41161D02*X18636D01*
X15636D02*X15136Y40661D01*
Y39161D02*Y40661D01*
X19136Y36460D02*Y37460D01*
X15136Y36960D02*X19136D01*
X16136Y37960D02*X15136Y36960D01*
X18471Y19050D02*X20471D01*
X20971Y19550D01*
Y20550D01*
X20471Y21050D02*X20971Y20550D01*
X18971Y21050D02*X20471D01*
X18971Y19050D02*Y23050D01*
Y21050D02*X20971Y23050D01*
X22172Y19550D02*X22672Y19050D01*
X23672D01*
X24172Y19550D01*
Y22550D01*
X23672Y23050D02*X24172Y22550D01*
X22672Y23050D02*X23672D01*
X22172Y22550D02*X22672Y23050D01*
Y21050D02*X24172D01*
X25373Y19550D02*X25873Y19050D01*
X27373D01*
X27873Y19550D01*
Y20550D01*
X25373Y23050D02*X27873Y20550D01*
X25373Y23050D02*X27873D01*
M02*
