G04 start of page 8 for group -4078 idx -4078 *
G04 Title: (unknown), bottomsilk *
G04 Creator: pcb 20091103 *
G04 CreationDate: Sun 20 Feb 2011 16:36:46 GMT UTC *
G04 For: thomas *
G04 Format: Gerber/RS-274X *
G04 PCB-Dimensions: 240157 142913 *
G04 PCB-Coordinate-Origin: lower left *
%MOIN*%
%FSLAX25Y25*%
%LNBACKSILK*%
%ADD14C,0.0080*%
%ADD15C,0.0120*%
%ADD60C,0.0060*%
%ADD61C,0.0100*%
%ADD62C,0.0130*%
%ADD63C,0.0074*%
G54D62*X192500Y17413D02*Y18413D01*
X197500D02*X195000Y20913D01*
X192500Y18413D02*X195000Y20913D01*
X192500Y21413D02*X197500D01*
Y17413D02*Y18413D01*
X195000Y10413D02*Y17413D01*
X192500D02*X197500D01*
X195000Y21913D02*Y26913D01*
X211500Y99913D02*X219500D01*
G54D14*X150500Y87413D02*Y85413D01*
G54D15*Y83413D02*X144000Y89913D01*
X157000D01*
X150500Y83413D01*
G54D14*Y88913D02*Y88413D01*
G54D62*X217000Y97413D02*X219500Y99913D01*
X217000Y102413D01*
G54D60*X27000Y118593D02*Y121313D01*
X28700Y118593D02*Y121313D01*
X27000Y119953D02*X28700D01*
X29516Y118593D02*X30196D01*
X29856D02*Y121313D01*
X29516D02*X30196D01*
X31013Y119953D02*X32373D01*
X34550Y118593D02*X34890Y118933D01*
X33530Y118593D02*X34550D01*
X33190Y118933D02*X33530Y118593D01*
X33190Y118933D02*Y119613D01*
X33530Y119953D01*
X34550D01*
X34890Y120293D01*
Y120973D01*
X34550Y121313D02*X34890Y120973D01*
X33530Y121313D02*X34550D01*
X33190Y120973D02*X33530Y121313D01*
X36046Y118593D02*Y121313D01*
X35706Y118593D02*X37066D01*
X37406Y118933D01*
Y119613D01*
X37066Y119953D02*X37406Y119613D01*
X36046Y119953D02*X37066D01*
X38223D02*X39243D01*
X38223Y121313D02*X39583D01*
X38223Y118593D02*Y121313D01*
Y118593D02*X39583D01*
X40400Y119953D02*X41420D01*
X40400Y121313D02*X41760D01*
X40400Y118593D02*Y121313D01*
Y118593D02*X41760D01*
X42916D02*Y121313D01*
X43936Y118593D02*X44276Y118933D01*
Y120973D01*
X43936Y121313D02*X44276Y120973D01*
X42576Y121313D02*X43936D01*
X42576Y118593D02*X43936D01*
X25689Y123536D02*Y125916D01*
Y123536D02*X26029Y123196D01*
X27049D01*
X27389Y123536D01*
Y125916D01*
X25689Y124556D02*X27389D01*
X28205Y123196D02*Y125916D01*
Y123196D02*Y123536D01*
X29905Y125236D01*
Y123196D02*Y125916D01*
X30722Y123536D02*Y125916D01*
Y123536D02*X31062Y123196D01*
X32082D01*
X32422Y123536D01*
Y125916D01*
X30722Y124556D02*X32422D01*
X33239Y123196D02*Y125916D01*
X34599D01*
X35415Y123536D02*Y125576D01*
Y123536D02*X35755Y123196D01*
X36435D01*
X36775Y123536D01*
Y125576D01*
X36435Y125916D02*X36775Y125576D01*
X35755Y125916D02*X36435D01*
X35415Y125576D02*X35755Y125916D01*
X38952Y123196D02*X39292Y123536D01*
X37932Y123196D02*X38952D01*
X37592Y123536D02*X37932Y123196D01*
X37592Y123536D02*Y125576D01*
X37932Y125916D01*
X38952D01*
X39292Y125576D01*
Y124896D02*Y125576D01*
X38952Y124556D02*X39292Y124896D01*
X38272Y124556D02*X38952D01*
X42693Y123196D02*X43033Y123536D01*
X41673Y123196D02*X42693D01*
X41333Y123536D02*X41673Y123196D01*
X41333Y123536D02*Y124216D01*
X41673Y124556D01*
X42693D01*
X43033Y124896D01*
Y125576D01*
X42693Y125916D02*X43033Y125576D01*
X41673Y125916D02*X42693D01*
X41333Y125576D02*X41673Y125916D01*
X43849Y123196D02*Y125916D01*
X44869Y124896D01*
X45889Y125916D01*
Y123196D02*Y125916D01*
X81520Y138413D02*X83560D01*
X81520D02*X81180Y138073D01*
Y137393D02*Y138073D01*
Y137393D02*X81520Y137053D01*
X83560D01*
X83900Y137393D02*X83560Y137053D01*
X83900Y137393D02*Y138073D01*
X83560Y138413D02*X83900Y138073D01*
X81180Y135897D02*X83900D01*
X81180Y134877D02*Y136237D01*
Y134877D02*X81520Y134537D01*
X82200D01*
X82540Y134877D02*X82200Y134537D01*
X82540Y134877D02*Y135897D01*
Y132360D02*Y133720D01*
X81520Y131543D02*X83900D01*
X81520D02*X81180Y131203D01*
Y130183D02*Y131203D01*
Y130183D02*X81520Y129843D01*
X83900D01*
X82540D02*Y131543D01*
X81180Y129027D02*X83900D01*
X81180D02*X82200Y128007D01*
X81180Y126987D01*
X83900D01*
X81180Y125830D02*X83900D01*
X81180Y124810D02*Y126170D01*
Y124810D02*X81520Y124470D01*
X82200D01*
X82540Y124810D02*X82200Y124470D01*
X82540Y124810D02*Y125830D01*
X28529Y132431D02*Y135151D01*
X29549Y132431D02*X29889Y132771D01*
Y134811D01*
X29549Y135151D02*X29889Y134811D01*
X28189Y135151D02*X29549D01*
X28189Y132431D02*X29549D01*
X30705Y133791D02*X31725D01*
X30705Y135151D02*X32065D01*
X30705Y132431D02*Y135151D01*
Y132431D02*X32065D01*
X34242D02*X34582Y132771D01*
X33222Y132431D02*X34242D01*
X32882Y132771D02*X33222Y132431D01*
X32882Y132771D02*Y133451D01*
X33222Y133791D01*
X34242D01*
X34582Y134131D01*
Y134811D01*
X34242Y135151D02*X34582Y134811D01*
X33222Y135151D02*X34242D01*
X32882Y134811D02*X33222Y135151D01*
X35399Y132431D02*X36079D01*
X35739D02*Y135151D01*
X35399D02*X36079D01*
X38255Y132431D02*X38595Y132771D01*
X37235Y132431D02*X38255D01*
X36895Y132771D02*X37235Y132431D01*
X36895Y132771D02*Y134811D01*
X37235Y135151D01*
X38255D01*
X38595Y134811D01*
Y134131D02*Y134811D01*
X38255Y133791D02*X38595Y134131D01*
X37575Y133791D02*X38255D01*
X39412Y132431D02*Y135151D01*
Y132431D02*Y132771D01*
X41112Y134471D01*
Y132431D02*Y135151D01*
X43153Y133791D02*X44513D01*
X46553Y132431D02*X47913D01*
X47233D02*Y135151D01*
X48730Y132431D02*Y135151D01*
X50430Y132431D02*Y135151D01*
X48730Y133791D02*X50430D01*
X51247Y132771D02*Y134811D01*
Y132771D02*X51587Y132431D01*
X52267D01*
X52607Y132771D01*
Y134811D01*
X52267Y135151D02*X52607Y134811D01*
X51587Y135151D02*X52267D01*
X51247Y134811D02*X51587Y135151D01*
X53423Y132431D02*Y135151D01*
Y132431D02*X54443Y133451D01*
X55463Y132431D01*
Y135151D01*
X56280Y132771D02*Y135151D01*
Y132771D02*X56620Y132431D01*
X57640D01*
X57980Y132771D01*
Y135151D01*
X56280Y133791D02*X57980D01*
X60157Y132431D02*X60497Y132771D01*
X59137Y132431D02*X60157D01*
X58797Y132771D02*X59137Y132431D01*
X58797Y132771D02*Y133451D01*
X59137Y133791D01*
X60157D01*
X60497Y134131D01*
Y134811D01*
X60157Y135151D02*X60497Y134811D01*
X59137Y135151D02*X60157D01*
X58797Y134811D02*X59137Y135151D01*
X62537Y132771D02*Y134811D01*
Y132771D02*X62877Y132431D01*
X63557D01*
X63897Y132771D01*
Y134811D01*
X63557Y135151D02*X63897Y134811D01*
X62877Y135151D02*X63557D01*
X62537Y134811D02*X62877Y135151D01*
X64714Y132431D02*Y135151D01*
X66074D01*
X67231Y132431D02*Y135151D01*
X68251Y132431D02*X68591Y132771D01*
Y134811D01*
X68251Y135151D02*X68591Y134811D01*
X66891Y135151D02*X68251D01*
X66891Y132431D02*X68251D01*
X69407Y135151D02*X70767D01*
X71107Y134811D01*
Y134131D02*Y134811D01*
X70767Y133791D02*X71107Y134131D01*
X69747Y133791D02*X70767D01*
X69747Y132431D02*Y135151D01*
X69407Y132431D02*X70767D01*
X71107Y132771D01*
Y133451D01*
X70767Y133791D02*X71107Y133451D01*
X71924Y132431D02*Y134811D01*
X72264Y135151D01*
X72944D01*
X73284Y134811D01*
Y132431D02*Y134811D01*
X74101Y132431D02*X75461D01*
X75801Y132771D01*
Y133451D01*
X75461Y133791D02*X75801Y133451D01*
X74441Y133791D02*X75461D01*
X74441Y132431D02*Y135151D01*
Y133791D02*X75801Y135151D01*
X76617Y132431D02*Y132771D01*
X77297Y133451D01*
X77977Y132771D01*
Y132431D02*Y132771D01*
X77297Y133451D02*Y135151D01*
X67500Y90433D02*Y92473D01*
Y90433D02*X67840Y90093D01*
X68520D01*
X68860Y90433D01*
Y92473D01*
X68520Y92813D02*X68860Y92473D01*
X67840Y92813D02*X68520D01*
X67500Y92473D02*X67840Y92813D01*
X71036Y90093D02*X71376Y90433D01*
X70016Y90093D02*X71036D01*
X69676Y90433D02*X70016Y90093D01*
X69676Y90433D02*Y91113D01*
X70016Y91453D01*
X71036D01*
X71376Y91793D01*
Y92473D01*
X71036Y92813D02*X71376Y92473D01*
X70016Y92813D02*X71036D01*
X69676Y92473D02*X70016Y92813D01*
X72533Y90093D02*Y92813D01*
X73553Y90093D02*X73893Y90433D01*
Y92473D01*
X73553Y92813D02*X73893Y92473D01*
X72193Y92813D02*X73553D01*
X72193Y90093D02*X73553D01*
X76274D02*Y92813D01*
X77294Y90093D02*X77634Y90433D01*
Y92473D01*
X77294Y92813D02*X77634Y92473D01*
X75934Y92813D02*X77294D01*
X75934Y90093D02*X77294D01*
X79810D02*X80150Y90433D01*
X78790Y90093D02*X79810D01*
X78450Y90433D02*X78790Y90093D01*
X78450Y90433D02*Y91113D01*
X78790Y91453D01*
X79810D01*
X80150Y91793D01*
Y92473D01*
X79810Y92813D02*X80150Y92473D01*
X78790Y92813D02*X79810D01*
X78450Y92473D02*X78790Y92813D01*
X81307Y90093D02*Y92813D01*
X80967Y90093D02*X82327D01*
X82667Y90433D01*
Y91113D01*
X82327Y91453D02*X82667Y91113D01*
X81307Y91453D02*X82327D01*
X49500Y44093D02*X50180D01*
X49840D02*Y46813D01*
X49500D02*X50180D01*
X51336D02*X52356D01*
X50996Y46473D02*X51336Y46813D01*
X50996Y44433D02*Y46473D01*
Y44433D02*X51336Y44093D01*
X52356D01*
X54533D02*X54873Y44433D01*
X53513Y44093D02*X54533D01*
X53173Y44433D02*X53513Y44093D01*
X53173Y44433D02*Y45113D01*
X53513Y45453D01*
X54533D01*
X54873Y45793D01*
Y46473D01*
X54533Y46813D02*X54873Y46473D01*
X53513Y46813D02*X54533D01*
X53173Y46473D02*X53513Y46813D01*
X56030Y44093D02*Y46813D01*
X55690Y44093D02*X57050D01*
X57390Y44433D01*
Y45113D01*
X57050Y45453D02*X57390Y45113D01*
X56030Y45453D02*X57050D01*
X58206Y46473D02*X60246Y44433D01*
X61063Y44093D02*X61743D01*
X61403D02*Y46813D01*
X61063D02*X61743D01*
X62900D02*X63920D01*
X62560Y46473D02*X62900Y46813D01*
X62560Y44433D02*Y46473D01*
Y44433D02*X62900Y44093D01*
X63920D01*
X65076D02*Y46813D01*
X66096Y44093D02*X66436Y44433D01*
Y46473D01*
X66096Y46813D02*X66436Y46473D01*
X64736Y46813D02*X66096D01*
X64736Y44093D02*X66096D01*
X68817Y44433D02*Y46813D01*
Y44433D02*X69157Y44093D01*
X69497D01*
X68477Y45453D02*X69157D01*
X70178Y45793D02*Y46473D01*
Y45793D02*X70518Y45453D01*
X71198D01*
X71538Y45793D01*
Y46473D01*
X71198Y46813D02*X71538Y46473D01*
X70518Y46813D02*X71198D01*
X70178Y46473D02*X70518Y46813D01*
X72694Y45793D02*Y46813D01*
Y45793D02*X73034Y45453D01*
X73714D01*
X72354D02*X72694Y45793D01*
X77115Y44093D02*Y46813D01*
X76775D02*X77115Y46473D01*
X76095Y46813D02*X76775D01*
X75755Y46473D02*X76095Y46813D01*
X75755Y45793D02*Y46473D01*
Y45793D02*X76095Y45453D01*
X76775D01*
X77115Y45793D01*
X78272Y46813D02*X79292D01*
X79632Y46473D01*
X79292Y46133D02*X79632Y46473D01*
X78272Y46133D02*X79292D01*
X77932Y45793D02*X78272Y46133D01*
X77932Y45793D02*X78272Y45453D01*
X79292D01*
X79632Y45793D01*
X77932Y46473D02*X78272Y46813D01*
X80788Y44093D02*Y46813D01*
X80448Y44093D02*X81808D01*
X82148Y44433D01*
Y45113D01*
X81808Y45453D02*X82148Y45113D01*
X80788Y45453D02*X81808D01*
X82965Y44093D02*X83645D01*
X83305D02*Y46813D01*
X82965D02*X83645D01*
X84802D02*X85822D01*
X84462Y46473D02*X84802Y46813D01*
X84462Y44433D02*Y46473D01*
Y44433D02*X84802Y44093D01*
X85822D01*
X86638Y44433D02*X86978Y44093D01*
X87658D01*
X87998Y44433D01*
Y46473D01*
X87658Y46813D02*X87998Y46473D01*
X86978Y46813D02*X87658D01*
X86638Y46473D02*X86978Y46813D01*
Y45453D02*X87998D01*
X88815Y44433D02*X89155Y44093D01*
X89835D01*
X90175Y44433D01*
Y46473D01*
X89835Y46813D02*X90175Y46473D01*
X89155Y46813D02*X89835D01*
X88815Y46473D02*X89155Y46813D01*
Y45453D02*X90175D01*
X90992Y44093D02*Y46813D01*
Y44093D02*X92352D01*
X90992Y45453D02*X92012D01*
X60500Y25478D02*X60855Y25123D01*
X61920D01*
X62275Y25478D01*
Y26188D01*
X60500Y27963D02*X62275Y26188D01*
X60500Y27963D02*X62275D01*
X64547Y25123D02*X64902Y25478D01*
X63482Y25123D02*X64547D01*
X63127Y25478D02*X63482Y25123D01*
X63127Y25478D02*Y26188D01*
X63482Y26543D01*
X64547D01*
X64902Y26898D01*
Y27608D01*
X64547Y27963D02*X64902Y27608D01*
X63482Y27963D02*X64547D01*
X63127Y27608D02*X63482Y27963D01*
X67033Y26543D02*X68453D01*
X70584Y27608D02*X70939Y27963D01*
X70584Y26898D02*Y27608D01*
Y26898D02*X70939Y26543D01*
X71649D01*
X72004Y26898D01*
Y27608D01*
X71649Y27963D02*X72004Y27608D01*
X70939Y27963D02*X71649D01*
X70584Y26188D02*X70939Y26543D01*
X70584Y25478D02*Y26188D01*
Y25478D02*X70939Y25123D01*
X71649D01*
X72004Y25478D01*
Y26188D01*
X71649Y26543D02*X72004Y26188D01*
X74276Y25123D02*X74631Y25478D01*
X73211Y25123D02*X74276D01*
X72856Y25478D02*X73211Y25123D01*
X72856Y25478D02*Y26188D01*
X73211Y26543D01*
X74276D01*
X74631Y26898D01*
Y27608D01*
X74276Y27963D02*X74631Y27608D01*
X73211Y27963D02*X74276D01*
X72856Y27608D02*X73211Y27963D01*
X76762Y25123D02*Y27963D01*
X78182D01*
X79035Y25833D02*Y26188D01*
Y26898D02*Y27963D01*
X80100Y25123D02*Y27963D01*
X79745Y25123D02*X81165D01*
X81520Y25478D01*
Y26188D01*
X81165Y26543D02*X81520Y26188D01*
X80100Y26543D02*X81165D01*
X82373Y26898D02*Y27608D01*
Y26898D02*X82728Y26543D01*
X83438D01*
X83793Y26898D01*
Y27608D01*
X83438Y27963D02*X83793Y27608D01*
X82728Y27963D02*X83438D01*
X82373Y27608D02*X82728Y27963D01*
X55500Y22043D02*X56920Y20623D01*
X55500Y22043D02*X57275D01*
X56920Y20623D02*Y23463D01*
X58127D02*X58482D01*
X59335Y23108D02*X59690Y23463D01*
X59335Y22398D02*Y23108D01*
Y22398D02*X59690Y22043D01*
X60400D01*
X60755Y22398D01*
Y23108D01*
X60400Y23463D02*X60755Y23108D01*
X59690Y23463D02*X60400D01*
X59335Y21688D02*X59690Y22043D01*
X59335Y20978D02*Y21688D01*
Y20978D02*X59690Y20623D01*
X60400D01*
X60755Y20978D01*
Y21688D01*
X60400Y22043D02*X60755Y21688D01*
X61608Y20623D02*Y22753D01*
X62318Y23463D01*
X63028Y22753D01*
Y20623D02*Y22753D01*
X65158Y22043D02*X66578D01*
X68709Y20978D02*X69064Y20623D01*
X69774D01*
X70129Y20978D01*
Y23108D01*
X69774Y23463D02*X70129Y23108D01*
X69064Y23463D02*X69774D01*
X68709Y23108D02*X69064Y23463D01*
Y22043D02*X70129D01*
X70982D02*X72402Y20623D01*
X70982Y22043D02*X72757D01*
X72402Y20623D02*Y23463D01*
X73609Y20623D02*Y22753D01*
X74319Y23463D01*
X75029Y22753D01*
Y20623D02*Y22753D01*
X77160Y20623D02*X77870D01*
X77515D02*Y23463D01*
X77160D02*X77870D01*
X78723Y20623D02*Y23463D01*
Y20623D02*Y20978D01*
X80498Y22753D01*
Y20623D02*Y23463D01*
X81706Y20623D02*Y23463D01*
X81351Y20623D02*X82771D01*
X83126Y20978D01*
Y21688D01*
X82771Y22043D02*X83126Y21688D01*
X81706Y22043D02*X82771D01*
X83978Y20623D02*Y23108D01*
X84333Y23463D01*
X85043D01*
X85398Y23108D01*
Y20623D02*Y23108D01*
X86251Y20623D02*X87671D01*
X86961D02*Y23463D01*
X100600Y53593D02*Y55633D01*
X101280Y56313D01*
X101960Y55633D01*
Y53593D02*Y55633D01*
X102776Y53933D02*Y55973D01*
Y53933D02*X103116Y53593D01*
X103796D01*
X104136Y53933D01*
Y55973D01*
X103796Y56313D02*X104136Y55973D01*
X103116Y56313D02*X103796D01*
X102776Y55973D02*X103116Y56313D01*
X104953Y53593D02*Y56313D01*
X106313D01*
X107130Y53593D02*X108490D01*
X107810D02*Y56313D01*
X110530Y53593D02*X111890D01*
X112230Y53933D01*
Y54613D01*
X111890Y54953D02*X112230Y54613D01*
X110870Y54953D02*X111890D01*
X110870Y53593D02*Y56313D01*
Y54953D02*X112230Y56313D01*
X113047Y54953D02*X114067D01*
X113047Y56313D02*X114407D01*
X113047Y53593D02*Y56313D01*
Y53593D02*X114407D01*
X115224D02*Y56313D01*
Y53593D02*X116584D01*
X115224Y54953D02*X116244D01*
X67500Y65093D02*Y67813D01*
Y65093D02*X68860D01*
X67500Y66453D02*X68520D01*
X69676D02*Y67473D01*
X70016Y67813D01*
X70696D01*
X71036Y67473D01*
Y66453D02*Y67473D01*
X71853Y65093D02*Y67473D01*
X72193Y67813D01*
X73214Y65433D02*Y67813D01*
Y65433D02*X73554Y65093D01*
X73894D01*
X72874Y66453D02*X73554D01*
X74574Y65773D02*Y66113D01*
Y66793D02*Y67813D01*
X75255Y65093D02*Y67473D01*
X75595Y67813D01*
X76276Y65093D02*Y67473D01*
X76616Y67813D01*
X77636Y66793D02*Y67813D01*
Y66793D02*X77976Y66453D01*
X78316D01*
X78656Y66793D01*
Y67813D01*
Y66793D02*X78996Y66453D01*
X79336D01*
X79676Y66793D01*
Y67813D01*
X77296Y66453D02*X77636Y66793D01*
X80833Y67813D02*X81853D01*
X80493Y67473D02*X80833Y67813D01*
X80493Y66793D02*Y67473D01*
Y66793D02*X80833Y66453D01*
X81513D01*
X81853Y66793D01*
X80493Y67133D02*X81853D01*
Y66793D02*Y67133D01*
X83010Y66793D02*Y67813D01*
Y66793D02*X83350Y66453D01*
X83690D01*
X84030Y66793D01*
Y67813D01*
X82670Y66453D02*X83010Y66793D01*
X85186Y65093D02*Y67473D01*
X85526Y67813D01*
X84846Y66113D02*X85526D01*
X87431Y65093D02*Y67813D01*
Y67473D02*X87771Y67813D01*
X88451D01*
X88791Y67473D01*
Y66793D02*Y67473D01*
X88451Y66453D02*X88791Y66793D01*
X87771Y66453D02*X88451D01*
X87431Y66793D02*X87771Y66453D01*
X89608D02*Y67473D01*
X89948Y67813D01*
X90968Y66453D02*Y68493D01*
X90628Y68833D02*X90968Y68493D01*
X89948Y68833D02*X90628D01*
X89608Y68493D02*X89948Y68833D01*
Y67813D02*X90628D01*
X90968Y67473D01*
X94368Y65093D02*X94708Y65433D01*
X93348Y65093D02*X94368D01*
X93008Y65433D02*X93348Y65093D01*
X93008Y65433D02*Y66113D01*
X93348Y66453D01*
X94368D01*
X94708Y66793D01*
Y67473D01*
X94368Y67813D02*X94708Y67473D01*
X93348Y67813D02*X94368D01*
X93008Y67473D02*X93348Y67813D01*
X95865D02*X96885D01*
X95525Y67473D02*X95865Y67813D01*
X95525Y66793D02*Y67473D01*
Y66793D02*X95865Y66453D01*
X96545D01*
X96885Y66793D01*
X95525Y67133D02*X96885D01*
Y66793D02*Y67133D01*
X98042Y67813D02*X99062D01*
X97702Y67473D02*X98042Y67813D01*
X97702Y66793D02*Y67473D01*
Y66793D02*X98042Y66453D01*
X98722D01*
X99062Y66793D01*
X97702Y67133D02*X99062D01*
Y66793D02*Y67133D01*
X100218Y67813D02*X101238D01*
X99878Y67473D02*X100218Y67813D01*
X99878Y66793D02*Y67473D01*
Y66793D02*X100218Y66453D01*
X100898D01*
X101238Y66793D01*
X99878Y67133D02*X101238D01*
Y66793D02*Y67133D01*
X103415Y65093D02*Y67813D01*
X103075D02*X103415Y67473D01*
X102395Y67813D02*X103075D01*
X102055Y67473D02*X102395Y67813D01*
X102055Y66793D02*Y67473D01*
Y66793D02*X102395Y66453D01*
X103075D01*
X103415Y66793D01*
X105592Y65093D02*X105932Y65433D01*
X104572Y65093D02*X105592D01*
X104232Y65433D02*X104572Y65093D01*
X104232Y65433D02*Y66113D01*
X104572Y66453D01*
X105592D01*
X105932Y66793D01*
Y67473D01*
X105592Y67813D02*X105932Y67473D01*
X104572Y67813D02*X105592D01*
X104232Y67473D02*X104572Y67813D01*
X107088Y65093D02*Y67473D01*
X107428Y67813D01*
X106748Y66113D02*X107428D01*
X108109Y66453D02*Y67473D01*
X108449Y67813D01*
X109129D01*
X109469Y67473D01*
Y66453D02*Y67473D01*
X111646Y65093D02*Y67813D01*
X111306D02*X111646Y67473D01*
X110626Y67813D02*X111306D01*
X110286Y67473D02*X110626Y67813D01*
X110286Y66793D02*Y67473D01*
Y66793D02*X110626Y66453D01*
X111306D01*
X111646Y66793D01*
X112462Y65773D02*Y66113D01*
Y66793D02*Y67813D01*
X113143Y66793D02*Y67473D01*
Y66793D02*X113483Y66453D01*
X114163D01*
X114503Y66793D01*
Y67473D01*
X114163Y67813D02*X114503Y67473D01*
X113483Y67813D02*X114163D01*
X113143Y67473D02*X113483Y67813D01*
X116544Y65093D02*Y67813D01*
Y66793D02*X116884Y66453D01*
X117564D01*
X117904Y66793D01*
Y67813D01*
X119061Y65093D02*Y67473D01*
X119401Y67813D01*
X118721Y66113D02*X119401D01*
X120421Y65093D02*Y67473D01*
X120761Y67813D01*
X120081Y66113D02*X120761D01*
X121782Y66793D02*Y68833D01*
X121442Y66453D02*X121782Y66793D01*
X122122Y66453D01*
X122802D01*
X123142Y66793D01*
Y67473D01*
X122802Y67813D02*X123142Y67473D01*
X122122Y67813D02*X122802D01*
X121782Y67473D02*X122122Y67813D01*
X123959Y66113D02*X124299D01*
X123959Y66793D02*X124299D01*
X125115Y67473D02*X127155Y65433D01*
X127972Y67473D02*X130012Y65433D01*
X131169Y67813D02*X132189D01*
X132529Y67473D01*
X132189Y67133D02*X132529Y67473D01*
X131169Y67133D02*X132189D01*
X130829Y66793D02*X131169Y67133D01*
X130829Y66793D02*X131169Y66453D01*
X132189D01*
X132529Y66793D01*
X130829Y67473D02*X131169Y67813D01*
X133685D02*X134705D01*
X133345Y67473D02*X133685Y67813D01*
X133345Y66793D02*Y67473D01*
Y66793D02*X133685Y66453D01*
X134365D01*
X134705Y66793D01*
X133345Y67133D02*X134705D01*
Y66793D02*Y67133D01*
X135862Y67813D02*X136882D01*
X135522Y67473D02*X135862Y67813D01*
X135522Y66793D02*Y67473D01*
Y66793D02*X135862Y66453D01*
X136542D01*
X136882Y66793D01*
X135522Y67133D02*X136882D01*
Y66793D02*Y67133D01*
X138039Y67813D02*X139059D01*
X137699Y67473D02*X138039Y67813D01*
X137699Y66793D02*Y67473D01*
Y66793D02*X138039Y66453D01*
X138719D01*
X139059Y66793D01*
X137699Y67133D02*X139059D01*
Y66793D02*Y67133D01*
X141235Y65093D02*Y67813D01*
X140895D02*X141235Y67473D01*
X140215Y67813D02*X140895D01*
X139875Y67473D02*X140215Y67813D01*
X139875Y66793D02*Y67473D01*
Y66793D02*X140215Y66453D01*
X140895D01*
X141235Y66793D01*
X142392Y67813D02*X143412D01*
X143752Y67473D01*
X143412Y67133D02*X143752Y67473D01*
X142392Y67133D02*X143412D01*
X142052Y66793D02*X142392Y67133D01*
X142052Y66793D02*X142392Y66453D01*
X143412D01*
X143752Y66793D01*
X142052Y67473D02*X142392Y67813D01*
X144909Y65093D02*Y67473D01*
X145249Y67813D01*
X144569Y66113D02*X145249D01*
X145929Y66453D02*Y67473D01*
X146269Y67813D01*
X146949D01*
X147289Y67473D01*
Y66453D02*Y67473D01*
X149466Y65093D02*Y67813D01*
X149126D02*X149466Y67473D01*
X148446Y67813D02*X149126D01*
X148106Y67473D02*X148446Y67813D01*
X148106Y66793D02*Y67473D01*
Y66793D02*X148446Y66453D01*
X149126D01*
X149466Y66793D01*
X150283Y65773D02*Y66113D01*
Y66793D02*Y67813D01*
X150963Y66793D02*Y67473D01*
Y66793D02*X151303Y66453D01*
X151983D01*
X152323Y66793D01*
Y67473D01*
X151983Y67813D02*X152323Y67473D01*
X151303Y67813D02*X151983D01*
X150963Y67473D02*X151303Y67813D01*
X153140D02*X153480D01*
X154637Y66453D02*X155657D01*
X154297Y66793D02*X154637Y66453D01*
X154297Y66793D02*Y67473D01*
X154637Y67813D01*
X155657D01*
X156473Y66793D02*Y67473D01*
Y66793D02*X156813Y66453D01*
X157493D01*
X157833Y66793D01*
Y67473D01*
X157493Y67813D02*X157833Y67473D01*
X156813Y67813D02*X157493D01*
X156473Y67473D02*X156813Y67813D01*
X158990Y66793D02*Y67813D01*
Y66793D02*X159330Y66453D01*
X159670D01*
X160010Y66793D01*
Y67813D01*
Y66793D02*X160350Y66453D01*
X160690D01*
X161030Y66793D01*
Y67813D01*
X158650Y66453D02*X158990Y66793D01*
X111811Y25742D02*Y28562D01*
X112751Y29502D01*
X113691Y28562D01*
Y25742D02*Y28562D01*
X114819Y26212D02*X115289Y25742D01*
X116229D01*
X116699Y26212D01*
Y29032D01*
X116229Y29502D02*X116699Y29032D01*
X115289Y29502D02*X116229D01*
X114819Y29032D02*X115289Y29502D01*
Y27622D02*X116699D01*
X117828Y29502D02*X118298D01*
X119427Y26212D02*X119897Y25742D01*
X121307D01*
X121777Y26212D01*
Y27152D01*
X119427Y29502D02*X121777Y27152D01*
X119427Y29502D02*X121777D01*
X122906Y25742D02*X124786D01*
X122906D02*Y27622D01*
X123376Y27152D01*
X124316D01*
X124786Y27622D01*
Y29032D01*
X124316Y29502D02*X124786Y29032D01*
X123376Y29502D02*X124316D01*
X122906Y29032D02*X123376Y29502D01*
X127607Y25742D02*Y29502D01*
X129487D01*
X130616Y26682D02*Y27152D01*
Y28092D02*Y29502D01*
X132027Y25742D02*Y29032D01*
X132497Y29502D01*
X131557Y27152D02*X132497D01*
X133908Y29502D02*X135318D01*
X133438Y29032D02*X133908Y29502D01*
X133438Y28092D02*Y29032D01*
Y28092D02*X133908Y27622D01*
X134848D01*
X135318Y28092D01*
X133438Y28562D02*X135318D01*
Y28092D02*Y28562D01*
G54D63*X115531Y16033D02*X116461Y16963D01*
X112741Y16033D02*X115531D01*
X111811Y16963D02*X112741Y16033D01*
X111811Y16963D02*Y18823D01*
X112741Y19753D01*
X115531D01*
X116461Y20683D01*
Y22543D01*
X115531Y23473D02*X116461Y22543D01*
X112741Y23473D02*X115531D01*
X111811Y22543D02*X112741Y23473D01*
X118694Y16033D02*Y22543D01*
X119624Y23473D01*
X121484D01*
X122414Y22543D01*
Y16033D02*Y22543D01*
X125578Y16033D02*Y23473D01*
X124648Y16033D02*X128368D01*
X129298Y16963D01*
Y18823D01*
X128368Y19753D02*X129298Y18823D01*
X125578Y19753D02*X128368D01*
X131532D02*X134322D01*
X131532Y23473D02*X135252D01*
X131532Y16033D02*Y23473D01*
Y16033D02*X135252D01*
X137486D02*X141206D01*
X142136Y16963D01*
Y18823D01*
X141206Y19753D02*X142136Y18823D01*
X138416Y19753D02*X141206D01*
X138416Y16033D02*Y23473D01*
Y19753D02*X142136Y23473D01*
X147718Y16963D02*Y22543D01*
Y16963D02*X148648Y16033D01*
X150508D01*
X151438Y16963D01*
Y22543D01*
X150508Y23473D02*X151438Y22543D01*
X148648Y23473D02*X150508D01*
X147718Y22543D02*X148648Y23473D01*
X157392Y16033D02*X158322Y16963D01*
X154602Y16033D02*X157392D01*
X153672Y16963D02*X154602Y16033D01*
X153672Y16963D02*Y18823D01*
X154602Y19753D01*
X157392D01*
X158322Y20683D01*
Y22543D01*
X157392Y23473D02*X158322Y22543D01*
X154602Y23473D02*X157392D01*
X153672Y22543D02*X154602Y23473D01*
X161486Y16033D02*Y23473D01*
X164276Y16033D02*X165206Y16963D01*
Y22543D01*
X164276Y23473D02*X165206Y22543D01*
X160556Y23473D02*X164276D01*
X160556Y16033D02*X164276D01*
G54D60*X95000Y8933D02*Y10973D01*
Y8933D02*X95340Y8593D01*
X96020D01*
X96360Y8933D01*
Y10973D01*
X96020Y11313D02*X96360Y10973D01*
X95340Y11313D02*X96020D01*
X95000Y10973D02*X95340Y11313D01*
X97176Y8593D02*Y10973D01*
X97516Y11313D01*
X98196D01*
X98536Y10973D01*
Y8593D02*Y10973D01*
X99353Y8593D02*X100713D01*
X100033D02*Y11313D01*
X101870Y8593D02*Y11313D01*
X101530Y8593D02*X102890D01*
X103230Y8933D01*
Y9613D01*
X102890Y9953D02*X103230Y9613D01*
X101870Y9953D02*X102890D01*
X104046Y8593D02*Y10973D01*
X104386Y11313D01*
X105066D01*
X105406Y10973D01*
Y8593D02*Y10973D01*
X106223Y8593D02*X107583D01*
X106903D02*Y11313D01*
X87000Y8593D02*Y11313D01*
X88360D01*
X89176Y9953D02*X90196D01*
X89176Y11313D02*X90536D01*
X89176Y8593D02*Y11313D01*
Y8593D02*X90536D01*
X91693D02*Y11313D01*
X92713Y8593D02*X93053Y8933D01*
Y10973D01*
X92713Y11313D02*X93053Y10973D01*
X91353Y11313D02*X92713D01*
X91353Y8593D02*X92713D01*
X86000Y13093D02*X87360D01*
X86680D02*Y15813D01*
X88176Y13093D02*X89536D01*
X89876Y13433D01*
Y14113D01*
X89536Y14453D02*X89876Y14113D01*
X88516Y14453D02*X89536D01*
X88516Y13093D02*Y15813D01*
Y14453D02*X89876Y15813D01*
X90693Y13433D02*Y15813D01*
Y13433D02*X91033Y13093D01*
X92053D01*
X92393Y13433D01*
Y15813D01*
X90693Y14453D02*X92393D01*
X93210Y13093D02*Y15813D01*
Y13093D02*Y13433D01*
X94910Y15133D01*
Y13093D02*Y15813D01*
X97086Y13093D02*X97426Y13433D01*
X96066Y13093D02*X97086D01*
X95726Y13433D02*X96066Y13093D01*
X95726Y13433D02*Y14113D01*
X96066Y14453D01*
X97086D01*
X97426Y14793D01*
Y15473D01*
X97086Y15813D02*X97426Y15473D01*
X96066Y15813D02*X97086D01*
X95726Y15473D02*X96066Y15813D01*
X98243Y13093D02*X98923D01*
X98583D02*Y15813D01*
X98243D02*X98923D01*
X101100Y13093D02*X101440Y13433D01*
X100080Y13093D02*X101100D01*
X99740Y13433D02*X100080Y13093D01*
X99740Y13433D02*Y14113D01*
X100080Y14453D01*
X101100D01*
X101440Y14793D01*
Y15473D01*
X101100Y15813D02*X101440Y15473D01*
X100080Y15813D02*X101100D01*
X99740Y15473D02*X100080Y15813D01*
X102256Y13093D02*X103616D01*
X102936D02*Y15813D01*
X104433Y13433D02*Y15473D01*
Y13433D02*X104773Y13093D01*
X105453D01*
X105793Y13433D01*
Y15473D01*
X105453Y15813D02*X105793Y15473D01*
X104773Y15813D02*X105453D01*
X104433Y15473D02*X104773Y15813D01*
X106610Y13093D02*X107970D01*
X108310Y13433D01*
Y14113D01*
X107970Y14453D02*X108310Y14113D01*
X106950Y14453D02*X107970D01*
X106950Y13093D02*Y15813D01*
Y14453D02*X108310Y15813D01*
X4180Y65553D02*X4520Y65213D01*
X4180Y65553D02*Y66573D01*
X4520Y66913D02*X4180Y66573D01*
X4520Y66913D02*X6560D01*
X6900Y66573D01*
Y65553D02*Y66573D01*
Y65553D02*X6560Y65213D01*
X5880D02*X6560D01*
X5540Y65553D02*X5880Y65213D01*
X5540Y65553D02*Y66233D01*
X4180Y64397D02*X6900D01*
X4180D02*X4520D01*
X6220Y62697D01*
X4180D02*X6900D01*
X4180Y61540D02*X6900D01*
X4180Y60520D02*X4520Y60180D01*
X6560D01*
X6900Y60520D02*X6560Y60180D01*
X6900Y60520D02*Y61880D01*
X4180Y60520D02*Y61880D01*
X4565Y41413D02*X4210Y41058D01*
Y40348D02*Y41058D01*
Y40348D02*X4565Y39993D01*
X6695D01*
X7050Y40348D02*X6695Y39993D01*
X7050Y40348D02*Y41058D01*
X6695Y41413D02*X7050Y41058D01*
X5630Y39993D02*Y41058D01*
X4210Y39141D02*X6340D01*
X7050Y38431D01*
X6340Y37721D01*
X4210D02*X6340D01*
X4565Y36868D02*X4210Y36513D01*
Y35803D02*Y36513D01*
Y35803D02*X4565Y35448D01*
X6695D01*
X7050Y35803D02*X6695Y35448D01*
X7050Y35803D02*Y36513D01*
X6695Y36868D02*X7050Y36513D01*
X5630Y35448D02*Y36513D01*
X4210Y49993D02*X4565Y49638D01*
X4210Y49993D02*Y51058D01*
X4565Y51413D02*X4210Y51058D01*
X4565Y51413D02*X6695D01*
X7050Y51058D01*
Y49993D02*Y51058D01*
Y49993D02*X6695Y49638D01*
X5985D02*X6695D01*
X5630Y49993D02*X5985Y49638D01*
X5630Y49993D02*Y50703D01*
X4210Y48786D02*X7050D01*
X4210D02*X4565D01*
X6340Y47011D01*
X4210D02*X7050D01*
X4210Y45803D02*X7050D01*
X4210Y44738D02*X4565Y44383D01*
X6695D01*
X7050Y44738D02*X6695Y44383D01*
X7050Y44738D02*Y46158D01*
X4210Y44738D02*Y46158D01*
X7050Y31993D02*Y33413D01*
Y31993D02*X6695Y31638D01*
X5985D02*X6695D01*
X5630Y31993D02*X5985Y31638D01*
X5630Y31993D02*Y33058D01*
X4210D02*X7050D01*
X4210Y31993D02*Y33413D01*
Y31993D02*X4565Y31638D01*
X5275D01*
X5630Y31993D02*X5275Y31638D01*
X4565Y30786D02*X7050D01*
X4565D02*X4210Y30431D01*
Y29366D02*Y30431D01*
Y29366D02*X4565Y29011D01*
X7050D01*
X5630D02*Y30786D01*
X4210Y26738D02*Y28158D01*
Y27448D02*X7050D01*
X4210Y24465D02*Y25885D01*
Y25175D02*X7050D01*
X28000Y15123D02*Y17963D01*
Y16898D02*X28355Y16543D01*
X29065D01*
X29420Y16898D01*
Y17963D01*
X30272Y16898D02*Y17608D01*
Y16898D02*X30627Y16543D01*
X31337D01*
X31692Y16898D01*
Y17608D01*
X31337Y17963D02*X31692Y17608D01*
X30627Y17963D02*X31337D01*
X30272Y17608D02*X30627Y17963D01*
X32900Y15123D02*Y17608D01*
X33255Y17963D01*
X32545Y16188D02*X33255D01*
X33966Y16543D02*X35386D01*
X36593Y16898D02*Y19028D01*
X36238Y16543D02*X36593Y16898D01*
X36948Y16543D01*
X37658D01*
X38013Y16898D01*
Y17608D01*
X37658Y17963D02*X38013Y17608D01*
X36948Y17963D02*X37658D01*
X36593Y17608D02*X36948Y17963D01*
X38866Y15123D02*Y17608D01*
X39221Y17963D01*
X39932Y16543D02*Y17608D01*
X40287Y17963D01*
X40997D01*
X41352Y17608D01*
Y16543D02*Y17608D01*
X43269Y16543D02*X43624Y16898D01*
X42559Y16543D02*X43269D01*
X42204Y16898D02*X42559Y16543D01*
X42204Y16898D02*Y17608D01*
X42559Y17963D01*
X43269D01*
X43624Y17608D01*
X42204Y18673D02*X42559Y19028D01*
X43269D01*
X43624Y18673D01*
Y16543D02*Y18673D01*
X45542Y16543D02*X45897Y16898D01*
X44832Y16543D02*X45542D01*
X44477Y16898D02*X44832Y16543D01*
X44477Y16898D02*Y17608D01*
X44832Y17963D01*
X45542D01*
X45897Y17608D01*
X44477Y18673D02*X44832Y19028D01*
X45542D01*
X45897Y18673D01*
Y16543D02*Y18673D01*
X47815Y16543D02*X48170Y16898D01*
X47105Y16543D02*X47815D01*
X46750Y16898D02*X47105Y16543D01*
X46750Y16898D02*Y17608D01*
X47105Y17963D01*
X48170Y16543D02*Y17608D01*
X48525Y17963D01*
X47105D02*X47815D01*
X48170Y17608D01*
X49378Y15123D02*Y17963D01*
Y17608D02*X49733Y17963D01*
X50443D01*
X50798Y17608D01*
Y16898D02*Y17608D01*
X50443Y16543D02*X50798Y16898D01*
X49733Y16543D02*X50443D01*
X49378Y16898D02*X49733Y16543D01*
X51650Y15123D02*Y17608D01*
X52005Y17963D01*
X53071D02*X54136D01*
X52716Y17608D02*X53071Y17963D01*
X52716Y16898D02*Y17608D01*
Y16898D02*X53071Y16543D01*
X53781D01*
X54136Y16898D01*
X52716Y17253D02*X54136D01*
Y16898D02*Y17253D01*
X28000Y11478D02*X28355Y11123D01*
X29065D01*
X29420Y11478D01*
Y13608D01*
X29065Y13963D02*X29420Y13608D01*
X28355Y13963D02*X29065D01*
X28000Y13608D02*X28355Y13963D01*
Y12543D02*X29420D01*
X30272Y13963D02*X30627D01*
X31480Y11478D02*X31835Y11123D01*
X32545D01*
X32900Y11478D01*
Y13608D01*
X32545Y13963D02*X32900Y13608D01*
X31835Y13963D02*X32545D01*
X31480Y13608D02*X31835Y13963D01*
Y12543D02*X32900D01*
X33753Y11123D02*Y13253D01*
X34463Y13963D01*
X35173Y13253D01*
Y11123D02*Y13253D01*
X37303Y11123D02*Y13253D01*
X38013Y13963D01*
X40143D01*
X40853Y11123D02*Y12898D01*
Y11123D02*X40143Y10413D01*
X38013D02*X40143D01*
X38013D02*X37303Y11123D01*
X38368Y11833D02*Y12543D01*
X38723Y12898D01*
X39433D01*
X39788Y12543D01*
X40143Y12898D01*
X39788Y11478D02*Y12543D01*
Y11833D02*X39433Y11478D01*
X38723D02*X39433D01*
X38723D02*X38368Y11833D01*
X40143Y12898D02*X40853D01*
X42984Y12543D02*X44404Y11123D01*
X42984Y12543D02*X44759D01*
X44404Y11123D02*Y13963D01*
X45612Y13608D02*X45967Y13963D01*
X45612Y11478D02*Y13608D01*
Y11478D02*X45967Y11123D01*
X46677D01*
X47032Y11478D01*
Y13608D01*
X46677Y13963D02*X47032Y13608D01*
X45967Y13963D02*X46677D01*
X45612Y13253D02*X47032Y11833D01*
X47884Y13608D02*X48239Y13963D01*
X47884Y11478D02*Y13608D01*
Y11478D02*X48239Y11123D01*
X48949D01*
X49304Y11478D01*
Y13608D01*
X48949Y13963D02*X49304Y13608D01*
X48239Y13963D02*X48949D01*
X47884Y13253D02*X49304Y11833D01*
X50512Y12898D02*Y13963D01*
Y12898D02*X50867Y12543D01*
X51222D01*
X51577Y12898D01*
Y13963D01*
Y12898D02*X51932Y12543D01*
X52287D01*
X52642Y12898D01*
Y13963D01*
X50157Y12543D02*X50512Y12898D01*
X53495Y11478D02*Y13963D01*
Y11478D02*X53850Y11123D01*
X54915D01*
X55270Y11478D01*
Y13963D01*
X53495Y12543D02*X55270D01*
X57401Y11123D02*Y13963D01*
Y13608D02*X57756Y13963D01*
X58466D01*
X58821Y13608D01*
Y12898D02*Y13608D01*
X58466Y12543D02*X58821Y12898D01*
X57756Y12543D02*X58466D01*
X57401Y12898D02*X57756Y12543D01*
X59673D02*Y13608D01*
X60028Y13963D01*
X60738D01*
X61093Y13608D01*
Y12543D02*Y13608D01*
X62301Y12543D02*X63366D01*
X61946Y12898D02*X62301Y12543D01*
X61946Y12898D02*Y13608D01*
X62301Y13963D01*
X63366D01*
X64219Y11123D02*Y13963D01*
Y12898D02*X65284Y13963D01*
X64219Y12898D02*X64929Y12188D01*
X67769Y12543D02*X68834D01*
X67414Y12898D02*X67769Y12543D01*
X67414Y12898D02*Y13608D01*
X67769Y13963D01*
X68834D01*
X69687Y12898D02*Y13608D01*
Y12898D02*X70042Y12543D01*
X70752D01*
X71107Y12898D01*
Y13608D01*
X70752Y13963D02*X71107Y13608D01*
X70042Y13963D02*X70752D01*
X69687Y13608D02*X70042Y13963D01*
X72315Y12898D02*Y13963D01*
Y12898D02*X72670Y12543D01*
X73025D01*
X73380Y12898D01*
Y13963D01*
X71960Y12543D02*X72315Y12898D01*
X74233Y12543D02*Y13253D01*
X74943Y13963D01*
X75653Y13253D01*
Y12543D02*Y13253D01*
X76860Y13963D02*X77925D01*
X76505Y13608D02*X76860Y13963D01*
X76505Y12898D02*Y13608D01*
Y12898D02*X76860Y12543D01*
X77570D01*
X77925Y12898D01*
X76505Y13253D02*X77925D01*
Y12898D02*Y13253D01*
X79133Y12898D02*Y13963D01*
Y12898D02*X79488Y12543D01*
X80198D01*
X78778D02*X79133Y12898D01*
X81406Y11123D02*Y13608D01*
X81761Y13963D01*
X81051Y12188D02*X81761D01*
X82826Y13963D02*X83891D01*
X82471Y13608D02*X82826Y13963D01*
X82471Y12898D02*Y13608D01*
Y12898D02*X82826Y12543D01*
X83536D01*
X83891Y12898D01*
X82471Y13253D02*X83891D01*
Y12898D02*Y13253D01*
X85099Y12898D02*Y13963D01*
Y12898D02*X85454Y12543D01*
X86164D01*
X84744D02*X85099Y12898D01*
X37000Y1913D02*Y5913D01*
Y4413D02*X37500Y3913D01*
X38500D01*
X39000Y4413D01*
Y5913D01*
X40201Y5413D02*X43201Y2413D01*
X44402Y3913D02*Y5413D01*
X44902Y5913D01*
X45402D01*
X45902Y5413D01*
Y3913D02*Y5413D01*
X46402Y5913D01*
X46902D01*
X47402Y5413D01*
Y3913D02*Y5413D01*
X50903Y4413D02*Y5913D01*
Y4413D02*X51403Y3913D01*
X52403D01*
X50403D02*X50903Y4413D01*
X54104Y5913D02*X55604D01*
X53604Y5413D02*X54104Y5913D01*
X53604Y4413D02*Y5413D01*
Y4413D02*X54104Y3913D01*
X55104D01*
X55604Y4413D01*
X53604Y4913D02*X55604D01*
Y4413D02*Y4913D01*
X56805Y3913D02*Y4913D01*
X57805Y5913D01*
X58805Y4913D01*
Y3913D02*Y4913D01*
X61806Y2413D02*X62306Y1913D01*
X63306D01*
X63806Y2413D01*
Y5413D01*
X63306Y5913D02*X63806Y5413D01*
X62306Y5913D02*X63306D01*
X61806Y5413D02*X62306Y5913D01*
Y3913D02*X63806D01*
X65007Y5913D02*X65507D01*
X66708Y2413D02*X67208Y1913D01*
X68708D01*
X69208Y2413D01*
Y3413D01*
X66708Y5913D02*X69208Y3413D01*
X66708Y5913D02*X69208D01*
X70409Y1913D02*X72409D01*
X70409D02*Y3913D01*
X70909Y3413D01*
X71909D01*
X72409Y3913D01*
Y5413D01*
X71909Y5913D02*X72409Y5413D01*
X70909Y5913D02*X71909D01*
X70409Y5413D02*X70909Y5913D01*
X73610Y2413D02*Y5913D01*
Y2413D02*X74110Y1913D01*
X75610D01*
X76110Y2413D01*
Y5913D01*
X73610Y3913D02*X76110D01*
X5855Y53623D02*Y56463D01*
X5500Y53623D02*X6920D01*
X7275Y53978D01*
Y54688D01*
X6920Y55043D02*X7275Y54688D01*
X5855Y55043D02*X6920D01*
X8127Y53978D02*Y56108D01*
Y53978D02*X8482Y53623D01*
X9192D01*
X9547Y53978D01*
Y56108D01*
X9192Y56463D02*X9547Y56108D01*
X8482Y56463D02*X9192D01*
X8127Y56108D02*X8482Y56463D01*
X10400Y53623D02*Y56463D01*
X11465Y55398D01*
X12530Y56463D01*
Y53623D02*Y56463D01*
X13383Y55043D02*X14448D01*
X13383Y56463D02*X14803D01*
X13383Y53623D02*Y56463D01*
Y53623D02*X14803D01*
X15655D02*X17075D01*
X17430Y53978D01*
Y54688D01*
X17075Y55043D02*X17430Y54688D01*
X16010Y55043D02*X17075D01*
X16010Y53623D02*Y56463D01*
Y55043D02*X17430Y56463D01*
X15180Y65553D02*X15520Y65213D01*
X15180Y65553D02*Y66573D01*
X15520Y66913D02*X15180Y66573D01*
X15520Y66913D02*X17560D01*
X17900Y66573D01*
Y65553D02*Y66573D01*
Y65553D02*X17560Y65213D01*
X16880D02*X17560D01*
X16540Y65553D02*X16880Y65213D01*
X16540Y65553D02*Y66233D01*
X15180Y64397D02*X17900D01*
X15180D02*X15520D01*
X17220Y62697D01*
X15180D02*X17900D01*
X15180Y61540D02*X17900D01*
X15180Y60520D02*X15520Y60180D01*
X17560D01*
X17900Y60520D02*X17560Y60180D01*
X17900Y60520D02*Y61880D01*
X15180Y60520D02*Y61880D01*
Y75913D02*X17900D01*
Y74553D02*Y75913D01*
X15180Y73057D02*Y73737D01*
Y73397D02*X17900D01*
Y73057D02*Y73737D01*
X15180Y72240D02*X17900D01*
X15180D02*X15520D01*
X17220Y70540D01*
X15180D02*X17900D01*
X15180Y86413D02*X17900D01*
Y85053D02*Y86413D01*
X15520Y84237D02*X17560D01*
X15520D02*X15180Y83897D01*
Y83217D02*Y83897D01*
Y83217D02*X15520Y82877D01*
X17560D01*
X17900Y83217D02*X17560Y82877D01*
X17900Y83217D02*Y83897D01*
X17560Y84237D02*X17900Y83897D01*
X15180Y82060D02*X17560D01*
X17900Y81720D01*
Y81040D02*Y81720D01*
Y81040D02*X17560Y80700D01*
X15180D02*X17560D01*
X15180Y78523D02*Y79883D01*
Y79203D02*X17900D01*
X6900Y84553D02*Y85573D01*
X6560Y85913D02*X6900Y85573D01*
X4520Y85913D02*X6560D01*
X4520D02*X4180Y85573D01*
Y84553D02*Y85573D01*
Y83737D02*X6900D01*
X4180Y82037D02*X6900D01*
X5540D02*Y83737D01*
X4520Y81220D02*X4180Y80880D01*
Y79860D02*Y80880D01*
Y79860D02*X4520Y79520D01*
X5200D01*
X6900Y81220D02*X5200Y79520D01*
X6900D02*Y81220D01*
X4520Y75413D02*X6560D01*
X4520D02*X4180Y75073D01*
Y74393D02*Y75073D01*
Y74393D02*X4520Y74053D01*
X6560D01*
X6900Y74393D02*X6560Y74053D01*
X6900Y74393D02*Y75073D01*
X6560Y75413D02*X6900Y75073D01*
X4180Y73237D02*X6560D01*
X6900Y72897D01*
Y72217D02*Y72897D01*
Y72217D02*X6560Y71877D01*
X4180D02*X6560D01*
X4180Y69700D02*Y71060D01*
Y70380D02*X6900D01*
X15180Y95053D02*Y96413D01*
Y95053D02*X15520Y94713D01*
X16200D01*
X16540Y95053D02*X16200Y94713D01*
X16540Y95053D02*Y96073D01*
X15180D02*X17900D01*
X16540D02*X17900Y94713D01*
X15520Y93897D02*X17560D01*
X15520D02*X15180Y93557D01*
Y92877D02*Y93557D01*
Y92877D02*X15520Y92537D01*
X17560D01*
X17900Y92877D02*X17560Y92537D01*
X17900Y92877D02*Y93557D01*
X17560Y93897D02*X17900Y93557D01*
X15180Y91720D02*X17560D01*
X17900Y91380D01*
Y90700D02*Y91380D01*
Y90700D02*X17560Y90360D01*
X15180D02*X17560D01*
X15180Y88183D02*Y89543D01*
Y88863D02*X17900D01*
X8500Y103433D02*X8840Y103093D01*
X9520D01*
X9860Y103433D01*
Y105473D01*
X9520Y105813D02*X9860Y105473D01*
X8840Y105813D02*X9520D01*
X8500Y105473D02*X8840Y105813D01*
Y104453D02*X9860D01*
X10676Y105813D02*X11016D01*
X11833Y103433D02*X12173Y103093D01*
X12853D01*
X13193Y103433D01*
Y105473D01*
X12853Y105813D02*X13193Y105473D01*
X12173Y105813D02*X12853D01*
X11833Y105473D02*X12173Y105813D01*
Y104453D02*X13193D01*
X14010Y103093D02*Y105133D01*
X14690Y105813D01*
X15370Y105133D01*
Y103093D02*Y105133D01*
X17410Y103093D02*Y105813D01*
Y103093D02*X18430Y104113D01*
X19450Y103093D01*
Y105813D01*
X20267Y103433D02*Y105813D01*
Y103433D02*X20607Y103093D01*
X21627D01*
X21967Y103433D01*
Y105813D01*
X20267Y104453D02*X21967D01*
X22784Y103093D02*Y103433D01*
X24484Y105133D01*
Y105813D01*
X22784Y105133D02*Y105813D01*
Y105133D02*X24484Y103433D01*
Y103093D02*Y103433D01*
X25300Y105473D02*Y105813D01*
Y103093D02*Y104793D01*
X6900Y94553D02*Y95573D01*
X6560Y95913D02*X6900Y95573D01*
X4520Y95913D02*X6560D01*
X4520D02*X4180Y95573D01*
Y94553D02*Y95573D01*
Y93737D02*X6900D01*
X4180Y92037D02*X6900D01*
X5540D02*Y93737D01*
X6900Y90200D02*Y90880D01*
X4180Y90540D02*X6900D01*
X4860Y91220D02*X4180Y90540D01*
X3819Y98123D02*Y100253D01*
X4529Y100963D01*
X5239Y100253D01*
Y98123D02*Y100253D01*
X6091Y98123D02*X6801D01*
X6446D02*Y100963D01*
X6091D02*X6801D01*
X8009Y98123D02*Y100963D01*
X9074Y98123D02*X9429Y98478D01*
Y100608D01*
X9074Y100963D02*X9429Y100608D01*
X7654Y100963D02*X9074D01*
X7654Y98123D02*X9074D01*
X10282Y99543D02*X11347D01*
X10282Y100963D02*X11702D01*
X10282Y98123D02*Y100963D01*
Y98123D02*X11702D01*
X12554Y98478D02*Y100608D01*
Y98478D02*X12909Y98123D01*
X13619D01*
X13974Y98478D01*
Y100608D01*
X13619Y100963D02*X13974Y100608D01*
X12909Y100963D02*X13619D01*
X12554Y100608D02*X12909Y100963D01*
X30860Y102593D02*X31200Y102933D01*
X29840Y102593D02*X30860D01*
X29500Y102933D02*X29840Y102593D01*
X29500Y102933D02*Y103613D01*
X29840Y103953D01*
X30860D01*
X31200Y104293D01*
Y104973D01*
X30860Y105313D02*X31200Y104973D01*
X29840Y105313D02*X30860D01*
X29500Y104973D02*X29840Y105313D01*
X32016Y102593D02*Y102933D01*
X32696Y103613D01*
X33376Y102933D01*
Y102593D02*Y102933D01*
X32696Y103613D02*Y105313D01*
X34193Y102593D02*Y105313D01*
Y102593D02*Y102933D01*
X35893Y104633D01*
Y102593D02*Y105313D01*
X37050D02*X38070D01*
X36710Y104973D02*X37050Y105313D01*
X36710Y102933D02*Y104973D01*
Y102933D02*X37050Y102593D01*
X38070D01*
X31860Y107093D02*X32200Y107433D01*
X30840Y107093D02*X31860D01*
X30500Y107433D02*X30840Y107093D01*
X30500Y107433D02*Y108113D01*
X30840Y108453D01*
X31860D01*
X32200Y108793D01*
Y109473D01*
X31860Y109813D02*X32200Y109473D01*
X30840Y109813D02*X31860D01*
X30500Y109473D02*X30840Y109813D01*
X33016Y108453D02*X34036D01*
X33016Y109813D02*X34376D01*
X33016Y107093D02*Y109813D01*
Y107093D02*X34376D01*
X35533D02*Y109813D01*
X35193Y107093D02*X36553D01*
X36893Y107433D01*
Y108113D01*
X36553Y108453D02*X36893Y108113D01*
X35533Y108453D02*X36553D01*
X17866Y98431D02*Y100916D01*
Y98431D02*X18221Y98076D01*
X19286D01*
X19641Y98431D01*
Y100916D01*
X17866Y99496D02*X19641D01*
X20493Y98076D02*Y100561D01*
X20848Y100916D01*
X21558D01*
X21913Y100561D01*
Y98076D02*Y100561D01*
X23121Y98076D02*Y100916D01*
X24186Y98076D02*X24541Y98431D01*
Y100561D01*
X24186Y100916D02*X24541Y100561D01*
X22766Y100916D02*X24186D01*
X22766Y98076D02*X24186D01*
X25394D02*X26104D01*
X25749D02*Y100916D01*
X25394D02*X26104D01*
X26956Y98431D02*Y100561D01*
Y98431D02*X27311Y98076D01*
X28021D01*
X28376Y98431D01*
Y100561D01*
X28021Y100916D02*X28376Y100561D01*
X27311Y100916D02*X28021D01*
X26956Y100561D02*X27311Y100916D01*
X184360Y118093D02*X184700Y118433D01*
X183340Y118093D02*X184360D01*
X183000Y118433D02*X183340Y118093D01*
X183000Y118433D02*Y119113D01*
X183340Y119453D01*
X184360D01*
X184700Y119793D01*
Y120473D01*
X184360Y120813D02*X184700Y120473D01*
X183340Y120813D02*X184360D01*
X183000Y120473D02*X183340Y120813D01*
X185516Y119453D02*X186536D01*
X185516Y120813D02*X186876D01*
X185516Y118093D02*Y120813D01*
Y118093D02*X186876D01*
X187693D02*X189053D01*
X189393Y118433D01*
Y119113D01*
X189053Y119453D02*X189393Y119113D01*
X188033Y119453D02*X189053D01*
X188033Y118093D02*Y120813D01*
Y119453D02*X189393Y120813D01*
X190210Y118093D02*X190890D01*
X190550D02*Y120813D01*
X190210D02*X190890D01*
X191706Y118433D02*Y120813D01*
Y118433D02*X192046Y118093D01*
X193066D01*
X193406Y118433D01*
Y120813D01*
X191706Y119453D02*X193406D01*
X194223Y118093D02*Y120813D01*
X195583D01*
X193000Y98978D02*X193355Y98623D01*
X194420D01*
X194775Y98978D01*
Y99688D01*
X193000Y101463D02*X194775Y99688D01*
X193000Y101463D02*X194775D01*
X198183Y98623D02*X199603D01*
X198893D02*Y101463D01*
X200456Y98623D02*Y101463D01*
Y98623D02*X201521Y99688D01*
X202586Y98623D01*
Y101463D01*
X191500Y100623D02*X192210D01*
X191855D02*Y103463D01*
X191500D02*X192210D01*
X195973D02*X197038D01*
X195618Y103108D02*X195973Y103463D01*
X195618Y100978D02*Y103108D01*
Y100978D02*X195973Y100623D01*
X197038D01*
X182000Y87453D02*X183020D01*
X182000Y88813D02*X183360D01*
X182000Y86093D02*Y88813D01*
Y86093D02*X183360D01*
X184176D02*Y86433D01*
X185876Y88133D01*
Y88813D01*
X184176Y88133D02*Y88813D01*
Y88133D02*X185876Y86433D01*
Y86093D02*Y86433D01*
X187033Y88813D02*X188053D01*
X186693Y88473D02*X187033Y88813D01*
X186693Y86433D02*Y88473D01*
Y86433D02*X187033Y86093D01*
X188053D01*
X188870Y87453D02*X189890D01*
X188870Y88813D02*X190230D01*
X188870Y86093D02*Y88813D01*
Y86093D02*X190230D01*
X191046Y87453D02*X192066D01*
X191046Y88813D02*X192406D01*
X191046Y86093D02*Y88813D01*
Y86093D02*X192406D01*
X193563D02*Y88813D01*
X194583Y86093D02*X194923Y86433D01*
Y88473D01*
X194583Y88813D02*X194923Y88473D01*
X193223Y88813D02*X194583D01*
X193223Y86093D02*X194583D01*
X199412Y87453D02*X200772Y86093D01*
X199412Y87453D02*X201112D01*
X200772Y86093D02*Y88813D01*
X201928Y86093D02*X203288D01*
X201928D02*Y87453D01*
X202268Y87113D01*
X202948D01*
X203288Y87453D01*
Y88473D01*
X202948Y88813D02*X203288Y88473D01*
X202268Y88813D02*X202948D01*
X201928Y88473D02*X202268Y88813D01*
X204105Y86093D02*Y88133D01*
X204785Y88813D01*
X205465Y88133D01*
Y86093D02*Y88133D01*
X158500Y86103D02*Y88863D01*
X159880D01*
X160708Y86103D02*Y88173D01*
X161398Y88863D01*
X162088Y88173D01*
Y86103D02*Y88173D01*
X164159Y88518D02*X164504Y88863D01*
X164159Y86448D02*Y88518D01*
Y86448D02*X164504Y86103D01*
X165194D01*
X165539Y86448D01*
Y88518D01*
X165194Y88863D02*X165539Y88518D01*
X164504Y88863D02*X165194D01*
X164159Y88173D02*X165539Y86793D01*
X166368Y87483D02*X167748D01*
X168576Y86448D02*X168921Y86103D01*
X169956D01*
X170301Y86448D01*
Y87138D01*
X168576Y88863D02*X170301Y87138D01*
X168576Y88863D02*X170301D01*
X171130D02*X171475D01*
X172304Y86103D02*X173684D01*
X172304D02*Y87483D01*
X172649Y87138D01*
X173339D01*
X173684Y87483D01*
Y88518D01*
X173339Y88863D02*X173684Y88518D01*
X172649Y88863D02*X173339D01*
X172304Y88518D02*X172649Y88863D01*
X174512Y86103D02*Y88173D01*
X175202Y88863D01*
X175892Y88173D01*
Y86103D02*Y88173D01*
X158500Y81603D02*Y84363D01*
X160225Y81603D02*Y84363D01*
X158500Y82983D02*X160225D01*
X161053Y81603D02*Y83673D01*
X161743Y84363D01*
X162433Y83673D01*
Y81603D02*Y83673D01*
X164504Y84018D02*X164849Y84363D01*
X164504Y81948D02*Y84018D01*
Y81948D02*X164849Y81603D01*
X165539D01*
X165884Y81948D01*
Y84018D01*
X165539Y84363D02*X165884Y84018D01*
X164849Y84363D02*X165539D01*
X164504Y83673D02*X165884Y82293D01*
X166713Y82983D02*X168093D01*
X168921D02*X170301Y81603D01*
X168921Y82983D02*X170646D01*
X170301Y81603D02*Y84363D01*
X171475Y84018D02*X171820Y84363D01*
X171475Y81948D02*Y84018D01*
Y81948D02*X171820Y81603D01*
X172510D01*
X172855Y81948D01*
Y84018D01*
X172510Y84363D02*X172855Y84018D01*
X171820Y84363D02*X172510D01*
X171475Y83673D02*X172855Y82293D01*
X173684Y81603D02*Y83673D01*
X174374Y84363D01*
X175064Y83673D01*
Y81603D02*Y83673D01*
X182345Y81603D02*Y84363D01*
X183380Y81603D02*X183725Y81948D01*
Y84018D01*
X183380Y84363D02*X183725Y84018D01*
X182000Y84363D02*X183380D01*
X182000Y81603D02*X183380D01*
X184553Y81948D02*Y84018D01*
Y81948D02*X184898Y81603D01*
X185588D01*
X185933Y81948D01*
Y84018D01*
X185588Y84363D02*X185933Y84018D01*
X184898Y84363D02*X185588D01*
X184553Y84018D02*X184898Y84363D01*
X188004Y81603D02*Y84363D01*
Y81603D02*Y81948D01*
X189729Y83673D01*
Y81603D02*Y84363D01*
X190558Y81948D02*Y84018D01*
Y81948D02*X190903Y81603D01*
X191593D01*
X191938Y81948D01*
Y84018D01*
X191593Y84363D02*X191938Y84018D01*
X190903Y84363D02*X191593D01*
X190558Y84018D02*X190903Y84363D01*
X192766Y81603D02*X194146D01*
X193456D02*Y84363D01*
X197000Y88793D02*X197920D01*
X197000Y86793D02*X197920D01*
X197460Y86333D02*Y87253D01*
X143500Y73093D02*Y75813D01*
Y73093D02*X144520Y74113D01*
X145540Y73093D01*
Y75813D01*
X146356Y73433D02*Y75813D01*
Y73433D02*X146696Y73093D01*
X147716D01*
X148056Y73433D01*
Y75813D01*
X146356Y74453D02*X148056D01*
X148873Y73093D02*X149553D01*
X149213D02*Y75813D01*
X148873D02*X149553D01*
X150370Y73093D02*Y75813D01*
Y73093D02*Y73433D01*
X152070Y75133D01*
Y73093D02*Y75813D01*
X154110Y73093D02*Y75813D01*
Y73093D02*X155130Y74113D01*
X156150Y73093D01*
Y75813D01*
X157307D02*X158327D01*
X156967Y75473D02*X157307Y75813D01*
X156967Y73433D02*Y75473D01*
Y73433D02*X157307Y73093D01*
X158327D01*
X159144D02*Y75473D01*
X159484Y75813D01*
X160164D01*
X160504Y75473D01*
Y73093D02*Y75473D01*
X146500Y136623D02*X147920D01*
X147210D02*Y139463D01*
X148772Y136623D02*Y139463D01*
X150547Y136623D02*Y139463D01*
X148772Y138043D02*X150547D01*
X151400Y136623D02*X152110D01*
X151755D02*Y139463D01*
X151400D02*X152110D01*
X154383Y136623D02*X154738Y136978D01*
X153318Y136623D02*X154383D01*
X152963Y136978D02*X153318Y136623D01*
X152963Y136978D02*Y137688D01*
X153318Y138043D01*
X154383D01*
X154738Y138398D01*
Y139108D01*
X154383Y139463D02*X154738Y139108D01*
X153318Y139463D02*X154383D01*
X152963Y139108D02*X153318Y139463D01*
X156868Y136623D02*X157578D01*
X157223D02*Y139463D01*
X156868D02*X157578D01*
X159851Y136623D02*X160206Y136978D01*
X158786Y136623D02*X159851D01*
X158431Y136978D02*X158786Y136623D01*
X158431Y136978D02*Y137688D01*
X158786Y138043D01*
X159851D01*
X160206Y138398D01*
Y139108D01*
X159851Y139463D02*X160206Y139108D01*
X158786Y139463D02*X159851D01*
X158431Y139108D02*X158786Y139463D01*
X162337Y136978D02*Y139108D01*
Y136978D02*X162692Y136623D01*
X163402D01*
X163757Y136978D01*
Y139108D01*
X163402Y139463D02*X163757Y139108D01*
X162692Y139463D02*X163402D01*
X162337Y139108D02*X162692Y139463D01*
X164964Y136623D02*Y139463D01*
X164609Y136623D02*X166029D01*
X166384Y136978D01*
Y137688D01*
X166029Y138043D02*X166384Y137688D01*
X164964Y138043D02*X166029D01*
X167237D02*X168302D01*
X167237Y139463D02*X168657D01*
X167237Y136623D02*Y139463D01*
Y136623D02*X168657D01*
X169510D02*Y139463D01*
Y136623D02*Y136978D01*
X171285Y138753D01*
Y136623D02*Y139463D01*
X173416Y136623D02*Y139463D01*
X175191Y136623D02*Y139463D01*
X173416Y138043D02*X175191D01*
X176043Y136978D02*Y139463D01*
Y136978D02*X176398Y136623D01*
X177463D01*
X177818Y136978D01*
Y139463D01*
X176043Y138043D02*X177818D01*
X178671Y136623D02*X180091D01*
X180446Y136978D01*
Y137688D01*
X180091Y138043D02*X180446Y137688D01*
X179026Y138043D02*X180091D01*
X179026Y136623D02*Y139463D01*
Y138043D02*X180446Y139463D01*
X181654Y136623D02*Y139463D01*
X182719Y136623D02*X183074Y136978D01*
Y139108D01*
X182719Y139463D02*X183074Y139108D01*
X181299Y139463D02*X182719D01*
X181299Y136623D02*X182719D01*
X183926D02*Y139463D01*
X184991Y138398D01*
X186056Y139463D01*
Y136623D02*Y139463D01*
X186909Y136978D02*Y139463D01*
Y136978D02*X187264Y136623D01*
X188329D01*
X188684Y136978D01*
Y139463D01*
X186909Y138043D02*X188684D01*
X189537Y136623D02*X190957D01*
X191312Y136978D01*
Y137688D01*
X190957Y138043D02*X191312Y137688D01*
X189892Y138043D02*X190957D01*
X189892Y136623D02*Y139463D01*
Y138043D02*X191312Y139463D01*
X192165Y138043D02*X193230D01*
X192165Y139463D02*X193585D01*
X192165Y136623D02*Y139463D01*
Y136623D02*X193585D01*
X176000Y122593D02*Y125313D01*
Y122593D02*X177360D01*
X176000Y123953D02*X177020D01*
X178176Y122593D02*Y125313D01*
X179536D01*
X180353Y122933D02*Y125313D01*
Y122933D02*X180693Y122593D01*
X181713D01*
X182053Y122933D01*
Y125313D01*
X180353Y123953D02*X182053D01*
X184230Y122593D02*X184570Y122933D01*
X183210Y122593D02*X184230D01*
X182870Y122933D02*X183210Y122593D01*
X182870Y122933D02*Y123613D01*
X183210Y123953D01*
X184230D01*
X184570Y124293D01*
Y124973D01*
X184230Y125313D02*X184570Y124973D01*
X183210Y125313D02*X184230D01*
X182870Y124973D02*X183210Y125313D01*
X185386Y122593D02*Y125313D01*
X187086Y122593D02*Y125313D01*
X185386Y123953D02*X187086D01*
X189127Y122593D02*Y125313D01*
Y122593D02*X190147Y123613D01*
X191167Y122593D01*
Y125313D01*
X191984Y123953D02*X193004D01*
X191984Y125313D02*X193344D01*
X191984Y122593D02*Y125313D01*
Y122593D02*X193344D01*
X194160D02*Y125313D01*
Y122593D02*X195180Y123613D01*
X196200Y122593D01*
Y125313D01*
X197017Y122933D02*Y124973D01*
Y122933D02*X197357Y122593D01*
X198037D01*
X198377Y122933D01*
Y124973D01*
X198037Y125313D02*X198377Y124973D01*
X197357Y125313D02*X198037D01*
X197017Y124973D02*X197357Y125313D01*
X199194Y122593D02*X200554D01*
X200894Y122933D01*
Y123613D01*
X200554Y123953D02*X200894Y123613D01*
X199534Y123953D02*X200554D01*
X199534Y122593D02*Y125313D01*
Y123953D02*X200894Y125313D01*
X201710Y122593D02*Y122933D01*
X202390Y123613D01*
X203070Y122933D01*
Y122593D02*Y122933D01*
X202390Y123613D02*Y125313D01*
X161500Y44093D02*X162180D01*
X161840D02*Y46813D01*
X161500D02*X162180D01*
X163336D02*X164356D01*
X162996Y46473D02*X163336Y46813D01*
X162996Y44433D02*Y46473D01*
Y44433D02*X163336Y44093D01*
X164356D01*
X166533D02*X166873Y44433D01*
X165513Y44093D02*X166533D01*
X165173Y44433D02*X165513Y44093D01*
X165173Y44433D02*Y45113D01*
X165513Y45453D01*
X166533D01*
X166873Y45793D01*
Y46473D01*
X166533Y46813D02*X166873Y46473D01*
X165513Y46813D02*X166533D01*
X165173Y46473D02*X165513Y46813D01*
X168030Y44093D02*Y46813D01*
X167690Y44093D02*X169050D01*
X169390Y44433D01*
Y45113D01*
X169050Y45453D02*X169390Y45113D01*
X168030Y45453D02*X169050D01*
X170206Y46473D02*X172246Y44433D01*
X173063Y44093D02*X173743D01*
X173403D02*Y46813D01*
X173063D02*X173743D01*
X174900D02*X175920D01*
X174560Y46473D02*X174900Y46813D01*
X174560Y44433D02*Y46473D01*
Y44433D02*X174900Y44093D01*
X175920D01*
X177076D02*Y46813D01*
X178096Y44093D02*X178436Y44433D01*
Y46473D01*
X178096Y46813D02*X178436Y46473D01*
X176736Y46813D02*X178096D01*
X176736Y44093D02*X178096D01*
X180817Y44433D02*Y46813D01*
Y44433D02*X181157Y44093D01*
X181497D01*
X180477Y45453D02*X181157D01*
X182178Y45793D02*Y46473D01*
Y45793D02*X182518Y45453D01*
X183198D01*
X183538Y45793D01*
Y46473D01*
X183198Y46813D02*X183538Y46473D01*
X182518Y46813D02*X183198D01*
X182178Y46473D02*X182518Y46813D01*
X184694Y45793D02*Y46813D01*
Y45793D02*X185034Y45453D01*
X185714D01*
X184354D02*X184694Y45793D01*
X188095Y44093D02*Y46813D01*
X187755Y44093D02*X189115D01*
X189455Y44433D01*
Y45113D01*
X189115Y45453D02*X189455Y45113D01*
X188095Y45453D02*X189115D01*
X190272Y44093D02*X190952D01*
X190612D02*Y46813D01*
X190272D02*X190952D01*
X192108D02*X193128D01*
X191768Y46473D02*X192108Y46813D01*
X191768Y44433D02*Y46473D01*
Y44433D02*X192108Y44093D01*
X193128D01*
X193945Y44433D02*X194285Y44093D01*
X195305D01*
X195645Y44433D01*
Y45113D01*
X193945Y46813D02*X195645Y45113D01*
X193945Y46813D02*X195645D01*
X196462Y45453D02*X197822Y44093D01*
X196462Y45453D02*X198162D01*
X197822Y44093D02*Y46813D01*
X198978Y44093D02*Y46813D01*
Y44093D02*X200338D01*
X198978Y45453D02*X199998D01*
X219180Y70413D02*X221900D01*
X219180Y68713D02*X221900D01*
X220540D02*Y70413D01*
X219180Y67897D02*X221220D01*
X221900Y67217D01*
X221220Y66537D01*
X219180D02*X221220D01*
X219520Y65720D02*X219180Y65380D01*
Y64700D02*Y65380D01*
Y64700D02*X219520Y64360D01*
X221560D01*
X221900Y64700D02*X221560Y64360D01*
X221900Y64700D02*Y65380D01*
X221560Y65720D02*X221900Y65380D01*
X220540Y64360D02*Y65380D01*
X219180Y80413D02*X221900D01*
X219180Y78713D02*X221900D01*
X220540D02*Y80413D01*
X219180Y77897D02*X221220D01*
X221900Y77217D01*
X221220Y76537D01*
X219180D02*X221220D01*
X219520Y75720D02*X219180Y75380D01*
Y74360D02*Y75380D01*
Y74360D02*X219520Y74020D01*
X220200D01*
X221900Y75720D02*X220200Y74020D01*
X221900D02*Y75720D01*
X207565Y56413D02*X210050D01*
X207565D02*X207210Y56058D01*
Y54993D02*Y56058D01*
Y54993D02*X207565Y54638D01*
X210050D01*
X208630D02*Y56413D01*
X207210Y53786D02*X210050D01*
X207210D02*X207565D01*
X209340Y52011D01*
X207210D02*X210050D01*
X207565Y51158D02*X210050D01*
X207565D02*X207210Y50803D01*
Y49738D02*Y50803D01*
Y49738D02*X207565Y49383D01*
X210050D01*
X208630D02*Y51158D01*
X207210Y48530D02*X210050D01*
Y47110D02*Y48530D01*
X207565Y46258D02*X209695D01*
X207565D02*X207210Y45903D01*
Y45193D02*Y45903D01*
Y45193D02*X207565Y44838D01*
X209695D01*
X210050Y45193D02*X209695Y44838D01*
X210050Y45193D02*Y45903D01*
X209695Y46258D02*X210050Y45903D01*
X207210Y42565D02*X207565Y42210D01*
X207210Y42565D02*Y43630D01*
X207565Y43985D02*X207210Y43630D01*
X207565Y43985D02*X209695D01*
X210050Y43630D01*
Y42565D02*Y43630D01*
Y42565D02*X209695Y42210D01*
X208985D02*X209695D01*
X208630Y42565D02*X208985Y42210D01*
X208630Y42565D02*Y43275D01*
X207210Y40079D02*X210050D01*
Y38659D02*Y40079D01*
X207210Y37807D02*X209340D01*
X210050Y37097D01*
X209340Y36387D01*
X207210D02*X209340D01*
X207565Y88413D02*X210050D01*
X207565D02*X207210Y88058D01*
Y86993D02*Y88058D01*
Y86993D02*X207565Y86638D01*
X210050D01*
X208630D02*Y88413D01*
X207210Y85786D02*X210050D01*
X207210D02*X207565D01*
X209340Y84011D01*
X207210D02*X210050D01*
X207565Y83158D02*X210050D01*
X207565D02*X207210Y82803D01*
Y81738D02*Y82803D01*
Y81738D02*X207565Y81383D01*
X210050D01*
X208630D02*Y83158D01*
X207210Y80530D02*X210050D01*
Y79110D02*Y80530D01*
X207565Y78258D02*X209695D01*
X207565D02*X207210Y77903D01*
Y77193D02*Y77903D01*
Y77193D02*X207565Y76838D01*
X209695D01*
X210050Y77193D02*X209695Y76838D01*
X210050Y77193D02*Y77903D01*
X209695Y78258D02*X210050Y77903D01*
X207210Y74565D02*X207565Y74210D01*
X207210Y74565D02*Y75630D01*
X207565Y75985D02*X207210Y75630D01*
X207565Y75985D02*X209695D01*
X210050Y75630D01*
Y74565D02*Y75630D01*
Y74565D02*X209695Y74210D01*
X208985D02*X209695D01*
X208630Y74565D02*X208985Y74210D01*
X208630Y74565D02*Y75275D01*
X207210Y72079D02*X210050D01*
X207210Y70304D02*X210050D01*
X208630D02*Y72079D01*
X207210Y69452D02*X209340D01*
X210050Y68742D01*
X209340Y68032D01*
X207210D02*X209340D01*
X226710Y39493D02*X227065Y39138D01*
X226710Y39493D02*Y40558D01*
X227065Y40913D02*X226710Y40558D01*
X227065Y40913D02*X229195D01*
X229550Y40558D01*
Y39493D02*Y40558D01*
Y39493D02*X229195Y39138D01*
X228485D02*X229195D01*
X228130Y39493D02*X228485Y39138D01*
X228130Y39493D02*Y40203D01*
X226710Y37931D02*X229550D01*
X226710Y36866D02*Y38286D01*
Y36866D02*X227065Y36511D01*
X227775D01*
X228130Y36866D02*X227775Y36511D01*
X228130Y36866D02*Y37931D01*
X226710Y34238D02*X227065Y33883D01*
X226710Y34238D02*Y35303D01*
X227065Y35658D02*X226710Y35303D01*
X227065Y35658D02*X227775D01*
X228130Y35303D01*
Y34238D02*Y35303D01*
Y34238D02*X228485Y33883D01*
X229195D01*
X229550Y34238D02*X229195Y33883D01*
X229550Y34238D02*Y35303D01*
X229195Y35658D02*X229550Y35303D01*
X229195Y33030D02*X227065Y30900D01*
X226710Y30048D02*X229195D01*
X229550Y29693D01*
Y28983D02*Y29693D01*
Y28983D02*X229195Y28628D01*
X226710D02*X229195D01*
X227065Y27775D02*X229550D01*
X227065D02*X226710Y27420D01*
Y26355D02*Y27420D01*
Y26355D02*X227065Y26000D01*
X229550D01*
X228130D02*Y27775D01*
X226710Y23727D02*Y25147D01*
Y23727D02*X227065Y23372D01*
X227775D01*
X228130Y23727D02*X227775Y23372D01*
X228130Y23727D02*Y24792D01*
X226710D02*X229550D01*
X228130D02*X229550Y23372D01*
X226710Y21100D02*Y22520D01*
Y21810D02*X229550D01*
X204855Y7623D02*Y10463D01*
X204500Y7623D02*X205920D01*
X206275Y7978D01*
Y8688D01*
X205920Y9043D02*X206275Y8688D01*
X204855Y9043D02*X205920D01*
X207482Y7623D02*Y10463D01*
X207127Y7623D02*X208547D01*
X208902Y7978D01*
Y8688D01*
X208547Y9043D02*X208902Y8688D01*
X207482Y9043D02*X208547D01*
X209755Y7623D02*Y10463D01*
Y7623D02*X210820Y8688D01*
X211885Y7623D01*
Y10463D01*
X212738Y10108D02*X214868Y7978D01*
X215720Y7623D02*X217140D01*
X217495Y7978D01*
Y8688D01*
X217140Y9043D02*X217495Y8688D01*
X216075Y9043D02*X217140D01*
X216075Y7623D02*Y10463D01*
Y9043D02*X217495Y10463D01*
X218703D02*X219768D01*
X218348Y10108D02*X218703Y10463D01*
X218348Y7978D02*Y10108D01*
Y7978D02*X218703Y7623D01*
X219768D01*
X208355Y3123D02*Y5963D01*
X209420Y3123D02*X209775Y3478D01*
Y5608D01*
X209420Y5963D02*X209775Y5608D01*
X208000Y5963D02*X209420D01*
X208000Y3123D02*X209420D01*
X210627D02*Y5608D01*
X210982Y5963D01*
X211692D01*
X212047Y5608D01*
Y3123D02*Y5608D01*
X212900Y3478D02*Y5963D01*
Y3478D02*X213255Y3123D01*
X214320D01*
X214675Y3478D01*
Y5963D01*
X212900Y4543D02*X214675D01*
X215528Y3123D02*Y5963D01*
X216948D01*
X196500Y7623D02*Y10463D01*
X197920D01*
X198772Y9043D02*X199837D01*
X198772Y10463D02*X200192D01*
X198772Y7623D02*Y10463D01*
Y7623D02*X200192D01*
X201400D02*Y10463D01*
X202465Y7623D02*X202820Y7978D01*
Y10108D01*
X202465Y10463D02*X202820Y10108D01*
X201045Y10463D02*X202465D01*
X201045Y7623D02*X202465D01*
X143355Y2123D02*Y4963D01*
X144420Y2123D02*X144775Y2478D01*
Y4608D01*
X144420Y4963D02*X144775Y4608D01*
X143000Y4963D02*X144420D01*
X143000Y2123D02*X144420D01*
X145627Y3543D02*X146692D01*
X145627Y4963D02*X147047D01*
X145627Y2123D02*Y4963D01*
Y2123D02*X147047D01*
X149320D02*X149675Y2478D01*
X148255Y2123D02*X149320D01*
X147900Y2478D02*X148255Y2123D01*
X147900Y2478D02*Y3188D01*
X148255Y3543D01*
X149320D01*
X149675Y3898D01*
Y4608D01*
X149320Y4963D02*X149675Y4608D01*
X148255Y4963D02*X149320D01*
X147900Y4608D02*X148255Y4963D01*
X150528Y2123D02*X151238D01*
X150883D02*Y4963D01*
X150528D02*X151238D01*
X153510Y2123D02*X153865Y2478D01*
X152445Y2123D02*X153510D01*
X152090Y2478D02*X152445Y2123D01*
X152090Y2478D02*Y4608D01*
X152445Y4963D01*
X153510D01*
X153865Y4608D01*
Y3898D02*Y4608D01*
X153510Y3543D02*X153865Y3898D01*
X152800Y3543D02*X153510D01*
X154718Y2123D02*Y4963D01*
Y2123D02*Y2478D01*
X156493Y4253D01*
Y2123D02*Y4963D01*
X157346Y3543D02*X158411D01*
X157346Y4963D02*X158766D01*
X157346Y2123D02*Y4963D01*
Y2123D02*X158766D01*
X159973D02*Y4963D01*
X161038Y2123D02*X161393Y2478D01*
Y4608D01*
X161038Y4963D02*X161393Y4608D01*
X159618Y4963D02*X161038D01*
X159618Y2123D02*X161038D01*
X163524D02*X164234D01*
X163879D02*Y4963D01*
X163524D02*X164234D01*
X165087Y2123D02*Y4963D01*
Y2123D02*Y2478D01*
X166862Y4253D01*
Y2123D02*Y4963D01*
X170413Y2123D02*X170768Y2478D01*
X169348Y2123D02*X170413D01*
X168993Y2478D02*X169348Y2123D01*
X168993Y2478D02*Y4608D01*
X169348Y4963D01*
X170413D01*
X170768Y4608D01*
Y3898D02*Y4608D01*
X170413Y3543D02*X170768Y3898D01*
X169703Y3543D02*X170413D01*
X171975Y2123D02*Y4963D01*
X171620Y2123D02*X173040D01*
X173395Y2478D01*
Y3188D01*
X173040Y3543D02*X173395Y3188D01*
X171975Y3543D02*X173040D01*
X174248Y2123D02*Y4963D01*
X175668D01*
X177799Y3543D02*X178864D01*
X177799Y4963D02*X179219D01*
X177799Y2123D02*Y4963D01*
Y2123D02*X179219D01*
X180426D02*Y4963D01*
X181491Y2123D02*X181846Y2478D01*
Y4608D01*
X181491Y4963D02*X181846Y4608D01*
X180071Y4963D02*X181491D01*
X180071Y2123D02*X181491D01*
X182699Y2478D02*Y4963D01*
Y2478D02*X183054Y2123D01*
X184119D01*
X184474Y2478D01*
Y4963D01*
X182699Y3543D02*X184474D01*
X186605Y4608D02*X186960Y4963D01*
X186605Y2478D02*Y3188D01*
Y2478D02*X186960Y2123D01*
X186605Y3898D02*X187670Y2833D01*
X186960Y4963D02*X187315D01*
X188025Y4253D01*
X186605Y3188D02*X188380Y4963D01*
X186960Y2123D02*X187315D01*
X187670Y2478D01*
Y2833D01*
X186605Y3898D02*Y4608D01*
X190866Y2123D02*Y4963D01*
X190511Y2123D02*X191931D01*
X192286Y2478D01*
Y3188D01*
X191931Y3543D02*X192286Y3188D01*
X190866Y3543D02*X191931D01*
X193493Y4963D02*X194558D01*
X193138Y4608D02*X193493Y4963D01*
X193138Y2478D02*Y4608D01*
Y2478D02*X193493Y2123D01*
X194558D01*
X195411Y4963D02*X196831D01*
X197186Y4608D01*
Y3898D02*Y4608D01*
X196831Y3543D02*X197186Y3898D01*
X195766Y3543D02*X196831D01*
X195766Y2123D02*Y4963D01*
X195411Y2123D02*X196831D01*
X197186Y2478D01*
Y3188D01*
X196831Y3543D02*X197186Y3188D01*
X232180Y67553D02*X232520Y67213D01*
X232180Y67553D02*Y68573D01*
X232520Y68913D02*X232180Y68573D01*
X232520Y68913D02*X234560D01*
X234900Y68573D01*
Y67553D02*Y68573D01*
Y67553D02*X234560Y67213D01*
X233880D02*X234560D01*
X233540Y67553D02*X233880Y67213D01*
X233540Y67553D02*Y68233D01*
X232180Y66397D02*X234900D01*
X232180D02*X232520D01*
X234220Y64697D01*
X232180D02*X234900D01*
X232180Y63540D02*X234900D01*
X232180Y62520D02*X232520Y62180D01*
X234560D01*
X234900Y62520D02*X234560Y62180D01*
X234900Y62520D02*Y63880D01*
X232180Y62520D02*Y63880D01*
X232520Y78913D02*X232180Y78573D01*
Y77893D02*Y78573D01*
Y77893D02*X232520Y77553D01*
X234560D01*
X234900Y77893D02*X234560Y77553D01*
X234900Y77893D02*Y78573D01*
X234560Y78913D02*X234900Y78573D01*
X233540Y77553D02*Y78573D01*
X232180Y76737D02*X234220D01*
X234900Y76057D01*
X234220Y75377D01*
X232180D02*X234220D01*
X232520Y74560D02*X232180Y74220D01*
Y73540D02*Y74220D01*
Y73540D02*X232520Y73200D01*
X234560D01*
X234900Y73540D02*X234560Y73200D01*
X234900Y73540D02*Y74220D01*
X234560Y74560D02*X234900Y74220D01*
X233540Y73200D02*Y74220D01*
X232180Y57053D02*Y58413D01*
Y57053D02*X232520Y56713D01*
X233200D01*
X233540Y57053D02*X233200Y56713D01*
X233540Y57053D02*Y58073D01*
X232180D02*X234900D01*
X233540D02*X234900Y56713D01*
X232180Y55897D02*X232520D01*
X234220Y54197D01*
X234900D01*
X234220Y55897D02*X234900D01*
X234220D02*X232520Y54197D01*
X232180D02*X232520D01*
X232180Y48053D02*Y49413D01*
Y48733D02*X234900D01*
X232180Y47237D02*X232520D01*
X234220Y45537D01*
X234900D01*
X234220Y47237D02*X234900D01*
X234220D02*X232520Y45537D01*
X232180D02*X232520D01*
X219180Y90413D02*X221900D01*
X219180Y88713D02*X221900D01*
X220540D02*Y90413D01*
X219180Y87897D02*X221220D01*
X221900Y87217D01*
X221220Y86537D01*
X219180D02*X221220D01*
X221900Y84700D02*Y85380D01*
X219180Y85040D02*X221900D01*
X219860Y85720D02*X219180Y85040D01*
X191000Y106043D02*X192065D01*
X191000Y107463D02*X192420D01*
X191000Y104623D02*Y107463D01*
Y104623D02*X192420D01*
X193272D02*Y104978D01*
X195047Y106753D01*
Y107463D01*
X193272Y106753D02*Y107463D01*
Y106753D02*X195047Y104978D01*
Y104623D02*Y104978D01*
X196255Y104623D02*Y107463D01*
X195900Y104623D02*X197320D01*
X197675Y104978D01*
Y105688D01*
X197320Y106043D02*X197675Y105688D01*
X196255Y106043D02*X197320D01*
X198528Y104978D02*Y107463D01*
Y104978D02*X198883Y104623D01*
X199948D01*
X200303Y104978D01*
Y107463D01*
X198528Y106043D02*X200303D01*
X201155Y104623D02*Y107463D01*
Y104623D02*Y104978D01*
X202930Y106753D01*
Y104623D02*Y107463D01*
X205203Y104623D02*X205558Y104978D01*
X204138Y104623D02*X205203D01*
X203783Y104978D02*X204138Y104623D01*
X203783Y104978D02*Y105688D01*
X204138Y106043D01*
X205203D01*
X205558Y106398D01*
Y107108D01*
X205203Y107463D02*X205558Y107108D01*
X204138Y107463D02*X205203D01*
X203783Y107108D02*X204138Y107463D01*
X206411Y104623D02*X207121D01*
X206766D02*Y107463D01*
X206411D02*X207121D01*
X207973Y104978D02*Y107108D01*
Y104978D02*X208328Y104623D01*
X209038D01*
X209393Y104978D01*
Y107108D01*
X209038Y107463D02*X209393Y107108D01*
X208328Y107463D02*X209038D01*
X207973Y107108D02*X208328Y107463D01*
X210246Y104623D02*Y107463D01*
Y104623D02*Y104978D01*
X212021Y106753D01*
Y104623D02*Y107463D01*
X214507Y104623D02*Y107463D01*
X214152Y104623D02*X215572D01*
X215927Y104978D01*
Y105688D01*
X215572Y106043D02*X215927Y105688D01*
X214507Y106043D02*X215572D01*
X216780Y104978D02*Y107108D01*
Y104978D02*X217135Y104623D01*
X217845D01*
X218200Y104978D01*
Y107108D01*
X217845Y107463D02*X218200Y107108D01*
X217135Y107463D02*X217845D01*
X216780Y107108D02*X217135Y107463D01*
X219052Y104623D02*X220472D01*
X220827Y104978D01*
Y105688D01*
X220472Y106043D02*X220827Y105688D01*
X219407Y106043D02*X220472D01*
X219407Y104623D02*Y107463D01*
Y106043D02*X220827Y107463D01*
X221680Y104623D02*X223100D01*
X222390D02*Y107463D01*
X232520Y120913D02*X232180Y120573D01*
Y119893D02*Y120573D01*
Y119893D02*X232520Y119553D01*
X234560D01*
X234900Y119893D02*X234560Y119553D01*
X234900Y119893D02*Y120573D01*
X234560Y120913D02*X234900Y120573D01*
X233540Y119553D02*Y120573D01*
X232180Y118737D02*X234220D01*
X234900Y118057D01*
X234220Y117377D01*
X232180D02*X234220D01*
X232520Y116560D02*X232180Y116220D01*
Y115540D02*Y116220D01*
Y115540D02*X232520Y115200D01*
X234560D01*
X234900Y115540D02*X234560Y115200D01*
X234900Y115540D02*Y116220D01*
X234560Y116560D02*X234900Y116220D01*
X233540Y115200D02*Y116220D01*
X232180Y109553D02*X232520Y109213D01*
X232180Y109553D02*Y110573D01*
X232520Y110913D02*X232180Y110573D01*
X232520Y110913D02*X234560D01*
X234900Y110573D01*
Y109553D02*Y110573D01*
Y109553D02*X234560Y109213D01*
X233880D02*X234560D01*
X233540Y109553D02*X233880Y109213D01*
X233540Y109553D02*Y110233D01*
X232180Y108397D02*X234900D01*
X232180D02*X232520D01*
X234220Y106697D01*
X232180D02*X234900D01*
X232180Y105540D02*X234900D01*
X232180Y104520D02*X232520Y104180D01*
X234560D01*
X234900Y104520D02*X234560Y104180D01*
X234900Y104520D02*Y105880D01*
X232180Y104520D02*Y105880D01*
Y89553D02*X232520Y89213D01*
X232180Y89553D02*Y90573D01*
X232520Y90913D02*X232180Y90573D01*
X232520Y90913D02*X233200D01*
X233540Y90573D01*
Y89553D02*Y90573D01*
Y89553D02*X233880Y89213D01*
X234560D01*
X234900Y89553D02*X234560Y89213D01*
X234900Y89553D02*Y90573D01*
X234560Y90913D02*X234900Y90573D01*
Y87037D02*Y88057D01*
X234560Y88397D02*X234900Y88057D01*
X232520Y88397D02*X234560D01*
X232520D02*X232180Y88057D01*
Y87037D02*Y88057D01*
Y86220D02*X234900D01*
Y84860D02*Y86220D01*
X232180Y99553D02*X232520Y99213D01*
X232180Y99553D02*Y100573D01*
X232520Y100913D02*X232180Y100573D01*
X232520Y100913D02*X233200D01*
X233540Y100573D01*
Y99553D02*Y100573D01*
Y99553D02*X233880Y99213D01*
X234560D01*
X234900Y99553D02*X234560Y99213D01*
X234900Y99553D02*Y100573D01*
X234560Y100913D02*X234900Y100573D01*
X232180Y98057D02*X234900D01*
X232180Y97037D02*X232520Y96697D01*
X234560D01*
X234900Y97037D02*X234560Y96697D01*
X234900Y97037D02*Y98397D01*
X232180Y97037D02*Y98397D01*
X232520Y95880D02*X234900D01*
X232520D02*X232180Y95540D01*
Y94520D02*Y95540D01*
Y94520D02*X232520Y94180D01*
X234900D01*
X233540D02*Y95880D01*
G54D61*X30300Y58913D02*X44200D01*
Y46113D02*Y58913D01*
X30300Y46113D02*X44200D01*
X30300D02*Y58913D01*
G54D14*X20638Y42849D02*Y42063D01*
X26148Y42849D02*Y42063D01*
X25047Y24460D02*X29771D01*
X25047Y31940D02*X29771D01*
G54D60*X137850Y94563D02*Y96563D01*
Y94563D02*X138350Y94063D01*
X139350D01*
X139850Y94563D02*X139350Y94063D01*
X139850Y94563D02*Y96063D01*
X137850D02*X141850D01*
X139850D02*X141850Y94063D01*
X138350Y92862D02*X137850Y92362D01*
Y90862D02*Y92362D01*
Y90862D02*X138350Y90362D01*
X139350D01*
X141850Y92862D02*X139350Y90362D01*
X141850D02*Y92862D01*
Y89161D02*X139350Y86661D01*
X137850D02*X139350D01*
X137850D02*Y89161D01*
X132374Y94122D02*Y96122D01*
Y94122D02*X132874Y93622D01*
X133874D01*
X134374Y94122D02*X133874Y93622D01*
X134374Y94122D02*Y95622D01*
X132374D02*X136374D01*
X134374D02*X136374Y93622D01*
X132874Y92421D02*X132374Y91921D01*
Y90421D02*Y91921D01*
Y90421D02*X132874Y89921D01*
X133874D01*
X136374Y92421D02*X133874Y89921D01*
X136374D02*Y92421D01*
X135874Y88720D02*X136374Y88220D01*
X134874Y88720D02*X135874D01*
X134874D02*X134374Y88220D01*
Y87220D02*Y88220D01*
Y87220D02*X134874Y86720D01*
X135874D01*
X136374Y87220D02*X135874Y86720D01*
X136374Y87220D02*Y88220D01*
X133874Y88720D02*X134374Y88220D01*
X132874Y88720D02*X133874D01*
X132874D02*X132374Y88220D01*
Y87220D02*Y88220D01*
Y87220D02*X132874Y86720D01*
X133874D01*
X134374Y87220D02*X133874Y86720D01*
X168874Y130504D02*Y132004D01*
X168374Y132504D02*X168874Y132004D01*
X165374Y132504D02*X168374D01*
X165374D02*X164874Y132004D01*
Y130504D02*Y132004D01*
X165374Y129303D02*X164874Y128803D01*
Y127303D02*Y128803D01*
Y127303D02*X165374Y126803D01*
X166374D01*
X168874Y129303D02*X166374Y126803D01*
X168874D02*Y129303D01*
X168374Y125602D02*X168874Y125102D01*
X165374Y125602D02*X168374D01*
X165374D02*X164874Y125102D01*
Y124102D02*Y125102D01*
Y124102D02*X165374Y123602D01*
X168374D01*
X168874Y124102D02*X168374Y123602D01*
X168874Y124102D02*Y125102D01*
X167874Y125602D02*X165874Y123602D01*
X143409Y104255D02*X144909D01*
X142909Y103755D02*X143409Y104255D01*
X142909Y100755D02*Y103755D01*
Y100755D02*X143409Y100255D01*
X144909D01*
X146610Y104255D02*X147610D01*
X147110Y100255D02*Y104255D01*
X146110Y101255D02*X147110Y100255D01*
X148811Y103755D02*X149311Y104255D01*
X148811Y102755D02*Y103755D01*
Y102755D02*X149311Y102255D01*
X150311D01*
X150811Y102755D01*
Y103755D01*
X150311Y104255D02*X150811Y103755D01*
X149311Y104255D02*X150311D01*
X148811Y101755D02*X149311Y102255D01*
X148811Y100755D02*Y101755D01*
Y100755D02*X149311Y100255D01*
X150311D01*
X150811Y100755D01*
Y101755D01*
X150311Y102255D02*X150811Y101755D01*
X127342Y130622D02*Y132122D01*
X126842Y132622D02*X127342Y132122D01*
X123842Y132622D02*X126842D01*
X123842D02*X123342Y132122D01*
Y130622D02*Y132122D01*
X123842Y129421D02*X123342Y128921D01*
Y127421D02*Y128921D01*
Y127421D02*X123842Y126921D01*
X124842D01*
X127342Y129421D02*X124842Y126921D01*
X127342D02*Y129421D01*
Y124220D02*Y125220D01*
X123342Y124720D02*X127342D01*
X124342Y125720D02*X123342Y124720D01*
X15136Y47563D02*X19136D01*
X15136Y46063D02*Y48063D01*
Y46063D02*X15636Y45563D01*
X16636D01*
X17136Y46063D02*X16636Y45563D01*
X17136Y46063D02*Y47563D01*
X15136Y42362D02*Y44362D01*
Y43362D02*X19136D01*
Y39161D02*Y40661D01*
X18636Y41161D02*X19136Y40661D01*
X15636Y41161D02*X18636D01*
X15636D02*X15136Y40661D01*
Y39161D02*Y40661D01*
X19136Y36460D02*Y37460D01*
X15136Y36960D02*X19136D01*
X16136Y37960D02*X15136Y36960D01*
X18471Y19050D02*X20471D01*
X20971Y19550D01*
Y20550D01*
X20471Y21050D02*X20971Y20550D01*
X18971Y21050D02*X20471D01*
X18971Y19050D02*Y23050D01*
Y21050D02*X20971Y23050D01*
X22172Y21050D02*X24172Y19050D01*
X22172Y21050D02*X24672D01*
X24172Y19050D02*Y23050D01*
X25873D02*X28373Y20550D01*
Y19050D02*Y20550D01*
X25873Y19050D02*X28373D01*
X30800Y41113D02*Y45113D01*
X32300Y41113D02*X32800Y41613D01*
Y44613D01*
X32300Y45113D02*X32800Y44613D01*
X30300Y45113D02*X32300D01*
X30300Y41113D02*X32300D01*
X34001Y41613D02*X34501Y41113D01*
X35501D01*
X36001Y41613D01*
Y44613D01*
X35501Y45113D02*X36001Y44613D01*
X34501Y45113D02*X35501D01*
X34001Y44613D02*X34501Y45113D01*
Y43113D02*X36001D01*
M02*
