G04 start of page 5 for group -4062 idx -4062 *
G04 Title: (unknown), soldermask *
G04 Creator: pcb 20091103 *
G04 CreationDate: Sun 20 Feb 2011 16:36:46 GMT UTC *
G04 For: thomas *
G04 Format: Gerber/RS-274X *
G04 PCB-Dimensions: 240157 142913 *
G04 PCB-Coordinate-Origin: lower left *
%MOIN*%
%FSLAX25Y25*%
%LNBACKMASK*%
%ADD11C,0.0200*%
%ADD41C,0.0660*%
%ADD42C,0.0425*%
%ADD43C,0.0544*%
%ADD44C,0.0700*%
%ADD45R,0.0572X0.0572*%
%ADD46R,0.0355X0.0355*%
%ADD52R,0.0400X0.0400*%
G54D11*G36*
X196700Y17713D02*Y11113D01*
X203300D01*
Y17713D01*
X196700D01*
G37*
G36*
X208700D02*Y11113D01*
X215300D01*
Y17713D01*
X208700D01*
G37*
G54D41*X200000Y24413D03*
X215500Y46413D03*
Y36413D03*
X212000Y24413D03*
X179000Y51413D03*
X189000D03*
X199000D03*
G54D11*G36*
X212200Y91213D02*Y84613D01*
X218800D01*
Y91213D01*
X212200D01*
G37*
G54D41*X215500Y77913D03*
Y67913D03*
G54D11*G36*
X212200Y59713D02*Y53113D01*
X218800D01*
Y59713D01*
X212200D01*
G37*
G36*
X224700Y79713D02*Y73113D01*
X231300D01*
Y79713D01*
X224700D01*
G37*
G36*
Y121213D02*Y114613D01*
X231300D01*
Y121213D01*
X224700D01*
G37*
G54D41*X228000Y107913D03*
Y97913D03*
Y87913D03*
Y66413D03*
Y56413D03*
Y46413D03*
X50500Y51413D03*
G54D11*G36*
X19200Y96713D02*Y90113D01*
X25800D01*
Y96713D01*
X19200D01*
G37*
G54D41*X22500Y83413D03*
Y73413D03*
Y63413D03*
G54D11*G36*
X87200Y54713D02*Y48113D01*
X93800D01*
Y54713D01*
X87200D01*
G37*
G54D41*X80500Y51413D03*
X70500D03*
X60500D03*
G54D11*G36*
X7700Y51713D02*Y45113D01*
X14300D01*
Y51713D01*
X7700D01*
G37*
G54D41*X11000Y38413D03*
Y28413D03*
G54D42*X108228Y22118D03*
G54D43*X110000Y9323D03*
Y34913D03*
G54D11*G36*
X7700Y96713D02*Y90113D01*
X14300D01*
Y96713D01*
X7700D01*
G37*
G54D41*X11000Y83413D03*
Y73413D03*
Y63413D03*
G54D11*G36*
X155700Y54713D02*Y48113D01*
X162300D01*
Y54713D01*
X155700D01*
G37*
G54D44*X156000Y130913D03*
X136788D03*
G54D42*X144228Y22618D03*
G54D43*X146000Y9823D03*
Y35413D03*
G54D42*X129488Y22118D03*
G54D43*X127716Y34913D03*
Y9323D03*
G54D42*X191488Y22618D03*
G54D43*X189716Y35413D03*
X172000D03*
G54D41*X169000Y51413D03*
G54D42*X170228Y22618D03*
G54D43*X189716Y9823D03*
X172000D03*
G54D42*X165488Y22618D03*
G54D43*X163716Y9823D03*
Y35413D03*
G54D45*X21504Y29381D02*Y27019D01*
X33314Y29381D02*Y27019D01*
X23000Y38913D02*X23786D01*
X23000Y45999D02*X23786D01*
G54D52*X41000Y56413D02*X41600D01*
X32800Y52513D02*X33400D01*
X41000Y48613D02*X41600D01*
G54D46*X133484Y99295D02*X134468D01*
X133484Y104413D02*X134468D01*
X144500Y107397D02*Y106413D01*
X149618Y107397D02*Y106413D01*
X139008Y99354D02*X139992D01*
X139008Y104472D02*X139992D01*
X161532Y130913D02*X162516D01*
X161532Y125795D02*X162516D01*
X129516Y130913D02*X130500D01*
X129516Y125795D02*X130500D01*
M02*
