G04 start of page 10 for group -4015 idx -4015 *
G04 Title: (unknown), toppaste *
G04 Creator: pcb 20091103 *
G04 CreationDate: Sun 30 Jan 2011 02:46:18 GMT UTC *
G04 For: thomas *
G04 Format: Gerber/RS-274X *
G04 PCB-Dimensions: 167323 163386 *
G04 PCB-Coordinate-Origin: lower left *
%MOIN*%
%FSLAX25Y25*%
%LNFRONTPASTE*%
%ADD15C,0.0550*%
%ADD20R,0.0512X0.0512*%
%ADD21R,0.0200X0.0200*%
%ADD22R,0.0690X0.0690*%
%ADD23R,0.0295X0.0295*%
%ADD24R,0.0430X0.0430*%
G54D20*X129123Y43701D02*X129909D01*
X129123Y36615D02*X129909D01*
X132678Y125983D02*Y125197D01*
X139764Y125983D02*Y125197D01*
X132678Y118109D02*Y117323D01*
X139764Y118109D02*Y117323D01*
X136221Y43701D02*X137007D01*
X136221Y36615D02*X137007D01*
X49026Y55130D02*X49812D01*
X49026Y62216D02*X49812D01*
G54D23*X92333Y43712D02*Y42728D01*
X87215Y43712D02*Y42728D01*
G54D20*X41940Y55130D02*X42726D01*
X41940Y62216D02*X42726D01*
G54D22*X44095Y133488D02*X45295D01*
X44095Y144488D02*X45295D01*
G54D20*X49026Y114185D02*Y113399D01*
X41940Y114185D02*Y113399D01*
G54D15*X31454Y54920D02*X34204D01*
X31454Y62794D02*X34204D01*
X31454Y70668D02*X34204D01*
X31454Y78542D02*X34204D01*
X31454Y86416D02*X34204D01*
X31454Y94289D02*X34204D01*
X31454Y102163D02*X34204D01*
X31454Y110037D02*X34204D01*
X31454Y117911D02*X34204D01*
X31454Y125785D02*X34204D01*
X118068D02*X120818D01*
X118068Y117911D02*X120818D01*
X118068Y110037D02*X120818D01*
X118068Y102163D02*X120818D01*
X118068Y94289D02*X120818D01*
X118068Y86416D02*X120818D01*
X118068Y78542D02*X120818D01*
X118068Y70668D02*X120818D01*
X118068Y62794D02*X120818D01*
X118068Y54920D02*X120818D01*
G54D21*X55868Y115850D02*X61868D01*
X55868Y110850D02*X61868D01*
X55868Y105850D02*X61868D01*
X55868Y100850D02*X61868D01*
X55868Y95850D02*X61868D01*
X55868Y90850D02*X61868D01*
X55868Y85850D02*X61868D01*
X55868Y80850D02*X61868D01*
X55868Y75850D02*X61868D01*
X55868Y70850D02*X61868D01*
X91868D02*X97868D01*
X91868Y75850D02*X97868D01*
X91868Y80850D02*X97868D01*
X91868Y85850D02*X97868D01*
X91868Y90850D02*X97868D01*
X91868Y95850D02*X97868D01*
X91868Y100850D02*X97868D01*
X91868Y105850D02*X97868D01*
X91868Y110850D02*X97868D01*
X91868Y115850D02*X97868D01*
G54D20*X49025Y122845D02*Y122059D01*
X41939Y122845D02*Y122059D01*
X56113Y122845D02*Y122059D01*
X63199Y122845D02*Y122059D01*
X49025Y81900D02*Y81114D01*
X41939Y81900D02*Y81114D01*
G54D24*X15295Y30602D02*X24295D01*
X40795D02*X49895D01*
G54D20*X41939Y89774D02*Y88988D01*
X49025Y89774D02*Y88988D01*
X95278Y24016D02*X96064D01*
X95278Y31102D02*X96064D01*
X103938Y24016D02*X104724D01*
X103938Y31102D02*X104724D01*
G54D23*X64774Y43712D02*Y42728D01*
X69892Y43712D02*Y42728D01*
G54D20*X133466Y55117D02*Y54331D01*
X140552Y55117D02*Y54331D01*
M02*
