G04 start of page 4 for group -4063 idx -4063 *
G04 Title: (unknown), componentmask *
G04 Creator: pcb 20091103 *
G04 CreationDate: Sun 30 Jan 2011 02:46:18 GMT UTC *
G04 For: thomas *
G04 Format: Gerber/RS-274X *
G04 PCB-Dimensions: 167323 163386 *
G04 PCB-Coordinate-Origin: lower left *
%MOIN*%
%FSLAX25Y25*%
%LNFRONTMASK*%
%ADD13C,0.0200*%
%ADD31C,0.0660*%
%ADD32C,0.0750*%
%ADD33C,0.0700*%
%ADD34C,0.0710*%
%ADD35R,0.0572X0.0572*%
%ADD36R,0.0300X0.0300*%
%ADD37R,0.0750X0.0750*%
%ADD38R,0.0355X0.0355*%
%ADD39R,0.0490X0.0490*%
G54D13*G36*
X54466Y146225D02*Y139625D01*
X61066D01*
Y146225D01*
X54466D01*
G37*
G54D31*X67766Y142925D03*
X77766D03*
X87766D03*
X97766D03*
G54D32*X32829Y54920D03*
G54D33*X69718Y56407D03*
X88930D03*
G54D32*X32829Y62794D03*
Y70668D03*
Y78542D03*
Y86416D03*
Y94289D03*
Y102163D03*
Y110037D03*
Y117911D03*
Y125785D03*
G54D31*X107766Y142925D03*
G54D32*X119443Y125785D03*
Y117911D03*
G54D34*X140522Y67334D03*
G54D13*G36*
X144732Y47001D02*Y40401D01*
X151332D01*
Y47001D01*
X144732D01*
G37*
G54D31*X148032Y33701D03*
Y23701D03*
Y13701D03*
G54D34*X140434Y105118D03*
Y86220D03*
G54D13*G36*
X126972Y70884D02*Y63784D01*
X134072D01*
Y70884D01*
X126972D01*
G37*
G54D32*X119443Y86416D03*
Y78542D03*
Y70668D03*
G54D13*G36*
X126884Y89770D02*Y82670D01*
X133984D01*
Y89770D01*
X126884D01*
G37*
G36*
Y108668D02*Y101568D01*
X133984D01*
Y108668D01*
X126884D01*
G37*
G54D32*X119443Y110037D03*
Y102163D03*
Y94289D03*
Y62794D03*
Y54920D03*
G54D13*G36*
X115598Y47001D02*Y40401D01*
X122198D01*
Y47001D01*
X115598D01*
G37*
G54D31*X118898Y33701D03*
Y23701D03*
Y13701D03*
G54D35*X41939Y89774D02*Y88988D01*
Y81900D02*Y81114D01*
Y122845D02*Y122059D01*
X56113Y122845D02*Y122059D01*
X63199Y122845D02*Y122059D01*
X49025Y122845D02*Y122059D01*
G54D36*X55868Y115850D02*X61868D01*
X55868Y110850D02*X61868D01*
G54D35*X49026Y114185D02*Y113399D01*
G54D36*X55868Y105850D02*X61868D01*
X55868Y100850D02*X61868D01*
G54D35*X41940Y114185D02*Y113399D01*
Y62216D02*X42726D01*
X49026D02*X49812D01*
X133466Y55117D02*Y54331D01*
X140552Y55117D02*Y54331D01*
G54D32*X118068Y54920D02*X120818D01*
G54D35*X41940Y55130D02*X42726D01*
X49026D02*X49812D01*
X136221Y43701D02*X137007D01*
X129123D02*X129909D01*
X136221Y36615D02*X137007D01*
X129123D02*X129909D01*
G54D36*X91868Y70850D02*X97868D01*
X91868Y75850D02*X97868D01*
X91868Y80850D02*X97868D01*
X91868Y85850D02*X97868D01*
G54D32*X118068Y94289D02*X120818D01*
X118068Y86416D02*X120818D01*
X118068Y78542D02*X120818D01*
X118068Y70668D02*X120818D01*
X118068Y62794D02*X120818D01*
G54D36*X91868Y90850D02*X97868D01*
X91868Y95850D02*X97868D01*
X91868Y100850D02*X97868D01*
X91868Y105850D02*X97868D01*
X91868Y110850D02*X97868D01*
X91868Y115850D02*X97868D01*
G54D32*X118068Y125785D02*X120818D01*
X118068Y117911D02*X120818D01*
X118068Y110037D02*X120818D01*
X118068Y102163D02*X120818D01*
G54D35*X132678Y118109D02*Y117323D01*
Y125983D02*Y125197D01*
X139764Y118109D02*Y117323D01*
Y125983D02*Y125197D01*
G54D32*X31454Y102163D02*X34204D01*
X31454Y110037D02*X34204D01*
X31454Y117911D02*X34204D01*
X31454Y125785D02*X34204D01*
G54D37*X44095Y133488D02*X45295D01*
X44095Y144488D02*X45295D01*
G54D38*X64774Y43712D02*Y42728D01*
X69892Y43712D02*Y42728D01*
X87215Y43712D02*Y42728D01*
G54D39*X15295Y30602D02*X24295D01*
X40795D02*X49895D01*
G54D32*X31454Y54920D02*X34204D01*
X31454Y62794D02*X34204D01*
G54D35*X103938Y24016D02*X104724D01*
X103938Y31102D02*X104724D01*
X95278Y24016D02*X96064D01*
X95278Y31102D02*X96064D01*
G54D38*X92333Y43712D02*Y42728D01*
G54D35*X49025Y89774D02*Y88988D01*
Y81900D02*Y81114D01*
G54D36*X55868Y95850D02*X61868D01*
X55868Y90850D02*X61868D01*
X55868Y85850D02*X61868D01*
X55868Y80850D02*X61868D01*
X55868Y75850D02*X61868D01*
X55868Y70850D02*X61868D01*
G54D32*X31454Y70668D02*X34204D01*
X31454Y78542D02*X34204D01*
X31454Y86416D02*X34204D01*
X31454Y94289D02*X34204D01*
M02*
