M48
INCH
T13C0.020
T25C0.038
T27C0.029
T28C0.043
T29C0.035
T40C0.156
%
T13
X006614Y011535
X006929Y012244
X008425Y010039
X010453Y011300
X008721Y011064
X008800Y011615
X013267Y013149
X008819Y003110
X011102Y003110
X008740Y005000
X012756Y005472
X008740Y009566
X006971Y010311
X004173Y007519
X007007Y005000
X004173Y010826
X007559Y010826
X007559Y006968
T27
X003282Y005492
X006971Y005640
X008893Y005640
X003282Y006279
X003282Y007066
X003282Y007854
X003282Y008641
X003282Y009428
X003282Y010216
X003282Y011003
X003282Y011791
X003282Y012578
X011944Y012578
X011944Y011791
X011944Y008641
X011944Y007854
X011944Y007066
X011944Y011003
X011944Y010216
X011944Y009428
X011944Y006279
X011944Y005492
T29
X003288Y013268
X011083Y010198
X005865Y006221
X003307Y003031
T25
X005776Y014292
X006776Y014292
X007776Y014292
X008776Y014292
X009776Y014292
X010776Y014292
X014803Y004370
X014803Y003370
X014803Y002370
X014803Y001370
X011889Y004370
X011889Y003370
X011889Y002370
X011889Y001370
T28
X014052Y006733
X014043Y010511
X014043Y008622
X013052Y006733
X013043Y008622
X013043Y010511
T40
X015275Y014842
X001259Y014842
X007637Y001220
M30
