G04 start of page 7 for group -4079 idx -4079 *
G04 Title: (unknown), topsilk *
G04 Creator: pcb 20091103 *
G04 CreationDate: Sun 30 Jan 2011 02:46:18 GMT UTC *
G04 For: thomas *
G04 Format: Gerber/RS-274X *
G04 PCB-Dimensions: 167323 163386 *
G04 PCB-Coordinate-Origin: lower left *
%MOIN*%
%FSLAX25Y25*%
%LNFRONTSILK*%
%ADD11C,0.0100*%
%ADD13C,0.0200*%
%ADD41C,0.0060*%
%ADD42C,0.0080*%
G54D11*X52757Y128740D02*X51182Y127165D01*
X12598Y137402D02*Y132677D01*
X7874D02*X17323D01*
X9449Y130315D02*X15748D01*
X11024Y127953D02*X14173D01*
G54D41*X150700Y102603D02*X151170Y102133D01*
X149290Y102603D02*X150700D01*
X148820Y102133D02*X149290Y102603D01*
X148820Y102133D02*Y101193D01*
X149290Y100723D01*
X150700D01*
X151170Y100253D01*
Y99313D01*
X150700Y98843D02*X151170Y99313D01*
X149290Y98843D02*X150700D01*
X148820Y99313D02*X149290Y98843D01*
X152298Y102603D02*X153238D01*
X152768D02*Y98843D01*
X152298D02*X153238D01*
X156247Y102603D02*X156717Y102133D01*
X154837Y102603D02*X156247D01*
X154367Y102133D02*X154837Y102603D01*
X154367Y102133D02*Y99313D01*
X154837Y98843D01*
X156247D01*
X156717Y99313D01*
Y100253D02*Y99313D01*
X156247Y100723D02*X156717Y100253D01*
X155307Y100723D02*X156247D01*
X148820Y66382D02*X150700D01*
X151170Y65912D01*
Y64972D01*
X150700Y64502D02*X151170Y64972D01*
X149290Y64502D02*X150700D01*
X149290Y66382D02*Y62622D01*
Y64502D02*X151170Y62622D01*
X152298Y66382D02*Y65912D01*
X154648Y63562D01*
Y62622D01*
X152298Y63562D02*Y62622D01*
Y63562D02*X154648Y65912D01*
Y66382D02*Y65912D01*
X148820Y84494D02*X150700D01*
X149760D02*Y80734D01*
X151828Y84494D02*Y84024D01*
X154178Y81674D01*
Y80734D01*
X151828Y81674D02*Y80734D01*
Y81674D02*X154178Y84024D01*
Y84494D02*Y84024D01*
X133859Y11277D02*Y10337D01*
Y11277D02*X134329Y11747D01*
X135269D01*
X135739Y11277D01*
Y10337D01*
X135269Y9867D02*X135739Y10337D01*
X134329Y9867D02*X135269D01*
X133859Y10337D02*X134329Y9867D01*
X136867Y11747D02*Y10337D01*
X137337Y9867D01*
X138277D01*
X138747Y10337D01*
Y11747D02*Y10337D01*
X140346Y13627D02*Y10337D01*
X140816Y9867D01*
X139876Y12217D02*X140816D01*
X109450Y12687D02*Y12217D01*
Y11277D02*Y9867D01*
X110860Y11277D02*Y9867D01*
Y11277D02*X111330Y11747D01*
X111800D01*
X112270Y11277D01*
Y9867D01*
X110390Y11747D02*X110860Y11277D01*
X23525Y5800D02*Y3730D01*
Y5800D02*X24215Y6490D01*
X25595D01*
X22835D02*X23525Y5800D01*
X27942Y3730D02*X30012D01*
X27252Y4420D02*X27942Y3730D01*
X27252Y5800D02*Y4420D01*
Y5800D02*X27942Y6490D01*
X29322D01*
X30012Y5800D01*
X27252Y5110D02*X30012D01*
Y5800D02*Y5110D01*
X31669Y6490D02*Y5110D01*
X33049Y3730D01*
X34429Y5110D01*
Y6490D02*Y5110D01*
X36087Y7870D02*Y7180D01*
Y5800D02*Y3730D01*
X38158D02*X40228D01*
X40918Y4420D01*
X40228Y5110D02*X40918Y4420D01*
X38158Y5110D02*X40228D01*
X37468Y5800D02*X38158Y5110D01*
X37468Y5800D02*X38158Y6490D01*
X40228D01*
X40918Y5800D01*
X37468Y4420D02*X38158Y3730D01*
X42575Y7870D02*Y7180D01*
Y5800D02*Y3730D01*
X43957Y5800D02*Y4420D01*
Y5800D02*X44647Y6490D01*
X46027D01*
X46717Y5800D01*
Y4420D01*
X46027Y3730D02*X46717Y4420D01*
X44647Y3730D02*X46027D01*
X43957Y4420D02*X44647Y3730D01*
X49064Y5800D02*Y3730D01*
Y5800D02*X49754Y6490D01*
X50444D01*
X51134Y5800D01*
Y3730D01*
X48374Y6490D02*X49064Y5800D01*
X55966Y3730D02*X57346D01*
X56656Y9250D02*Y3730D01*
X55276Y7870D02*X56656Y9250D01*
X29531Y156495D02*X30221Y155805D01*
X27461Y156495D02*X29531D01*
X26771Y155805D02*X27461Y156495D01*
X26771Y155805D02*Y154425D01*
X27461Y153735D01*
X29531D01*
X30221Y153045D01*
Y151665D01*
X29531Y150975D02*X30221Y151665D01*
X27461Y150975D02*X29531D01*
X26771Y151665D02*X27461Y150975D01*
X31878Y153735D02*Y151665D01*
X32568Y150975D01*
X33948D01*
X34638Y151665D01*
Y153735D02*Y151665D01*
X36985Y153045D02*Y148905D01*
X36295Y153735D02*X36985Y153045D01*
X37675Y153735D01*
X39055D01*
X39745Y153045D01*
Y151665D01*
X39055Y150975D02*X39745Y151665D01*
X37675Y150975D02*X39055D01*
X36985Y151665D02*X37675Y150975D01*
X42093D02*X44163D01*
X41403Y151665D02*X42093Y150975D01*
X41403Y153045D02*Y151665D01*
Y153045D02*X42093Y153735D01*
X43473D01*
X44163Y153045D01*
X41403Y152355D02*X44163D01*
Y153045D02*Y152355D01*
X46510Y153045D02*Y150975D01*
Y153045D02*X47200Y153735D01*
X48580D01*
X45820D02*X46510Y153045D01*
X52721Y155805D02*Y151665D01*
Y155805D02*X53411Y156495D01*
X54791D01*
X55481Y155805D01*
Y151665D01*
X54791Y150975D02*X55481Y151665D01*
X53411Y150975D02*X54791D01*
X52721Y151665D02*X53411Y150975D01*
X59899Y156495D02*X60589Y155805D01*
X57829Y156495D02*X59899D01*
X57139Y155805D02*X57829Y156495D01*
X57139Y155805D02*Y154425D01*
X57829Y153735D01*
X59899D01*
X60589Y153045D01*
Y151665D01*
X59899Y150975D02*X60589Y151665D01*
X57829Y150975D02*X59899D01*
X57139Y151665D02*X57829Y150975D01*
X62936Y156495D02*Y150975D01*
X65006Y156495D02*X65696Y155805D01*
Y151665D01*
X65006Y150975D02*X65696Y151665D01*
X62246Y150975D02*X65006D01*
X62246Y156495D02*X65006D01*
X69838D02*Y155805D01*
X73288Y152355D01*
Y150975D01*
X69838Y152355D02*Y150975D01*
Y152355D02*X73288Y155805D01*
Y156495D02*Y155805D01*
X74945Y150975D02*X77705D01*
X78395Y151665D01*
Y153045D02*Y151665D01*
X77705Y153735D02*X78395Y153045D01*
X75635Y153735D02*X77705D01*
X75635Y156495D02*Y150975D01*
X74945Y156495D02*X77705D01*
X78395Y155805D01*
Y154425D01*
X77705Y153735D02*X78395Y154425D01*
X80742Y150975D02*X82812D01*
X80052Y151665D02*X80742Y150975D01*
X80052Y153045D02*Y151665D01*
Y153045D02*X80742Y153735D01*
X82122D01*
X82812Y153045D01*
X80052Y152355D02*X82812D01*
Y153045D02*Y152355D01*
X85160Y150975D02*X87230D01*
X84470Y151665D02*X85160Y150975D01*
X84470Y153045D02*Y151665D01*
Y153045D02*X85160Y153735D01*
X86540D01*
X87230Y153045D01*
X84470Y152355D02*X87230D01*
Y153045D02*Y152355D01*
X94131Y156495D02*X94821Y155805D01*
X92061Y156495D02*X94131D01*
X91371Y155805D02*X92061Y156495D01*
X91371Y155805D02*Y151665D01*
X92061Y150975D01*
X94131D01*
X94821Y151665D01*
Y153045D02*Y151665D01*
X94131Y153735D02*X94821Y153045D01*
X92751Y153735D02*X94131D01*
X98548D02*X99238Y153045D01*
X97168Y153735D02*X98548D01*
X96478Y153045D02*X97168Y153735D01*
X96478Y153045D02*Y151665D01*
X97168Y150975D01*
X99238Y153735D02*Y151665D01*
X99928Y150975D01*
X97168D02*X98548D01*
X99238Y151665D01*
X102276Y153045D02*Y150975D01*
Y153045D02*X102966Y153735D01*
X103656D01*
X104346Y153045D01*
Y150975D01*
Y153045D02*X105036Y153735D01*
X105726D01*
X106416Y153045D01*
Y150975D01*
X101586Y153735D02*X102276Y153045D01*
X108073Y155115D02*Y154425D01*
Y153045D02*Y150975D01*
X110145Y153045D02*Y150975D01*
Y153045D02*X110835Y153735D01*
X111525D01*
X112215Y153045D01*
Y150975D01*
X109455Y153735D02*X110145Y153045D01*
X115942Y153735D02*X116632Y153045D01*
X114562Y153735D02*X115942D01*
X113872Y153045D02*X114562Y153735D01*
X113872Y153045D02*Y151665D01*
X114562Y150975D01*
X115942D01*
X116632Y151665D01*
X113872Y149595D02*X114562Y148905D01*
X115942D01*
X116632Y149595D01*
Y153735D02*Y149595D01*
X120773Y156495D02*X123533D01*
X124223Y155805D01*
Y154425D01*
X123533Y153735D02*X124223Y154425D01*
X121463Y153735D02*X123533D01*
X121463Y156495D02*Y150975D01*
Y153735D02*X124223Y150975D01*
X127951Y153735D02*X128641Y153045D01*
X126571Y153735D02*X127951D01*
X125881Y153045D02*X126571Y153735D01*
X125881Y153045D02*Y151665D01*
X126571Y150975D01*
X128641Y153735D02*Y151665D01*
X129331Y150975D01*
X126571D02*X127951D01*
X128641Y151665D01*
X133748Y156495D02*Y150975D01*
X133058D02*X133748Y151665D01*
X131678Y150975D02*X133058D01*
X130988Y151665D02*X131678Y150975D01*
X130988Y153045D02*Y151665D01*
Y153045D02*X131678Y153735D01*
X133058D01*
X133748Y153045D01*
X135405Y155115D02*Y154425D01*
Y153045D02*Y150975D01*
X136787Y153045D02*Y151665D01*
Y153045D02*X137477Y153735D01*
X138857D01*
X139547Y153045D01*
Y151665D01*
X138857Y150975D02*X139547Y151665D01*
X137477Y150975D02*X138857D01*
X136787Y151665D02*X137477Y150975D01*
G54D42*X136616Y57479D02*X137402D01*
X136616Y51969D02*X137402D01*
X139369Y40551D02*Y39765D01*
X133859Y40551D02*Y39765D01*
X132271Y40551D02*Y39765D01*
X126761Y40551D02*Y39765D01*
G54D11*X131350Y63163D02*G75*G03X139693Y63162I4171J4171D01*G01*
X139693Y71506D02*G75*G03X131350Y71505I-4171J-4171D01*G01*
X129935Y61748D02*G75*G03X141108Y61747I5586J5586D01*G01*
X141108Y72921D02*G75*G03X129935Y72920I-5586J-5586D01*G01*
X131262Y100947D02*G75*G03X139605Y100946I4171J4171D01*G01*
X139605Y109290D02*G75*G03X131262Y109289I-4171J-4171D01*G01*
X129847Y99532D02*G75*G03X141020Y99531I5586J5586D01*G01*
X141020Y110705D02*G75*G03X129847Y110704I-5586J-5586D01*G01*
X131262Y82049D02*G75*G03X139605Y82048I4171J4171D01*G01*
X139605Y90392D02*G75*G03X131262Y90391I-4171J-4171D01*G01*
X129847Y80634D02*G75*G03X141020Y80633I5586J5586D01*G01*
X141020Y91807D02*G75*G03X129847Y91806I-5586J-5586D01*G01*
G54D42*X101576Y27952D02*Y27166D01*
X107086Y27952D02*Y27166D01*
X92916Y27952D02*Y27166D01*
X98426Y27952D02*Y27166D01*
G54D11*X113898Y48701D02*Y8701D01*
X123898D01*
Y48701D02*Y8701D01*
X113898Y48701D02*X123898D01*
X113898Y38701D02*X123898D01*
Y48701D02*Y38701D01*
X143032Y48701D02*Y8701D01*
X153032D01*
Y48701D02*Y8701D01*
X143032Y48701D02*X153032D01*
X143032Y38701D02*X153032D01*
Y48701D02*Y38701D01*
G54D42*X45089Y92136D02*X45875D01*
X45089Y86626D02*X45875D01*
G54D11*X12195Y39202D02*X23095Y47902D01*
X52995D01*
Y13302D01*
X23095D02*X52995D01*
X23095D02*X12195Y22002D01*
Y39202D02*Y22002D01*
G54D42*X45089Y78752D02*X45875D01*
X45089Y84262D02*X45875D01*
X39578Y59066D02*Y58280D01*
X45088Y59066D02*Y58280D01*
X45089Y119697D02*X45875D01*
X45089Y125207D02*X45875D01*
G54D11*X56982Y65560D02*X101666D01*
Y47254D01*
X56982D01*
Y65560D01*
G54D42*X59263Y125207D02*X60049D01*
X59263Y119697D02*X60049D01*
G54D11*X53868Y117850D02*Y68850D01*
X99868D01*
Y117850D02*Y68850D01*
X53868Y117850D02*X74368D01*
X79368D02*X99868D01*
X74368D02*G75*G03X79368Y117850I2500J0D01*G01*
G54D42*X45090Y111037D02*X45876D01*
X45090Y116547D02*X45876D01*
G54D13*X40695Y127988D02*X48695D01*
G54D11*X49795Y131388D01*
Y148988D02*Y131388D01*
X39595Y148988D02*X49795D01*
X39595D02*Y131388D01*
X40695Y127988D01*
G54D42*X46664Y59066D02*Y58280D01*
X52174Y59066D02*Y58280D01*
G54D11*X52766Y137925D02*X112766D01*
Y147925D02*Y137925D01*
X52766Y147925D02*X112766D01*
X52766D02*Y137925D01*
X62766Y147925D02*Y137925D01*
X52766Y147925D02*X62766D01*
G54D42*X135828Y120471D02*X136614D01*
X135828Y114961D02*X136614D01*
X135828Y128345D02*X136614D01*
X135828Y122835D02*X136614D01*
G54D41*X144094Y56874D02*X146094D01*
X146594Y56374D01*
Y55374D01*
X146094Y54874D02*X146594Y55374D01*
X144594Y54874D02*X146094D01*
X144594Y56874D02*Y52874D01*
Y54874D02*X146594Y52874D01*
X147795Y56874D02*X149795D01*
X147795D02*Y54874D01*
X148295Y55374D01*
X149295D01*
X149795Y54874D01*
Y53374D01*
X149295Y52874D02*X149795Y53374D01*
X148295Y52874D02*X149295D01*
X147795Y53374D02*X148295Y52874D01*
X133977Y32571D02*Y31071D01*
X134477Y33071D02*X133977Y32571D01*
X134477Y33071D02*X137477D01*
X137977Y32571D01*
Y31071D01*
X133977Y29870D02*X136477Y27370D01*
X137977D01*
Y29870D02*Y27370D01*
X126879Y32571D02*Y31071D01*
X127379Y33071D02*X126879Y32571D01*
X127379Y33071D02*X130379D01*
X130879Y32571D01*
Y31071D01*
Y28370D02*X130379Y27870D01*
X130879Y29370D02*Y28370D01*
X130379Y29870D02*X130879Y29370D01*
X127379Y29870D02*X130379D01*
X127379D02*X126879Y29370D01*
X128879Y28370D02*X128379Y27870D01*
X128879Y29870D02*Y28370D01*
X126879Y29370D02*Y28370D01*
X127379Y27870D01*
X128379D01*
X154032Y48201D02*Y46701D01*
X154532Y48701D02*X154032Y48201D01*
X154532Y48701D02*X157532D01*
X158032Y48201D01*
Y46701D01*
X154532Y45500D02*X157532D01*
X158032Y45000D01*
Y44000D01*
X157532Y43500D01*
X154532D02*X157532D01*
X154032Y44000D02*X154532Y43500D01*
X154032Y45000D02*Y44000D01*
X154532Y45500D02*X154032Y45000D01*
Y42299D02*X158032D01*
X157532D02*X158032D01*
X157532D02*X155032Y39799D01*
X154032D02*X158032D01*
X154032Y38598D02*X158032D01*
X157532D02*X158032D01*
X157532D02*X155032Y36098D01*
X154032D02*X158032D01*
X157532Y34897D02*X158032Y34397D01*
Y33397D01*
X157532Y32897D01*
X154532D02*X157532D01*
X154032Y33397D02*X154532Y32897D01*
X154032Y34397D02*Y33397D01*
X154532Y34897D02*X154032Y34397D01*
X156032D02*Y32897D01*
X97360Y132390D02*X98860D01*
X96860Y132890D02*X97360Y132390D01*
X96860Y135890D02*Y132890D01*
Y135890D02*X97360Y136390D01*
X98860D01*
X100061Y135890D02*Y132890D01*
Y135890D02*X100561Y136390D01*
X101561D01*
X102061Y135890D01*
Y132890D01*
X101561Y132390D02*X102061Y132890D01*
X100561Y132390D02*X101561D01*
X100061Y132890D02*X100561Y132390D01*
X103262Y136390D02*Y132390D01*
Y136390D02*Y135890D01*
X105762Y133390D01*
Y136390D02*Y132390D01*
X106963Y136390D02*Y132390D01*
Y136390D02*Y135890D01*
X109463Y133390D01*
Y136390D02*Y132390D01*
X111164D02*X112164D01*
X111664Y136390D02*Y132390D01*
X110664Y135390D02*X111664Y136390D01*
X94553Y123546D02*Y120046D01*
X95053Y119546D01*
X96053D01*
X96553Y120046D01*
Y123546D02*Y120046D01*
X98254Y119546D02*X99254D01*
X98754Y123546D02*Y119546D01*
X97754Y122546D02*X98754Y123546D01*
X148672Y72719D02*Y68719D01*
X150672D01*
X151873Y70719D02*X153373D01*
X151873Y68719D02*X153873D01*
X151873Y72719D02*Y68719D01*
Y72719D02*X153873D01*
X155574D02*Y68719D01*
X157074Y72719D02*X157574Y72219D01*
Y69219D01*
X157074Y68719D02*X157574Y69219D01*
X155074Y68719D02*X157074D01*
X155074Y72719D02*X157074D01*
X159275Y68719D02*X160275D01*
X159775Y72719D02*Y68719D01*
X158775Y71719D02*X159775Y72719D01*
X148584Y108929D02*Y104929D01*
X150584D01*
X151785Y106929D02*X153285D01*
X151785Y104929D02*X153785D01*
X151785Y108929D02*Y104929D01*
Y108929D02*X153785D01*
X155486D02*Y104929D01*
X156986Y108929D02*X157486Y108429D01*
Y105429D01*
X156986Y104929D02*X157486Y105429D01*
X154986Y104929D02*X156986D01*
X154986Y108929D02*X156986D01*
X158687Y108429D02*X159187Y108929D01*
X160187D01*
X160687Y108429D01*
Y105429D01*
X160187Y104929D02*X160687Y105429D01*
X159187Y104929D02*X160187D01*
X158687Y105429D02*X159187Y104929D01*
Y106929D02*X160687D01*
X148585Y90818D02*Y86818D01*
X150585D01*
X151786Y88818D02*X153286D01*
X151786Y86818D02*X153786D01*
X151786Y90818D02*Y86818D01*
Y90818D02*X153786D01*
X155487D02*Y86818D01*
X156987Y90818D02*X157487Y90318D01*
Y87318D01*
X156987Y86818D02*X157487Y87318D01*
X154987Y86818D02*X156987D01*
X154987Y90818D02*X156987D01*
X158688Y90318D02*X159188Y90818D01*
X160688D01*
X161188Y90318D01*
Y89318D01*
X158688Y86818D02*X161188Y89318D01*
X158688Y86818D02*X161188D01*
X144307Y116566D02*Y114566D01*
Y116566D02*X144807Y117066D01*
X145807D01*
X146307Y116566D02*X145807Y117066D01*
X146307Y116566D02*Y115066D01*
X144307D02*X148307D01*
X146307D02*X148307Y117066D01*
Y118267D02*X145807Y120767D01*
X144307D02*X145807D01*
X144307D02*Y118267D01*
Y125229D02*Y123229D01*
Y125229D02*X144807Y125729D01*
X145807D01*
X146307Y125229D02*X145807Y125729D01*
X146307Y125229D02*Y123729D01*
X144307D02*X148307D01*
X146307D02*X148307Y125729D01*
X144307Y128430D02*X144807Y128930D01*
X144307Y128430D02*Y127430D01*
X144807Y126930D02*X144307Y127430D01*
X144807Y126930D02*X147807D01*
X148307Y127430D01*
X146307Y128430D02*X146807Y128930D01*
X146307Y128430D02*Y126930D01*
X148307Y128430D02*Y127430D01*
Y128430D02*X147807Y128930D01*
X146807D02*X147807D01*
X105695Y20473D02*Y18473D01*
X105195Y17973D01*
X104195D02*X105195D01*
X103695Y18473D02*X104195Y17973D01*
X103695Y19973D02*Y18473D01*
X101695Y19973D02*X105695D01*
X103695D02*X101695Y17973D01*
X105195Y16772D02*X105695Y16272D01*
Y15272D01*
X105195Y14772D01*
X102195D02*X105195D01*
X101695Y15272D02*X102195Y14772D01*
X101695Y16272D02*Y15272D01*
X102195Y16772D02*X101695Y16272D01*
X103695D02*Y14772D01*
X97819Y20472D02*Y18472D01*
X97319Y17972D01*
X96319D02*X97319D01*
X95819Y18472D02*X96319Y17972D01*
X95819Y19972D02*Y18472D01*
X93819Y19972D02*X97819D01*
X95819D02*X93819Y17972D01*
X95819Y16771D02*X97819Y14771D01*
X95819Y16771D02*Y14271D01*
X93819Y14771D02*X97819D01*
X103439Y65548D02*Y65048D01*
X105939Y62548D01*
Y61548D01*
X103439Y62548D02*Y61548D01*
Y62548D02*X105939Y65048D01*
Y65548D02*Y65048D01*
X107640Y61548D02*X108640D01*
X108140Y65548D02*Y61548D01*
X107140Y64548D02*X108140Y65548D01*
X79231Y41545D02*X80731D01*
X78731Y42045D02*X79231Y41545D01*
X78731Y45045D02*Y42045D01*
Y45045D02*X79231Y45545D01*
X80731D01*
X81932Y43545D02*X83932Y45545D01*
X81932Y43545D02*X84432D01*
X83932Y45545D02*Y41545D01*
X108361Y48202D02*Y46702D01*
X108861Y48702D02*X108361Y48202D01*
X108861Y48702D02*X111861D01*
X112361Y48202D01*
Y46702D01*
X108861Y45501D02*X111861D01*
X112361Y45001D01*
Y44001D01*
X111861Y43501D01*
X108861D02*X111861D01*
X108361Y44001D02*X108861Y43501D01*
X108361Y45001D02*Y44001D01*
X108861Y45501D02*X108361Y45001D01*
Y42300D02*X112361D01*
X111861D02*X112361D01*
X111861D02*X109361Y39800D01*
X108361D02*X112361D01*
X108361Y38599D02*X112361D01*
X111861D02*X112361D01*
X111861D02*X109361Y36099D01*
X108361D02*X112361D01*
X111861Y34898D02*X112361Y34398D01*
Y32898D01*
X111861Y32398D01*
X110861D02*X111861D01*
X108361Y34898D02*X110861Y32398D01*
X108361Y34898D02*Y32398D01*
X56809Y41369D02*X58309D01*
X56309Y41869D02*X56809Y41369D01*
X56309Y44869D02*Y41869D01*
Y44869D02*X56809Y45369D01*
X58309D01*
X59510Y44869D02*X60010Y45369D01*
X61010D01*
X61510Y44869D01*
Y41869D01*
X61010Y41369D02*X61510Y41869D01*
X60010Y41369D02*X61010D01*
X59510Y41869D02*X60010Y41369D01*
Y43369D02*X61510D01*
X55514Y28079D02*X57014D01*
X55014Y28579D02*X55514Y28079D01*
X55014Y31579D02*Y28579D01*
Y31579D02*X55514Y32079D01*
X57014D01*
X58215Y28579D02*X58715Y28079D01*
X58215Y29579D02*Y28579D01*
Y29579D02*X58715Y30079D01*
X59715D01*
X60215Y29579D01*
Y28579D01*
X59715Y28079D02*X60215Y28579D01*
X58715Y28079D02*X59715D01*
X58215Y30579D02*X58715Y30079D01*
X58215Y31579D02*Y30579D01*
Y31579D02*X58715Y32079D01*
X59715D01*
X60215Y31579D01*
Y30579D01*
X59715Y30079D02*X60215Y30579D01*
X59368Y126114D02*X60868D01*
X58868Y126614D02*X59368Y126114D01*
X58868Y129614D02*Y126614D01*
Y129614D02*X59368Y130114D01*
X60868D01*
X62069Y129614D02*X62569Y130114D01*
X64069D01*
X64569Y129614D01*
Y128614D01*
X62069Y126114D02*X64569Y128614D01*
X62069Y126114D02*X64569D01*
X31808Y141327D02*Y137327D01*
X33308Y141327D02*X33808Y140827D01*
Y137827D01*
X33308Y137327D02*X33808Y137827D01*
X31308Y137327D02*X33308D01*
X31308Y141327D02*X33308D01*
X35509Y137327D02*X36509D01*
X36009Y141327D02*Y137327D01*
X35009Y140327D02*X36009Y141327D01*
X54896Y134849D02*Y132849D01*
X54396Y132349D01*
X53396D02*X54396D01*
X52896Y132849D02*X53396Y132349D01*
X52896Y134349D02*Y132849D01*
X50896Y134349D02*X54896D01*
X52896D02*X50896Y132349D01*
Y130648D02*Y129648D01*
Y130148D02*X54896D01*
X53896Y131148D02*X54896Y130148D01*
X46357Y105618D02*X47857D01*
X45857Y106118D02*X46357Y105618D01*
X45857Y109118D02*Y106118D01*
Y109118D02*X46357Y109618D01*
X47857D01*
X49558Y105618D02*X50558D01*
X50058Y109618D02*Y105618D01*
X49058Y108618D02*X50058Y109618D01*
X42332Y97043D02*X44332D01*
X44832Y96543D01*
Y95543D01*
X44332Y95043D02*X44832Y95543D01*
X42832Y95043D02*X44332D01*
X42832Y97043D02*Y93043D01*
Y95043D02*X44832Y93043D01*
X46033Y96543D02*X46533Y97043D01*
X48033D01*
X48533Y96543D01*
Y95543D01*
X46033Y93043D02*X48533Y95543D01*
X46033Y93043D02*X48533D01*
X45569Y73336D02*X47069D01*
X45069Y73836D02*X45569Y73336D01*
X45069Y76836D02*Y73836D01*
Y76836D02*X45569Y77336D01*
X47069D01*
X48270D02*X50270D01*
X48270D02*Y75336D01*
X48770Y75836D01*
X49770D01*
X50270Y75336D01*
Y73836D01*
X49770Y73336D02*X50270Y73836D01*
X48770Y73336D02*X49770D01*
X48270Y73836D02*X48770Y73336D01*
X39094Y65661D02*X40594D01*
X38594Y66161D02*X39094Y65661D01*
X38594Y69161D02*Y66161D01*
Y69161D02*X39094Y69661D01*
X40594D01*
X41795Y65661D02*X43795Y67661D01*
Y69161D02*Y67661D01*
X43295Y69661D02*X43795Y69161D01*
X42295Y69661D02*X43295D01*
X41795Y69161D02*X42295Y69661D01*
X41795Y69161D02*Y68161D01*
X42295Y67661D01*
X43795D01*
X46180Y65661D02*X47680D01*
X45680Y66161D02*X46180Y65661D01*
X45680Y69161D02*Y66161D01*
Y69161D02*X46180Y69661D01*
X47680D01*
X49381Y65661D02*X50381D01*
X49881Y69661D02*Y65661D01*
X48881Y68661D02*X49881Y69661D01*
X51582Y66161D02*X52082Y65661D01*
X51582Y69161D02*Y66161D01*
Y69161D02*X52082Y69661D01*
X53082D01*
X53582Y69161D01*
Y66161D01*
X53082Y65661D02*X53582Y66161D01*
X52082Y65661D02*X53082D01*
X51582Y66661D02*X53582Y68661D01*
M02*
