G04 start of page 11 for group -3984 idx -3984 *
G04 Title: (unknown), fab *
G04 Creator: pcb 20091103 *
G04 CreationDate: Tue 04 Jan 2011 15:16:32 GMT UTC *
G04 For: thomas *
G04 Format: Gerber/RS-274X *
G04 PCB-Dimensions: 285430 157480 *
G04 PCB-Coordinate-Origin: lower left *
%MOIN*%
%FSLAX25Y25*%
%LNFAB*%
%ADD11C,0.0100*%
%ADD60C,0.0060*%
%ADD63R,0.0080X0.0080*%
G54D63*X258243Y13973D02*X261443D01*
X258243D02*Y10773D01*
X261443D01*
Y13973D02*Y10773D01*
X256643Y15573D02*X263043D01*
X256643D02*Y9173D01*
X263043D01*
Y15573D02*Y9173D01*
X10211Y148619D02*X13411D01*
X10211D02*Y145419D01*
X13411D01*
Y148619D02*Y145419D01*
X8611Y150219D02*X15011D01*
X8611D02*Y143819D01*
X15011D01*
Y150219D02*Y143819D01*
X143282Y13973D02*X146482D01*
X143282D02*Y10773D01*
X146482D01*
Y13973D02*Y10773D01*
X141682Y15573D02*X148082D01*
X141682D02*Y9173D01*
X148082D01*
Y15573D02*Y9173D01*
X258243Y148619D02*X261443D01*
X258243D02*Y145419D01*
X261443D01*
Y148619D02*Y145419D01*
X256643Y150219D02*X263043D01*
X256643D02*Y143819D01*
X263043D01*
Y150219D02*Y143819D01*
X9424Y13973D02*X12624D01*
X9424D02*Y10773D01*
X12624D01*
Y13973D02*Y10773D01*
X7824Y15573D02*X14224D01*
X7824D02*Y9173D01*
X14224D01*
Y15573D02*Y9173D01*
X13400Y170330D02*X16600D01*
X13400D02*Y167130D01*
X16600D01*
Y170330D02*Y167130D01*
X11800Y171930D02*X18200D01*
X11800D02*Y165530D01*
X18200D01*
Y171930D02*Y165530D01*
G54D60*X135000Y170980D02*Y170230D01*
X136500Y168730D01*
X138000Y170230D01*
Y170980D02*Y170230D01*
X136500Y168730D02*Y164980D01*
X139801Y167980D02*X142051D01*
X139801Y164980D02*X142801D01*
X139801Y170980D02*Y164980D01*
Y170980D02*X142801D01*
X147603D02*X148353Y170230D01*
X145353Y170980D02*X147603D01*
X144603Y170230D02*X145353Y170980D01*
X144603Y170230D02*Y168730D01*
X145353Y167980D01*
X147603D01*
X148353Y167230D01*
Y165730D01*
X147603Y164980D02*X148353Y165730D01*
X145353Y164980D02*X147603D01*
X144603Y165730D02*X145353Y164980D01*
X135000Y161729D02*X150154D01*
X98000Y170980D02*X101000D01*
X98000D02*Y167980D01*
X98750Y168730D01*
X100250D01*
X101000Y167980D01*
Y165730D01*
X100250Y164980D02*X101000Y165730D01*
X98750Y164980D02*X100250D01*
X98000Y165730D02*X98750Y164980D01*
X98000Y161729D02*X102801D01*
X45000Y165730D02*X45750Y164980D01*
X45000Y170230D02*Y165730D01*
Y170230D02*X45750Y170980D01*
X47250D01*
X48000Y170230D01*
Y165730D01*
X47250Y164980D02*X48000Y165730D01*
X45750Y164980D02*X47250D01*
X45000Y166480D02*X48000Y169480D01*
X49801Y164980D02*X50551D01*
X53103D02*X54603D01*
X53853Y170980D02*Y164980D01*
X52353Y169480D02*X53853Y170980D01*
X56404D02*X59404D01*
X56404D02*Y167980D01*
X57154Y168730D01*
X58654D01*
X59404Y167980D01*
Y165730D01*
X58654Y164980D02*X59404Y165730D01*
X57154Y164980D02*X58654D01*
X56404Y165730D02*X57154Y164980D01*
X61206Y165730D02*X61956Y164980D01*
X61206Y167230D02*Y165730D01*
Y167230D02*X61956Y167980D01*
X63456D01*
X64206Y167230D01*
Y165730D01*
X63456Y164980D02*X64206Y165730D01*
X61956Y164980D02*X63456D01*
X61206Y168730D02*X61956Y167980D01*
X61206Y170230D02*Y168730D01*
Y170230D02*X61956Y170980D01*
X63456D01*
X64206Y170230D01*
Y168730D01*
X63456Y167980D02*X64206Y168730D01*
X45000Y161729D02*X66007D01*
X8649Y47807D02*G75*G03X10249Y47807I800J0D01*G01*
G75*G03X8649Y47807I-800J0D01*G01*
X7049D02*G75*G03X11849Y47807I2400J0D01*G01*
G75*G03X7049Y47807I-2400J0D01*G01*
X277153D02*G75*G03X278753Y47807I800J0D01*G01*
G75*G03X277153Y47807I-800J0D01*G01*
X275553D02*G75*G03X280353Y47807I2400J0D01*G01*
G75*G03X275553Y47807I-2400J0D01*G01*
X8649Y70641D02*G75*G03X10249Y70641I800J0D01*G01*
G75*G03X8649Y70641I-800J0D01*G01*
X7049D02*G75*G03X11849Y70641I2400J0D01*G01*
G75*G03X7049Y70641I-2400J0D01*G01*
X30696Y147019D02*G75*G03X32296Y147019I800J0D01*G01*
G75*G03X30696Y147019I-800J0D01*G01*
X29096D02*G75*G03X33896Y147019I2400J0D01*G01*
G75*G03X29096Y147019I-2400J0D01*G01*
X39358Y10011D02*G75*G03X40958Y10011I800J0D01*G01*
G75*G03X39358Y10011I-800J0D01*G01*
X37758D02*G75*G03X42558Y10011I2400J0D01*G01*
G75*G03X37758Y10011I-2400J0D01*G01*
X277153Y11586D02*G75*G03X278753Y11586I800J0D01*G01*
G75*G03X277153Y11586I-800J0D01*G01*
X275553D02*G75*G03X280353Y11586I2400J0D01*G01*
G75*G03X275553Y11586I-2400J0D01*G01*
X277153Y147019D02*G75*G03X278753Y147019I800J0D01*G01*
G75*G03X277153Y147019I-800J0D01*G01*
X275553D02*G75*G03X280353Y147019I2400J0D01*G01*
G75*G03X275553Y147019I-2400J0D01*G01*
X14200Y183730D02*G75*G03X15800Y183730I800J0D01*G01*
G75*G03X14200Y183730I-800J0D01*G01*
X12600D02*G75*G03X17400Y183730I2400J0D01*G01*
G75*G03X12600Y183730I-2400J0D01*G01*
X135000Y185980D02*Y185230D01*
X136500Y183730D01*
X138000Y185230D01*
Y185980D02*Y185230D01*
X136500Y183730D02*Y179980D01*
X139801Y182980D02*X142051D01*
X139801Y179980D02*X142801D01*
X139801Y185980D02*Y179980D01*
Y185980D02*X142801D01*
X147603D02*X148353Y185230D01*
X145353Y185980D02*X147603D01*
X144603Y185230D02*X145353Y185980D01*
X144603Y185230D02*Y183730D01*
X145353Y182980D01*
X147603D01*
X148353Y182230D01*
Y180730D01*
X147603Y179980D02*X148353Y180730D01*
X145353Y179980D02*X147603D01*
X144603Y180730D02*X145353Y179980D01*
X135000Y176729D02*X150154D01*
X98000Y179980D02*X101750Y183730D01*
Y185980D02*Y183730D01*
X98000Y185980D02*X101750D01*
X98000Y176729D02*X103551D01*
X45000Y180730D02*X45750Y179980D01*
X45000Y185230D02*Y180730D01*
Y185230D02*X45750Y185980D01*
X47250D01*
X48000Y185230D01*
Y180730D01*
X47250Y179980D02*X48000Y180730D01*
X45750Y179980D02*X47250D01*
X45000Y181480D02*X48000Y184480D01*
X49801Y179980D02*X50551D01*
X52353Y180730D02*X53103Y179980D01*
X52353Y185230D02*Y180730D01*
Y185230D02*X53103Y185980D01*
X54603D01*
X55353Y185230D01*
Y180730D01*
X54603Y179980D02*X55353Y180730D01*
X53103Y179980D02*X54603D01*
X52353Y181480D02*X55353Y184480D01*
X57154Y179980D02*X60154Y182980D01*
Y185230D02*Y182980D01*
X59404Y185980D02*X60154Y185230D01*
X57904Y185980D02*X59404D01*
X57154Y185230D02*X57904Y185980D01*
X57154Y185230D02*Y183730D01*
X57904Y182980D01*
X60154D01*
X61956Y180730D02*X62706Y179980D01*
X61956Y182230D02*Y180730D01*
Y182230D02*X62706Y182980D01*
X64206D01*
X64956Y182230D01*
Y180730D01*
X64206Y179980D02*X64956Y180730D01*
X62706Y179980D02*X64206D01*
X61956Y183730D02*X62706Y182980D01*
X61956Y185230D02*Y183730D01*
Y185230D02*X62706Y185980D01*
X64206D01*
X64956Y185230D01*
Y183730D01*
X64206Y182980D02*X64956Y183730D01*
X45000Y176729D02*X66757D01*
X129096Y153356D02*X133896Y148556D01*
X129096D02*X133896Y153356D01*
X129896Y152556D02*X133096D01*
X129896D02*Y149356D01*
X133096D01*
Y152556D02*Y149356D01*
X217285Y153356D02*X222085Y148556D01*
X217285D02*X222085Y153356D01*
X218085Y152556D02*X221285D01*
X218085D02*Y149356D01*
X221285D01*
Y152556D02*Y149356D01*
X12600Y201130D02*X17400Y196330D01*
X12600D02*X17400Y201130D01*
X13400Y200330D02*X16600D01*
X13400D02*Y197130D01*
X16600D01*
Y200330D02*Y197130D01*
X135000Y200980D02*Y200230D01*
X136500Y198730D01*
X138000Y200230D01*
Y200980D02*Y200230D01*
X136500Y198730D02*Y194980D01*
X139801Y197980D02*X142051D01*
X139801Y194980D02*X142801D01*
X139801Y200980D02*Y194980D01*
Y200980D02*X142801D01*
X147603D02*X148353Y200230D01*
X145353Y200980D02*X147603D01*
X144603Y200230D02*X145353Y200980D01*
X144603Y200230D02*Y198730D01*
X145353Y197980D01*
X147603D01*
X148353Y197230D01*
Y195730D01*
X147603Y194980D02*X148353Y195730D01*
X145353Y194980D02*X147603D01*
X144603Y195730D02*X145353Y194980D01*
X135000Y191729D02*X150154D01*
X98000Y200230D02*X98750Y200980D01*
X101000D01*
X101750Y200230D01*
Y198730D01*
X98000Y194980D02*X101750Y198730D01*
X98000Y194980D02*X101750D01*
X98000Y191729D02*X103551D01*
X45000Y195730D02*X45750Y194980D01*
X45000Y200230D02*Y195730D01*
Y200230D02*X45750Y200980D01*
X47250D01*
X48000Y200230D01*
Y195730D01*
X47250Y194980D02*X48000Y195730D01*
X45750Y194980D02*X47250D01*
X45000Y196480D02*X48000Y199480D01*
X49801Y194980D02*X50551D01*
X52353Y195730D02*X53103Y194980D01*
X52353Y200230D02*Y195730D01*
Y200230D02*X53103Y200980D01*
X54603D01*
X55353Y200230D01*
Y195730D01*
X54603Y194980D02*X55353Y195730D01*
X53103Y194980D02*X54603D01*
X52353Y196480D02*X55353Y199480D01*
X57154Y200980D02*X60154D01*
X57154D02*Y197980D01*
X57904Y198730D01*
X59404D01*
X60154Y197980D01*
Y195730D01*
X59404Y194980D02*X60154Y195730D01*
X57904Y194980D02*X59404D01*
X57154Y195730D02*X57904Y194980D01*
X61956D02*X64956Y197980D01*
Y200230D02*Y197980D01*
X64206Y200980D02*X64956Y200230D01*
X62706Y200980D02*X64206D01*
X61956Y200230D02*X62706Y200980D01*
X61956Y200230D02*Y198730D01*
X62706Y197980D01*
X64956D01*
X45000Y191729D02*X66757D01*
X172480Y25700D02*Y19300D01*
X169280Y22500D02*X175680D01*
X170880Y24100D02*X174080D01*
X170880D02*Y20900D01*
X174080D01*
Y24100D02*Y20900D01*
X172480Y51290D02*Y44890D01*
X169280Y48090D02*X175680D01*
X170880Y49690D02*X174080D01*
X170880D02*Y46490D01*
X174080D01*
Y49690D02*Y46490D01*
X154764Y25700D02*Y19300D01*
X151564Y22500D02*X157964D01*
X153164Y24100D02*X156364D01*
X153164D02*Y20900D01*
X156364D01*
Y24100D02*Y20900D01*
X154764Y51290D02*Y44890D01*
X151564Y48090D02*X157964D01*
X153164Y49690D02*X156364D01*
X153164D02*Y46490D01*
X156364D01*
Y49690D02*Y46490D01*
X244110Y25700D02*Y19300D01*
X240910Y22500D02*X247310D01*
X242510Y24100D02*X245710D01*
X242510D02*Y20900D01*
X245710D01*
Y24100D02*Y20900D01*
X244110Y51290D02*Y44890D01*
X240910Y48090D02*X247310D01*
X242510Y49690D02*X245710D01*
X242510D02*Y46490D01*
X245710D01*
Y49690D02*Y46490D01*
X226394Y25700D02*Y19300D01*
X223194Y22500D02*X229594D01*
X224794Y24100D02*X227994D01*
X224794D02*Y20900D01*
X227994D01*
Y24100D02*Y20900D01*
X226394Y51290D02*Y44890D01*
X223194Y48090D02*X229594D01*
X224794Y49690D02*X227994D01*
X224794D02*Y46490D01*
X227994D01*
Y49690D02*Y46490D01*
X213480Y25700D02*Y19300D01*
X210280Y22500D02*X216680D01*
X211880Y24100D02*X215080D01*
X211880D02*Y20900D01*
X215080D01*
Y24100D02*Y20900D01*
X213480Y51290D02*Y44890D01*
X210280Y48090D02*X216680D01*
X211880Y49690D02*X215080D01*
X211880D02*Y46490D01*
X215080D01*
Y49690D02*Y46490D01*
X195764Y25700D02*Y19300D01*
X192564Y22500D02*X198964D01*
X194164Y24100D02*X197364D01*
X194164D02*Y20900D01*
X197364D01*
Y24100D02*Y20900D01*
X195764Y51290D02*Y44890D01*
X192564Y48090D02*X198964D01*
X194164Y49690D02*X197364D01*
X194164D02*Y46490D01*
X197364D01*
Y49690D02*Y46490D01*
X15000Y216930D02*Y210530D01*
X11800Y213730D02*X18200D01*
X13400Y215330D02*X16600D01*
X13400D02*Y212130D01*
X16600D01*
Y215330D02*Y212130D01*
X135000Y215980D02*Y215230D01*
X136500Y213730D01*
X138000Y215230D01*
Y215980D02*Y215230D01*
X136500Y213730D02*Y209980D01*
X139801Y212980D02*X142051D01*
X139801Y209980D02*X142801D01*
X139801Y215980D02*Y209980D01*
Y215980D02*X142801D01*
X147603D02*X148353Y215230D01*
X145353Y215980D02*X147603D01*
X144603Y215230D02*X145353Y215980D01*
X144603Y215230D02*Y213730D01*
X145353Y212980D01*
X147603D01*
X148353Y212230D01*
Y210730D01*
X147603Y209980D02*X148353Y210730D01*
X145353Y209980D02*X147603D01*
X144603Y210730D02*X145353Y209980D01*
X135000Y206729D02*X150154D01*
X98750Y209980D02*X100250D01*
X99500Y215980D02*Y209980D01*
X98000Y214480D02*X99500Y215980D01*
X102051Y215230D02*X102801Y215980D01*
X105051D01*
X105801Y215230D01*
Y213730D01*
X102051Y209980D02*X105801Y213730D01*
X102051Y209980D02*X105801D01*
X98000Y206729D02*X107603D01*
X45000Y210730D02*X45750Y209980D01*
X45000Y215230D02*Y210730D01*
Y215230D02*X45750Y215980D01*
X47250D01*
X48000Y215230D01*
Y210730D01*
X47250Y209980D02*X48000Y210730D01*
X45750Y209980D02*X47250D01*
X45000Y211480D02*X48000Y214480D01*
X49801Y209980D02*X50551D01*
X52353Y210730D02*X53103Y209980D01*
X52353Y215230D02*Y210730D01*
Y215230D02*X53103Y215980D01*
X54603D01*
X55353Y215230D01*
Y210730D01*
X54603Y209980D02*X55353Y210730D01*
X53103Y209980D02*X54603D01*
X52353Y211480D02*X55353Y214480D01*
X57154Y215230D02*X57904Y215980D01*
X59404D01*
X60154Y215230D01*
Y210730D01*
X59404Y209980D02*X60154Y210730D01*
X57904Y209980D02*X59404D01*
X57154Y210730D02*X57904Y209980D01*
Y212980D02*X60154D01*
X61956Y209980D02*X64956Y212980D01*
Y215230D02*Y212980D01*
X64206Y215980D02*X64956Y215230D01*
X62706Y215980D02*X64206D01*
X61956Y215230D02*X62706Y215980D01*
X61956Y215230D02*Y213730D01*
X62706Y212980D01*
X64956D01*
X45000Y206729D02*X66757D01*
X176764Y136090D02*Y132890D01*
Y136090D02*X179537Y137690D01*
X176764Y136090D02*X173991Y137690D01*
X175164Y136090D02*G75*G03X178364Y136090I1600J0D01*G01*
G75*G03X175164Y136090I-1600J0D01*G01*
X176764Y126090D02*Y122890D01*
Y126090D02*X179537Y127690D01*
X176764Y126090D02*X173991Y127690D01*
X175164Y126090D02*G75*G03X178364Y126090I1600J0D01*G01*
G75*G03X175164Y126090I-1600J0D01*G01*
X30968Y115090D02*Y111890D01*
Y115090D02*X33741Y116690D01*
X30968Y115090D02*X28195Y116690D01*
X29368Y115090D02*G75*G03X32568Y115090I1600J0D01*G01*
G75*G03X29368Y115090I-1600J0D01*G01*
X30968Y125090D02*Y121890D01*
Y125090D02*X33741Y126690D01*
X30968Y125090D02*X28195Y126690D01*
X29368Y125090D02*G75*G03X32568Y125090I1600J0D01*G01*
G75*G03X29368Y125090I-1600J0D01*G01*
X30968Y135090D02*Y131890D01*
Y135090D02*X33741Y136690D01*
X30968Y135090D02*X28195Y136690D01*
X29368Y135090D02*G75*G03X32568Y135090I1600J0D01*G01*
G75*G03X29368Y135090I-1600J0D01*G01*
X24968Y61090D02*Y57890D01*
Y61090D02*X27741Y62690D01*
X24968Y61090D02*X22195Y62690D01*
X23368Y61090D02*G75*G03X26568Y61090I1600J0D01*G01*
G75*G03X23368Y61090I-1600J0D01*G01*
X34968D02*Y57890D01*
Y61090D02*X37741Y62690D01*
X34968Y61090D02*X32195Y62690D01*
X33368Y61090D02*G75*G03X36568Y61090I1600J0D01*G01*
G75*G03X33368Y61090I-1600J0D01*G01*
X44968D02*Y57890D01*
Y61090D02*X47741Y62690D01*
X44968Y61090D02*X42195Y62690D01*
X43368Y61090D02*G75*G03X46568Y61090I1600J0D01*G01*
G75*G03X43368Y61090I-1600J0D01*G01*
X54968D02*Y57890D01*
Y61090D02*X57741Y62690D01*
X54968Y61090D02*X52195Y62690D01*
X53368Y61090D02*G75*G03X56568Y61090I1600J0D01*G01*
G75*G03X53368Y61090I-1600J0D01*G01*
X64968D02*Y57890D01*
Y61090D02*X67741Y62690D01*
X64968Y61090D02*X62195Y62690D01*
X63368Y61090D02*G75*G03X66568Y61090I1600J0D01*G01*
G75*G03X63368Y61090I-1600J0D01*G01*
X24968Y43090D02*Y39890D01*
Y43090D02*X27741Y44690D01*
X24968Y43090D02*X22195Y44690D01*
X23368Y43090D02*G75*G03X26568Y43090I1600J0D01*G01*
G75*G03X23368Y43090I-1600J0D01*G01*
X24968Y33090D02*Y29890D01*
Y33090D02*X27741Y34690D01*
X24968Y33090D02*X22195Y34690D01*
X23368Y33090D02*G75*G03X26568Y33090I1600J0D01*G01*
G75*G03X23368Y33090I-1600J0D01*G01*
X24968Y23090D02*Y19890D01*
Y23090D02*X27741Y24690D01*
X24968Y23090D02*X22195Y24690D01*
X23368Y23090D02*G75*G03X26568Y23090I1600J0D01*G01*
G75*G03X23368Y23090I-1600J0D01*G01*
X62968Y85090D02*Y81890D01*
Y85090D02*X65741Y86690D01*
X62968Y85090D02*X60195Y86690D01*
X61368Y85090D02*G75*G03X64568Y85090I1600J0D01*G01*
G75*G03X61368Y85090I-1600J0D01*G01*
X52968D02*Y81890D01*
Y85090D02*X55741Y86690D01*
X52968Y85090D02*X50195Y86690D01*
X51368Y85090D02*G75*G03X54568Y85090I1600J0D01*G01*
G75*G03X51368Y85090I-1600J0D01*G01*
X42968D02*Y81890D01*
Y85090D02*X45741Y86690D01*
X42968Y85090D02*X40195Y86690D01*
X41368Y85090D02*G75*G03X44568Y85090I1600J0D01*G01*
G75*G03X41368Y85090I-1600J0D01*G01*
X260764Y103090D02*Y99890D01*
Y103090D02*X263537Y104690D01*
X260764Y103090D02*X257991Y104690D01*
X259164Y103090D02*G75*G03X262364Y103090I1600J0D01*G01*
G75*G03X259164Y103090I-1600J0D01*G01*
X260764Y93090D02*Y89890D01*
Y93090D02*X263537Y94690D01*
X260764Y93090D02*X257991Y94690D01*
X259164Y93090D02*G75*G03X262364Y93090I1600J0D01*G01*
G75*G03X259164Y93090I-1600J0D01*G01*
X260764Y83090D02*Y79890D01*
Y83090D02*X263537Y84690D01*
X260764Y83090D02*X257991Y84690D01*
X259164Y83090D02*G75*G03X262364Y83090I1600J0D01*G01*
G75*G03X259164Y83090I-1600J0D01*G01*
X244764Y59090D02*Y55890D01*
Y59090D02*X247537Y60690D01*
X244764Y59090D02*X241991Y60690D01*
X243164Y59090D02*G75*G03X246364Y59090I1600J0D01*G01*
G75*G03X243164Y59090I-1600J0D01*G01*
X234764D02*Y55890D01*
Y59090D02*X237537Y60690D01*
X234764Y59090D02*X231991Y60690D01*
X233164Y59090D02*G75*G03X236364Y59090I1600J0D01*G01*
G75*G03X233164Y59090I-1600J0D01*G01*
X224764D02*Y55890D01*
Y59090D02*X227537Y60690D01*
X224764Y59090D02*X221991Y60690D01*
X223164Y59090D02*G75*G03X226364Y59090I1600J0D01*G01*
G75*G03X223164Y59090I-1600J0D01*G01*
X214764D02*Y55890D01*
Y59090D02*X217537Y60690D01*
X214764Y59090D02*X211991Y60690D01*
X213164Y59090D02*G75*G03X216364Y59090I1600J0D01*G01*
G75*G03X213164Y59090I-1600J0D01*G01*
X204764D02*Y55890D01*
Y59090D02*X207537Y60690D01*
X204764Y59090D02*X201991Y60690D01*
X203164Y59090D02*G75*G03X206364Y59090I1600J0D01*G01*
G75*G03X203164Y59090I-1600J0D01*G01*
X260764Y37590D02*Y34390D01*
Y37590D02*X263537Y39190D01*
X260764Y37590D02*X257991Y39190D01*
X259164Y37590D02*G75*G03X262364Y37590I1600J0D01*G01*
G75*G03X259164Y37590I-1600J0D01*G01*
X260764Y27590D02*Y24390D01*
Y27590D02*X263537Y29190D01*
X260764Y27590D02*X257991Y29190D01*
X259164Y27590D02*G75*G03X262364Y27590I1600J0D01*G01*
G75*G03X259164Y27590I-1600J0D01*G01*
X260764Y49090D02*Y45890D01*
Y49090D02*X263537Y50690D01*
X260764Y49090D02*X257991Y50690D01*
X259164Y49090D02*G75*G03X262364Y49090I1600J0D01*G01*
G75*G03X259164Y49090I-1600J0D01*G01*
X260764Y59090D02*Y55890D01*
Y59090D02*X263537Y60690D01*
X260764Y59090D02*X257991Y60690D01*
X259164Y59090D02*G75*G03X262364Y59090I1600J0D01*G01*
G75*G03X259164Y59090I-1600J0D01*G01*
X260764Y69090D02*Y65890D01*
Y69090D02*X263537Y70690D01*
X260764Y69090D02*X257991Y70690D01*
X259164Y69090D02*G75*G03X262364Y69090I1600J0D01*G01*
G75*G03X259164Y69090I-1600J0D01*G01*
X273764Y103090D02*Y99890D01*
Y103090D02*X276537Y104690D01*
X273764Y103090D02*X270991Y104690D01*
X272164Y103090D02*G75*G03X275364Y103090I1600J0D01*G01*
G75*G03X272164Y103090I-1600J0D01*G01*
X273764Y93090D02*Y89890D01*
Y93090D02*X276537Y94690D01*
X273764Y93090D02*X270991Y94690D01*
X272164Y93090D02*G75*G03X275364Y93090I1600J0D01*G01*
G75*G03X272164Y93090I-1600J0D01*G01*
X273764Y83090D02*Y79890D01*
Y83090D02*X276537Y84690D01*
X273764Y83090D02*X270991Y84690D01*
X272164Y83090D02*G75*G03X275364Y83090I1600J0D01*G01*
G75*G03X272164Y83090I-1600J0D01*G01*
X273764Y73090D02*Y69890D01*
Y73090D02*X276537Y74690D01*
X273764Y73090D02*X270991Y74690D01*
X272164Y73090D02*G75*G03X275364Y73090I1600J0D01*G01*
G75*G03X272164Y73090I-1600J0D01*G01*
X144764Y137090D02*Y133890D01*
Y137090D02*X147537Y138690D01*
X144764Y137090D02*X141991Y138690D01*
X143164Y137090D02*G75*G03X146364Y137090I1600J0D01*G01*
G75*G03X143164Y137090I-1600J0D01*G01*
X134764D02*Y133890D01*
Y137090D02*X137537Y138690D01*
X134764Y137090D02*X131991Y138690D01*
X133164Y137090D02*G75*G03X136364Y137090I1600J0D01*G01*
G75*G03X133164Y137090I-1600J0D01*G01*
X124764D02*Y133890D01*
Y137090D02*X127537Y138690D01*
X124764Y137090D02*X121991Y138690D01*
X123164Y137090D02*G75*G03X126364Y137090I1600J0D01*G01*
G75*G03X123164Y137090I-1600J0D01*G01*
X114764D02*Y133890D01*
Y137090D02*X117537Y138690D01*
X114764Y137090D02*X111991Y138690D01*
X113164Y137090D02*G75*G03X116364Y137090I1600J0D01*G01*
G75*G03X113164Y137090I-1600J0D01*G01*
X15000Y228730D02*Y225530D01*
Y228730D02*X17773Y230330D01*
X15000Y228730D02*X12227Y230330D01*
X13400Y228730D02*G75*G03X16600Y228730I1600J0D01*G01*
G75*G03X13400Y228730I-1600J0D01*G01*
X135000Y230980D02*Y230230D01*
X136500Y228730D01*
X138000Y230230D01*
Y230980D02*Y230230D01*
X136500Y228730D02*Y224980D01*
X139801Y227980D02*X142051D01*
X139801Y224980D02*X142801D01*
X139801Y230980D02*Y224980D01*
Y230980D02*X142801D01*
X147603D02*X148353Y230230D01*
X145353Y230980D02*X147603D01*
X144603Y230230D02*X145353Y230980D01*
X144603Y230230D02*Y228730D01*
X145353Y227980D01*
X147603D01*
X148353Y227230D01*
Y225730D01*
X147603Y224980D02*X148353Y225730D01*
X145353Y224980D02*X147603D01*
X144603Y225730D02*X145353Y224980D01*
X135000Y221729D02*X150154D01*
X98000Y230230D02*X98750Y230980D01*
X100250D01*
X101000Y230230D01*
Y225730D01*
X100250Y224980D02*X101000Y225730D01*
X98750Y224980D02*X100250D01*
X98000Y225730D02*X98750Y224980D01*
Y227980D02*X101000D01*
X102801Y224980D02*X106551Y228730D01*
Y230980D02*Y228730D01*
X102801Y230980D02*X106551D01*
X98000Y221729D02*X108353D01*
X45000Y225730D02*X45750Y224980D01*
X45000Y230230D02*Y225730D01*
Y230230D02*X45750Y230980D01*
X47250D01*
X48000Y230230D01*
Y225730D01*
X47250Y224980D02*X48000Y225730D01*
X45750Y224980D02*X47250D01*
X45000Y226480D02*X48000Y229480D01*
X49801Y224980D02*X50551D01*
X52353Y225730D02*X53103Y224980D01*
X52353Y230230D02*Y225730D01*
Y230230D02*X53103Y230980D01*
X54603D01*
X55353Y230230D01*
Y225730D01*
X54603Y224980D02*X55353Y225730D01*
X53103Y224980D02*X54603D01*
X52353Y226480D02*X55353Y229480D01*
X57154Y230230D02*X57904Y230980D01*
X59404D01*
X60154Y230230D01*
Y225730D01*
X59404Y224980D02*X60154Y225730D01*
X57904Y224980D02*X59404D01*
X57154Y225730D02*X57904Y224980D01*
Y227980D02*X60154D01*
X61956Y225730D02*X62706Y224980D01*
X61956Y227230D02*Y225730D01*
Y227230D02*X62706Y227980D01*
X64206D01*
X64956Y227230D01*
Y225730D01*
X64206Y224980D02*X64956Y225730D01*
X62706Y224980D02*X64206D01*
X61956Y228730D02*X62706Y227980D01*
X61956Y230230D02*Y228730D01*
Y230230D02*X62706Y230980D01*
X64206D01*
X64956Y230230D01*
Y228730D01*
X64206Y227980D02*X64956Y228730D01*
X45000Y221729D02*X66757D01*
X197164Y125690D02*X200364D01*
X197164D02*Y122490D01*
X200364D01*
Y125690D02*Y122490D01*
X202165Y117031D02*X205365D01*
X202165D02*Y113831D01*
X205365D01*
Y117031D02*Y113831D01*
X13400Y245330D02*X16600D01*
X13400D02*Y242130D01*
X16600D01*
Y245330D02*Y242130D01*
X135000Y245980D02*Y245230D01*
X136500Y243730D01*
X138000Y245230D01*
Y245980D02*Y245230D01*
X136500Y243730D02*Y239980D01*
X139801Y242980D02*X142051D01*
X139801Y239980D02*X142801D01*
X139801Y245980D02*Y239980D01*
Y245980D02*X142801D01*
X147603D02*X148353Y245230D01*
X145353Y245980D02*X147603D01*
X144603Y245230D02*X145353Y245980D01*
X144603Y245230D02*Y243730D01*
X145353Y242980D01*
X147603D01*
X148353Y242230D01*
Y240730D01*
X147603Y239980D02*X148353Y240730D01*
X145353Y239980D02*X147603D01*
X144603Y240730D02*X145353Y239980D01*
X135000Y236729D02*X150154D01*
X98000Y245230D02*X98750Y245980D01*
X101000D01*
X101750Y245230D01*
Y243730D01*
X98000Y239980D02*X101750Y243730D01*
X98000Y239980D02*X101750D01*
X98000Y236729D02*X103551D01*
X45000Y240730D02*X45750Y239980D01*
X45000Y245230D02*Y240730D01*
Y245230D02*X45750Y245980D01*
X47250D01*
X48000Y245230D01*
Y240730D01*
X47250Y239980D02*X48000Y240730D01*
X45750Y239980D02*X47250D01*
X45000Y241480D02*X48000Y244480D01*
X49801Y239980D02*X50551D01*
X52353Y240730D02*X53103Y239980D01*
X52353Y245230D02*Y240730D01*
Y245230D02*X53103Y245980D01*
X54603D01*
X55353Y245230D01*
Y240730D01*
X54603Y239980D02*X55353Y240730D01*
X53103Y239980D02*X54603D01*
X52353Y241480D02*X55353Y244480D01*
X57154Y245230D02*X57904Y245980D01*
X59404D01*
X60154Y245230D01*
Y240730D01*
X59404Y239980D02*X60154Y240730D01*
X57904Y239980D02*X59404D01*
X57154Y240730D02*X57904Y239980D01*
Y242980D02*X60154D01*
X61956Y240730D02*X62706Y239980D01*
X61956Y245230D02*Y240730D01*
Y245230D02*X62706Y245980D01*
X64206D01*
X64956Y245230D01*
Y240730D01*
X64206Y239980D02*X64956Y240730D01*
X62706Y239980D02*X64206D01*
X61956Y241480D02*X64956Y244480D01*
X45000Y236729D02*X66757D01*
X152192Y35295D02*G75*G03X153792Y35295I800J0D01*G01*
G75*G03X152192Y35295I-800J0D01*G01*
X173452D02*G75*G03X175052Y35295I800J0D01*G01*
G75*G03X173452Y35295I-800J0D01*G01*
X223822D02*G75*G03X225422Y35295I800J0D01*G01*
G75*G03X223822Y35295I-800J0D01*G01*
X245082D02*G75*G03X246682Y35295I800J0D01*G01*
G75*G03X245082Y35295I-800J0D01*G01*
X193192D02*G75*G03X194792Y35295I800J0D01*G01*
G75*G03X193192Y35295I-800J0D01*G01*
X214452D02*G75*G03X216052Y35295I800J0D01*G01*
G75*G03X214452Y35295I-800J0D01*G01*
X213096Y110184D02*G75*G03X214696Y110184I800J0D01*G01*
G75*G03X213096Y110184I-800J0D01*G01*
X221549Y92058D02*G75*G03X223149Y92058I800J0D01*G01*
G75*G03X221549Y92058I-800J0D01*G01*
X14200Y258730D02*G75*G03X15800Y258730I800J0D01*G01*
G75*G03X14200Y258730I-800J0D01*G01*
X135000Y260980D02*Y260230D01*
X136500Y258730D01*
X138000Y260230D01*
Y260980D02*Y260230D01*
X136500Y258730D02*Y254980D01*
X139801Y257980D02*X142051D01*
X139801Y254980D02*X142801D01*
X139801Y260980D02*Y254980D01*
Y260980D02*X142801D01*
X147603D02*X148353Y260230D01*
X145353Y260980D02*X147603D01*
X144603Y260230D02*X145353Y260980D01*
X144603Y260230D02*Y258730D01*
X145353Y257980D01*
X147603D01*
X148353Y257230D01*
Y255730D01*
X147603Y254980D02*X148353Y255730D01*
X145353Y254980D02*X147603D01*
X144603Y255730D02*X145353Y254980D01*
X135000Y251729D02*X150154D01*
X98000Y255730D02*X98750Y254980D01*
X98000Y257230D02*Y255730D01*
Y257230D02*X98750Y257980D01*
X100250D01*
X101000Y257230D01*
Y255730D01*
X100250Y254980D02*X101000Y255730D01*
X98750Y254980D02*X100250D01*
X98000Y258730D02*X98750Y257980D01*
X98000Y260230D02*Y258730D01*
Y260230D02*X98750Y260980D01*
X100250D01*
X101000Y260230D01*
Y258730D01*
X100250Y257980D02*X101000Y258730D01*
X98000Y251729D02*X102801D01*
X45000Y255730D02*X45750Y254980D01*
X45000Y260230D02*Y255730D01*
Y260230D02*X45750Y260980D01*
X47250D01*
X48000Y260230D01*
Y255730D01*
X47250Y254980D02*X48000Y255730D01*
X45750Y254980D02*X47250D01*
X45000Y256480D02*X48000Y259480D01*
X49801Y254980D02*X50551D01*
X52353Y255730D02*X53103Y254980D01*
X52353Y260230D02*Y255730D01*
Y260230D02*X53103Y260980D01*
X54603D01*
X55353Y260230D01*
Y255730D01*
X54603Y254980D02*X55353Y255730D01*
X53103Y254980D02*X54603D01*
X52353Y256480D02*X55353Y259480D01*
X57154Y260230D02*X57904Y260980D01*
X60154D01*
X60904Y260230D01*
Y258730D01*
X57154Y254980D02*X60904Y258730D01*
X57154Y254980D02*X60904D01*
X62706Y255730D02*X63456Y254980D01*
X62706Y257230D02*Y255730D01*
Y257230D02*X63456Y257980D01*
X64956D01*
X65706Y257230D01*
Y255730D01*
X64956Y254980D02*X65706Y255730D01*
X63456Y254980D02*X64956D01*
X62706Y258730D02*X63456Y257980D01*
X62706Y260230D02*Y258730D01*
Y260230D02*X63456Y260980D01*
X64956D01*
X65706Y260230D01*
Y258730D01*
X64956Y257980D02*X65706Y258730D01*
X45000Y251729D02*X67507D01*
X97768Y33290D02*X100168Y30890D01*
X97768D02*X100168Y33290D01*
X39768Y35290D02*X42168Y32890D01*
X39768D02*X42168Y35290D01*
X52768Y47290D02*X55168Y44890D01*
X52768D02*X55168Y47290D01*
X71768Y30290D02*X74168Y27890D01*
X71768D02*X74168Y30290D01*
X170300Y56180D02*X172700Y53780D01*
X170300D02*X172700Y56180D01*
X127564Y58290D02*X129964Y55890D01*
X127564D02*X129964Y58290D01*
X90564Y33290D02*X92964Y30890D01*
X90564D02*X92964Y33290D01*
X209564Y44290D02*X211964Y41890D01*
X209564D02*X211964Y44290D01*
X202300Y44180D02*X204700Y41780D01*
X202300D02*X204700Y44180D01*
X160300Y147180D02*X162700Y144780D01*
X160300D02*X162700Y147180D01*
X244564Y44290D02*X246964Y41890D01*
X244564D02*X246964Y44290D01*
X96564Y52290D02*X98964Y49890D01*
X96564D02*X98964Y52290D01*
X85564Y33290D02*X87964Y30890D01*
X85564D02*X87964Y33290D01*
X85564Y18290D02*X87964Y15890D01*
X85564D02*X87964Y18290D01*
X268564Y44290D02*X270964Y41890D01*
X268564D02*X270964Y44290D01*
X266564Y128290D02*X268964Y125890D01*
X266564D02*X268964Y128290D01*
X156281Y15148D02*X158681Y12748D01*
X156281D02*X158681Y15148D01*
X102980Y48290D02*X105380Y45890D01*
X102980D02*X105380Y48290D01*
X13800Y274930D02*X16200Y272530D01*
X13800D02*X16200Y274930D01*
X135000Y275980D02*Y275230D01*
X136500Y273730D01*
X138000Y275230D01*
Y275980D02*Y275230D01*
X136500Y273730D02*Y269980D01*
X139801Y272980D02*X142051D01*
X139801Y269980D02*X142801D01*
X139801Y275980D02*Y269980D01*
Y275980D02*X142801D01*
X147603D02*X148353Y275230D01*
X145353Y275980D02*X147603D01*
X144603Y275230D02*X145353Y275980D01*
X144603Y275230D02*Y273730D01*
X145353Y272980D01*
X147603D01*
X148353Y272230D01*
Y270730D01*
X147603Y269980D02*X148353Y270730D01*
X145353Y269980D02*X147603D01*
X144603Y270730D02*X145353Y269980D01*
X135000Y266729D02*X150154D01*
X98750Y269980D02*X100250D01*
X99500Y275980D02*Y269980D01*
X98000Y274480D02*X99500Y275980D01*
X102051Y270730D02*X102801Y269980D01*
X102051Y272230D02*Y270730D01*
Y272230D02*X102801Y272980D01*
X104301D01*
X105051Y272230D01*
Y270730D01*
X104301Y269980D02*X105051Y270730D01*
X102801Y269980D02*X104301D01*
X102051Y273730D02*X102801Y272980D01*
X102051Y275230D02*Y273730D01*
Y275230D02*X102801Y275980D01*
X104301D01*
X105051Y275230D01*
Y273730D01*
X104301Y272980D02*X105051Y273730D01*
X98000Y266729D02*X106853D01*
X45000Y270730D02*X45750Y269980D01*
X45000Y275230D02*Y270730D01*
Y275230D02*X45750Y275980D01*
X47250D01*
X48000Y275230D01*
Y270730D01*
X47250Y269980D02*X48000Y270730D01*
X45750Y269980D02*X47250D01*
X45000Y271480D02*X48000Y274480D01*
X49801Y269980D02*X50551D01*
X52353Y270730D02*X53103Y269980D01*
X52353Y275230D02*Y270730D01*
Y275230D02*X53103Y275980D01*
X54603D01*
X55353Y275230D01*
Y270730D01*
X54603Y269980D02*X55353Y270730D01*
X53103Y269980D02*X54603D01*
X52353Y271480D02*X55353Y274480D01*
X57154Y275230D02*X57904Y275980D01*
X60154D01*
X60904Y275230D01*
Y273730D01*
X57154Y269980D02*X60904Y273730D01*
X57154Y269980D02*X60904D01*
X62706Y275980D02*X65706D01*
X62706D02*Y272980D01*
X63456Y273730D01*
X64956D01*
X65706Y272980D01*
Y270730D01*
X64956Y269980D02*X65706Y270730D01*
X63456Y269980D02*X64956D01*
X62706Y270730D02*X63456Y269980D01*
X45000Y266729D02*X67507D01*
X36968Y76690D02*Y73490D01*
X35368Y75090D02*X38568D01*
X85500Y89080D02*Y85880D01*
X83900Y87480D02*X87100D01*
X49968Y126690D02*Y123490D01*
X48368Y125090D02*X51568D01*
X122968Y111690D02*Y108490D01*
X121368Y110090D02*X124568D01*
X109968Y107690D02*Y104490D01*
X108368Y106090D02*X111568D01*
X68968Y113690D02*Y110490D01*
X67368Y112090D02*X70568D01*
X114968Y118690D02*Y115490D01*
X113368Y117090D02*X116568D01*
X61968Y124690D02*Y121490D01*
X60368Y123090D02*X63568D01*
X37968Y115690D02*Y112490D01*
X36368Y114090D02*X39568D01*
X53968Y122690D02*Y119490D01*
X52368Y121090D02*X55568D01*
X73130Y129528D02*Y126328D01*
X71530Y127928D02*X74730D01*
X23968Y107690D02*Y104490D01*
X22368Y106090D02*X25568D01*
X83968Y134690D02*Y131490D01*
X82368Y133090D02*X85568D01*
X73968Y140690D02*Y137490D01*
X72368Y139090D02*X75568D01*
X66968Y93690D02*Y90490D01*
X65368Y92090D02*X68568D01*
X99968Y107690D02*Y104490D01*
X98368Y106090D02*X101568D01*
X104968Y107690D02*Y104490D01*
X103368Y106090D02*X106568D01*
X122968Y60690D02*Y57490D01*
X121368Y59090D02*X124568D01*
X57968Y104690D02*Y101490D01*
X56368Y103090D02*X59568D01*
X138968Y76690D02*Y73490D01*
X137368Y75090D02*X140568D01*
X87968Y72690D02*Y69490D01*
X86368Y71090D02*X89568D01*
X54968Y115690D02*Y112490D01*
X53368Y114090D02*X56568D01*
X122968Y90690D02*Y87490D01*
X121368Y89090D02*X124568D01*
X34968Y130690D02*Y127490D01*
X33368Y129090D02*X36568D01*
X75968Y137690D02*Y134490D01*
X74368Y136090D02*X77568D01*
X92968Y136690D02*Y133490D01*
X91368Y135090D02*X94568D01*
X90952Y57674D02*Y54474D01*
X89352Y56074D02*X92552D01*
X110968Y120690D02*Y117490D01*
X109368Y119090D02*X112568D01*
X86968Y125690D02*Y122490D01*
X85368Y124090D02*X88568D01*
X124968Y123690D02*Y120490D01*
X123368Y122090D02*X126568D01*
X118968Y93690D02*Y90490D01*
X117368Y92090D02*X120568D01*
X95968Y74690D02*Y71490D01*
X94368Y73090D02*X97568D01*
X103968Y74690D02*Y71490D01*
X102368Y73090D02*X105568D01*
X71968Y69690D02*Y66490D01*
X70368Y68090D02*X73568D01*
X81968Y69690D02*Y66490D01*
X80368Y68090D02*X83568D01*
X108968Y69690D02*Y66490D01*
X107368Y68090D02*X110568D01*
X134968Y72690D02*Y69490D01*
X133368Y71090D02*X136568D01*
X159764Y97690D02*Y94490D01*
X158164Y96090D02*X161364D01*
X134968Y84690D02*Y81490D01*
X133368Y83090D02*X136568D01*
X134968Y78690D02*Y75490D01*
X133368Y77090D02*X136568D01*
X72968Y116690D02*Y113490D01*
X71368Y115090D02*X74568D01*
X115968Y69690D02*Y66490D01*
X114368Y68090D02*X117568D01*
X22968Y89690D02*Y86490D01*
X21368Y88090D02*X24568D01*
X17968Y89690D02*Y86490D01*
X16368Y88090D02*X19568D01*
X70968Y51690D02*Y48490D01*
X69368Y50090D02*X72568D01*
X71968Y44690D02*Y41490D01*
X70368Y43090D02*X73568D01*
X154764Y136690D02*Y133490D01*
X153164Y135090D02*X156364D01*
X98968Y71690D02*Y68490D01*
X97368Y70090D02*X100568D01*
X138968Y82690D02*Y79490D01*
X137368Y81090D02*X140568D01*
X162764Y94690D02*Y91490D01*
X161164Y93090D02*X164364D01*
X159764Y91690D02*Y88490D01*
X158164Y90090D02*X161364D01*
X139764Y61690D02*Y58490D01*
X138164Y60090D02*X141364D01*
X162000Y88080D02*Y84880D01*
X160400Y86480D02*X163600D01*
X106764Y53690D02*Y50490D01*
X105164Y52090D02*X108364D01*
X168764Y71690D02*Y68490D01*
X167164Y70090D02*X170364D01*
X160764Y81690D02*Y78490D01*
X159164Y80090D02*X162364D01*
X165764Y78690D02*Y75490D01*
X164164Y77090D02*X167364D01*
X142764Y54690D02*Y51490D01*
X141164Y53090D02*X144364D01*
X258764Y119690D02*Y116490D01*
X257164Y118090D02*X260364D01*
X189000Y68580D02*Y65380D01*
X187400Y66980D02*X190600D01*
X183764Y52690D02*Y49490D01*
X182164Y51090D02*X185364D01*
X160764Y46690D02*Y43490D01*
X159164Y45090D02*X162364D01*
X182764Y68690D02*Y65490D01*
X181164Y67090D02*X184364D01*
X176764Y45690D02*Y42490D01*
X175164Y44090D02*X178364D01*
X206764Y38690D02*Y35490D01*
X205164Y37090D02*X208364D01*
X236764Y39690D02*Y36490D01*
X235164Y38090D02*X238364D01*
X152764Y32690D02*Y29490D01*
X151164Y31090D02*X154364D01*
X141764Y31690D02*Y28490D01*
X140164Y30090D02*X143364D01*
X124764Y31690D02*Y28490D01*
X123164Y30090D02*X126364D01*
X133764Y38690D02*Y35490D01*
X132164Y37090D02*X135364D01*
X149764Y47690D02*Y44490D01*
X148164Y46090D02*X151364D01*
X116764Y31690D02*Y28490D01*
X115164Y30090D02*X118364D01*
X162764Y25690D02*Y22490D01*
X161164Y24090D02*X164364D01*
X204764Y25690D02*Y22490D01*
X203164Y24090D02*X206364D01*
X232764Y44690D02*Y41490D01*
X231164Y43090D02*X234364D01*
X147000Y133580D02*Y130380D01*
X145400Y131980D02*X148600D01*
X118764Y46690D02*Y43490D01*
X117164Y45090D02*X120364D01*
X227764Y70690D02*Y67490D01*
X226164Y69090D02*X229364D01*
X214272Y70198D02*Y66998D01*
X212672Y68598D02*X215872D01*
X246764Y70690D02*Y67490D01*
X245164Y69090D02*X248364D01*
X264764Y65690D02*Y62490D01*
X263164Y64090D02*X266364D01*
X230764Y82690D02*Y79490D01*
X229164Y81090D02*X232364D01*
X241764Y93690D02*Y90490D01*
X240164Y92090D02*X243364D01*
X255764Y89690D02*Y86490D01*
X254164Y88090D02*X257364D01*
X240764Y85690D02*Y82490D01*
X239164Y84090D02*X242364D01*
X193000Y71080D02*Y67880D01*
X191400Y69480D02*X194600D01*
X176764Y106690D02*Y103490D01*
X175164Y105090D02*X178364D01*
X180764Y106690D02*Y103490D01*
X179164Y105090D02*X182364D01*
X198764Y91690D02*Y88490D01*
X197164Y90090D02*X200364D01*
X254764Y97690D02*Y94490D01*
X253164Y96090D02*X256364D01*
X214764Y79690D02*Y76490D01*
X213164Y78090D02*X216364D01*
X224764Y105690D02*Y102490D01*
X223164Y104090D02*X226364D01*
X234764Y106690D02*Y103490D01*
X233164Y105090D02*X236364D01*
X230764Y111690D02*Y108490D01*
X229164Y110090D02*X232364D01*
X105764Y26690D02*Y23490D01*
X104164Y25090D02*X107364D01*
X183500Y84580D02*Y81380D01*
X181900Y82980D02*X185100D01*
X235764Y97690D02*Y94490D01*
X234164Y96090D02*X237364D01*
X185323Y93249D02*Y90049D01*
X183723Y91649D02*X186923D01*
X245764Y115690D02*Y112490D01*
X244164Y114090D02*X247364D01*
X220764Y107690D02*Y104490D01*
X219164Y106090D02*X222364D01*
X247764Y95690D02*Y92490D01*
X246164Y94090D02*X249364D01*
X216764Y103690D02*Y100490D01*
X215164Y102090D02*X218364D01*
X201764Y106690D02*Y103490D01*
X200164Y105090D02*X203364D01*
X197764Y82690D02*Y79490D01*
X196164Y81090D02*X199364D01*
X209323Y132249D02*Y129049D01*
X207723Y130649D02*X210923D01*
X242764Y121690D02*Y118490D01*
X241164Y120090D02*X244364D01*
X242764Y126690D02*Y123490D01*
X241164Y125090D02*X244364D01*
X236764Y131690D02*Y128490D01*
X235164Y130090D02*X238364D01*
X182764Y118690D02*Y115490D01*
X181164Y117090D02*X184364D01*
X186764Y120690D02*Y117490D01*
X185164Y119090D02*X188364D01*
X190764Y118690D02*Y115490D01*
X189164Y117090D02*X192364D01*
X137764Y115690D02*Y112490D01*
X136164Y114090D02*X139364D01*
X148764Y107690D02*Y104490D01*
X147164Y106090D02*X150364D01*
X129764Y123690D02*Y120490D01*
X128164Y122090D02*X131364D01*
X159764Y103690D02*Y100490D01*
X158164Y102090D02*X161364D01*
X189764Y129690D02*Y126490D01*
X188164Y128090D02*X191364D01*
X237000Y26080D02*Y22880D01*
X235400Y24480D02*X238600D01*
X182764Y128690D02*Y125490D01*
X181164Y127090D02*X184364D01*
X150764Y112690D02*Y109490D01*
X149164Y111090D02*X152364D01*
X241500Y134080D02*Y130880D01*
X239900Y132480D02*X243100D01*
X154764Y123690D02*Y120490D01*
X153164Y122090D02*X156364D01*
X164764Y123690D02*Y120490D01*
X163164Y122090D02*X166364D01*
X182764Y136690D02*Y133490D01*
X181164Y135090D02*X184364D01*
X169764Y40690D02*Y37490D01*
X168164Y39090D02*X171364D01*
X154764Y40690D02*Y37490D01*
X153164Y39090D02*X156364D01*
X162764Y100690D02*Y97490D01*
X161164Y99090D02*X164364D01*
X163764Y131690D02*Y128490D01*
X162164Y130090D02*X165364D01*
X97764Y131690D02*Y128490D01*
X96164Y130090D02*X99364D01*
X107764Y15690D02*Y12490D01*
X106164Y14090D02*X109364D01*
X98764Y15690D02*Y12490D01*
X97164Y14090D02*X100364D01*
X102764Y131690D02*Y128490D01*
X101164Y130090D02*X104364D01*
X114764Y21690D02*Y18490D01*
X113164Y20090D02*X116364D01*
X180000Y50580D02*Y47380D01*
X178400Y48980D02*X181600D01*
X129000Y108580D02*Y105380D01*
X127400Y106980D02*X130600D01*
X116536Y15548D02*Y12348D01*
X114936Y13948D02*X118136D01*
X244095Y141533D02*Y138333D01*
X242495Y139933D02*X245695D01*
X248032Y141533D02*Y138333D01*
X246432Y139933D02*X249632D01*
X269292Y137596D02*Y134396D01*
X267692Y135996D02*X270892D01*
X265355Y134446D02*Y131246D01*
X263755Y132846D02*X266955D01*
X106500Y82580D02*Y79380D01*
X104900Y80980D02*X108100D01*
X174500Y68580D02*Y65380D01*
X172900Y66980D02*X176100D01*
X188500Y79080D02*Y75880D01*
X186900Y77480D02*X190100D01*
X183000Y73580D02*Y70380D01*
X181400Y71980D02*X184600D01*
X170000Y79080D02*Y75880D01*
X168400Y77480D02*X171600D01*
X220000Y57580D02*Y54380D01*
X218400Y55980D02*X221600D01*
X195000Y135580D02*Y132380D01*
X193400Y133980D02*X196600D01*
X144500Y72080D02*Y68880D01*
X142900Y70480D02*X146100D01*
X170000Y84580D02*Y81380D01*
X168400Y82980D02*X171600D01*
X15000Y290330D02*Y287130D01*
X13400Y288730D02*X16600D01*
X135000Y290980D02*Y290230D01*
X136500Y288730D01*
X138000Y290230D01*
Y290980D02*Y290230D01*
X136500Y288730D02*Y284980D01*
X139801Y287980D02*X142051D01*
X139801Y284980D02*X142801D01*
X139801Y290980D02*Y284980D01*
Y290980D02*X142801D01*
X147603D02*X148353Y290230D01*
X145353Y290980D02*X147603D01*
X144603Y290230D02*X145353Y290980D01*
X144603Y290230D02*Y288730D01*
X145353Y287980D01*
X147603D01*
X148353Y287230D01*
Y285730D01*
X147603Y284980D02*X148353Y285730D01*
X145353Y284980D02*X147603D01*
X144603Y285730D02*X145353Y284980D01*
X135000Y281729D02*X150154D01*
X98750Y284980D02*X100250D01*
X99500Y290980D02*Y284980D01*
X98000Y289480D02*X99500Y290980D01*
X102051Y287980D02*X105051Y290980D01*
X102051Y287980D02*X105801D01*
X105051Y290980D02*Y284980D01*
X107603Y285730D02*X108353Y284980D01*
X107603Y287230D02*Y285730D01*
Y287230D02*X108353Y287980D01*
X109853D01*
X110603Y287230D01*
Y285730D01*
X109853Y284980D02*X110603Y285730D01*
X108353Y284980D02*X109853D01*
X107603Y288730D02*X108353Y287980D01*
X107603Y290230D02*Y288730D01*
Y290230D02*X108353Y290980D01*
X109853D01*
X110603Y290230D01*
Y288730D01*
X109853Y287980D02*X110603Y288730D01*
X98000Y281729D02*X112404D01*
X45000Y285730D02*X45750Y284980D01*
X45000Y290230D02*Y285730D01*
Y290230D02*X45750Y290980D01*
X47250D01*
X48000Y290230D01*
Y285730D01*
X47250Y284980D02*X48000Y285730D01*
X45750Y284980D02*X47250D01*
X45000Y286480D02*X48000Y289480D01*
X49801Y284980D02*X50551D01*
X52353Y285730D02*X53103Y284980D01*
X52353Y290230D02*Y285730D01*
Y290230D02*X53103Y290980D01*
X54603D01*
X55353Y290230D01*
Y285730D01*
X54603Y284980D02*X55353Y285730D01*
X53103Y284980D02*X54603D01*
X52353Y286480D02*X55353Y289480D01*
X57154Y290230D02*X57904Y290980D01*
X60154D01*
X60904Y290230D01*
Y288730D01*
X57154Y284980D02*X60904Y288730D01*
X57154Y284980D02*X60904D01*
X62706Y285730D02*X63456Y284980D01*
X62706Y290230D02*Y285730D01*
Y290230D02*X63456Y290980D01*
X64956D01*
X65706Y290230D01*
Y285730D01*
X64956Y284980D02*X65706Y285730D01*
X63456Y284980D02*X64956D01*
X62706Y286480D02*X65706Y289480D01*
X45000Y281729D02*X67507D01*
X64000Y25480D02*Y23880D01*
Y25480D02*X65386Y26280D01*
X64000Y25480D02*X62614Y26280D01*
X64000Y40980D02*Y39380D01*
Y40980D02*X65386Y41780D01*
X64000Y40980D02*X62614Y41780D01*
X64000Y20480D02*Y18880D01*
Y20480D02*X65386Y21280D01*
X64000Y20480D02*X62614Y21280D01*
X62500Y36480D02*Y34880D01*
Y36480D02*X63886Y37280D01*
X62500Y36480D02*X61114Y37280D01*
X64000Y31980D02*Y30380D01*
Y31980D02*X65386Y32780D01*
X64000Y31980D02*X62614Y32780D01*
X62500Y39480D02*Y37880D01*
Y39480D02*X63886Y40280D01*
X62500Y39480D02*X61114Y40280D01*
X64000Y34980D02*Y33380D01*
Y34980D02*X65386Y35780D01*
X64000Y34980D02*X62614Y35780D01*
X64000Y37980D02*Y36380D01*
Y37980D02*X65386Y38780D01*
X64000Y37980D02*X62614Y38780D01*
X62500Y33480D02*Y31880D01*
Y33480D02*X63886Y34280D01*
X62500Y33480D02*X61114Y34280D01*
X15000Y303730D02*Y302130D01*
Y303730D02*X16386Y304530D01*
X15000Y303730D02*X13614Y304530D01*
X135000Y305980D02*Y305230D01*
X136500Y303730D01*
X138000Y305230D01*
Y305980D02*Y305230D01*
X136500Y303730D02*Y299980D01*
X139801Y302980D02*X142051D01*
X139801Y299980D02*X142801D01*
X139801Y305980D02*Y299980D01*
Y305980D02*X142801D01*
X147603D02*X148353Y305230D01*
X145353Y305980D02*X147603D01*
X144603Y305230D02*X145353Y305980D01*
X144603Y305230D02*Y303730D01*
X145353Y302980D01*
X147603D01*
X148353Y302230D01*
Y300730D01*
X147603Y299980D02*X148353Y300730D01*
X145353Y299980D02*X147603D01*
X144603Y300730D02*X145353Y299980D01*
X135000Y296729D02*X150154D01*
X98000Y299980D02*X101000Y302980D01*
Y305230D02*Y302980D01*
X100250Y305980D02*X101000Y305230D01*
X98750Y305980D02*X100250D01*
X98000Y305230D02*X98750Y305980D01*
X98000Y305230D02*Y303730D01*
X98750Y302980D01*
X101000D01*
X98000Y296729D02*X102801D01*
X45000Y300730D02*X45750Y299980D01*
X45000Y305230D02*Y300730D01*
Y305230D02*X45750Y305980D01*
X47250D01*
X48000Y305230D01*
Y300730D01*
X47250Y299980D02*X48000Y300730D01*
X45750Y299980D02*X47250D01*
X45000Y301480D02*X48000Y304480D01*
X49801Y299980D02*X50551D01*
X52353Y300730D02*X53103Y299980D01*
X52353Y305230D02*Y300730D01*
Y305230D02*X53103Y305980D01*
X54603D01*
X55353Y305230D01*
Y300730D01*
X54603Y299980D02*X55353Y300730D01*
X53103Y299980D02*X54603D01*
X52353Y301480D02*X55353Y304480D01*
X57904Y299980D02*X59404D01*
X58654Y305980D02*Y299980D01*
X57154Y304480D02*X58654Y305980D01*
X61206Y305230D02*X61956Y305980D01*
X64206D01*
X64956Y305230D01*
Y303730D01*
X61206Y299980D02*X64956Y303730D01*
X61206Y299980D02*X64956D01*
X45000Y296729D02*X66757D01*
X3000Y320980D02*X3750Y320230D01*
X750Y320980D02*X3000D01*
X0Y320230D02*X750Y320980D01*
X0Y320230D02*Y318730D01*
X750Y317980D01*
X3000D01*
X3750Y317230D01*
Y315730D01*
X3000Y314980D02*X3750Y315730D01*
X750Y314980D02*X3000D01*
X0Y315730D02*X750Y314980D01*
X5551Y317980D02*Y315730D01*
X6301Y314980D01*
X8551Y317980D02*Y313480D01*
X7801Y312730D02*X8551Y313480D01*
X6301Y312730D02*X7801D01*
X5551Y313480D02*X6301Y312730D01*
Y314980D02*X7801D01*
X8551Y315730D01*
X11103Y317230D02*Y314980D01*
Y317230D02*X11853Y317980D01*
X12603D01*
X13353Y317230D01*
Y314980D01*
Y317230D02*X14103Y317980D01*
X14853D01*
X15603Y317230D01*
Y314980D01*
X10353Y317980D02*X11103Y317230D01*
X17404Y320980D02*Y314980D01*
Y315730D02*X18154Y314980D01*
X19654D01*
X20404Y315730D01*
Y317230D02*Y315730D01*
X19654Y317980D02*X20404Y317230D01*
X18154Y317980D02*X19654D01*
X17404Y317230D02*X18154Y317980D01*
X22206Y317230D02*Y315730D01*
Y317230D02*X22956Y317980D01*
X24456D01*
X25206Y317230D01*
Y315730D01*
X24456Y314980D02*X25206Y315730D01*
X22956Y314980D02*X24456D01*
X22206Y315730D02*X22956Y314980D01*
X27007Y320980D02*Y315730D01*
X27757Y314980D01*
X41750Y320980D02*Y314980D01*
X44000Y320980D02*X44750Y320230D01*
Y315730D01*
X44000Y314980D02*X44750Y315730D01*
X41000Y314980D02*X44000D01*
X41000Y320980D02*X44000D01*
X46551Y319480D02*Y318730D01*
Y317230D02*Y314980D01*
X50303Y317980D02*X51053Y317230D01*
X48803Y317980D02*X50303D01*
X48053Y317230D02*X48803Y317980D01*
X48053Y317230D02*Y315730D01*
X48803Y314980D01*
X51053Y317980D02*Y315730D01*
X51803Y314980D01*
X48803D02*X50303D01*
X51053Y315730D01*
X54354Y317230D02*Y314980D01*
Y317230D02*X55104Y317980D01*
X55854D01*
X56604Y317230D01*
Y314980D01*
Y317230D02*X57354Y317980D01*
X58104D01*
X58854Y317230D01*
Y314980D01*
X53604Y317980D02*X54354Y317230D01*
X60656Y314980D02*X61406D01*
X65907Y315730D02*X66657Y314980D01*
X65907Y320230D02*X66657Y320980D01*
X65907Y320230D02*Y315730D01*
X68459Y320980D02*X69959D01*
X69209D02*Y314980D01*
X68459D02*X69959D01*
X72510Y317230D02*Y314980D01*
Y317230D02*X73260Y317980D01*
X74010D01*
X74760Y317230D01*
Y314980D01*
X71760Y317980D02*X72510Y317230D01*
X77312Y317980D02*X79562D01*
X76562Y317230D02*X77312Y317980D01*
X76562Y317230D02*Y315730D01*
X77312Y314980D01*
X79562D01*
X81363Y320980D02*Y314980D01*
Y317230D02*X82113Y317980D01*
X83613D01*
X84363Y317230D01*
Y314980D01*
X86165Y320980D02*X86915Y320230D01*
Y315730D01*
X86165Y314980D02*X86915Y315730D01*
X95750Y314980D02*X98000D01*
X95000Y315730D02*X95750Y314980D01*
X95000Y320230D02*Y315730D01*
Y320230D02*X95750Y320980D01*
X98000D01*
X99801Y317230D02*Y315730D01*
Y317230D02*X100551Y317980D01*
X102051D01*
X102801Y317230D01*
Y315730D01*
X102051Y314980D02*X102801Y315730D01*
X100551Y314980D02*X102051D01*
X99801Y315730D02*X100551Y314980D01*
X104603Y317980D02*Y315730D01*
X105353Y314980D01*
X106853D01*
X107603Y315730D01*
Y317980D02*Y315730D01*
X110154Y317230D02*Y314980D01*
Y317230D02*X110904Y317980D01*
X111654D01*
X112404Y317230D01*
Y314980D01*
X109404Y317980D02*X110154Y317230D01*
X114956Y320980D02*Y315730D01*
X115706Y314980D01*
X114206Y318730D02*X115706D01*
X130750Y320980D02*Y314980D01*
X130000Y320980D02*X133000D01*
X133750Y320230D01*
Y318730D01*
X133000Y317980D02*X133750Y318730D01*
X130750Y317980D02*X133000D01*
X135551Y320980D02*Y315730D01*
X136301Y314980D01*
X140053Y317980D02*X140803Y317230D01*
X138553Y317980D02*X140053D01*
X137803Y317230D02*X138553Y317980D01*
X137803Y317230D02*Y315730D01*
X138553Y314980D01*
X140803Y317980D02*Y315730D01*
X141553Y314980D01*
X138553D02*X140053D01*
X140803Y315730D01*
X144104Y320980D02*Y315730D01*
X144854Y314980D01*
X143354Y318730D02*X144854D01*
X147106Y314980D02*X149356D01*
X146356Y315730D02*X147106Y314980D01*
X146356Y317230D02*Y315730D01*
Y317230D02*X147106Y317980D01*
X148606D01*
X149356Y317230D01*
X146356Y316480D02*X149356D01*
Y317230D02*Y316480D01*
X154157Y320980D02*Y314980D01*
X153407D02*X154157Y315730D01*
X151907Y314980D02*X153407D01*
X151157Y315730D02*X151907Y314980D01*
X151157Y317230D02*Y315730D01*
Y317230D02*X151907Y317980D01*
X153407D01*
X154157Y317230D01*
X157459Y317980D02*Y317230D01*
Y315730D02*Y314980D01*
X155959Y320230D02*Y319480D01*
Y320230D02*X156709Y320980D01*
X158209D01*
X158959Y320230D01*
Y319480D01*
X157459Y317980D02*X158959Y319480D01*
X0Y335980D02*X3000D01*
X1500D02*Y329980D01*
X4801Y335980D02*Y329980D01*
Y332230D02*X5551Y332980D01*
X7051D01*
X7801Y332230D01*
Y329980D01*
X10353D02*X12603D01*
X9603Y330730D02*X10353Y329980D01*
X9603Y332230D02*Y330730D01*
Y332230D02*X10353Y332980D01*
X11853D01*
X12603Y332230D01*
X9603Y331480D02*X12603D01*
Y332230D02*Y331480D01*
X15154Y332230D02*Y329980D01*
Y332230D02*X15904Y332980D01*
X17404D01*
X14404D02*X15154Y332230D01*
X19956Y329980D02*X22206D01*
X19206Y330730D02*X19956Y329980D01*
X19206Y332230D02*Y330730D01*
Y332230D02*X19956Y332980D01*
X21456D01*
X22206Y332230D01*
X19206Y331480D02*X22206D01*
Y332230D02*Y331480D01*
X28957Y332980D02*X29707Y332230D01*
X27457Y332980D02*X28957D01*
X26707Y332230D02*X27457Y332980D01*
X26707Y332230D02*Y330730D01*
X27457Y329980D01*
X29707Y332980D02*Y330730D01*
X30457Y329980D01*
X27457D02*X28957D01*
X29707Y330730D01*
X33009Y332230D02*Y329980D01*
Y332230D02*X33759Y332980D01*
X35259D01*
X32259D02*X33009Y332230D01*
X37810Y329980D02*X40060D01*
X37060Y330730D02*X37810Y329980D01*
X37060Y332230D02*Y330730D01*
Y332230D02*X37810Y332980D01*
X39310D01*
X40060Y332230D01*
X37060Y331480D02*X40060D01*
Y332230D02*Y331480D01*
X45312Y329980D02*X46812D01*
X46062Y335980D02*Y329980D01*
X44562Y334480D02*X46062Y335980D01*
X48613Y330730D02*X49363Y329980D01*
X48613Y335230D02*Y330730D01*
Y335230D02*X49363Y335980D01*
X50863D01*
X51613Y335230D01*
Y330730D01*
X50863Y329980D02*X51613Y330730D01*
X49363Y329980D02*X50863D01*
X48613Y331480D02*X51613Y334480D01*
X59115Y335980D02*Y329980D01*
X58365D02*X59115Y330730D01*
X56865Y329980D02*X58365D01*
X56115Y330730D02*X56865Y329980D01*
X56115Y332230D02*Y330730D01*
Y332230D02*X56865Y332980D01*
X58365D01*
X59115Y332230D01*
X60916Y334480D02*Y333730D01*
Y332230D02*Y329980D01*
X63168Y335230D02*Y329980D01*
Y335230D02*X63918Y335980D01*
X64668D01*
X62418Y332980D02*X63918D01*
X66919Y335230D02*Y329980D01*
Y335230D02*X67669Y335980D01*
X68419D01*
X66169Y332980D02*X67669D01*
X70671Y329980D02*X72921D01*
X69921Y330730D02*X70671Y329980D01*
X69921Y332230D02*Y330730D01*
Y332230D02*X70671Y332980D01*
X72171D01*
X72921Y332230D01*
X69921Y331480D02*X72921D01*
Y332230D02*Y331480D01*
X75472Y332230D02*Y329980D01*
Y332230D02*X76222Y332980D01*
X77722D01*
X74722D02*X75472Y332230D01*
X80274Y329980D02*X82524D01*
X79524Y330730D02*X80274Y329980D01*
X79524Y332230D02*Y330730D01*
Y332230D02*X80274Y332980D01*
X81774D01*
X82524Y332230D01*
X79524Y331480D02*X82524D01*
Y332230D02*Y331480D01*
X85075Y332230D02*Y329980D01*
Y332230D02*X85825Y332980D01*
X86575D01*
X87325Y332230D01*
Y329980D01*
X84325Y332980D02*X85075Y332230D01*
X89877Y335980D02*Y330730D01*
X90627Y329980D01*
X89127Y333730D02*X90627D01*
X97828Y335980D02*Y329980D01*
X97078D02*X97828Y330730D01*
X95578Y329980D02*X97078D01*
X94828Y330730D02*X95578Y329980D01*
X94828Y332230D02*Y330730D01*
Y332230D02*X95578Y332980D01*
X97078D01*
X97828Y332230D01*
X100380D02*Y329980D01*
Y332230D02*X101130Y332980D01*
X102630D01*
X99630D02*X100380Y332230D01*
X104431Y334480D02*Y333730D01*
Y332230D02*Y329980D01*
X105933Y335980D02*Y330730D01*
X106683Y329980D01*
X108184Y335980D02*Y330730D01*
X108934Y329980D01*
X113886D02*X116136D01*
X116886Y330730D01*
X116136Y331480D02*X116886Y330730D01*
X113886Y331480D02*X116136D01*
X113136Y332230D02*X113886Y331480D01*
X113136Y332230D02*X113886Y332980D01*
X116136D01*
X116886Y332230D01*
X113136Y330730D02*X113886Y329980D01*
X118687Y334480D02*Y333730D01*
Y332230D02*Y329980D01*
X120189Y332980D02*X123189D01*
X120189Y329980D02*X123189Y332980D01*
X120189Y329980D02*X123189D01*
X125740D02*X127990D01*
X124990Y330730D02*X125740Y329980D01*
X124990Y332230D02*Y330730D01*
Y332230D02*X125740Y332980D01*
X127240D01*
X127990Y332230D01*
X124990Y331480D02*X127990D01*
Y332230D02*Y331480D01*
X130542Y329980D02*X132792D01*
X133542Y330730D01*
X132792Y331480D02*X133542Y330730D01*
X130542Y331480D02*X132792D01*
X129792Y332230D02*X130542Y331480D01*
X129792Y332230D02*X130542Y332980D01*
X132792D01*
X133542Y332230D01*
X129792Y330730D02*X130542Y329980D01*
X138043Y332980D02*Y330730D01*
X138793Y329980D01*
X140293D01*
X141043Y330730D01*
Y332980D02*Y330730D01*
X143595Y329980D02*X145845D01*
X146595Y330730D01*
X145845Y331480D02*X146595Y330730D01*
X143595Y331480D02*X145845D01*
X142845Y332230D02*X143595Y331480D01*
X142845Y332230D02*X143595Y332980D01*
X145845D01*
X146595Y332230D01*
X142845Y330730D02*X143595Y329980D01*
X149146D02*X151396D01*
X148396Y330730D02*X149146Y329980D01*
X148396Y332230D02*Y330730D01*
Y332230D02*X149146Y332980D01*
X150646D01*
X151396Y332230D01*
X148396Y331480D02*X151396D01*
Y332230D02*Y331480D01*
X156198Y335980D02*Y329980D01*
X155448D02*X156198Y330730D01*
X153948Y329980D02*X155448D01*
X153198Y330730D02*X153948Y329980D01*
X153198Y332230D02*Y330730D01*
Y332230D02*X153948Y332980D01*
X155448D01*
X156198Y332230D01*
X160699Y334480D02*Y333730D01*
Y332230D02*Y329980D01*
X162951Y332230D02*Y329980D01*
Y332230D02*X163701Y332980D01*
X164451D01*
X165201Y332230D01*
Y329980D01*
X162201Y332980D02*X162951Y332230D01*
X170452Y335980D02*Y330730D01*
X171202Y329980D01*
X169702Y333730D02*X171202D01*
X172704Y335980D02*Y329980D01*
Y332230D02*X173454Y332980D01*
X174954D01*
X175704Y332230D01*
Y329980D01*
X177505Y334480D02*Y333730D01*
Y332230D02*Y329980D01*
X179757D02*X182007D01*
X182757Y330730D01*
X182007Y331480D02*X182757Y330730D01*
X179757Y331480D02*X182007D01*
X179007Y332230D02*X179757Y331480D01*
X179007Y332230D02*X179757Y332980D01*
X182007D01*
X182757Y332230D01*
X179007Y330730D02*X179757Y329980D01*
X187258Y335980D02*Y330730D01*
X188008Y329980D01*
X191760Y332980D02*X192510Y332230D01*
X190260Y332980D02*X191760D01*
X189510Y332230D02*X190260Y332980D01*
X189510Y332230D02*Y330730D01*
X190260Y329980D01*
X192510Y332980D02*Y330730D01*
X193260Y329980D01*
X190260D02*X191760D01*
X192510Y330730D01*
X195061Y332980D02*Y330730D01*
X195811Y329980D01*
X198061Y332980D02*Y328480D01*
X197311Y327730D02*X198061Y328480D01*
X195811Y327730D02*X197311D01*
X195061Y328480D02*X195811Y327730D01*
Y329980D02*X197311D01*
X198061Y330730D01*
X199863Y332230D02*Y330730D01*
Y332230D02*X200613Y332980D01*
X202113D01*
X202863Y332230D01*
Y330730D01*
X202113Y329980D02*X202863Y330730D01*
X200613Y329980D02*X202113D01*
X199863Y330730D02*X200613Y329980D01*
X204664Y332980D02*Y330730D01*
X205414Y329980D01*
X206914D01*
X207664Y330730D01*
Y332980D02*Y330730D01*
X210216Y335980D02*Y330730D01*
X210966Y329980D01*
X209466Y333730D02*X210966D01*
X212467Y328480D02*X213967Y329980D01*
X218469Y335230D02*X219219Y335980D01*
X221469D01*
X222219Y335230D01*
Y333730D01*
X218469Y329980D02*X222219Y333730D01*
X218469Y329980D02*X222219D01*
X224020Y332980D02*X227020Y335980D01*
X224020Y332980D02*X227770D01*
X227020Y335980D02*Y329980D01*
X229572Y330730D02*X230322Y329980D01*
X229572Y332230D02*Y330730D01*
Y332230D02*X230322Y332980D01*
X231822D01*
X232572Y332230D01*
Y330730D01*
X231822Y329980D02*X232572Y330730D01*
X230322Y329980D02*X231822D01*
X229572Y333730D02*X230322Y332980D01*
X229572Y335230D02*Y333730D01*
Y335230D02*X230322Y335980D01*
X231822D01*
X232572Y335230D01*
Y333730D01*
X231822Y332980D02*X232572Y333730D01*
X237073Y335980D02*Y329980D01*
Y332230D02*X237823Y332980D01*
X239323D01*
X240073Y332230D01*
Y329980D01*
X241875Y332230D02*Y330730D01*
Y332230D02*X242625Y332980D01*
X244125D01*
X244875Y332230D01*
Y330730D01*
X244125Y329980D02*X244875Y330730D01*
X242625Y329980D02*X244125D01*
X241875Y330730D02*X242625Y329980D01*
X246676Y335980D02*Y330730D01*
X247426Y329980D01*
X249678D02*X251928D01*
X248928Y330730D02*X249678Y329980D01*
X248928Y332230D02*Y330730D01*
Y332230D02*X249678Y332980D01*
X251178D01*
X251928Y332230D01*
X248928Y331480D02*X251928D01*
Y332230D02*Y331480D01*
X254479Y329980D02*X256729D01*
X257479Y330730D01*
X256729Y331480D02*X257479Y330730D01*
X254479Y331480D02*X256729D01*
X253729Y332230D02*X254479Y331480D01*
X253729Y332230D02*X254479Y332980D01*
X256729D01*
X257479Y332230D01*
X253729Y330730D02*X254479Y329980D01*
X262731Y335980D02*Y330730D01*
X263481Y329980D01*
X261981Y333730D02*X263481D01*
X264982Y332230D02*Y330730D01*
Y332230D02*X265732Y332980D01*
X267232D01*
X267982Y332230D01*
Y330730D01*
X267232Y329980D02*X267982Y330730D01*
X265732Y329980D02*X267232D01*
X264982Y330730D02*X265732Y329980D01*
X270534Y335980D02*Y330730D01*
X271284Y329980D01*
X269784Y333730D02*X271284D01*
X275035Y332980D02*X275785Y332230D01*
X273535Y332980D02*X275035D01*
X272785Y332230D02*X273535Y332980D01*
X272785Y332230D02*Y330730D01*
X273535Y329980D01*
X275785Y332980D02*Y330730D01*
X276535Y329980D01*
X273535D02*X275035D01*
X275785Y330730D01*
X278337Y335980D02*Y330730D01*
X279087Y329980D01*
G54D11*X0Y157480D02*X285430D01*
X0D02*Y0D01*
X285430Y157480D02*Y0D01*
X0D02*X285430D01*
G54D60*X200000Y170980D02*Y164980D01*
Y170980D02*X202250Y168730D01*
X204500Y170980D01*
Y164980D01*
X208551Y167980D02*X209301Y167230D01*
X207051Y167980D02*X208551D01*
X206301Y167230D02*X207051Y167980D01*
X206301Y167230D02*Y165730D01*
X207051Y164980D01*
X209301Y167980D02*Y165730D01*
X210051Y164980D01*
X207051D02*X208551D01*
X209301Y165730D01*
X211853Y167980D02*X214853Y164980D01*
X211853D02*X214853Y167980D01*
X216654Y169480D02*Y168730D01*
Y167230D02*Y164980D01*
X218906Y167230D02*Y164980D01*
Y167230D02*X219656Y167980D01*
X220406D01*
X221156Y167230D01*
Y164980D01*
Y167230D02*X221906Y167980D01*
X222656D01*
X223406Y167230D01*
Y164980D01*
X218156Y167980D02*X218906Y167230D01*
X225207Y167980D02*Y165730D01*
X225957Y164980D01*
X227457D01*
X228207Y165730D01*
Y167980D02*Y165730D01*
X230759Y167230D02*Y164980D01*
Y167230D02*X231509Y167980D01*
X232259D01*
X233009Y167230D01*
Y164980D01*
Y167230D02*X233759Y167980D01*
X234509D01*
X235259Y167230D01*
Y164980D01*
X230009Y167980D02*X230759Y167230D01*
X240510Y170980D02*Y164980D01*
X242760Y170980D02*X243510Y170230D01*
Y165730D01*
X242760Y164980D02*X243510Y165730D01*
X239760Y164980D02*X242760D01*
X239760Y170980D02*X242760D01*
X245312Y169480D02*Y168730D01*
Y167230D02*Y164980D01*
X247563Y167230D02*Y164980D01*
Y167230D02*X248313Y167980D01*
X249063D01*
X249813Y167230D01*
Y164980D01*
Y167230D02*X250563Y167980D01*
X251313D01*
X252063Y167230D01*
Y164980D01*
X246813Y167980D02*X247563Y167230D01*
X254615Y164980D02*X256865D01*
X253865Y165730D02*X254615Y164980D01*
X253865Y167230D02*Y165730D01*
Y167230D02*X254615Y167980D01*
X256115D01*
X256865Y167230D01*
X253865Y166480D02*X256865D01*
Y167230D02*Y166480D01*
X259416Y167230D02*Y164980D01*
Y167230D02*X260166Y167980D01*
X260916D01*
X261666Y167230D01*
Y164980D01*
X258666Y167980D02*X259416Y167230D01*
X264218Y164980D02*X266468D01*
X267218Y165730D01*
X266468Y166480D02*X267218Y165730D01*
X264218Y166480D02*X266468D01*
X263468Y167230D02*X264218Y166480D01*
X263468Y167230D02*X264218Y167980D01*
X266468D01*
X267218Y167230D01*
X263468Y165730D02*X264218Y164980D01*
X269019Y169480D02*Y168730D01*
Y167230D02*Y164980D01*
X270521Y167230D02*Y165730D01*
Y167230D02*X271271Y167980D01*
X272771D01*
X273521Y167230D01*
Y165730D01*
X272771Y164980D02*X273521Y165730D01*
X271271Y164980D02*X272771D01*
X270521Y165730D02*X271271Y164980D01*
X276072Y167230D02*Y164980D01*
Y167230D02*X276822Y167980D01*
X277572D01*
X278322Y167230D01*
Y164980D01*
X275322Y167980D02*X276072Y167230D01*
X280874Y164980D02*X283124D01*
X283874Y165730D01*
X283124Y166480D02*X283874Y165730D01*
X280874Y166480D02*X283124D01*
X280124Y167230D02*X280874Y166480D01*
X280124Y167230D02*X280874Y167980D01*
X283124D01*
X283874Y167230D01*
X280124Y165730D02*X280874Y164980D01*
X285675Y168730D02*X286425D01*
X285675Y167230D02*X286425D01*
X290927Y170230D02*X291677Y170980D01*
X293927D01*
X294677Y170230D01*
Y168730D01*
X290927Y164980D02*X294677Y168730D01*
X290927Y164980D02*X294677D01*
X296478Y165730D02*X297228Y164980D01*
X296478Y167230D02*Y165730D01*
Y167230D02*X297228Y167980D01*
X298728D01*
X299478Y167230D01*
Y165730D01*
X298728Y164980D02*X299478Y165730D01*
X297228Y164980D02*X298728D01*
X296478Y168730D02*X297228Y167980D01*
X296478Y170230D02*Y168730D01*
Y170230D02*X297228Y170980D01*
X298728D01*
X299478Y170230D01*
Y168730D01*
X298728Y167980D02*X299478Y168730D01*
X301280Y170980D02*X304280D01*
X301280D02*Y167980D01*
X302030Y168730D01*
X303530D01*
X304280Y167980D01*
Y165730D01*
X303530Y164980D02*X304280Y165730D01*
X302030Y164980D02*X303530D01*
X301280Y165730D02*X302030Y164980D01*
X306081Y167980D02*X309081Y170980D01*
X306081Y167980D02*X309831D01*
X309081Y170980D02*Y164980D01*
X315083Y167230D02*Y164980D01*
Y167230D02*X315833Y167980D01*
X316583D01*
X317333Y167230D01*
Y164980D01*
Y167230D02*X318083Y167980D01*
X318833D01*
X319583Y167230D01*
Y164980D01*
X314333Y167980D02*X315083Y167230D01*
X321384Y169480D02*Y168730D01*
Y167230D02*Y164980D01*
X322886Y170980D02*Y165730D01*
X323636Y164980D01*
X325887D02*X328137D01*
X328887Y165730D01*
X328137Y166480D02*X328887Y165730D01*
X325887Y166480D02*X328137D01*
X325137Y167230D02*X325887Y166480D01*
X325137Y167230D02*X325887Y167980D01*
X328137D01*
X328887Y167230D01*
X325137Y165730D02*X325887Y164980D01*
X333389Y167980D02*Y165730D01*
X334139Y164980D01*
X334889D01*
X335639Y165730D01*
Y167980D02*Y165730D01*
X336389Y164980D01*
X337139D01*
X337889Y165730D01*
Y167980D02*Y165730D01*
X339690Y169480D02*Y168730D01*
Y167230D02*Y164980D01*
X344192Y170980D02*Y164980D01*
X343442D02*X344192Y165730D01*
X341942Y164980D02*X343442D01*
X341192Y165730D02*X341942Y164980D01*
X341192Y167230D02*Y165730D01*
Y167230D02*X341942Y167980D01*
X343442D01*
X344192Y167230D01*
X346743Y164980D02*X348993D01*
X345993Y165730D02*X346743Y164980D01*
X345993Y167230D02*Y165730D01*
Y167230D02*X346743Y167980D01*
X348243D01*
X348993Y167230D01*
X345993Y166480D02*X348993D01*
Y167230D02*Y166480D01*
X350795Y163480D02*X352295Y164980D01*
X357546D02*X359046D01*
X358296Y170980D02*Y164980D01*
X356796Y169480D02*X358296Y170980D01*
X360848D02*X363848D01*
X360848D02*Y167980D01*
X361598Y168730D01*
X363098D01*
X363848Y167980D01*
Y165730D01*
X363098Y164980D02*X363848Y165730D01*
X361598Y164980D02*X363098D01*
X360848Y165730D02*X361598Y164980D01*
X365649D02*X369399Y168730D01*
Y170980D02*Y168730D01*
X365649Y170980D02*X369399D01*
X371201Y167980D02*X374201Y170980D01*
X371201Y167980D02*X374951D01*
X374201Y170980D02*Y164980D01*
X380202Y167230D02*Y164980D01*
Y167230D02*X380952Y167980D01*
X381702D01*
X382452Y167230D01*
Y164980D01*
Y167230D02*X383202Y167980D01*
X383952D01*
X384702Y167230D01*
Y164980D01*
X379452Y167980D02*X380202Y167230D01*
X386504Y169480D02*Y168730D01*
Y167230D02*Y164980D01*
X388005Y170980D02*Y165730D01*
X388755Y164980D01*
X391007D02*X393257D01*
X394007Y165730D01*
X393257Y166480D02*X394007Y165730D01*
X391007Y166480D02*X393257D01*
X390257Y167230D02*X391007Y166480D01*
X390257Y167230D02*X391007Y167980D01*
X393257D01*
X394007Y167230D01*
X390257Y165730D02*X391007Y164980D01*
X398508Y170980D02*Y164980D01*
Y167230D02*X399258Y167980D01*
X400758D01*
X401508Y167230D01*
Y164980D01*
X403310Y169480D02*Y168730D01*
Y167230D02*Y164980D01*
X407061Y167980D02*X407811Y167230D01*
X405561Y167980D02*X407061D01*
X404811Y167230D02*X405561Y167980D01*
X404811Y167230D02*Y165730D01*
X405561Y164980D01*
X407061D01*
X407811Y165730D01*
X404811Y163480D02*X405561Y162730D01*
X407061D01*
X407811Y163480D01*
Y167980D02*Y163480D01*
X409613Y170980D02*Y164980D01*
Y167230D02*X410363Y167980D01*
X411863D01*
X412613Y167230D01*
Y164980D01*
X0Y-9500D02*X3000D01*
X3750Y-8750D01*
Y-7250D02*Y-8750D01*
X3000Y-6500D02*X3750Y-7250D01*
X750Y-6500D02*X3000D01*
X750Y-3500D02*Y-9500D01*
X0Y-3500D02*X3000D01*
X3750Y-4250D01*
Y-5750D01*
X3000Y-6500D02*X3750Y-5750D01*
X5551Y-7250D02*Y-8750D01*
Y-7250D02*X6301Y-6500D01*
X7801D01*
X8551Y-7250D01*
Y-8750D01*
X7801Y-9500D02*X8551Y-8750D01*
X6301Y-9500D02*X7801D01*
X5551Y-8750D02*X6301Y-9500D01*
X12603Y-6500D02*X13353Y-7250D01*
X11103Y-6500D02*X12603D01*
X10353Y-7250D02*X11103Y-6500D01*
X10353Y-7250D02*Y-8750D01*
X11103Y-9500D01*
X13353Y-6500D02*Y-8750D01*
X14103Y-9500D01*
X11103D02*X12603D01*
X13353Y-8750D01*
X16654Y-7250D02*Y-9500D01*
Y-7250D02*X17404Y-6500D01*
X18904D01*
X15904D02*X16654Y-7250D01*
X23706Y-3500D02*Y-9500D01*
X22956D02*X23706Y-8750D01*
X21456Y-9500D02*X22956D01*
X20706Y-8750D02*X21456Y-9500D01*
X20706Y-7250D02*Y-8750D01*
Y-7250D02*X21456Y-6500D01*
X22956D01*
X23706Y-7250D01*
X28207D02*Y-8750D01*
Y-7250D02*X28957Y-6500D01*
X30457D01*
X31207Y-7250D01*
Y-8750D01*
X30457Y-9500D02*X31207Y-8750D01*
X28957Y-9500D02*X30457D01*
X28207Y-8750D02*X28957Y-9500D01*
X33009Y-6500D02*Y-8750D01*
X33759Y-9500D01*
X35259D01*
X36009Y-8750D01*
Y-6500D02*Y-8750D01*
X38560Y-3500D02*Y-8750D01*
X39310Y-9500D01*
X37810Y-5750D02*X39310D01*
X40812Y-3500D02*Y-8750D01*
X41562Y-9500D01*
X43063Y-5000D02*Y-5750D01*
Y-7250D02*Y-9500D01*
X45315Y-7250D02*Y-9500D01*
Y-7250D02*X46065Y-6500D01*
X46815D01*
X47565Y-7250D01*
Y-9500D01*
X44565Y-6500D02*X45315Y-7250D01*
X50116Y-9500D02*X52366D01*
X49366Y-8750D02*X50116Y-9500D01*
X49366Y-7250D02*Y-8750D01*
Y-7250D02*X50116Y-6500D01*
X51616D01*
X52366Y-7250D01*
X49366Y-8000D02*X52366D01*
Y-7250D02*Y-8000D01*
X56868Y-5000D02*Y-5750D01*
Y-7250D02*Y-9500D01*
X59119D02*X61369D01*
X62119Y-8750D01*
X61369Y-8000D02*X62119Y-8750D01*
X59119Y-8000D02*X61369D01*
X58369Y-7250D02*X59119Y-8000D01*
X58369Y-7250D02*X59119Y-6500D01*
X61369D01*
X62119Y-7250D01*
X58369Y-8750D02*X59119Y-9500D01*
X67371Y-3500D02*Y-8750D01*
X68121Y-9500D01*
X66621Y-5750D02*X68121D01*
X69622Y-3500D02*Y-9500D01*
Y-7250D02*X70372Y-6500D01*
X71872D01*
X72622Y-7250D01*
Y-9500D01*
X75174D02*X77424D01*
X74424Y-8750D02*X75174Y-9500D01*
X74424Y-7250D02*Y-8750D01*
Y-7250D02*X75174Y-6500D01*
X76674D01*
X77424Y-7250D01*
X74424Y-8000D02*X77424D01*
Y-7250D02*Y-8000D01*
X82675Y-6500D02*X84925D01*
X81925Y-7250D02*X82675Y-6500D01*
X81925Y-7250D02*Y-8750D01*
X82675Y-9500D01*
X84925D01*
X87477D02*X89727D01*
X86727Y-8750D02*X87477Y-9500D01*
X86727Y-7250D02*Y-8750D01*
Y-7250D02*X87477Y-6500D01*
X88977D01*
X89727Y-7250D01*
X86727Y-8000D02*X89727D01*
Y-7250D02*Y-8000D01*
X92278Y-7250D02*Y-9500D01*
Y-7250D02*X93028Y-6500D01*
X93778D01*
X94528Y-7250D01*
Y-9500D01*
X91528Y-6500D02*X92278Y-7250D01*
X97080Y-3500D02*Y-8750D01*
X97830Y-9500D01*
X96330Y-5750D02*X97830D01*
X100081Y-9500D02*X102331D01*
X99331Y-8750D02*X100081Y-9500D01*
X99331Y-7250D02*Y-8750D01*
Y-7250D02*X100081Y-6500D01*
X101581D01*
X102331Y-7250D01*
X99331Y-8000D02*X102331D01*
Y-7250D02*Y-8000D01*
X104883Y-7250D02*Y-9500D01*
Y-7250D02*X105633Y-6500D01*
X107133D01*
X104133D02*X104883Y-7250D01*
X108934Y-3500D02*Y-8750D01*
X109684Y-9500D01*
X111186Y-5000D02*Y-5750D01*
Y-7250D02*Y-9500D01*
X113437Y-7250D02*Y-9500D01*
Y-7250D02*X114187Y-6500D01*
X114937D01*
X115687Y-7250D01*
Y-9500D01*
X112687Y-6500D02*X113437Y-7250D01*
X118239Y-9500D02*X120489D01*
X117489Y-8750D02*X118239Y-9500D01*
X117489Y-7250D02*Y-8750D01*
Y-7250D02*X118239Y-6500D01*
X119739D01*
X120489Y-7250D01*
X117489Y-8000D02*X120489D01*
Y-7250D02*Y-8000D01*
X124990Y-7250D02*Y-8750D01*
Y-7250D02*X125740Y-6500D01*
X127240D01*
X127990Y-7250D01*
Y-8750D01*
X127240Y-9500D02*X127990Y-8750D01*
X125740Y-9500D02*X127240D01*
X124990Y-8750D02*X125740Y-9500D01*
X130542Y-4250D02*Y-9500D01*
Y-4250D02*X131292Y-3500D01*
X132042D01*
X129792Y-6500D02*X131292D01*
X136993Y-3500D02*Y-8750D01*
X137743Y-9500D01*
X136243Y-5750D02*X137743D01*
X139245Y-3500D02*Y-9500D01*
Y-7250D02*X139995Y-6500D01*
X141495D01*
X142245Y-7250D01*
Y-9500D01*
X144046Y-5000D02*Y-5750D01*
Y-7250D02*Y-9500D01*
X146298D02*X148548D01*
X149298Y-8750D01*
X148548Y-8000D02*X149298Y-8750D01*
X146298Y-8000D02*X148548D01*
X145548Y-7250D02*X146298Y-8000D01*
X145548Y-7250D02*X146298Y-6500D01*
X148548D01*
X149298Y-7250D01*
X145548Y-8750D02*X146298Y-9500D01*
X154549D02*X156049D01*
X155299Y-3500D02*Y-9500D01*
X153799Y-5000D02*X155299Y-3500D01*
X157851Y-8750D02*X158601Y-9500D01*
X157851Y-4250D02*Y-8750D01*
Y-4250D02*X158601Y-3500D01*
X160101D01*
X160851Y-4250D01*
Y-8750D01*
X160101Y-9500D02*X160851Y-8750D01*
X158601Y-9500D02*X160101D01*
X157851Y-8000D02*X160851Y-5000D01*
X166102Y-7250D02*Y-9500D01*
Y-7250D02*X166852Y-6500D01*
X167602D01*
X168352Y-7250D01*
Y-9500D01*
Y-7250D02*X169102Y-6500D01*
X169852D01*
X170602Y-7250D01*
Y-9500D01*
X165352Y-6500D02*X166102Y-7250D01*
X172404Y-5000D02*Y-5750D01*
Y-7250D02*Y-9500D01*
X173905Y-3500D02*Y-8750D01*
X174655Y-9500D01*
X179607Y-7250D02*Y-9500D01*
Y-7250D02*X180357Y-6500D01*
X181857D01*
X178857D02*X179607Y-7250D01*
X184408Y-9500D02*X186658D01*
X183658Y-8750D02*X184408Y-9500D01*
X183658Y-7250D02*Y-8750D01*
Y-7250D02*X184408Y-6500D01*
X185908D01*
X186658Y-7250D01*
X183658Y-8000D02*X186658D01*
Y-7250D02*Y-8000D01*
X189210Y-6500D02*X191460D01*
X188460Y-7250D02*X189210Y-6500D01*
X188460Y-7250D02*Y-8750D01*
X189210Y-9500D01*
X191460D01*
X194011Y-3500D02*Y-8750D01*
X194761Y-9500D01*
X193261Y-5750D02*X194761D01*
X198513Y-6500D02*X199263Y-7250D01*
X197013Y-6500D02*X198513D01*
X196263Y-7250D02*X197013Y-6500D01*
X196263Y-7250D02*Y-8750D01*
X197013Y-9500D01*
X199263Y-6500D02*Y-8750D01*
X200013Y-9500D01*
X197013D02*X198513D01*
X199263Y-8750D01*
X202564Y-7250D02*Y-9500D01*
Y-7250D02*X203314Y-6500D01*
X204064D01*
X204814Y-7250D01*
Y-9500D01*
X201814Y-6500D02*X202564Y-7250D01*
X208866Y-6500D02*X209616Y-7250D01*
X207366Y-6500D02*X208866D01*
X206616Y-7250D02*X207366Y-6500D01*
X206616Y-7250D02*Y-8750D01*
X207366Y-9500D01*
X208866D01*
X209616Y-8750D01*
X206616Y-11000D02*X207366Y-11750D01*
X208866D01*
X209616Y-11000D01*
Y-6500D02*Y-11000D01*
X211417Y-3500D02*Y-8750D01*
X212167Y-9500D01*
X214419D02*X216669D01*
X213669Y-8750D02*X214419Y-9500D01*
X213669Y-7250D02*Y-8750D01*
Y-7250D02*X214419Y-6500D01*
X215919D01*
X216669Y-7250D01*
X213669Y-8000D02*X216669D01*
Y-7250D02*Y-8000D01*
X221170Y-6500D02*X224170D01*
X228672Y-8750D02*X229422Y-9500D01*
X228672Y-4250D02*Y-8750D01*
Y-4250D02*X229422Y-3500D01*
X230922D01*
X231672Y-4250D01*
Y-8750D01*
X230922Y-9500D02*X231672Y-8750D01*
X229422Y-9500D02*X230922D01*
X228672Y-8000D02*X231672Y-5000D01*
X233473Y-11000D02*X234973Y-9500D01*
X236775Y-8750D02*X237525Y-9500D01*
X236775Y-4250D02*Y-8750D01*
Y-4250D02*X237525Y-3500D01*
X239025D01*
X239775Y-4250D01*
Y-8750D01*
X239025Y-9500D02*X239775Y-8750D01*
X237525Y-9500D02*X239025D01*
X236775Y-8000D02*X239775Y-5000D01*
X245026Y-3500D02*Y-8750D01*
X245776Y-9500D01*
X244276Y-5750D02*X245776D01*
X247278Y-7250D02*Y-8750D01*
Y-7250D02*X248028Y-6500D01*
X249528D01*
X250278Y-7250D01*
Y-8750D01*
X249528Y-9500D02*X250278Y-8750D01*
X248028Y-9500D02*X249528D01*
X247278Y-8750D02*X248028Y-9500D01*
X254779Y-4250D02*X255529Y-3500D01*
X257779D01*
X258529Y-4250D01*
Y-5750D01*
X254779Y-9500D02*X258529Y-5750D01*
X254779Y-9500D02*X258529D01*
X260331Y-8750D02*X261081Y-9500D01*
X260331Y-7250D02*Y-8750D01*
Y-7250D02*X261081Y-6500D01*
X262581D01*
X263331Y-7250D01*
Y-8750D01*
X262581Y-9500D02*X263331Y-8750D01*
X261081Y-9500D02*X262581D01*
X260331Y-5750D02*X261081Y-6500D01*
X260331Y-4250D02*Y-5750D01*
Y-4250D02*X261081Y-3500D01*
X262581D01*
X263331Y-4250D01*
Y-5750D01*
X262581Y-6500D02*X263331Y-5750D01*
X265132Y-3500D02*X268132D01*
X265132D02*Y-6500D01*
X265882Y-5750D01*
X267382D01*
X268132Y-6500D01*
Y-8750D01*
X267382Y-9500D02*X268132Y-8750D01*
X265882Y-9500D02*X267382D01*
X265132Y-8750D02*X265882Y-9500D01*
X269934Y-6500D02*X272934Y-3500D01*
X269934Y-6500D02*X273684D01*
X272934Y-3500D02*Y-9500D01*
X275485Y-11000D02*X276985Y-9500D01*
X279537D02*X281037D01*
X280287Y-3500D02*Y-9500D01*
X278787Y-5000D02*X280287Y-3500D01*
X282838D02*X285838D01*
X282838D02*Y-6500D01*
X283588Y-5750D01*
X285088D01*
X285838Y-6500D01*
Y-8750D01*
X285088Y-9500D02*X285838Y-8750D01*
X283588Y-9500D02*X285088D01*
X282838Y-8750D02*X283588Y-9500D01*
X287640D02*X291390Y-5750D01*
Y-3500D02*Y-5750D01*
X287640Y-3500D02*X291390D01*
X293191Y-6500D02*X296191Y-3500D01*
X293191Y-6500D02*X296941D01*
X296191Y-3500D02*Y-9500D01*
X302193Y-7250D02*Y-9500D01*
Y-7250D02*X302943Y-6500D01*
X303693D01*
X304443Y-7250D01*
Y-9500D01*
Y-7250D02*X305193Y-6500D01*
X305943D01*
X306693Y-7250D01*
Y-9500D01*
X301443Y-6500D02*X302193Y-7250D01*
X308494Y-5000D02*Y-5750D01*
Y-7250D02*Y-9500D01*
X309996Y-3500D02*Y-8750D01*
X310746Y-9500D01*
X312997D02*X315247D01*
X315997Y-8750D01*
X315247Y-8000D02*X315997Y-8750D01*
X312997Y-8000D02*X315247D01*
X312247Y-7250D02*X312997Y-8000D01*
X312247Y-7250D02*X312997Y-6500D01*
X315247D01*
X315997Y-7250D01*
X312247Y-8750D02*X312997Y-9500D01*
X200750Y185980D02*Y179980D01*
X203000Y185980D02*X203750Y185230D01*
Y180730D01*
X203000Y179980D02*X203750Y180730D01*
X200000Y179980D02*X203000D01*
X200000Y185980D02*X203000D01*
X207801Y182980D02*X208551Y182230D01*
X206301Y182980D02*X207801D01*
X205551Y182230D02*X206301Y182980D01*
X205551Y182230D02*Y180730D01*
X206301Y179980D01*
X208551Y182980D02*Y180730D01*
X209301Y179980D01*
X206301D02*X207801D01*
X208551Y180730D01*
X211853Y185980D02*Y180730D01*
X212603Y179980D01*
X211103Y183730D02*X212603D01*
X214854Y179980D02*X217104D01*
X214104Y180730D02*X214854Y179980D01*
X214104Y182230D02*Y180730D01*
Y182230D02*X214854Y182980D01*
X216354D01*
X217104Y182230D01*
X214104Y181480D02*X217104D01*
Y182230D02*Y181480D01*
X218906Y183730D02*X219656D01*
X218906Y182230D02*X219656D01*
X224157Y185980D02*X227157D01*
X225657D02*Y179980D01*
X228959Y182980D02*Y180730D01*
X229709Y179980D01*
X231209D01*
X231959Y180730D01*
Y182980D02*Y180730D01*
X234510Y179980D02*X236760D01*
X233760Y180730D02*X234510Y179980D01*
X233760Y182230D02*Y180730D01*
Y182230D02*X234510Y182980D01*
X236010D01*
X236760Y182230D01*
X233760Y181480D02*X236760D01*
Y182230D02*Y181480D01*
X241262Y180730D02*X242012Y179980D01*
X241262Y185230D02*Y180730D01*
Y185230D02*X242012Y185980D01*
X243512D01*
X244262Y185230D01*
Y180730D01*
X243512Y179980D02*X244262Y180730D01*
X242012Y179980D02*X243512D01*
X241262Y181480D02*X244262Y184480D01*
X246063Y182980D02*X249063Y185980D01*
X246063Y182980D02*X249813D01*
X249063Y185980D02*Y179980D01*
X254315Y185980D02*X256565D01*
Y180730D01*
X255815Y179980D02*X256565Y180730D01*
X255065Y179980D02*X255815D01*
X254315Y180730D02*X255065Y179980D01*
X260616Y182980D02*X261366Y182230D01*
X259116Y182980D02*X260616D01*
X258366Y182230D02*X259116Y182980D01*
X258366Y182230D02*Y180730D01*
X259116Y179980D01*
X261366Y182980D02*Y180730D01*
X262116Y179980D01*
X259116D02*X260616D01*
X261366Y180730D01*
X264668Y182230D02*Y179980D01*
Y182230D02*X265418Y182980D01*
X266168D01*
X266918Y182230D01*
Y179980D01*
X263918Y182980D02*X264668Y182230D01*
X271419Y185230D02*X272169Y185980D01*
X274419D01*
X275169Y185230D01*
Y183730D01*
X271419Y179980D02*X275169Y183730D01*
X271419Y179980D02*X275169D01*
X276971Y180730D02*X277721Y179980D01*
X276971Y185230D02*Y180730D01*
Y185230D02*X277721Y185980D01*
X279221D01*
X279971Y185230D01*
Y180730D01*
X279221Y179980D02*X279971Y180730D01*
X277721Y179980D02*X279221D01*
X276971Y181480D02*X279971Y184480D01*
X282522Y179980D02*X284022D01*
X283272Y185980D02*Y179980D01*
X281772Y184480D02*X283272Y185980D01*
X286574Y179980D02*X288074D01*
X287324Y185980D02*Y179980D01*
X285824Y184480D02*X287324Y185980D01*
X293325Y179980D02*X294825D01*
X294075Y185980D02*Y179980D01*
X292575Y184480D02*X294075Y185980D01*
X296627D02*X299627D01*
X296627D02*Y182980D01*
X297377Y183730D01*
X298877D01*
X299627Y182980D01*
Y180730D01*
X298877Y179980D02*X299627Y180730D01*
X297377Y179980D02*X298877D01*
X296627Y180730D02*X297377Y179980D01*
X301428Y183730D02*X302178D01*
X301428Y182230D02*X302178D01*
X304730Y179980D02*X306230D01*
X305480Y185980D02*Y179980D01*
X303980Y184480D02*X305480Y185980D01*
X310281D02*X311031Y185230D01*
X308781Y185980D02*X310281D01*
X308031Y185230D02*X308781Y185980D01*
X308031Y185230D02*Y180730D01*
X308781Y179980D01*
X310281Y182980D02*X311031Y182230D01*
X308031Y182980D02*X310281D01*
X308781Y179980D02*X310281D01*
X311031Y180730D01*
Y182230D02*Y180730D01*
X312833Y183730D02*X313583D01*
X312833Y182230D02*X313583D01*
X315384Y185230D02*X316134Y185980D01*
X317634D01*
X318384Y185230D01*
Y180730D01*
X317634Y179980D02*X318384Y180730D01*
X316134Y179980D02*X317634D01*
X315384Y180730D02*X316134Y179980D01*
Y182980D02*X318384D01*
X320186Y185230D02*X320936Y185980D01*
X323186D01*
X323936Y185230D01*
Y183730D01*
X320186Y179980D02*X323936Y183730D01*
X320186Y179980D02*X323936D01*
X331437Y185980D02*X332187Y185230D01*
X329187Y185980D02*X331437D01*
X328437Y185230D02*X329187Y185980D01*
X328437Y185230D02*Y180730D01*
X329187Y179980D01*
X331437D01*
X332187Y180730D01*
Y182230D02*Y180730D01*
X331437Y182980D02*X332187Y182230D01*
X329937Y182980D02*X331437D01*
X333989Y185980D02*Y179980D01*
Y185980D02*X336239Y183730D01*
X338489Y185980D01*
Y179980D01*
X340290Y185980D02*X343290D01*
X341790D02*Y179980D01*
X347792Y185980D02*Y180730D01*
X348542Y179980D01*
X350042D01*
X350792Y180730D01*
Y185980D02*Y180730D01*
X352593Y185980D02*X355593D01*
X354093D02*Y179980D01*
X358145D02*X360395D01*
X357395Y180730D02*X358145Y179980D01*
X357395Y185230D02*Y180730D01*
Y185230D02*X358145Y185980D01*
X360395D01*
X200000Y200230D02*Y194980D01*
Y200230D02*X200750Y200980D01*
X203000D01*
X203750Y200230D01*
Y194980D01*
X200000Y197980D02*X203750D01*
X205551D02*Y195730D01*
X206301Y194980D01*
X207801D01*
X208551Y195730D01*
Y197980D02*Y195730D01*
X211103Y200980D02*Y195730D01*
X211853Y194980D01*
X210353Y198730D02*X211853D01*
X213354Y200980D02*Y194980D01*
Y197230D02*X214104Y197980D01*
X215604D01*
X216354Y197230D01*
Y194980D01*
X218156Y197230D02*Y195730D01*
Y197230D02*X218906Y197980D01*
X220406D01*
X221156Y197230D01*
Y195730D01*
X220406Y194980D02*X221156Y195730D01*
X218906Y194980D02*X220406D01*
X218156Y195730D02*X218906Y194980D01*
X223707Y197230D02*Y194980D01*
Y197230D02*X224457Y197980D01*
X225957D01*
X222957D02*X223707Y197230D01*
X227759Y198730D02*X228509D01*
X227759Y197230D02*X228509D01*
X233010Y200980D02*X236010D01*
X234510D02*Y194980D01*
X237812Y200980D02*Y194980D01*
Y197230D02*X238562Y197980D01*
X240062D01*
X240812Y197230D01*
Y194980D01*
X242613Y197230D02*Y195730D01*
Y197230D02*X243363Y197980D01*
X244863D01*
X245613Y197230D01*
Y195730D01*
X244863Y194980D02*X245613Y195730D01*
X243363Y194980D02*X244863D01*
X242613Y195730D02*X243363Y194980D01*
X248165Y197230D02*Y194980D01*
Y197230D02*X248915Y197980D01*
X249665D01*
X250415Y197230D01*
Y194980D01*
Y197230D02*X251165Y197980D01*
X251915D01*
X252665Y197230D01*
Y194980D01*
X247415Y197980D02*X248165Y197230D01*
X256716Y197980D02*X257466Y197230D01*
X255216Y197980D02*X256716D01*
X254466Y197230D02*X255216Y197980D01*
X254466Y197230D02*Y195730D01*
X255216Y194980D01*
X257466Y197980D02*Y195730D01*
X258216Y194980D01*
X255216D02*X256716D01*
X257466Y195730D01*
X260768Y194980D02*X263018D01*
X263768Y195730D01*
X263018Y196480D02*X263768Y195730D01*
X260768Y196480D02*X263018D01*
X260018Y197230D02*X260768Y196480D01*
X260018Y197230D02*X260768Y197980D01*
X263018D01*
X263768Y197230D01*
X260018Y195730D02*X260768Y194980D01*
X268269Y200230D02*Y195730D01*
Y200230D02*X269019Y200980D01*
X270519D01*
X271269Y200230D01*
Y195730D01*
X270519Y194980D02*X271269Y195730D01*
X269019Y194980D02*X270519D01*
X268269Y195730D02*X269019Y194980D01*
X273071Y200980D02*Y195730D01*
X273821Y194980D01*
X278322Y200980D02*Y194980D01*
X277572D02*X278322Y195730D01*
X276072Y194980D02*X277572D01*
X275322Y195730D02*X276072Y194980D01*
X275322Y197230D02*Y195730D01*
Y197230D02*X276072Y197980D01*
X277572D01*
X278322Y197230D01*
X280124Y200980D02*Y194980D01*
Y195730D02*X280874Y194980D01*
X282374D01*
X283124Y195730D01*
Y197230D02*Y195730D01*
X282374Y197980D02*X283124Y197230D01*
X280874Y197980D02*X282374D01*
X280124Y197230D02*X280874Y197980D01*
X284925D02*Y195730D01*
X285675Y194980D01*
X287175D01*
X287925Y195730D01*
Y197980D02*Y195730D01*
X290477Y197230D02*Y194980D01*
Y197230D02*X291227Y197980D01*
X292727D01*
X289727D02*X290477Y197230D01*
X294528Y197980D02*Y195730D01*
X295278Y194980D01*
X297528Y197980D02*Y193480D01*
X296778Y192730D02*X297528Y193480D01*
X295278Y192730D02*X296778D01*
X294528Y193480D02*X295278Y192730D01*
Y194980D02*X296778D01*
X297528Y195730D01*
X200000Y215980D02*X203000D01*
X201500D02*Y209980D01*
X204801Y214480D02*Y213730D01*
Y212230D02*Y209980D01*
X207053Y215980D02*Y210730D01*
X207803Y209980D01*
X206303Y213730D02*X207803D01*
X209304Y215980D02*Y210730D01*
X210054Y209980D01*
X212306D02*X214556D01*
X211556Y210730D02*X212306Y209980D01*
X211556Y212230D02*Y210730D01*
Y212230D02*X212306Y212980D01*
X213806D01*
X214556Y212230D01*
X211556Y211480D02*X214556D01*
Y212230D02*Y211480D01*
X216357Y213730D02*X217107D01*
X216357Y212230D02*X217107D01*
X221609Y210730D02*X222359Y209980D01*
X221609Y215230D02*X222359Y215980D01*
X221609Y215230D02*Y210730D01*
X224160Y212980D02*Y210730D01*
X224910Y209980D01*
X226410D01*
X227160Y210730D01*
Y212980D02*Y210730D01*
X229712Y212230D02*Y209980D01*
Y212230D02*X230462Y212980D01*
X231212D01*
X231962Y212230D01*
Y209980D01*
X228962Y212980D02*X229712Y212230D01*
X233763Y215980D02*Y209980D01*
Y212230D02*X236013Y209980D01*
X233763Y212230D02*X235263Y213730D01*
X238565Y212230D02*Y209980D01*
Y212230D02*X239315Y212980D01*
X240065D01*
X240815Y212230D01*
Y209980D01*
X237815Y212980D02*X238565Y212230D01*
X242616D02*Y210730D01*
Y212230D02*X243366Y212980D01*
X244866D01*
X245616Y212230D01*
Y210730D01*
X244866Y209980D02*X245616Y210730D01*
X243366Y209980D02*X244866D01*
X242616Y210730D02*X243366Y209980D01*
X247418Y212980D02*Y210730D01*
X248168Y209980D01*
X248918D01*
X249668Y210730D01*
Y212980D02*Y210730D01*
X250418Y209980D01*
X251168D01*
X251918Y210730D01*
Y212980D02*Y210730D01*
X254469Y212230D02*Y209980D01*
Y212230D02*X255219Y212980D01*
X255969D01*
X256719Y212230D01*
Y209980D01*
X253719Y212980D02*X254469Y212230D01*
X258521Y215980D02*X259271Y215230D01*
Y210730D01*
X258521Y209980D02*X259271Y210730D01*
X263772Y212980D02*X266772D01*
X271274Y215980D02*Y209980D01*
Y215980D02*X274274D01*
X271274Y212980D02*X273524D01*
X278325D02*X279075Y212230D01*
X276825Y212980D02*X278325D01*
X276075Y212230D02*X276825Y212980D01*
X276075Y212230D02*Y210730D01*
X276825Y209980D01*
X279075Y212980D02*Y210730D01*
X279825Y209980D01*
X276825D02*X278325D01*
X279075Y210730D01*
X281627Y215980D02*Y209980D01*
Y210730D02*X282377Y209980D01*
X283877D01*
X284627Y210730D01*
Y212230D02*Y210730D01*
X283877Y212980D02*X284627Y212230D01*
X282377Y212980D02*X283877D01*
X281627Y212230D02*X282377Y212980D01*
X287178Y212230D02*Y209980D01*
Y212230D02*X287928Y212980D01*
X289428D01*
X286428D02*X287178Y212230D01*
X291230Y214480D02*Y213730D01*
Y212230D02*Y209980D01*
X293481Y212980D02*X295731D01*
X292731Y212230D02*X293481Y212980D01*
X292731Y212230D02*Y210730D01*
X293481Y209980D01*
X295731D01*
X299783Y212980D02*X300533Y212230D01*
X298283Y212980D02*X299783D01*
X297533Y212230D02*X298283Y212980D01*
X297533Y212230D02*Y210730D01*
X298283Y209980D01*
X300533Y212980D02*Y210730D01*
X301283Y209980D01*
X298283D02*X299783D01*
X300533Y210730D01*
X303834Y215980D02*Y210730D01*
X304584Y209980D01*
X303084Y213730D02*X304584D01*
X306086Y214480D02*Y213730D01*
Y212230D02*Y209980D01*
X307587Y212230D02*Y210730D01*
Y212230D02*X308337Y212980D01*
X309837D01*
X310587Y212230D01*
Y210730D01*
X309837Y209980D02*X310587Y210730D01*
X308337Y209980D02*X309837D01*
X307587Y210730D02*X308337Y209980D01*
X313139Y212230D02*Y209980D01*
Y212230D02*X313889Y212980D01*
X314639D01*
X315389Y212230D01*
Y209980D01*
X312389Y212980D02*X313139Y212230D01*
X320640Y215980D02*Y209980D01*
X322890Y215980D02*X323640Y215230D01*
Y210730D01*
X322890Y209980D02*X323640Y210730D01*
X319890Y209980D02*X322890D01*
X319890Y215980D02*X322890D01*
X326192Y212230D02*Y209980D01*
Y212230D02*X326942Y212980D01*
X328442D01*
X325442D02*X326192Y212230D01*
X332493Y212980D02*X333243Y212230D01*
X330993Y212980D02*X332493D01*
X330243Y212230D02*X330993Y212980D01*
X330243Y212230D02*Y210730D01*
X330993Y209980D01*
X333243Y212980D02*Y210730D01*
X333993Y209980D01*
X330993D02*X332493D01*
X333243Y210730D01*
X335795Y212980D02*Y210730D01*
X336545Y209980D01*
X337295D01*
X338045Y210730D01*
Y212980D02*Y210730D01*
X338795Y209980D01*
X339545D01*
X340295Y210730D01*
Y212980D02*Y210730D01*
X342096Y214480D02*Y213730D01*
Y212230D02*Y209980D01*
X344348Y212230D02*Y209980D01*
Y212230D02*X345098Y212980D01*
X345848D01*
X346598Y212230D01*
Y209980D01*
X343598Y212980D02*X344348Y212230D01*
X350649Y212980D02*X351399Y212230D01*
X349149Y212980D02*X350649D01*
X348399Y212230D02*X349149Y212980D01*
X348399Y212230D02*Y210730D01*
X349149Y209980D01*
X350649D01*
X351399Y210730D01*
X348399Y208480D02*X349149Y207730D01*
X350649D01*
X351399Y208480D01*
Y212980D02*Y208480D01*
M02*
