M48
INCH
T15C0.020
T32C0.012
T37C0.038
T38C0.030
T39C0.028
T40C0.025
T56C0.039
T57C0.059
T58C0.098
T59C0.157
%
T32
X006400Y002548
X006400Y002048
X006250Y003948
X006400Y004098
X006250Y003648
X006400Y003198
X006400Y003498
X006400Y003798
X006250Y003348
T15
X012296Y005909
X013976Y006009
X014276Y005309
X014976Y004609
X011876Y004509
X013896Y007509
X013496Y007109
X013496Y007709
X014450Y007048
X010396Y007309
X010896Y006809
X011596Y006809
X010676Y005209
X018000Y004898
X017450Y006698
X018850Y007748
X018300Y007198
X017000Y007748
X010650Y008098
X009996Y010609
X010496Y010609
X008396Y013309
X009296Y013509
X008696Y012409
X012296Y011009
X010996Y010609
X011496Y011709
X011096Y011909
X012496Y012209
X009776Y013009
X010276Y013009
X008550Y008748
X012296Y008909
X011896Y009209
X014876Y010609
X015976Y010209
X015076Y011109
X016476Y012209
X016276Y009909
X012976Y012209
X015476Y012209
X012900Y010698
X015976Y009609
X016276Y009309
X015976Y009009
X016076Y008009
X016200Y008648
X017000Y008298
X013776Y011409
X015476Y013509
X016376Y013009
X018276Y013509
X014700Y013198
X003696Y007509
X003796Y011409
X003496Y012909
X007313Y012792
X007196Y006809
X007296Y011509
X002396Y010609
X002296Y008809
X001796Y008809
X007396Y013909
X007596Y013609
X004996Y012509
X006196Y012309
X005396Y012109
X005496Y011409
X006896Y011209
X006696Y009209
X005796Y010309
X008196Y006809
X007096Y005009
X007196Y004309
X023676Y003809
X023700Y002448
X023276Y004309
X024676Y006909
X026476Y006409
X016876Y007009
X016576Y007709
X018376Y005109
X016076Y004509
X017676Y004409
X016976Y003909
X020676Y003709
X020476Y002409
X018900Y006698
X018276Y006709
X022776Y006909
X021427Y006859
X019300Y006948
X008796Y007109
X009095Y005607
X009896Y007009
X009596Y007309
X015276Y003109
X014176Y003009
X012476Y003009
X013376Y003709
X015476Y003909
X011676Y003009
X010576Y002509
X010776Y001409
X009876Y001409
X011476Y002009
X011653Y001394
X016276Y002409
X025876Y011809
X022476Y010409
X023476Y010509
X023076Y011009
X024576Y011409
X025476Y009609
X023576Y009609
X021476Y007809
X022000Y005598
X022076Y010609
X021676Y010209
X020932Y013064
X024776Y009409
X024276Y012009
X024276Y012509
X023676Y013009
X018276Y011709
X018676Y011909
X019076Y011709
X018276Y012709
X018976Y012809
X024150Y013248
X024409Y013993
X024803Y013993
X026929Y013599
X026535Y013284
X019500Y013398
X013496Y008309
X013896Y008109
X023076Y008109
X024076Y008409
X018350Y008298
X019776Y008109
X017676Y010509
X018076Y010509
X020176Y010509
X024176Y009209
X025576Y008809
X019876Y009009
X018532Y009164
T40
X012876Y005709
X017150Y005498
X010418Y004709
X016150Y014598
X005396Y004609
X007296Y002909
X004096Y003409
X026976Y004309
X024576Y004309
X021076Y004309
X020350Y004298
X009896Y003209
X009176Y003209
X009776Y005109
X008676Y003209
X008676Y001709
X015748Y001394
X026776Y012709
T39
X019399Y003529
X021525Y003529
X024588Y003529
X022462Y003529
X021389Y011018
X022234Y009205
X015299Y003529
X017425Y003529
T38
X019876Y012409
X020376Y011543
T37
X026076Y003759
X024476Y005909
X026076Y002759
X023476Y005909
X022476Y005909
X021476Y005909
X020476Y005909
X017676Y012609
X014476Y013709
X013476Y013709
X012476Y013709
X011476Y013709
X017676Y013609
X006296Y008509
X005296Y008509
X004296Y008509
X003096Y011509
X003096Y012509
X003096Y013509
X027376Y010309
X026076Y010309
X027376Y009309
X027376Y008309
X026076Y009309
X026076Y008309
X027376Y007309
X026076Y004909
X026076Y005909
X026076Y006909
X002496Y003309
X002496Y002309
X002496Y004309
X002496Y006109
X003496Y006109
X004496Y006109
X005496Y006109
X006496Y006109
T56
X021348Y002250
X021348Y004809
X019576Y002250
X019576Y004809
X024411Y004809
X022639Y004809
X024411Y002250
X022639Y002250
X017248Y002250
X017248Y004809
X015476Y002250
X015476Y004809
T57
X013149Y015095
X021968Y015095
T58
X003149Y014701
X000944Y004780
X000944Y007064
X004015Y001001
X027795Y004780
X027795Y001158
X027795Y014701
T59
X001181Y014701
X001102Y001237
X025984Y001237
X014488Y001237
X025984Y014701
M30
