G04 start of page 9 for group -4014 idx -4014 *
G04 Title: (unknown), bottompaste *
G04 Creator: pcb 20091103 *
G04 CreationDate: Tue 04 Jan 2011 15:16:32 GMT UTC *
G04 For: thomas *
G04 Format: Gerber/RS-274X *
G04 PCB-Dimensions: 285430 157480 *
G04 PCB-Coordinate-Origin: lower left *
%MOIN*%
%FSLAX25Y25*%
%LNBACKPASTE*%
%ADD23R,0.0295X0.0295*%
G54D23*X179500Y71980D02*Y70996D01*
X174382Y71980D02*Y70996D01*
X179618Y83464D02*Y82480D01*
X174500Y83464D02*Y82480D01*
X139205Y128582D02*Y127598D01*
X144323Y128582D02*Y127598D01*
X190272Y86531D02*X191256D01*
X190272Y91649D02*X191256D01*
X281796Y103208D02*X282780D01*
X281796Y98090D02*X282780D01*
X164323Y38582D02*Y37598D01*
X159205Y38582D02*Y37598D01*
X177764Y98106D02*Y97122D01*
X182882Y98106D02*Y97122D01*
X165882Y111090D02*Y110106D01*
X160764Y111090D02*Y110106D01*
X132272Y109531D02*X133256D01*
X132272Y114649D02*X133256D01*
X174500Y77480D02*Y76496D01*
X179618Y77480D02*Y76496D01*
X96000Y78464D02*Y77480D01*
X101118Y78464D02*Y77480D01*
X171516Y97846D02*X172500D01*
X171516Y92728D02*X172500D01*
M02*
