G04 start of page 7 for group -4079 idx -4079 *
G04 Title: (unknown), topsilk *
G04 Creator: pcb 20091103 *
G04 CreationDate: Tue 04 Jan 2011 15:16:32 GMT UTC *
G04 For: thomas *
G04 Format: Gerber/RS-274X *
G04 PCB-Dimensions: 285430 157480 *
G04 PCB-Coordinate-Origin: lower left *
%MOIN*%
%FSLAX25Y25*%
%LNFRONTSILK*%
%ADD11C,0.0100*%
%ADD15C,0.0200*%
%ADD60C,0.0060*%
%ADD61C,0.0066*%
%ADD62C,0.0080*%
G54D11*X157481Y5288D02*X160631D01*
X158269Y3713D02*X159843D01*
X159056Y9225D02*Y6863D01*
X156694D02*X161418D01*
X215000Y72980D02*X219500D01*
X221000Y71480D01*
X246000Y79980D02*X247500D01*
X248500Y80980D01*
X252000Y46480D02*Y45980D01*
X253000Y44980D01*
X255000D01*
X244000Y90980D02*X247500D01*
X228500Y94980D02*Y92480D01*
X229500Y91480D01*
X252500Y95980D02*Y100480D01*
X251500Y101480D01*
X249000D01*
X247500Y99980D01*
Y90980D02*X249000Y89480D01*
X36500Y90980D02*X38500Y92980D01*
X32000Y90980D02*X36500D01*
X33000Y67480D02*X34000Y66480D01*
X52000D01*
X53000Y67480D01*
Y67980D01*
X58000Y73980D02*X63000D01*
X64000Y74980D01*
X49500Y94980D02*Y95980D01*
X52500Y42980D02*X55000D01*
X56000Y43980D01*
X49500Y95980D02*X48500Y96980D01*
X21409Y8436D02*X27708Y14735D01*
X30000Y49480D02*X31500D01*
X32500Y48480D01*
Y43480D01*
X33000Y42980D01*
X147000Y48480D02*Y47480D01*
X106500Y142480D02*X107000D01*
X108000Y141480D01*
Y140393D01*
X147000Y47480D02*X146000Y46480D01*
X113500Y38480D02*Y39980D01*
X114000Y40480D01*
X124000Y15980D02*Y16480D01*
X123000Y17480D01*
Y18980D01*
X24558Y14735D02*G75*G03X21408Y11585I0J-3150D01*G01*
G75*G03X24557Y8436I3149J0D01*G01*
G75*G03X27708Y11587I0J3151D01*G01*
G75*G03X24560Y14735I-3148J0D01*G01*
G54D60*X188000Y100990D02*Y97525D01*
X188495Y97030D01*
X189485D01*
X189980Y97525D01*
Y100990D02*Y97525D01*
X191168Y97030D02*X193643Y99505D01*
Y100990D02*Y99505D01*
X191168Y100990D02*X193643D01*
X225984Y152561D02*X226499Y153076D01*
X227529D01*
X228044Y152561D01*
Y149471D01*
X227529Y148956D02*X228044Y149471D01*
X226499Y148956D02*X227529D01*
X225984Y149471D02*X226499Y148956D01*
Y151016D02*X228044D01*
X229281Y153076D02*Y149986D01*
X230311Y148956D01*
X231341Y149986D01*
Y153076D02*Y149986D01*
X232578Y152561D02*X233093Y153076D01*
X234123D01*
X234638Y152561D01*
Y149471D01*
X234123Y148956D02*X234638Y149471D01*
X233093Y148956D02*X234123D01*
X232578Y149471D02*X233093Y148956D01*
Y151016D02*X234638D01*
X142218Y153076D02*X142733Y152561D01*
X140673Y153076D02*X142218D01*
X140158Y152561D02*X140673Y153076D01*
X140158Y152561D02*Y149471D01*
X140673Y148956D01*
X142218D01*
X142733Y149471D01*
Y150501D02*Y149471D01*
X142218Y151016D02*X142733Y150501D01*
X141188Y151016D02*X142218D01*
X143970Y153076D02*Y148956D01*
Y153076D02*Y152561D01*
X146545Y149986D01*
Y153076D02*Y148956D01*
X148297Y153076D02*Y148956D01*
X149842Y153076D02*X150357Y152561D01*
Y149471D01*
X149842Y148956D02*X150357Y149471D01*
X147782Y148956D02*X149842D01*
X147782Y153076D02*X149842D01*
X153448Y149471D02*X153963Y148956D01*
X153448Y152561D02*X153963Y153076D01*
X153448Y152561D02*Y149471D01*
X155715Y152561D02*Y148956D01*
Y152561D02*X156230Y153076D01*
X156745D01*
X155200Y151016D02*X156230D01*
X157776Y150501D02*Y149471D01*
Y150501D02*X158291Y151016D01*
X159321D01*
X159836Y150501D01*
Y149471D01*
X159321Y148956D02*X159836Y149471D01*
X158291Y148956D02*X159321D01*
X157776Y149471D02*X158291Y148956D01*
X161588Y150501D02*Y148956D01*
Y150501D02*X162103Y151016D01*
X163133D01*
X161073D02*X161588Y150501D01*
X166739Y148956D02*X168284D01*
X168799Y149471D01*
X168284Y149986D02*X168799Y149471D01*
X166739Y149986D02*X168284D01*
X166224Y150501D02*X166739Y149986D01*
X166224Y150501D02*X166739Y151016D01*
X168284D01*
X168799Y150501D01*
X166224Y149471D02*X166739Y148956D01*
X170551Y151016D02*X172096D01*
X170036Y150501D02*X170551Y151016D01*
X170036Y150501D02*Y149471D01*
X170551Y148956D01*
X172096D01*
X173333Y150501D02*Y149471D01*
Y150501D02*X173848Y151016D01*
X174878D01*
X175393Y150501D01*
Y149471D01*
X174878Y148956D02*X175393Y149471D01*
X173848Y148956D02*X174878D01*
X173333Y149471D02*X173848Y148956D01*
X177145Y150501D02*Y147411D01*
X176630Y151016D02*X177145Y150501D01*
X177660Y151016D01*
X178690D01*
X179205Y150501D01*
Y149471D01*
X178690Y148956D02*X179205Y149471D01*
X177660Y148956D02*X178690D01*
X177145Y149471D02*X177660Y148956D01*
X180957D02*X182502D01*
X180442Y149471D02*X180957Y148956D01*
X180442Y150501D02*Y149471D01*
Y150501D02*X180957Y151016D01*
X181987D01*
X182502Y150501D01*
X180442Y149986D02*X182502D01*
Y150501D02*Y149986D01*
X183739Y153076D02*X184254Y152561D01*
Y149471D01*
X183739Y148956D02*X184254Y149471D01*
X161280Y13478D02*Y10388D01*
Y13478D02*X161795Y13993D01*
X162825D01*
X163340Y13478D01*
Y10388D01*
X162825Y9873D02*X163340Y10388D01*
X161795Y9873D02*X162825D01*
X161280Y10388D02*X161795Y9873D01*
X164577Y13993D02*Y9873D01*
Y11933D02*X166637Y13993D01*
X164577Y11933D02*X166637Y9873D01*
X167874Y10388D02*X170964Y13478D01*
X172201Y13993D02*Y13478D01*
X173231Y12448D01*
X174261Y13478D01*
Y13993D02*Y13478D01*
X173231Y12448D02*Y9873D01*
X175498Y11933D02*X177043D01*
X175498Y9873D02*X177558D01*
X175498Y13993D02*Y9873D01*
Y13993D02*X177558D01*
X180855D02*X181370Y13478D01*
X179310Y13993D02*X180855D01*
X178795Y13478D02*X179310Y13993D01*
X178795Y13478D02*Y12448D01*
X179310Y11933D01*
X180855D01*
X181370Y11418D01*
Y10388D01*
X180855Y9873D02*X181370Y10388D01*
X179310Y9873D02*X180855D01*
X178795Y10388D02*X179310Y9873D01*
X230709Y16068D02*Y12463D01*
X231224Y11948D01*
X232254D01*
X232769Y12463D01*
Y16068D02*Y12463D01*
X234521Y16068D02*Y11948D01*
X234006Y16068D02*X236066D01*
X236581Y15553D01*
Y14523D01*
X236066Y14008D02*X236581Y14523D01*
X234521Y14008D02*X236066D01*
X193929Y14068D02*Y9948D01*
X195474Y14068D02*X195989Y13553D01*
Y10463D01*
X195474Y9948D02*X195989Y10463D01*
X193414Y9948D02*X195474D01*
X193414Y14068D02*X195474D01*
X197226Y13553D02*Y10463D01*
Y13553D02*X197741Y14068D01*
X198771D01*
X199286Y13553D01*
Y10463D01*
X198771Y9948D02*X199286Y10463D01*
X197741Y9948D02*X198771D01*
X197226Y10463D02*X197741Y9948D01*
X200523Y14068D02*Y9948D01*
X202068Y11493D01*
X203613Y9948D01*
Y14068D02*Y9948D01*
X204850Y14068D02*Y9948D01*
Y14068D02*Y13553D01*
X207425Y10978D01*
Y14068D02*Y9948D01*
X208662Y10463D02*X211752Y13553D01*
X212989Y14068D02*Y9948D01*
Y14068D02*Y13553D01*
X215564Y10978D01*
Y14068D02*Y9948D01*
X216801Y13553D02*Y10463D01*
Y13553D02*X217316Y14068D01*
X218346D01*
X218861Y13553D01*
Y10463D01*
X218346Y9948D02*X218861Y10463D01*
X217316Y9948D02*X218346D01*
X216801Y10463D02*X217316Y9948D01*
X165354Y7680D02*Y4075D01*
Y7680D02*X165869Y8195D01*
X167414D01*
X167929Y7680D01*
Y4075D01*
X165354Y6135D02*X167929D01*
X169166Y8195D02*Y4590D01*
X169681Y4075D01*
X170712Y8195D02*Y4590D01*
X171227Y4075D01*
X174627Y5620D02*Y4075D01*
Y5620D02*X175142Y6135D01*
X175657D01*
X176172Y5620D01*
Y4075D01*
Y5620D02*X176687Y6135D01*
X177202D01*
X177717Y5620D01*
Y4075D01*
X174112Y6135D02*X174627Y5620D01*
X178954D02*Y4590D01*
Y5620D02*X179469Y6135D01*
X180499D01*
X181014Y5620D01*
Y4590D01*
X180499Y4075D02*X181014Y4590D01*
X179469Y4075D02*X180499D01*
X178954Y4590D02*X179469Y4075D01*
X182251Y6135D02*Y4590D01*
X182766Y4075D01*
X183796D01*
X184311Y4590D01*
Y6135D02*Y4590D01*
X186063Y5620D02*Y4075D01*
Y5620D02*X186578Y6135D01*
X187093D01*
X187608Y5620D01*
Y4075D01*
X185548Y6135D02*X186063Y5620D01*
X189360Y8195D02*Y4590D01*
X189875Y4075D01*
X188845Y6650D02*X189875D01*
X192760Y8195D02*Y4075D01*
Y5620D02*X193275Y6135D01*
X194305D01*
X194820Y5620D01*
Y4075D01*
X196057Y5620D02*Y4590D01*
Y5620D02*X196572Y6135D01*
X197602D01*
X198117Y5620D01*
Y4590D01*
X197602Y4075D02*X198117Y4590D01*
X196572Y4075D02*X197602D01*
X196057Y4590D02*X196572Y4075D01*
X199354Y8195D02*Y4590D01*
X199869Y4075D01*
X201415D02*X202960D01*
X200900Y4590D02*X201415Y4075D01*
X200900Y5620D02*Y4590D01*
Y5620D02*X201415Y6135D01*
X202445D01*
X202960Y5620D01*
X200900Y5105D02*X202960D01*
Y5620D02*Y5105D01*
X204712Y4075D02*X206257D01*
X206772Y4590D01*
X206257Y5105D02*X206772Y4590D01*
X204712Y5105D02*X206257D01*
X204197Y5620D02*X204712Y5105D01*
X204197Y5620D02*X204712Y6135D01*
X206257D01*
X206772Y5620D01*
X204197Y4590D02*X204712Y4075D01*
X211408Y6135D02*X211923Y5620D01*
X210378Y6135D02*X211408D01*
X209863Y5620D02*X210378Y6135D01*
X209863Y5620D02*Y4590D01*
X210378Y4075D01*
X211923Y6135D02*Y4590D01*
X212438Y4075D01*
X210378D02*X211408D01*
X211923Y4590D01*
X214190Y5620D02*Y4075D01*
Y5620D02*X214705Y6135D01*
X215735D01*
X213675D02*X214190Y5620D01*
X217487Y4075D02*X219032D01*
X216972Y4590D02*X217487Y4075D01*
X216972Y5620D02*Y4590D01*
Y5620D02*X217487Y6135D01*
X218517D01*
X219032Y5620D01*
X216972Y5105D02*X219032D01*
Y5620D02*Y5105D01*
X223668Y6135D02*X224183Y5620D01*
X222638Y6135D02*X223668D01*
X222123Y5620D02*X222638Y6135D01*
X222123Y5620D02*Y4590D01*
X222638Y4075D01*
X223668D01*
X224183Y4590D01*
X222123Y3045D02*X222638Y2530D01*
X223668D01*
X224183Y3045D01*
Y6135D02*Y3045D01*
X225935Y5620D02*Y4075D01*
Y5620D02*X226450Y6135D01*
X227480D01*
X225420D02*X225935Y5620D01*
X228717D02*Y4590D01*
Y5620D02*X229232Y6135D01*
X230262D01*
X230777Y5620D01*
Y4590D01*
X230262Y4075D02*X230777Y4590D01*
X229232Y4075D02*X230262D01*
X228717Y4590D02*X229232Y4075D01*
X232014Y6135D02*Y4590D01*
X232529Y4075D01*
X233559D01*
X234074Y4590D01*
Y6135D02*Y4590D01*
X235826Y5620D02*Y4075D01*
Y5620D02*X236341Y6135D01*
X236856D01*
X237371Y5620D01*
Y4075D01*
X235311Y6135D02*X235826Y5620D01*
X240668Y8195D02*Y4075D01*
X240153D02*X240668Y4590D01*
X239123Y4075D02*X240153D01*
X238608Y4590D02*X239123Y4075D01*
X238608Y5620D02*Y4590D01*
Y5620D02*X239123Y6135D01*
X240153D01*
X240668Y5620D01*
X242420Y4075D02*X243965D01*
X241905Y4590D02*X242420Y4075D01*
X241905Y5620D02*Y4590D01*
Y5620D02*X242420Y6135D01*
X243450D01*
X243965Y5620D01*
X241905Y5105D02*X243965D01*
Y5620D02*Y5105D01*
X247262Y8195D02*Y4075D01*
X246747D02*X247262Y4590D01*
X245717Y4075D02*X246747D01*
X245202Y4590D02*X245717Y4075D01*
X245202Y5620D02*Y4590D01*
Y5620D02*X245717Y6135D01*
X246747D01*
X247262Y5620D01*
X48000Y13480D02*Y9980D01*
Y13480D02*X48500Y13980D01*
X50000D01*
X50500Y13480D01*
Y9980D01*
X48000Y11980D02*X50500D01*
X91463Y52625D02*Y49655D01*
X90968Y53120D02*X91463Y52625D01*
X91958Y53120D01*
X92948D01*
X93443Y52625D01*
Y51635D01*
X92948Y51140D02*X93443Y51635D01*
X91958Y51140D02*X92948D01*
X91463Y51635D02*X91958Y51140D01*
X52819Y6436D02*X53319Y6936D01*
X54319D01*
X54819Y6436D01*
Y3436D01*
X54319Y2936D02*X54819Y3436D01*
X53319Y2936D02*X54319D01*
X52819Y3436D02*X53319Y2936D01*
Y4936D02*X54819D01*
X56020Y2936D02*X56520D01*
X57721Y3436D02*X58221Y2936D01*
X57721Y6436D02*Y3436D01*
Y6436D02*X58221Y6936D01*
X59221D01*
X59721Y6436D01*
Y3436D01*
X59221Y2936D02*X59721Y3436D01*
X58221Y2936D02*X59221D01*
X57721Y3936D02*X59721Y5936D01*
X60922Y3436D02*X61422Y2936D01*
X60922Y6436D02*Y3436D01*
Y6436D02*X61422Y6936D01*
X62422D01*
X62922Y6436D01*
Y3436D01*
X62422Y2936D02*X62922Y3436D01*
X61422Y2936D02*X62422D01*
X60922Y3936D02*X62922Y5936D01*
X64623Y4436D02*Y2936D01*
Y4436D02*X65123Y4936D01*
X65623D01*
X66123Y4436D01*
Y2936D01*
Y4436D02*X66623Y4936D01*
X67123D01*
X67623Y4436D01*
Y2936D01*
X64123Y4936D02*X64623Y4436D01*
X69324D02*Y2936D01*
Y4436D02*X69824Y4936D01*
X70324D01*
X70824Y4436D01*
Y2936D01*
Y4436D02*X71324Y4936D01*
X71824D01*
X72324Y4436D01*
Y2936D01*
X68824Y4936D02*X69324Y4436D01*
X75325Y3436D02*X75825Y2936D01*
X75325Y6436D02*X75825Y6936D01*
X75325Y6436D02*Y3436D01*
X77026D02*X77526Y2936D01*
X77026Y6436D02*Y3436D01*
Y6436D02*X77526Y6936D01*
X78526D01*
X79026Y6436D01*
Y3436D01*
X78526Y2936D02*X79026Y3436D01*
X77526Y2936D02*X78526D01*
X77026Y3936D02*X79026Y5936D01*
X80227Y2936D02*X80727D01*
X82428D02*X83428D01*
X82928Y6936D02*Y2936D01*
X81928Y5936D02*X82928Y6936D01*
X85129Y2936D02*X86129D01*
X85629Y6936D02*Y2936D01*
X84629Y5936D02*X85629Y6936D01*
X87330Y3436D02*X87830Y2936D01*
X87330Y4436D02*Y3436D01*
Y4436D02*X87830Y4936D01*
X88830D01*
X89330Y4436D01*
Y3436D01*
X88830Y2936D02*X89330Y3436D01*
X87830Y2936D02*X88830D01*
X87330Y5436D02*X87830Y4936D01*
X87330Y6436D02*Y5436D01*
Y6436D02*X87830Y6936D01*
X88830D01*
X89330Y6436D01*
Y5436D01*
X88830Y4936D02*X89330Y5436D01*
X90531Y6936D02*Y5936D01*
X91531Y6936D02*Y5936D01*
X92732Y6936D02*X93232Y6436D01*
Y3436D01*
X92732Y2936D02*X93232Y3436D01*
X91463Y46625D02*Y45140D01*
Y46625D02*X91958Y47120D01*
X92948D01*
X90968D02*X91463Y46625D01*
X48000Y2980D02*X50000D01*
X50500Y3480D01*
Y4480D02*Y3480D01*
X50000Y4980D02*X50500Y4480D01*
X48500Y4980D02*X50000D01*
X48500Y6980D02*Y2980D01*
X48000Y6980D02*X50000D01*
X50500Y6480D01*
Y5480D01*
X50000Y4980D02*X50500Y5480D01*
X9000Y27480D02*Y23980D01*
Y27480D02*X9500Y27980D01*
X11000D01*
X11500Y27480D01*
Y23980D01*
X9000Y25980D02*X11500D01*
X30342Y11949D02*X32342D01*
X32842Y12449D01*
Y13449D02*Y12449D01*
X32342Y13949D02*X32842Y13449D01*
X30842Y13949D02*X32342D01*
X30842Y15949D02*Y11949D01*
X30342Y15949D02*X32342D01*
X32842Y15449D01*
Y14449D01*
X32342Y13949D02*X32842Y14449D01*
X53032Y13692D02*X53547Y14207D01*
X54577D01*
X55092Y13692D01*
Y10602D01*
X54577Y10087D02*X55092Y10602D01*
X53547Y10087D02*X54577D01*
X53032Y10602D02*X53547Y10087D01*
Y12147D02*X55092D01*
X56329Y10087D02*X56844D01*
X58081D02*X60141Y12147D01*
Y13692D02*Y12147D01*
X59626Y14207D02*X60141Y13692D01*
X58596Y14207D02*X59626D01*
X58081Y13692D02*X58596Y14207D01*
X58081Y13692D02*Y12662D01*
X58596Y12147D01*
X60141D01*
X61378Y10087D02*X63953Y12662D01*
Y14207D02*Y12662D01*
X61378Y14207D02*X63953D01*
X65705Y11632D02*Y10087D01*
Y11632D02*X66220Y12147D01*
X66735D01*
X67250Y11632D01*
Y10087D01*
Y11632D02*X67765Y12147D01*
X68280D01*
X68795Y11632D01*
Y10087D01*
X65190Y12147D02*X65705Y11632D01*
X70547D02*Y10087D01*
Y11632D02*X71062Y12147D01*
X71577D01*
X72092Y11632D01*
Y10087D01*
Y11632D02*X72607Y12147D01*
X73122D01*
X73637Y11632D01*
Y10087D01*
X70032Y12147D02*X70547Y11632D01*
X76728Y10602D02*X77243Y10087D01*
X76728Y13692D02*X77243Y14207D01*
X76728Y13692D02*Y10602D01*
X78480D02*X78995Y10087D01*
X78480Y13692D02*Y10602D01*
Y13692D02*X78995Y14207D01*
X80025D01*
X80540Y13692D01*
Y10602D01*
X80025Y10087D02*X80540Y10602D01*
X78995Y10087D02*X80025D01*
X78480Y11117D02*X80540Y13177D01*
X81777Y10087D02*X82292D01*
X84044D02*X85074D01*
X84559Y14207D02*Y10087D01*
X83529Y13177D02*X84559Y14207D01*
X86311D02*X88371D01*
X86311D02*Y12147D01*
X86826Y12662D01*
X87856D01*
X88371Y12147D01*
Y10602D01*
X87856Y10087D02*X88371Y10602D01*
X86826Y10087D02*X87856D01*
X86311Y10602D02*X86826Y10087D01*
X91153Y14207D02*X91668Y13692D01*
X90123Y14207D02*X91153D01*
X89608Y13692D02*X90123Y14207D01*
X89608Y13692D02*Y10602D01*
X90123Y10087D01*
X91153Y12147D02*X91668Y11632D01*
X89608Y12147D02*X91153D01*
X90123Y10087D02*X91153D01*
X91668Y10602D01*
Y11632D02*Y10602D01*
X92905Y14207D02*Y13177D01*
X93935Y14207D02*Y13177D01*
X95172Y14207D02*X95687Y13692D01*
Y10602D01*
X95172Y10087D02*X95687Y10602D01*
X92968Y50120D02*Y48635D01*
X93463Y48140D01*
X93958D01*
X94453Y48635D01*
Y50120D02*Y48635D01*
X94948Y48140D01*
X95443D01*
X95938Y48635D01*
Y50120D02*Y48635D01*
X22683Y7406D02*Y3286D01*
X22168D02*X22683Y3801D01*
X21138Y3286D02*X22168D01*
X20623Y3801D02*X21138Y3286D01*
X20623Y4831D02*Y3801D01*
Y4831D02*X21138Y5346D01*
X22168D01*
X22683Y4831D01*
X23920Y6376D02*Y5861D01*
Y4831D02*Y3286D01*
X26496Y5346D02*X27011Y4831D01*
X25466Y5346D02*X26496D01*
X24951Y4831D02*X25466Y5346D01*
X24951Y4831D02*Y3801D01*
X25466Y3286D01*
X27011Y5346D02*Y3801D01*
X27526Y3286D01*
X25466D02*X26496D01*
X27011Y3801D01*
X28763Y3286D02*X29278D01*
X104000Y6490D02*X105980D01*
X106475Y5995D01*
Y5005D01*
X105980Y4510D02*X106475Y5005D01*
X104495Y4510D02*X105980D01*
X104495Y6490D02*Y2530D01*
Y4510D02*X106475Y2530D01*
X107663Y4510D02*X109148D01*
X107663Y2530D02*X109643D01*
X107663Y6490D02*Y2530D01*
Y6490D02*X109643D01*
X110832D02*Y3520D01*
X111822Y2530D01*
X112812Y3520D01*
Y6490D02*Y3520D01*
X114001Y2530D02*X114496D01*
X117962D02*X118952D01*
X118457Y6490D02*Y2530D01*
X117467Y5500D02*X118457Y6490D01*
X1990Y91960D02*X2485Y92455D01*
X1990Y91960D02*Y90475D01*
X2485Y89980D02*X1990Y90475D01*
X2485Y89980D02*X3475D01*
X3970Y90475D01*
Y91960D02*Y90475D01*
Y91960D02*X4465Y92455D01*
X5455D01*
X5950Y91960D02*X5455Y92455D01*
X5950Y91960D02*Y90475D01*
X5455Y89980D02*X5950Y90475D01*
X1990Y93643D02*X5455D01*
X5950Y94138D01*
Y95128D02*Y94138D01*
Y95128D02*X5455Y95623D01*
X1990D02*X5455D01*
X1990Y97307D02*X5950D01*
X1990Y98792D02*Y96812D01*
Y98792D02*X2485Y99287D01*
X3475D01*
X3970Y98792D02*X3475Y99287D01*
X3970Y98792D02*Y97307D01*
Y101961D02*Y100476D01*
X5950Y102456D02*Y100476D01*
X1990D02*X5950D01*
X1990Y102456D02*Y100476D01*
Y105625D02*Y103645D01*
Y105625D02*X2485Y106120D01*
X3475D01*
X3970Y105625D02*X3475Y106120D01*
X3970Y105625D02*Y104140D01*
X1990D02*X5950D01*
X3970D02*X5950Y106120D01*
X2485Y109091D02*X5455D01*
X2485D02*X1990Y109586D01*
Y110576D02*Y109586D01*
Y110576D02*X2485Y111071D01*
X5455D01*
X5950Y110576D02*X5455Y111071D01*
X5950Y110576D02*Y109586D01*
X5455Y109091D02*X5950Y109586D01*
X1990Y114240D02*X2485Y114735D01*
X1990Y114240D02*Y112755D01*
X2485Y112260D02*X1990Y112755D01*
X2485Y112260D02*X3475D01*
X3970Y112755D01*
Y114240D02*Y112755D01*
Y114240D02*X4465Y114735D01*
X5455D01*
X5950Y114240D02*X5455Y114735D01*
X5950Y114240D02*Y112755D01*
X5455Y112260D02*X5950Y112755D01*
X1990Y116419D02*X5950D01*
X1990Y117904D02*X2485Y118399D01*
X5455D01*
X5950Y117904D02*X5455Y118399D01*
X5950Y117904D02*Y115924D01*
X1990Y117904D02*Y115924D01*
G54D61*X7660Y89980D02*X14300D01*
Y93300D02*Y89980D01*
X7660Y96953D02*Y95293D01*
Y96123D02*X14300D01*
Y96953D02*Y95293D01*
X7660Y102267D02*Y98947D01*
Y100607D02*X14300D01*
X10980Y106750D02*Y104260D01*
X14300Y107580D02*Y104260D01*
X7660D02*X14300D01*
X7660Y107580D02*Y104260D01*
Y112562D02*X12640D01*
X14300Y114222D01*
X12640Y115882D01*
X7660D02*X12640D01*
X8490Y117876D02*X7660Y118706D01*
Y120366D02*Y118706D01*
Y120366D02*X8490Y121196D01*
X13470D01*
X14300Y120366D02*X13470Y121196D01*
X14300Y120366D02*Y118706D01*
X13470Y117876D02*X14300Y118706D01*
X10980Y121196D02*Y118706D01*
X14300Y124019D02*Y123189D01*
X8490Y126013D02*X7660Y126843D01*
Y129333D02*Y126843D01*
Y129333D02*X8490Y130163D01*
X10150D01*
X14300Y126013D02*X10150Y130163D01*
X14300D02*Y126013D01*
G54D60*X40500Y152480D02*Y149480D01*
Y152480D02*X41000Y152980D01*
X42000D01*
X42500Y152480D01*
Y149480D01*
X42000Y148980D02*X42500Y149480D01*
X41000Y148980D02*X42000D01*
X40500Y149480D02*X41000Y148980D01*
X43701Y152980D02*Y148980D01*
Y152980D02*Y152480D01*
X46201Y149980D01*
Y152980D02*Y148980D01*
X51202Y152980D02*X51702Y152480D01*
X49702Y152980D02*X51202D01*
X49202Y152480D02*X49702Y152980D01*
X49202Y152480D02*Y151480D01*
X49702Y150980D01*
X51202D01*
X51702Y150480D01*
Y149480D01*
X51202Y148980D02*X51702Y149480D01*
X49702Y148980D02*X51202D01*
X49202Y149480D02*X49702Y148980D01*
X53403D02*X54903D01*
X52903Y149480D02*X53403Y148980D01*
X52903Y152480D02*Y149480D01*
Y152480D02*X53403Y152980D01*
X54903D01*
X56104D02*X58104D01*
X58604Y152480D01*
Y151480D01*
X58104Y150980D02*X58604Y151480D01*
X56604Y150980D02*X58104D01*
X56604Y152980D02*Y148980D01*
Y150980D02*X58604Y148980D01*
X59805Y150980D02*X61305D01*
X59805Y148980D02*X61805D01*
X59805Y152980D02*Y148980D01*
Y152980D02*X61805D01*
X63006Y150980D02*X64506D01*
X63006Y148980D02*X65006D01*
X63006Y152980D02*Y148980D01*
Y152980D02*X65006D01*
X66207D02*Y148980D01*
Y152980D02*Y152480D01*
X68707Y149980D01*
Y152980D02*Y148980D01*
X72208Y152980D02*Y148980D01*
X73708Y152980D02*X74208Y152480D01*
Y149480D01*
X73708Y148980D02*X74208Y149480D01*
X71708Y148980D02*X73708D01*
X71708Y152980D02*X73708D01*
X75409D02*X76409D01*
X75909D02*Y148980D01*
X75409D02*X76409D01*
X79610Y152980D02*X80110Y152480D01*
X78110Y152980D02*X79610D01*
X77610Y152480D02*X78110Y152980D01*
X77610Y152480D02*Y151480D01*
X78110Y150980D01*
X79610D01*
X80110Y150480D01*
Y149480D01*
X79610Y148980D02*X80110Y149480D01*
X78110Y148980D02*X79610D01*
X77610Y149480D02*X78110Y148980D01*
X81811Y152980D02*Y148980D01*
X81311Y152980D02*X83311D01*
X83811Y152480D01*
Y151480D01*
X83311Y150980D02*X83811Y151480D01*
X81811Y150980D02*X83311D01*
X85012Y152980D02*Y148980D01*
X87012D01*
X88213Y152480D02*Y148980D01*
Y152480D02*X88713Y152980D01*
X90213D01*
X90713Y152480D01*
Y148980D01*
X88213Y150980D02*X90713D01*
X91914Y152980D02*Y152480D01*
X92914Y151480D01*
X93914Y152480D01*
Y152980D02*Y152480D01*
X92914Y151480D02*Y148980D01*
X96915Y152980D02*Y148980D01*
Y152980D02*X98415Y151480D01*
X99915Y152980D01*
Y148980D01*
X101116Y152480D02*Y149480D01*
Y152480D02*X101616Y152980D01*
X102616D01*
X103116Y152480D01*
Y149480D01*
X102616Y148980D02*X103116Y149480D01*
X101616Y148980D02*X102616D01*
X101116Y149480D02*X101616Y148980D01*
X104817Y152980D02*Y148980D01*
X106317Y152980D02*X106817Y152480D01*
Y149480D01*
X106317Y148980D02*X106817Y149480D01*
X104317Y148980D02*X106317D01*
X104317Y152980D02*X106317D01*
X108018D02*Y149480D01*
X108518Y148980D01*
X109518D01*
X110018Y149480D01*
Y152980D02*Y149480D01*
X111219Y152980D02*Y148980D01*
X113219D01*
X114420Y150980D02*X115920D01*
X114420Y148980D02*X116420D01*
X114420Y152980D02*Y148980D01*
Y152980D02*X116420D01*
G54D11*X134964Y36490D02*X148864D01*
X134964D02*Y23690D01*
X148864D01*
Y36490D02*Y23690D01*
G54D62*X144764Y52090D02*Y45090D01*
X132764Y52090D02*X144764D01*
X132764D02*Y45090D01*
X144764D01*
X143764Y52090D02*Y45090D01*
G54D11*X76334Y43578D02*Y19956D01*
X102168Y43578D02*Y19956D01*
G54D62*X111708Y38452D02*Y33728D01*
X104228Y38452D02*Y33728D01*
G54D11*X223441Y47106D02*X247063D01*
X223441Y23484D02*X247063D01*
X223441Y47106D02*Y23484D01*
X247063Y47106D02*Y23484D01*
X255764Y42590D02*Y22590D01*
X265764D01*
Y42590D01*
X255764D01*
Y32590D02*X265764D01*
Y42590D01*
X151811Y47106D02*X175433D01*
X151811Y23484D02*X175433D01*
X151811Y47106D02*Y23484D01*
X175433Y47106D02*Y23484D01*
X190164Y55890D02*Y41990D01*
X177364Y55890D02*X190164D01*
X177364D02*Y41990D01*
X190164D01*
X192811Y47106D02*X216433D01*
X192811Y23484D02*X216433D01*
X192811Y47106D02*Y23484D01*
X216433Y47106D02*Y23484D01*
X19968Y56090D02*X69968D01*
Y66090D02*Y56090D01*
X19968Y66090D02*X69968D01*
X19968D02*Y56090D01*
X29968Y66090D02*Y56090D01*
X19968Y66090D02*X29968D01*
G54D62*X124764Y52090D02*Y45090D01*
X112764Y52090D02*X124764D01*
X112764D02*Y45090D01*
X124764D01*
X123764Y52090D02*Y45090D01*
X88968Y52090D02*Y45090D01*
X76968Y52090D02*X88968D01*
X76968D02*Y45090D01*
X88968D01*
X87968Y52090D02*Y45090D01*
G54D11*X117764Y23590D02*X131664D01*
Y36390D02*Y23590D01*
X117764Y36390D02*X131664D01*
X117764D02*Y23590D01*
G54D62*X38511Y30169D02*X43235D01*
X38511Y37649D02*X43235D01*
X87481Y106627D02*X123151D01*
Y68057D01*
X84581D01*
Y103727D01*
X87481Y106627D01*
X86481Y103727D02*G75*G03X86481Y103727I1000J0D01*G01*
G54D11*X23468Y106790D02*Y92890D01*
X36268D01*
Y106790D01*
X23468D01*
X37968Y90090D02*X67968D01*
X37968D02*Y80090D01*
X67968D01*
Y90090D02*Y80090D01*
X57968Y90090D02*Y80090D01*
X67968D01*
X50768Y104990D02*X59968D01*
X63768D02*X73068D01*
Y93190D01*
X50768D01*
Y104990D01*
X59968D02*G75*G03X63768Y104990I1900J0D01*G01*
X16768Y85590D02*X30668D01*
X16768D02*Y72790D01*
X30668D01*
Y85590D02*Y72790D01*
X40402Y134696D02*Y113484D01*
X71534D01*
Y134696D02*Y113484D01*
X40402Y134696D02*X53468D01*
X58468D02*X71534D01*
X53468D02*G75*G03X58468Y134696I2500J0D01*G01*
X35968Y140090D02*Y110090D01*
X25968Y140090D02*X35968D01*
X25968D02*Y110090D01*
X35968D01*
X25968Y120090D02*X35968D01*
X25968D02*Y110090D01*
X77268Y141090D02*X91168D01*
X77268D02*Y129290D01*
X91168D01*
Y141090D02*Y129290D01*
X19968Y48090D02*Y18090D01*
X29968D01*
Y48090D02*Y18090D01*
X19968Y48090D02*X29968D01*
X19968Y38090D02*X29968D01*
Y48090D02*Y38090D01*
G54D15*X48268Y26590D02*Y19590D01*
G54D11*Y26590D02*X45768Y27590D01*
X32668D02*X45768D01*
X32668D02*Y18590D01*
X45768D01*
X48268Y19590D01*
G54D62*X37968Y54090D02*Y47090D01*
X49968D01*
Y54090D01*
X37968D01*
X38968D02*Y47090D01*
G54D15*X72268Y26590D02*Y19590D01*
G54D11*Y26590D02*X69768Y27590D01*
X56668D02*X69768D01*
X56668D02*Y18590D01*
X69768D01*
X72268Y19590D01*
X56268Y42090D02*X70168D01*
X56268D02*Y30290D01*
X70168D01*
Y42090D02*Y30290D01*
G54D62*X62575Y43335D02*X63361D01*
X62575Y48845D02*X63361D01*
G54D11*X138264Y78090D02*Y64190D01*
X151064D01*
Y78090D01*
X138264D01*
X132264Y94590D02*X151264D01*
Y125590D02*Y94590D01*
X132264Y125590D02*X151264D01*
X132264Y107590D02*Y94590D01*
Y125590D02*Y112590D01*
Y107590D02*G75*G03X132264Y112590I0J2500D01*G01*
X108268Y116790D02*X122168D01*
Y129590D02*Y116790D01*
X108268Y129590D02*X122168D01*
X108268D02*Y116790D01*
X109764Y142090D02*X149764D01*
X109764D02*Y132090D01*
X149764D01*
Y142090D02*Y132090D01*
X139764Y142090D02*Y132090D01*
X149764D01*
X224264Y137090D02*Y118090D01*
X255264D01*
Y137090D01*
X224264D02*X237264D01*
X255264D02*X242264D01*
X237264D02*G75*G03X242264Y137090I2500J0D01*G01*
X256464Y123790D02*Y109890D01*
X269264D01*
Y123790D01*
X256464D01*
X228264Y116090D02*Y102190D01*
X241064D01*
Y116090D01*
X228264D01*
X255764Y108090D02*Y78090D01*
X265764D01*
Y108090D01*
X255764D01*
Y98090D02*X265764D01*
Y108090D01*
X239864Y78590D02*X253764D01*
X239864D02*Y65790D01*
X253764D01*
Y78590D02*Y65790D01*
X268764Y108090D02*Y68090D01*
X278764D01*
Y108090D01*
X268764D01*
Y98090D02*X278764D01*
Y108090D01*
X265764Y74090D02*Y44090D01*
X255764Y74090D02*X265764D01*
X255764D02*Y44090D01*
X265764D01*
X255764Y54090D02*X265764D01*
X255764D02*Y44090D01*
X199764Y64090D02*X249764D01*
X199764D02*Y54090D01*
X249764D01*
Y64090D02*Y54090D01*
X239764Y64090D02*Y54090D01*
X249764D01*
X171764Y141090D02*Y121090D01*
X181764D01*
Y141090D01*
X171764D01*
Y131090D02*X181764D01*
Y141090D01*
X218427Y112298D02*X226880Y94171D01*
X209364Y108071D02*X217817Y89944D01*
X218427Y112298D02*G75*G03X209364Y108070I-4531J-2113D01*G01*
X217817Y89945D02*G75*G03X226880Y94171I4531J2113D01*G01*
G54D62*X163230Y105847D02*X198900D01*
Y67277D01*
X160330D02*X198900D01*
X160330Y102947D02*Y67277D01*
Y102947D02*X163230Y105847D01*
X162230Y102947D02*G75*G03X162230Y102947I1000J0D01*G01*
G54D11*X196264Y128422D02*G75*G03X196264Y128421I5000J-8660D01*G01*
G54D60*X124818Y69740D02*X126818D01*
X127318Y69240D01*
Y68240D01*
X126818Y67740D02*X127318Y68240D01*
X125318Y67740D02*X126818D01*
X125318Y69740D02*Y65740D01*
Y67740D02*X127318Y65740D01*
X129019D02*X130019D01*
X129519Y69740D02*Y65740D01*
X128519Y68740D02*X129519Y69740D01*
X118791Y57638D02*X120791D01*
X121291Y57138D01*
Y56138D01*
X120791Y55638D02*X121291Y56138D01*
X119291Y55638D02*X120791D01*
X119291Y57638D02*Y53638D01*
Y55638D02*X121291Y53638D01*
X122492Y57138D02*X122992Y57638D01*
X123992D01*
X124492Y57138D01*
Y54138D01*
X123992Y53638D02*X124492Y54138D01*
X122992Y53638D02*X123992D01*
X122492Y54138D02*X122992Y53638D01*
Y55638D02*X124492D01*
X125693Y54138D02*X126193Y53638D01*
X125693Y57138D02*Y54138D01*
Y57138D02*X126193Y57638D01*
X127193D01*
X127693Y57138D01*
Y54138D01*
X127193Y53638D02*X127693Y54138D01*
X126193Y53638D02*X127193D01*
X125693Y54638D02*X127693Y56638D01*
X153064Y69590D02*X156564D01*
X153064D02*X152564Y69090D01*
Y68090D01*
X153064Y67590D01*
X156564D01*
X153064Y66389D02*X152564Y65889D01*
X153064Y66389D02*X154064D01*
X154564Y65889D01*
Y64889D01*
X154064Y64389D01*
X153064D02*X154064D01*
X152564Y64889D02*X153064Y64389D01*
X152564Y65889D02*Y64889D01*
X155064Y66389D02*X154564Y65889D01*
X155064Y66389D02*X156064D01*
X156564Y65889D01*
Y64889D01*
X156064Y64389D01*
X155064D02*X156064D01*
X154564Y64889D02*X155064Y64389D01*
X146264Y54090D02*Y50090D01*
X148264D01*
X149465Y52090D02*X150965D01*
X149465Y50090D02*X151465D01*
X149465Y54090D02*Y50090D01*
Y54090D02*X151465D01*
X153166D02*Y50090D01*
X154666Y54090D02*X155166Y53590D01*
Y50590D01*
X154666Y50090D02*X155166Y50590D01*
X152666Y50090D02*X154666D01*
X152666Y54090D02*X154666D01*
X156367Y53590D02*X156867Y54090D01*
X157867D01*
X158367Y53590D01*
Y50590D01*
X157867Y50090D02*X158367Y50590D01*
X156867Y50090D02*X157867D01*
X156367Y50590D02*X156867Y50090D01*
Y52090D02*X158367D01*
X131803Y52816D02*X133303D01*
X131303Y53316D02*X131803Y52816D01*
X131303Y56316D02*Y53316D01*
Y56316D02*X131803Y56816D01*
X133303D01*
X134504Y56316D02*X135004Y56816D01*
X136504D01*
X137004Y56316D01*
Y55316D01*
X134504Y52816D02*X137004Y55316D01*
X134504Y52816D02*X137004D01*
X138205Y56816D02*X140205D01*
X138205D02*Y54816D01*
X138705Y55316D01*
X139705D01*
X140205Y54816D01*
Y53316D01*
X139705Y52816D02*X140205Y53316D01*
X138705Y52816D02*X139705D01*
X138205Y53316D02*X138705Y52816D01*
X177145Y34028D02*X179145D01*
X179645Y33528D01*
Y32528D01*
X179145Y32028D02*X179645Y32528D01*
X177645Y32028D02*X179145D01*
X177645Y34028D02*Y30028D01*
Y32028D02*X179645Y30028D01*
X181346D02*X182346D01*
X181846Y34028D02*Y30028D01*
X180846Y33028D02*X181846Y34028D01*
X185047D02*X185547Y33528D01*
X184047Y34028D02*X185047D01*
X183547Y33528D02*X184047Y34028D01*
X183547Y33528D02*Y30528D01*
X184047Y30028D01*
X185047Y32028D02*X185547Y31528D01*
X183547Y32028D02*X185047D01*
X184047Y30028D02*X185047D01*
X185547Y30528D01*
Y31528D02*Y30528D01*
X165622Y34295D02*X166122Y33795D01*
X164122Y34295D02*X165622D01*
X163622Y33795D02*X164122Y34295D01*
X163622Y33795D02*Y32795D01*
X164122Y32295D01*
X165622D01*
X166122Y31795D01*
Y30795D01*
X165622Y30295D02*X166122Y30795D01*
X164122Y30295D02*X165622D01*
X163622Y30795D02*X164122Y30295D01*
X167323Y33795D02*X167823Y34295D01*
X168823D01*
X169323Y33795D01*
Y30795D01*
X168823Y30295D02*X169323Y30795D01*
X167823Y30295D02*X168823D01*
X167323Y30795D02*X167823Y30295D01*
Y32295D02*X169323D01*
X159850Y57130D02*X161850D01*
X162350Y56630D01*
Y55630D01*
X161850Y55130D02*X162350Y55630D01*
X160350Y55130D02*X161850D01*
X160350Y57130D02*Y53130D01*
Y55130D02*X162350Y53130D01*
X163551Y55130D02*X165551Y57130D01*
X163551Y55130D02*X166051D01*
X165551Y57130D02*Y53130D01*
X167252Y53630D02*X167752Y53130D01*
X167252Y56630D02*Y53630D01*
Y56630D02*X167752Y57130D01*
X168752D01*
X169252Y56630D01*
Y53630D01*
X168752Y53130D02*X169252Y53630D01*
X167752Y53130D02*X168752D01*
X167252Y54130D02*X169252Y56130D01*
X140350Y38630D02*X142350D01*
X142850Y38130D01*
Y37130D01*
X142350Y36630D02*X142850Y37130D01*
X140850Y36630D02*X142350D01*
X140850Y38630D02*Y34630D01*
Y36630D02*X142850Y34630D01*
X144051Y36630D02*X146051Y38630D01*
X144051Y36630D02*X146551D01*
X146051Y38630D02*Y34630D01*
X148252D02*X149252D01*
X148752Y38630D02*Y34630D01*
X147752Y37630D02*X148752Y38630D01*
X126826Y44971D02*Y42971D01*
Y44971D02*X127326Y45471D01*
X128326D01*
X128826Y44971D02*X128326Y45471D01*
X128826Y44971D02*Y43471D01*
X126826D02*X130826D01*
X128826D02*X130826Y45471D01*
X128826Y46672D02*X126826Y48672D01*
X128826Y49172D02*Y46672D01*
X126826Y48672D02*X130826D01*
X127326Y50373D02*X126826Y50873D01*
Y52373D02*Y50873D01*
Y52373D02*X127326Y52873D01*
X128326D01*
X130826Y50373D02*X128326Y52873D01*
X130826D02*Y50373D01*
X127264Y22390D02*Y19390D01*
Y22390D02*X127764Y22890D01*
X128764D01*
X129264Y22390D01*
Y19390D01*
X128764Y18890D02*X129264Y19390D01*
X127764Y18890D02*X128764D01*
X127264Y19390D02*X127764Y18890D01*
X128264Y19890D02*X129264Y18890D01*
X130465Y22390D02*X130965Y22890D01*
X131965D01*
X132465Y22390D01*
Y19390D01*
X131965Y18890D02*X132465Y19390D01*
X130965Y18890D02*X131965D01*
X130465Y19390D02*X130965Y18890D01*
Y20890D02*X132465D01*
X134136Y22770D02*Y19770D01*
Y22770D02*X134636Y23270D01*
X135636D01*
X136136Y22770D01*
Y19770D01*
X135636Y19270D02*X136136Y19770D01*
X134636Y19270D02*X135636D01*
X134136Y19770D02*X134636Y19270D01*
X135136Y20270D02*X136136Y19270D01*
X137337Y22770D02*X137837Y23270D01*
X139337D01*
X139837Y22770D01*
Y21770D01*
X137337Y19270D02*X139837Y21770D01*
X137337Y19270D02*X139837D01*
X124291Y11138D02*X126291D01*
X126791Y10638D01*
Y9638D01*
X126291Y9138D02*X126791Y9638D01*
X124791Y9138D02*X126291D01*
X124791Y11138D02*Y7138D01*
Y9138D02*X126791Y7138D01*
X127992Y10638D02*X128492Y11138D01*
X129492D01*
X129992Y10638D01*
Y7638D01*
X129492Y7138D02*X129992Y7638D01*
X128492Y7138D02*X129492D01*
X127992Y7638D02*X128492Y7138D01*
Y9138D02*X129992D01*
X131193Y10638D02*X131693Y11138D01*
X133193D01*
X133693Y10638D01*
Y9638D01*
X131193Y7138D02*X133693Y9638D01*
X131193Y7138D02*X133693D01*
X114122Y15988D02*X116122D01*
X116622Y15488D01*
Y14488D01*
X116122Y13988D02*X116622Y14488D01*
X114622Y13988D02*X116122D01*
X114622Y15988D02*Y11988D01*
Y13988D02*X116622Y11988D01*
X117823Y15488D02*X118323Y15988D01*
X119323D01*
X119823Y15488D01*
Y12488D01*
X119323Y11988D02*X119823Y12488D01*
X118323Y11988D02*X119323D01*
X117823Y12488D02*X118323Y11988D01*
Y13988D02*X119823D01*
X121024Y15488D02*X121524Y15988D01*
X122524D01*
X123024Y15488D01*
Y12488D01*
X122524Y11988D02*X123024Y12488D01*
X121524Y11988D02*X122524D01*
X121024Y12488D02*X121524Y11988D01*
Y13988D02*X123024D01*
X113882Y19720D02*Y18220D01*
X113382Y17720D02*X113882Y18220D01*
X110382Y17720D02*X113382D01*
X110382D02*X109882Y18220D01*
Y19720D02*Y18220D01*
X113882Y22421D02*Y21421D01*
X109882Y21921D02*X113882D01*
X110882Y20921D02*X109882Y21921D01*
X113882Y23622D02*X111382Y26122D01*
X109882D02*X111382D01*
X109882D02*Y23622D01*
X167614Y20240D02*X169614D01*
X170114Y19740D01*
Y18740D01*
X169614Y18240D02*X170114Y18740D01*
X168114Y18240D02*X169614D01*
X168114Y20240D02*Y16240D01*
Y18240D02*X170114Y16240D01*
X171315Y19740D02*X171815Y20240D01*
X172815D01*
X173315Y19740D01*
Y16740D01*
X172815Y16240D02*X173315Y16740D01*
X171815Y16240D02*X172815D01*
X171315Y16740D02*X171815Y16240D01*
Y18240D02*X173315D01*
X176016Y20240D02*X176516Y19740D01*
X175016Y20240D02*X176016D01*
X174516Y19740D02*X175016Y20240D01*
X174516Y19740D02*Y16740D01*
X175016Y16240D01*
X176016Y18240D02*X176516Y17740D01*
X174516Y18240D02*X176016D01*
X175016Y16240D02*X176016D01*
X176516Y16740D01*
Y17740D02*Y16740D01*
X144129Y89485D02*X145629D01*
X143629Y89985D02*X144129Y89485D01*
X143629Y92985D02*Y89985D01*
Y92985D02*X144129Y93485D01*
X145629D01*
X147330Y89485D02*X148330D01*
X147830Y93485D02*Y89485D01*
X146830Y92485D02*X147830Y93485D01*
X149531Y89485D02*X151531Y91485D01*
Y92985D02*Y91485D01*
X151031Y93485D02*X151531Y92985D01*
X150031Y93485D02*X151031D01*
X149531Y92985D02*X150031Y93485D01*
X149531Y92985D02*Y91985D01*
X150031Y91485D01*
X151531D01*
X233252Y33295D02*X233752Y32795D01*
X231752Y33295D02*X233252D01*
X231252Y32795D02*X231752Y33295D01*
X231252Y32795D02*Y31795D01*
X231752Y31295D01*
X233252D01*
X233752Y30795D01*
Y29795D01*
X233252Y29295D02*X233752Y29795D01*
X231752Y29295D02*X233252D01*
X231252Y29795D02*X231752Y29295D01*
X234953Y32795D02*X235453Y33295D01*
X236953D01*
X237453Y32795D01*
Y31795D01*
X234953Y29295D02*X237453Y31795D01*
X234953Y29295D02*X237453D01*
X243414Y41740D02*Y39740D01*
X242914Y39240D01*
X241914D02*X242914D01*
X241414Y39740D02*X241914Y39240D01*
X241414Y41240D02*Y39740D01*
X239414Y41240D02*X243414D01*
X241414D02*X239414Y39240D01*
Y38039D02*X243414D01*
Y36039D01*
X241414Y38039D02*Y36539D01*
Y34838D02*X243414Y32838D01*
X241414Y34838D02*Y32338D01*
X239414Y32838D02*X243414D01*
X243240Y17394D02*X244740D01*
X242740Y17894D02*X243240Y17394D01*
X242740Y20894D02*Y17894D01*
Y20894D02*X243240Y21394D01*
X244740D01*
X245941Y20894D02*X246441Y21394D01*
X247441D01*
X247941Y20894D01*
Y17894D01*
X247441Y17394D02*X247941Y17894D01*
X246441Y17394D02*X247441D01*
X245941Y17894D02*X246441Y17394D01*
Y19394D02*X247941D01*
X249142Y20894D02*X249642Y21394D01*
X251142D01*
X251642Y20894D01*
Y19894D01*
X249142Y17394D02*X251642Y19894D01*
X249142Y17394D02*X251642D01*
X267050Y41405D02*Y39905D01*
X267550Y41905D02*X267050Y41405D01*
X267550Y41905D02*X270550D01*
X271050Y41405D01*
Y39905D01*
X267550Y38704D02*X270550D01*
X271050Y38204D01*
Y37204D01*
X270550Y36704D01*
X267550D02*X270550D01*
X267050Y37204D02*X267550Y36704D01*
X267050Y38204D02*Y37204D01*
X267550Y38704D02*X267050Y38204D01*
Y35503D02*X271050D01*
X270550D02*X271050D01*
X270550D02*X268050Y33003D01*
X267050D02*X271050D01*
X267050Y31802D02*X271050D01*
X270550D02*X271050D01*
X270550D02*X268050Y29302D01*
X267050D02*X271050D01*
X267050Y27601D02*Y26601D01*
Y27101D02*X271050D01*
X270050Y28101D02*X271050Y27101D01*
X267050Y24900D02*Y23900D01*
Y24400D02*X271050D01*
X270050Y25400D02*X271050Y24400D01*
X179673Y19248D02*X181673D01*
X182173Y18748D01*
Y17748D01*
X181673Y17248D02*X182173Y17748D01*
X180173Y17248D02*X181673D01*
X180173Y19248D02*Y15248D01*
Y17248D02*X182173Y15248D01*
X183374Y18748D02*X183874Y19248D01*
X184874D01*
X185374Y18748D01*
Y15748D01*
X184874Y15248D02*X185374Y15748D01*
X183874Y15248D02*X184874D01*
X183374Y15748D02*X183874Y15248D01*
Y17248D02*X185374D01*
X186575Y15248D02*X189075Y17748D01*
Y19248D02*Y17748D01*
X186575Y19248D02*X189075D01*
X200996Y17756D02*X202996D01*
X203496Y17256D01*
Y16256D01*
X202996Y15756D02*X203496Y16256D01*
X201496Y15756D02*X202996D01*
X201496Y17756D02*Y13756D01*
Y15756D02*X203496Y13756D01*
X204697Y17256D02*X205197Y17756D01*
X206197D01*
X206697Y17256D01*
Y14256D01*
X206197Y13756D02*X206697Y14256D01*
X205197Y13756D02*X206197D01*
X204697Y14256D02*X205197Y13756D01*
Y15756D02*X206697D01*
X207898D02*X209898Y17756D01*
X207898Y15756D02*X210398D01*
X209898Y17756D02*Y13756D01*
X267614Y65590D02*Y64090D01*
X268114Y66090D02*X267614Y65590D01*
X268114Y66090D02*X271114D01*
X271614Y65590D01*
Y64090D01*
X268114Y62889D02*X271114D01*
X271614Y62389D01*
Y61389D01*
X271114Y60889D01*
X268114D02*X271114D01*
X267614Y61389D02*X268114Y60889D01*
X267614Y62389D02*Y61389D01*
X268114Y62889D02*X267614Y62389D01*
Y59688D02*X271614D01*
X271114D02*X271614D01*
X271114D02*X268614Y57188D01*
X267614D02*X271614D01*
X267614Y55987D02*X271614D01*
X271114D02*X271614D01*
X271114D02*X268614Y53487D01*
X267614D02*X271614D01*
X267614Y52286D02*X269614Y50286D01*
X271114D01*
X271614Y50786D02*X271114Y50286D01*
X271614Y51786D02*Y50786D01*
X271114Y52286D02*X271614Y51786D01*
X270114Y52286D02*X271114D01*
X270114D02*X269614Y51786D01*
Y50286D01*
X199791Y55622D02*X201791D01*
X202291Y55122D01*
Y54122D01*
X201791Y53622D02*X202291Y54122D01*
X200291Y53622D02*X201791D01*
X200291Y55622D02*Y51622D01*
Y53622D02*X202291Y51622D01*
X203492Y53622D02*X205492Y55622D01*
X203492Y53622D02*X205992D01*
X205492Y55622D02*Y51622D01*
X207193Y53622D02*X209193Y55622D01*
X207193Y53622D02*X209693D01*
X209193Y55622D02*Y51622D01*
X250610Y63216D02*Y61716D01*
X251110Y63716D02*X250610Y63216D01*
X251110Y63716D02*X254110D01*
X254610Y63216D01*
Y61716D01*
X251110Y60515D02*X254110D01*
X254610Y60015D01*
Y59015D01*
X254110Y58515D01*
X251110D02*X254110D01*
X250610Y59015D02*X251110Y58515D01*
X250610Y60015D02*Y59015D01*
X251110Y60515D02*X250610Y60015D01*
Y57314D02*X254610D01*
X254110D02*X254610D01*
X254110D02*X251610Y54814D01*
X250610D02*X254610D01*
X250610Y53613D02*X254610D01*
X254110D02*X254610D01*
X254110D02*X251610Y51113D01*
X250610D02*X254610D01*
X250610Y49912D02*X253110Y47412D01*
X254610D01*
Y49912D02*Y47412D01*
X200736Y65370D02*X202236D01*
X200236Y65870D02*X200736Y65370D01*
X200236Y68870D02*Y65870D01*
Y68870D02*X200736Y69370D01*
X202236D01*
X203437Y68870D02*Y65870D01*
Y68870D02*X203937Y69370D01*
X204937D01*
X205437Y68870D01*
Y65870D01*
X204937Y65370D02*X205437Y65870D01*
X203937Y65370D02*X204937D01*
X203437Y65870D02*X203937Y65370D01*
X206638Y69370D02*Y65370D01*
Y69370D02*Y68870D01*
X209138Y66370D01*
Y69370D02*Y65370D01*
X210339Y69370D02*Y65370D01*
Y69370D02*Y68870D01*
X212839Y66370D01*
Y69370D02*Y65370D01*
X214040Y69370D02*X216040D01*
X214040D02*Y67370D01*
X214540Y67870D01*
X215540D01*
X216040Y67370D01*
Y65870D01*
X215540Y65370D02*X216040Y65870D01*
X214540Y65370D02*X215540D01*
X214040Y65870D02*X214540Y65370D01*
X221244Y52240D02*X223244D01*
X223744Y51740D01*
Y50740D01*
X223244Y50240D02*X223744Y50740D01*
X221744Y50240D02*X223244D01*
X221744Y52240D02*Y48240D01*
Y50240D02*X223744Y48240D01*
X224945Y51740D02*X225445Y52240D01*
X226445D01*
X226945Y51740D01*
Y48740D01*
X226445Y48240D02*X226945Y48740D01*
X225445Y48240D02*X226445D01*
X224945Y48740D02*X225445Y48240D01*
Y50240D02*X226945D01*
X228146Y48240D02*X230146Y50240D01*
Y51740D02*Y50240D01*
X229646Y52240D02*X230146Y51740D01*
X228646Y52240D02*X229646D01*
X228146Y51740D02*X228646Y52240D01*
X228146Y51740D02*Y50740D01*
X228646Y50240D01*
X230146D01*
X191664Y55490D02*Y51990D01*
X192164Y51490D01*
X193164D01*
X193664Y51990D01*
Y55490D02*Y51990D01*
X196365Y55490D02*X196865Y54990D01*
X195365Y55490D02*X196365D01*
X194865Y54990D02*X195365Y55490D01*
X194865Y54990D02*Y51990D01*
X195365Y51490D01*
X196365Y53490D02*X196865Y52990D01*
X194865Y53490D02*X196365D01*
X195365Y51490D02*X196365D01*
X196865Y51990D01*
Y52990D02*Y51990D01*
X191465Y40673D02*Y38673D01*
X190965Y38173D01*
X189965D02*X190965D01*
X189465Y38673D02*X189965Y38173D01*
X189465Y40173D02*Y38673D01*
X187465Y40173D02*X191465D01*
X189465D02*X187465Y38173D01*
X190965Y36972D02*X191465Y36472D01*
Y35472D01*
X190965Y34972D01*
X187965D02*X190965D01*
X187465Y35472D02*X187965Y34972D01*
X187465Y36472D02*Y35472D01*
X187965Y36972D02*X187465Y36472D01*
X189465D02*Y34972D01*
X187965Y33771D02*X187465Y33271D01*
X187965Y33771D02*X188965D01*
X189465Y33271D01*
Y32271D01*
X188965Y31771D01*
X187965D02*X188965D01*
X187465Y32271D02*X187965Y31771D01*
X187465Y33271D02*Y32271D01*
X189965Y33771D02*X189465Y33271D01*
X189965Y33771D02*X190965D01*
X191465Y33271D01*
Y32271D01*
X190965Y31771D01*
X189965D02*X190965D01*
X189465Y32271D02*X189965Y31771D01*
X206622Y34295D02*X207122Y33795D01*
X205122Y34295D02*X206622D01*
X204622Y33795D02*X205122Y34295D01*
X204622Y33795D02*Y32795D01*
X205122Y32295D01*
X206622D01*
X207122Y31795D01*
Y30795D01*
X206622Y30295D02*X207122Y30795D01*
X205122Y30295D02*X206622D01*
X204622Y30795D02*X205122Y30295D01*
X208823D02*X209823D01*
X209323Y34295D02*Y30295D01*
X208323Y33295D02*X209323Y34295D01*
X221586Y19520D02*X223586D01*
X224086Y19020D01*
Y18020D01*
X223586Y17520D02*X224086Y18020D01*
X222086Y17520D02*X223586D01*
X222086Y19520D02*Y15520D01*
Y17520D02*X224086Y15520D01*
X225287Y19020D02*X225787Y19520D01*
X226787D01*
X227287Y19020D01*
Y16020D01*
X226787Y15520D02*X227287Y16020D01*
X225787Y15520D02*X226787D01*
X225287Y16020D02*X225787Y15520D01*
Y17520D02*X227287D01*
X228488Y19520D02*X230488D01*
X228488D02*Y17520D01*
X228988Y18020D01*
X229988D01*
X230488Y17520D01*
Y16020D01*
X229988Y15520D02*X230488Y16020D01*
X228988Y15520D02*X229988D01*
X228488Y16020D02*X228988Y15520D01*
X139150Y85130D02*Y83630D01*
X139650Y85630D02*X139150Y85130D01*
X139650Y85630D02*X142650D01*
X143150Y85130D01*
Y83630D01*
X142650Y82429D02*X143150Y81929D01*
Y80429D01*
X142650Y79929D01*
X141650D02*X142650D01*
X139150Y82429D02*X141650Y79929D01*
X139150Y82429D02*Y79929D01*
X133078Y85409D02*Y83909D01*
X133578Y85909D02*X133078Y85409D01*
X133578Y85909D02*X136578D01*
X137078Y85409D01*
Y83909D01*
X136578Y82708D02*X137078Y82208D01*
Y81208D01*
X136578Y80708D01*
X133578D02*X136578D01*
X133078Y81208D02*X133578Y80708D01*
X133078Y82208D02*Y81208D01*
X133578Y82708D02*X133078Y82208D01*
X135078D02*Y80708D01*
X154264Y105590D02*X157764D01*
X158264Y106090D01*
Y107090D02*Y106090D01*
Y107090D02*X157764Y107590D01*
X154264D02*X157764D01*
X158264Y110291D02*Y109291D01*
X154264Y109791D02*X158264D01*
X155264Y108791D02*X154264Y109791D01*
X157764Y111492D02*X158264Y111992D01*
X154764Y111492D02*X157764D01*
X154764D02*X154264Y111992D01*
Y112992D02*Y111992D01*
Y112992D02*X154764Y113492D01*
X157764D01*
X158264Y112992D02*X157764Y113492D01*
X158264Y112992D02*Y111992D01*
X157264Y111492D02*X155264Y113492D01*
X91818Y126740D02*X93818D01*
X94318Y126240D01*
Y125240D01*
X93818Y124740D02*X94318Y125240D01*
X92318Y124740D02*X93818D01*
X92318Y126740D02*Y122740D01*
Y124740D02*X94318Y122740D01*
X95519Y126740D02*X97519D01*
X95519D02*Y124740D01*
X96019Y125240D01*
X97019D01*
X97519Y124740D01*
Y123240D01*
X97019Y122740D02*X97519Y123240D01*
X96019Y122740D02*X97019D01*
X95519Y123240D02*X96019Y122740D01*
X92818Y116240D02*X94318D01*
X92318Y116740D02*X92818Y116240D01*
X92318Y119740D02*Y116740D01*
Y119740D02*X92818Y120240D01*
X94318D01*
X95519D02*X97519D01*
X95519D02*Y118240D01*
X96019Y118740D01*
X97019D01*
X97519Y118240D01*
Y116740D01*
X97019Y116240D02*X97519Y116740D01*
X96019Y116240D02*X97019D01*
X95519Y116740D02*X96019Y116240D01*
X96850Y134330D02*Y132830D01*
X96350Y132330D02*X96850Y132830D01*
X93350Y132330D02*X96350D01*
X93350D02*X92850Y132830D01*
Y134330D02*Y132830D01*
X96850Y137031D02*Y136031D01*
X92850Y136531D02*X96850D01*
X93850Y135531D02*X92850Y136531D01*
X96850Y139732D02*Y138732D01*
X92850Y139232D02*X96850D01*
X93850Y138232D02*X92850Y139232D01*
X97240Y140894D02*X98740D01*
X96740Y141394D02*X97240Y140894D01*
X96740Y144394D02*Y141394D01*
Y144394D02*X97240Y144894D01*
X98740D01*
X99941Y144394D02*X100441Y144894D01*
X101941D01*
X102441Y144394D01*
Y143394D01*
X99941Y140894D02*X102441Y143394D01*
X99941Y140894D02*X102441D01*
X103642Y141394D02*X104142Y140894D01*
X103642Y142394D02*Y141394D01*
Y142394D02*X104142Y142894D01*
X105142D01*
X105642Y142394D01*
Y141394D01*
X105142Y140894D02*X105642Y141394D01*
X104142Y140894D02*X105142D01*
X103642Y143394D02*X104142Y142894D01*
X103642Y144394D02*Y143394D01*
Y144394D02*X104142Y144894D01*
X105142D01*
X105642Y144394D01*
Y143394D01*
X105142Y142894D02*X105642Y143394D01*
X111236Y143370D02*X112736D01*
X110736Y143870D02*X111236Y143370D01*
X110736Y146870D02*Y143870D01*
Y146870D02*X111236Y147370D01*
X112736D01*
X113937Y146870D02*Y143870D01*
Y146870D02*X114437Y147370D01*
X115437D01*
X115937Y146870D01*
Y143870D01*
X115437Y143370D02*X115937Y143870D01*
X114437Y143370D02*X115437D01*
X113937Y143870D02*X114437Y143370D01*
X117138Y147370D02*Y143370D01*
Y147370D02*Y146870D01*
X119638Y144370D01*
Y147370D02*Y143370D01*
X120839Y147370D02*Y143370D01*
Y147370D02*Y146870D01*
X123339Y144370D01*
Y147370D02*Y143370D01*
X125040D02*X126040D01*
X125540Y147370D02*Y143370D01*
X124540Y146370D02*X125540Y147370D01*
X127241Y143870D02*X127741Y143370D01*
X127241Y146870D02*Y143870D01*
Y146870D02*X127741Y147370D01*
X128741D01*
X129241Y146870D01*
Y143870D01*
X128741Y143370D02*X129241Y143870D01*
X127741Y143370D02*X128741D01*
X127241Y144370D02*X129241Y146370D01*
X123268Y128590D02*Y125590D01*
Y128590D02*X123768Y129090D01*
X124768D01*
X125268Y128590D01*
Y125590D01*
X124768Y125090D02*X125268Y125590D01*
X123768Y125090D02*X124768D01*
X123268Y125590D02*X123768Y125090D01*
X124268Y126090D02*X125268Y125090D01*
X126969D02*X127969D01*
X127469Y129090D02*Y125090D01*
X126469Y128090D02*X127469Y129090D01*
X277106Y111999D02*Y109999D01*
Y111999D02*X277606Y112499D01*
X278606D01*
X279106Y111999D02*X278606Y112499D01*
X279106Y111999D02*Y110499D01*
X277106D02*X281106D01*
X279106D02*X281106Y112499D01*
X277106Y113700D02*X281106D01*
X277106Y115700D02*Y113700D01*
X279106Y115200D02*Y113700D01*
X277606Y116901D02*X277106Y117401D01*
Y118901D02*Y117401D01*
Y118901D02*X277606Y119401D01*
X278606D01*
X281106Y116901D02*X278606Y119401D01*
X281106D02*Y116901D01*
X274764Y127290D02*Y124790D01*
X274264D02*X274764D01*
X271764Y127290D02*X274264Y124790D01*
X270764Y127290D02*X271764D01*
X270764D02*Y124790D01*
X274764Y123589D02*Y121589D01*
X272764Y123589D02*X274764D01*
X272764D02*X273264Y123089D01*
Y122089D01*
X272764Y121589D01*
X271264D02*X272764D01*
X270764Y122089D02*X271264Y121589D01*
X270764Y123089D02*Y122089D01*
X271264Y123589D02*X270764Y123089D01*
X265586Y127720D02*Y126220D01*
X265086Y125720D02*X265586Y126220D01*
X262086Y125720D02*X265086D01*
X262086D02*X261586Y126220D01*
Y127720D02*Y126220D01*
X262086Y128921D02*X261586Y129421D01*
Y130921D02*Y129421D01*
Y130921D02*X262086Y131421D01*
X263086D01*
X265586Y128921D02*X263086Y131421D01*
X265586D02*Y128921D01*
Y132622D02*X263586Y134622D01*
X262086D02*X263586D01*
X261586Y134122D02*X262086Y134622D01*
X261586Y134122D02*Y133122D01*
X262086Y132622D02*X261586Y133122D01*
X262086Y132622D02*X263086D01*
X263586Y133122D01*
Y134622D02*Y133122D01*
X221872Y109554D02*Y109054D01*
X224372Y106554D01*
Y105554D01*
X221872Y106554D02*Y105554D01*
Y106554D02*X224372Y109054D01*
Y109554D02*Y109054D01*
X226073Y105554D02*X227073D01*
X226573Y109554D02*Y105554D01*
X225573Y108554D02*X226573Y109554D01*
X213799Y119386D02*X215299D01*
X213299Y119886D02*X213799Y119386D01*
X213299Y122886D02*Y119886D01*
Y122886D02*X213799Y123386D01*
X215299D01*
X216500Y122886D02*X217000Y123386D01*
X218500D01*
X219000Y122886D01*
Y121886D01*
X216500Y119386D02*X219000Y121886D01*
X216500Y119386D02*X219000D01*
X220201Y119886D02*X220701Y119386D01*
X220201Y122886D02*Y119886D01*
Y122886D02*X220701Y123386D01*
X221701D01*
X222201Y122886D01*
Y119886D01*
X221701Y119386D02*X222201Y119886D01*
X220701Y119386D02*X221701D01*
X220201Y120386D02*X222201Y122386D01*
X249264Y75090D02*X250764D01*
X248764Y75590D02*X249264Y75090D01*
X248764Y78590D02*Y75590D01*
Y78590D02*X249264Y79090D01*
X250764D01*
X251965Y78590D02*Y75590D01*
Y78590D02*X252465Y79090D01*
X253465D01*
X253965Y78590D01*
Y75590D01*
X253465Y75090D02*X253965Y75590D01*
X252465Y75090D02*X253465D01*
X251965Y75590D02*X252465Y75090D01*
X255166Y79090D02*Y75090D01*
Y79090D02*Y78590D01*
X257666Y76090D01*
Y79090D02*Y75090D01*
X258867Y79090D02*Y75090D01*
Y79090D02*Y78590D01*
X261367Y76090D01*
Y79090D02*Y75090D01*
X264068Y79090D02*X264568Y78590D01*
X263068Y79090D02*X264068D01*
X262568Y78590D02*X263068Y79090D01*
X262568Y78590D02*Y75590D01*
X263068Y75090D01*
X264068Y77090D02*X264568Y76590D01*
X262568Y77090D02*X264068D01*
X263068Y75090D02*X264068D01*
X264568Y75590D01*
Y76590D02*Y75590D01*
X244673Y95232D02*X246673D01*
X247173Y94732D01*
Y93732D01*
X246673Y93232D02*X247173Y93732D01*
X245173Y93232D02*X246673D01*
X245173Y95232D02*Y91232D01*
Y93232D02*X247173Y91232D01*
X248874D02*X249874D01*
X249374Y95232D02*Y91232D01*
X248374Y94232D02*X249374Y95232D01*
X251075Y91732D02*X251575Y91232D01*
X251075Y92732D02*Y91732D01*
Y92732D02*X251575Y93232D01*
X252575D01*
X253075Y92732D01*
Y91732D01*
X252575Y91232D02*X253075Y91732D01*
X251575Y91232D02*X252575D01*
X251075Y93732D02*X251575Y93232D01*
X251075Y94732D02*Y93732D01*
Y94732D02*X251575Y95232D01*
X252575D01*
X253075Y94732D01*
Y93732D01*
X252575Y93232D02*X253075Y93732D01*
X237064Y112090D02*Y109590D01*
X236564D02*X237064D01*
X234064Y112090D02*X236564Y109590D01*
X233064Y112090D02*X234064D01*
X233064D02*Y109590D01*
X235064Y108389D02*X237064Y106389D01*
X235064Y108389D02*Y105889D01*
X233064Y106389D02*X237064D01*
X243114Y110740D02*X245114D01*
X245614Y110240D01*
Y109240D01*
X245114Y108740D02*X245614Y109240D01*
X243614Y108740D02*X245114D01*
X243614Y110740D02*Y106740D01*
Y108740D02*X245614Y106740D01*
X247315D02*X248315D01*
X247815Y110740D02*Y106740D01*
X246815Y109740D02*X247815Y110740D01*
X249516Y106740D02*X252016Y109240D01*
Y110740D02*Y109240D01*
X249516Y110740D02*X252016D01*
X249610Y116716D02*Y113216D01*
X250110Y112716D01*
X251110D01*
X251610Y113216D01*
Y116716D02*Y113216D01*
X252811Y112716D02*X254811Y114716D01*
Y116216D02*Y114716D01*
X254311Y116716D02*X254811Y116216D01*
X253311Y116716D02*X254311D01*
X252811Y116216D02*X253311Y116716D01*
X252811Y116216D02*Y115216D01*
X253311Y114716D01*
X254811D01*
X216055Y82248D02*X218055D01*
X218555Y81748D01*
Y80748D01*
X218055Y80248D02*X218555Y80748D01*
X216555Y80248D02*X218055D01*
X216555Y82248D02*Y78248D01*
Y80248D02*X218555Y78248D01*
X219756Y81748D02*X220256Y82248D01*
X221756D01*
X222256Y81748D01*
Y80748D01*
X219756Y78248D02*X222256Y80748D01*
X219756Y78248D02*X222256D01*
X223457Y81748D02*X223957Y82248D01*
X224957D01*
X225457Y81748D01*
Y78748D01*
X224957Y78248D02*X225457Y78748D01*
X223957Y78248D02*X224957D01*
X223457Y78748D02*X223957Y78248D01*
Y80248D02*X225457D01*
X209350Y72830D02*Y70830D01*
Y72830D02*X209850Y73330D01*
X210850D01*
X211350Y72830D02*X210850Y73330D01*
X211350Y72830D02*Y71330D01*
X209350D02*X213350D01*
X211350D02*X213350Y73330D01*
X209850Y74531D02*X209350Y75031D01*
Y76531D02*Y75031D01*
Y76531D02*X209850Y77031D01*
X210850D01*
X213350Y74531D02*X210850Y77031D01*
X213350D02*Y74531D01*
X209350Y80232D02*Y78232D01*
X211350D01*
X210850Y78732D01*
Y79732D02*Y78732D01*
Y79732D02*X211350Y80232D01*
X212850D01*
X213350Y79732D02*X212850Y80232D01*
X213350Y79732D02*Y78732D01*
X212850Y78232D02*X213350Y78732D01*
X228614Y75740D02*X230614D01*
X231114Y75240D01*
Y74240D01*
X230614Y73740D02*X231114Y74240D01*
X229114Y73740D02*X230614D01*
X229114Y75740D02*Y71740D01*
Y73740D02*X231114Y71740D01*
X232315Y75240D02*X232815Y75740D01*
X234315D01*
X234815Y75240D01*
Y74240D01*
X232315Y71740D02*X234815Y74240D01*
X232315Y71740D02*X234815D01*
X236016Y73740D02*X238016Y75740D01*
X236016Y73740D02*X238516D01*
X238016Y75740D02*Y71740D01*
X241736Y74170D02*X244236D01*
Y73670D01*
X241736Y71170D02*X244236Y73670D01*
X241736Y71170D02*Y70170D01*
X244236D01*
X245437Y73670D02*X245937Y74170D01*
X246937D01*
X247437Y73670D01*
Y70670D01*
X246937Y70170D02*X247437Y70670D01*
X245937Y70170D02*X246937D01*
X245437Y70670D02*X245937Y70170D01*
Y72170D02*X247437D01*
X235114Y83740D02*X237114D01*
X237614Y83240D01*
Y82240D01*
X237114Y81740D02*X237614Y82240D01*
X235614Y81740D02*X237114D01*
X235614Y83740D02*Y79740D01*
Y81740D02*X237614Y79740D01*
X238815Y83240D02*X239315Y83740D01*
X240815D01*
X241315Y83240D01*
Y82240D01*
X238815Y79740D02*X241315Y82240D01*
X238815Y79740D02*X241315D01*
X242516Y80240D02*X243016Y79740D01*
X242516Y83240D02*Y80240D01*
Y83240D02*X243016Y83740D01*
X244016D01*
X244516Y83240D01*
Y80240D01*
X244016Y79740D02*X244516Y80240D01*
X243016Y79740D02*X244016D01*
X242516Y80740D02*X244516Y82740D01*
X226555Y99732D02*X228555D01*
X229055Y99232D01*
Y98232D01*
X228555Y97732D02*X229055Y98232D01*
X227055Y97732D02*X228555D01*
X227055Y99732D02*Y95732D01*
Y97732D02*X229055Y95732D01*
X230756D02*X231756D01*
X231256Y99732D02*Y95732D01*
X230256Y98732D02*X231256Y99732D01*
X232957Y95732D02*X234957Y97732D01*
Y99232D02*Y97732D01*
X234457Y99732D02*X234957Y99232D01*
X233457Y99732D02*X234457D01*
X232957Y99232D02*X233457Y99732D01*
X232957Y99232D02*Y98232D01*
X233457Y97732D01*
X234957D01*
X238960Y89066D02*Y87066D01*
Y89066D02*X239460Y89566D01*
X240460D01*
X240960Y89066D02*X240460Y89566D01*
X240960Y89066D02*Y87566D01*
X238960D02*X242960D01*
X240960D02*X242960Y89566D01*
X239460Y90767D02*X238960Y91267D01*
Y92767D02*Y91267D01*
Y92767D02*X239460Y93267D01*
X240460D01*
X242960Y90767D02*X240460Y93267D01*
X242960D02*Y90767D01*
X239460Y94468D02*X238960Y94968D01*
Y96468D02*Y94968D01*
Y96468D02*X239460Y96968D01*
X240460D01*
X242960Y94468D02*X240460Y96968D01*
X242960D02*Y94468D01*
X220350Y88130D02*X222350D01*
X222850Y87630D01*
Y86630D01*
X222350Y86130D02*X222850Y86630D01*
X220850Y86130D02*X222350D01*
X220850Y88130D02*Y84130D01*
Y86130D02*X222850Y84130D01*
X224051Y87630D02*X224551Y88130D01*
X226051D01*
X226551Y87630D01*
Y86630D01*
X224051Y84130D02*X226551Y86630D01*
X224051Y84130D02*X226551D01*
X228252D02*X229252D01*
X228752Y88130D02*Y84130D01*
X227752Y87130D02*X228752Y88130D01*
X213350Y90830D02*Y89330D01*
X212850Y88830D02*X213350Y89330D01*
X209850Y88830D02*X212850D01*
X209850D02*X209350Y89330D01*
Y90830D02*Y89330D01*
X209850Y92031D02*X209350Y92531D01*
Y94031D02*Y92531D01*
Y94031D02*X209850Y94531D01*
X210850D01*
X213350Y92031D02*X210850Y94531D01*
X213350D02*Y92031D01*
Y97232D02*Y96232D01*
X209350Y96732D02*X213350D01*
X210350Y95732D02*X209350Y96732D01*
X222114Y134940D02*Y133440D01*
X221614Y132940D02*X222114Y133440D01*
X218614Y132940D02*X221614D01*
X218614D02*X218114Y133440D01*
Y134940D02*Y133440D01*
X218614Y136141D02*X218114Y136641D01*
Y138141D02*Y136641D01*
Y138141D02*X218614Y138641D01*
X219614D01*
X222114Y136141D02*X219614Y138641D01*
X222114D02*Y136141D01*
X220114Y139842D02*X218114Y141842D01*
X220114Y142342D02*Y139842D01*
X218114Y141842D02*X222114D01*
X148114Y147740D02*X150114D01*
X150614Y147240D01*
Y146240D01*
X150114Y145740D02*X150614Y146240D01*
X148614Y145740D02*X150114D01*
X148614Y147740D02*Y143740D01*
Y145740D02*X150614Y143740D01*
X151815Y147740D02*Y143740D01*
Y147740D02*X153815D01*
X151815Y145740D02*X153315D01*
X155016Y147240D02*X155516Y147740D01*
X156516D01*
X157016Y147240D01*
Y144240D01*
X156516Y143740D02*X157016Y144240D01*
X155516Y143740D02*X156516D01*
X155016Y144240D02*X155516Y143740D01*
Y145740D02*X157016D01*
X216358Y134889D02*Y133389D01*
X215858Y132889D02*X216358Y133389D01*
X212858Y132889D02*X215858D01*
X212858D02*X212358Y133389D01*
Y134889D02*Y133389D01*
X212858Y136090D02*X212358Y136590D01*
Y138090D02*Y136590D01*
Y138090D02*X212858Y138590D01*
X213858D01*
X216358Y136090D02*X213858Y138590D01*
X216358D02*Y136090D01*
X212858Y139791D02*X212358Y140291D01*
Y141291D02*Y140291D01*
Y141291D02*X212858Y141791D01*
X215858D01*
X216358Y141291D02*X215858Y141791D01*
X216358Y141291D02*Y140291D01*
X215858Y139791D02*X216358Y140291D01*
X214358Y141791D02*Y140291D01*
X183890Y136244D02*X185390D01*
X183390Y136744D02*X183890Y136244D01*
X183390Y139744D02*Y136744D01*
Y139744D02*X183890Y140244D01*
X185390D01*
X186591Y139744D02*Y136744D01*
Y139744D02*X187091Y140244D01*
X188091D01*
X188591Y139744D01*
Y136744D01*
X188091Y136244D02*X188591Y136744D01*
X187091Y136244D02*X188091D01*
X186591Y136744D02*X187091Y136244D01*
X189792Y140244D02*Y136244D01*
Y140244D02*Y139744D01*
X192292Y137244D01*
Y140244D02*Y136244D01*
X193493Y140244D02*Y136244D01*
Y140244D02*Y139744D01*
X195993Y137244D01*
Y140244D02*Y136244D01*
X197194Y136744D02*X197694Y136244D01*
X197194Y137744D02*Y136744D01*
Y137744D02*X197694Y138244D01*
X198694D01*
X199194Y137744D01*
Y136744D01*
X198694Y136244D02*X199194Y136744D01*
X197694Y136244D02*X198694D01*
X197194Y138744D02*X197694Y138244D01*
X197194Y139744D02*Y138744D01*
Y139744D02*X197694Y140244D01*
X198694D01*
X199194Y139744D01*
Y138744D01*
X198694Y138244D02*X199194Y138744D01*
X153114Y123740D02*X155114D01*
X155614Y123240D01*
Y122240D01*
X155114Y121740D02*X155614Y122240D01*
X153614Y121740D02*X155114D01*
X153614Y123740D02*Y119740D01*
Y121740D02*X155614Y119740D01*
X156815Y123240D02*X157315Y123740D01*
X158815D01*
X159315Y123240D01*
Y122240D01*
X156815Y119740D02*X159315Y122240D01*
X156815Y119740D02*X159315D01*
X160516D02*X162516Y121740D01*
Y123240D02*Y121740D01*
X162016Y123740D02*X162516Y123240D01*
X161016Y123740D02*X162016D01*
X160516Y123240D02*X161016Y123740D01*
X160516Y123240D02*Y122240D01*
X161016Y121740D01*
X162516D01*
X193764Y120090D02*Y119590D01*
X196264Y117090D01*
Y116090D01*
X193764Y117090D02*Y116090D01*
Y117090D02*X196264Y119590D01*
Y120090D02*Y119590D01*
X197465D02*X197965Y120090D01*
X199465D01*
X199965Y119590D01*
Y118590D01*
X197465Y116090D02*X199965Y118590D01*
X197465Y116090D02*X199965D01*
X171114Y119240D02*X173114D01*
X173614Y118740D01*
Y117740D01*
X173114Y117240D02*X173614Y117740D01*
X171614Y117240D02*X173114D01*
X171614Y119240D02*Y115240D01*
Y117240D02*X173614Y115240D01*
X174815Y118740D02*X175315Y119240D01*
X176815D01*
X177315Y118740D01*
Y117740D01*
X174815Y115240D02*X177315Y117740D01*
X174815Y115240D02*X177315D01*
X178516Y115740D02*X179016Y115240D01*
X178516Y116740D02*Y115740D01*
Y116740D02*X179016Y117240D01*
X180016D01*
X180516Y116740D01*
Y115740D01*
X180016Y115240D02*X180516Y115740D01*
X179016Y115240D02*X180016D01*
X178516Y117740D02*X179016Y117240D01*
X178516Y118740D02*Y117740D01*
Y118740D02*X179016Y119240D01*
X180016D01*
X180516Y118740D01*
Y117740D01*
X180016Y117240D02*X180516Y117740D01*
X64877Y141248D02*X66377D01*
X64377Y141748D02*X64877Y141248D01*
X64377Y144748D02*Y141748D01*
Y144748D02*X64877Y145248D01*
X66377D01*
X67578Y143248D02*X69578Y145248D01*
X67578Y143248D02*X70078D01*
X69578Y145248D02*Y141248D01*
X72858Y130558D02*X76358D01*
X76858Y131058D01*
Y132058D02*Y131058D01*
Y132058D02*X76358Y132558D01*
X72858D02*X76358D01*
X74858Y133759D02*X72858Y135759D01*
X74858Y136259D02*Y133759D01*
X72858Y135759D02*X76858D01*
X52759Y141232D02*X54259D01*
X52259Y141732D02*X52759Y141232D01*
X52259Y144732D02*Y141732D01*
Y144732D02*X52759Y145232D01*
X54259D01*
X55960Y141232D02*X56960D01*
X56460Y145232D02*Y141232D01*
X55460Y144232D02*X56460Y145232D01*
X58161Y144732D02*X58661Y145232D01*
X60161D01*
X60661Y144732D01*
Y143732D01*
X58161Y141232D02*X60661Y143732D01*
X58161Y141232D02*X60661D01*
X85318Y126240D02*X87318D01*
X87818Y125740D01*
Y124740D01*
X87318Y124240D02*X87818Y124740D01*
X85818Y124240D02*X87318D01*
X85818Y126240D02*Y122240D01*
Y124240D02*X87818Y122240D01*
X89019Y125740D02*X89519Y126240D01*
X90519D01*
X91019Y125740D01*
Y122740D01*
X90519Y122240D02*X91019Y122740D01*
X89519Y122240D02*X90519D01*
X89019Y122740D02*X89519Y122240D01*
Y124240D02*X91019D01*
X85318Y120240D02*X87318D01*
X87818Y119740D01*
Y118740D01*
X87318Y118240D02*X87818Y118740D01*
X85818Y118240D02*X87318D01*
X85818Y120240D02*Y116240D01*
Y118240D02*X87818Y116240D01*
X89019D02*X91519Y118740D01*
Y120240D02*Y118740D01*
X89019Y120240D02*X91519D01*
X66150Y89130D02*Y87630D01*
X66650Y89630D02*X66150Y89130D01*
X66650Y89630D02*X69650D01*
X70150Y89130D01*
Y87630D01*
Y84929D02*X69650Y84429D01*
X70150Y85929D02*Y84929D01*
X69650Y86429D02*X70150Y85929D01*
X66650Y86429D02*X69650D01*
X66650D02*X66150Y85929D01*
X68150Y84929D02*X67650Y84429D01*
X68150Y86429D02*Y84929D01*
X66150Y85929D02*Y84929D01*
X66650Y84429D01*
X67650D01*
X77318Y108740D02*X79318D01*
X79818Y108240D01*
Y107240D01*
X79318Y106740D02*X79818Y107240D01*
X77818Y106740D02*X79318D01*
X77818Y108740D02*Y104740D01*
Y106740D02*X79818Y104740D01*
X82519Y108740D02*X83019Y108240D01*
X81519Y108740D02*X82519D01*
X81019Y108240D02*X81519Y108740D01*
X81019Y108240D02*Y105240D01*
X81519Y104740D01*
X82519Y106740D02*X83019Y106240D01*
X81019Y106740D02*X82519D01*
X81519Y104740D02*X82519D01*
X83019Y105240D01*
Y106240D02*Y105240D01*
X101968Y89090D02*Y85590D01*
X102468Y85090D01*
X103468D01*
X103968Y85590D01*
Y89090D02*Y85590D01*
X105669Y85090D02*X106669D01*
X106169Y89090D02*Y85090D01*
X105169Y88090D02*X106169Y89090D01*
X74818Y70240D02*X76818D01*
X77318Y69740D01*
Y68740D01*
X76818Y68240D02*X77318Y68740D01*
X75318Y68240D02*X76818D01*
X75318Y70240D02*Y66240D01*
Y68240D02*X77318Y66240D01*
X78519Y69740D02*X79019Y70240D01*
X80519D01*
X81019Y69740D01*
Y68740D01*
X78519Y66240D02*X81019Y68740D01*
X78519Y66240D02*X81019D01*
X74110Y72681D02*Y70681D01*
X73610Y70181D01*
X72610D02*X73610D01*
X72110Y70681D02*X72610Y70181D01*
X72110Y72181D02*Y70681D01*
X70110Y72181D02*X74110D01*
X72110D02*X70110Y70181D01*
X72110Y68980D02*X74110Y66980D01*
X72110Y68980D02*Y66480D01*
X70110Y66980D02*X74110D01*
X59068Y100990D02*Y97490D01*
X59568Y96990D01*
X60568D01*
X61068Y97490D01*
Y100990D02*Y97490D01*
X62269Y100490D02*X62769Y100990D01*
X64269D01*
X64769Y100490D01*
Y99490D01*
X62269Y96990D02*X64769Y99490D01*
X62269Y96990D02*X64769D01*
X59291Y111638D02*X61291D01*
X61791Y111138D01*
Y110138D01*
X61291Y109638D02*X61791Y110138D01*
X59791Y109638D02*X61291D01*
X59791Y111638D02*Y107638D01*
Y109638D02*X61791Y107638D01*
X62992D02*X64992Y109638D01*
Y111138D02*Y109638D01*
X64492Y111638D02*X64992Y111138D01*
X63492Y111638D02*X64492D01*
X62992Y111138D02*X63492Y111638D01*
X62992Y111138D02*Y110138D01*
X63492Y109638D01*
X64992D01*
X41291Y114638D02*X43291D01*
X43791Y114138D01*
Y113138D01*
X43291Y112638D02*X43791Y113138D01*
X41791Y112638D02*X43291D01*
X41791Y114638D02*Y110638D01*
Y112638D02*X43791Y110638D01*
X44992Y111138D02*X45492Y110638D01*
X44992Y112138D02*Y111138D01*
Y112138D02*X45492Y112638D01*
X46492D01*
X46992Y112138D01*
Y111138D01*
X46492Y110638D02*X46992Y111138D01*
X45492Y110638D02*X46492D01*
X44992Y113138D02*X45492Y112638D01*
X44992Y114138D02*Y113138D01*
Y114138D02*X45492Y114638D01*
X46492D01*
X46992Y114138D01*
Y113138D01*
X46492Y112638D02*X46992Y113138D01*
X52968Y125090D02*Y121590D01*
X53468Y121090D01*
X54468D01*
X54968Y121590D01*
Y125090D02*Y121590D01*
X56169Y124590D02*X56669Y125090D01*
X57669D01*
X58169Y124590D01*
Y121590D01*
X57669Y121090D02*X58169Y121590D01*
X56669Y121090D02*X57669D01*
X56169Y121590D02*X56669Y121090D01*
Y123090D02*X58169D01*
X48818Y72740D02*X50318D01*
X48318Y73240D02*X48818Y72740D01*
X48318Y76240D02*Y73240D01*
Y76240D02*X48818Y76740D01*
X50318D01*
X52019Y72740D02*X53019D01*
X52519Y76740D02*Y72740D01*
X51519Y75740D02*X52519Y76740D01*
X54220Y76240D02*X54720Y76740D01*
X55720D01*
X56220Y76240D01*
Y73240D01*
X55720Y72740D02*X56220Y73240D01*
X54720Y72740D02*X55720D01*
X54220Y73240D02*X54720Y72740D01*
Y74740D02*X56220D01*
X39468Y76590D02*X40968D01*
X38968Y77090D02*X39468Y76590D01*
X38968Y80090D02*Y77090D01*
Y80090D02*X39468Y80590D01*
X40968D01*
X42169Y80090D02*Y77090D01*
Y80090D02*X42669Y80590D01*
X43669D01*
X44169Y80090D01*
Y77090D01*
X43669Y76590D02*X44169Y77090D01*
X42669Y76590D02*X43669D01*
X42169Y77090D02*X42669Y76590D01*
X45370Y80590D02*Y76590D01*
Y80590D02*Y80090D01*
X47870Y77590D01*
Y80590D02*Y76590D01*
X49071Y80590D02*Y76590D01*
Y80590D02*Y80090D01*
X51571Y77590D01*
Y80590D02*Y76590D01*
X52772Y80090D02*X53272Y80590D01*
X54772D01*
X55272Y80090D01*
Y79090D01*
X52772Y76590D02*X55272Y79090D01*
X52772Y76590D02*X55272D01*
X49181Y90090D02*X50681D01*
X48681Y90590D02*X49181Y90090D01*
X48681Y93590D02*Y90590D01*
Y93590D02*X49181Y94090D01*
X50681D01*
X51882Y90090D02*X53882Y92090D01*
Y93590D02*Y92090D01*
X53382Y94090D02*X53882Y93590D01*
X52382Y94090D02*X53382D01*
X51882Y93590D02*X52382Y94090D01*
X51882Y93590D02*Y92590D01*
X52382Y92090D01*
X53882D01*
X71390Y32948D02*X74890D01*
X75390Y33448D01*
Y34448D02*Y33448D01*
Y34448D02*X74890Y34948D01*
X71390D02*X74890D01*
X71390Y38149D02*Y36149D01*
X73390D01*
X72890Y36649D01*
Y37649D02*Y36649D01*
Y37649D02*X73390Y38149D01*
X74890D01*
X75390Y37649D02*X74890Y38149D01*
X75390Y37649D02*Y36649D01*
X74890Y36149D02*X75390Y36649D01*
X73268Y25590D02*X77268D01*
Y24090D02*X76768Y23590D01*
X73768D02*X76768D01*
X73268Y24090D02*X73768Y23590D01*
X73268Y26090D02*Y24090D01*
X77268Y26090D02*Y24090D01*
X76768Y22389D02*X77268Y21889D01*
Y20889D01*
X76768Y20389D01*
X73768D02*X76768D01*
X73268Y20889D02*X73768Y20389D01*
X73268Y21889D02*Y20889D01*
X73768Y22389D02*X73268Y21889D01*
X75268D02*Y20389D01*
X48240Y19598D02*X50240D01*
X50740Y19098D01*
Y18098D01*
X50240Y17598D02*X50740Y18098D01*
X48740Y17598D02*X50240D01*
X48740Y19598D02*Y15598D01*
Y17598D02*X50740Y15598D01*
X52441D02*X53441D01*
X52941Y19598D02*Y15598D01*
X51941Y18598D02*X52941Y19598D01*
X54642Y17598D02*X56642Y19598D01*
X54642Y17598D02*X57142D01*
X56642Y19598D02*Y15598D01*
X113114Y31440D02*Y29440D01*
Y31440D02*X113614Y31940D01*
X114614D01*
X115114Y31440D02*X114614Y31940D01*
X115114Y31440D02*Y29940D01*
X113114D02*X117114D01*
X115114D02*X117114Y31940D01*
X113614Y33141D02*X113114Y33641D01*
Y34641D02*Y33641D01*
Y34641D02*X113614Y35141D01*
X116614D01*
X117114Y34641D02*X116614Y35141D01*
X117114Y34641D02*Y33641D01*
X116614Y33141D02*X117114Y33641D01*
X115114Y35141D02*Y33641D01*
X117114Y37842D02*Y36842D01*
X113114Y37342D02*X117114D01*
X114114Y36342D02*X113114Y37342D01*
X100264Y49590D02*Y45590D01*
X102264D01*
X103465Y47590D02*X104965D01*
X103465Y45590D02*X105465D01*
X103465Y49590D02*Y45590D01*
Y49590D02*X105465D01*
X107166D02*Y45590D01*
X108666Y49590D02*X109166Y49090D01*
Y46090D01*
X108666Y45590D02*X109166Y46090D01*
X106666Y45590D02*X108666D01*
X106666Y49590D02*X108666D01*
X110367Y49090D02*X110867Y49590D01*
X112367D01*
X112867Y49090D01*
Y48090D01*
X110367Y45590D02*X112867Y48090D01*
X110367Y45590D02*X112867D01*
X91818Y53740D02*X93318D01*
X91318Y54240D02*X91818Y53740D01*
X91318Y57240D02*Y54240D01*
Y57240D02*X91818Y57740D01*
X93318D01*
X95019Y53740D02*X96019D01*
X95519Y57740D02*Y53740D01*
X94519Y56740D02*X95519Y57740D01*
X71390Y40152D02*X75390D01*
Y42152D02*Y40152D01*
X73390Y44853D02*Y43353D01*
X75390Y45353D02*Y43353D01*
X71390D02*X75390D01*
X71390Y45353D02*Y43353D01*
Y47054D02*X75390D01*
X71390Y48554D02*X71890Y49054D01*
X74890D01*
X75390Y48554D02*X74890Y49054D01*
X75390Y48554D02*Y46554D01*
X71390Y48554D02*Y46554D01*
X75390Y51755D02*Y50755D01*
X71390Y51255D02*X75390D01*
X72390Y50255D02*X71390Y51255D01*
X104362Y21054D02*X108362D01*
Y23054D02*Y21054D01*
Y25755D02*Y24755D01*
X104362Y25255D02*X108362D01*
X105362Y24255D02*X104362Y25255D01*
X28268Y25590D02*X32268D01*
Y24090D02*X31768Y23590D01*
X28768D02*X31768D01*
X28268Y24090D02*X28768Y23590D01*
X28268Y26090D02*Y24090D01*
X32268Y26090D02*Y24090D01*
X28268Y21889D02*Y20889D01*
Y21389D02*X32268D01*
X31268Y22389D02*X32268Y21389D01*
X18032Y23319D02*Y21819D01*
X17532Y21319D02*X18032Y21819D01*
X14532Y21319D02*X17532D01*
X14532D02*X14032Y21819D01*
Y23319D02*Y21819D01*
X14532Y24520D02*X17532D01*
X14532D02*X14032Y25020D01*
Y26020D02*Y25020D01*
Y26020D02*X14532Y26520D01*
X17532D01*
X18032Y26020D02*X17532Y26520D01*
X18032Y26020D02*Y25020D01*
X17532Y24520D02*X18032Y25020D01*
X14032Y27721D02*X18032D01*
X14032D02*X14532D01*
X17032Y30221D01*
X14032D02*X18032D01*
X14032Y31422D02*X18032D01*
X14032D02*X14532D01*
X17032Y33922D01*
X14032D02*X18032D01*
X16032Y35123D02*X14032Y37123D01*
X16032Y37623D02*Y35123D01*
X14032Y37123D02*X18032D01*
X18890Y53948D02*Y52448D01*
X18390Y51948D02*X18890Y52448D01*
X15390Y51948D02*X18390D01*
X15390D02*X14890Y52448D01*
Y53948D02*Y52448D01*
X15390Y55149D02*X18390D01*
X15390D02*X14890Y55649D01*
Y56649D02*Y55649D01*
Y56649D02*X15390Y57149D01*
X18390D01*
X18890Y56649D02*X18390Y57149D01*
X18890Y56649D02*Y55649D01*
X18390Y55149D02*X18890Y55649D01*
X14890Y58350D02*X18890D01*
X14890D02*X15390D01*
X17890Y60850D01*
X14890D02*X18890D01*
X14890Y62051D02*X18890D01*
X14890D02*X15390D01*
X17890Y64551D01*
X14890D02*X18890D01*
Y67252D02*Y66252D01*
X14890Y66752D02*X18890D01*
X15890Y65752D02*X14890Y66752D01*
X19786Y53350D02*X21786D01*
X22286Y52850D01*
Y51850D01*
X21786Y51350D02*X22286Y51850D01*
X20286Y51350D02*X21786D01*
X20286Y53350D02*Y49350D01*
Y51350D02*X22286Y49350D01*
X23487Y53350D02*Y49350D01*
Y53350D02*X25487D01*
X23487Y51350D02*X24987D01*
X27188Y49350D02*X28188D01*
X27688Y53350D02*Y49350D01*
X26688Y52350D02*X27688Y53350D01*
X30968Y54590D02*Y50590D01*
X32468Y54590D02*X32968Y54090D01*
Y51090D01*
X32468Y50590D02*X32968Y51090D01*
X30468Y50590D02*X32468D01*
X30468Y54590D02*X32468D01*
X34169Y54090D02*X34669Y54590D01*
X36169D01*
X36669Y54090D01*
Y53090D01*
X34169Y50590D02*X36669Y53090D01*
X34169Y50590D02*X36669D01*
X42862Y42402D02*X44862D01*
X45362Y41902D01*
Y40902D01*
X44862Y40402D02*X45362Y40902D01*
X43362Y40402D02*X44862D01*
X43362Y42402D02*Y38402D01*
Y40402D02*X45362Y38402D01*
X47063D02*X48063D01*
X47563Y42402D02*Y38402D01*
X46563Y41402D02*X47563Y42402D01*
X49264Y41902D02*X49764Y42402D01*
X50764D01*
X51264Y41902D01*
Y38902D01*
X50764Y38402D02*X51264Y38902D01*
X49764Y38402D02*X50764D01*
X49264Y38902D02*X49764Y38402D01*
Y40402D02*X51264D01*
X43637Y32035D02*Y30535D01*
X43137Y30035D02*X43637Y30535D01*
X40137Y30035D02*X43137D01*
X40137D02*X39637Y30535D01*
Y32035D02*Y30535D01*
X43637Y34736D02*Y33736D01*
X39637Y34236D02*X43637D01*
X40637Y33236D02*X39637Y34236D01*
X41637Y35937D02*X39637Y37937D01*
X41637Y38437D02*Y35937D01*
X39637Y37937D02*X43637D01*
X43786Y43350D02*X45286D01*
X43286Y43850D02*X43786Y43350D01*
X43286Y46850D02*Y43850D01*
Y46850D02*X43786Y47350D01*
X45286D01*
X46987Y43350D02*X47987D01*
X47487Y47350D02*Y43350D01*
X46487Y46350D02*X47487Y47350D01*
X50688D02*X51188Y46850D01*
X49688Y47350D02*X50688D01*
X49188Y46850D02*X49688Y47350D01*
X49188Y46850D02*Y43850D01*
X49688Y43350D01*
X50688Y45350D02*X51188Y44850D01*
X49188Y45350D02*X50688D01*
X49688Y43350D02*X50688D01*
X51188Y43850D01*
Y44850D02*Y43850D01*
X51318Y50240D02*X52818D01*
X50818Y50740D02*X51318Y50240D01*
X50818Y53740D02*Y50740D01*
Y53740D02*X51318Y54240D01*
X52818D01*
X54519Y50240D02*X55519D01*
X55019Y54240D02*Y50240D01*
X54019Y53240D02*X55019Y54240D01*
X56720D02*X58720D01*
X56720D02*Y52240D01*
X57220Y52740D01*
X58220D01*
X58720Y52240D01*
Y50740D01*
X58220Y50240D02*X58720Y50740D01*
X57220Y50240D02*X58220D01*
X56720Y50740D02*X57220Y50240D01*
X59845Y67842D02*X61845D01*
X62345Y67342D01*
Y66342D01*
X61845Y65842D02*X62345Y66342D01*
X60345Y65842D02*X61845D01*
X60345Y67842D02*Y63842D01*
Y65842D02*X62345Y63842D01*
X64046D02*X65046D01*
X64546Y67842D02*Y63842D01*
X63546Y66842D02*X64546Y67842D01*
X66247Y64342D02*X66747Y63842D01*
X66247Y67342D02*Y64342D01*
Y67342D02*X66747Y67842D01*
X67747D01*
X68247Y67342D01*
Y64342D01*
X67747Y63842D02*X68247Y64342D01*
X66747Y63842D02*X67747D01*
X66247Y64842D02*X68247Y66842D01*
X70243Y57248D02*X72243D01*
X72743Y56748D01*
Y55748D01*
X72243Y55248D02*X72743Y55748D01*
X70743Y55248D02*X72243D01*
X70743Y57248D02*Y53248D01*
Y55248D02*X72743Y53248D01*
X74444D02*X75444D01*
X74944Y57248D02*Y53248D01*
X73944Y56248D02*X74944Y57248D01*
X76645D02*X78645D01*
X76645D02*Y55248D01*
X77145Y55748D01*
X78145D01*
X78645Y55248D01*
Y53748D01*
X78145Y53248D02*X78645Y53748D01*
X77145Y53248D02*X78145D01*
X76645Y53748D02*X77145Y53248D01*
X24968Y112090D02*Y110590D01*
X24468Y110090D02*X24968Y110590D01*
X21468Y110090D02*X24468D01*
X21468D02*X20968Y110590D01*
Y112090D02*Y110590D01*
X21468Y113291D02*X24468D01*
X21468D02*X20968Y113791D01*
Y114791D02*Y113791D01*
Y114791D02*X21468Y115291D01*
X24468D01*
X24968Y114791D02*X24468Y115291D01*
X24968Y114791D02*Y113791D01*
X24468Y113291D02*X24968Y113791D01*
X20968Y116492D02*X24968D01*
X20968D02*X21468D01*
X23968Y118992D01*
X20968D02*X24968D01*
X20968Y120193D02*X24968D01*
X20968D02*X21468D01*
X23968Y122693D01*
X20968D02*X24968D01*
X21468Y123894D02*X20968Y124394D01*
Y125394D02*Y124394D01*
Y125394D02*X21468Y125894D01*
X24468D01*
X24968Y125394D02*X24468Y125894D01*
X24968Y125394D02*Y124394D01*
X24468Y123894D02*X24968Y124394D01*
X22968Y125894D02*Y124394D01*
X25350Y87130D02*X26850D01*
X24850Y87630D02*X25350Y87130D01*
X24850Y90630D02*Y87630D01*
Y90630D02*X25350Y91130D01*
X26850D01*
X28051Y87130D02*X30551Y89630D01*
Y91130D02*Y89630D01*
X28051Y91130D02*X30551D01*
X38874Y99661D02*Y98161D01*
X38374Y97661D02*X38874Y98161D01*
X35374Y97661D02*X38374D01*
X35374D02*X34874Y98161D01*
Y99661D02*Y98161D01*
X38874Y102362D02*Y101362D01*
X34874Y101862D02*X38874D01*
X35874Y100862D02*X34874Y101862D01*
X38374Y103563D02*X38874Y104063D01*
X35374Y103563D02*X38374D01*
X35374D02*X34874Y104063D01*
Y105063D02*Y104063D01*
Y105063D02*X35374Y105563D01*
X38374D01*
X38874Y105063D02*X38374Y105563D01*
X38874Y105063D02*Y104063D01*
X37874Y103563D02*X35874Y105563D01*
X19318Y71740D02*X21318D01*
X21818Y71240D01*
Y70240D01*
X21318Y69740D02*X21818Y70240D01*
X19818Y69740D02*X21318D01*
X19818Y71740D02*Y67740D01*
Y69740D02*X21818Y67740D01*
X23519D02*X24519D01*
X24019Y71740D02*Y67740D01*
X23019Y70740D02*X24019Y71740D01*
X25720Y71240D02*X26220Y71740D01*
X27720D01*
X28220Y71240D01*
Y70240D01*
X25720Y67740D02*X28220Y70240D01*
X25720Y67740D02*X28220D01*
X30818D02*X32318D01*
X30318Y68240D02*X30818Y67740D01*
X30318Y71240D02*Y68240D01*
Y71240D02*X30818Y71740D01*
X32318D01*
X33519Y68240D02*X34019Y67740D01*
X33519Y69240D02*Y68240D01*
Y69240D02*X34019Y69740D01*
X35019D01*
X35519Y69240D01*
Y68240D01*
X35019Y67740D02*X35519Y68240D01*
X34019Y67740D02*X35019D01*
X33519Y70240D02*X34019Y69740D01*
X33519Y71240D02*Y70240D01*
Y71240D02*X34019Y71740D01*
X35019D01*
X35519Y71240D01*
Y70240D01*
X35019Y69740D02*X35519Y70240D01*
X31382Y74220D02*Y72220D01*
Y74220D02*X31882Y74720D01*
X32882D01*
X33382Y74220D02*X32882Y74720D01*
X33382Y74220D02*Y72720D01*
X31382D02*X35382D01*
X33382D02*X35382Y74720D01*
Y77421D02*Y76421D01*
X31382Y76921D02*X35382D01*
X32382Y75921D02*X31382Y76921D01*
X35382Y80122D02*Y79122D01*
X31382Y79622D02*X35382D01*
X32382Y78622D02*X31382Y79622D01*
X16768Y97390D02*X19268D01*
Y96890D01*
X16768Y94390D02*X19268Y96890D01*
X16768Y94390D02*Y93390D01*
X19268D01*
X20969D02*X21969D01*
X21469Y97390D02*Y93390D01*
X20469Y96390D02*X21469Y97390D01*
X8768Y84390D02*X11268D01*
Y83890D01*
X8768Y81390D02*X11268Y83890D01*
X8768Y81390D02*Y80390D01*
X11268D01*
X12469Y83890D02*X12969Y84390D01*
X14469D01*
X14969Y83890D01*
Y82890D01*
X12469Y80390D02*X14969Y82890D01*
X12469Y80390D02*X14969D01*
M02*
