G04 start of page 6 for group -4062 idx -4062 *
G04 Title: (unknown), soldermask *
G04 Creator: pcb 1.99z *
G04 CreationDate: Mon 30 May 2011 18:01:59 GMT UTC *
G04 For: thomas *
G04 Format: Gerber/RS-274X *
G04 PCB-Dimensions: 206299 151574 *
G04 PCB-Coordinate-Origin: lower left *
%MOIN*%
%FSLAX25Y25*%
%LNBOTTOMMASK*%
%ADD19C,0.0200*%
%ADD34R,0.0200X0.0200*%
%ADD50C,0.0700*%
%ADD51C,0.0660*%
%ADD52C,0.0544*%
%ADD53C,0.0425*%
G54D50*X149407Y127231D03*
X168619D03*
G54D19*G36*
X3865Y65503D02*Y58903D01*
X10465D01*
Y65503D01*
X3865D01*
G37*
G54D51*X17165Y62203D03*
X27165D03*
X37165D03*
X47165D03*
G54D19*G36*
X122487Y47197D02*Y40597D01*
X129087D01*
Y47197D01*
X122487D01*
G37*
G54D52*X116535Y34251D03*
G54D53*X126934Y21442D03*
G54D52*X128706Y8647D03*
Y34237D03*
G54D51*X135787Y43897D03*
X145787D03*
G54D53*X148194Y21442D03*
G54D52*X146422Y8647D03*
Y34237D03*
G54D53*X154725Y21456D03*
G54D51*X155787Y43897D03*
X165787D03*
G54D52*X174213Y34251D03*
X156497D03*
G54D53*X97047Y21456D03*
X118307D03*
G54D52*X116535Y8661D03*
X98819D03*
Y34251D03*
G54D53*X175985Y21456D03*
G54D52*X174213Y8661D03*
X156497D03*
G54D34*X8305Y109920D02*X9805D01*
X8305Y119920D02*X9805D01*
X8305Y129920D02*X9805D01*
X23465Y145237D02*Y143737D01*
X33465Y145237D02*Y143737D01*
X43465Y145237D02*Y143737D01*
X53465Y145237D02*Y143737D01*
X138778Y104920D02*Y100983D01*
X134448Y104920D02*Y100983D01*
X130118Y104920D02*Y100983D01*
X131693Y110826D02*X133268D01*
X151768Y104920D02*Y100983D01*
X147438Y104920D02*Y100983D01*
X143108Y104920D02*Y100983D01*
X138780Y145237D02*Y143737D01*
X148780Y145237D02*Y143737D01*
X100787Y145237D02*Y143737D01*
X110787Y145237D02*Y143737D01*
X120787Y145237D02*Y143737D01*
X158780Y145237D02*Y143737D01*
X168780Y145237D02*Y143737D01*
X157278Y110826D02*X158853D01*
X160428Y104920D02*Y100983D01*
X156098Y104920D02*Y100983D01*
X128146Y57480D02*X130508D01*
X157082D02*X159444D01*
X8450Y41974D02*X9950D01*
X8450Y51974D02*X9950D01*
X8450Y31974D02*X9950D01*
X196494Y73070D02*X197994D01*
X196494Y63070D02*X197994D01*
X196494Y53070D02*X197994D01*
X196494Y23070D02*X197994D01*
X196494Y33070D02*X197994D01*
X196494Y43070D02*X197994D01*
M02*
