G04 start of page 7 for group -4079 idx -4079 *
G04 Title: (unknown), topsilk *
G04 Creator: pcb 1.99z *
G04 CreationDate: Mon 30 May 2011 18:01:59 GMT UTC *
G04 For: thomas *
G04 Format: Gerber/RS-274X *
G04 PCB-Dimensions: 206299 151574 *
G04 PCB-Coordinate-Origin: lower left *
%MOIN*%
%FSLAX25Y25*%
%LNTOPSILK*%
%ADD19C,0.0200*%
%ADD20C,0.0060*%
%ADD21C,0.0085*%
%ADD67C,0.0100*%
%ADD68C,0.0080*%
%ADD69C,0.0059*%
G54D20*X191732Y137007D02*X191733D01*
X187992Y140747D02*X191732Y137007D01*
X192323Y136416D02*X192913Y135826D01*
Y134645D01*
X192323Y136417D02*Y136416D01*
X191733Y137007D02*X192323Y136417D01*
X185039Y140354D02*X184646Y140747D01*
X187992D02*X185039D01*
Y139763D01*
Y141731D02*Y140354D01*
Y139763D02*X184055Y140747D01*
X185039Y141731D01*
G54D21*X117717Y104724D02*Y104723D01*
X118504Y103936D01*
X117717Y104724D02*Y103149D01*
Y103346D01*
X118307Y103936D01*
X118504D02*X117717Y103149D01*
X113189Y103936D02*X118504D01*
G54D20*X119094Y48818D02*Y49606D01*
X118701Y49999D01*
X116929D01*
X22047Y74015D02*X22441Y73621D01*
X56890Y31692D02*Y32677D01*
X57480Y33267D01*
X58268D01*
X57874Y32873D01*
Y33661D01*
X58268Y33267D01*
X186220Y106889D02*Y105512D01*
X187205Y104527D01*
X188386D01*
X188385D01*
X187992Y104920D01*
X188386Y104527D02*X187992Y104133D01*
Y104724D01*
Y104920D02*Y104330D01*
G54D67*X39100Y31374D02*X53000D01*
X39100D02*Y19574D01*
X53000D01*
Y31374D02*Y19574D01*
G54D19*X48417Y12167D02*Y5167D01*
G54D67*Y12167D02*X45917Y13167D01*
X32817D02*X45917D01*
X32817D02*Y4167D01*
X45917D01*
X48417Y5167D01*
X17226Y17190D02*X31126D01*
X17226D02*Y4390D01*
X31126D01*
Y17190D02*Y4390D01*
G54D68*X24016Y30707D02*Y25983D01*
X31496Y30707D02*Y25983D01*
X11221Y27164D02*X15945D01*
X11221Y19684D02*X15945D01*
G54D67*X21175Y137073D02*Y115861D01*
X52307D01*
Y137073D01*
X21175D02*X34241D01*
X52307D02*X39241D01*
X34241D02*G75*G03X39241Y137073I2500J0D01*G01*
X25171Y103669D02*X34371D01*
X38171D02*X47471D01*
Y91869D01*
X25171D01*
Y103669D01*
X34371D02*G75*G03X38171Y103669I1900J0D01*G01*
G54D68*X60681Y106820D02*X96351D01*
Y68250D01*
X57781D01*
Y103920D01*
X60681Y106820D01*
X59681Y103920D02*G75*G03X59681Y103920I1000J0D01*G01*
X41387Y84341D02*Y83555D01*
X46897Y84341D02*Y83555D01*
G54D67*X6611Y88952D02*Y75052D01*
X18411D01*
Y88952D01*
X6611D01*
G54D19*X3678Y30130D02*X11678D01*
G54D67*X12778Y33530D01*
Y51130D02*Y33530D01*
X2578Y51130D02*X12778D01*
X2578D02*Y33530D01*
X3678Y30130D01*
X14560Y51173D02*X28460D01*
X14560D02*Y38373D01*
X28460D01*
Y51173D02*Y38373D01*
G54D68*X47464Y38819D02*X48250D01*
X47464Y44329D02*X48250D01*
X37340Y49031D02*Y44307D01*
X29860Y49031D02*Y44307D01*
X86812Y14368D02*Y13582D01*
X92322Y14368D02*Y13582D01*
X55555Y41291D02*X62555D01*
Y53291D02*Y41291D01*
X55555Y53291D02*X62555D01*
X55555D02*Y41291D01*
Y42291D02*X62555D01*
X65748Y38384D02*X66534D01*
X65748Y32874D02*X66534D01*
G54D67*X59483Y31108D02*Y7486D01*
X85317Y31108D02*Y7486D01*
X2165Y57203D02*X52165D01*
Y67203D02*Y57203D01*
X2165Y67203D02*X52165D01*
X2165D02*Y57203D01*
X12165Y67203D02*Y57203D01*
X2165Y67203D02*X12165D01*
X120787Y38897D02*X170787D01*
Y48897D02*Y38897D01*
X120787Y48897D02*X170787D01*
X120787D02*Y38897D01*
X130787Y48897D02*Y38897D01*
X120787Y48897D02*X130787D01*
X103448Y52535D02*X117348D01*
Y65335D02*Y52535D01*
X103448Y65335D02*X117348D01*
X103448D02*Y52535D01*
G54D68*X106694Y77360D02*Y76574D01*
X112204Y77360D02*Y76574D01*
G54D67*X95866Y33267D02*X119488D01*
X95866Y9645D02*X119488D01*
X95866Y33267D02*Y9645D01*
X119488Y33267D02*Y9645D01*
X125753Y33253D02*X149375D01*
X125753Y9631D02*X149375D01*
X125753Y33253D02*Y9631D01*
X149375Y33253D02*Y9631D01*
X69637Y39924D02*X83537D01*
Y52724D02*Y39924D01*
X69637Y52724D02*X83537D01*
X69637D02*Y39924D01*
G54D68*X125426Y103733D02*X161096D01*
Y65163D01*
X122526D01*
Y100833D01*
X125426Y103733D01*
X124426Y100833D02*G75*G03X124426Y100833I1000J0D01*G01*
X177560Y89959D02*Y89173D01*
X183070Y89959D02*Y89173D01*
G54D67*X73835Y136006D02*Y122106D01*
X85635D01*
Y136006D01*
X73835D01*
X88065Y136340D02*Y117340D01*
X124065D01*
Y136340D01*
X88065D02*X103565D01*
X124065D02*X108565D01*
X103565D02*G75*G03X108565Y136340I2500J0D01*G01*
X136671Y136384D02*X181355D01*
Y118078D01*
X136671D01*
Y136384D01*
G54D68*X188733Y123774D02*Y116774D01*
X200733D01*
Y123774D01*
X188733D01*
X189733D02*Y116774D01*
X188733Y115507D02*Y108507D01*
X200733D01*
Y115507D01*
X188733D01*
X189733D02*Y108507D01*
G54D67*X153544Y33267D02*X177166D01*
X153544Y9645D02*X177166D01*
X153544Y33267D02*Y9645D01*
X177166Y33267D02*Y9645D01*
X184846Y101216D02*X205546D01*
X184846D02*Y82916D01*
X205546D01*
Y101216D02*Y82916D01*
G54D69*X63874Y41869D02*X67874D01*
Y43869D02*Y41869D01*
X65874Y46570D02*Y45070D01*
X67874Y47070D02*Y45070D01*
X63874D02*X67874D01*
X63874Y47070D02*Y45070D01*
Y48771D02*X67874D01*
X63874Y50271D02*X64374Y50771D01*
X67374D01*
X67874Y50271D02*X67374Y50771D01*
X67874Y50271D02*Y48271D01*
X63874Y50271D02*Y48271D01*
X67874Y53472D02*Y52472D01*
X63874Y52972D02*X67874D01*
X64874Y51972D02*X63874Y52972D01*
X39587Y46740D02*Y44740D01*
Y46740D02*X40087Y47240D01*
X41087D01*
X41587Y46740D02*X41087Y47240D01*
X41587Y46740D02*Y45240D01*
X39587D02*X43587D01*
X41587D02*X43587Y47240D01*
Y49941D02*Y48941D01*
X39587Y49441D02*X43587D01*
X40587Y48441D02*X39587Y49441D01*
X39582Y52590D02*Y50590D01*
Y52590D02*X40082Y53090D01*
X41082D01*
X41582Y52590D02*X41082Y53090D01*
X41582Y52590D02*Y51090D01*
X39582D02*X43582D01*
X41582D02*X43582Y53090D01*
X40082Y54291D02*X39582Y54791D01*
Y55791D02*Y54791D01*
Y55791D02*X40082Y56291D01*
X43082D01*
X43582Y55791D02*X43082Y56291D01*
X43582Y55791D02*Y54791D01*
X43082Y54291D02*X43582Y54791D01*
X41582Y56291D02*Y54791D01*
X47341Y18198D02*Y14698D01*
X47841Y14198D01*
X48841D01*
X49341Y14698D01*
Y18198D02*Y14698D01*
X50542Y18198D02*X52542D01*
X50542D02*Y16198D01*
X51042Y16698D01*
X52042D01*
X52542Y16198D01*
Y14698D01*
X52042Y14198D02*X52542Y14698D01*
X51042Y14198D02*X52042D01*
X50542Y14698D02*X51042Y14198D01*
X50776Y10626D02*Y6626D01*
X52276Y10626D02*X52776Y10126D01*
Y7126D01*
X52276Y6626D02*X52776Y7126D01*
X50276Y6626D02*X52276D01*
X50276Y10626D02*X52276D01*
X54477Y6626D02*X55477D01*
X54977Y10626D02*Y6626D01*
X53977Y9626D02*X54977Y10626D01*
X54449Y19848D02*X58449D01*
X54449Y21348D02*Y19348D01*
Y21348D02*X54949Y21848D01*
X55949D01*
X56449Y21348D02*X55949Y21848D01*
X56449Y21348D02*Y19848D01*
X54449Y25049D02*Y23049D01*
Y24049D02*X58449D01*
Y28250D02*Y26750D01*
X57949Y26250D02*X58449Y26750D01*
X54949Y26250D02*X57949D01*
X54949D02*X54449Y26750D01*
Y28250D02*Y26750D01*
X58449Y30951D02*Y29951D01*
X54449Y30451D02*X58449D01*
X55449Y29451D02*X54449Y30451D01*
X51579Y33524D02*X53079D01*
X51079Y34024D02*X51579Y33524D01*
X51079Y37024D02*Y34024D01*
Y37024D02*X51579Y37524D01*
X53079D01*
X54280Y37024D02*X54780Y37524D01*
X55780D01*
X56280Y37024D01*
Y34024D01*
X55780Y33524D02*X56280Y34024D01*
X54780Y33524D02*X55780D01*
X54280Y34024D02*X54780Y33524D01*
Y35524D02*X56280D01*
X54483Y12469D02*X58483D01*
Y14469D02*Y12469D01*
Y17170D02*Y16170D01*
X54483Y16670D02*X58483D01*
X55483Y15670D02*X54483Y16670D01*
X58665Y58646D02*X60665D01*
X61165Y58146D01*
Y57146D01*
X60665Y56646D02*X61165Y57146D01*
X59165Y56646D02*X60665D01*
X59165Y58646D02*Y54646D01*
Y56646D02*X61165Y54646D01*
X62366Y58646D02*X64366D01*
X62366D02*Y56646D01*
X62866Y57146D01*
X63866D01*
X64366Y56646D01*
Y55146D01*
X63866Y54646D02*X64366Y55146D01*
X62866Y54646D02*X63866D01*
X62366Y55146D02*X62866Y54646D01*
X33953Y128514D02*Y125014D01*
X34453Y124514D01*
X35453D01*
X35953Y125014D01*
Y128514D02*Y125014D01*
X37154Y128014D02*X37654Y128514D01*
X38654D01*
X39154Y128014D01*
Y125014D01*
X38654Y124514D02*X39154Y125014D01*
X37654Y124514D02*X38654D01*
X37154Y125014D02*X37654Y124514D01*
Y126514D02*X39154D01*
X33433Y100460D02*Y96960D01*
X33933Y96460D01*
X34933D01*
X35433Y96960D01*
Y100460D02*Y96960D01*
X36634Y99960D02*X37134Y100460D01*
X38634D01*
X39134Y99960D01*
Y98960D01*
X36634Y96460D02*X39134Y98960D01*
X36634Y96460D02*X39134D01*
X31263Y85294D02*X33263D01*
X33763Y84794D01*
Y83794D01*
X33263Y83294D02*X33763Y83794D01*
X31763Y83294D02*X33263D01*
X31763Y85294D02*Y81294D01*
Y83294D02*X33763Y81294D01*
X35464D02*X36464D01*
X35964Y85294D02*Y81294D01*
X34964Y84294D02*X35964Y85294D01*
X38165Y81294D02*X39165D01*
X38665Y85294D02*Y81294D01*
X37665Y84294D02*X38665Y85294D01*
X21992D02*X23992D01*
X24492Y84794D01*
Y83794D01*
X23992Y83294D02*X24492Y83794D01*
X22492Y83294D02*X23992D01*
X22492Y85294D02*Y81294D01*
Y83294D02*X24492Y81294D01*
X26193D02*X27193D01*
X26693Y85294D02*Y81294D01*
X25693Y84294D02*X26693Y85294D01*
X28394Y84794D02*X28894Y85294D01*
X29894D01*
X30394Y84794D01*
Y81794D01*
X29894Y81294D02*X30394Y81794D01*
X28894Y81294D02*X29894D01*
X28394Y81794D02*X28894Y81294D01*
Y83294D02*X30394D01*
X39939Y73570D02*X41439D01*
X39439Y74070D02*X39939Y73570D01*
X39439Y77070D02*Y74070D01*
Y77070D02*X39939Y77570D01*
X41439D01*
X43140Y73570D02*X44140D01*
X43640Y77570D02*Y73570D01*
X42640Y76570D02*X43640Y77570D01*
X45341Y73570D02*X47841Y76070D01*
Y77570D02*Y76070D01*
X45341Y77570D02*X47841D01*
X32084Y76269D02*X33584D01*
X31584Y76769D02*X32084Y76269D01*
X31584Y79769D02*Y76769D01*
Y79769D02*X32084Y80269D01*
X33584D01*
X35285Y76269D02*X36285D01*
X35785Y80269D02*Y76269D01*
X34785Y79269D02*X35785Y80269D01*
X37486D02*X39486D01*
X37486D02*Y78269D01*
X37986Y78769D01*
X38986D01*
X39486Y78269D01*
Y76769D01*
X38986Y76269D02*X39486Y76769D01*
X37986Y76269D02*X38986D01*
X37486Y76769D02*X37986Y76269D01*
X14778Y122971D02*Y120471D01*
Y122971D02*X15278D01*
X17778Y120471D02*X15278Y122971D01*
X17778Y120471D02*X18778D01*
Y122971D02*Y120471D01*
Y125672D02*Y124672D01*
X14778Y125172D02*X18778D01*
X15778Y124172D02*X14778Y125172D01*
X13977Y109631D02*X16477D01*
Y109131D01*
X13977Y106631D02*X16477Y109131D01*
X13977Y106631D02*Y105631D01*
X16477D01*
X17678Y109131D02*X18178Y109631D01*
X19678D01*
X20178Y109131D01*
Y108131D01*
X17678Y105631D02*X20178Y108131D01*
X17678Y105631D02*X20178D01*
X23894Y105642D02*X25394D01*
X23394Y106142D02*X23894Y105642D01*
X23394Y109142D02*Y106142D01*
Y109142D02*X23894Y109642D01*
X25394D01*
X26595Y105642D02*X28595Y107642D01*
Y109142D02*Y107642D01*
X28095Y109642D02*X28595Y109142D01*
X27095Y109642D02*X28095D01*
X26595Y109142D02*X27095Y109642D01*
X26595Y109142D02*Y108142D01*
X27095Y107642D01*
X28595D01*
X20118Y114746D02*X22118D01*
X22618Y114246D01*
Y113246D01*
X22118Y112746D02*X22618Y113246D01*
X20618Y112746D02*X22118D01*
X20618Y114746D02*Y110746D01*
Y112746D02*X22618Y110746D01*
X24319D02*X25319D01*
X24819Y114746D02*Y110746D01*
X23819Y113746D02*X24819Y114746D01*
X26520D02*X28520D01*
X26520D02*Y112746D01*
X27020Y113246D01*
X28020D01*
X28520Y112746D01*
Y111246D01*
X28020Y110746D02*X28520Y111246D01*
X27020Y110746D02*X28020D01*
X26520Y111246D02*X27020Y110746D01*
X20315Y142198D02*X22315D01*
X22815Y141698D01*
Y140698D01*
X22315Y140198D02*X22815Y140698D01*
X20815Y140198D02*X22315D01*
X20815Y142198D02*Y138198D01*
Y140198D02*X22815Y138198D01*
X24016D02*X26516Y140698D01*
Y142198D02*Y140698D01*
X24016Y142198D02*X26516D01*
X49394Y105748D02*X50894D01*
X48894Y106248D02*X49394Y105748D01*
X48894Y109248D02*Y106248D01*
Y109248D02*X49394Y109748D01*
X50894D01*
X52595Y105748D02*X53595D01*
X53095Y109748D02*Y105748D01*
X52095Y108748D02*X53095Y109748D01*
X54796Y106248D02*X55296Y105748D01*
X54796Y107248D02*Y106248D01*
Y107248D02*X55296Y107748D01*
X56296D01*
X56796Y107248D01*
Y106248D01*
X56296Y105748D02*X56796Y106248D01*
X55296Y105748D02*X56296D01*
X54796Y108248D02*X55296Y107748D01*
X54796Y109248D02*Y108248D01*
Y109248D02*X55296Y109748D01*
X56296D01*
X56796Y109248D01*
Y108248D01*
X56296Y107748D02*X56796Y108248D01*
X48894Y114748D02*X50894D01*
X51394Y114248D01*
Y113248D01*
X50894Y112748D02*X51394Y113248D01*
X49394Y112748D02*X50894D01*
X49394Y114748D02*Y110748D01*
Y112748D02*X51394Y110748D01*
X53095D02*X54095D01*
X53595Y114748D02*Y110748D01*
X52595Y113748D02*X53595Y114748D01*
X56796D02*X57296Y114248D01*
X55796Y114748D02*X56796D01*
X55296Y114248D02*X55796Y114748D01*
X55296Y114248D02*Y111248D01*
X55796Y110748D01*
X56796Y112748D02*X57296Y112248D01*
X55296Y112748D02*X56796D01*
X55796Y110748D02*X56796D01*
X57296Y111248D01*
Y112248D02*Y111248D01*
X32019Y31820D02*X34019D01*
X34519Y31320D01*
Y30320D01*
X34019Y29820D02*X34519Y30320D01*
X32519Y29820D02*X34019D01*
X32519Y31820D02*Y27820D01*
Y29820D02*X34519Y27820D01*
X35720Y31320D02*X36220Y31820D01*
X37720D01*
X38220Y31320D01*
Y30320D01*
X35720Y27820D02*X38220Y30320D01*
X35720Y27820D02*X38220D01*
X32054Y17567D02*Y14567D01*
Y17567D02*X32554Y18067D01*
X33554D01*
X34054Y17567D01*
Y14567D01*
X33554Y14067D02*X34054Y14567D01*
X32554Y14067D02*X33554D01*
X32054Y14567D02*X32554Y14067D01*
X33054Y15067D02*X34054Y14067D01*
X35755D02*X36755D01*
X36255Y18067D02*Y14067D01*
X35255Y17067D02*X36255Y18067D01*
X25893Y26496D02*X27393D01*
X25393Y26996D02*X25893Y26496D01*
X25393Y29996D02*Y26996D01*
Y29996D02*X25893Y30496D01*
X27393D01*
X29094Y26496D02*X30094D01*
X29594Y30496D02*Y26496D01*
X28594Y29496D02*X29594Y30496D01*
X11432Y22273D02*Y20273D01*
Y22273D02*X11932Y22773D01*
X12932D01*
X13432Y22273D02*X12932Y22773D01*
X13432Y22273D02*Y20773D01*
X11432D02*X15432D01*
X13432D02*X15432Y22773D01*
X13432Y23974D02*X11432Y25974D01*
X13432Y26474D02*Y23974D01*
X11432Y25974D02*X15432D01*
X15262Y33976D02*X16762D01*
X14762Y34476D02*X15262Y33976D01*
X14762Y37476D02*Y34476D01*
Y37476D02*X15262Y37976D01*
X16762D01*
X17963D02*X19963D01*
X17963D02*Y35976D01*
X18463Y36476D01*
X19463D01*
X19963Y35976D01*
Y34476D01*
X19463Y33976D02*X19963Y34476D01*
X18463Y33976D02*X19463D01*
X17963Y34476D02*X18463Y33976D01*
X34991Y33124D02*X36491D01*
X34491Y33624D02*X34991Y33124D01*
X34491Y36624D02*Y33624D01*
Y36624D02*X34991Y37124D01*
X36491D01*
X37692Y36624D02*X38192Y37124D01*
X39692D01*
X40192Y36624D01*
Y35624D01*
X37692Y33124D02*X40192Y35624D01*
X37692Y33124D02*X40192D01*
X2272Y56264D02*Y52264D01*
X3772Y56264D02*X4272Y55764D01*
Y52764D01*
X3772Y52264D02*X4272Y52764D01*
X1772Y52264D02*X3772D01*
X1772Y56264D02*X3772D01*
X5473Y55764D02*X5973Y56264D01*
X7473D01*
X7973Y55764D01*
Y54764D01*
X5473Y52264D02*X7973Y54764D01*
X5473Y52264D02*X7973D01*
X21666Y56364D02*Y52364D01*
X23166Y56364D02*X23666Y55864D01*
Y52864D01*
X23166Y52364D02*X23666Y52864D01*
X21166Y52364D02*X23166D01*
X21166Y56364D02*X23166D01*
X24867Y55864D02*X25367Y56364D01*
X26367D01*
X26867Y55864D01*
Y52864D01*
X26367Y52364D02*X26867Y52864D01*
X25367Y52364D02*X26367D01*
X24867Y52864D02*X25367Y52364D01*
Y54364D02*X26867D01*
X31248Y44524D02*X32748D01*
X30748Y45024D02*X31248Y44524D01*
X30748Y48024D02*Y45024D01*
Y48024D02*X31248Y48524D01*
X32748D01*
X33949Y46524D02*X35949Y48524D01*
X33949Y46524D02*X36449D01*
X35949Y48524D02*Y44524D01*
X9818Y52263D02*X11318D01*
X9318Y52763D02*X9818Y52263D01*
X9318Y55763D02*Y52763D01*
Y55763D02*X9818Y56263D01*
X11318D01*
X12519D02*Y52263D01*
Y56263D02*Y55763D01*
X15019Y53263D01*
Y56263D02*Y52263D01*
X16220Y55763D02*X16720Y56263D01*
X18220D01*
X18720Y55763D01*
Y54763D01*
X16220Y52263D02*X18720Y54763D01*
X16220Y52263D02*X18720D01*
X6705Y106073D02*X8705D01*
X9205Y105573D01*
Y104573D01*
X8705Y104073D02*X9205Y104573D01*
X7205Y104073D02*X8705D01*
X7205Y106073D02*Y102073D01*
Y104073D02*X9205Y102073D01*
X10406Y102573D02*X10906Y102073D01*
X10406Y103573D02*Y102573D01*
Y103573D02*X10906Y104073D01*
X11906D01*
X12406Y103573D01*
Y102573D01*
X11906Y102073D02*X12406Y102573D01*
X10906Y102073D02*X11906D01*
X10406Y104573D02*X10906Y104073D01*
X10406Y105573D02*Y104573D01*
Y105573D02*X10906Y106073D01*
X11906D01*
X12406Y105573D01*
Y104573D01*
X11906Y104073D02*X12406Y104573D01*
X753Y107680D02*X3753D01*
X4753Y108680D01*
X3753Y109680D01*
X753D02*X3753D01*
X753Y111881D02*Y110881D01*
Y111381D02*X4753D01*
Y111881D02*Y110881D01*
Y114582D02*Y113582D01*
X753Y114082D02*X4753D01*
X1753Y113082D02*X753Y114082D01*
X31692Y73015D02*X33692D01*
X34192Y72515D01*
Y71515D01*
X33692Y71015D02*X34192Y71515D01*
X32192Y71015D02*X33692D01*
X32192Y73015D02*Y69015D01*
Y71015D02*X34192Y69015D01*
X36893Y73015D02*X37393Y72515D01*
X35893Y73015D02*X36893D01*
X35393Y72515D02*X35893Y73015D01*
X35393Y72515D02*Y69515D01*
X35893Y69015D01*
X36893Y71015D02*X37393Y70515D01*
X35393Y71015D02*X36893D01*
X35893Y69015D02*X36893D01*
X37393Y69515D01*
Y70515D02*Y69515D01*
X1632Y68939D02*X3132D01*
X1132Y69439D02*X1632Y68939D01*
X1132Y72439D02*Y69439D01*
Y72439D02*X1632Y72939D01*
X3132D01*
X4833Y68939D02*X5833D01*
X5333Y72939D02*Y68939D01*
X4333Y71939D02*X5333Y72939D01*
X8534D02*X9034Y72439D01*
X7534Y72939D02*X8534D01*
X7034Y72439D02*X7534Y72939D01*
X7034Y72439D02*Y69439D01*
X7534Y68939D01*
X8534Y70939D02*X9034Y70439D01*
X7034Y70939D02*X8534D01*
X7534Y68939D02*X8534D01*
X9034Y69439D01*
Y70439D02*Y69439D01*
X18533Y76202D02*Y74202D01*
Y76202D02*X19033Y76702D01*
X20033D01*
X20533Y76202D02*X20033Y76702D01*
X20533Y76202D02*Y74702D01*
X18533D02*X22533D01*
X20533D02*X22533Y76702D01*
Y79403D02*Y78403D01*
X18533Y78903D02*X22533D01*
X19533Y77903D02*X18533Y78903D01*
X19033Y80604D02*X18533Y81104D01*
Y82604D02*Y81104D01*
Y82604D02*X19033Y83104D01*
X20033D01*
X22533Y80604D02*X20033Y83104D01*
X22533D02*Y80604D01*
X7992Y96247D02*Y94747D01*
X7492Y94247D02*X7992Y94747D01*
X4492Y94247D02*X7492D01*
X4492D02*X3992Y94747D01*
Y96247D02*Y94747D01*
X7992Y98948D02*Y97948D01*
X3992Y98448D02*X7992D01*
X4992Y97448D02*X3992Y98448D01*
X7992Y101649D02*Y100649D01*
X3992Y101149D02*X7992D01*
X4992Y100149D02*X3992Y101149D01*
X13129Y95651D02*Y94151D01*
X12629Y93651D02*X13129Y94151D01*
X9629Y93651D02*X12629D01*
X9629D02*X9129Y94151D01*
Y95651D02*Y94151D01*
X13129Y98352D02*Y97352D01*
X9129Y97852D02*X13129D01*
X10129Y96852D02*X9129Y97852D01*
X12629Y99553D02*X13129Y100053D01*
X9629Y99553D02*X12629D01*
X9629D02*X9129Y100053D01*
Y101053D02*Y100053D01*
Y101053D02*X9629Y101553D01*
X12629D01*
X13129Y101053D02*X12629Y101553D01*
X13129Y101053D02*Y100053D01*
X12129Y99553D02*X10129Y101553D01*
X5153Y86569D02*Y85069D01*
X4653Y84569D02*X5153Y85069D01*
X1653Y84569D02*X4653D01*
X1653D02*X1153Y85069D01*
Y86569D02*Y85069D01*
X5153Y89270D02*Y88270D01*
X1153Y88770D02*X5153D01*
X2153Y87770D02*X1153Y88770D01*
X1653Y90471D02*X1153Y90971D01*
Y91971D02*Y90971D01*
Y91971D02*X1653Y92471D01*
X4653D01*
X5153Y91971D02*X4653Y92471D01*
X5153Y91971D02*Y90971D01*
X4653Y90471D02*X5153Y90971D01*
X3153Y92471D02*Y90971D01*
X6334Y93753D02*Y90253D01*
X6834Y89753D01*
X7834D01*
X8334Y90253D01*
Y93753D02*Y90253D01*
X9535Y91753D02*X11535Y93753D01*
X9535Y91753D02*X12035D01*
X11535Y93753D02*Y89753D01*
X106741Y104803D02*Y101303D01*
X107241Y100803D01*
X108241D01*
X108741Y101303D01*
Y104803D02*Y101303D01*
X111442Y104803D02*X111942Y104303D01*
X110442Y104803D02*X111442D01*
X109942Y104303D02*X110442Y104803D01*
X109942Y104303D02*Y101303D01*
X110442Y100803D01*
X111442Y102803D02*X111942Y102303D01*
X109942Y102803D02*X111442D01*
X110442Y100803D02*X111442D01*
X111942Y101303D01*
Y102303D02*Y101303D01*
X114369Y115733D02*X116369D01*
X116869Y115233D01*
Y114233D01*
X116369Y113733D02*X116869Y114233D01*
X114869Y113733D02*X116369D01*
X114869Y115733D02*Y111733D01*
Y113733D02*X116869Y111733D01*
X118070Y115233D02*X118570Y115733D01*
X120070D01*
X120570Y115233D01*
Y114233D01*
X118070Y111733D02*X120570Y114233D01*
X118070Y111733D02*X120570D01*
X121771D02*X124271Y114233D01*
Y115733D02*Y114233D01*
X121771Y115733D02*X124271D01*
X114369Y110417D02*X116369D01*
X116869Y109917D01*
Y108917D01*
X116369Y108417D02*X116869Y108917D01*
X114869Y108417D02*X116369D01*
X114869Y110417D02*Y106417D01*
Y108417D02*X116869Y106417D01*
X118070Y109917D02*X118570Y110417D01*
X120070D01*
X120570Y109917D01*
Y108917D01*
X118070Y106417D02*X120570Y108917D01*
X118070Y106417D02*X120570D01*
X121771Y106917D02*X122271Y106417D01*
X121771Y107917D02*Y106917D01*
Y107917D02*X122271Y108417D01*
X123271D01*
X123771Y107917D01*
Y106917D01*
X123271Y106417D02*X123771Y106917D01*
X122271Y106417D02*X123271D01*
X121771Y108917D02*X122271Y108417D01*
X121771Y109917D02*Y108917D01*
Y109917D02*X122271Y110417D01*
X123271D01*
X123771Y109917D01*
Y108917D01*
X123271Y108417D02*X123771Y108917D01*
X97703Y110646D02*Y107146D01*
X98203Y106646D01*
X99203D01*
X99703Y107146D01*
Y110646D02*Y107146D01*
X101404Y106646D02*X102404D01*
X101904Y110646D02*Y106646D01*
X100904Y109646D02*X101904Y110646D01*
X97371Y116290D02*Y112790D01*
X97871Y112290D01*
X98871D01*
X99371Y112790D01*
Y116290D02*Y112790D01*
X100572Y112290D02*X103072Y114790D01*
Y116290D02*Y114790D01*
X100572Y116290D02*X103072D01*
X118777Y55674D02*X122277D01*
X122777Y56174D01*
Y57174D02*Y56174D01*
Y57174D02*X122277Y57674D01*
X118777D02*X122277D01*
Y58875D02*X122777Y59375D01*
X121277Y58875D02*X122277D01*
X121277D02*X120777Y59375D01*
Y60375D02*Y59375D01*
Y60375D02*X121277Y60875D01*
X122277D01*
X122777Y60375D02*X122277Y60875D01*
X122777Y60375D02*Y59375D01*
X120277Y58875D02*X120777Y59375D01*
X119277Y58875D02*X120277D01*
X119277D02*X118777Y59375D01*
Y60375D02*Y59375D01*
Y60375D02*X119277Y60875D01*
X120277D01*
X120777Y60375D02*X120277Y60875D01*
X151287Y50513D02*X152787D01*
X150787Y51013D02*X151287Y50513D01*
X150787Y54013D02*Y51013D01*
Y54013D02*X151287Y54513D01*
X152787D01*
X153988Y54013D02*X154488Y54513D01*
X155988D01*
X156488Y54013D01*
Y53013D01*
X153988Y50513D02*X156488Y53013D01*
X153988Y50513D02*X156488D01*
X159189Y54513D02*X159689Y54013D01*
X158189Y54513D02*X159189D01*
X157689Y54013D02*X158189Y54513D01*
X157689Y54013D02*Y51013D01*
X158189Y50513D01*
X159189Y52513D02*X159689Y52013D01*
X157689Y52513D02*X159189D01*
X158189Y50513D02*X159189D01*
X159689Y51013D01*
Y52013D02*Y51013D01*
X106995Y94015D02*X108495D01*
X106495Y94515D02*X106995Y94015D01*
X106495Y97515D02*Y94515D01*
Y97515D02*X106995Y98015D01*
X108495D01*
X111196D02*X111696Y97515D01*
X110196Y98015D02*X111196D01*
X109696Y97515D02*X110196Y98015D01*
X109696Y97515D02*Y94515D01*
X110196Y94015D01*
X111196Y96015D02*X111696Y95515D01*
X109696Y96015D02*X111196D01*
X110196Y94015D02*X111196D01*
X111696Y94515D01*
Y95515D02*Y94515D01*
X104476Y66416D02*X105976D01*
X103976Y66916D02*X104476Y66416D01*
X103976Y69916D02*Y66916D01*
Y69916D02*X104476Y70416D01*
X105976D01*
X107177Y69916D02*X107677Y70416D01*
X109177D01*
X109677Y69916D01*
Y68916D01*
X107177Y66416D02*X109677Y68916D01*
X107177Y66416D02*X109677D01*
X110878Y66916D02*X111378Y66416D01*
X110878Y69916D02*Y66916D01*
Y69916D02*X111378Y70416D01*
X112378D01*
X112878Y69916D01*
Y66916D01*
X112378Y66416D02*X112878Y66916D01*
X111378Y66416D02*X112378D01*
X110878Y67416D02*X112878Y69416D01*
X95686Y60463D02*Y58463D01*
Y60463D02*X96186Y60963D01*
X97186D01*
X97686Y60463D02*X97186Y60963D01*
X97686Y60463D02*Y58963D01*
X95686D02*X99686D01*
X97686D02*X99686Y60963D01*
X96186Y62164D02*X95686Y62664D01*
Y63664D02*Y62664D01*
Y63664D02*X96186Y64164D01*
X99186D01*
X99686Y63664D02*X99186Y64164D01*
X99686Y63664D02*Y62664D01*
X99186Y62164D02*X99686Y62664D01*
X97686Y64164D02*Y62664D01*
X96186Y65365D02*X95686Y65865D01*
Y66865D02*Y65865D01*
Y66865D02*X96186Y67365D01*
X99186D01*
X99686Y66865D02*X99186Y67365D01*
X99686Y66865D02*Y65865D01*
X99186Y65365D02*X99686Y65865D01*
X97686Y67365D02*Y65865D01*
X175975Y74127D02*Y72627D01*
X175475Y72127D02*X175975Y72627D01*
X172475Y72127D02*X175475D01*
X172475D02*X171975Y72627D01*
Y74127D02*Y72627D01*
X172475Y75328D02*X171975Y75828D01*
Y77328D02*Y75828D01*
Y77328D02*X172475Y77828D01*
X173475D01*
X175975Y75328D02*X173475Y77828D01*
X175975D02*Y75328D01*
X172475Y79029D02*X171975Y79529D01*
Y80529D02*Y79529D01*
Y80529D02*X172475Y81029D01*
X175475D01*
X175975Y80529D02*X175475Y81029D01*
X175975Y80529D02*Y79529D01*
X175475Y79029D02*X175975Y79529D01*
X173975Y81029D02*Y79529D01*
X170773Y99824D02*Y97824D01*
Y99824D02*X171273Y100324D01*
X172273D01*
X172773Y99824D02*X172273Y100324D01*
X172773Y99824D02*Y98324D01*
X170773D02*X174773D01*
X172773D02*X174773Y100324D01*
X171273Y101525D02*X170773Y102025D01*
Y103025D02*Y102025D01*
Y103025D02*X171273Y103525D01*
X174273D01*
X174773Y103025D02*X174273Y103525D01*
X174773Y103025D02*Y102025D01*
X174273Y101525D02*X174773Y102025D01*
X172773Y103525D02*Y102025D01*
X170773Y106726D02*Y104726D01*
X172773D01*
X172273Y105226D01*
Y106226D02*Y105226D01*
Y106226D02*X172773Y106726D01*
X174273D01*
X174773Y106226D02*X174273Y106726D01*
X174773Y106226D02*Y105226D01*
X174273Y104726D02*X174773Y105226D01*
X180147Y98193D02*X183647D01*
X184147Y98693D01*
Y99693D02*Y98693D01*
Y99693D02*X183647Y100193D01*
X180147D02*X183647D01*
X184147Y102894D02*Y101894D01*
X180147Y102394D02*X184147D01*
X181147Y101394D02*X180147Y102394D01*
X184147Y105595D02*Y104595D01*
X180147Y105095D02*X184147D01*
X181147Y104095D02*X180147Y105095D01*
X167980Y65121D02*X169980D01*
X170480Y64621D01*
Y63621D01*
X169980Y63121D02*X170480Y63621D01*
X168480Y63121D02*X169980D01*
X168480Y65121D02*Y61121D01*
Y63121D02*X170480Y61121D01*
X171681Y64621D02*X172181Y65121D01*
X173681D01*
X174181Y64621D01*
Y63621D01*
X171681Y61121D02*X174181Y63621D01*
X171681Y61121D02*X174181D01*
X175882D02*X176882D01*
X176382Y65121D02*Y61121D01*
X175382Y64121D02*X176382Y65121D01*
X162661Y55688D02*X164161D01*
X162161Y56188D02*X162661Y55688D01*
X162161Y59188D02*Y56188D01*
Y59188D02*X162661Y59688D01*
X164161D01*
X165362Y59188D02*X165862Y59688D01*
X167362D01*
X167862Y59188D01*
Y58188D01*
X165362Y55688D02*X167862Y58188D01*
X165362Y55688D02*X167862D01*
X169063Y57688D02*X171063Y59688D01*
X169063Y57688D02*X171563D01*
X171063Y59688D02*Y55688D01*
X63511Y125665D02*X65511D01*
X66011Y125165D01*
Y124165D01*
X65511Y123665D02*X66011Y124165D01*
X64011Y123665D02*X65511D01*
X64011Y125665D02*Y121665D01*
Y123665D02*X66011Y121665D01*
X67712D02*X68712D01*
X68212Y125665D02*Y121665D01*
X67212Y124665D02*X68212Y125665D01*
X69913Y122165D02*X70413Y121665D01*
X69913Y125165D02*Y122165D01*
Y125165D02*X70413Y125665D01*
X71413D01*
X71913Y125165D01*
Y122165D01*
X71413Y121665D02*X71913Y122165D01*
X70413Y121665D02*X71413D01*
X69913Y122665D02*X71913Y124665D01*
X57551Y141337D02*X60551D01*
X61551Y142337D01*
X60551Y143337D01*
X57551D02*X60551D01*
X58051Y144538D02*X61051D01*
X58051D02*X57551Y145038D01*
Y146038D02*Y145038D01*
Y146038D02*X58051Y146538D01*
X61051D01*
X61551Y146038D02*X61051Y146538D01*
X61551Y146038D02*Y145038D01*
X61051Y144538D02*X61551Y145038D01*
Y149239D02*Y148239D01*
X57551Y148739D02*X61551D01*
X58551Y147739D02*X57551Y148739D01*
X63780Y131087D02*X65780D01*
X66280Y130587D01*
Y129587D01*
X65780Y129087D02*X66280Y129587D01*
X64280Y129087D02*X65780D01*
X64280Y131087D02*Y127087D01*
Y129087D02*X66280Y127087D01*
X67981D02*X68981D01*
X68481Y131087D02*Y127087D01*
X67481Y130087D02*X68481Y131087D01*
X70182Y129087D02*X72182Y131087D01*
X70182Y129087D02*X72682D01*
X72182Y131087D02*Y127087D01*
X67476Y134566D02*Y133066D01*
X66976Y132566D02*X67476Y133066D01*
X63976Y132566D02*X66976D01*
X63976D02*X63476Y133066D01*
Y134566D02*Y133066D01*
X67476Y137267D02*Y136267D01*
X63476Y136767D02*X67476D01*
X64476Y135767D02*X63476Y136767D01*
X65476Y138468D02*X63476Y140468D01*
X65476Y140968D02*Y138468D01*
X63476Y140468D02*X67476D01*
X68716Y132626D02*X72216D01*
X72716Y133126D01*
Y134126D02*Y133126D01*
Y134126D02*X72216Y134626D01*
X68716D02*X72216D01*
X72716Y137327D02*Y136327D01*
X68716Y136827D02*X72716D01*
X69716Y135827D02*X68716Y136827D01*
X72216Y138528D02*X72716Y139028D01*
X69216Y138528D02*X72216D01*
X69216D02*X68716Y139028D01*
Y140028D02*Y139028D01*
Y140028D02*X69216Y140528D01*
X72216D01*
X72716Y140028D02*X72216Y140528D01*
X72716Y140028D02*Y139028D01*
X71716Y138528D02*X69716Y140528D01*
X63657Y120547D02*X65657D01*
X66157Y120047D01*
Y119047D01*
X65657Y118547D02*X66157Y119047D01*
X64157Y118547D02*X65657D01*
X64157Y120547D02*Y116547D01*
Y118547D02*X66157Y116547D01*
X67358D02*X69358Y118547D01*
Y120047D02*Y118547D01*
X68858Y120547D02*X69358Y120047D01*
X67858Y120547D02*X68858D01*
X67358Y120047D02*X67858Y120547D01*
X67358Y120047D02*Y119047D01*
X67858Y118547D01*
X69358D01*
X81551Y117098D02*X83051D01*
X81051Y117598D02*X81551Y117098D01*
X81051Y120598D02*Y117598D01*
Y120598D02*X81551Y121098D01*
X83051D01*
X84252Y117098D02*X86752Y119598D01*
Y121098D02*Y119598D01*
X84252Y121098D02*X86752D01*
X86086Y137937D02*X87586D01*
X85586Y138437D02*X86086Y137937D01*
X85586Y141437D02*Y138437D01*
Y141437D02*X86086Y141937D01*
X87586D01*
X88787Y141437D02*X89287Y141937D01*
X90787D01*
X91287Y141437D01*
Y140437D01*
X88787Y137937D02*X91287Y140437D01*
X88787Y137937D02*X91287D01*
X92488D02*X94988Y140437D01*
Y141937D02*Y140437D01*
X92488Y141937D02*X94988D01*
X85075Y147850D02*X87075D01*
X87575Y147350D01*
Y146350D01*
X87075Y145850D02*X87575Y146350D01*
X85575Y145850D02*X87075D01*
X85575Y147850D02*Y143850D01*
Y145850D02*X87575Y143850D01*
X88776Y145850D02*X90776Y147850D01*
X88776Y145850D02*X91276D01*
X90776Y147850D02*Y143850D01*
X92477Y147850D02*X94477D01*
X92477D02*Y145850D01*
X92977Y146350D01*
X93977D01*
X94477Y145850D01*
Y144350D01*
X93977Y143850D02*X94477Y144350D01*
X92977Y143850D02*X93977D01*
X92477Y144350D02*X92977Y143850D01*
X63909Y146724D02*X65409D01*
X63409Y147224D02*X63909Y146724D01*
X63409Y150224D02*Y147224D01*
Y150224D02*X63909Y150724D01*
X65409D01*
X67110Y146724D02*X68110D01*
X67610Y150724D02*Y146724D01*
X66610Y149724D02*X67610Y150724D01*
X69311Y150224D02*X69811Y150724D01*
X71311D01*
X71811Y150224D01*
Y149224D01*
X69311Y146724D02*X71811Y149224D01*
X69311Y146724D02*X71811D01*
X125253Y138047D02*X129253D01*
X125253Y139547D02*Y137547D01*
Y139547D02*X125753Y140047D01*
X126753D01*
X127253Y139547D02*X126753Y140047D01*
X127253Y139547D02*Y138047D01*
X125253Y141748D02*X129253D01*
X125253Y143248D02*Y141248D01*
Y143248D02*X125753Y143748D01*
X126753D01*
X127253Y143248D02*X126753Y143748D01*
X127253Y143248D02*Y141748D01*
X125253Y144949D02*X129253D01*
X125253D02*X126753Y146449D01*
X125253Y147949D01*
X129253D01*
Y150650D02*Y149650D01*
X125253Y150150D02*X129253D01*
X126253Y149150D02*X125253Y150150D01*
X135194Y129422D02*Y127922D01*
X134694Y127422D02*X135194Y127922D01*
X131694Y127422D02*X134694D01*
X131694D02*X131194Y127922D01*
Y129422D02*Y127922D01*
X131694Y130623D02*X131194Y131123D01*
Y132623D02*Y131123D01*
Y132623D02*X131694Y133123D01*
X132694D01*
X135194Y130623D02*X132694Y133123D01*
X135194D02*Y130623D01*
X131194Y136324D02*Y134324D01*
X133194D01*
X132694Y134824D01*
Y135824D02*Y134824D01*
Y135824D02*X133194Y136324D01*
X134694D01*
X135194Y135824D02*X134694Y136324D01*
X135194Y135824D02*Y134824D01*
X134694Y134324D02*X135194Y134824D01*
X134528Y142148D02*Y140648D01*
X134028Y140148D02*X134528Y140648D01*
X131028Y140148D02*X134028D01*
X131028D02*X130528Y140648D01*
Y142148D02*Y140648D01*
Y143349D02*X134528D01*
X130528D02*X131028D01*
X133528Y145849D01*
X130528D02*X134528D01*
X130528Y148550D02*X131028Y149050D01*
X130528Y148550D02*Y147550D01*
X131028Y147050D02*X130528Y147550D01*
X131028Y147050D02*X134028D01*
X134528Y147550D01*
X132528Y148550D02*X133028Y149050D01*
X132528Y148550D02*Y147050D01*
X134528Y148550D02*Y147550D01*
Y148550D02*X134028Y149050D01*
X133028D02*X134028D01*
X129409Y119124D02*Y117624D01*
X128909Y117124D02*X129409Y117624D01*
X125909Y117124D02*X128909D01*
X125909D02*X125409Y117624D01*
Y119124D02*Y117624D01*
X125909Y120325D02*X125409Y120825D01*
Y122325D02*Y120825D01*
Y122325D02*X125909Y122825D01*
X126909D01*
X129409Y120325D02*X126909Y122825D01*
X129409D02*Y120325D01*
Y125526D02*Y124526D01*
X125409Y125026D02*X129409D01*
X126409Y124026D02*X125409Y125026D01*
X144507Y113014D02*X146007D01*
X144007Y113514D02*X144507Y113014D01*
X144007Y116514D02*Y113514D01*
Y116514D02*X144507Y117014D01*
X146007D01*
X147708Y113014D02*X148708D01*
X148208Y117014D02*Y113014D01*
X147208Y116014D02*X148208Y117014D01*
X149909Y113014D02*X151909Y115014D01*
Y116514D02*Y115014D01*
X151409Y117014D02*X151909Y116514D01*
X150409Y117014D02*X151409D01*
X149909Y116514D02*X150409Y117014D01*
X149909Y116514D02*Y115514D01*
X150409Y115014D01*
X151909D01*
X162594Y107603D02*X164094D01*
X162094Y108103D02*X162594Y107603D01*
X162094Y111103D02*Y108103D01*
Y111103D02*X162594Y111603D01*
X164094D01*
X165295Y111103D02*X165795Y111603D01*
X167295D01*
X167795Y111103D01*
Y110103D01*
X165295Y107603D02*X167795Y110103D01*
X165295Y107603D02*X167795D01*
X168996Y111103D02*X169496Y111603D01*
X170996D01*
X171496Y111103D01*
Y110103D01*
X168996Y107603D02*X171496Y110103D01*
X168996Y107603D02*X171496D01*
X154239Y117075D02*Y116575D01*
X156739Y114075D01*
Y113075D01*
X154239Y114075D02*Y113075D01*
Y114075D02*X156739Y116575D01*
Y117075D02*Y116575D01*
X158440Y113075D02*X159440D01*
X158940Y117075D02*Y113075D01*
X157940Y116075D02*X158940Y117075D01*
X194305Y127591D02*Y125591D01*
Y127591D02*X194805Y128091D01*
X195805D01*
X196305Y127591D02*X195805Y128091D01*
X196305Y127591D02*Y126091D01*
X194305D02*X198305D01*
X196305D02*X198305Y128091D01*
X194805Y129292D02*X194305Y129792D01*
Y130792D02*Y129792D01*
Y130792D02*X194805Y131292D01*
X197805D01*
X198305Y130792D02*X197805Y131292D01*
X198305Y130792D02*Y129792D01*
X197805Y129292D02*X198305Y129792D01*
X196305Y131292D02*Y129792D01*
X197805Y132493D02*X198305Y132993D01*
X196805Y132493D02*X197805D01*
X196805D02*X196305Y132993D01*
Y133993D02*Y132993D01*
Y133993D02*X196805Y134493D01*
X197805D01*
X198305Y133993D02*X197805Y134493D01*
X198305Y133993D02*Y132993D01*
X195805Y132493D02*X196305Y132993D01*
X194805Y132493D02*X195805D01*
X194805D02*X194305Y132993D01*
Y133993D02*Y132993D01*
Y133993D02*X194805Y134493D01*
X195805D01*
X196305Y133993D02*X195805Y134493D01*
X188793Y127394D02*Y125394D01*
Y127394D02*X189293Y127894D01*
X190293D01*
X190793Y127394D02*X190293Y127894D01*
X190793Y127394D02*Y125894D01*
X188793D02*X192793D01*
X190793D02*X192793Y127894D01*
X189293Y129095D02*X188793Y129595D01*
Y130595D02*Y129595D01*
Y130595D02*X189293Y131095D01*
X192293D01*
X192793Y130595D02*X192293Y131095D01*
X192793Y130595D02*Y129595D01*
X192293Y129095D02*X192793Y129595D01*
X190793Y131095D02*Y129595D01*
X192793Y132296D02*X190293Y134796D01*
X188793D02*X190293D01*
X188793D02*Y132296D01*
X183283Y129952D02*Y127952D01*
Y129952D02*X183783Y130452D01*
X184783D01*
X185283Y129952D02*X184783Y130452D01*
X185283Y129952D02*Y128452D01*
X183283D02*X187283D01*
X185283D02*X187283Y130452D01*
X183783Y131653D02*X183283Y132153D01*
Y133653D02*Y132153D01*
Y133653D02*X183783Y134153D01*
X184783D01*
X187283Y131653D02*X184783Y134153D01*
X187283D02*Y131653D01*
X183283Y137354D02*Y135354D01*
X185283D01*
X184783Y135854D01*
Y136854D02*Y135854D01*
Y136854D02*X185283Y137354D01*
X186783D01*
X187283Y136854D02*X186783Y137354D01*
X187283Y136854D02*Y135854D01*
X186783Y135354D02*X187283Y135854D01*
X172831Y111611D02*X174831D01*
X175331Y111111D01*
Y110111D01*
X174831Y109611D02*X175331Y110111D01*
X173331Y109611D02*X174831D01*
X173331Y111611D02*Y107611D01*
Y109611D02*X175331Y107611D01*
X176532Y111111D02*X177032Y111611D01*
X178532D01*
X179032Y111111D01*
Y110111D01*
X176532Y107611D02*X179032Y110111D01*
X176532Y107611D02*X179032D01*
X181733Y111611D02*X182233Y111111D01*
X180733Y111611D02*X181733D01*
X180233Y111111D02*X180733Y111611D01*
X180233Y111111D02*Y108111D01*
X180733Y107611D01*
X181733Y109611D02*X182233Y109111D01*
X180233Y109611D02*X181733D01*
X180733Y107611D02*X181733D01*
X182233Y108111D01*
Y109111D02*Y108111D01*
X184017Y109593D02*Y107593D01*
Y109593D02*X184517Y110093D01*
X185517D01*
X186017Y109593D02*X185517Y110093D01*
X186017Y109593D02*Y108093D01*
X184017D02*X188017D01*
X186017D02*X188017Y110093D01*
X184517Y111294D02*X184017Y111794D01*
Y112794D02*Y111794D01*
Y112794D02*X184517Y113294D01*
X187517D01*
X188017Y112794D02*X187517Y113294D01*
X188017Y112794D02*Y111794D01*
X187517Y111294D02*X188017Y111794D01*
X186017Y113294D02*Y111794D01*
Y114495D02*X184017Y116495D01*
X186017Y116995D02*Y114495D01*
X184017Y116495D02*X188017D01*
X201473Y121789D02*X205473D01*
Y123789D02*Y121789D01*
X203473Y126490D02*Y124990D01*
X205473Y126990D02*Y124990D01*
X201473D02*X205473D01*
X201473Y126990D02*Y124990D01*
Y128691D02*X205473D01*
X201473Y130191D02*X201973Y130691D01*
X204973D01*
X205473Y130191D02*X204973Y130691D01*
X205473Y130191D02*Y128191D01*
X201473Y130191D02*Y128191D01*
X201973Y131892D02*X201473Y132392D01*
Y133392D02*Y132392D01*
Y133392D02*X201973Y133892D01*
X204973D01*
X205473Y133392D02*X204973Y133892D01*
X205473Y133392D02*Y132392D01*
X204973Y131892D02*X205473Y132392D01*
X203473Y133892D02*Y132392D01*
X201474Y107420D02*X205474D01*
Y109420D02*Y107420D01*
X203474Y112121D02*Y110621D01*
X205474Y112621D02*Y110621D01*
X201474D02*X205474D01*
X201474Y112621D02*Y110621D01*
Y114322D02*X205474D01*
X201474Y115822D02*X201974Y116322D01*
X204974D01*
X205474Y115822D02*X204974Y116322D01*
X205474Y115822D02*Y113822D01*
X201474Y115822D02*Y113822D01*
X201974Y117523D02*X201474Y118023D01*
Y119523D02*Y118023D01*
Y119523D02*X201974Y120023D01*
X202974D01*
X205474Y117523D02*X202974Y120023D01*
X205474D02*Y117523D01*
X81449Y58055D02*Y54555D01*
X81949Y54055D01*
X82949D01*
X83449Y54555D01*
Y58055D02*Y54555D01*
X84650Y54055D02*X86650Y56055D01*
Y57555D02*Y56055D01*
X86150Y58055D02*X86650Y57555D01*
X85150Y58055D02*X86150D01*
X84650Y57555D02*X85150Y58055D01*
X84650Y57555D02*Y56555D01*
X85150Y56055D01*
X86650D01*
X93127Y5685D02*X95127D01*
X95627Y5185D01*
Y4185D01*
X95127Y3685D02*X95627Y4185D01*
X93627Y3685D02*X95127D01*
X93627Y5685D02*Y1685D01*
Y3685D02*X95627Y1685D01*
X96828Y5185D02*X97328Y5685D01*
X98328D01*
X98828Y5185D01*
Y2185D01*
X98328Y1685D02*X98828Y2185D01*
X97328Y1685D02*X98328D01*
X96828Y2185D02*X97328Y1685D01*
Y3685D02*X98828D01*
X100029Y1685D02*X102029Y3685D01*
Y5185D02*Y3685D01*
X101529Y5685D02*X102029Y5185D01*
X100529Y5685D02*X101529D01*
X100029Y5185D02*X100529Y5685D01*
X100029Y5185D02*Y4185D01*
X100529Y3685D01*
X102029D01*
X90967Y23277D02*Y21277D01*
Y23277D02*X91467Y23777D01*
X92467D01*
X92967Y23277D02*X92467Y23777D01*
X92967Y23277D02*Y21777D01*
X90967D02*X94967D01*
X92967D02*X94967Y23777D01*
X92967Y24978D02*X90967Y26978D01*
X92967Y27478D02*Y24978D01*
X90967Y26978D02*X94967D01*
X92967Y28679D02*X90967Y30679D01*
X92967Y31179D02*Y28679D01*
X90967Y30679D02*X94967D01*
X79404Y5868D02*Y1868D01*
X78904Y5868D02*X80904D01*
X81404Y5368D01*
Y4368D01*
X80904Y3868D02*X81404Y4368D01*
X79404Y3868D02*X80904D01*
X82605Y5868D02*X84605D01*
X83605D02*Y1868D01*
X86306D02*X87806D01*
X85806Y2368D02*X86306Y1868D01*
X85806Y5368D02*Y2368D01*
Y5368D02*X86306Y5868D01*
X87806D01*
X89007Y5368D02*X89507Y5868D01*
X91007D01*
X91507Y5368D01*
Y4368D01*
X89007Y1868D02*X91507Y4368D01*
X89007Y1868D02*X91507D01*
X120290Y12235D02*X120790Y12735D01*
X120290Y12235D02*Y10735D01*
X120790Y10235D02*X120290Y10735D01*
X120790Y10235D02*X121790D01*
X122290Y10735D01*
Y12235D02*Y10735D01*
Y12235D02*X122790Y12735D01*
X123790D01*
X124290Y12235D02*X123790Y12735D01*
X124290Y12235D02*Y10735D01*
X123790Y10235D02*X124290Y10735D01*
Y15436D02*Y14436D01*
X120290Y14936D02*X124290D01*
X121290Y13936D02*X120290Y14936D01*
X96114Y50927D02*X98114D01*
X98614Y50427D01*
Y49427D01*
X98114Y48927D02*X98614Y49427D01*
X96614Y48927D02*X98114D01*
X96614Y50927D02*Y46927D01*
Y48927D02*X98614Y46927D01*
X99815Y50427D02*X100315Y50927D01*
X101315D01*
X101815Y50427D01*
Y47427D01*
X101315Y46927D02*X101815Y47427D01*
X100315Y46927D02*X101315D01*
X99815Y47427D02*X100315Y46927D01*
Y48927D02*X101815D01*
X103016Y50427D02*X103516Y50927D01*
X105016D01*
X105516Y50427D01*
Y49427D01*
X103016Y46927D02*X105516Y49427D01*
X103016Y46927D02*X105516D01*
X96850Y44472D02*X98850D01*
X99350Y43972D01*
Y42972D01*
X98850Y42472D02*X99350Y42972D01*
X97350Y42472D02*X98850D01*
X97350Y44472D02*Y40472D01*
Y42472D02*X99350Y40472D01*
X101051D02*X102051D01*
X101551Y44472D02*Y40472D01*
X100551Y43472D02*X101551Y44472D01*
X103252Y40472D02*X105752Y42972D01*
Y44472D02*Y42972D01*
X103252Y44472D02*X105752D01*
X103545Y38369D02*X105545D01*
X106045Y37869D01*
Y36869D01*
X105545Y36369D02*X106045Y36869D01*
X104045Y36369D02*X105545D01*
X104045Y38369D02*Y34369D01*
Y36369D02*X106045Y34369D01*
X107246Y37869D02*X107746Y38369D01*
X109246D01*
X109746Y37869D01*
Y36869D01*
X107246Y34369D02*X109746Y36869D01*
X107246Y34369D02*X109746D01*
X110947D02*X112947Y36369D01*
Y37869D02*Y36369D01*
X112447Y38369D02*X112947Y37869D01*
X111447Y38369D02*X112447D01*
X110947Y37869D02*X111447Y38369D01*
X110947Y37869D02*Y36869D01*
X111447Y36369D01*
X112947D01*
X87400Y38368D02*X89400D01*
X89900Y37868D01*
Y36868D01*
X89400Y36368D02*X89900Y36868D01*
X87900Y36368D02*X89400D01*
X87900Y38368D02*Y34368D01*
Y36368D02*X89900Y34368D01*
X91101Y37868D02*X91601Y38368D01*
X92601D01*
X93101Y37868D01*
Y34868D01*
X92601Y34368D02*X93101Y34868D01*
X91601Y34368D02*X92601D01*
X91101Y34868D02*X91601Y34368D01*
Y36368D02*X93101D01*
X94302Y34868D02*X94802Y34368D01*
X94302Y37868D02*Y34868D01*
Y37868D02*X94802Y38368D01*
X95802D01*
X96302Y37868D01*
Y34868D01*
X95802Y34368D02*X96302Y34868D01*
X94802Y34368D02*X95802D01*
X94302Y35368D02*X96302Y37368D01*
X116157Y40189D02*Y38189D01*
Y40189D02*X116657Y40689D01*
X117657D01*
X118157Y40189D02*X117657Y40689D01*
X118157Y40189D02*Y38689D01*
X116157D02*X120157D01*
X118157D02*X120157Y40689D01*
X118157Y41890D02*X116157Y43890D01*
X118157Y44390D02*Y41890D01*
X116157Y43890D02*X120157D01*
X116657Y45591D02*X116157Y46091D01*
Y47091D02*Y46091D01*
Y47091D02*X116657Y47591D01*
X119657D01*
X120157Y47091D02*X119657Y47591D01*
X120157Y47091D02*Y46091D01*
X119657Y45591D02*X120157Y46091D01*
X118157Y47591D02*Y46091D01*
X66289Y54519D02*X67789D01*
X65789Y55019D02*X66289Y54519D01*
X65789Y58019D02*Y55019D01*
Y58019D02*X66289Y58519D01*
X67789D01*
X68990Y55019D02*X69490Y54519D01*
X68990Y56019D02*Y55019D01*
Y56019D02*X69490Y56519D01*
X70490D01*
X70990Y56019D01*
Y55019D01*
X70490Y54519D02*X70990Y55019D01*
X69490Y54519D02*X70490D01*
X68990Y57019D02*X69490Y56519D01*
X68990Y58019D02*Y57019D01*
Y58019D02*X69490Y58519D01*
X70490D01*
X70990Y58019D01*
Y57019D01*
X70490Y56519D02*X70990Y57019D01*
X132157Y54608D02*X134157D01*
X134657Y54108D01*
Y53108D01*
X134157Y52608D02*X134657Y53108D01*
X132657Y52608D02*X134157D01*
X132657Y54608D02*Y50608D01*
Y52608D02*X134657Y50608D01*
X135858Y54108D02*X136358Y54608D01*
X137358D01*
X137858Y54108D01*
Y51108D01*
X137358Y50608D02*X137858Y51108D01*
X136358Y50608D02*X137358D01*
X135858Y51108D02*X136358Y50608D01*
Y52608D02*X137858D01*
X139559Y50608D02*X140559D01*
X140059Y54608D02*Y50608D01*
X139059Y53608D02*X140059Y54608D01*
X124865Y30897D02*Y29397D01*
X124365Y28897D02*X124865Y29397D01*
X121365Y28897D02*X124365D01*
X121365D02*X120865Y29397D01*
Y30897D02*Y29397D01*
Y32098D02*X124865D01*
X120865D02*X121365D01*
X123865Y34598D01*
X120865D02*X124865D01*
X121365Y35799D02*X120865Y36299D01*
Y37299D02*Y36299D01*
Y37299D02*X121365Y37799D01*
X124365D01*
X124865Y37299D02*X124365Y37799D01*
X124865Y37299D02*Y36299D01*
X124365Y35799D02*X124865Y36299D01*
X122865Y37799D02*Y36299D01*
X136415Y37961D02*X136915Y37461D01*
X134915Y37961D02*X136415D01*
X134415Y37461D02*X134915Y37961D01*
X134415Y37461D02*Y36461D01*
X134915Y35961D01*
X136415D01*
X136915Y35461D01*
Y34461D01*
X136415Y33961D02*X136915Y34461D01*
X134915Y33961D02*X136415D01*
X134415Y34461D02*X134915Y33961D01*
X138116Y37461D02*X138616Y37961D01*
X140116D01*
X140616Y37461D01*
Y36461D01*
X138116Y33961D02*X140616Y36461D01*
X138116Y33961D02*X140616D01*
X142864Y5793D02*X144864D01*
X145364Y5293D01*
Y4293D01*
X144864Y3793D02*X145364Y4293D01*
X143364Y3793D02*X144864D01*
X143364Y5793D02*Y1793D01*
Y3793D02*X145364Y1793D01*
X146565Y3793D02*X148565Y5793D01*
X146565Y3793D02*X149065D01*
X148565Y5793D02*Y1793D01*
X150266Y2293D02*X150766Y1793D01*
X150266Y5293D02*Y2293D01*
Y5293D02*X150766Y5793D01*
X151766D01*
X152266Y5293D01*
Y2293D01*
X151766Y1793D02*X152266Y2293D01*
X150766Y1793D02*X151766D01*
X150266Y2793D02*X152266Y4793D01*
X170169Y5352D02*X172169D01*
X172669Y4852D01*
Y3852D01*
X172169Y3352D02*X172669Y3852D01*
X170669Y3352D02*X172169D01*
X170669Y5352D02*Y1352D01*
Y3352D02*X172669Y1352D01*
X173870Y3352D02*X175870Y5352D01*
X173870Y3352D02*X176370D01*
X175870Y5352D02*Y1352D01*
X178071D02*X179071D01*
X178571Y5352D02*Y1352D01*
X177571Y4352D02*X178571Y5352D01*
X164009Y38369D02*X164509Y37869D01*
X162509Y38369D02*X164009D01*
X162009Y37869D02*X162509Y38369D01*
X162009Y37869D02*Y36869D01*
X162509Y36369D01*
X164009D01*
X164509Y35869D01*
Y34869D01*
X164009Y34369D02*X164509Y34869D01*
X162509Y34369D02*X164009D01*
X162009Y34869D02*X162509Y34369D01*
X165710Y37869D02*X166210Y38369D01*
X167210D01*
X167710Y37869D01*
Y34869D01*
X167210Y34369D02*X167710Y34869D01*
X166210Y34369D02*X167210D01*
X165710Y34869D02*X166210Y34369D01*
Y36369D02*X167710D01*
X192458Y53277D02*Y51777D01*
X191958Y51277D02*X192458Y51777D01*
X188958Y51277D02*X191958D01*
X188958D02*X188458Y51777D01*
Y53277D02*Y51777D01*
Y54478D02*X192458D01*
X188458D02*X188958D01*
X191458Y56978D01*
X188458D02*X192458D01*
X190458Y58179D02*X188458Y60179D01*
X190458Y60679D02*Y58179D01*
X188458Y60179D02*X192458D01*
X188404Y41689D02*Y39689D01*
Y41689D02*X188904Y42189D01*
X189904D01*
X190404Y41689D02*X189904Y42189D01*
X190404Y41689D02*Y40189D01*
X188404D02*X192404D01*
X190404D02*X192404Y42189D01*
X188904Y43390D02*X188404Y43890D01*
Y45390D02*Y43890D01*
Y45390D02*X188904Y45890D01*
X189904D01*
X192404Y43390D02*X189904Y45890D01*
X192404D02*Y43390D01*
X188904Y47091D02*X188404Y47591D01*
Y49091D02*Y47591D01*
Y49091D02*X188904Y49591D01*
X189904D01*
X192404Y47091D02*X189904Y49591D01*
X192404D02*Y47091D01*
X187450Y69624D02*Y67624D01*
Y69624D02*X187950Y70124D01*
X188950D01*
X189450Y69624D02*X188950Y70124D01*
X189450Y69624D02*Y68124D01*
X187450D02*X191450D01*
X189450D02*X191450Y70124D01*
Y72825D02*Y71825D01*
X187450Y72325D02*X191450D01*
X188450Y71325D02*X187450Y72325D01*
X190950Y74026D02*X191450Y74526D01*
X189950Y74026D02*X190950D01*
X189950D02*X189450Y74526D01*
Y75526D02*Y74526D01*
Y75526D02*X189950Y76026D01*
X190950D01*
X191450Y75526D02*X190950Y76026D01*
X191450Y75526D02*Y74526D01*
X188950Y74026D02*X189450Y74526D01*
X187950Y74026D02*X188950D01*
X187950D02*X187450Y74526D01*
Y75526D02*Y74526D01*
Y75526D02*X187950Y76026D01*
X188950D01*
X189450Y75526D02*X188950Y76026D01*
X197940Y77677D02*X199440D01*
X197440Y78177D02*X197940Y77677D01*
X197440Y81177D02*Y78177D01*
Y81177D02*X197940Y81677D01*
X199440D01*
X200641Y81177D02*X201141Y81677D01*
X202641D01*
X203141Y81177D01*
Y80177D01*
X200641Y77677D02*X203141Y80177D01*
X200641Y77677D02*X203141D01*
X204342D02*X206342Y79677D01*
Y81177D02*Y79677D01*
X205842Y81677D02*X206342Y81177D01*
X204842Y81677D02*X205842D01*
X204342Y81177D02*X204842Y81677D01*
X204342Y81177D02*Y80177D01*
X204842Y79677D01*
X206342D01*
X178301Y20989D02*X180301D01*
X180801Y20489D01*
Y19489D01*
X180301Y18989D02*X180801Y19489D01*
X178801Y18989D02*X180301D01*
X178801Y20989D02*Y16989D01*
Y18989D02*X180801Y16989D01*
X182002Y18989D02*X184002Y20989D01*
X182002Y18989D02*X184502D01*
X184002Y20989D02*Y16989D01*
X185703Y20489D02*X186203Y20989D01*
X187703D01*
X188203Y20489D01*
Y19489D01*
X185703Y16989D02*X188203Y19489D01*
X185703Y16989D02*X188203D01*
X177936Y32017D02*X179936D01*
X180436Y31517D01*
Y30517D01*
X179936Y30017D02*X180436Y30517D01*
X178436Y30017D02*X179936D01*
X178436Y32017D02*Y28017D01*
Y30017D02*X180436Y28017D01*
X181637Y31517D02*X182137Y32017D01*
X183637D01*
X184137Y31517D01*
Y30517D01*
X181637Y28017D02*X184137Y30517D01*
X181637Y28017D02*X184137D01*
X185338Y31517D02*X185838Y32017D01*
X186838D01*
X187338Y31517D01*
Y28517D01*
X186838Y28017D02*X187338Y28517D01*
X185838Y28017D02*X186838D01*
X185338Y28517D02*X185838Y28017D01*
Y30017D02*X187338D01*
X188667Y30604D02*Y28604D01*
Y30604D02*X189167Y31104D01*
X190167D01*
X190667Y30604D02*X190167Y31104D01*
X190667Y30604D02*Y29104D01*
X188667D02*X192667D01*
X190667D02*X192667Y31104D01*
X189167Y32305D02*X188667Y32805D01*
Y34305D02*Y32805D01*
Y34305D02*X189167Y34805D01*
X190167D01*
X192667Y32305D02*X190167Y34805D01*
X192667D02*Y32305D01*
X190667Y36006D02*X188667Y38006D01*
X190667Y38506D02*Y36006D01*
X188667Y38006D02*X192667D01*
X178137Y49981D02*X180137D01*
X180637Y49481D01*
Y48481D01*
X180137Y47981D02*X180637Y48481D01*
X178637Y47981D02*X180137D01*
X178637Y49981D02*Y45981D01*
Y47981D02*X180637Y45981D01*
X181838Y49481D02*X182338Y49981D01*
X183338D01*
X183838Y49481D01*
Y46481D01*
X183338Y45981D02*X183838Y46481D01*
X182338Y45981D02*X183338D01*
X181838Y46481D02*X182338Y45981D01*
Y47981D02*X183838D01*
X186539Y49981D02*X187039Y49481D01*
X185539Y49981D02*X186539D01*
X185039Y49481D02*X185539Y49981D01*
X185039Y49481D02*Y46481D01*
X185539Y45981D01*
X186539Y47981D02*X187039Y47481D01*
X185039Y47981D02*X186539D01*
X185539Y45981D02*X186539D01*
X187039Y46481D01*
Y47481D02*Y46481D01*
X178609Y60724D02*X180609D01*
X181109Y60224D01*
Y59224D01*
X180609Y58724D02*X181109Y59224D01*
X179109Y58724D02*X180609D01*
X179109Y60724D02*Y56724D01*
Y58724D02*X181109Y56724D01*
X182310Y60224D02*X182810Y60724D01*
X184310D01*
X184810Y60224D01*
Y59224D01*
X182310Y56724D02*X184810Y59224D01*
X182310Y56724D02*X184810D01*
X186011Y57224D02*X186511Y56724D01*
X186011Y60224D02*Y57224D01*
Y60224D02*X186511Y60724D01*
X187511D01*
X188011Y60224D01*
Y57224D01*
X187511Y56724D02*X188011Y57224D01*
X186511Y56724D02*X187511D01*
X186011Y57724D02*X188011Y59724D01*
X178368Y65924D02*X180368D01*
X180868Y65424D01*
Y64424D01*
X180368Y63924D02*X180868Y64424D01*
X178868Y63924D02*X180368D01*
X178868Y65924D02*Y61924D01*
Y63924D02*X180868Y61924D01*
X182569D02*X183569D01*
X183069Y65924D02*Y61924D01*
X182069Y64924D02*X183069Y65924D01*
X184770Y61924D02*X186770Y63924D01*
Y65424D02*Y63924D01*
X186270Y65924D02*X186770Y65424D01*
X185270Y65924D02*X186270D01*
X184770Y65424D02*X185270Y65924D01*
X184770Y65424D02*Y64424D01*
X185270Y63924D01*
X186770D01*
X178089Y78630D02*X179589D01*
X177589Y79130D02*X178089Y78630D01*
X177589Y82130D02*Y79130D01*
Y82130D02*X178089Y82630D01*
X179589D01*
X180790Y82130D02*X181290Y82630D01*
X182790D01*
X183290Y82130D01*
Y81130D01*
X180790Y78630D02*X183290Y81130D01*
X180790Y78630D02*X183290D01*
X184491Y79130D02*X184991Y78630D01*
X184491Y80130D02*Y79130D01*
Y80130D02*X184991Y80630D01*
X185991D01*
X186491Y80130D01*
Y79130D01*
X185991Y78630D02*X186491Y79130D01*
X184991Y78630D02*X185991D01*
X184491Y81130D02*X184991Y80630D01*
X184491Y82130D02*Y81130D01*
Y82130D02*X184991Y82630D01*
X185991D01*
X186491Y82130D01*
Y81130D01*
X185991Y80630D02*X186491Y81130D01*
M02*
