G04 start of page 5 for group -4063 idx -4063 *
G04 Title: (unknown), componentmask *
G04 Creator: pcb 1.99z *
G04 CreationDate: Mon 30 May 2011 18:01:59 GMT UTC *
G04 For: thomas *
G04 Format: Gerber/RS-274X *
G04 PCB-Dimensions: 206299 151574 *
G04 PCB-Coordinate-Origin: lower left *
%MOIN*%
%FSLAX25Y25*%
%LNTOPMASK*%
%ADD19C,0.0200*%
%ADD34R,0.0200X0.0200*%
%ADD35R,0.0300X0.0300*%
%ADD50C,0.0700*%
%ADD51C,0.0660*%
%ADD52C,0.0544*%
%ADD53C,0.0425*%
%ADD54R,0.0230X0.0230*%
%ADD55R,0.0355X0.0355*%
%ADD56C,0.0180*%
%ADD57R,0.0180X0.0180*%
%ADD58R,0.0572X0.0572*%
%ADD59R,0.0187X0.0187*%
%ADD60R,0.0360X0.0360*%
%ADD61R,0.0430X0.0430*%
%ADD62R,0.0670X0.0670*%
%ADD63R,0.0400X0.0400*%
%ADD64R,0.0750X0.0750*%
%ADD65R,0.0570X0.0570*%
%ADD66R,0.1027X0.1027*%
G54D50*X149407Y127231D03*
X168619D03*
G54D19*G36*
X3865Y65503D02*Y58903D01*
X10465D01*
Y65503D01*
X3865D01*
G37*
G54D51*X17165Y62203D03*
X27165D03*
X37165D03*
X47165D03*
G54D19*G36*
X122487Y47197D02*Y40597D01*
X129087D01*
Y47197D01*
X122487D01*
G37*
G54D52*X116535Y34251D03*
G54D53*X126934Y21442D03*
G54D52*X128706Y8647D03*
Y34237D03*
G54D51*X135787Y43897D03*
X145787D03*
G54D53*X148194Y21442D03*
G54D52*X146422Y8647D03*
Y34237D03*
G54D53*X154725Y21456D03*
G54D51*X155787Y43897D03*
X165787D03*
G54D52*X174213Y34251D03*
X156497D03*
G54D53*X97047Y21456D03*
X118307D03*
G54D52*X116535Y8661D03*
X98819D03*
Y34251D03*
G54D53*X175985Y21456D03*
G54D52*X174213Y8661D03*
X156497D03*
G54D54*X22824Y135423D02*X27430D01*
X22824Y132864D02*X27430D01*
X22824Y130305D02*X27430D01*
X22824Y127746D02*X27430D01*
X46052D02*X50658D01*
X46052Y130305D02*X50658D01*
X46052Y132864D02*X50658D01*
X46052Y135423D02*X50658D01*
X22824Y125188D02*X27430D01*
X46052D02*X50658D01*
X22824Y122629D02*X27430D01*
X46052D02*X50658D01*
X22824Y120070D02*X27430D01*
X46052D02*X50658D01*
X22824Y117511D02*X27430D01*
X46052D02*X50658D01*
G54D55*X41103Y108090D02*Y107106D01*
X36221Y108090D02*Y107106D01*
X31103Y108090D02*Y107106D01*
X36221Y113090D02*Y112106D01*
X31103Y113090D02*Y112106D01*
X41103Y113090D02*Y112106D01*
X46221Y113090D02*Y112106D01*
G54D34*X8305Y109920D02*X9805D01*
X8305Y119920D02*X9805D01*
X8305Y129920D02*X9805D01*
G54D55*X16437Y128149D02*X17421D01*
X16437Y133267D02*X17421D01*
X16437Y112598D02*X17421D01*
X16437Y117716D02*X17421D01*
G54D34*X33465Y145237D02*Y143737D01*
G54D55*X26024Y145766D02*Y144782D01*
G54D34*X43465Y145237D02*Y143737D01*
X53465Y145237D02*Y143737D01*
G54D55*X20906Y145766D02*Y144782D01*
X61220Y124507D02*Y123523D01*
Y119389D02*Y118405D01*
X61221Y129428D02*Y128444D01*
X61201Y136940D02*Y135956D01*
X65000Y144566D02*Y143582D01*
X56102Y124507D02*Y123523D01*
Y119389D02*Y118405D01*
X56103Y129428D02*Y128444D01*
X56083Y136940D02*Y135956D01*
X73142Y119440D02*Y118456D01*
X78260Y119440D02*Y118456D01*
G54D35*X75835Y125806D02*Y124206D01*
X83635Y125806D02*Y124206D01*
Y134006D02*Y132406D01*
X79735Y134006D02*Y132406D01*
X75835Y134006D02*Y132406D01*
G54D55*X82059Y140066D02*Y139082D01*
X76941Y140066D02*Y139082D01*
X76882Y146066D02*Y145082D01*
X82000Y146066D02*Y145082D01*
X70118Y144566D02*Y143582D01*
G54D56*X26771Y101769D02*X29371D01*
G54D57*X26771Y99769D02*X29371D01*
X26771Y97769D02*X29371D01*
X26771Y95869D02*X29371D01*
X26771Y93869D02*X29371D01*
G54D55*X20701Y102440D02*Y101456D01*
X15583Y102440D02*Y101456D01*
X15150Y92389D02*X16134D01*
X15150Y97507D02*X16134D01*
X20709D02*X21693D01*
X33201Y88440D02*Y87456D01*
X38319Y88440D02*Y87456D01*
X28760Y88440D02*Y87456D01*
G54D58*X43749Y87491D02*X44535D01*
X43749Y80405D02*X44535D01*
G54D55*X45473Y71751D02*Y70767D01*
X40355Y71751D02*Y70767D01*
X28760Y78440D02*Y77456D01*
G54D57*X43271Y93769D02*X45871D01*
X43271Y95769D02*X45871D01*
X43271Y97769D02*X45871D01*
X43271Y99669D02*X45871D01*
X43271Y101669D02*X45871D01*
G54D55*X46221Y108090D02*Y107106D01*
G54D59*X50168Y103283D02*X54594D01*
X50168Y100134D02*X54594D01*
X50168Y96984D02*X54594D01*
X50168Y93835D02*X54594D01*
X50168Y90685D02*X54594D01*
X50168Y87535D02*X54594D01*
X50168Y84386D02*X54594D01*
X50168Y81236D02*X54594D01*
X50168Y78087D02*X54594D01*
X50168Y74937D02*X54594D01*
X50168Y71787D02*X54594D01*
G54D55*X20709Y92389D02*X21693D01*
X23642Y88440D02*Y87456D01*
X22047Y71554D02*Y70570D01*
X27165Y71554D02*Y70570D01*
X16732Y71554D02*Y70570D01*
X11614Y71554D02*Y70570D01*
X2494Y81871D02*X3478D01*
X2494Y76753D02*X3478D01*
G54D35*X8611Y78752D02*Y77152D01*
G54D55*X23642Y78440D02*Y77456D01*
G54D35*X16411Y78752D02*Y77152D01*
Y86952D02*Y85352D01*
X12511Y86952D02*Y85352D01*
X8611Y86952D02*Y85352D01*
G54D59*X138662Y111346D02*Y106920D01*
X135512Y111346D02*Y106920D01*
G54D55*X106299Y114468D02*Y113484D01*
X111417Y114468D02*Y113484D01*
X106299Y108956D02*Y107972D01*
X111417Y108956D02*Y107972D01*
G54D59*X132363Y111346D02*Y106920D01*
X129213Y111346D02*Y106920D01*
X126063Y111346D02*Y106920D01*
G54D55*X136528Y115553D02*Y114569D01*
X141646Y115553D02*Y114569D01*
G54D59*X99538Y71787D02*X103964D01*
X99538Y74936D02*X103964D01*
X99538Y78086D02*X103964D01*
X92814Y114433D02*Y110007D01*
X89665Y114433D02*Y110007D01*
X86515Y114433D02*Y110007D01*
X83366Y114433D02*Y110007D01*
X80216Y114433D02*Y110007D01*
X77066Y114433D02*Y110007D01*
X73917Y114433D02*Y110007D01*
X70767Y114433D02*Y110007D01*
X67618Y114433D02*Y110007D01*
X64468Y114433D02*Y110007D01*
X61318Y114433D02*Y110007D01*
G54D34*X138780Y145237D02*Y143737D01*
X148780Y145237D02*Y143737D01*
X100787Y145237D02*Y143737D01*
G54D35*X90065Y134340D02*X96565D01*
G54D55*X127067Y128936D02*X128051D01*
X127067Y134054D02*X128051D01*
X132579Y125000D02*X133563D01*
X132579Y119882D02*X133563D01*
G54D34*X110787Y145237D02*Y143737D01*
X120787Y145237D02*Y143737D01*
G54D35*X90065Y129340D02*X96565D01*
X90065Y124340D02*X96565D01*
X90065Y119340D02*X96565D01*
X115565D02*X122065D01*
X115565Y124340D02*X122065D01*
X115565Y129340D02*X122065D01*
X115565Y134340D02*X122065D01*
G54D59*X99538Y81235D02*X103964D01*
X99538Y84385D02*X103964D01*
X99538Y87535D02*X103964D01*
X99538Y90684D02*X103964D01*
X99538Y93834D02*X103964D01*
X99538Y96983D02*X103964D01*
X99538Y100133D02*X103964D01*
X99538Y103283D02*X103964D01*
G54D34*X158780Y145237D02*Y143737D01*
X168780Y145237D02*Y143737D01*
G54D55*X180905Y146751D02*Y145767D01*
Y141239D02*Y140255D01*
X184744Y120275D02*X185728D01*
X184744Y125393D02*X185728D01*
G54D60*X191733Y120774D02*Y119774D01*
X197733Y120774D02*Y119774D01*
G54D55*X175787Y146751D02*Y145767D01*
Y141239D02*Y140255D01*
X179441Y75266D02*Y74282D01*
G54D58*X179922Y86023D02*X180708D01*
X179922Y93109D02*X180708D01*
G54D55*X184559Y75266D02*Y74282D01*
X177508Y100574D02*X178492D01*
X177508Y105692D02*X178492D01*
G54D61*X187946Y98216D02*X190346D01*
G54D55*X194600Y105666D02*Y104682D01*
G54D61*X187946Y92116D02*X190346D01*
X187946Y86016D02*X190346D01*
G54D62*X201346Y95116D02*Y89116D01*
G54D55*X189961Y80019D02*Y79035D01*
X195079Y80019D02*Y79035D01*
X140011Y5313D02*Y4329D01*
X167715Y5412D02*Y4428D01*
X162597Y5412D02*Y4428D01*
X163934Y53108D02*Y52124D01*
G54D59*X129212Y61976D02*Y57550D01*
X132362Y61976D02*Y57550D01*
X135511Y61976D02*Y57550D01*
X138661Y61976D02*Y57550D01*
X141811Y61976D02*Y57550D01*
X144960Y61976D02*Y57550D01*
X148110Y61976D02*Y57550D01*
X151259Y61976D02*Y57550D01*
G54D63*X105948Y58935D02*X106548D01*
G54D55*X142717Y52852D02*Y51868D01*
X147835Y52852D02*Y51868D01*
G54D59*X114913Y100196D02*X119339D01*
X114913Y97047D02*X119339D01*
X114913Y93897D02*X119339D01*
X114913Y90748D02*X119339D01*
X114913Y87598D02*X119339D01*
X114913Y84448D02*X119339D01*
G54D55*X108366Y86417D02*X109350D01*
X108366Y91535D02*X109350D01*
G54D59*X114913Y81299D02*X119339D01*
X114913Y78149D02*X119339D01*
X114913Y75000D02*X119339D01*
X114913Y71850D02*X119339D01*
X114913Y68700D02*X119339D01*
G54D58*X109056Y73424D02*X109842D01*
X109056Y80510D02*X109842D01*
G54D55*X134893Y5313D02*Y4329D01*
X109843Y5216D02*Y4232D01*
X104725Y5216D02*Y4232D01*
X124212Y53050D02*Y52066D01*
X129330Y53050D02*Y52066D01*
G54D63*X114148Y55035D02*X114748D01*
X114148Y62835D02*X114748D01*
G54D55*X114172Y43208D02*Y42224D01*
X109054Y43208D02*Y42224D01*
X113976Y49310D02*Y48326D01*
X108858Y49310D02*Y48326D01*
G54D59*X126063Y61976D02*Y57550D01*
G54D64*X7078Y35630D02*X8278D01*
X7078Y46630D02*X8278D01*
G54D63*X17160Y48673D02*X17760D01*
X17160Y40873D02*X17760D01*
X25360Y44773D02*X25960D01*
G54D58*X26575Y34250D02*X28937D01*
X32419Y52574D02*X34781D01*
X32419Y40764D02*X34781D01*
G54D35*X49400Y21574D02*X51000D01*
G54D65*X43817Y9667D02*Y7667D01*
G54D35*X41200Y29374D02*X42800D01*
X41200Y25474D02*X42800D01*
X41200Y21574D02*X42800D01*
X49400Y25474D02*X51000D01*
X49400Y29374D02*X51000D01*
G54D60*X58555Y44291D02*X59555D01*
G54D58*X62598Y36022D02*Y35236D01*
X69684Y36022D02*Y35236D01*
G54D63*X80337Y42424D02*X80937D01*
X72137Y46324D02*X72737D01*
G54D55*X87795Y43602D02*Y42618D01*
X92913Y43602D02*Y42618D01*
G54D63*X80337Y50224D02*X80937D01*
G54D55*X91929Y55609D02*Y54625D01*
X97047Y55609D02*Y54625D01*
X87795Y49114D02*Y48130D01*
X92913Y49114D02*Y48130D01*
X88098Y28167D02*X89082D01*
G54D66*X65117Y26974D02*X79683D01*
G54D55*X88098Y23049D02*X89082D01*
X84645Y36121D02*Y35137D01*
X79527Y36121D02*Y35137D01*
G54D58*X89174Y10432D02*X89960D01*
G54D66*X65117Y11620D02*X79683D01*
G54D58*X89174Y17518D02*X89960D01*
G54D65*X36417Y9667D02*Y7667D01*
G54D63*X19826Y6890D02*X20426D01*
X28026Y10790D02*X28626D01*
G54D55*X35267Y20615D02*X36251D01*
G54D58*X26575Y22440D02*X28937D01*
G54D55*X35267Y25733D02*X36251D01*
G54D63*X19826Y14690D02*X20426D01*
G54D58*X7678Y24605D02*Y22243D01*
X19488Y24605D02*Y22243D01*
G54D55*X15747Y31397D02*Y30413D01*
X20865Y31397D02*Y30413D01*
G54D60*X58555Y50291D02*X59555D01*
G54D55*X55414Y59251D02*X56398D01*
X46000Y48466D02*Y47482D01*
G54D58*X44314Y41967D02*Y41181D01*
G54D55*X43200Y35666D02*Y34682D01*
X46063Y53641D02*Y52657D01*
X51118Y48466D02*Y47482D01*
G54D58*X51400Y41967D02*Y41181D01*
G54D55*X48318Y35666D02*Y34682D01*
X51181Y53641D02*Y52657D01*
X55414Y64369D02*X56398D01*
G54D59*X61318Y65063D02*Y60637D01*
X64467Y65063D02*Y60637D01*
X67617Y65063D02*Y60637D01*
X70766Y65063D02*Y60637D01*
X73916Y65063D02*Y60637D01*
G54D55*X78346Y56790D02*Y55806D01*
X73228Y56790D02*Y55806D01*
G54D59*X77066Y65063D02*Y60637D01*
X80215Y65063D02*Y60637D01*
X83365Y65063D02*Y60637D01*
X86514Y65063D02*Y60637D01*
X89664Y65063D02*Y60637D01*
X92814Y65063D02*Y60637D01*
X154409Y61976D02*Y57550D01*
X157559Y61976D02*Y57550D01*
X164283Y68700D02*X168709D01*
X164283Y71849D02*X168709D01*
X164283Y74999D02*X168709D01*
X164283Y78148D02*X168709D01*
X164283Y81298D02*X168709D01*
X164283Y84448D02*X168709D01*
G54D55*X173433Y83518D02*X174417D01*
X174508Y57692D02*X175492D01*
X174508Y52574D02*X175492D01*
X169052Y53108D02*Y52124D01*
X174114Y47046D02*X175098D01*
X174114Y41928D02*X175098D01*
G54D59*X164283Y87597D02*X168709D01*
X164283Y90747D02*X168709D01*
X164283Y93896D02*X168709D01*
X164283Y97046D02*X168709D01*
G54D55*X173433Y88636D02*X174417D01*
G54D59*X164283Y100196D02*X168709D01*
X157559Y111346D02*Y106920D01*
X154410Y111346D02*Y106920D01*
X151260Y111346D02*Y106920D01*
X148111Y111346D02*Y106920D01*
X144961Y111346D02*Y106920D01*
X141811Y111346D02*Y106920D01*
G54D55*X164567Y114861D02*Y113877D01*
X169685Y114861D02*Y113877D01*
X174409Y114861D02*Y113877D01*
X179527Y114861D02*Y113877D01*
G54D60*X191733Y112507D02*Y111507D01*
X197733Y112507D02*Y111507D01*
G54D55*X199718Y105666D02*Y104682D01*
G54D34*X196494Y73070D02*X197994D01*
X196494Y63070D02*X197994D01*
X196494Y53070D02*X197994D01*
G54D55*X180400Y53866D02*Y52882D01*
X185518Y53866D02*Y52882D01*
X179400Y69266D02*Y68282D01*
X184518Y69266D02*Y68282D01*
G54D34*X196494Y43070D02*X197994D01*
X196494Y33070D02*X197994D01*
X196494Y23070D02*X197994D01*
G54D55*X182284Y24902D02*Y23918D01*
X180511Y14271D02*Y13287D01*
X185629Y14271D02*Y13287D01*
X187402Y24902D02*Y23918D01*
X180513Y35727D02*Y34743D01*
X185631Y35727D02*Y34743D01*
X180512Y43012D02*Y42028D01*
X185630Y43012D02*Y42028D01*
M02*
