M48
INCH
T11C0.029
T12C0.038
T15C0.016
T16C0.014
T18C0.022
T47C0.039
T48C0.028
T49C0.079
%
T16
X009240Y013817
X012559Y013976
X013228Y013503
X015393Y013503
X015885Y013877
X017263Y013208
X018464Y014507
X018464Y013681
X012519Y011929
X014443Y011934
X012854Y011614
X014488Y011476
X012519Y012421
X014330Y012421
X013661Y012185
X016003Y012716
X017047Y011870
X017480Y011909
X017933Y011909
X015441Y012178
X011043Y012736
X008976Y010708
X009291Y010708
X016555Y010531
X010196Y011358
X009926Y011934
X010196Y010826
X017303Y010118
X018160Y010057
X017303Y010413
X018582Y011594
X018582Y011200
X019060Y010517
X005610Y013247
X004252Y012795
X008500Y012907
X003858Y014448
X008600Y014557
X006100Y014407
X007342Y014409
X004074Y013838
X003622Y011653
X003622Y012125
X004291Y012145
X004291Y011771
X000984Y012519
X000629Y010078
X002677Y013897
X003014Y013294
X003250Y013557
X003320Y012997
X002940Y012517
X003020Y012997
X003300Y009757
X003300Y010309
X005905Y007519
X003850Y009457
X004547Y007559
X001968Y008503
X000834Y007113
X003380Y009377
X003090Y007440
X003503Y007440
X001968Y008858
X000334Y009153
X000334Y009665
X000728Y009153
X000728Y009665
X002566Y004091
X002893Y005708
X001440Y001737
X004020Y003217
X003580Y002957
X004271Y004803
X004232Y005334
X006761Y006939
X006948Y007559
X008031Y006810
X008838Y007047
X008563Y005334
X008956Y003562
X006574Y005137
X007952Y000472
X005610Y000472
X008976Y006751
X009665Y007499
X009448Y007814
X009665Y008129
X009665Y006929
X010078Y005511
X010420Y004877
X010620Y006257
X009941Y004271
X010984Y003897
X011417Y003897
X011830Y004586
X012244Y005669
X009665Y006161
X012086Y002736
X010160Y002537
X010160Y002037
X010984Y000885
X011378Y001358
X011380Y001957
X011380Y002877
X013267Y005196
X013779Y005196
X014001Y000861
X013140Y002077
X013140Y002497
X012775Y006653
X011870Y006594
X013040Y008837
X016791Y000866
X016040Y001917
X016540Y002417
X017140Y001537
X017140Y002457
X018060Y003017
X018560Y003017
X018840Y004877
X014360Y002077
X014360Y002497
X014074Y004645
X014074Y003622
X012244Y007814
X012204Y008759
X012440Y009074
X012775Y007224
X012204Y009389
X013681Y009271
X013681Y009645
X013551Y006921
X014488Y006751
X014803Y006476
X013228Y006574
X014200Y008517
X014880Y008517
X014200Y008197
X014880Y008197
X014960Y008997
X015400Y008997
X016720Y005937
X016140Y007497
X017220Y007177
X017940Y006517
X015420Y009577
T15
X008563Y013956
X010059Y013838
X012755Y013740
X013878Y013858
X014878Y013901
X015100Y012097
X007706Y010679
X005053Y010761
X011574Y010354
X011968Y010354
X010940Y009737
X006437Y013641
X002519Y011436
X005796Y008749
X002007Y007795
X003503Y007125
X008818Y007736
X008818Y009448
X007540Y008637
X001126Y009750
X000177Y008700
X002834Y000728
X000236Y001988
X001520Y005357
X000295Y006948
X000492Y007204
X003800Y001717
X003800Y001457
X004080Y001457
X004080Y001717
X003346Y004665
X007500Y003562
X004360Y001457
X004600Y002017
X007322Y000433
X008858Y000570
X008340Y001917
X004600Y002277
X004600Y002537
X004600Y002797
X004600Y003057
X006889Y005629
X005649Y003602
X009626Y009074
X009488Y000373
X009500Y001397
X010925Y006810
X010500Y002797
X012913Y008051
X015080Y000517
X018180Y000497
X012421Y008444
X014360Y009517
X013858Y006614
X014842Y007775
X012500Y009724
X016040Y008637
X015826Y008188
X016905Y005632
X017472Y009184
X019488Y009822
X019488Y008602
X018169Y007992
T18
X002160Y003537
X002560Y001757
X002980Y001757
X003940Y004077
X003360Y003617
X005040Y001717
X020137Y009566
X019626Y009448
X020134Y009211
X020137Y008858
X019626Y009015
T48
X012693Y002144
X014819Y002144
X015472Y002145
X009704Y002145
X011830Y002145
X017598Y002145
T11
X014940Y012723
X016861Y012723
T12
X000716Y006220
X001716Y006220
X002716Y006220
X003716Y006220
X004716Y006220
X012578Y004389
X013578Y004389
X014578Y004389
X015578Y004389
X016578Y004389
T47
X011653Y003425
X012870Y000864
X012870Y003423
X014642Y000864
X014642Y003423
X017421Y003425
X015649Y003425
X011653Y000866
X009881Y000866
X009881Y003425
X017421Y000866
X015649Y000866
T49
X019645Y014370
X000905Y014370
X000905Y001003
X019645Y001003
M30
