G04 start of page 11 for group -3984 idx -3984 *
G04 Title: (unknown), fab *
G04 Creator: pcb 1.99z *
G04 CreationDate: Mon 30 May 2011 18:01:59 GMT UTC *
G04 For: thomas *
G04 Format: Gerber/RS-274X *
G04 PCB-Dimensions: 206299 151574 *
G04 PCB-Coordinate-Origin: lower left *
%MOIN*%
%FSLAX25Y25*%
%LNFAB*%
%ADD19C,0.0200*%
%ADD20C,0.0060*%
%ADD67C,0.0100*%
%ADD70R,0.0080X0.0080*%
G54D19*G36*
X6655Y13005D02*X12020Y7639D01*
X11455Y7074D01*
X6089Y12439D01*
X6655Y13005D01*
G37*
G36*
X6089Y7639D02*X11455Y13005D01*
X12020Y12439D01*
X6655Y7074D01*
X6089Y7639D01*
G37*
G54D70*X7455Y11639D02*X10655D01*
X7455D02*Y8439D01*
X10655D01*
Y11639D02*Y8439D01*
G54D19*G36*
X194057Y13005D02*X199422Y7639D01*
X198857Y7074D01*
X193491Y12439D01*
X194057Y13005D01*
G37*
G36*
X193491Y7639D02*X198857Y13005D01*
X199422Y12439D01*
X194057Y7074D01*
X193491Y7639D01*
G37*
G54D70*X194857Y11639D02*X198057D01*
X194857D02*Y8439D01*
X198057D01*
Y11639D02*Y8439D01*
G54D19*G36*
X194057Y146666D02*X199422Y141300D01*
X198857Y140735D01*
X193491Y146100D01*
X194057Y146666D01*
G37*
G36*
X193491Y141300D02*X198857Y146666D01*
X199422Y146100D01*
X194057Y140735D01*
X193491Y141300D01*
G37*
G54D70*X194857Y145300D02*X198057D01*
X194857D02*Y142100D01*
X198057D01*
Y145300D02*Y142100D01*
G54D19*G36*
X6655Y146666D02*X12020Y141300D01*
X11455Y140735D01*
X6089Y146100D01*
X6655Y146666D01*
G37*
G36*
X6089Y141300D02*X11455Y146666D01*
X12020Y146100D01*
X6655Y140735D01*
X6089Y141300D01*
G37*
G54D70*X7455Y145300D02*X10655D01*
X7455D02*Y142100D01*
X10655D01*
Y145300D02*Y142100D01*
G54D19*G36*
X12600Y165789D02*X17965Y160424D01*
X17400Y159858D01*
X12034Y165224D01*
X12600Y165789D01*
G37*
G36*
X12034Y160424D02*X17400Y165789D01*
X17965Y165224D01*
X12600Y159858D01*
X12034Y160424D01*
G37*
G54D70*X13400Y164424D02*X16600D01*
X13400D02*Y161224D01*
X16600D01*
Y164424D02*Y161224D01*
G54D20*X135000Y165074D02*Y164324D01*
X136500Y162824D01*
X138000Y164324D01*
Y165074D02*Y164324D01*
X136500Y162824D02*Y159074D01*
X139801Y162074D02*X142051D01*
X139801Y159074D02*X142801D01*
X139801Y165074D02*Y159074D01*
Y165074D02*X142801D01*
X147603D02*X148353Y164324D01*
X145353Y165074D02*X147603D01*
X144603Y164324D02*X145353Y165074D01*
X144603Y164324D02*Y162824D01*
X145353Y162074D01*
X147603D01*
X148353Y161324D01*
Y159824D01*
X147603Y159074D02*X148353Y159824D01*
X145353Y159074D02*X147603D01*
X144603Y159824D02*X145353Y159074D01*
X135000Y155823D02*X150154D01*
X98000Y162074D02*X101000Y165074D01*
X98000Y162074D02*X101750D01*
X101000Y165074D02*Y159074D01*
X98000Y155823D02*X103551D01*
X45000Y159824D02*X45750Y159074D01*
X45000Y164324D02*Y159824D01*
Y164324D02*X45750Y165074D01*
X47250D01*
X48000Y164324D01*
Y159824D01*
X47250Y159074D02*X48000Y159824D01*
X45750Y159074D02*X47250D01*
X45000Y160574D02*X48000Y163574D01*
X49801Y159074D02*X50551D01*
X52353Y159824D02*X53103Y159074D01*
X52353Y164324D02*Y159824D01*
Y164324D02*X53103Y165074D01*
X54603D01*
X55353Y164324D01*
Y159824D01*
X54603Y159074D02*X55353Y159824D01*
X53103Y159074D02*X54603D01*
X52353Y160574D02*X55353Y163574D01*
X57154Y159074D02*X60904Y162824D01*
Y165074D02*Y162824D01*
X57154Y165074D02*X60904D01*
X62706Y159074D02*X65706Y162074D01*
Y164324D02*Y162074D01*
X64956Y165074D02*X65706Y164324D01*
X63456Y165074D02*X64956D01*
X62706Y164324D02*X63456Y165074D01*
X62706Y164324D02*Y162824D01*
X63456Y162074D01*
X65706D01*
X45000Y155823D02*X67507D01*
X174213Y11861D02*Y5461D01*
X171013Y8661D02*X177413D01*
X172613Y10261D02*X175813D01*
X172613D02*Y7061D01*
X175813D01*
Y10261D02*Y7061D01*
X174213Y37451D02*Y31051D01*
X171013Y34251D02*X177413D01*
X172613Y35851D02*X175813D01*
X172613D02*Y32651D01*
X175813D01*
Y35851D02*Y32651D01*
X156497Y11861D02*Y5461D01*
X153297Y8661D02*X159697D01*
X154897Y10261D02*X158097D01*
X154897D02*Y7061D01*
X158097D01*
Y10261D02*Y7061D01*
X156497Y37451D02*Y31051D01*
X153297Y34251D02*X159697D01*
X154897Y35851D02*X158097D01*
X154897D02*Y32651D01*
X158097D01*
Y35851D02*Y32651D01*
X146422Y11847D02*Y5447D01*
X143222Y8647D02*X149622D01*
X144822Y10247D02*X148022D01*
X144822D02*Y7047D01*
X148022D01*
Y10247D02*Y7047D01*
X146422Y37437D02*Y31037D01*
X143222Y34237D02*X149622D01*
X144822Y35837D02*X148022D01*
X144822D02*Y32637D01*
X148022D01*
Y35837D02*Y32637D01*
X128706Y11847D02*Y5447D01*
X125506Y8647D02*X131906D01*
X127106Y10247D02*X130306D01*
X127106D02*Y7047D01*
X130306D01*
Y10247D02*Y7047D01*
X128706Y37437D02*Y31037D01*
X125506Y34237D02*X131906D01*
X127106Y35837D02*X130306D01*
X127106D02*Y32637D01*
X130306D01*
Y35837D02*Y32637D01*
X116535Y11861D02*Y5461D01*
X113335Y8661D02*X119735D01*
X114935Y10261D02*X118135D01*
X114935D02*Y7061D01*
X118135D01*
Y10261D02*Y7061D01*
X116535Y37451D02*Y31051D01*
X113335Y34251D02*X119735D01*
X114935Y35851D02*X118135D01*
X114935D02*Y32651D01*
X118135D01*
Y35851D02*Y32651D01*
X98819Y11861D02*Y5461D01*
X95619Y8661D02*X102019D01*
X97219Y10261D02*X100419D01*
X97219D02*Y7061D01*
X100419D01*
Y10261D02*Y7061D01*
X98819Y37451D02*Y31051D01*
X95619Y34251D02*X102019D01*
X97219Y35851D02*X100419D01*
X97219D02*Y32651D01*
X100419D01*
Y35851D02*Y32651D01*
X15000Y181024D02*Y174624D01*
X11800Y177824D02*X18200D01*
X13400Y179424D02*X16600D01*
X13400D02*Y176224D01*
X16600D01*
Y179424D02*Y176224D01*
X135000Y180074D02*Y179324D01*
X136500Y177824D01*
X138000Y179324D01*
Y180074D02*Y179324D01*
X136500Y177824D02*Y174074D01*
X139801Y177074D02*X142051D01*
X139801Y174074D02*X142801D01*
X139801Y180074D02*Y174074D01*
Y180074D02*X142801D01*
X147603D02*X148353Y179324D01*
X145353Y180074D02*X147603D01*
X144603Y179324D02*X145353Y180074D01*
X144603Y179324D02*Y177824D01*
X145353Y177074D01*
X147603D01*
X148353Y176324D01*
Y174824D01*
X147603Y174074D02*X148353Y174824D01*
X145353Y174074D02*X147603D01*
X144603Y174824D02*X145353Y174074D01*
X135000Y170823D02*X150154D01*
X98750Y174074D02*X100250D01*
X99500Y180074D02*Y174074D01*
X98000Y178574D02*X99500Y180074D01*
X102051Y179324D02*X102801Y180074D01*
X105051D01*
X105801Y179324D01*
Y177824D01*
X102051Y174074D02*X105801Y177824D01*
X102051Y174074D02*X105801D01*
X98000Y170823D02*X107603D01*
X45000Y174824D02*X45750Y174074D01*
X45000Y179324D02*Y174824D01*
Y179324D02*X45750Y180074D01*
X47250D01*
X48000Y179324D01*
Y174824D01*
X47250Y174074D02*X48000Y174824D01*
X45750Y174074D02*X47250D01*
X45000Y175574D02*X48000Y178574D01*
X49801Y174074D02*X50551D01*
X52353Y174824D02*X53103Y174074D01*
X52353Y179324D02*Y174824D01*
Y179324D02*X53103Y180074D01*
X54603D01*
X55353Y179324D01*
Y174824D01*
X54603Y174074D02*X55353Y174824D01*
X53103Y174074D02*X54603D01*
X52353Y175574D02*X55353Y178574D01*
X57154Y179324D02*X57904Y180074D01*
X59404D01*
X60154Y179324D01*
Y174824D01*
X59404Y174074D02*X60154Y174824D01*
X57904Y174074D02*X59404D01*
X57154Y174824D02*X57904Y174074D01*
Y177074D02*X60154D01*
X61956Y174074D02*X64956Y177074D01*
Y179324D02*Y177074D01*
X64206Y180074D02*X64956Y179324D01*
X62706Y180074D02*X64206D01*
X61956Y179324D02*X62706Y180074D01*
X61956Y179324D02*Y177824D01*
X62706Y177074D01*
X64956D01*
X45000Y170823D02*X66757D01*
X125787Y43897D02*Y40697D01*
Y43897D02*X128560Y45497D01*
X125787Y43897D02*X123014Y45497D01*
X124187Y43897D02*G75*G03X127387Y43897I1600J0D01*G01*
G75*G03X124187Y43897I-1600J0D01*G01*
X135787D02*Y40697D01*
Y43897D02*X138560Y45497D01*
X135787Y43897D02*X133014Y45497D01*
X134187Y43897D02*G75*G03X137387Y43897I1600J0D01*G01*
G75*G03X134187Y43897I-1600J0D01*G01*
X145787D02*Y40697D01*
Y43897D02*X148560Y45497D01*
X145787Y43897D02*X143014Y45497D01*
X144187Y43897D02*G75*G03X147387Y43897I1600J0D01*G01*
G75*G03X144187Y43897I-1600J0D01*G01*
X155787D02*Y40697D01*
Y43897D02*X158560Y45497D01*
X155787Y43897D02*X153014Y45497D01*
X154187Y43897D02*G75*G03X157387Y43897I1600J0D01*G01*
G75*G03X154187Y43897I-1600J0D01*G01*
X165787D02*Y40697D01*
Y43897D02*X168560Y45497D01*
X165787Y43897D02*X163014Y45497D01*
X164187Y43897D02*G75*G03X167387Y43897I1600J0D01*G01*
G75*G03X164187Y43897I-1600J0D01*G01*
X7165Y62203D02*Y59003D01*
Y62203D02*X9938Y63803D01*
X7165Y62203D02*X4392Y63803D01*
X5565Y62203D02*G75*G03X8765Y62203I1600J0D01*G01*
G75*G03X5565Y62203I-1600J0D01*G01*
X17165D02*Y59003D01*
Y62203D02*X19938Y63803D01*
X17165Y62203D02*X14392Y63803D01*
X15565Y62203D02*G75*G03X18765Y62203I1600J0D01*G01*
G75*G03X15565Y62203I-1600J0D01*G01*
X27165D02*Y59003D01*
Y62203D02*X29938Y63803D01*
X27165Y62203D02*X24392Y63803D01*
X25565Y62203D02*G75*G03X28765Y62203I1600J0D01*G01*
G75*G03X25565Y62203I-1600J0D01*G01*
X37165D02*Y59003D01*
Y62203D02*X39938Y63803D01*
X37165Y62203D02*X34392Y63803D01*
X35565Y62203D02*G75*G03X38765Y62203I1600J0D01*G01*
G75*G03X35565Y62203I-1600J0D01*G01*
X47165D02*Y59003D01*
Y62203D02*X49938Y63803D01*
X47165Y62203D02*X44392Y63803D01*
X45565Y62203D02*G75*G03X48765Y62203I1600J0D01*G01*
G75*G03X45565Y62203I-1600J0D01*G01*
X15000Y192824D02*Y189624D01*
Y192824D02*X17773Y194424D01*
X15000Y192824D02*X12227Y194424D01*
X13400Y192824D02*G75*G03X16600Y192824I1600J0D01*G01*
G75*G03X13400Y192824I-1600J0D01*G01*
X135000Y195074D02*Y194324D01*
X136500Y192824D01*
X138000Y194324D01*
Y195074D02*Y194324D01*
X136500Y192824D02*Y189074D01*
X139801Y192074D02*X142051D01*
X139801Y189074D02*X142801D01*
X139801Y195074D02*Y189074D01*
Y195074D02*X142801D01*
X147603D02*X148353Y194324D01*
X145353Y195074D02*X147603D01*
X144603Y194324D02*X145353Y195074D01*
X144603Y194324D02*Y192824D01*
X145353Y192074D01*
X147603D01*
X148353Y191324D01*
Y189824D01*
X147603Y189074D02*X148353Y189824D01*
X145353Y189074D02*X147603D01*
X144603Y189824D02*X145353Y189074D01*
X135000Y185823D02*X150154D01*
X98750Y189074D02*X100250D01*
X99500Y195074D02*Y189074D01*
X98000Y193574D02*X99500Y195074D01*
X102051Y189824D02*X102801Y189074D01*
X102051Y194324D02*Y189824D01*
Y194324D02*X102801Y195074D01*
X104301D01*
X105051Y194324D01*
Y189824D01*
X104301Y189074D02*X105051Y189824D01*
X102801Y189074D02*X104301D01*
X102051Y190574D02*X105051Y193574D01*
X98000Y185823D02*X106853D01*
X45000Y189824D02*X45750Y189074D01*
X45000Y194324D02*Y189824D01*
Y194324D02*X45750Y195074D01*
X47250D01*
X48000Y194324D01*
Y189824D01*
X47250Y189074D02*X48000Y189824D01*
X45750Y189074D02*X47250D01*
X45000Y190574D02*X48000Y193574D01*
X49801Y189074D02*X50551D01*
X52353Y189824D02*X53103Y189074D01*
X52353Y194324D02*Y189824D01*
Y194324D02*X53103Y195074D01*
X54603D01*
X55353Y194324D01*
Y189824D01*
X54603Y189074D02*X55353Y189824D01*
X53103Y189074D02*X54603D01*
X52353Y190574D02*X55353Y193574D01*
X57154Y194324D02*X57904Y195074D01*
X59404D01*
X60154Y194324D01*
Y189824D01*
X59404Y189074D02*X60154Y189824D01*
X57904Y189074D02*X59404D01*
X57154Y189824D02*X57904Y189074D01*
Y192074D02*X60154D01*
X61956Y189824D02*X62706Y189074D01*
X61956Y191324D02*Y189824D01*
Y191324D02*X62706Y192074D01*
X64206D01*
X64956Y191324D01*
Y189824D01*
X64206Y189074D02*X64956Y189824D01*
X62706Y189074D02*X64206D01*
X61956Y192824D02*X62706Y192074D01*
X61956Y194324D02*Y192824D01*
Y194324D02*X62706Y195074D01*
X64206D01*
X64956Y194324D01*
Y192824D01*
X64206Y192074D02*X64956Y192824D01*
X45000Y185823D02*X66757D01*
X147807Y128831D02*X151007D01*
X147807D02*Y125631D01*
X151007D01*
Y128831D02*Y125631D01*
X167019Y128831D02*X170219D01*
X167019D02*Y125631D01*
X170219D01*
Y128831D02*Y125631D01*
X13400Y209424D02*X16600D01*
X13400D02*Y206224D01*
X16600D01*
Y209424D02*Y206224D01*
X135000Y210074D02*Y209324D01*
X136500Y207824D01*
X138000Y209324D01*
Y210074D02*Y209324D01*
X136500Y207824D02*Y204074D01*
X139801Y207074D02*X142051D01*
X139801Y204074D02*X142801D01*
X139801Y210074D02*Y204074D01*
Y210074D02*X142801D01*
X147603D02*X148353Y209324D01*
X145353Y210074D02*X147603D01*
X144603Y209324D02*X145353Y210074D01*
X144603Y209324D02*Y207824D01*
X145353Y207074D01*
X147603D01*
X148353Y206324D01*
Y204824D01*
X147603Y204074D02*X148353Y204824D01*
X145353Y204074D02*X147603D01*
X144603Y204824D02*X145353Y204074D01*
X135000Y200823D02*X150154D01*
X98000Y209324D02*X98750Y210074D01*
X101000D01*
X101750Y209324D01*
Y207824D01*
X98000Y204074D02*X101750Y207824D01*
X98000Y204074D02*X101750D01*
X98000Y200823D02*X103551D01*
X45000Y204824D02*X45750Y204074D01*
X45000Y209324D02*Y204824D01*
Y209324D02*X45750Y210074D01*
X47250D01*
X48000Y209324D01*
Y204824D01*
X47250Y204074D02*X48000Y204824D01*
X45750Y204074D02*X47250D01*
X45000Y205574D02*X48000Y208574D01*
X49801Y204074D02*X50551D01*
X52353Y204824D02*X53103Y204074D01*
X52353Y209324D02*Y204824D01*
Y209324D02*X53103Y210074D01*
X54603D01*
X55353Y209324D01*
Y204824D01*
X54603Y204074D02*X55353Y204824D01*
X53103Y204074D02*X54603D01*
X52353Y205574D02*X55353Y208574D01*
X57154Y209324D02*X57904Y210074D01*
X60154D01*
X60904Y209324D01*
Y207824D01*
X57154Y204074D02*X60904Y207824D01*
X57154Y204074D02*X60904D01*
X62706D02*X65706Y207074D01*
Y209324D02*Y207074D01*
X64956Y210074D02*X65706Y209324D01*
X63456Y210074D02*X64956D01*
X62706Y209324D02*X63456Y210074D01*
X62706Y209324D02*Y207824D01*
X63456Y207074D01*
X65706D01*
X45000Y200823D02*X67507D01*
X153925Y21456D02*G75*G03X155525Y21456I800J0D01*G01*
G75*G03X153925Y21456I-800J0D01*G01*
X175185D02*G75*G03X176785Y21456I800J0D01*G01*
G75*G03X175185Y21456I-800J0D01*G01*
X126134Y21442D02*G75*G03X127734Y21442I800J0D01*G01*
G75*G03X126134Y21442I-800J0D01*G01*
X147394D02*G75*G03X148994Y21442I800J0D01*G01*
G75*G03X147394Y21442I-800J0D01*G01*
X96247Y21456D02*G75*G03X97847Y21456I800J0D01*G01*
G75*G03X96247Y21456I-800J0D01*G01*
X117507D02*G75*G03X119107Y21456I800J0D01*G01*
G75*G03X117507Y21456I-800J0D01*G01*
X14200Y222824D02*G75*G03X15800Y222824I800J0D01*G01*
G75*G03X14200Y222824I-800J0D01*G01*
X135000Y225074D02*Y224324D01*
X136500Y222824D01*
X138000Y224324D01*
Y225074D02*Y224324D01*
X136500Y222824D02*Y219074D01*
X139801Y222074D02*X142051D01*
X139801Y219074D02*X142801D01*
X139801Y225074D02*Y219074D01*
Y225074D02*X142801D01*
X147603D02*X148353Y224324D01*
X145353Y225074D02*X147603D01*
X144603Y224324D02*X145353Y225074D01*
X144603Y224324D02*Y222824D01*
X145353Y222074D01*
X147603D01*
X148353Y221324D01*
Y219824D01*
X147603Y219074D02*X148353Y219824D01*
X145353Y219074D02*X147603D01*
X144603Y219824D02*X145353Y219074D01*
X135000Y215823D02*X150154D01*
X100250Y225074D02*X101000Y224324D01*
X98750Y225074D02*X100250D01*
X98000Y224324D02*X98750Y225074D01*
X98000Y224324D02*Y219824D01*
X98750Y219074D01*
X100250Y222074D02*X101000Y221324D01*
X98000Y222074D02*X100250D01*
X98750Y219074D02*X100250D01*
X101000Y219824D01*
Y221324D02*Y219824D01*
X98000Y215823D02*X102801D01*
X45000Y219824D02*X45750Y219074D01*
X45000Y224324D02*Y219824D01*
Y224324D02*X45750Y225074D01*
X47250D01*
X48000Y224324D01*
Y219824D01*
X47250Y219074D02*X48000Y219824D01*
X45750Y219074D02*X47250D01*
X45000Y220574D02*X48000Y223574D01*
X49801Y219074D02*X50551D01*
X52353Y219824D02*X53103Y219074D01*
X52353Y224324D02*Y219824D01*
Y224324D02*X53103Y225074D01*
X54603D01*
X55353Y224324D01*
Y219824D01*
X54603Y219074D02*X55353Y219824D01*
X53103Y219074D02*X54603D01*
X52353Y220574D02*X55353Y223574D01*
X57154Y224324D02*X57904Y225074D01*
X60154D01*
X60904Y224324D01*
Y222824D01*
X57154Y219074D02*X60904Y222824D01*
X57154Y219074D02*X60904D01*
X62706Y219824D02*X63456Y219074D01*
X62706Y221324D02*Y219824D01*
Y221324D02*X63456Y222074D01*
X64956D01*
X65706Y221324D01*
Y219824D01*
X64956Y219074D02*X65706Y219824D01*
X63456Y219074D02*X64956D01*
X62706Y222824D02*X63456Y222074D01*
X62706Y224324D02*Y222824D01*
Y224324D02*X63456Y225074D01*
X64956D01*
X65706Y224324D01*
Y222824D01*
X64956Y222074D02*X65706Y222824D01*
X45000Y215823D02*X67507D01*
X49200Y18374D02*X51600Y15974D01*
X49200D02*X51600Y18374D01*
X38200Y41974D02*X40600Y39574D01*
X38200D02*X40600Y41974D01*
X32400Y37374D02*X34800Y34974D01*
X32400D02*X34800Y37374D01*
X20400Y36574D02*X22800Y34174D01*
X20400D02*X22800Y36574D01*
X200178Y89782D02*X202578Y87382D01*
X200178D02*X202578Y89782D01*
X200178Y96868D02*X202578Y94468D01*
X200178D02*X202578Y96868D01*
X200146Y93316D02*X202546Y90916D01*
X200146D02*X202546Y93316D01*
X24400Y18774D02*X26800Y16374D01*
X24400D02*X26800Y18774D01*
X28600D02*X31000Y16374D01*
X28600D02*X31000Y18774D01*
X195060Y95687D02*X197460Y93287D01*
X195060D02*X197460Y95687D01*
X195060Y91357D02*X197460Y88957D01*
X195060D02*X197460Y91357D01*
X13800Y239024D02*X16200Y236624D01*
X13800D02*X16200Y239024D01*
X135000Y240074D02*Y239324D01*
X136500Y237824D01*
X138000Y239324D01*
Y240074D02*Y239324D01*
X136500Y237824D02*Y234074D01*
X139801Y237074D02*X142051D01*
X139801Y234074D02*X142801D01*
X139801Y240074D02*Y234074D01*
Y240074D02*X142801D01*
X147603D02*X148353Y239324D01*
X145353Y240074D02*X147603D01*
X144603Y239324D02*X145353Y240074D01*
X144603Y239324D02*Y237824D01*
X145353Y237074D01*
X147603D01*
X148353Y236324D01*
Y234824D01*
X147603Y234074D02*X148353Y234824D01*
X145353Y234074D02*X147603D01*
X144603Y234824D02*X145353Y234074D01*
X135000Y230823D02*X150154D01*
X98750Y234074D02*X100250D01*
X99500Y240074D02*Y234074D01*
X98000Y238574D02*X99500Y240074D01*
X102801Y234074D02*X104301D01*
X103551Y240074D02*Y234074D01*
X102051Y238574D02*X103551Y240074D01*
X98000Y230823D02*X106103D01*
X45000Y234824D02*X45750Y234074D01*
X45000Y239324D02*Y234824D01*
Y239324D02*X45750Y240074D01*
X47250D01*
X48000Y239324D01*
Y234824D01*
X47250Y234074D02*X48000Y234824D01*
X45750Y234074D02*X47250D01*
X45000Y235574D02*X48000Y238574D01*
X49801Y234074D02*X50551D01*
X52353Y234824D02*X53103Y234074D01*
X52353Y239324D02*Y234824D01*
Y239324D02*X53103Y240074D01*
X54603D01*
X55353Y239324D01*
Y234824D01*
X54603Y234074D02*X55353Y234824D01*
X53103Y234074D02*X54603D01*
X52353Y235574D02*X55353Y238574D01*
X57154Y239324D02*X57904Y240074D01*
X60154D01*
X60904Y239324D01*
Y237824D01*
X57154Y234074D02*X60904Y237824D01*
X57154Y234074D02*X60904D01*
X62706Y239324D02*X63456Y240074D01*
X65706D01*
X66456Y239324D01*
Y237824D01*
X62706Y234074D02*X66456Y237824D01*
X62706Y234074D02*X66456D01*
X45000Y230823D02*X68257D01*
X25197Y115969D02*Y112769D01*
X23597Y114369D02*X26797D01*
X11267Y99107D02*Y95907D01*
X9667Y97507D02*X12867D01*
X57964Y89091D02*Y85891D01*
X56364Y87491D02*X59564D01*
X77066Y108391D02*Y105191D01*
X75466Y106791D02*X78666D01*
X64370Y138017D02*Y134817D01*
X62770Y136417D02*X65970D01*
X50530Y109216D02*Y106016D01*
X48930Y107616D02*X52130D01*
X68898Y57898D02*Y54698D01*
X67298Y56298D02*X70498D01*
X96260Y92347D02*Y89147D01*
X94660Y90747D02*X97860D01*
X85630Y141166D02*Y137966D01*
X84030Y139566D02*X87230D01*
X127559Y139001D02*Y135801D01*
X125959Y137401D02*X129159D01*
X143600Y96774D02*Y93574D01*
X142000Y95174D02*X145200D01*
X124213Y86048D02*Y82848D01*
X122613Y84448D02*X125813D01*
X109252Y69709D02*Y66509D01*
X107652Y68109D02*X110852D01*
X100591Y139985D02*Y136785D01*
X98991Y138385D02*X102191D01*
X138780Y140182D02*Y136982D01*
X137180Y138582D02*X140380D01*
X115748Y105143D02*Y101943D01*
X114148Y103543D02*X117348D01*
X119685Y105143D02*Y101943D01*
X118085Y103543D02*X121285D01*
X148780Y140615D02*Y137415D01*
X147180Y139015D02*X150380D01*
X38000Y18774D02*Y15574D01*
X36400Y17174D02*X39600D01*
X38000Y16174D02*Y12974D01*
X36400Y14574D02*X39600D01*
X40800Y16174D02*Y12974D01*
X39200Y14574D02*X42400D01*
X43600Y16174D02*Y12974D01*
X42000Y14574D02*X45200D01*
X40800Y18774D02*Y15574D01*
X39200Y17174D02*X42400D01*
X46000Y21774D02*Y18574D01*
X44400Y20174D02*X47600D01*
X46000Y24374D02*Y21174D01*
X44400Y22774D02*X47600D01*
X46000Y26974D02*Y23774D01*
X44400Y25374D02*X47600D01*
X46000Y29574D02*Y26374D01*
X44400Y27974D02*X47600D01*
X46000Y32174D02*Y28974D01*
X44400Y30574D02*X47600D01*
X75000Y37229D02*Y34029D01*
X73400Y35629D02*X76600D01*
X73228Y5930D02*Y2730D01*
X71628Y4330D02*X74828D01*
X2362Y21481D02*Y18281D01*
X762Y19881D02*X3962D01*
X88583Y7308D02*Y4108D01*
X86983Y5708D02*X90183D01*
X94882Y5339D02*Y2139D01*
X93282Y3739D02*X96482D01*
X33465Y48253D02*Y45053D01*
X31865Y46653D02*X35065D01*
X56496Y37623D02*Y34423D01*
X54896Y36023D02*X58096D01*
X35039Y72859D02*Y69659D01*
X33439Y71259D02*X36639D01*
X138583Y67741D02*Y64541D01*
X136983Y66141D02*X140183D01*
X4921Y73646D02*Y70446D01*
X3321Y72046D02*X6521D01*
X95000Y15574D02*Y12374D01*
X93400Y13974D02*X96600D01*
X150800Y6774D02*Y3574D01*
X149200Y5174D02*X152400D01*
X181800Y6574D02*Y3374D01*
X180200Y4974D02*X183400D01*
X151000Y122574D02*Y119374D01*
X149400Y120974D02*X152600D01*
X174725Y93449D02*Y90249D01*
X173125Y91849D02*X176325D01*
X160400Y87974D02*Y84774D01*
X158800Y86374D02*X162000D01*
X169052Y57922D02*Y54722D01*
X167452Y56322D02*X170652D01*
X194882Y99828D02*Y96628D01*
X193282Y98228D02*X196482D01*
X194882Y87623D02*Y84423D01*
X193282Y86023D02*X196482D01*
X88189Y78961D02*Y75761D01*
X86589Y77361D02*X89789D01*
X88189Y96087D02*Y92887D01*
X86589Y94487D02*X89789D01*
X125000Y98843D02*Y95643D01*
X123400Y97243D02*X126600D01*
X129134Y82111D02*Y78911D01*
X127534Y80511D02*X130734D01*
X148425Y79355D02*Y76155D01*
X146825Y77755D02*X150025D01*
X158268Y83489D02*Y80289D01*
X156668Y81889D02*X159868D01*
X181693Y81520D02*Y78320D01*
X180093Y79920D02*X183293D01*
X28346Y8883D02*Y5683D01*
X26746Y7283D02*X29946D01*
X15200Y55174D02*Y51974D01*
X13600Y53574D02*X16800D01*
X75400Y87974D02*Y84774D01*
X73800Y86374D02*X77000D01*
X109400Y98974D02*Y95774D01*
X107800Y97374D02*X111000D01*
X83400Y20774D02*Y17574D01*
X81800Y19174D02*X85000D01*
X105000Y29574D02*Y26374D01*
X103400Y27974D02*X106600D01*
X20079Y79552D02*Y76352D01*
X18479Y77952D02*X21679D01*
X2953Y71087D02*Y67887D01*
X1353Y69487D02*X4553D01*
X1772Y88607D02*Y85407D01*
X172Y87007D02*X3372D01*
X15000Y254424D02*Y251224D01*
X13400Y252824D02*X16600D01*
X135000Y255074D02*Y254324D01*
X136500Y252824D01*
X138000Y254324D01*
Y255074D02*Y254324D01*
X136500Y252824D02*Y249074D01*
X139801Y252074D02*X142051D01*
X139801Y249074D02*X142801D01*
X139801Y255074D02*Y249074D01*
Y255074D02*X142801D01*
X147603D02*X148353Y254324D01*
X145353Y255074D02*X147603D01*
X144603Y254324D02*X145353Y255074D01*
X144603Y254324D02*Y252824D01*
X145353Y252074D01*
X147603D01*
X148353Y251324D01*
Y249824D01*
X147603Y249074D02*X148353Y249824D01*
X145353Y249074D02*X147603D01*
X144603Y249824D02*X145353Y249074D01*
X135000Y245823D02*X150154D01*
X100250Y255074D02*X101000Y254324D01*
X98750Y255074D02*X100250D01*
X98000Y254324D02*X98750Y255074D01*
X98000Y254324D02*Y249824D01*
X98750Y249074D01*
X100250Y252074D02*X101000Y251324D01*
X98000Y252074D02*X100250D01*
X98750Y249074D02*X100250D01*
X101000Y249824D01*
Y251324D02*Y249824D01*
X102801Y254324D02*X103551Y255074D01*
X105051D01*
X105801Y254324D01*
Y249824D01*
X105051Y249074D02*X105801Y249824D01*
X103551Y249074D02*X105051D01*
X102801Y249824D02*X103551Y249074D01*
Y252074D02*X105801D01*
X98000Y245823D02*X107603D01*
X45000Y249824D02*X45750Y249074D01*
X45000Y254324D02*Y249824D01*
Y254324D02*X45750Y255074D01*
X47250D01*
X48000Y254324D01*
Y249824D01*
X47250Y249074D02*X48000Y249824D01*
X45750Y249074D02*X47250D01*
X45000Y250574D02*X48000Y253574D01*
X49801Y249074D02*X50551D01*
X52353Y249824D02*X53103Y249074D01*
X52353Y254324D02*Y249824D01*
Y254324D02*X53103Y255074D01*
X54603D01*
X55353Y254324D01*
Y249824D01*
X54603Y249074D02*X55353Y249824D01*
X53103Y249074D02*X54603D01*
X52353Y250574D02*X55353Y253574D01*
X57904Y249074D02*X59404D01*
X58654Y255074D02*Y249074D01*
X57154Y253574D02*X58654Y255074D01*
X63456D02*X64206Y254324D01*
X61956Y255074D02*X63456D01*
X61206Y254324D02*X61956Y255074D01*
X61206Y254324D02*Y249824D01*
X61956Y249074D01*
X63456Y252074D02*X64206Y251324D01*
X61206Y252074D02*X63456D01*
X61956Y249074D02*X63456D01*
X64206Y249824D01*
Y251324D02*Y249824D01*
X45000Y245823D02*X66007D01*
X9843Y125196D02*Y123596D01*
Y125196D02*X11229Y125996D01*
X9843Y125196D02*X8457Y125996D01*
X36221Y116535D02*Y114935D01*
Y116535D02*X37607Y117335D01*
X36221Y116535D02*X34835Y117335D01*
X36221Y121259D02*Y119659D01*
Y121259D02*X37607Y122059D01*
X36221Y121259D02*X34835Y122059D01*
X26772Y138976D02*Y137376D01*
Y138976D02*X28158Y139776D01*
X26772Y138976D02*X25386Y139776D01*
X59055Y75196D02*Y73596D01*
Y75196D02*X60441Y75996D01*
X59055Y75196D02*X57669Y75996D01*
X42913Y121456D02*Y119856D01*
Y121456D02*X44299Y122256D01*
X42913Y121456D02*X41527Y122256D01*
X42914Y117716D02*Y116116D01*
Y117716D02*X44300Y118516D01*
X42914Y117716D02*X41528Y118516D01*
X56103Y132479D02*Y130879D01*
Y132479D02*X57489Y133279D01*
X56103Y132479D02*X54717Y133279D01*
X42520Y127952D02*Y126352D01*
Y127952D02*X43906Y128752D01*
X42520Y127952D02*X41134Y128752D01*
X38583Y144487D02*Y142887D01*
Y144487D02*X39969Y145287D01*
X38583Y144487D02*X37197Y145287D01*
X89764Y107086D02*Y105486D01*
Y107086D02*X91150Y107886D01*
X89764Y107086D02*X88378Y107886D01*
X92914Y107086D02*Y105486D01*
Y107086D02*X94300Y107886D01*
X92914Y107086D02*X91528Y107886D01*
X30142Y132948D02*Y131348D01*
Y132948D02*X31528Y133748D01*
X30142Y132948D02*X28756Y133748D01*
X67617Y69391D02*Y67791D01*
Y69391D02*X69003Y70191D01*
X67617Y69391D02*X66231Y70191D01*
X6299Y100787D02*Y99187D01*
Y100787D02*X7685Y101587D01*
X6299Y100787D02*X4913Y101587D01*
X85000Y129074D02*Y127474D01*
Y129074D02*X86386Y129874D01*
X85000Y129074D02*X83614Y129874D01*
X86000Y145574D02*Y143974D01*
Y145574D02*X87386Y146374D01*
X86000Y145574D02*X84614Y146374D01*
X32500Y135574D02*Y133974D01*
Y135574D02*X33886Y136374D01*
X32500Y135574D02*X31114Y136374D01*
X38500Y94574D02*Y92974D01*
Y94574D02*X39886Y95374D01*
X38500Y94574D02*X37114Y95374D01*
X73425Y144094D02*Y142494D01*
Y144094D02*X74811Y144894D01*
X73425Y144094D02*X72039Y144894D01*
X61000Y144074D02*Y142474D01*
Y144074D02*X62386Y144874D01*
X61000Y144074D02*X59614Y144874D01*
X19685Y85039D02*Y83439D01*
Y85039D02*X21071Y85839D01*
X19685Y85039D02*X18299Y85839D01*
X33200Y129974D02*Y128374D01*
Y129974D02*X34586Y130774D01*
X33200Y129974D02*X31814Y130774D01*
X33800Y93774D02*Y92174D01*
Y93774D02*X35186Y94574D01*
X33800Y93774D02*X32414Y94574D01*
X29400Y125174D02*Y123574D01*
Y125174D02*X30786Y125974D01*
X29400Y125174D02*X28014Y125974D01*
X30200Y129974D02*Y128374D01*
Y129974D02*X31586Y130774D01*
X30200Y129974D02*X28814Y130774D01*
X3346Y91535D02*Y89935D01*
Y91535D02*X4732Y92335D01*
X3346Y91535D02*X1960Y92335D01*
X3346Y96653D02*Y95053D01*
Y96653D02*X4732Y97453D01*
X3346Y96653D02*X1960Y97453D01*
X7283Y91535D02*Y89935D01*
Y91535D02*X8669Y92335D01*
X7283Y91535D02*X5897Y92335D01*
X7283Y96653D02*Y95053D01*
Y96653D02*X8669Y97453D01*
X7283Y96653D02*X5897Y97453D01*
X69488Y75590D02*Y73990D01*
Y75590D02*X70874Y76390D01*
X69488Y75590D02*X68102Y76390D01*
X80315Y68109D02*Y66509D01*
Y68109D02*X81701Y68909D01*
X80315Y68109D02*X78929Y68909D01*
X88386Y70472D02*Y68872D01*
Y70472D02*X89772Y71272D01*
X88386Y70472D02*X87000Y71272D01*
X89764Y67519D02*Y65919D01*
Y67519D02*X91150Y68319D01*
X89764Y67519D02*X88378Y68319D01*
X8344Y71138D02*Y69538D01*
Y71138D02*X9730Y71938D01*
X8344Y71138D02*X6958Y71938D01*
X45472Y75590D02*Y73990D01*
Y75590D02*X46858Y76390D01*
X45472Y75590D02*X44086Y76390D01*
X30906Y74409D02*Y72809D01*
Y74409D02*X32292Y75209D01*
X30906Y74409D02*X29520Y75209D01*
X122441Y78149D02*Y76549D01*
Y78149D02*X123827Y78949D01*
X122441Y78149D02*X121055Y78949D01*
X96654Y69291D02*Y67691D01*
Y69291D02*X98040Y70091D01*
X96654Y69291D02*X95268Y70091D01*
X96654Y74999D02*Y73399D01*
Y74999D02*X98040Y75799D01*
X96654Y74999D02*X95268Y75799D01*
X94488Y78149D02*Y76549D01*
Y78149D02*X95874Y78949D01*
X94488Y78149D02*X93102Y78949D01*
X96654Y81298D02*Y79698D01*
Y81298D02*X98040Y82098D01*
X96654Y81298D02*X95268Y82098D01*
X122047Y87598D02*Y85998D01*
Y87598D02*X123433Y88398D01*
X122047Y87598D02*X120661Y88398D01*
X124409Y90747D02*Y89147D01*
Y90747D02*X125795Y91547D01*
X124409Y90747D02*X123023Y91547D01*
X122047Y93897D02*Y92297D01*
Y93897D02*X123433Y94697D01*
X122047Y93897D02*X120661Y94697D01*
X101969Y113582D02*Y111982D01*
Y113582D02*X103355Y114382D01*
X101969Y113582D02*X100583Y114382D01*
X101969Y108267D02*Y106667D01*
Y108267D02*X103355Y109067D01*
X101969Y108267D02*X100583Y109067D01*
X125197Y119291D02*Y117691D01*
Y119291D02*X126583Y120091D01*
X125197Y119291D02*X123811Y120091D01*
X125197Y124212D02*Y122612D01*
Y124212D02*X126583Y125012D01*
X125197Y124212D02*X123811Y125012D01*
X143307Y124212D02*Y122612D01*
Y124212D02*X144693Y125012D01*
X143307Y124212D02*X141921Y125012D01*
X144438Y119340D02*Y117740D01*
Y119340D02*X145824Y120140D01*
X144438Y119340D02*X143052Y120140D01*
X128543Y116141D02*Y114541D01*
Y116141D02*X129929Y116941D01*
X128543Y116141D02*X127157Y116941D01*
X144882Y114763D02*Y113163D01*
Y114763D02*X146268Y115563D01*
X144882Y114763D02*X143496Y115563D01*
X136614Y121850D02*Y120250D01*
Y121850D02*X138000Y122650D01*
X136614Y121850D02*X135228Y122650D01*
X99262Y119340D02*Y117740D01*
Y119340D02*X100648Y120140D01*
X99262Y119340D02*X97876Y120140D01*
X165551Y105314D02*Y103714D01*
Y105314D02*X166937Y106114D01*
X165551Y105314D02*X164165Y106114D01*
X170472Y118700D02*Y117100D01*
Y118700D02*X171858Y119500D01*
X170472Y118700D02*X169086Y119500D01*
X160039Y127165D02*Y125565D01*
Y127165D02*X161425Y127965D01*
X160039Y127165D02*X158653Y127965D01*
X136811Y92716D02*Y91116D01*
Y92716D02*X138197Y93516D01*
X136811Y92716D02*X135425Y93516D01*
X136811Y96456D02*Y94856D01*
Y96456D02*X138197Y97256D01*
X136811Y96456D02*X135425Y97256D01*
X125591Y139763D02*Y138163D01*
Y139763D02*X126977Y140563D01*
X125591Y139763D02*X124205Y140563D01*
X132283Y135039D02*Y133439D01*
Y135039D02*X133669Y135839D01*
X132283Y135039D02*X130897Y135839D01*
X153937Y135039D02*Y133439D01*
Y135039D02*X155323Y135839D01*
X153937Y135039D02*X152551Y135839D01*
X158858Y138779D02*Y137179D01*
Y138779D02*X160244Y139579D01*
X158858Y138779D02*X157472Y139579D01*
X172638Y132086D02*Y130486D01*
Y132086D02*X174024Y132886D01*
X172638Y132086D02*X171252Y132886D01*
X174803Y119094D02*Y117494D01*
Y119094D02*X176189Y119894D01*
X174803Y119094D02*X173417Y119894D01*
X184646Y145078D02*Y143478D01*
Y145078D02*X186032Y145878D01*
X184646Y145078D02*X183260Y145878D01*
X184646Y136810D02*Y135210D01*
Y136810D02*X186032Y137610D01*
X184646Y136810D02*X183260Y137610D01*
X179331Y119094D02*Y117494D01*
Y119094D02*X180717Y119894D01*
X179331Y119094D02*X177945Y119894D01*
X40200Y32174D02*Y30574D01*
Y32174D02*X41586Y32974D01*
X40200Y32174D02*X38814Y32974D01*
X25660Y40914D02*Y39314D01*
Y40914D02*X27046Y41714D01*
X25660Y40914D02*X24274Y41714D01*
X35800Y29574D02*Y27974D01*
Y29574D02*X37186Y30374D01*
X35800Y29574D02*X34414Y30374D01*
X42717Y48031D02*Y46431D01*
Y48031D02*X44103Y48831D01*
X42717Y48031D02*X41331Y48831D01*
X28937Y57086D02*Y55486D01*
Y57086D02*X30323Y57886D01*
X28937Y57086D02*X27551Y57886D01*
X42323Y53346D02*Y51746D01*
Y53346D02*X43709Y54146D01*
X42323Y53346D02*X40937Y54146D01*
X100787Y55117D02*Y53517D01*
Y55117D02*X102173Y55917D01*
X100787Y55117D02*X99401Y55917D01*
X85630Y53346D02*Y51746D01*
Y53346D02*X87016Y54146D01*
X85630Y53346D02*X84244Y54146D01*
X109843Y8857D02*Y7257D01*
Y8857D02*X111229Y9657D01*
X109843Y8857D02*X108457Y9657D01*
X113780Y13582D02*Y11982D01*
Y13582D02*X115166Y14382D01*
X113780Y13582D02*X112394Y14382D01*
X65748Y51377D02*Y49777D01*
Y51377D02*X67134Y52177D01*
X65748Y51377D02*X64362Y52177D01*
X109843Y38976D02*Y37376D01*
Y38976D02*X111229Y39776D01*
X109843Y38976D02*X108457Y39776D01*
X127756Y66530D02*Y64930D01*
Y66530D02*X129142Y67330D01*
X127756Y66530D02*X126370Y67330D01*
X140011Y8611D02*Y7011D01*
Y8611D02*X141397Y9411D01*
X140011Y8611D02*X138625Y9411D01*
X167913Y8661D02*Y7061D01*
Y8661D02*X169299Y9461D01*
X167913Y8661D02*X166527Y9461D01*
X173031Y101180D02*Y99580D01*
Y101180D02*X174417Y101980D01*
X173031Y101180D02*X171645Y101980D01*
X173031Y104133D02*Y102533D01*
Y104133D02*X174417Y104933D01*
X173031Y104133D02*X171645Y104933D01*
X185827Y115944D02*Y114344D01*
Y115944D02*X187213Y116744D01*
X185827Y115944D02*X184441Y116744D01*
X185827Y112007D02*Y110407D01*
Y112007D02*X187213Y112807D01*
X185827Y112007D02*X184441Y112807D01*
X114173Y38976D02*Y37376D01*
Y38976D02*X115559Y39776D01*
X114173Y38976D02*X112787Y39776D01*
X118307Y45865D02*Y44265D01*
Y45865D02*X119693Y46665D01*
X118307Y45865D02*X116921Y46665D01*
X122441Y56692D02*Y55092D01*
Y56692D02*X123827Y57492D01*
X122441Y56692D02*X121055Y57492D01*
X127756Y72243D02*Y70643D01*
Y72243D02*X129142Y73043D01*
X127756Y72243D02*X126370Y73043D01*
X135511Y69213D02*Y67613D01*
Y69213D02*X136897Y70013D01*
X135511Y69213D02*X134125Y70013D01*
X144882Y67519D02*Y65919D01*
Y67519D02*X146268Y68319D01*
X144882Y67519D02*X143496Y68319D01*
X148031Y64763D02*Y63163D01*
Y64763D02*X149417Y65563D01*
X148031Y64763D02*X146645Y65563D01*
X96654Y61613D02*Y60013D01*
Y61613D02*X98040Y62413D01*
X96654Y61613D02*X95268Y62413D01*
X79528Y4724D02*Y3124D01*
Y4724D02*X80914Y5524D01*
X79528Y4724D02*X78142Y5524D01*
X56102Y4724D02*Y3124D01*
Y4724D02*X57488Y5524D01*
X56102Y4724D02*X54716Y5524D01*
X132677Y51968D02*Y50368D01*
Y51968D02*X134063Y52768D01*
X132677Y51968D02*X131291Y52768D01*
X132283Y65747D02*Y64147D01*
Y65747D02*X133669Y66547D01*
X132283Y65747D02*X130897Y66547D01*
X137795Y51968D02*Y50368D01*
Y51968D02*X139181Y52768D01*
X137795Y51968D02*X136409Y52768D01*
X180600Y30174D02*Y28574D01*
Y30174D02*X181986Y30974D01*
X180600Y30174D02*X179214Y30974D01*
X185600Y30174D02*Y28574D01*
Y30174D02*X186986Y30974D01*
X185600Y30174D02*X184214Y30974D01*
X142000Y85174D02*Y83574D01*
Y85174D02*X143386Y85974D01*
X142000Y85174D02*X140614Y85974D01*
X148800Y85174D02*Y83574D01*
Y85174D02*X150186Y85974D01*
X148800Y85174D02*X147414Y85974D01*
X142000Y81974D02*Y80374D01*
Y81974D02*X143386Y82774D01*
X142000Y81974D02*X140614Y82774D01*
X148800Y81974D02*Y80374D01*
Y81974D02*X150186Y82774D01*
X148800Y81974D02*X147414Y82774D01*
X14400Y17374D02*Y15774D01*
Y17374D02*X15786Y18174D01*
X14400Y17374D02*X13014Y18174D01*
X104200Y48774D02*Y47174D01*
Y48774D02*X105586Y49574D01*
X104200Y48774D02*X102814Y49574D01*
X154410Y121784D02*Y120184D01*
Y121784D02*X155796Y122584D01*
X154410Y121784D02*X153024Y122584D01*
X92400Y138174D02*Y136574D01*
Y138174D02*X93786Y138974D01*
X92400Y138174D02*X91014Y138974D01*
X130400Y88374D02*Y86774D01*
Y88374D02*X131786Y89174D01*
X130400Y88374D02*X129014Y89174D01*
X149600Y89974D02*Y88374D01*
Y89974D02*X150986Y90774D01*
X149600Y89974D02*X148214Y90774D01*
X154000Y89974D02*Y88374D01*
Y89974D02*X155386Y90774D01*
X154000Y89974D02*X152614Y90774D01*
X154200Y95774D02*Y94174D01*
Y95774D02*X155586Y96574D01*
X154200Y95774D02*X152814Y96574D01*
X167200Y59374D02*Y57774D01*
Y59374D02*X168586Y60174D01*
X167200Y59374D02*X165814Y60174D01*
X161400Y74974D02*Y73374D01*
Y74974D02*X162786Y75774D01*
X161400Y74974D02*X160014Y75774D01*
X188400Y48774D02*Y47174D01*
Y48774D02*X189786Y49574D01*
X188400Y48774D02*X187014Y49574D01*
X172200Y71774D02*Y70174D01*
Y71774D02*X173586Y72574D01*
X172200Y71774D02*X170814Y72574D01*
X179400Y65174D02*Y63574D01*
Y65174D02*X180786Y65974D01*
X179400Y65174D02*X178014Y65974D01*
X190600Y105174D02*Y103574D01*
Y105174D02*X191986Y105974D01*
X190600Y105174D02*X189214Y105974D01*
X181600Y100574D02*Y98974D01*
Y100574D02*X182986Y101374D01*
X181600Y100574D02*X180214Y101374D01*
X106200Y62574D02*Y60974D01*
Y62574D02*X107586Y63374D01*
X106200Y62574D02*X104814Y63374D01*
X118701Y65944D02*Y64344D01*
Y65944D02*X120087Y66744D01*
X118701Y65944D02*X117315Y66744D01*
X110433Y127361D02*Y125761D01*
Y127361D02*X111819Y128161D01*
X110433Y127361D02*X109047Y128161D01*
X33000Y97574D02*Y95974D01*
Y97574D02*X34386Y98374D01*
X33000Y97574D02*X31614Y98374D01*
X33000Y103090D02*Y101490D01*
Y103090D02*X34386Y103890D01*
X33000Y103090D02*X31614Y103890D01*
X99410Y42716D02*Y41116D01*
Y42716D02*X100796Y43516D01*
X99410Y42716D02*X98024Y43516D01*
X89567Y35629D02*Y34029D01*
Y35629D02*X90953Y36429D01*
X89567Y35629D02*X88181Y36429D01*
X113800Y19574D02*Y17974D01*
Y19574D02*X115186Y20374D01*
X113800Y19574D02*X112414Y20374D01*
X131400Y20774D02*Y19174D01*
Y20774D02*X132786Y21574D01*
X131400Y20774D02*X130014Y21574D01*
X131400Y24974D02*Y23374D01*
Y24974D02*X132786Y25774D01*
X131400Y24974D02*X130014Y25774D01*
X143600Y20774D02*Y19174D01*
Y20774D02*X144986Y21574D01*
X143600Y20774D02*X142214Y21574D01*
X143600Y24974D02*Y23374D01*
Y24974D02*X144986Y25774D01*
X143600Y24974D02*X142214Y25774D01*
X160400Y19174D02*Y17574D01*
Y19174D02*X161786Y19974D01*
X160400Y19174D02*X159014Y19974D01*
X165400Y24174D02*Y22574D01*
Y24174D02*X166786Y24974D01*
X165400Y24174D02*X164014Y24974D01*
X171400Y15374D02*Y13774D01*
Y15374D02*X172786Y16174D01*
X171400Y15374D02*X170014Y16174D01*
X171400Y24574D02*Y22974D01*
Y24574D02*X172786Y25374D01*
X171400Y24574D02*X170014Y25374D01*
X113800Y28774D02*Y27174D01*
Y28774D02*X115186Y29574D01*
X113800Y28774D02*X112414Y29574D01*
X120866Y27361D02*Y25761D01*
Y27361D02*X122252Y28161D01*
X120866Y27361D02*X119480Y28161D01*
X101600Y25374D02*Y23774D01*
Y25374D02*X102986Y26174D01*
X101600Y25374D02*X100214Y26174D01*
X101600Y20374D02*Y18774D01*
Y20374D02*X102986Y21174D01*
X101600Y20374D02*X100214Y21174D01*
X140748Y46456D02*Y44856D01*
Y46456D02*X142134Y47256D01*
X140748Y46456D02*X139362Y47256D01*
X140748Y36220D02*Y34620D01*
Y36220D02*X142134Y37020D01*
X140748Y36220D02*X139362Y37020D01*
X35039Y74409D02*Y72809D01*
Y74409D02*X36425Y75209D01*
X35039Y74409D02*X33653Y75209D01*
X40748Y138385D02*Y136785D01*
Y138385D02*X42134Y139185D01*
X40748Y138385D02*X39362Y139185D01*
X19685Y88582D02*Y86982D01*
Y88582D02*X21071Y89382D01*
X19685Y88582D02*X18299Y89382D01*
X15000Y267824D02*Y266224D01*
Y267824D02*X16386Y268624D01*
X15000Y267824D02*X13614Y268624D01*
X135000Y270074D02*Y269324D01*
X136500Y267824D01*
X138000Y269324D01*
Y270074D02*Y269324D01*
X136500Y267824D02*Y264074D01*
X139801Y267074D02*X142051D01*
X139801Y264074D02*X142801D01*
X139801Y270074D02*Y264074D01*
Y270074D02*X142801D01*
X147603D02*X148353Y269324D01*
X145353Y270074D02*X147603D01*
X144603Y269324D02*X145353Y270074D01*
X144603Y269324D02*Y267824D01*
X145353Y267074D01*
X147603D01*
X148353Y266324D01*
Y264824D01*
X147603Y264074D02*X148353Y264824D01*
X145353Y264074D02*X147603D01*
X144603Y264824D02*X145353Y264074D01*
X135000Y260823D02*X150154D01*
X98750Y264074D02*X100250D01*
X99500Y270074D02*Y264074D01*
X98000Y268574D02*X99500Y270074D01*
X102051Y267074D02*X105051Y270074D01*
X102051Y267074D02*X105801D01*
X105051Y270074D02*Y264074D01*
X107603D02*X111353Y267824D01*
Y270074D02*Y267824D01*
X107603Y270074D02*X111353D01*
X98000Y260823D02*X113154D01*
X45000Y264824D02*X45750Y264074D01*
X45000Y269324D02*Y264824D01*
Y269324D02*X45750Y270074D01*
X47250D01*
X48000Y269324D01*
Y264824D01*
X47250Y264074D02*X48000Y264824D01*
X45750Y264074D02*X47250D01*
X45000Y265574D02*X48000Y268574D01*
X49801Y264074D02*X50551D01*
X52353Y264824D02*X53103Y264074D01*
X52353Y269324D02*Y264824D01*
Y269324D02*X53103Y270074D01*
X54603D01*
X55353Y269324D01*
Y264824D01*
X54603Y264074D02*X55353Y264824D01*
X53103Y264074D02*X54603D01*
X52353Y265574D02*X55353Y268574D01*
X57904Y264074D02*X59404D01*
X58654Y270074D02*Y264074D01*
X57154Y268574D02*X58654Y270074D01*
X61206Y267074D02*X64206Y270074D01*
X61206Y267074D02*X64956D01*
X64206Y270074D02*Y264074D01*
X45000Y260823D02*X66757D01*
X3000Y285074D02*X3750Y284324D01*
X750Y285074D02*X3000D01*
X0Y284324D02*X750Y285074D01*
X0Y284324D02*Y282824D01*
X750Y282074D01*
X3000D01*
X3750Y281324D01*
Y279824D01*
X3000Y279074D02*X3750Y279824D01*
X750Y279074D02*X3000D01*
X0Y279824D02*X750Y279074D01*
X5551Y282074D02*Y279824D01*
X6301Y279074D01*
X8551Y282074D02*Y277574D01*
X7801Y276824D02*X8551Y277574D01*
X6301Y276824D02*X7801D01*
X5551Y277574D02*X6301Y276824D01*
Y279074D02*X7801D01*
X8551Y279824D01*
X11103Y281324D02*Y279074D01*
Y281324D02*X11853Y282074D01*
X12603D01*
X13353Y281324D01*
Y279074D01*
Y281324D02*X14103Y282074D01*
X14853D01*
X15603Y281324D01*
Y279074D01*
X10353Y282074D02*X11103Y281324D01*
X17404Y285074D02*Y279074D01*
Y279824D02*X18154Y279074D01*
X19654D01*
X20404Y279824D01*
Y281324D02*Y279824D01*
X19654Y282074D02*X20404Y281324D01*
X18154Y282074D02*X19654D01*
X17404Y281324D02*X18154Y282074D01*
X22206Y281324D02*Y279824D01*
Y281324D02*X22956Y282074D01*
X24456D01*
X25206Y281324D01*
Y279824D01*
X24456Y279074D02*X25206Y279824D01*
X22956Y279074D02*X24456D01*
X22206Y279824D02*X22956Y279074D01*
X27007Y285074D02*Y279824D01*
X27757Y279074D01*
X41750Y285074D02*Y279074D01*
X44000Y285074D02*X44750Y284324D01*
Y279824D01*
X44000Y279074D02*X44750Y279824D01*
X41000Y279074D02*X44000D01*
X41000Y285074D02*X44000D01*
X46551Y283574D02*Y282824D01*
Y281324D02*Y279074D01*
X50303Y282074D02*X51053Y281324D01*
X48803Y282074D02*X50303D01*
X48053Y281324D02*X48803Y282074D01*
X48053Y281324D02*Y279824D01*
X48803Y279074D01*
X51053Y282074D02*Y279824D01*
X51803Y279074D01*
X48803D02*X50303D01*
X51053Y279824D01*
X54354Y281324D02*Y279074D01*
Y281324D02*X55104Y282074D01*
X55854D01*
X56604Y281324D01*
Y279074D01*
Y281324D02*X57354Y282074D01*
X58104D01*
X58854Y281324D01*
Y279074D01*
X53604Y282074D02*X54354Y281324D01*
X60656Y279074D02*X61406D01*
X65907Y279824D02*X66657Y279074D01*
X65907Y284324D02*X66657Y285074D01*
X65907Y284324D02*Y279824D01*
X68459Y285074D02*X69959D01*
X69209D02*Y279074D01*
X68459D02*X69959D01*
X72510Y281324D02*Y279074D01*
Y281324D02*X73260Y282074D01*
X74010D01*
X74760Y281324D01*
Y279074D01*
X71760Y282074D02*X72510Y281324D01*
X77312Y282074D02*X79562D01*
X76562Y281324D02*X77312Y282074D01*
X76562Y281324D02*Y279824D01*
X77312Y279074D01*
X79562D01*
X81363Y285074D02*Y279074D01*
Y281324D02*X82113Y282074D01*
X83613D01*
X84363Y281324D01*
Y279074D01*
X86165Y285074D02*X86915Y284324D01*
Y279824D01*
X86165Y279074D02*X86915Y279824D01*
X95750Y279074D02*X98000D01*
X95000Y279824D02*X95750Y279074D01*
X95000Y284324D02*Y279824D01*
Y284324D02*X95750Y285074D01*
X98000D01*
X99801Y281324D02*Y279824D01*
Y281324D02*X100551Y282074D01*
X102051D01*
X102801Y281324D01*
Y279824D01*
X102051Y279074D02*X102801Y279824D01*
X100551Y279074D02*X102051D01*
X99801Y279824D02*X100551Y279074D01*
X104603Y282074D02*Y279824D01*
X105353Y279074D01*
X106853D01*
X107603Y279824D01*
Y282074D02*Y279824D01*
X110154Y281324D02*Y279074D01*
Y281324D02*X110904Y282074D01*
X111654D01*
X112404Y281324D01*
Y279074D01*
X109404Y282074D02*X110154Y281324D01*
X114956Y285074D02*Y279824D01*
X115706Y279074D01*
X114206Y282824D02*X115706D01*
X130750Y285074D02*Y279074D01*
X130000Y285074D02*X133000D01*
X133750Y284324D01*
Y282824D01*
X133000Y282074D02*X133750Y282824D01*
X130750Y282074D02*X133000D01*
X135551Y285074D02*Y279824D01*
X136301Y279074D01*
X140053Y282074D02*X140803Y281324D01*
X138553Y282074D02*X140053D01*
X137803Y281324D02*X138553Y282074D01*
X137803Y281324D02*Y279824D01*
X138553Y279074D01*
X140803Y282074D02*Y279824D01*
X141553Y279074D01*
X138553D02*X140053D01*
X140803Y279824D01*
X144104Y285074D02*Y279824D01*
X144854Y279074D01*
X143354Y282824D02*X144854D01*
X147106Y279074D02*X149356D01*
X146356Y279824D02*X147106Y279074D01*
X146356Y281324D02*Y279824D01*
Y281324D02*X147106Y282074D01*
X148606D01*
X149356Y281324D01*
X146356Y280574D02*X149356D01*
Y281324D02*Y280574D01*
X154157Y285074D02*Y279074D01*
X153407D02*X154157Y279824D01*
X151907Y279074D02*X153407D01*
X151157Y279824D02*X151907Y279074D01*
X151157Y281324D02*Y279824D01*
Y281324D02*X151907Y282074D01*
X153407D01*
X154157Y281324D01*
X157459Y282074D02*Y281324D01*
Y279824D02*Y279074D01*
X155959Y284324D02*Y283574D01*
Y284324D02*X156709Y285074D01*
X158209D01*
X158959Y284324D01*
Y283574D01*
X157459Y282074D02*X158959Y283574D01*
X0Y300074D02*X3000D01*
X1500D02*Y294074D01*
X4801Y300074D02*Y294074D01*
Y296324D02*X5551Y297074D01*
X7051D01*
X7801Y296324D01*
Y294074D01*
X10353D02*X12603D01*
X9603Y294824D02*X10353Y294074D01*
X9603Y296324D02*Y294824D01*
Y296324D02*X10353Y297074D01*
X11853D01*
X12603Y296324D01*
X9603Y295574D02*X12603D01*
Y296324D02*Y295574D01*
X15154Y296324D02*Y294074D01*
Y296324D02*X15904Y297074D01*
X17404D01*
X14404D02*X15154Y296324D01*
X19956Y294074D02*X22206D01*
X19206Y294824D02*X19956Y294074D01*
X19206Y296324D02*Y294824D01*
Y296324D02*X19956Y297074D01*
X21456D01*
X22206Y296324D01*
X19206Y295574D02*X22206D01*
Y296324D02*Y295574D01*
X28957Y297074D02*X29707Y296324D01*
X27457Y297074D02*X28957D01*
X26707Y296324D02*X27457Y297074D01*
X26707Y296324D02*Y294824D01*
X27457Y294074D01*
X29707Y297074D02*Y294824D01*
X30457Y294074D01*
X27457D02*X28957D01*
X29707Y294824D01*
X33009Y296324D02*Y294074D01*
Y296324D02*X33759Y297074D01*
X35259D01*
X32259D02*X33009Y296324D01*
X37810Y294074D02*X40060D01*
X37060Y294824D02*X37810Y294074D01*
X37060Y296324D02*Y294824D01*
Y296324D02*X37810Y297074D01*
X39310D01*
X40060Y296324D01*
X37060Y295574D02*X40060D01*
Y296324D02*Y295574D01*
X44562Y294824D02*X45312Y294074D01*
X44562Y296324D02*Y294824D01*
Y296324D02*X45312Y297074D01*
X46812D01*
X47562Y296324D01*
Y294824D01*
X46812Y294074D02*X47562Y294824D01*
X45312Y294074D02*X46812D01*
X44562Y297824D02*X45312Y297074D01*
X44562Y299324D02*Y297824D01*
Y299324D02*X45312Y300074D01*
X46812D01*
X47562Y299324D01*
Y297824D01*
X46812Y297074D02*X47562Y297824D01*
X55063Y300074D02*Y294074D01*
X54313D02*X55063Y294824D01*
X52813Y294074D02*X54313D01*
X52063Y294824D02*X52813Y294074D01*
X52063Y296324D02*Y294824D01*
Y296324D02*X52813Y297074D01*
X54313D01*
X55063Y296324D01*
X56865Y298574D02*Y297824D01*
Y296324D02*Y294074D01*
X59116Y299324D02*Y294074D01*
Y299324D02*X59866Y300074D01*
X60616D01*
X58366Y297074D02*X59866D01*
X62868Y299324D02*Y294074D01*
Y299324D02*X63618Y300074D01*
X64368D01*
X62118Y297074D02*X63618D01*
X66619Y294074D02*X68869D01*
X65869Y294824D02*X66619Y294074D01*
X65869Y296324D02*Y294824D01*
Y296324D02*X66619Y297074D01*
X68119D01*
X68869Y296324D01*
X65869Y295574D02*X68869D01*
Y296324D02*Y295574D01*
X71421Y296324D02*Y294074D01*
Y296324D02*X72171Y297074D01*
X73671D01*
X70671D02*X71421Y296324D01*
X76222Y294074D02*X78472D01*
X75472Y294824D02*X76222Y294074D01*
X75472Y296324D02*Y294824D01*
Y296324D02*X76222Y297074D01*
X77722D01*
X78472Y296324D01*
X75472Y295574D02*X78472D01*
Y296324D02*Y295574D01*
X81024Y296324D02*Y294074D01*
Y296324D02*X81774Y297074D01*
X82524D01*
X83274Y296324D01*
Y294074D01*
X80274Y297074D02*X81024Y296324D01*
X85825Y300074D02*Y294824D01*
X86575Y294074D01*
X85075Y297824D02*X86575D01*
X93777Y300074D02*Y294074D01*
X93027D02*X93777Y294824D01*
X91527Y294074D02*X93027D01*
X90777Y294824D02*X91527Y294074D01*
X90777Y296324D02*Y294824D01*
Y296324D02*X91527Y297074D01*
X93027D01*
X93777Y296324D01*
X96328D02*Y294074D01*
Y296324D02*X97078Y297074D01*
X98578D01*
X95578D02*X96328Y296324D01*
X100380Y298574D02*Y297824D01*
Y296324D02*Y294074D01*
X101881Y300074D02*Y294824D01*
X102631Y294074D01*
X104133Y300074D02*Y294824D01*
X104883Y294074D01*
X109834D02*X112084D01*
X112834Y294824D01*
X112084Y295574D02*X112834Y294824D01*
X109834Y295574D02*X112084D01*
X109084Y296324D02*X109834Y295574D01*
X109084Y296324D02*X109834Y297074D01*
X112084D01*
X112834Y296324D01*
X109084Y294824D02*X109834Y294074D01*
X114636Y298574D02*Y297824D01*
Y296324D02*Y294074D01*
X116137Y297074D02*X119137D01*
X116137Y294074D02*X119137Y297074D01*
X116137Y294074D02*X119137D01*
X121689D02*X123939D01*
X120939Y294824D02*X121689Y294074D01*
X120939Y296324D02*Y294824D01*
Y296324D02*X121689Y297074D01*
X123189D01*
X123939Y296324D01*
X120939Y295574D02*X123939D01*
Y296324D02*Y295574D01*
X126490Y294074D02*X128740D01*
X129490Y294824D01*
X128740Y295574D02*X129490Y294824D01*
X126490Y295574D02*X128740D01*
X125740Y296324D02*X126490Y295574D01*
X125740Y296324D02*X126490Y297074D01*
X128740D01*
X129490Y296324D01*
X125740Y294824D02*X126490Y294074D01*
X133992Y297074D02*Y294824D01*
X134742Y294074D01*
X136242D01*
X136992Y294824D01*
Y297074D02*Y294824D01*
X139543Y294074D02*X141793D01*
X142543Y294824D01*
X141793Y295574D02*X142543Y294824D01*
X139543Y295574D02*X141793D01*
X138793Y296324D02*X139543Y295574D01*
X138793Y296324D02*X139543Y297074D01*
X141793D01*
X142543Y296324D01*
X138793Y294824D02*X139543Y294074D01*
X145095D02*X147345D01*
X144345Y294824D02*X145095Y294074D01*
X144345Y296324D02*Y294824D01*
Y296324D02*X145095Y297074D01*
X146595D01*
X147345Y296324D01*
X144345Y295574D02*X147345D01*
Y296324D02*Y295574D01*
X152146Y300074D02*Y294074D01*
X151396D02*X152146Y294824D01*
X149896Y294074D02*X151396D01*
X149146Y294824D02*X149896Y294074D01*
X149146Y296324D02*Y294824D01*
Y296324D02*X149896Y297074D01*
X151396D01*
X152146Y296324D01*
X156648Y298574D02*Y297824D01*
Y296324D02*Y294074D01*
X158899Y296324D02*Y294074D01*
Y296324D02*X159649Y297074D01*
X160399D01*
X161149Y296324D01*
Y294074D01*
X158149Y297074D02*X158899Y296324D01*
X166401Y300074D02*Y294824D01*
X167151Y294074D01*
X165651Y297824D02*X167151D01*
X168652Y300074D02*Y294074D01*
Y296324D02*X169402Y297074D01*
X170902D01*
X171652Y296324D01*
Y294074D01*
X173454Y298574D02*Y297824D01*
Y296324D02*Y294074D01*
X175705D02*X177955D01*
X178705Y294824D01*
X177955Y295574D02*X178705Y294824D01*
X175705Y295574D02*X177955D01*
X174955Y296324D02*X175705Y295574D01*
X174955Y296324D02*X175705Y297074D01*
X177955D01*
X178705Y296324D01*
X174955Y294824D02*X175705Y294074D01*
X183207Y300074D02*Y294824D01*
X183957Y294074D01*
X187708Y297074D02*X188458Y296324D01*
X186208Y297074D02*X187708D01*
X185458Y296324D02*X186208Y297074D01*
X185458Y296324D02*Y294824D01*
X186208Y294074D01*
X188458Y297074D02*Y294824D01*
X189208Y294074D01*
X186208D02*X187708D01*
X188458Y294824D01*
X191010Y297074D02*Y294824D01*
X191760Y294074D01*
X194010Y297074D02*Y292574D01*
X193260Y291824D02*X194010Y292574D01*
X191760Y291824D02*X193260D01*
X191010Y292574D02*X191760Y291824D01*
Y294074D02*X193260D01*
X194010Y294824D01*
X195811Y296324D02*Y294824D01*
Y296324D02*X196561Y297074D01*
X198061D01*
X198811Y296324D01*
Y294824D01*
X198061Y294074D02*X198811Y294824D01*
X196561Y294074D02*X198061D01*
X195811Y294824D02*X196561Y294074D01*
X200613Y297074D02*Y294824D01*
X201363Y294074D01*
X202863D01*
X203613Y294824D01*
Y297074D02*Y294824D01*
X206164Y300074D02*Y294824D01*
X206914Y294074D01*
X205414Y297824D02*X206914D01*
X208416Y292574D02*X209916Y294074D01*
X214417Y299324D02*X215167Y300074D01*
X217417D01*
X218167Y299324D01*
Y297824D01*
X214417Y294074D02*X218167Y297824D01*
X214417Y294074D02*X218167D01*
X219969Y300074D02*X222969D01*
X219969D02*Y297074D01*
X220719Y297824D01*
X222219D01*
X222969Y297074D01*
Y294824D01*
X222219Y294074D02*X222969Y294824D01*
X220719Y294074D02*X222219D01*
X219969Y294824D02*X220719Y294074D01*
X224770Y300074D02*X227770D01*
X224770D02*Y297074D01*
X225520Y297824D01*
X227020D01*
X227770Y297074D01*
Y294824D01*
X227020Y294074D02*X227770Y294824D01*
X225520Y294074D02*X227020D01*
X224770Y294824D02*X225520Y294074D01*
X232272Y300074D02*Y294074D01*
Y296324D02*X233022Y297074D01*
X234522D01*
X235272Y296324D01*
Y294074D01*
X237073Y296324D02*Y294824D01*
Y296324D02*X237823Y297074D01*
X239323D01*
X240073Y296324D01*
Y294824D01*
X239323Y294074D02*X240073Y294824D01*
X237823Y294074D02*X239323D01*
X237073Y294824D02*X237823Y294074D01*
X241875Y300074D02*Y294824D01*
X242625Y294074D01*
X244876D02*X247126D01*
X244126Y294824D02*X244876Y294074D01*
X244126Y296324D02*Y294824D01*
Y296324D02*X244876Y297074D01*
X246376D01*
X247126Y296324D01*
X244126Y295574D02*X247126D01*
Y296324D02*Y295574D01*
X249678Y294074D02*X251928D01*
X252678Y294824D01*
X251928Y295574D02*X252678Y294824D01*
X249678Y295574D02*X251928D01*
X248928Y296324D02*X249678Y295574D01*
X248928Y296324D02*X249678Y297074D01*
X251928D01*
X252678Y296324D01*
X248928Y294824D02*X249678Y294074D01*
X257929Y300074D02*Y294824D01*
X258679Y294074D01*
X257179Y297824D02*X258679D01*
X260181Y296324D02*Y294824D01*
Y296324D02*X260931Y297074D01*
X262431D01*
X263181Y296324D01*
Y294824D01*
X262431Y294074D02*X263181Y294824D01*
X260931Y294074D02*X262431D01*
X260181Y294824D02*X260931Y294074D01*
X265732Y300074D02*Y294824D01*
X266482Y294074D01*
X264982Y297824D02*X266482D01*
X270234Y297074D02*X270984Y296324D01*
X268734Y297074D02*X270234D01*
X267984Y296324D02*X268734Y297074D01*
X267984Y296324D02*Y294824D01*
X268734Y294074D01*
X270984Y297074D02*Y294824D01*
X271734Y294074D01*
X268734D02*X270234D01*
X270984Y294824D01*
X273535Y300074D02*Y294824D01*
X274285Y294074D01*
G54D67*X0Y151574D02*X206299D01*
X0D02*Y0D01*
X206299Y151574D02*Y0D01*
X0D02*X206299D01*
G54D20*X200000Y165074D02*Y159074D01*
Y165074D02*X202250Y162824D01*
X204500Y165074D01*
Y159074D01*
X208551Y162074D02*X209301Y161324D01*
X207051Y162074D02*X208551D01*
X206301Y161324D02*X207051Y162074D01*
X206301Y161324D02*Y159824D01*
X207051Y159074D01*
X209301Y162074D02*Y159824D01*
X210051Y159074D01*
X207051D02*X208551D01*
X209301Y159824D01*
X211853Y162074D02*X214853Y159074D01*
X211853D02*X214853Y162074D01*
X216654Y163574D02*Y162824D01*
Y161324D02*Y159074D01*
X218906Y161324D02*Y159074D01*
Y161324D02*X219656Y162074D01*
X220406D01*
X221156Y161324D01*
Y159074D01*
Y161324D02*X221906Y162074D01*
X222656D01*
X223406Y161324D01*
Y159074D01*
X218156Y162074D02*X218906Y161324D01*
X225207Y162074D02*Y159824D01*
X225957Y159074D01*
X227457D01*
X228207Y159824D01*
Y162074D02*Y159824D01*
X230759Y161324D02*Y159074D01*
Y161324D02*X231509Y162074D01*
X232259D01*
X233009Y161324D01*
Y159074D01*
Y161324D02*X233759Y162074D01*
X234509D01*
X235259Y161324D01*
Y159074D01*
X230009Y162074D02*X230759Y161324D01*
X240510Y165074D02*Y159074D01*
X242760Y165074D02*X243510Y164324D01*
Y159824D01*
X242760Y159074D02*X243510Y159824D01*
X239760Y159074D02*X242760D01*
X239760Y165074D02*X242760D01*
X245312Y163574D02*Y162824D01*
Y161324D02*Y159074D01*
X247563Y161324D02*Y159074D01*
Y161324D02*X248313Y162074D01*
X249063D01*
X249813Y161324D01*
Y159074D01*
Y161324D02*X250563Y162074D01*
X251313D01*
X252063Y161324D01*
Y159074D01*
X246813Y162074D02*X247563Y161324D01*
X254615Y159074D02*X256865D01*
X253865Y159824D02*X254615Y159074D01*
X253865Y161324D02*Y159824D01*
Y161324D02*X254615Y162074D01*
X256115D01*
X256865Y161324D01*
X253865Y160574D02*X256865D01*
Y161324D02*Y160574D01*
X259416Y161324D02*Y159074D01*
Y161324D02*X260166Y162074D01*
X260916D01*
X261666Y161324D01*
Y159074D01*
X258666Y162074D02*X259416Y161324D01*
X264218Y159074D02*X266468D01*
X267218Y159824D01*
X266468Y160574D02*X267218Y159824D01*
X264218Y160574D02*X266468D01*
X263468Y161324D02*X264218Y160574D01*
X263468Y161324D02*X264218Y162074D01*
X266468D01*
X267218Y161324D01*
X263468Y159824D02*X264218Y159074D01*
X269019Y163574D02*Y162824D01*
Y161324D02*Y159074D01*
X270521Y161324D02*Y159824D01*
Y161324D02*X271271Y162074D01*
X272771D01*
X273521Y161324D01*
Y159824D01*
X272771Y159074D02*X273521Y159824D01*
X271271Y159074D02*X272771D01*
X270521Y159824D02*X271271Y159074D01*
X276072Y161324D02*Y159074D01*
Y161324D02*X276822Y162074D01*
X277572D01*
X278322Y161324D01*
Y159074D01*
X275322Y162074D02*X276072Y161324D01*
X280874Y159074D02*X283124D01*
X283874Y159824D01*
X283124Y160574D02*X283874Y159824D01*
X280874Y160574D02*X283124D01*
X280124Y161324D02*X280874Y160574D01*
X280124Y161324D02*X280874Y162074D01*
X283124D01*
X283874Y161324D01*
X280124Y159824D02*X280874Y159074D01*
X285675Y162824D02*X286425D01*
X285675Y161324D02*X286425D01*
X290927Y164324D02*X291677Y165074D01*
X293927D01*
X294677Y164324D01*
Y162824D01*
X290927Y159074D02*X294677Y162824D01*
X290927Y159074D02*X294677D01*
X296478Y159824D02*X297228Y159074D01*
X296478Y164324D02*Y159824D01*
Y164324D02*X297228Y165074D01*
X298728D01*
X299478Y164324D01*
Y159824D01*
X298728Y159074D02*X299478Y159824D01*
X297228Y159074D02*X298728D01*
X296478Y160574D02*X299478Y163574D01*
X303530Y165074D02*X304280Y164324D01*
X302030Y165074D02*X303530D01*
X301280Y164324D02*X302030Y165074D01*
X301280Y164324D02*Y159824D01*
X302030Y159074D01*
X303530Y162074D02*X304280Y161324D01*
X301280Y162074D02*X303530D01*
X302030Y159074D02*X303530D01*
X304280Y159824D01*
Y161324D02*Y159824D01*
X306081Y164324D02*X306831Y165074D01*
X309081D01*
X309831Y164324D01*
Y162824D01*
X306081Y159074D02*X309831Y162824D01*
X306081Y159074D02*X309831D01*
X311633D02*X312383D01*
X314184D02*X317184Y162074D01*
Y164324D02*Y162074D01*
X316434Y165074D02*X317184Y164324D01*
X314934Y165074D02*X316434D01*
X314184Y164324D02*X314934Y165074D01*
X314184Y164324D02*Y162824D01*
X314934Y162074D01*
X317184D01*
X318986Y159074D02*X321986Y162074D01*
Y164324D02*Y162074D01*
X321236Y165074D02*X321986Y164324D01*
X319736Y165074D02*X321236D01*
X318986Y164324D02*X319736Y165074D01*
X318986Y164324D02*Y162824D01*
X319736Y162074D01*
X321986D01*
X323787Y159824D02*X324537Y159074D01*
X323787Y164324D02*Y159824D01*
Y164324D02*X324537Y165074D01*
X326037D01*
X326787Y164324D01*
Y159824D01*
X326037Y159074D02*X326787Y159824D01*
X324537Y159074D02*X326037D01*
X323787Y160574D02*X326787Y163574D01*
X328589Y159824D02*X329339Y159074D01*
X328589Y164324D02*Y159824D01*
Y164324D02*X329339Y165074D01*
X330839D01*
X331589Y164324D01*
Y159824D01*
X330839Y159074D02*X331589Y159824D01*
X329339Y159074D02*X330839D01*
X328589Y160574D02*X331589Y163574D01*
X333390Y159824D02*X334140Y159074D01*
X333390Y164324D02*Y159824D01*
Y164324D02*X334140Y165074D01*
X335640D01*
X336390Y164324D01*
Y159824D01*
X335640Y159074D02*X336390Y159824D01*
X334140Y159074D02*X335640D01*
X333390Y160574D02*X336390Y163574D01*
X338192Y159824D02*X338942Y159074D01*
X338192Y164324D02*Y159824D01*
Y164324D02*X338942Y165074D01*
X340442D01*
X341192Y164324D01*
Y159824D01*
X340442Y159074D02*X341192Y159824D01*
X338942Y159074D02*X340442D01*
X338192Y160574D02*X341192Y163574D01*
X346443Y161324D02*Y159074D01*
Y161324D02*X347193Y162074D01*
X347943D01*
X348693Y161324D01*
Y159074D01*
Y161324D02*X349443Y162074D01*
X350193D01*
X350943Y161324D01*
Y159074D01*
X345693Y162074D02*X346443Y161324D01*
X352745Y163574D02*Y162824D01*
Y161324D02*Y159074D01*
X354246Y165074D02*Y159824D01*
X354996Y159074D01*
X357248D02*X359498D01*
X360248Y159824D01*
X359498Y160574D02*X360248Y159824D01*
X357248Y160574D02*X359498D01*
X356498Y161324D02*X357248Y160574D01*
X356498Y161324D02*X357248Y162074D01*
X359498D01*
X360248Y161324D01*
X356498Y159824D02*X357248Y159074D01*
X364749Y162074D02*Y159824D01*
X365499Y159074D01*
X366249D01*
X366999Y159824D01*
Y162074D02*Y159824D01*
X367749Y159074D01*
X368499D01*
X369249Y159824D01*
Y162074D02*Y159824D01*
X371051Y163574D02*Y162824D01*
Y161324D02*Y159074D01*
X375552Y165074D02*Y159074D01*
X374802D02*X375552Y159824D01*
X373302Y159074D02*X374802D01*
X372552Y159824D02*X373302Y159074D01*
X372552Y161324D02*Y159824D01*
Y161324D02*X373302Y162074D01*
X374802D01*
X375552Y161324D01*
X378104Y159074D02*X380354D01*
X377354Y159824D02*X378104Y159074D01*
X377354Y161324D02*Y159824D01*
Y161324D02*X378104Y162074D01*
X379604D01*
X380354Y161324D01*
X377354Y160574D02*X380354D01*
Y161324D02*Y160574D01*
X382155Y157574D02*X383655Y159074D01*
X388907D02*X390407D01*
X389657Y165074D02*Y159074D01*
X388157Y163574D02*X389657Y165074D01*
X392208D02*X395208D01*
X392208D02*Y162074D01*
X392958Y162824D01*
X394458D01*
X395208Y162074D01*
Y159824D01*
X394458Y159074D02*X395208Y159824D01*
X392958Y159074D02*X394458D01*
X392208Y159824D02*X392958Y159074D01*
X397760D02*X399260D01*
X398510Y165074D02*Y159074D01*
X397010Y163574D02*X398510Y165074D01*
X401061D02*X404061D01*
X401061D02*Y162074D01*
X401811Y162824D01*
X403311D01*
X404061Y162074D01*
Y159824D01*
X403311Y159074D02*X404061Y159824D01*
X401811Y159074D02*X403311D01*
X401061Y159824D02*X401811Y159074D01*
X405863D02*X406613D01*
X408414D02*X412164Y162824D01*
Y165074D02*Y162824D01*
X408414Y165074D02*X412164D01*
X413966Y162074D02*X416966Y165074D01*
X413966Y162074D02*X417716D01*
X416966Y165074D02*Y159074D01*
X419517Y159824D02*X420267Y159074D01*
X419517Y164324D02*Y159824D01*
Y164324D02*X420267Y165074D01*
X421767D01*
X422517Y164324D01*
Y159824D01*
X421767Y159074D02*X422517Y159824D01*
X420267Y159074D02*X421767D01*
X419517Y160574D02*X422517Y163574D01*
X424319Y159824D02*X425069Y159074D01*
X424319Y164324D02*Y159824D01*
Y164324D02*X425069Y165074D01*
X426569D01*
X427319Y164324D01*
Y159824D01*
X426569Y159074D02*X427319Y159824D01*
X425069Y159074D02*X426569D01*
X424319Y160574D02*X427319Y163574D01*
X429120Y159824D02*X429870Y159074D01*
X429120Y164324D02*Y159824D01*
Y164324D02*X429870Y165074D01*
X431370D01*
X432120Y164324D01*
Y159824D01*
X431370Y159074D02*X432120Y159824D01*
X429870Y159074D02*X431370D01*
X429120Y160574D02*X432120Y163574D01*
X433922Y159824D02*X434672Y159074D01*
X433922Y164324D02*Y159824D01*
Y164324D02*X434672Y165074D01*
X436172D01*
X436922Y164324D01*
Y159824D01*
X436172Y159074D02*X436922Y159824D01*
X434672Y159074D02*X436172D01*
X433922Y160574D02*X436922Y163574D01*
X442173Y161324D02*Y159074D01*
Y161324D02*X442923Y162074D01*
X443673D01*
X444423Y161324D01*
Y159074D01*
Y161324D02*X445173Y162074D01*
X445923D01*
X446673Y161324D01*
Y159074D01*
X441423Y162074D02*X442173Y161324D01*
X448475Y163574D02*Y162824D01*
Y161324D02*Y159074D01*
X449976Y165074D02*Y159824D01*
X450726Y159074D01*
X452978D02*X455228D01*
X455978Y159824D01*
X455228Y160574D02*X455978Y159824D01*
X452978Y160574D02*X455228D01*
X452228Y161324D02*X452978Y160574D01*
X452228Y161324D02*X452978Y162074D01*
X455228D01*
X455978Y161324D01*
X452228Y159824D02*X452978Y159074D01*
X460479Y165074D02*Y159074D01*
Y161324D02*X461229Y162074D01*
X462729D01*
X463479Y161324D01*
Y159074D01*
X465281Y163574D02*Y162824D01*
Y161324D02*Y159074D01*
X469032Y162074D02*X469782Y161324D01*
X467532Y162074D02*X469032D01*
X466782Y161324D02*X467532Y162074D01*
X466782Y161324D02*Y159824D01*
X467532Y159074D01*
X469032D01*
X469782Y159824D01*
X466782Y157574D02*X467532Y156824D01*
X469032D01*
X469782Y157574D01*
Y162074D02*Y157574D01*
X471584Y165074D02*Y159074D01*
Y161324D02*X472334Y162074D01*
X473834D01*
X474584Y161324D01*
Y159074D01*
X0Y-9500D02*X3000D01*
X3750Y-8750D01*
Y-7250D02*Y-8750D01*
X3000Y-6500D02*X3750Y-7250D01*
X750Y-6500D02*X3000D01*
X750Y-3500D02*Y-9500D01*
X0Y-3500D02*X3000D01*
X3750Y-4250D01*
Y-5750D01*
X3000Y-6500D02*X3750Y-5750D01*
X5551Y-7250D02*Y-8750D01*
Y-7250D02*X6301Y-6500D01*
X7801D01*
X8551Y-7250D01*
Y-8750D01*
X7801Y-9500D02*X8551Y-8750D01*
X6301Y-9500D02*X7801D01*
X5551Y-8750D02*X6301Y-9500D01*
X12603Y-6500D02*X13353Y-7250D01*
X11103Y-6500D02*X12603D01*
X10353Y-7250D02*X11103Y-6500D01*
X10353Y-7250D02*Y-8750D01*
X11103Y-9500D01*
X13353Y-6500D02*Y-8750D01*
X14103Y-9500D01*
X11103D02*X12603D01*
X13353Y-8750D01*
X16654Y-7250D02*Y-9500D01*
Y-7250D02*X17404Y-6500D01*
X18904D01*
X15904D02*X16654Y-7250D01*
X23706Y-3500D02*Y-9500D01*
X22956D02*X23706Y-8750D01*
X21456Y-9500D02*X22956D01*
X20706Y-8750D02*X21456Y-9500D01*
X20706Y-7250D02*Y-8750D01*
Y-7250D02*X21456Y-6500D01*
X22956D01*
X23706Y-7250D01*
X28207D02*Y-8750D01*
Y-7250D02*X28957Y-6500D01*
X30457D01*
X31207Y-7250D01*
Y-8750D01*
X30457Y-9500D02*X31207Y-8750D01*
X28957Y-9500D02*X30457D01*
X28207Y-8750D02*X28957Y-9500D01*
X33009Y-6500D02*Y-8750D01*
X33759Y-9500D01*
X35259D01*
X36009Y-8750D01*
Y-6500D02*Y-8750D01*
X38560Y-3500D02*Y-8750D01*
X39310Y-9500D01*
X37810Y-5750D02*X39310D01*
X40812Y-3500D02*Y-8750D01*
X41562Y-9500D01*
X43063Y-5000D02*Y-5750D01*
Y-7250D02*Y-9500D01*
X45315Y-7250D02*Y-9500D01*
Y-7250D02*X46065Y-6500D01*
X46815D01*
X47565Y-7250D01*
Y-9500D01*
X44565Y-6500D02*X45315Y-7250D01*
X50116Y-9500D02*X52366D01*
X49366Y-8750D02*X50116Y-9500D01*
X49366Y-7250D02*Y-8750D01*
Y-7250D02*X50116Y-6500D01*
X51616D01*
X52366Y-7250D01*
X49366Y-8000D02*X52366D01*
Y-7250D02*Y-8000D01*
X56868Y-5000D02*Y-5750D01*
Y-7250D02*Y-9500D01*
X59119D02*X61369D01*
X62119Y-8750D01*
X61369Y-8000D02*X62119Y-8750D01*
X59119Y-8000D02*X61369D01*
X58369Y-7250D02*X59119Y-8000D01*
X58369Y-7250D02*X59119Y-6500D01*
X61369D01*
X62119Y-7250D01*
X58369Y-8750D02*X59119Y-9500D01*
X67371Y-3500D02*Y-8750D01*
X68121Y-9500D01*
X66621Y-5750D02*X68121D01*
X69622Y-3500D02*Y-9500D01*
Y-7250D02*X70372Y-6500D01*
X71872D01*
X72622Y-7250D01*
Y-9500D01*
X75174D02*X77424D01*
X74424Y-8750D02*X75174Y-9500D01*
X74424Y-7250D02*Y-8750D01*
Y-7250D02*X75174Y-6500D01*
X76674D01*
X77424Y-7250D01*
X74424Y-8000D02*X77424D01*
Y-7250D02*Y-8000D01*
X82675Y-6500D02*X84925D01*
X81925Y-7250D02*X82675Y-6500D01*
X81925Y-7250D02*Y-8750D01*
X82675Y-9500D01*
X84925D01*
X87477D02*X89727D01*
X86727Y-8750D02*X87477Y-9500D01*
X86727Y-7250D02*Y-8750D01*
Y-7250D02*X87477Y-6500D01*
X88977D01*
X89727Y-7250D01*
X86727Y-8000D02*X89727D01*
Y-7250D02*Y-8000D01*
X92278Y-7250D02*Y-9500D01*
Y-7250D02*X93028Y-6500D01*
X93778D01*
X94528Y-7250D01*
Y-9500D01*
X91528Y-6500D02*X92278Y-7250D01*
X97080Y-3500D02*Y-8750D01*
X97830Y-9500D01*
X96330Y-5750D02*X97830D01*
X100081Y-9500D02*X102331D01*
X99331Y-8750D02*X100081Y-9500D01*
X99331Y-7250D02*Y-8750D01*
Y-7250D02*X100081Y-6500D01*
X101581D01*
X102331Y-7250D01*
X99331Y-8000D02*X102331D01*
Y-7250D02*Y-8000D01*
X104883Y-7250D02*Y-9500D01*
Y-7250D02*X105633Y-6500D01*
X107133D01*
X104133D02*X104883Y-7250D01*
X108934Y-3500D02*Y-8750D01*
X109684Y-9500D01*
X111186Y-5000D02*Y-5750D01*
Y-7250D02*Y-9500D01*
X113437Y-7250D02*Y-9500D01*
Y-7250D02*X114187Y-6500D01*
X114937D01*
X115687Y-7250D01*
Y-9500D01*
X112687Y-6500D02*X113437Y-7250D01*
X118239Y-9500D02*X120489D01*
X117489Y-8750D02*X118239Y-9500D01*
X117489Y-7250D02*Y-8750D01*
Y-7250D02*X118239Y-6500D01*
X119739D01*
X120489Y-7250D01*
X117489Y-8000D02*X120489D01*
Y-7250D02*Y-8000D01*
X124990Y-7250D02*Y-8750D01*
Y-7250D02*X125740Y-6500D01*
X127240D01*
X127990Y-7250D01*
Y-8750D01*
X127240Y-9500D02*X127990Y-8750D01*
X125740Y-9500D02*X127240D01*
X124990Y-8750D02*X125740Y-9500D01*
X130542Y-4250D02*Y-9500D01*
Y-4250D02*X131292Y-3500D01*
X132042D01*
X129792Y-6500D02*X131292D01*
X136993Y-3500D02*Y-8750D01*
X137743Y-9500D01*
X136243Y-5750D02*X137743D01*
X139245Y-3500D02*Y-9500D01*
Y-7250D02*X139995Y-6500D01*
X141495D01*
X142245Y-7250D01*
Y-9500D01*
X144046Y-5000D02*Y-5750D01*
Y-7250D02*Y-9500D01*
X146298D02*X148548D01*
X149298Y-8750D01*
X148548Y-8000D02*X149298Y-8750D01*
X146298Y-8000D02*X148548D01*
X145548Y-7250D02*X146298Y-8000D01*
X145548Y-7250D02*X146298Y-6500D01*
X148548D01*
X149298Y-7250D01*
X145548Y-8750D02*X146298Y-9500D01*
X153799Y-8750D02*X154549Y-9500D01*
X153799Y-7250D02*Y-8750D01*
Y-7250D02*X154549Y-6500D01*
X156049D01*
X156799Y-7250D01*
Y-8750D01*
X156049Y-9500D02*X156799Y-8750D01*
X154549Y-9500D02*X156049D01*
X153799Y-5750D02*X154549Y-6500D01*
X153799Y-4250D02*Y-5750D01*
Y-4250D02*X154549Y-3500D01*
X156049D01*
X156799Y-4250D01*
Y-5750D01*
X156049Y-6500D02*X156799Y-5750D01*
X158601Y-9500D02*X159351D01*
X161152Y-8750D02*X161902Y-9500D01*
X161152Y-4250D02*Y-8750D01*
Y-4250D02*X161902Y-3500D01*
X163402D01*
X164152Y-4250D01*
Y-8750D01*
X163402Y-9500D02*X164152Y-8750D01*
X161902Y-9500D02*X163402D01*
X161152Y-8000D02*X164152Y-5000D01*
X165954Y-8750D02*X166704Y-9500D01*
X165954Y-4250D02*Y-8750D01*
Y-4250D02*X166704Y-3500D01*
X168204D01*
X168954Y-4250D01*
Y-8750D01*
X168204Y-9500D02*X168954Y-8750D01*
X166704Y-9500D02*X168204D01*
X165954Y-8000D02*X168954Y-5000D01*
X170755Y-8750D02*X171505Y-9500D01*
X170755Y-4250D02*Y-8750D01*
Y-4250D02*X171505Y-3500D01*
X173005D01*
X173755Y-4250D01*
Y-8750D01*
X173005Y-9500D02*X173755Y-8750D01*
X171505Y-9500D02*X173005D01*
X170755Y-8000D02*X173755Y-5000D01*
X175557Y-8750D02*X176307Y-9500D01*
X175557Y-4250D02*Y-8750D01*
Y-4250D02*X176307Y-3500D01*
X177807D01*
X178557Y-4250D01*
Y-8750D01*
X177807Y-9500D02*X178557Y-8750D01*
X176307Y-9500D02*X177807D01*
X175557Y-8000D02*X178557Y-5000D01*
X180358Y-8750D02*X181108Y-9500D01*
X180358Y-4250D02*Y-8750D01*
Y-4250D02*X181108Y-3500D01*
X182608D01*
X183358Y-4250D01*
Y-8750D01*
X182608Y-9500D02*X183358Y-8750D01*
X181108Y-9500D02*X182608D01*
X180358Y-8000D02*X183358Y-5000D01*
X185160Y-8750D02*X185910Y-9500D01*
X185160Y-4250D02*Y-8750D01*
Y-4250D02*X185910Y-3500D01*
X187410D01*
X188160Y-4250D01*
Y-8750D01*
X187410Y-9500D02*X188160Y-8750D01*
X185910Y-9500D02*X187410D01*
X185160Y-8000D02*X188160Y-5000D01*
X193411Y-7250D02*Y-9500D01*
Y-7250D02*X194161Y-6500D01*
X194911D01*
X195661Y-7250D01*
Y-9500D01*
Y-7250D02*X196411Y-6500D01*
X197161D01*
X197911Y-7250D01*
Y-9500D01*
X192661Y-6500D02*X193411Y-7250D01*
X199713Y-5000D02*Y-5750D01*
Y-7250D02*Y-9500D01*
X201214Y-3500D02*Y-8750D01*
X201964Y-9500D01*
X206916Y-7250D02*Y-9500D01*
Y-7250D02*X207666Y-6500D01*
X209166D01*
X206166D02*X206916Y-7250D01*
X211717Y-9500D02*X213967D01*
X210967Y-8750D02*X211717Y-9500D01*
X210967Y-7250D02*Y-8750D01*
Y-7250D02*X211717Y-6500D01*
X213217D01*
X213967Y-7250D01*
X210967Y-8000D02*X213967D01*
Y-7250D02*Y-8000D01*
X216519Y-6500D02*X218769D01*
X215769Y-7250D02*X216519Y-6500D01*
X215769Y-7250D02*Y-8750D01*
X216519Y-9500D01*
X218769D01*
X221320Y-3500D02*Y-8750D01*
X222070Y-9500D01*
X220570Y-5750D02*X222070D01*
X225822Y-6500D02*X226572Y-7250D01*
X224322Y-6500D02*X225822D01*
X223572Y-7250D02*X224322Y-6500D01*
X223572Y-7250D02*Y-8750D01*
X224322Y-9500D01*
X226572Y-6500D02*Y-8750D01*
X227322Y-9500D01*
X224322D02*X225822D01*
X226572Y-8750D01*
X229873Y-7250D02*Y-9500D01*
Y-7250D02*X230623Y-6500D01*
X231373D01*
X232123Y-7250D01*
Y-9500D01*
X229123Y-6500D02*X229873Y-7250D01*
X236175Y-6500D02*X236925Y-7250D01*
X234675Y-6500D02*X236175D01*
X233925Y-7250D02*X234675Y-6500D01*
X233925Y-7250D02*Y-8750D01*
X234675Y-9500D01*
X236175D01*
X236925Y-8750D01*
X233925Y-11000D02*X234675Y-11750D01*
X236175D01*
X236925Y-11000D01*
Y-6500D02*Y-11000D01*
X238726Y-3500D02*Y-8750D01*
X239476Y-9500D01*
X241728D02*X243978D01*
X240978Y-8750D02*X241728Y-9500D01*
X240978Y-7250D02*Y-8750D01*
Y-7250D02*X241728Y-6500D01*
X243228D01*
X243978Y-7250D01*
X240978Y-8000D02*X243978D01*
Y-7250D02*Y-8000D01*
X248479Y-6500D02*X251479D01*
X255981Y-8750D02*X256731Y-9500D01*
X255981Y-4250D02*Y-8750D01*
Y-4250D02*X256731Y-3500D01*
X258231D01*
X258981Y-4250D01*
Y-8750D01*
X258231Y-9500D02*X258981Y-8750D01*
X256731Y-9500D02*X258231D01*
X255981Y-8000D02*X258981Y-5000D01*
X260782Y-11000D02*X262282Y-9500D01*
X264084Y-8750D02*X264834Y-9500D01*
X264084Y-4250D02*Y-8750D01*
Y-4250D02*X264834Y-3500D01*
X266334D01*
X267084Y-4250D01*
Y-8750D01*
X266334Y-9500D02*X267084Y-8750D01*
X264834Y-9500D02*X266334D01*
X264084Y-8000D02*X267084Y-5000D01*
X272335Y-3500D02*Y-8750D01*
X273085Y-9500D01*
X271585Y-5750D02*X273085D01*
X274587Y-7250D02*Y-8750D01*
Y-7250D02*X275337Y-6500D01*
X276837D01*
X277587Y-7250D01*
Y-8750D01*
X276837Y-9500D02*X277587Y-8750D01*
X275337Y-9500D02*X276837D01*
X274587Y-8750D02*X275337Y-9500D01*
X282088Y-4250D02*X282838Y-3500D01*
X285088D01*
X285838Y-4250D01*
Y-5750D01*
X282088Y-9500D02*X285838Y-5750D01*
X282088Y-9500D02*X285838D01*
X287640Y-8750D02*X288390Y-9500D01*
X287640Y-4250D02*Y-8750D01*
Y-4250D02*X288390Y-3500D01*
X289890D01*
X290640Y-4250D01*
Y-8750D01*
X289890Y-9500D02*X290640Y-8750D01*
X288390Y-9500D02*X289890D01*
X287640Y-8000D02*X290640Y-5000D01*
X294691Y-3500D02*X295441Y-4250D01*
X293191Y-3500D02*X294691D01*
X292441Y-4250D02*X293191Y-3500D01*
X292441Y-4250D02*Y-8750D01*
X293191Y-9500D01*
X294691Y-6500D02*X295441Y-7250D01*
X292441Y-6500D02*X294691D01*
X293191Y-9500D02*X294691D01*
X295441Y-8750D01*
Y-7250D02*Y-8750D01*
X297243Y-4250D02*X297993Y-3500D01*
X300243D01*
X300993Y-4250D01*
Y-5750D01*
X297243Y-9500D02*X300993Y-5750D01*
X297243Y-9500D02*X300993D01*
X302794D02*X303544D01*
X305346D02*X308346Y-6500D01*
Y-4250D02*Y-6500D01*
X307596Y-3500D02*X308346Y-4250D01*
X306096Y-3500D02*X307596D01*
X305346Y-4250D02*X306096Y-3500D01*
X305346Y-4250D02*Y-5750D01*
X306096Y-6500D01*
X308346D01*
X310147Y-9500D02*X313147Y-6500D01*
Y-4250D02*Y-6500D01*
X312397Y-3500D02*X313147Y-4250D01*
X310897Y-3500D02*X312397D01*
X310147Y-4250D02*X310897Y-3500D01*
X310147Y-4250D02*Y-5750D01*
X310897Y-6500D01*
X313147D01*
X314949Y-8750D02*X315699Y-9500D01*
X314949Y-4250D02*Y-8750D01*
Y-4250D02*X315699Y-3500D01*
X317199D01*
X317949Y-4250D01*
Y-8750D01*
X317199Y-9500D02*X317949Y-8750D01*
X315699Y-9500D02*X317199D01*
X314949Y-8000D02*X317949Y-5000D01*
X319750Y-8750D02*X320500Y-9500D01*
X319750Y-4250D02*Y-8750D01*
Y-4250D02*X320500Y-3500D01*
X322000D01*
X322750Y-4250D01*
Y-8750D01*
X322000Y-9500D02*X322750Y-8750D01*
X320500Y-9500D02*X322000D01*
X319750Y-8000D02*X322750Y-5000D01*
X324552Y-8750D02*X325302Y-9500D01*
X324552Y-4250D02*Y-8750D01*
Y-4250D02*X325302Y-3500D01*
X326802D01*
X327552Y-4250D01*
Y-8750D01*
X326802Y-9500D02*X327552Y-8750D01*
X325302Y-9500D02*X326802D01*
X324552Y-8000D02*X327552Y-5000D01*
X329353Y-8750D02*X330103Y-9500D01*
X329353Y-4250D02*Y-8750D01*
Y-4250D02*X330103Y-3500D01*
X331603D01*
X332353Y-4250D01*
Y-8750D01*
X331603Y-9500D02*X332353Y-8750D01*
X330103Y-9500D02*X331603D01*
X329353Y-8000D02*X332353Y-5000D01*
X334155Y-11000D02*X335655Y-9500D01*
X338206D02*X339706D01*
X338956Y-3500D02*Y-9500D01*
X337456Y-5000D02*X338956Y-3500D01*
X341508D02*X344508D01*
X341508D02*Y-6500D01*
X342258Y-5750D01*
X343758D01*
X344508Y-6500D01*
Y-8750D01*
X343758Y-9500D02*X344508Y-8750D01*
X342258Y-9500D02*X343758D01*
X341508Y-8750D02*X342258Y-9500D01*
X347059D02*X348559D01*
X347809Y-3500D02*Y-9500D01*
X346309Y-5000D02*X347809Y-3500D01*
X350361D02*X353361D01*
X350361D02*Y-6500D01*
X351111Y-5750D01*
X352611D01*
X353361Y-6500D01*
Y-8750D01*
X352611Y-9500D02*X353361Y-8750D01*
X351111Y-9500D02*X352611D01*
X350361Y-8750D02*X351111Y-9500D01*
X355162D02*X355912D01*
X357714D02*X361464Y-5750D01*
Y-3500D02*Y-5750D01*
X357714Y-3500D02*X361464D01*
X363265Y-6500D02*X366265Y-3500D01*
X363265Y-6500D02*X367015D01*
X366265Y-3500D02*Y-9500D01*
X368817Y-8750D02*X369567Y-9500D01*
X368817Y-4250D02*Y-8750D01*
Y-4250D02*X369567Y-3500D01*
X371067D01*
X371817Y-4250D01*
Y-8750D01*
X371067Y-9500D02*X371817Y-8750D01*
X369567Y-9500D02*X371067D01*
X368817Y-8000D02*X371817Y-5000D01*
X373618Y-8750D02*X374368Y-9500D01*
X373618Y-4250D02*Y-8750D01*
Y-4250D02*X374368Y-3500D01*
X375868D01*
X376618Y-4250D01*
Y-8750D01*
X375868Y-9500D02*X376618Y-8750D01*
X374368Y-9500D02*X375868D01*
X373618Y-8000D02*X376618Y-5000D01*
X378420Y-8750D02*X379170Y-9500D01*
X378420Y-4250D02*Y-8750D01*
Y-4250D02*X379170Y-3500D01*
X380670D01*
X381420Y-4250D01*
Y-8750D01*
X380670Y-9500D02*X381420Y-8750D01*
X379170Y-9500D02*X380670D01*
X378420Y-8000D02*X381420Y-5000D01*
X383221Y-8750D02*X383971Y-9500D01*
X383221Y-4250D02*Y-8750D01*
Y-4250D02*X383971Y-3500D01*
X385471D01*
X386221Y-4250D01*
Y-8750D01*
X385471Y-9500D02*X386221Y-8750D01*
X383971Y-9500D02*X385471D01*
X383221Y-8000D02*X386221Y-5000D01*
X391473Y-7250D02*Y-9500D01*
Y-7250D02*X392223Y-6500D01*
X392973D01*
X393723Y-7250D01*
Y-9500D01*
Y-7250D02*X394473Y-6500D01*
X395223D01*
X395973Y-7250D01*
Y-9500D01*
X390723Y-6500D02*X391473Y-7250D01*
X397774Y-5000D02*Y-5750D01*
Y-7250D02*Y-9500D01*
X399276Y-3500D02*Y-8750D01*
X400026Y-9500D01*
X402277D02*X404527D01*
X405277Y-8750D01*
X404527Y-8000D02*X405277Y-8750D01*
X402277Y-8000D02*X404527D01*
X401527Y-7250D02*X402277Y-8000D01*
X401527Y-7250D02*X402277Y-6500D01*
X404527D01*
X405277Y-7250D01*
X401527Y-8750D02*X402277Y-9500D01*
X200750Y180074D02*Y174074D01*
X203000Y180074D02*X203750Y179324D01*
Y174824D01*
X203000Y174074D02*X203750Y174824D01*
X200000Y174074D02*X203000D01*
X200000Y180074D02*X203000D01*
X207801Y177074D02*X208551Y176324D01*
X206301Y177074D02*X207801D01*
X205551Y176324D02*X206301Y177074D01*
X205551Y176324D02*Y174824D01*
X206301Y174074D01*
X208551Y177074D02*Y174824D01*
X209301Y174074D01*
X206301D02*X207801D01*
X208551Y174824D01*
X211853Y180074D02*Y174824D01*
X212603Y174074D01*
X211103Y177824D02*X212603D01*
X214854Y174074D02*X217104D01*
X214104Y174824D02*X214854Y174074D01*
X214104Y176324D02*Y174824D01*
Y176324D02*X214854Y177074D01*
X216354D01*
X217104Y176324D01*
X214104Y175574D02*X217104D01*
Y176324D02*Y175574D01*
X218906Y177824D02*X219656D01*
X218906Y176324D02*X219656D01*
X224157Y180074D02*Y174074D01*
Y180074D02*X226407Y177824D01*
X228657Y180074D01*
Y174074D01*
X230459Y176324D02*Y174824D01*
Y176324D02*X231209Y177074D01*
X232709D01*
X233459Y176324D01*
Y174824D01*
X232709Y174074D02*X233459Y174824D01*
X231209Y174074D02*X232709D01*
X230459Y174824D02*X231209Y174074D01*
X236010Y176324D02*Y174074D01*
Y176324D02*X236760Y177074D01*
X237510D01*
X238260Y176324D01*
Y174074D01*
X235260Y177074D02*X236010Y176324D01*
X242762Y179324D02*X243512Y180074D01*
X245012D01*
X245762Y179324D01*
Y174824D01*
X245012Y174074D02*X245762Y174824D01*
X243512Y174074D02*X245012D01*
X242762Y174824D02*X243512Y174074D01*
Y177074D02*X245762D01*
X247563Y174824D02*X248313Y174074D01*
X247563Y179324D02*Y174824D01*
Y179324D02*X248313Y180074D01*
X249813D01*
X250563Y179324D01*
Y174824D01*
X249813Y174074D02*X250563Y174824D01*
X248313Y174074D02*X249813D01*
X247563Y175574D02*X250563Y178574D01*
X255065Y180074D02*Y174074D01*
Y180074D02*X257315Y177824D01*
X259565Y180074D01*
Y174074D01*
X263616Y177074D02*X264366Y176324D01*
X262116Y177074D02*X263616D01*
X261366Y176324D02*X262116Y177074D01*
X261366Y176324D02*Y174824D01*
X262116Y174074D01*
X264366Y177074D02*Y174824D01*
X265116Y174074D01*
X262116D02*X263616D01*
X264366Y174824D01*
X266918Y177074D02*Y174824D01*
X267668Y174074D01*
X269918Y177074D02*Y172574D01*
X269168Y171824D02*X269918Y172574D01*
X267668Y171824D02*X269168D01*
X266918Y172574D02*X267668Y171824D01*
Y174074D02*X269168D01*
X269918Y174824D01*
X274419Y179324D02*X275169Y180074D01*
X277419D01*
X278169Y179324D01*
Y177824D01*
X274419Y174074D02*X278169Y177824D01*
X274419Y174074D02*X278169D01*
X279971Y174824D02*X280721Y174074D01*
X279971Y179324D02*Y174824D01*
Y179324D02*X280721Y180074D01*
X282221D01*
X282971Y179324D01*
Y174824D01*
X282221Y174074D02*X282971Y174824D01*
X280721Y174074D02*X282221D01*
X279971Y175574D02*X282971Y178574D01*
X285522Y174074D02*X287022D01*
X286272Y180074D02*Y174074D01*
X284772Y178574D02*X286272Y180074D01*
X289574Y174074D02*X291074D01*
X290324Y180074D02*Y174074D01*
X288824Y178574D02*X290324Y180074D01*
X296325Y174074D02*X297825D01*
X297075Y180074D02*Y174074D01*
X295575Y178574D02*X297075Y180074D01*
X299627Y174824D02*X300377Y174074D01*
X299627Y176324D02*Y174824D01*
Y176324D02*X300377Y177074D01*
X301877D01*
X302627Y176324D01*
Y174824D01*
X301877Y174074D02*X302627Y174824D01*
X300377Y174074D02*X301877D01*
X299627Y177824D02*X300377Y177074D01*
X299627Y179324D02*Y177824D01*
Y179324D02*X300377Y180074D01*
X301877D01*
X302627Y179324D01*
Y177824D01*
X301877Y177074D02*X302627Y177824D01*
X304428D02*X305178D01*
X304428Y176324D02*X305178D01*
X306980Y174824D02*X307730Y174074D01*
X306980Y179324D02*Y174824D01*
Y179324D02*X307730Y180074D01*
X309230D01*
X309980Y179324D01*
Y174824D01*
X309230Y174074D02*X309980Y174824D01*
X307730Y174074D02*X309230D01*
X306980Y175574D02*X309980Y178574D01*
X312531Y174074D02*X314031D01*
X313281Y180074D02*Y174074D01*
X311781Y178574D02*X313281Y180074D01*
X315833Y177824D02*X316583D01*
X315833Y176324D02*X316583D01*
X318384Y180074D02*X321384D01*
X318384D02*Y177074D01*
X319134Y177824D01*
X320634D01*
X321384Y177074D01*
Y174824D01*
X320634Y174074D02*X321384Y174824D01*
X319134Y174074D02*X320634D01*
X318384Y174824D02*X319134Y174074D01*
X323186D02*X326186Y177074D01*
Y179324D02*Y177074D01*
X325436Y180074D02*X326186Y179324D01*
X323936Y180074D02*X325436D01*
X323186Y179324D02*X323936Y180074D01*
X323186Y179324D02*Y177824D01*
X323936Y177074D01*
X326186D01*
X333687Y180074D02*X334437Y179324D01*
X331437Y180074D02*X333687D01*
X330687Y179324D02*X331437Y180074D01*
X330687Y179324D02*Y174824D01*
X331437Y174074D01*
X333687D01*
X334437Y174824D01*
Y176324D02*Y174824D01*
X333687Y177074D02*X334437Y176324D01*
X332187Y177074D02*X333687D01*
X336239Y180074D02*Y174074D01*
Y180074D02*X338489Y177824D01*
X340739Y180074D01*
Y174074D01*
X342540Y180074D02*X345540D01*
X344040D02*Y174074D01*
X350042Y180074D02*Y174824D01*
X350792Y174074D01*
X352292D01*
X353042Y174824D01*
Y180074D02*Y174824D01*
X354843Y180074D02*X357843D01*
X356343D02*Y174074D01*
X360395D02*X362645D01*
X359645Y174824D02*X360395Y174074D01*
X359645Y179324D02*Y174824D01*
Y179324D02*X360395Y180074D01*
X362645D01*
X200000Y194324D02*Y189074D01*
Y194324D02*X200750Y195074D01*
X203000D01*
X203750Y194324D01*
Y189074D01*
X200000Y192074D02*X203750D01*
X205551D02*Y189824D01*
X206301Y189074D01*
X207801D01*
X208551Y189824D01*
Y192074D02*Y189824D01*
X211103Y195074D02*Y189824D01*
X211853Y189074D01*
X210353Y192824D02*X211853D01*
X213354Y195074D02*Y189074D01*
Y191324D02*X214104Y192074D01*
X215604D01*
X216354Y191324D01*
Y189074D01*
X218156Y191324D02*Y189824D01*
Y191324D02*X218906Y192074D01*
X220406D01*
X221156Y191324D01*
Y189824D01*
X220406Y189074D02*X221156Y189824D01*
X218906Y189074D02*X220406D01*
X218156Y189824D02*X218906Y189074D01*
X223707Y191324D02*Y189074D01*
Y191324D02*X224457Y192074D01*
X225957D01*
X222957D02*X223707Y191324D01*
X227759Y192824D02*X228509D01*
X227759Y191324D02*X228509D01*
X233010Y195074D02*X236010D01*
X234510D02*Y189074D01*
X237812Y195074D02*Y189074D01*
Y191324D02*X238562Y192074D01*
X240062D01*
X240812Y191324D01*
Y189074D01*
X242613Y191324D02*Y189824D01*
Y191324D02*X243363Y192074D01*
X244863D01*
X245613Y191324D01*
Y189824D01*
X244863Y189074D02*X245613Y189824D01*
X243363Y189074D02*X244863D01*
X242613Y189824D02*X243363Y189074D01*
X248165Y191324D02*Y189074D01*
Y191324D02*X248915Y192074D01*
X249665D01*
X250415Y191324D01*
Y189074D01*
Y191324D02*X251165Y192074D01*
X251915D01*
X252665Y191324D01*
Y189074D01*
X247415Y192074D02*X248165Y191324D01*
X256716Y192074D02*X257466Y191324D01*
X255216Y192074D02*X256716D01*
X254466Y191324D02*X255216Y192074D01*
X254466Y191324D02*Y189824D01*
X255216Y189074D01*
X257466Y192074D02*Y189824D01*
X258216Y189074D01*
X255216D02*X256716D01*
X257466Y189824D01*
X260768Y189074D02*X263018D01*
X263768Y189824D01*
X263018Y190574D02*X263768Y189824D01*
X260768Y190574D02*X263018D01*
X260018Y191324D02*X260768Y190574D01*
X260018Y191324D02*X260768Y192074D01*
X263018D01*
X263768Y191324D01*
X260018Y189824D02*X260768Y189074D01*
X200000Y210074D02*X203000D01*
X201500D02*Y204074D01*
X204801Y208574D02*Y207824D01*
Y206324D02*Y204074D01*
X207053Y210074D02*Y204824D01*
X207803Y204074D01*
X206303Y207824D02*X207803D01*
X209304Y210074D02*Y204824D01*
X210054Y204074D01*
X212306D02*X214556D01*
X211556Y204824D02*X212306Y204074D01*
X211556Y206324D02*Y204824D01*
Y206324D02*X212306Y207074D01*
X213806D01*
X214556Y206324D01*
X211556Y205574D02*X214556D01*
Y206324D02*Y205574D01*
X216357Y207824D02*X217107D01*
X216357Y206324D02*X217107D01*
X221609Y204824D02*X222359Y204074D01*
X221609Y209324D02*X222359Y210074D01*
X221609Y209324D02*Y204824D01*
X224160Y207074D02*Y204824D01*
X224910Y204074D01*
X226410D01*
X227160Y204824D01*
Y207074D02*Y204824D01*
X229712Y206324D02*Y204074D01*
Y206324D02*X230462Y207074D01*
X231212D01*
X231962Y206324D01*
Y204074D01*
X228962Y207074D02*X229712Y206324D01*
X233763Y210074D02*Y204074D01*
Y206324D02*X236013Y204074D01*
X233763Y206324D02*X235263Y207824D01*
X238565Y206324D02*Y204074D01*
Y206324D02*X239315Y207074D01*
X240065D01*
X240815Y206324D01*
Y204074D01*
X237815Y207074D02*X238565Y206324D01*
X242616D02*Y204824D01*
Y206324D02*X243366Y207074D01*
X244866D01*
X245616Y206324D01*
Y204824D01*
X244866Y204074D02*X245616Y204824D01*
X243366Y204074D02*X244866D01*
X242616Y204824D02*X243366Y204074D01*
X247418Y207074D02*Y204824D01*
X248168Y204074D01*
X248918D01*
X249668Y204824D01*
Y207074D02*Y204824D01*
X250418Y204074D01*
X251168D01*
X251918Y204824D01*
Y207074D02*Y204824D01*
X254469Y206324D02*Y204074D01*
Y206324D02*X255219Y207074D01*
X255969D01*
X256719Y206324D01*
Y204074D01*
X253719Y207074D02*X254469Y206324D01*
X258521Y210074D02*X259271Y209324D01*
Y204824D01*
X258521Y204074D02*X259271Y204824D01*
X263772Y207074D02*X266772D01*
X271274Y210074D02*Y204074D01*
Y210074D02*X274274D01*
X271274Y207074D02*X273524D01*
X278325D02*X279075Y206324D01*
X276825Y207074D02*X278325D01*
X276075Y206324D02*X276825Y207074D01*
X276075Y206324D02*Y204824D01*
X276825Y204074D01*
X279075Y207074D02*Y204824D01*
X279825Y204074D01*
X276825D02*X278325D01*
X279075Y204824D01*
X281627Y210074D02*Y204074D01*
Y204824D02*X282377Y204074D01*
X283877D01*
X284627Y204824D01*
Y206324D02*Y204824D01*
X283877Y207074D02*X284627Y206324D01*
X282377Y207074D02*X283877D01*
X281627Y206324D02*X282377Y207074D01*
X287178Y206324D02*Y204074D01*
Y206324D02*X287928Y207074D01*
X289428D01*
X286428D02*X287178Y206324D01*
X291230Y208574D02*Y207824D01*
Y206324D02*Y204074D01*
X293481Y207074D02*X295731D01*
X292731Y206324D02*X293481Y207074D01*
X292731Y206324D02*Y204824D01*
X293481Y204074D01*
X295731D01*
X299783Y207074D02*X300533Y206324D01*
X298283Y207074D02*X299783D01*
X297533Y206324D02*X298283Y207074D01*
X297533Y206324D02*Y204824D01*
X298283Y204074D01*
X300533Y207074D02*Y204824D01*
X301283Y204074D01*
X298283D02*X299783D01*
X300533Y204824D01*
X303834Y210074D02*Y204824D01*
X304584Y204074D01*
X303084Y207824D02*X304584D01*
X306086Y208574D02*Y207824D01*
Y206324D02*Y204074D01*
X307587Y206324D02*Y204824D01*
Y206324D02*X308337Y207074D01*
X309837D01*
X310587Y206324D01*
Y204824D01*
X309837Y204074D02*X310587Y204824D01*
X308337Y204074D02*X309837D01*
X307587Y204824D02*X308337Y204074D01*
X313139Y206324D02*Y204074D01*
Y206324D02*X313889Y207074D01*
X314639D01*
X315389Y206324D01*
Y204074D01*
X312389Y207074D02*X313139Y206324D01*
X320640Y210074D02*Y204074D01*
X322890Y210074D02*X323640Y209324D01*
Y204824D01*
X322890Y204074D02*X323640Y204824D01*
X319890Y204074D02*X322890D01*
X319890Y210074D02*X322890D01*
X326192Y206324D02*Y204074D01*
Y206324D02*X326942Y207074D01*
X328442D01*
X325442D02*X326192Y206324D01*
X332493Y207074D02*X333243Y206324D01*
X330993Y207074D02*X332493D01*
X330243Y206324D02*X330993Y207074D01*
X330243Y206324D02*Y204824D01*
X330993Y204074D01*
X333243Y207074D02*Y204824D01*
X333993Y204074D01*
X330993D02*X332493D01*
X333243Y204824D01*
X335795Y207074D02*Y204824D01*
X336545Y204074D01*
X337295D01*
X338045Y204824D01*
Y207074D02*Y204824D01*
X338795Y204074D01*
X339545D01*
X340295Y204824D01*
Y207074D02*Y204824D01*
X342096Y208574D02*Y207824D01*
Y206324D02*Y204074D01*
X344348Y206324D02*Y204074D01*
Y206324D02*X345098Y207074D01*
X345848D01*
X346598Y206324D01*
Y204074D01*
X343598Y207074D02*X344348Y206324D01*
X350649Y207074D02*X351399Y206324D01*
X349149Y207074D02*X350649D01*
X348399Y206324D02*X349149Y207074D01*
X348399Y206324D02*Y204824D01*
X349149Y204074D01*
X350649D01*
X351399Y204824D01*
X348399Y202574D02*X349149Y201824D01*
X350649D01*
X351399Y202574D01*
Y207074D02*Y202574D01*
M02*
