G04 start of page 8 for group -4078 idx -4078 *
G04 Title: (unknown), bottomsilk *
G04 Creator: pcb 1.99z *
G04 CreationDate: Mon 30 May 2011 18:01:59 GMT UTC *
G04 For: thomas *
G04 Format: Gerber/RS-274X *
G04 PCB-Dimensions: 206299 151574 *
G04 PCB-Coordinate-Origin: lower left *
%MOIN*%
%FSLAX25Y25*%
%LNBOTTOMSILK*%
%ADD20C,0.0060*%
%ADD21C,0.0085*%
%ADD69C,0.0059*%
G54D20*X21000Y112774D02*X24000Y107574D01*
X27000Y112774D02*X24000Y107574D01*
Y109374D02*Y110774D01*
Y111774D02*Y111974D01*
X21000Y112774D02*X27000D01*
X53400Y56574D02*X56400Y51374D01*
Y53174D02*Y54574D01*
Y55574D02*Y55774D01*
X59400Y56574D02*X56400Y51374D01*
X53400Y56574D02*X59400D01*
X183200Y83774D02*X186200Y78574D01*
X189200Y83774D02*X186200Y78574D01*
Y80374D02*Y81774D01*
Y82774D02*Y82974D01*
X183200Y83774D02*X189200D01*
X190945Y120472D02*X200394D01*
X190945Y119291D02*X200394D01*
X190850Y118110D02*X200299D01*
X190850Y116929D02*X200299D01*
X190850Y115748D02*X200299D01*
X190850Y114567D02*X200299D01*
G54D21*X187402Y59054D02*X190748D01*
X191929Y57873D01*
X191339D01*
Y57874D01*
X191929Y58464D01*
Y57873D01*
G54D20*X190945Y17125D02*X192322D01*
X193110Y17913D01*
X192520D01*
Y17912D01*
X193110Y17322D01*
Y17519D01*
Y17322D02*Y17913D01*
G54D69*X179149Y38384D02*X183149D01*
Y36384D02*Y38384D01*
X181149Y33683D02*Y35183D01*
X183149Y33183D02*Y35183D01*
X179149D02*X183149D01*
X179149Y33183D02*Y35183D01*
Y31482D02*X183149D01*
X179149Y29982D02*X179649Y29482D01*
X182649D01*
X183149Y29982D02*X182649Y29482D01*
X183149Y29982D02*Y31982D01*
X179149Y29982D02*Y31982D01*
X179649Y26481D02*X182649D01*
X179649D02*X179149Y25981D01*
Y24981D02*Y25981D01*
Y24981D02*X179649Y24481D01*
X182649D01*
X183149Y24981D02*X182649Y24481D01*
X183149Y24981D02*Y25981D01*
X182649Y26481D02*X183149Y25981D01*
X179149Y23280D02*X182649D01*
X183149Y22780D01*
Y21780D02*Y22780D01*
Y21780D02*X182649Y21280D01*
X179149D02*X182649D01*
X179149Y18079D02*Y20079D01*
Y19079D02*X183149D01*
X184449Y22611D02*X184834Y22226D01*
X185604D01*
X185989Y22611D01*
Y24921D01*
X185604Y25306D02*X185989Y24921D01*
X184834Y25306D02*X185604D01*
X184449Y24921D02*X184834Y25306D01*
Y23766D02*X185989D01*
X186913Y22226D02*Y24536D01*
X187683Y25306D01*
X188453Y24536D01*
Y22226D02*Y24536D01*
X189378Y22611D02*X189763Y22226D01*
X190533D01*
X190918Y22611D01*
Y24921D01*
X190533Y25306D02*X190918Y24921D01*
X189763Y25306D02*X190533D01*
X189378Y24921D02*X189763Y25306D01*
Y23766D02*X190918D01*
X187170Y31674D02*X187555Y32059D01*
X186015Y31674D02*X187170D01*
X185630Y32059D02*X186015Y31674D01*
X185630Y32059D02*Y32829D01*
X186015Y33214D01*
X187170D01*
X187555Y33599D01*
Y34369D01*
X187170Y34754D02*X187555Y34369D01*
X186015Y34754D02*X187170D01*
X185630Y34369D02*X186015Y34754D01*
X188479Y31674D02*Y34754D01*
X189634Y33599D01*
X190789Y34754D01*
Y31674D02*Y34754D01*
X98440Y13694D02*X98900Y14154D01*
X97060Y13694D02*X98440D01*
X96600Y14154D02*X97060Y13694D01*
X96600Y14154D02*Y15074D01*
X97060Y15534D01*
X98440D01*
X98900Y15994D01*
Y16914D01*
X98440Y17374D02*X98900Y16914D01*
X97060Y17374D02*X98440D01*
X96600Y16914D02*X97060Y17374D01*
X100004Y13694D02*Y16914D01*
X100464Y17374D01*
X101384D01*
X101844Y16914D01*
Y13694D02*Y16914D01*
X103409Y13694D02*Y17374D01*
X102949Y13694D02*X104789D01*
X105249Y14154D01*
Y15074D01*
X104789Y15534D02*X105249Y15074D01*
X103409Y15534D02*X104789D01*
X106354D02*X107734D01*
X106354Y17374D02*X108194D01*
X106354Y13694D02*Y17374D01*
Y13694D02*X108194D01*
X109299D02*X111139D01*
X111599Y14154D01*
Y15074D01*
X111139Y15534D02*X111599Y15074D01*
X109759Y15534D02*X111139D01*
X109759Y13694D02*Y17374D01*
Y15534D02*X111599Y17374D01*
X114360Y14154D02*Y16914D01*
Y14154D02*X114820Y13694D01*
X115740D01*
X116200Y14154D01*
Y16914D01*
X115740Y17374D02*X116200Y16914D01*
X114820Y17374D02*X115740D01*
X114360Y16914D02*X114820Y17374D01*
X119145Y13694D02*X119605Y14154D01*
X117765Y13694D02*X119145D01*
X117305Y14154D02*X117765Y13694D01*
X117305Y14154D02*Y15074D01*
X117765Y15534D01*
X119145D01*
X119605Y15994D01*
Y16914D01*
X119145Y17374D02*X119605Y16914D01*
X117765Y17374D02*X119145D01*
X117305Y16914D02*X117765Y17374D01*
X121170Y13694D02*Y17374D01*
X122550Y13694D02*X123010Y14154D01*
Y16914D01*
X122550Y17374D02*X123010Y16914D01*
X120710Y17374D02*X122550D01*
X120710Y13694D02*X122550D01*
X128200Y15994D02*Y16914D01*
Y15994D02*X128660Y15534D01*
X129580D01*
X130040Y15994D01*
Y16914D01*
X129580Y17374D02*X130040Y16914D01*
X128660Y17374D02*X129580D01*
X128200Y16914D02*X128660Y17374D01*
X131604Y15994D02*Y17374D01*
Y15994D02*X132064Y15534D01*
X132524D01*
X132984Y15994D01*
Y17374D01*
X131144Y15534D02*X131604Y15994D01*
X136205Y17374D02*X137585D01*
X138045Y16914D01*
X137585Y16454D02*X138045Y16914D01*
X136205Y16454D02*X137585D01*
X135745Y15994D02*X136205Y16454D01*
X135745Y15994D02*X136205Y15534D01*
X137585D01*
X138045Y15994D01*
X135745Y16914D02*X136205Y17374D01*
X139610Y15534D02*X140990D01*
X139150Y15994D02*X139610Y15534D01*
X139150Y15994D02*Y16914D01*
X139610Y17374D01*
X140990D01*
X142555Y15994D02*Y17374D01*
Y15994D02*X143015Y15534D01*
X143935D01*
X142095D02*X142555Y15994D01*
X145500Y17374D02*X146880D01*
X145040Y16914D02*X145500Y17374D01*
X145040Y15994D02*Y16914D01*
Y15994D02*X145500Y15534D01*
X146420D01*
X146880Y15994D01*
X145040Y16454D02*X146880D01*
Y15994D02*Y16454D01*
X148445Y17374D02*X149825D01*
X147985Y16914D02*X148445Y17374D01*
X147985Y15994D02*Y16914D01*
Y15994D02*X148445Y15534D01*
X149365D01*
X149825Y15994D01*
X147985Y16454D02*X149825D01*
Y15994D02*Y16454D01*
X151390Y15994D02*Y17374D01*
Y15994D02*X151850Y15534D01*
X152310D01*
X152770Y15994D01*
Y17374D01*
X150930Y15534D02*X151390Y15994D01*
X157371Y13694D02*Y17374D01*
X156911D02*X157371Y16914D01*
X155991Y17374D02*X156911D01*
X155531Y16914D02*X155991Y17374D01*
X155531Y15994D02*Y16914D01*
Y15994D02*X155991Y15534D01*
X156911D01*
X157371Y15994D01*
X158476Y14614D02*Y15074D01*
Y15994D02*Y17374D01*
X159857D02*X161237D01*
X161697Y16914D01*
X161237Y16454D02*X161697Y16914D01*
X159857Y16454D02*X161237D01*
X159397Y15994D02*X159857Y16454D01*
X159397Y15994D02*X159857Y15534D01*
X161237D01*
X161697Y15994D01*
X159397Y16914D02*X159857Y17374D01*
X163262Y15994D02*Y18754D01*
X162802Y15534D02*X163262Y15994D01*
X163722Y15534D01*
X164642D01*
X165102Y15994D01*
Y16914D01*
X164642Y17374D02*X165102Y16914D01*
X163722Y17374D02*X164642D01*
X163262Y16914D02*X163722Y17374D01*
X166207Y13694D02*Y16914D01*
X166667Y17374D01*
X168967Y15534D02*X169427Y15994D01*
X168047Y15534D02*X168967D01*
X167587Y15994D02*X168047Y15534D01*
X167587Y15994D02*Y16914D01*
X168047Y17374D01*
X169427Y15534D02*Y16914D01*
X169887Y17374D01*
X168047D02*X168967D01*
X169427Y16914D01*
X170992Y15534D02*Y16914D01*
X171452Y17374D01*
X172832Y15534D02*Y18294D01*
X172372Y18754D02*X172832Y18294D01*
X171452Y18754D02*X172372D01*
X170992Y18294D02*X171452Y18754D01*
Y17374D02*X172372D01*
X172832Y16914D01*
X107600Y25694D02*Y28454D01*
X108520Y29374D01*
X109440Y28454D01*
Y25694D02*Y28454D01*
X110544Y27534D02*X111924D01*
X110544Y29374D02*X112384D01*
X110544Y25694D02*Y29374D01*
Y25694D02*X112384D01*
X113489D02*X115329D01*
X115789Y26154D01*
Y27074D01*
X115329Y27534D02*X115789Y27074D01*
X113949Y27534D02*X115329D01*
X113949Y25694D02*Y29374D01*
Y27534D02*X115789Y29374D01*
X118734Y25694D02*X119194Y26154D01*
X117354Y25694D02*X118734D01*
X116894Y26154D02*X117354Y25694D01*
X116894Y26154D02*Y27074D01*
X117354Y27534D01*
X118734D01*
X119194Y27994D01*
Y28914D01*
X118734Y29374D02*X119194Y28914D01*
X117354Y29374D02*X118734D01*
X116894Y28914D02*X117354Y29374D01*
X120299Y25694D02*X121219D01*
X120759D02*Y29374D01*
X120299D02*X121219D01*
X122324Y26154D02*Y28914D01*
Y26154D02*X122784Y25694D01*
X123704D01*
X124164Y26154D01*
Y28914D01*
X123704Y29374D02*X124164Y28914D01*
X122784Y29374D02*X123704D01*
X122324Y28914D02*X122784Y29374D01*
X125269Y25694D02*Y29374D01*
Y25694D02*Y26154D01*
X127569Y28454D01*
Y25694D02*Y29374D01*
X130330Y26154D02*X130790Y25694D01*
X131710D01*
X132170Y26154D01*
Y28914D01*
X131710Y29374D02*X132170Y28914D01*
X130790Y29374D02*X131710D01*
X130330Y28914D02*X130790Y29374D01*
Y27534D02*X132170D01*
X133275Y29374D02*X133735D01*
X134840Y26154D02*X135300Y25694D01*
X136220D01*
X136680Y26154D01*
Y28914D01*
X136220Y29374D02*X136680Y28914D01*
X135300Y29374D02*X136220D01*
X134840Y28914D02*X135300Y29374D01*
Y27534D02*X136680D01*
X139441D02*X141281D01*
X144042Y25694D02*X145882D01*
X146342Y26154D01*
Y27074D01*
X145882Y27534D02*X146342Y27074D01*
X144502Y27534D02*X145882D01*
X144502Y25694D02*Y29374D01*
Y27534D02*X146342Y29374D01*
X147447Y27534D02*X148827D01*
X147447Y29374D02*X149287D01*
X147447Y25694D02*Y29374D01*
Y25694D02*X149287D01*
X150391D02*Y28454D01*
X151311Y29374D01*
X152231Y28454D01*
Y25694D02*Y28454D01*
X153336Y28914D02*X153796Y29374D01*
X153336Y26154D02*Y28914D01*
Y26154D02*X153796Y25694D01*
X154716D01*
X155176Y26154D01*
Y28914D01*
X154716Y29374D02*X155176Y28914D01*
X153796Y29374D02*X154716D01*
X153336Y28454D02*X155176Y26614D01*
X156281Y28914D02*X156741Y29374D01*
X156281Y26154D02*Y28914D01*
Y26154D02*X156741Y25694D01*
X157661D01*
X158121Y26154D01*
Y28914D01*
X157661Y29374D02*X158121Y28914D01*
X156741Y29374D02*X157661D01*
X156281Y28454D02*X158121Y26614D01*
X159686Y29374D02*X160606D01*
X160146Y25694D02*Y29374D01*
X159226Y26614D02*X160146Y25694D01*
X188171Y54956D02*X188556Y54571D01*
X188171Y54956D02*Y56111D01*
X188556Y56496D02*X188171Y56111D01*
X188556Y56496D02*X190866D01*
X191251Y56111D01*
Y54956D02*Y56111D01*
Y54956D02*X190866Y54571D01*
X190096D02*X190866D01*
X189711Y54956D02*X190096Y54571D01*
X189711Y54956D02*Y55726D01*
X188171Y53647D02*X191251D01*
X188171D02*X188556D01*
X190481Y51722D01*
X188171D02*X191251D01*
X188171Y50412D02*X191251D01*
X188171Y49257D02*X188556Y48872D01*
X190866D01*
X191251Y49257D02*X190866Y48872D01*
X191251Y49257D02*Y50797D01*
X188171Y49257D02*Y50797D01*
X188554Y46456D02*X188169Y46071D01*
Y45301D02*Y46071D01*
Y45301D02*X188554Y44916D01*
X190864D01*
X191249Y45301D02*X190864Y44916D01*
X191249Y45301D02*Y46071D01*
X190864Y46456D02*X191249Y46071D01*
X189709Y44916D02*Y46071D01*
X188169Y43992D02*X190479D01*
X191249Y43222D01*
X190479Y42452D01*
X188169D02*X190479D01*
X188554Y41527D02*X188169Y41142D01*
Y40372D02*Y41142D01*
Y40372D02*X188554Y39987D01*
X190864D01*
X191249Y40372D02*X190864Y39987D01*
X191249Y40372D02*Y41142D01*
X190864Y41527D02*X191249Y41142D01*
X189709Y39987D02*Y41142D01*
X175085Y45031D02*X175585Y44531D01*
X176585D01*
X177085Y45031D01*
Y48031D01*
X176585Y48531D02*X177085Y48031D01*
X175585Y48531D02*X176585D01*
X175085Y48031D02*X175585Y48531D01*
Y46531D02*X177085D01*
X178286Y48531D02*X178786D01*
X179987Y45031D02*X180487Y44531D01*
X181487D01*
X181987Y45031D01*
Y48031D01*
X181487Y48531D02*X181987Y48031D01*
X180487Y48531D02*X181487D01*
X179987Y48031D02*X180487Y48531D01*
Y46531D02*X181987D01*
X183188Y44531D02*Y47531D01*
X184188Y48531D01*
X185188Y47531D01*
Y44531D02*Y47531D01*
X176209Y50494D02*Y53494D01*
Y50494D02*X176709Y49994D01*
X177709D01*
X178209Y50494D01*
Y53494D01*
X177709Y53994D02*X178209Y53494D01*
X176709Y53994D02*X177709D01*
X176209Y53494D02*X176709Y53994D01*
X179410Y49994D02*Y53494D01*
X179910Y53994D01*
X180910D01*
X181410Y53494D01*
Y49994D02*Y53494D01*
X182611Y49994D02*X184611D01*
X183611D02*Y53994D01*
X98146Y39810D02*Y43490D01*
X97686Y39810D02*X99526D01*
X99986Y40270D01*
Y41190D01*
X99526Y41650D02*X99986Y41190D01*
X98146Y41650D02*X99526D01*
X101090Y39810D02*X102010D01*
X101550D02*Y43490D01*
X101090D02*X102010D01*
X103575D02*X104955D01*
X103115Y43030D02*X103575Y43490D01*
X103115Y40270D02*Y43030D01*
Y40270D02*X103575Y39810D01*
X104955D01*
X106060Y40270D02*X106520Y39810D01*
X107900D01*
X108360Y40270D01*
Y41190D01*
X106060Y43490D02*X108360Y41190D01*
X106060Y43490D02*X108360D01*
X109465Y41650D02*X111305Y39810D01*
X109465Y41650D02*X111765D01*
X111305Y39810D02*Y43490D01*
X112870Y39810D02*Y43490D01*
Y39810D02*X114710D01*
X112870Y41650D02*X114250D01*
X97688Y44928D02*X98608D01*
X98148D02*Y48608D01*
X97688D02*X98608D01*
X100172D02*X101552D01*
X99712Y48148D02*X100172Y48608D01*
X99712Y45388D02*Y48148D01*
Y45388D02*X100172Y44928D01*
X101552D01*
X104497D02*X104957Y45388D01*
X103117Y44928D02*X104497D01*
X102657Y45388D02*X103117Y44928D01*
X102657Y45388D02*Y46308D01*
X103117Y46768D01*
X104497D01*
X104957Y47228D01*
Y48148D01*
X104497Y48608D02*X104957Y48148D01*
X103117Y48608D02*X104497D01*
X102657Y48148D02*X103117Y48608D01*
X106522Y44928D02*Y48608D01*
X106062Y44928D02*X107902D01*
X108362Y45388D01*
Y46308D01*
X107902Y46768D02*X108362Y46308D01*
X106522Y46768D02*X107902D01*
X109467Y48148D02*X112227Y45388D01*
X113332Y44928D02*X114252D01*
X113792D02*Y48608D01*
X113332D02*X114252D01*
X115817D02*X117197D01*
X115357Y48148D02*X115817Y48608D01*
X115357Y45388D02*Y48148D01*
Y45388D02*X115817Y44928D01*
X117197D01*
X118762D02*Y48608D01*
X120142Y44928D02*X120602Y45388D01*
Y48148D01*
X120142Y48608D02*X120602Y48148D01*
X118302Y48608D02*X120142D01*
X118302Y44928D02*X120142D01*
X14961Y110086D02*X16961D01*
X14961Y119731D02*X16961D01*
X15961Y118731D02*Y120731D01*
X16764Y127967D02*X17264Y128467D01*
X15264Y127967D02*X16764D01*
X14764Y128467D02*X15264Y127967D01*
X14764Y128467D02*Y129467D01*
X15264Y129967D01*
X16764D01*
X17264Y130467D01*
Y131467D01*
X16764Y131967D02*X17264Y131467D01*
X15264Y131967D02*X16764D01*
X14764Y131467D02*X15264Y131967D01*
X29103Y108118D02*Y110878D01*
X30023Y111798D01*
X30943Y110878D01*
Y108118D02*Y110878D01*
X32047Y108118D02*X32967D01*
X32507D02*Y111798D01*
X32047D02*X32967D01*
X34532Y108118D02*Y111798D01*
X35912Y108118D02*X36372Y108578D01*
Y111338D01*
X35912Y111798D02*X36372Y111338D01*
X34072Y111798D02*X35912D01*
X34072Y108118D02*X35912D01*
X37477Y109958D02*X38857D01*
X37477Y111798D02*X39317D01*
X37477Y108118D02*Y111798D01*
Y108118D02*X39317D01*
X40422Y108578D02*Y111338D01*
Y108578D02*X40882Y108118D01*
X41802D01*
X42262Y108578D01*
Y111338D01*
X41802Y111798D02*X42262Y111338D01*
X40882Y111798D02*X41802D01*
X40422Y111338D02*X40882Y111798D01*
X45023Y111338D02*X45483Y111798D01*
X45023Y108578D02*Y109498D01*
Y108578D02*X45483Y108118D01*
X45023Y110418D02*X46403Y109038D01*
X45483Y111798D02*X45943D01*
X46863Y110878D01*
X45023Y109498D02*X47323Y111798D01*
X45483Y108118D02*X45943D01*
X46403Y108578D01*
Y109038D01*
X45023Y110418D02*Y111338D01*
X50084Y108578D02*Y111798D01*
Y108578D02*X50544Y108118D01*
X51924D01*
X52384Y108578D01*
Y111798D01*
X50084Y109958D02*X52384D01*
X53489Y108118D02*Y111338D01*
X53949Y111798D01*
X54869D01*
X55329Y111338D01*
Y108118D02*Y111338D01*
X56894Y108118D02*Y111798D01*
X58274Y108118D02*X58734Y108578D01*
Y111338D01*
X58274Y111798D02*X58734Y111338D01*
X56434Y111798D02*X58274D01*
X56434Y108118D02*X58274D01*
X59839D02*X60759D01*
X60299D02*Y111798D01*
X59839D02*X60759D01*
X61864Y108578D02*Y111338D01*
Y108578D02*X62324Y108118D01*
X63244D01*
X63704Y108578D01*
Y111338D01*
X63244Y111798D02*X63704Y111338D01*
X62324Y111798D02*X63244D01*
X61864Y111338D02*X62324Y111798D01*
X44882Y131478D02*X46422D01*
X45652D02*Y134558D01*
X47346Y131863D02*Y134173D01*
Y131863D02*X47731Y131478D01*
X48501D01*
X48886Y131863D01*
Y134173D01*
X48501Y134558D02*X48886Y134173D01*
X47731Y134558D02*X48501D01*
X47346Y134173D02*X47731Y134558D01*
X50196Y131478D02*Y134558D01*
X49811Y131478D02*X51351D01*
X51736Y131863D01*
Y132633D01*
X51351Y133018D02*X51736Y132633D01*
X50196Y133018D02*X51351D01*
X52661Y132633D02*X53046D01*
X52661Y133403D02*X53046D01*
X55357Y131478D02*Y133788D01*
X56127Y134558D01*
X56897Y133788D01*
Y131478D02*Y133788D01*
X57821Y131478D02*X58591D01*
X58206D02*Y134558D01*
X57821D02*X58591D01*
X59901Y131478D02*Y134558D01*
X61056Y131478D02*X61441Y131863D01*
Y134173D01*
X61056Y134558D02*X61441Y134173D01*
X59516Y134558D02*X61056D01*
X59516Y131478D02*X61056D01*
X63752Y131863D02*Y134173D01*
Y131863D02*X64137Y131478D01*
X64907D01*
X65292Y131863D01*
Y134173D01*
X64907Y134558D02*X65292Y134173D01*
X64137Y134558D02*X64907D01*
X63752Y134173D02*X64137Y134558D01*
X66217Y131478D02*Y134173D01*
X66602Y134558D01*
X67372D01*
X67757Y134173D01*
Y131478D02*Y134173D01*
X68681Y131478D02*X70221D01*
X69451D02*Y134558D01*
X45077Y138788D02*X46577D01*
X46952Y138413D01*
Y137663D02*Y138413D01*
X46577Y137288D02*X46952Y137663D01*
X45452Y137288D02*X46577D01*
X45452Y135788D02*Y138788D01*
X45077Y135788D02*X46577D01*
X46952Y136163D01*
Y136913D01*
X46577Y137288D02*X46952Y136913D01*
X47852Y136163D02*Y138413D01*
Y136163D02*X48227Y135788D01*
X48977D01*
X49352Y136163D01*
Y138413D01*
X48977Y138788D02*X49352Y138413D01*
X48227Y138788D02*X48977D01*
X47852Y138413D02*X48227Y138788D01*
X50253Y135788D02*X51753D01*
X51003D02*Y138788D01*
X52654Y136913D02*X53029D01*
X52654Y137663D02*X53029D01*
X55280Y136163D02*Y138788D01*
Y136163D02*X55655Y135788D01*
X56780D01*
X57155Y136163D01*
Y138788D01*
X55280Y137288D02*X57155D01*
X58055Y135788D02*Y138413D01*
X58430Y138788D01*
X59180D01*
X59555Y138413D01*
Y135788D02*Y138413D01*
X60831Y135788D02*Y138788D01*
X61956Y135788D02*X62331Y136163D01*
Y138413D01*
X61956Y138788D02*X62331Y138413D01*
X60456Y138788D02*X61956D01*
X60456Y135788D02*X61956D01*
X63232D02*X63982D01*
X63607D02*Y138788D01*
X63232D02*X63982D01*
X64883Y136163D02*Y138413D01*
Y136163D02*X65258Y135788D01*
X66008D01*
X66383Y136163D01*
Y138413D01*
X66008Y138788D02*X66383Y138413D01*
X65258Y138788D02*X66008D01*
X64883Y138413D02*X65258Y138788D01*
X68633Y135788D02*X69383D01*
X69008D02*Y138788D01*
X68633D02*X69383D01*
X70284Y136163D02*Y138413D01*
Y136163D02*X70659Y135788D01*
X71409D01*
X71784Y136163D01*
Y138413D01*
X71409Y138788D02*X71784Y138413D01*
X70659Y138788D02*X71409D01*
X70284Y138413D02*X70659Y138788D01*
X29103Y113578D02*X29563Y113118D01*
X30483D01*
X30943Y113578D01*
Y116338D01*
X30483Y116798D02*X30943Y116338D01*
X29563Y116798D02*X30483D01*
X29103Y116338D02*X29563Y116798D01*
Y114958D02*X30943D01*
X32047Y116798D02*X32507D01*
X33612Y113578D02*X34072Y113118D01*
X34992D01*
X35452Y113578D01*
Y116338D01*
X34992Y116798D02*X35452Y116338D01*
X34072Y116798D02*X34992D01*
X33612Y116338D02*X34072Y116798D01*
Y114958D02*X35452D01*
X36557Y113118D02*Y115878D01*
X37477Y116798D01*
X38397Y115878D01*
Y113118D02*Y115878D01*
X41158Y113118D02*Y116798D01*
Y113118D02*X42538Y114498D01*
X43918Y113118D01*
Y116798D01*
X45023Y113578D02*Y116798D01*
Y113578D02*X45483Y113118D01*
X46863D01*
X47323Y113578D01*
Y116798D01*
X45023Y114958D02*X47323D01*
X48428Y113118D02*Y113578D01*
X50728Y115878D01*
Y116798D01*
X48428Y115878D02*Y116798D01*
Y115878D02*X50728Y113578D01*
Y113118D02*Y113578D01*
X18378Y120069D02*X19918D01*
X19148D02*Y123149D01*
X20842Y120454D02*Y122764D01*
Y120454D02*X21227Y120069D01*
X21997D01*
X22382Y120454D01*
Y122764D01*
X21997Y123149D02*X22382Y122764D01*
X21227Y123149D02*X21997D01*
X20842Y122764D02*X21227Y123149D01*
X23692Y120069D02*Y123149D01*
X23307Y120069D02*X24847D01*
X25232Y120454D01*
Y121224D01*
X24847Y121609D02*X25232Y121224D01*
X23692Y121609D02*X24847D01*
X26157Y121224D02*X26542D01*
X26157Y121994D02*X26542D01*
X28853Y120069D02*Y122379D01*
X29623Y123149D01*
X30393Y122379D01*
Y120069D02*Y122379D01*
X31317Y120069D02*X32087D01*
X31702D02*Y123149D01*
X31317D02*X32087D01*
X33397Y120069D02*Y123149D01*
X34552Y120069D02*X34937Y120454D01*
Y122764D01*
X34552Y123149D02*X34937Y122764D01*
X33012Y123149D02*X34552D01*
X33012Y120069D02*X34552D01*
X35862Y121609D02*X37017D01*
X35862Y123149D02*X37402D01*
X35862Y120069D02*Y123149D01*
Y120069D02*X37402D01*
X38327Y120454D02*Y122764D01*
Y120454D02*X38712Y120069D01*
X39482D01*
X39867Y120454D01*
Y122764D01*
X39482Y123149D02*X39867Y122764D01*
X38712Y123149D02*X39482D01*
X38327Y122764D02*X38712Y123149D01*
X42562D02*X43717D01*
X42177Y122764D02*X42562Y123149D01*
X42177Y120454D02*Y122764D01*
Y120454D02*X42562Y120069D01*
X43717D01*
X44642D02*Y123149D01*
X46567Y120069D02*Y123149D01*
X44642Y121609D02*X46567D01*
X47492Y121994D02*X49032D01*
X47492Y121224D02*X49032D01*
X48647Y120839D02*Y122379D01*
X47877Y120839D02*Y122379D01*
X50342Y123149D02*X51112D01*
X50727Y120069D02*Y123149D01*
X49957Y120839D02*X50727Y120069D01*
X18376Y127379D02*X19876D01*
X20251Y127004D01*
Y126254D02*Y127004D01*
X19876Y125879D02*X20251Y126254D01*
X18751Y125879D02*X19876D01*
X18751Y124379D02*Y127379D01*
X18376Y124379D02*X19876D01*
X20251Y124754D01*
Y125504D01*
X19876Y125879D02*X20251Y125504D01*
X21151Y124754D02*Y127004D01*
Y124754D02*X21526Y124379D01*
X22276D01*
X22651Y124754D01*
Y127004D01*
X22276Y127379D02*X22651Y127004D01*
X21526Y127379D02*X22276D01*
X21151Y127004D02*X21526Y127379D01*
X23552Y124379D02*X25052D01*
X24302D02*Y127379D01*
X25953Y125504D02*X26328D01*
X25953Y126254D02*X26328D01*
X28579Y124379D02*Y126629D01*
X29329Y127379D01*
X30079Y126629D01*
Y124379D02*Y126629D01*
X30979Y124379D02*X31729D01*
X31354D02*Y127379D01*
X30979D02*X31729D01*
X33005Y124379D02*Y127379D01*
X34130Y124379D02*X34505Y124754D01*
Y127004D01*
X34130Y127379D02*X34505Y127004D01*
X32630Y127379D02*X34130D01*
X32630Y124379D02*X34130D01*
X35406Y125879D02*X36531D01*
X35406Y127379D02*X36906D01*
X35406Y124379D02*Y127379D01*
Y124379D02*X36906D01*
X37807Y124754D02*Y127004D01*
Y124754D02*X38182Y124379D01*
X38932D01*
X39307Y124754D01*
Y127004D01*
X38932Y127379D02*X39307Y127004D01*
X38182Y127379D02*X38932D01*
X37807Y127004D02*X38182Y127379D01*
X41932D02*X43057D01*
X41557Y127004D02*X41932Y127379D01*
X41557Y124754D02*Y127004D01*
Y124754D02*X41932Y124379D01*
X43057D01*
X43958D02*Y127379D01*
X45833Y124379D02*Y127379D01*
X43958Y125879D02*X45833D01*
X46734Y126254D02*X48234D01*
X46734Y125504D02*X48234D01*
X47859Y125129D02*Y126629D01*
X47109Y125129D02*Y126629D01*
X49135Y124754D02*X49510Y124379D01*
X50635D01*
X51010Y124754D01*
Y125504D01*
X49135Y127379D02*X51010Y125504D01*
X49135Y127379D02*X51010D01*
X66444Y122260D02*Y126260D01*
X67944Y122260D02*X68444Y122760D01*
Y125760D01*
X67944Y126260D02*X68444Y125760D01*
X65944Y126260D02*X67944D01*
X65944Y122260D02*X67944D01*
X69645Y124260D02*X71145D01*
X69645Y126260D02*X71645D01*
X69645Y122260D02*Y126260D01*
Y122260D02*X71645D01*
X74846D02*X75346Y122760D01*
X73346Y122260D02*X74846D01*
X72846Y122760D02*X73346Y122260D01*
X72846Y122760D02*Y123760D01*
X73346Y124260D01*
X74846D01*
X75346Y124760D01*
Y125760D01*
X74846Y126260D02*X75346Y125760D01*
X73346Y126260D02*X74846D01*
X72846Y125760D02*X73346Y126260D01*
X76547Y122260D02*X77547D01*
X77047D02*Y126260D01*
X76547D02*X77547D01*
X80748Y122260D02*X81248Y122760D01*
X79248Y122260D02*X80748D01*
X78748Y122760D02*X79248Y122260D01*
X78748Y122760D02*Y125760D01*
X79248Y126260D01*
X80748D01*
X81248Y125760D01*
Y124760D02*Y125760D01*
X80748Y124260D02*X81248Y124760D01*
X79748Y124260D02*X80748D01*
X82449Y122260D02*Y126260D01*
Y122260D02*Y122760D01*
X84949Y125260D01*
Y122260D02*Y126260D01*
X86150Y124260D02*X87650D01*
X86150Y126260D02*X88150D01*
X86150Y122260D02*Y126260D01*
Y122260D02*X88150D01*
X89851D02*Y126260D01*
X91351Y122260D02*X91851Y122760D01*
Y125760D01*
X91351Y126260D02*X91851Y125760D01*
X89351Y126260D02*X91351D01*
X89351Y122260D02*X91351D01*
X94852Y126260D02*X96852D01*
X97352Y125760D01*
Y124760D02*Y125760D01*
X96852Y124260D02*X97352Y124760D01*
X95352Y124260D02*X96852D01*
X95352Y122260D02*Y126260D01*
X94852Y122260D02*X96852D01*
X97352Y122760D01*
Y123760D01*
X96852Y124260D02*X97352Y123760D01*
X98553Y122260D02*Y122760D01*
X99553Y123760D01*
X100553Y122760D01*
Y122260D02*Y122760D01*
X99553Y123760D02*Y126260D01*
X103554Y122260D02*X105554D01*
X104554D02*Y126260D01*
X106755D02*X107255D01*
X110256Y122760D02*Y125760D01*
Y122760D02*X110756Y122260D01*
X111756D01*
X112256Y122760D01*
Y125760D01*
X111756Y126260D02*X112256Y125760D01*
X110756Y126260D02*X111756D01*
X110256Y125760D02*X110756Y126260D01*
X113457Y122260D02*Y126260D01*
X115457D01*
X117158Y122260D02*Y126260D01*
X118658Y122260D02*X119158Y122760D01*
Y125760D01*
X118658Y126260D02*X119158Y125760D01*
X116658Y126260D02*X118658D01*
X116658Y122260D02*X118658D01*
X120359Y126260D02*X122359D01*
X122859Y125760D01*
Y124760D02*Y125760D01*
X122359Y124260D02*X122859Y124760D01*
X120859Y124260D02*X122359D01*
X120859Y122260D02*Y126260D01*
X120359Y122260D02*X122359D01*
X122859Y122760D01*
Y123760D01*
X122359Y124260D02*X122859Y123760D01*
X124060Y122260D02*Y125760D01*
X124560Y126260D01*
X125560D01*
X126060Y125760D01*
Y122260D02*Y125760D01*
X127261Y122260D02*X129261D01*
X129761Y122760D01*
Y123760D01*
X129261Y124260D02*X129761Y123760D01*
X127761Y124260D02*X129261D01*
X127761Y122260D02*Y126260D01*
Y124260D02*X129761Y126260D01*
X130962Y122260D02*Y122760D01*
X131962Y123760D01*
X132962Y122760D01*
Y122260D02*Y122760D01*
X131962Y123760D02*Y126260D01*
X135963Y122260D02*Y126260D01*
Y122260D02*X137463Y123760D01*
X138963Y122260D01*
Y126260D01*
X140164Y122760D02*Y126260D01*
Y122760D02*X140664Y122260D01*
X142164D01*
X142664Y122760D01*
Y126260D01*
X140164Y124260D02*X142664D01*
X143865Y122260D02*Y122760D01*
X144865Y123760D01*
X145865Y122760D01*
Y122260D02*Y122760D01*
X144865Y123760D02*Y126260D01*
X148866Y122760D02*X149366Y122260D01*
X150866D01*
X151366Y122760D01*
Y123760D01*
X148866Y126260D02*X151366Y123760D01*
X148866Y126260D02*X151366D01*
X152567Y125760D02*X153067Y126260D01*
X152567Y122760D02*Y125760D01*
Y122760D02*X153067Y122260D01*
X154067D01*
X154567Y122760D01*
Y125760D01*
X154067Y126260D02*X154567Y125760D01*
X153067Y126260D02*X154067D01*
X152567Y125260D02*X154567Y123260D01*
X156268Y126260D02*X157268D01*
X156768Y122260D02*Y126260D01*
X155768Y123260D02*X156768Y122260D01*
X158969Y126260D02*X159969D01*
X159469Y122260D02*Y126260D01*
X158469Y123260D02*X159469Y122260D01*
X85903Y127983D02*X86403D01*
X85903D02*Y131983D01*
X86403D01*
X88104Y127983D02*Y131983D01*
X87604Y127983D02*X89604D01*
X90104Y128483D01*
Y129483D01*
X89604Y129983D02*X90104Y129483D01*
X88104Y129983D02*X89604D01*
X91305Y127983D02*X93305D01*
X93805Y128483D01*
Y129483D01*
X93305Y129983D02*X93805Y129483D01*
X91805Y129983D02*X93305D01*
X91805Y127983D02*Y131983D01*
Y129983D02*X93805Y131983D01*
X95006Y128483D02*Y131483D01*
Y128483D02*X95506Y127983D01*
X96506D01*
X97006Y128483D01*
Y131483D01*
X96506Y131983D02*X97006Y131483D01*
X95506Y131983D02*X96506D01*
X95006Y131483D02*X95506Y131983D01*
X98207Y127983D02*X100207D01*
X99207D02*Y131983D01*
X101408Y128483D02*Y131483D01*
Y128483D02*X101908Y127983D01*
X102908D01*
X103408Y128483D01*
Y131483D01*
X102908Y131983D02*X103408Y131483D01*
X101908Y131983D02*X102908D01*
X101408Y131483D02*X101908Y131983D01*
X104609Y127983D02*X106609D01*
X105609D02*Y131983D01*
X107810Y127983D02*Y128483D01*
X108810Y129483D01*
X109810Y128483D01*
Y127983D02*Y128483D01*
X108810Y129483D02*Y131983D01*
X111511Y127983D02*Y131983D01*
X111011Y127983D02*X113011D01*
X113511Y128483D01*
Y129483D01*
X113011Y129983D02*X113511Y129483D01*
X111511Y129983D02*X113011D01*
X114712D02*X116212D01*
X114712Y131983D02*X116712D01*
X114712Y127983D02*Y131983D01*
Y127983D02*X116712D01*
X120213D02*Y131983D01*
X121713Y127983D02*X122213Y128483D01*
Y131483D01*
X121713Y131983D02*X122213Y131483D01*
X119713Y131983D02*X121713D01*
X119713Y127983D02*X121713D01*
X123414Y129983D02*X124914D01*
X123414Y131983D02*X125414D01*
X123414Y127983D02*Y131983D01*
Y127983D02*X125414D01*
X128615D02*X129115Y128483D01*
X127115Y127983D02*X128615D01*
X126615Y128483D02*X127115Y127983D01*
X126615Y128483D02*Y129483D01*
X127115Y129983D01*
X128615D01*
X129115Y130483D01*
Y131483D01*
X128615Y131983D02*X129115Y131483D01*
X127115Y131983D02*X128615D01*
X126615Y131483D02*X127115Y131983D01*
X130316Y127983D02*X131316D01*
X130816D02*Y131983D01*
X130316D02*X131316D01*
X134517Y127983D02*X135017Y128483D01*
X133017Y127983D02*X134517D01*
X132517Y128483D02*X133017Y127983D01*
X132517Y128483D02*Y131483D01*
X133017Y131983D01*
X134517D01*
X135017Y131483D01*
Y130483D02*Y131483D01*
X134517Y129983D02*X135017Y130483D01*
X133517Y129983D02*X134517D01*
X136218Y127983D02*Y131983D01*
Y127983D02*Y128483D01*
X138718Y130983D01*
Y127983D02*Y131983D01*
X139919Y127983D02*X140419D01*
Y131983D01*
X139919D02*X140419D01*
X135000Y83914D02*X135460Y84374D01*
X135000Y81154D02*X135460Y80694D01*
X135000Y81154D02*Y83914D01*
X136564Y82994D02*Y83914D01*
Y82994D02*X137024Y82534D01*
X137944D01*
X138404Y82994D01*
Y83914D01*
X137944Y84374D02*X138404Y83914D01*
X137024Y84374D02*X137944D01*
X136564Y83914D02*X137024Y84374D01*
X139969Y82994D02*Y85754D01*
X139509Y82534D02*X139969Y82994D01*
X140429Y82534D01*
X141349D01*
X141809Y82994D01*
Y83914D01*
X141349Y84374D02*X141809Y83914D01*
X140429Y84374D02*X141349D01*
X139969Y83914D02*X140429Y84374D01*
X143374Y80694D02*Y83914D01*
X143834Y84374D01*
X142914Y82074D02*X143834D01*
X144755Y81614D02*Y82074D01*
Y82994D02*Y84374D01*
X145676Y82994D02*Y83914D01*
Y82994D02*X146136Y82534D01*
X147056D01*
X147516Y82994D01*
Y83914D01*
X147056Y84374D02*X147516Y83914D01*
X146136Y84374D02*X147056D01*
X145676Y83914D02*X146136Y84374D01*
X149081Y82994D02*Y84374D01*
Y82994D02*X149541Y82534D01*
X150001D01*
X150461Y82994D01*
Y84374D01*
X148621Y82534D02*X149081Y82994D01*
X152946Y82534D02*X153406Y82994D01*
X152026Y82534D02*X152946D01*
X151566Y82994D02*X152026Y82534D01*
X151566Y82994D02*Y83914D01*
X152026Y84374D01*
X153406Y82534D02*Y83914D01*
X153866Y84374D01*
X152026D02*X152946D01*
X153406Y83914D01*
X154971Y80694D02*Y83914D01*
X155431Y84374D01*
X156352Y80694D02*X156812Y81154D01*
Y83914D01*
X156352Y84374D02*X156812Y83914D01*
X173000Y85754D02*Y88974D01*
Y85754D02*X173460Y85294D01*
X174840D01*
X175300Y85754D01*
Y88974D01*
X173000Y87134D02*X175300D01*
X176404Y85294D02*Y88974D01*
X178244D01*
X179349Y85294D02*Y88974D01*
X181189D01*
X183950Y85754D02*Y88974D01*
Y85754D02*X184410Y85294D01*
X185790D01*
X186250Y85754D01*
Y88974D01*
X183950Y87134D02*X186250D01*
X187355Y85294D02*Y88974D01*
Y85294D02*Y85754D01*
X189655Y88054D01*
Y85294D02*Y88974D01*
X190760Y85754D02*Y88974D01*
Y85754D02*X191220Y85294D01*
X192600D01*
X193060Y85754D01*
Y88974D01*
X190760Y87134D02*X193060D01*
X194165Y85294D02*Y88974D01*
X196005D01*
X197110Y85754D02*Y88514D01*
Y85754D02*X197570Y85294D01*
X198490D01*
X198950Y85754D01*
Y88514D01*
X198490Y88974D02*X198950Y88514D01*
X197570Y88974D02*X198490D01*
X197110Y88514D02*X197570Y88974D01*
X201895Y85294D02*X202355Y85754D01*
X200515Y85294D02*X201895D01*
X200055Y85754D02*X200515Y85294D01*
X200055Y85754D02*Y88514D01*
X200515Y88974D01*
X201895D01*
X202355Y88514D01*
Y87594D02*Y88514D01*
X201895Y87134D02*X202355Y87594D01*
X200975Y87134D02*X201895D01*
X178200Y90894D02*X180040D01*
X178200D02*Y92734D01*
X178660Y92274D01*
X179580D01*
X180040Y92734D01*
Y94114D01*
X179580Y94574D02*X180040Y94114D01*
X178660Y94574D02*X179580D01*
X178200Y94114D02*X178660Y94574D01*
X181144Y94114D02*X181604Y94574D01*
X181144Y91354D02*Y94114D01*
Y91354D02*X181604Y90894D01*
X182524D01*
X182984Y91354D01*
Y94114D01*
X182524Y94574D02*X182984Y94114D01*
X181604Y94574D02*X182524D01*
X181144Y93654D02*X182984Y91814D01*
X184089Y90894D02*Y93654D01*
X185009Y94574D01*
X185929Y93654D01*
Y90894D02*Y93654D01*
X188690Y90894D02*Y94574D01*
Y90894D02*X190070Y92274D01*
X191450Y90894D01*
Y94574D01*
X192555Y91354D02*Y94574D01*
Y91354D02*X193015Y90894D01*
X194395D01*
X194855Y91354D01*
Y94574D01*
X192555Y92734D02*X194855D01*
X195960Y90894D02*Y91354D01*
X198260Y93654D01*
Y94574D01*
X195960Y93654D02*Y94574D01*
Y93654D02*X198260Y91354D01*
Y90894D02*Y91354D01*
X199365Y94114D02*Y94574D01*
Y90894D02*Y93194D01*
X175200Y94244D02*X176580D01*
X175200Y91844D02*X176580D01*
X175890Y91154D02*Y92534D01*
X192500Y121574D02*X193000Y122074D01*
X191500Y121574D02*X192500D01*
X191000Y122074D02*X191500Y121574D01*
X191000Y122074D02*Y125074D01*
X191500Y125574D01*
X192500Y123574D02*X193000Y124074D01*
X191000Y123574D02*X192500D01*
X191500Y125574D02*X192500D01*
X193000Y125074D01*
Y124074D02*Y125074D01*
X194201D02*X197201Y122074D01*
X199902Y121574D02*X200402Y122074D01*
X198902Y121574D02*X199902D01*
X198402Y122074D02*X198902Y121574D01*
X198402Y122074D02*Y125074D01*
X198902Y125574D01*
X199902Y123574D02*X200402Y124074D01*
X198402Y123574D02*X199902D01*
X198902Y125574D02*X199902D01*
X200402Y125074D01*
Y124074D02*Y125074D01*
X188171Y74838D02*X188556Y74453D01*
X188171Y74838D02*Y75993D01*
X188556Y76378D02*X188171Y75993D01*
X188556Y76378D02*X190866D01*
X191251Y75993D01*
Y74838D02*Y75993D01*
Y74838D02*X190866Y74453D01*
X190096D02*X190866D01*
X189711Y74838D02*X190096Y74453D01*
X189711Y74838D02*Y75608D01*
X188171Y73529D02*X191251D01*
X188171D02*X188556D01*
X190481Y71604D01*
X188171D02*X191251D01*
X188171Y70294D02*X191251D01*
X188171Y69139D02*X188556Y68754D01*
X190866D01*
X191251Y69139D02*X190866Y68754D01*
X191251Y69139D02*Y70679D01*
X188171Y69139D02*Y70679D01*
X187973Y64763D02*X190283D01*
X191053Y63993D01*
X190283Y63223D01*
X187973D02*X190283D01*
X189513Y60759D02*Y62299D01*
X188743Y61529D02*X190283D01*
X173691Y64655D02*Y67655D01*
X174691Y68655D01*
X175691Y67655D01*
Y64655D02*Y67655D01*
X176892Y64655D02*X178892D01*
X179392Y65155D01*
Y66155D01*
X178892Y66655D02*X179392Y66155D01*
X177392Y66655D02*X178892D01*
X177392Y64655D02*Y68655D01*
Y66655D02*X179392Y68655D01*
X180593Y66655D02*X182093D01*
X180593Y68655D02*X182593D01*
X180593Y64655D02*Y68655D01*
Y64655D02*X182593D01*
X185794D02*X186294Y65155D01*
X184294Y64655D02*X185794D01*
X183794Y65155D02*X184294Y64655D01*
X183794Y65155D02*Y68155D01*
X184294Y68655D01*
X185794D01*
X186294Y68155D01*
Y67155D02*Y68155D01*
X185794Y66655D02*X186294Y67155D01*
X184794Y66655D02*X185794D01*
X175798Y70421D02*Y73421D01*
Y70421D02*X176298Y69921D01*
X177298D01*
X177798Y70421D01*
Y73421D01*
X177298Y73921D02*X177798Y73421D01*
X176298Y73921D02*X177298D01*
X175798Y73421D02*X176298Y73921D01*
X178999Y69921D02*Y73421D01*
X179499Y73921D01*
X180499D01*
X180999Y73421D01*
Y69921D02*Y73421D01*
X182200Y69921D02*X184200D01*
X183200D02*Y73921D01*
X166142Y132069D02*X167682D01*
X166912D02*Y135149D01*
X168606Y132454D02*Y134764D01*
Y132454D02*X168991Y132069D01*
X169761D01*
X170146Y132454D01*
Y134764D01*
X169761Y135149D02*X170146Y134764D01*
X168991Y135149D02*X169761D01*
X168606Y134764D02*X168991Y135149D01*
X171456Y132069D02*Y135149D01*
X171071Y132069D02*X172611D01*
X172996Y132454D01*
Y133224D01*
X172611Y133609D02*X172996Y133224D01*
X171456Y133609D02*X172611D01*
X173921Y133224D02*X174306D01*
X173921Y133994D02*X174306D01*
X176617Y132069D02*X177387D01*
X177002D02*Y135149D01*
X176617D02*X177387D01*
X181468D02*X182623D01*
X181083Y134764D02*X181468Y135149D01*
X181083Y132454D02*Y134764D01*
Y132454D02*X181468Y132069D01*
X182623D01*
X178543Y131912D02*X178813Y131642D01*
X179623D01*
X179893Y131912D01*
Y132452D01*
X178543Y133802D02*X179893Y132452D01*
X178543Y133802D02*X179893D01*
X166337Y139379D02*X167837D01*
X168212Y139004D01*
Y138254D02*Y139004D01*
X167837Y137879D02*X168212Y138254D01*
X166712Y137879D02*X167837D01*
X166712Y136379D02*Y139379D01*
X166337Y136379D02*X167837D01*
X168212Y136754D01*
Y137504D01*
X167837Y137879D02*X168212Y137504D01*
X169112Y136754D02*Y139004D01*
Y136754D02*X169487Y136379D01*
X170237D01*
X170612Y136754D01*
Y139004D01*
X170237Y139379D02*X170612Y139004D01*
X169487Y139379D02*X170237D01*
X169112Y139004D02*X169487Y139379D01*
X171513Y136379D02*X173013D01*
X172263D02*Y139379D01*
X173914Y137504D02*X174289D01*
X173914Y138254D02*X174289D01*
X178040Y136379D02*X178415Y136754D01*
X176915Y136379D02*X178040D01*
X176540Y136754D02*X176915Y136379D01*
X176540Y136754D02*Y139004D01*
X176915Y139379D01*
X178040D01*
X178415Y139004D01*
Y138254D02*Y139004D01*
X178040Y137879D02*X178415Y138254D01*
X177290Y137879D02*X178040D01*
X179690Y136379D02*Y139379D01*
X179315Y136379D02*X180815D01*
X181190Y136754D01*
Y137504D01*
X180815Y137879D02*X181190Y137504D01*
X179690Y137879D02*X180815D01*
X183591Y136379D02*X183966Y136754D01*
X182466Y136379D02*X183591D01*
X182091Y136754D02*X182466Y136379D01*
X182091Y136754D02*Y137504D01*
X182466Y137879D01*
X183591D01*
X183966Y138254D01*
Y139004D01*
X183591Y139379D02*X183966Y139004D01*
X182466Y139379D02*X183591D01*
X182091Y139004D02*X182466Y139379D01*
X135660Y77794D02*Y79174D01*
Y77794D02*X136120Y77334D01*
X136580D01*
X137040Y77794D01*
Y79174D01*
Y77794D02*X137500Y77334D01*
X137960D01*
X138420Y77794D01*
Y79174D01*
X135200Y77334D02*X135660Y77794D01*
X139524Y76414D02*Y76874D01*
Y77794D02*Y79174D01*
X140905Y77334D02*X142285D01*
X140445Y77794D02*X140905Y77334D01*
X140445Y77794D02*Y78714D01*
X140905Y79174D01*
X142285D01*
X143850Y77794D02*Y79174D01*
Y77794D02*X144310Y77334D01*
X145230D01*
X143390D02*X143850Y77794D01*
X146335D02*Y78714D01*
Y77794D02*X146795Y77334D01*
X147715D01*
X148175Y77794D01*
Y78714D01*
X147715Y79174D02*X148175Y78714D01*
X146795Y79174D02*X147715D01*
X146335Y78714D02*X146795Y79174D01*
X151120Y75494D02*X151580Y75954D01*
X149740Y75494D02*X151120D01*
X149280Y75954D02*X149740Y75494D01*
X149280Y75954D02*Y76874D01*
X149740Y77334D01*
X151120D01*
X151580Y77794D01*
Y78714D01*
X151120Y79174D02*X151580Y78714D01*
X149740Y79174D02*X151120D01*
X149280Y78714D02*X149740Y79174D01*
X153145Y75494D02*Y79174D01*
X154525Y75494D02*X154985Y75954D01*
Y78714D01*
X154525Y79174D02*X154985Y78714D01*
X152685Y79174D02*X154525D01*
X152685Y75494D02*X154525D01*
X55200Y93954D02*Y96714D01*
Y93954D02*X55660Y93494D01*
X56580D01*
X57040Y93954D01*
Y96714D01*
X56580Y97174D02*X57040Y96714D01*
X55660Y97174D02*X56580D01*
X55200Y96714D02*X55660Y97174D01*
X58604Y93494D02*Y97174D01*
X58144Y93494D02*X59984D01*
X60444Y93954D01*
Y94874D01*
X59984Y95334D02*X60444Y94874D01*
X58604Y95334D02*X59984D01*
X61549D02*X62929D01*
X61549Y97174D02*X63389D01*
X61549Y93494D02*Y97174D01*
Y93494D02*X63389D01*
X64494D02*Y97174D01*
Y93494D02*Y93954D01*
X66794Y96254D01*
Y93494D02*Y97174D01*
X69555Y93494D02*Y97174D01*
X71855Y93494D02*Y97174D01*
X69555Y95334D02*X71855D01*
X72960Y93954D02*Y97174D01*
Y93954D02*X73420Y93494D01*
X74800D01*
X75260Y93954D01*
Y97174D01*
X72960Y95334D02*X75260D01*
X76365Y93494D02*X78205D01*
X78665Y93954D01*
Y94874D01*
X78205Y95334D02*X78665Y94874D01*
X76825Y95334D02*X78205D01*
X76825Y93494D02*Y97174D01*
Y95334D02*X78665Y97174D01*
X80230Y93494D02*Y97174D01*
X81610Y93494D02*X82070Y93954D01*
Y96714D01*
X81610Y97174D02*X82070Y96714D01*
X79770Y97174D02*X81610D01*
X79770Y93494D02*X81610D01*
X83175D02*Y97174D01*
X84555Y95794D01*
X85935Y97174D01*
Y93494D02*Y97174D01*
X87040Y93954D02*Y97174D01*
Y93954D02*X87500Y93494D01*
X88880D01*
X89340Y93954D01*
Y97174D01*
X87040Y95334D02*X89340D01*
X90445Y93494D02*X92285D01*
X92745Y93954D01*
Y94874D01*
X92285Y95334D02*X92745Y94874D01*
X90905Y95334D02*X92285D01*
X90905Y93494D02*Y97174D01*
Y95334D02*X92745Y97174D01*
X93850Y95334D02*X95230D01*
X93850Y97174D02*X95690D01*
X93850Y93494D02*Y97174D01*
Y93494D02*X95690D01*
X96795Y97174D02*X97255D01*
X98359D02*X98819D01*
X99924D02*X100384D01*
X67400Y100734D02*X68780D01*
X67400Y102574D02*X69240D01*
X67400Y98894D02*Y102574D01*
Y98894D02*X69240D01*
X70344D02*Y102574D01*
Y98894D02*Y99354D01*
X72644Y101654D01*
Y98894D02*Y102574D01*
X73749Y98894D02*X75129D01*
Y102114D01*
X74669Y102574D02*X75129Y102114D01*
X74209Y102574D02*X74669D01*
X73749Y102114D02*X74209Y102574D01*
X76234Y99354D02*Y102114D01*
Y99354D02*X76694Y98894D01*
X77614D01*
X78074Y99354D01*
Y102114D01*
X77614Y102574D02*X78074Y102114D01*
X76694Y102574D02*X77614D01*
X76234Y102114D02*X76694Y102574D01*
X79179Y98894D02*Y99354D01*
X80099Y100274D01*
X81019Y99354D01*
Y98894D02*Y99354D01*
X80099Y100274D02*Y102574D01*
X82124Y102114D02*Y102574D01*
Y98894D02*Y101194D01*
X84885Y100274D02*X85345D01*
X84885Y101194D02*X85345D01*
X86450Y98894D02*X86910Y99354D01*
Y102114D01*
X86450Y102574D02*X86910Y102114D01*
X67800Y88294D02*X69640D01*
X68720D02*Y91974D01*
X70744Y88294D02*Y91974D01*
X73044Y88294D02*Y91974D01*
X70744Y90134D02*X73044D01*
X74149Y88294D02*X75069D01*
X74609D02*Y91974D01*
X74149D02*X75069D01*
X78014Y88294D02*X78474Y88754D01*
X76634Y88294D02*X78014D01*
X76174Y88754D02*X76634Y88294D01*
X76174Y88754D02*Y89674D01*
X76634Y90134D01*
X78014D01*
X78474Y90594D01*
Y91514D01*
X78014Y91974D02*X78474Y91514D01*
X76634Y91974D02*X78014D01*
X76174Y91514D02*X76634Y91974D01*
X81235Y88294D02*X82155D01*
X81695D02*Y91974D01*
X81235D02*X82155D01*
X85100Y88294D02*X85560Y88754D01*
X83720Y88294D02*X85100D01*
X83260Y88754D02*X83720Y88294D01*
X83260Y88754D02*Y89674D01*
X83720Y90134D01*
X85100D01*
X85560Y90594D01*
Y91514D01*
X85100Y91974D02*X85560Y91514D01*
X83720Y91974D02*X85100D01*
X83260Y91514D02*X83720Y91974D01*
X17200Y5039D02*X17585Y5424D01*
X17200Y2729D02*X17585Y2344D01*
X17200Y2729D02*Y5039D01*
X20049Y2344D02*X20434Y2729D01*
X18894Y2344D02*X20049D01*
X18509Y2729D02*X18894Y2344D01*
X18509Y2729D02*Y3499D01*
X18894Y3884D01*
X20049D01*
X20434Y4269D01*
Y5039D01*
X20049Y5424D02*X20434Y5039D01*
X18894Y5424D02*X20049D01*
X18509Y5039D02*X18894Y5424D01*
X21359Y3884D02*X22514D01*
X21359Y5424D02*X22899D01*
X21359Y2344D02*Y5424D01*
Y2344D02*X22899D01*
X23824Y3884D02*X24979D01*
X23824Y5424D02*X25364D01*
X23824Y2344D02*Y5424D01*
Y2344D02*X25364D01*
X26289Y3884D02*X27444D01*
X26289Y5424D02*X27829D01*
X26289Y2344D02*Y5424D01*
Y2344D02*X27829D01*
X29138D02*Y5424D01*
X30293Y2344D02*X30678Y2729D01*
Y5039D01*
X30293Y5424D02*X30678Y5039D01*
X28753Y5424D02*X30293D01*
X28753Y2344D02*X30293D01*
X31603D02*X31988Y2729D01*
Y5039D01*
X31603Y5424D02*X31988Y5039D01*
X34299Y2729D02*Y5039D01*
Y2729D02*X34684Y2344D01*
X35454D01*
X35839Y2729D01*
Y5039D01*
X35454Y5424D02*X35839Y5039D01*
X34684Y5424D02*X35454D01*
X34299Y5039D02*X34684Y5424D01*
X36764Y2344D02*X38304D01*
X38689Y2729D01*
Y3499D01*
X38304Y3884D02*X38689Y3499D01*
X37149Y3884D02*X38304D01*
X37149Y2344D02*Y5424D01*
Y3884D02*X38689Y5424D01*
X39998Y2344D02*Y5424D01*
X41153Y2344D02*X41538Y2729D01*
Y5039D01*
X41153Y5424D02*X41538Y5039D01*
X39613Y5424D02*X41153D01*
X39613Y2344D02*X41153D01*
X42463Y3884D02*X43618D01*
X42463Y5424D02*X44003D01*
X42463Y2344D02*Y5424D01*
Y2344D02*X44003D01*
X44928D02*X46468D01*
X46853Y2729D01*
Y3499D01*
X46468Y3884D02*X46853Y3499D01*
X45313Y3884D02*X46468D01*
X45313Y2344D02*Y5424D01*
Y3884D02*X46853Y5424D01*
X49164Y2344D02*Y5424D01*
Y2344D02*Y2729D01*
X51089Y4654D01*
Y2344D02*Y5424D01*
X52014Y2344D02*Y5039D01*
X52399Y5424D01*
X53169D01*
X53554Y5039D01*
Y2344D02*Y5039D01*
X54478Y2344D02*Y5424D01*
Y2344D02*X55633Y3499D01*
X56788Y2344D01*
Y5424D01*
X57713Y3499D02*X58098D01*
X57713Y4269D02*X58098D01*
X60409Y3884D02*X61949Y5424D01*
X60409D02*X61949Y3884D01*
X62874D02*X64414Y5424D01*
X62874D02*X64414Y3884D01*
X65338D02*X66878Y5424D01*
X65338D02*X66878Y3884D01*
X67803D02*X69343Y5424D01*
X67803D02*X69343Y3884D01*
X70268D02*X71808Y5424D01*
X70268D02*X71808Y3884D01*
X32400Y12094D02*X34240D01*
X33320D02*Y15774D01*
X35344Y12094D02*Y15774D01*
X37644Y12094D02*Y15774D01*
X35344Y13934D02*X37644D01*
X38749Y12554D02*Y15774D01*
Y12554D02*X39209Y12094D01*
X40589D01*
X41049Y12554D01*
Y15774D01*
X38749Y13934D02*X41049D01*
X42154Y12094D02*Y15774D01*
Y12094D02*Y12554D01*
X44454Y14854D01*
Y12094D02*Y15774D01*
X45559Y12094D02*Y15774D01*
Y13934D02*X47399Y12094D01*
X45559Y13934D02*X47399Y15774D01*
X50344Y12094D02*X50804Y12554D01*
X48964Y12094D02*X50344D01*
X48504Y12554D02*X48964Y12094D01*
X48504Y12554D02*Y13474D01*
X48964Y13934D01*
X50344D01*
X50804Y14394D01*
Y15314D01*
X50344Y15774D02*X50804Y15314D01*
X48964Y15774D02*X50344D01*
X48504Y15314D02*X48964Y15774D01*
X55405Y12094D02*X55865Y12554D01*
X54025Y12094D02*X55405D01*
X53565Y12554D02*X54025Y12094D01*
X53565Y12554D02*Y15314D01*
X54025Y15774D01*
X55405D01*
X55865Y15314D01*
Y14394D02*Y15314D01*
X55405Y13934D02*X55865Y14394D01*
X54485Y13934D02*X55405D01*
X56970Y12554D02*Y15314D01*
Y12554D02*X57430Y12094D01*
X58350D01*
X58810Y12554D01*
Y15314D01*
X58350Y15774D02*X58810Y15314D01*
X57430Y15774D02*X58350D01*
X56970Y15314D02*X57430Y15774D01*
X61571Y12094D02*X63411D01*
X62491D02*Y15774D01*
X64516Y12554D02*Y15314D01*
Y12554D02*X64976Y12094D01*
X65896D01*
X66356Y12554D01*
Y15314D01*
X65896Y15774D02*X66356Y15314D01*
X64976Y15774D02*X65896D01*
X64516Y15314D02*X64976Y15774D01*
X24600Y17294D02*X25520D01*
X25060D02*Y20974D01*
X24600D02*X25520D01*
X27084Y19594D02*Y20974D01*
Y19594D02*X27544Y19134D01*
X28004D01*
X28464Y19594D01*
Y20974D01*
X26624Y19134D02*X27084Y19594D01*
X31409Y17294D02*Y20974D01*
X30949D02*X31409Y20514D01*
X30029Y20974D02*X30949D01*
X29569Y20514D02*X30029Y20974D01*
X29569Y19594D02*Y20514D01*
Y19594D02*X30029Y19134D01*
X30949D01*
X31409Y19594D01*
X32514Y18214D02*Y18674D01*
Y19594D02*Y20974D01*
X33895D02*X35275D01*
X33435Y20514D02*X33895Y20974D01*
X33435Y19594D02*Y20514D01*
Y19594D02*X33895Y19134D01*
X34815D01*
X35275Y19594D01*
X33435Y20054D02*X35275D01*
Y19594D02*Y20054D01*
X38220Y17294D02*X38680Y17754D01*
X36840Y17294D02*X38220D01*
X36380Y17754D02*X36840Y17294D01*
X36380Y17754D02*Y20514D01*
X36840Y20974D01*
X38220D01*
X38680Y20514D01*
Y19594D02*Y20514D01*
X38220Y19134D02*X38680Y19594D01*
X37300Y19134D02*X38220D01*
X39785Y19594D02*Y20514D01*
Y19594D02*X40245Y19134D01*
X41165D01*
X41625Y19594D01*
Y20514D01*
X41165Y20974D02*X41625Y20514D01*
X40245Y20974D02*X41165D01*
X39785Y20514D02*X40245Y20974D01*
X44570Y17294D02*X45030Y17754D01*
X43190Y17294D02*X44570D01*
X42730Y17754D02*X43190Y17294D01*
X42730Y17754D02*Y20514D01*
X43190Y20974D01*
X44570D01*
X45030Y20514D01*
Y19594D02*Y20514D01*
X44570Y19134D02*X45030Y19594D01*
X43650Y19134D02*X44570D01*
X46135Y19594D02*Y20514D01*
Y19594D02*X46595Y19134D01*
X47515D01*
X47975Y19594D01*
Y20514D01*
X47515Y20974D02*X47975Y20514D01*
X46595Y20974D02*X47515D01*
X46135Y20514D02*X46595Y20974D01*
X50736Y17294D02*Y20974D01*
Y17294D02*X52576D01*
X50736Y19134D02*X52116D01*
X53681Y17294D02*Y20514D01*
X54141Y20974D01*
X55061D01*
X55521Y20514D01*
Y17294D02*Y20514D01*
X56626Y17294D02*Y20974D01*
Y17294D02*Y17754D01*
X58926Y20054D01*
Y17294D02*Y20974D01*
X60491Y17294D02*Y20974D01*
X61871Y17294D02*X62331Y17754D01*
Y20514D01*
X61871Y20974D02*X62331Y20514D01*
X60031Y20974D02*X61871D01*
X60031Y17294D02*X61871D01*
X63435Y19134D02*X64815D01*
X63435Y20974D02*X65275D01*
X63435Y17294D02*Y20974D01*
Y17294D02*X65275D01*
X66380D02*X68220D01*
X68680Y17754D01*
Y18674D01*
X68220Y19134D02*X68680Y18674D01*
X66840Y19134D02*X68220D01*
X66840Y17294D02*Y20974D01*
Y19134D02*X68680Y20974D01*
X71625Y17294D02*X72085Y17754D01*
X70245Y17294D02*X71625D01*
X69785Y17754D02*X70245Y17294D01*
X69785Y17754D02*Y18674D01*
X70245Y19134D01*
X71625D01*
X72085Y19594D01*
Y20514D01*
X71625Y20974D02*X72085Y20514D01*
X70245Y20974D02*X71625D01*
X69785Y20514D02*X70245Y20974D01*
X74846Y18674D02*X75306D01*
X74846Y19594D02*X75306D01*
X76411Y17294D02*X76871Y17754D01*
Y20514D01*
X76411Y20974D02*X76871Y20514D01*
X37341Y43492D02*X37841Y43992D01*
X37341Y40492D02*X37841Y39992D01*
X37341Y40492D02*Y43492D01*
X39042Y40492D02*X39542Y39992D01*
X40542D01*
X41042Y40492D01*
Y43492D01*
X40542Y43992D02*X41042Y43492D01*
X39542Y43992D02*X40542D01*
X39042Y43492D02*X39542Y43992D01*
Y41992D02*X41042D01*
X42243Y43492D02*X42743Y43992D01*
X42243Y40492D02*Y43492D01*
Y40492D02*X42743Y39992D01*
X43743D01*
X44243Y40492D01*
Y43492D01*
X43743Y43992D02*X44243Y43492D01*
X42743Y43992D02*X43743D01*
X42243Y42992D02*X44243Y40992D01*
X45444Y39992D02*X47444D01*
X45444D02*Y41992D01*
X45944Y41492D01*
X46944D01*
X47444Y41992D01*
Y43492D01*
X46944Y43992D02*X47444Y43492D01*
X45944Y43992D02*X46944D01*
X45444Y43492D02*X45944Y43992D01*
X49145Y42492D02*Y43992D01*
Y42492D02*X49645Y41992D01*
X50145D01*
X50645Y42492D01*
Y43992D01*
Y42492D02*X51145Y41992D01*
X51645D01*
X52145Y42492D01*
Y43992D01*
X48645Y41992D02*X49145Y42492D01*
X53346Y40492D02*Y43992D01*
Y40492D02*X53846Y39992D01*
X55346D01*
X55846Y40492D01*
Y43992D01*
X53346Y41992D02*X55846D01*
X59347Y42492D02*Y43992D01*
Y42492D02*X59847Y41992D01*
X60347D01*
X60847Y42492D01*
Y43992D01*
Y42492D02*X61347Y41992D01*
X61847D01*
X62347Y42492D01*
Y43992D01*
X58847Y41992D02*X59347Y42492D01*
X65048Y41992D02*X65548Y42492D01*
X64048Y41992D02*X65048D01*
X63548Y42492D02*X64048Y41992D01*
X63548Y42492D02*Y43492D01*
X64048Y43992D01*
X65548Y41992D02*Y43492D01*
X66048Y43992D01*
X64048D02*X65048D01*
X65548Y43492D01*
X67249Y41992D02*X69249Y43992D01*
X67249D02*X69249Y41992D01*
X70450Y43992D02*X70950D01*
X72151Y39992D02*X72651Y40492D01*
Y43492D01*
X72151Y43992D02*X72651Y43492D01*
X7205Y66582D02*Y70262D01*
X6745D02*X7205Y69802D01*
X5825Y70262D02*X6745D01*
X5365Y69802D02*X5825Y70262D01*
X5365Y68882D02*Y69802D01*
Y68882D02*X5825Y68422D01*
X6745D01*
X7205Y68882D01*
X8769Y70262D02*X10149D01*
X10609Y69802D01*
X10149Y69342D02*X10609Y69802D01*
X8769Y69342D02*X10149D01*
X8309Y68882D02*X8769Y69342D01*
X8309Y68882D02*X8769Y68422D01*
X10149D01*
X10609Y68882D01*
X8309Y69802D02*X8769Y70262D01*
X12174Y66582D02*Y70262D01*
X11714Y66582D02*X13554D01*
X14014Y67042D01*
Y67962D01*
X13554Y68422D02*X14014Y67962D01*
X12174Y68422D02*X13554D01*
X15119Y66582D02*X16039D01*
X15579D02*Y70262D01*
X15119D02*X16039D01*
X17604D02*X18984D01*
X17144Y69802D02*X17604Y70262D01*
X17144Y67042D02*Y69802D01*
Y67042D02*X17604Y66582D01*
X18984D01*
X20089Y67042D02*X20549Y66582D01*
X21469D01*
X21929Y67042D01*
Y69802D01*
X21469Y70262D02*X21929Y69802D01*
X20549Y70262D02*X21469D01*
X20089Y69802D02*X20549Y70262D01*
Y68422D02*X21929D01*
X23034Y67042D02*X23494Y66582D01*
X24414D01*
X24874Y67042D01*
Y69802D01*
X24414Y70262D02*X24874Y69802D01*
X23494Y70262D02*X24414D01*
X23034Y69802D02*X23494Y70262D01*
Y68422D02*X24874D01*
X25979Y66582D02*Y70262D01*
Y66582D02*X27819D01*
X25979Y68422D02*X27359D01*
X30580Y66582D02*X31500D01*
X31040D02*Y70262D01*
X30580D02*X31500D01*
X33065D02*X34445D01*
X32605Y69802D02*X33065Y70262D01*
X32605Y67042D02*Y69802D01*
Y67042D02*X33065Y66582D01*
X34445D01*
X37390D02*X37850Y67042D01*
X36010Y66582D02*X37390D01*
X35550Y67042D02*X36010Y66582D01*
X35550Y67042D02*Y67962D01*
X36010Y68422D01*
X37390D01*
X37850Y68882D01*
Y69802D01*
X37390Y70262D02*X37850Y69802D01*
X36010Y70262D02*X37390D01*
X35550Y69802D02*X36010Y70262D01*
X39415Y66582D02*Y70262D01*
X38955Y66582D02*X40795D01*
X41255Y67042D01*
Y67962D01*
X40795Y68422D02*X41255Y67962D01*
X39415Y68422D02*X40795D01*
X42360Y69802D02*X45120Y67042D01*
X46224Y66582D02*X47144D01*
X46684D02*Y70262D01*
X46224D02*X47144D01*
X48709D02*X50089D01*
X48249Y69802D02*X48709Y70262D01*
X48249Y67042D02*Y69802D01*
Y67042D02*X48709Y66582D01*
X50089D01*
X51654D02*Y70262D01*
X53034Y66582D02*X53494Y67042D01*
Y69802D01*
X53034Y70262D02*X53494Y69802D01*
X51194Y70262D02*X53034D01*
X51194Y66582D02*X53034D01*
X14960Y40475D02*X15460Y39975D01*
X16460D01*
X16960Y40475D01*
Y43475D01*
X16460Y43975D02*X16960Y43475D01*
X15460Y43975D02*X16460D01*
X14960Y43475D02*X15460Y43975D01*
Y41975D02*X16960D01*
X18161Y39975D02*Y42975D01*
X19161Y43975D01*
X20161Y42975D01*
Y39975D02*Y42975D01*
X21362Y40475D02*X21862Y39975D01*
X22862D01*
X23362Y40475D01*
Y43475D01*
X22862Y43975D02*X23362Y43475D01*
X21862Y43975D02*X22862D01*
X21362Y43475D02*X21862Y43975D01*
Y41975D02*X23362D01*
X26363Y40475D02*Y43475D01*
Y40475D02*X26863Y39975D01*
X27863D01*
X28363Y40475D01*
Y43475D01*
X27863Y43975D02*X28363Y43475D01*
X26863Y43975D02*X27863D01*
X26363Y43475D02*X26863Y43975D01*
X29564Y39975D02*Y43475D01*
X30064Y43975D01*
X31064D01*
X31564Y43475D01*
Y39975D02*Y43475D01*
X32765Y39975D02*X34765D01*
X33765D02*Y43975D01*
X14961Y51259D02*X16961D01*
X17461Y50759D01*
Y49759D02*Y50759D01*
X16961Y49259D02*X17461Y49759D01*
X15461Y49259D02*X16961D01*
X15461Y47259D02*Y51259D01*
X14961Y47259D02*X16961D01*
X17461Y47759D01*
Y48759D01*
X16961Y49259D02*X17461Y48759D01*
X18662Y47759D02*Y51259D01*
Y47759D02*X19162Y47259D01*
X20662D01*
X21162Y47759D01*
Y51259D01*
X18662Y49259D02*X21162D01*
X22363Y47259D02*X24363D01*
X23363D02*Y51259D01*
X25564Y47259D02*X27564D01*
X26564D02*Y51259D01*
X28765Y49259D02*X30265D01*
X28765Y51259D02*X30765D01*
X28765Y47259D02*Y51259D01*
Y47259D02*X30765D01*
X31966D02*X33966D01*
X34466Y47759D01*
Y48759D01*
X33966Y49259D02*X34466Y48759D01*
X32466Y49259D02*X33966D01*
X32466Y47259D02*Y51259D01*
Y49259D02*X34466Y51259D01*
X35667Y47259D02*Y47759D01*
X36667Y48759D01*
X37667Y47759D01*
Y47259D02*Y47759D01*
X36667Y48759D02*Y51259D01*
X40668Y47259D02*X41668D01*
X41168D02*Y51259D01*
X40668D02*X41668D01*
X42869Y47259D02*Y51259D01*
Y47259D02*Y47759D01*
X45369Y50259D01*
Y47259D02*Y51259D01*
X14961Y54574D02*X16961Y52574D01*
X14961Y54574D02*X17461D01*
X16961Y52574D02*Y56574D01*
X18662D02*X19162D01*
X20363D02*X22363Y54574D01*
Y53074D02*Y54574D01*
X21863Y52574D02*X22363Y53074D01*
X20863Y52574D02*X21863D01*
X20363Y53074D02*X20863Y52574D01*
X20363Y53074D02*Y54074D01*
X20863Y54574D01*
X22363D01*
X23564Y52574D02*Y55574D01*
X24564Y56574D01*
X25564Y55574D01*
Y52574D02*Y55574D01*
X26765Y54574D02*X28765D01*
X29966Y53074D02*X30466Y52574D01*
X31466D01*
X31966Y53074D01*
Y56074D01*
X31466Y56574D02*X31966Y56074D01*
X30466Y56574D02*X31466D01*
X29966Y56074D02*X30466Y56574D01*
Y54574D02*X31966D01*
X33167D02*X35167Y52574D01*
X33167Y54574D02*X35667D01*
X35167Y52574D02*Y56574D01*
X36868Y52574D02*Y55574D01*
X37868Y56574D01*
X38868Y55574D01*
Y52574D02*Y55574D01*
X42369Y52574D02*Y56574D01*
X43869Y52574D02*X44369Y53074D01*
Y56074D01*
X43869Y56574D02*X44369Y56074D01*
X41869Y56574D02*X43869D01*
X41869Y52574D02*X43869D01*
X46070Y56574D02*X47570D01*
X45570Y56074D02*X46070Y56574D01*
X45570Y53074D02*Y56074D01*
Y53074D02*X46070Y52574D01*
X47570D01*
X15460Y33739D02*X16960D01*
X14960Y33239D02*X15460Y33739D01*
X14960Y30239D02*Y33239D01*
Y30239D02*X15460Y29739D01*
X16960D01*
X18161Y30239D02*Y33239D01*
Y30239D02*X18661Y29739D01*
X19661D01*
X20161Y30239D01*
Y33239D01*
X19661Y33739D02*X20161Y33239D01*
X18661Y33739D02*X19661D01*
X18161Y33239D02*X18661Y33739D01*
X21362Y29739D02*Y33739D01*
Y29739D02*X22862Y31239D01*
X24362Y29739D01*
Y33739D01*
X25563Y29739D02*Y33739D01*
Y29739D02*X27063Y31239D01*
X28563Y29739D01*
Y33739D01*
X29764Y30239D02*Y33239D01*
Y30239D02*X30264Y29739D01*
X31264D01*
X31764Y30239D01*
Y33239D01*
X31264Y33739D02*X31764Y33239D01*
X30264Y33739D02*X31264D01*
X29764Y33239D02*X30264Y33739D01*
X32965Y29739D02*Y33739D01*
Y29739D02*Y30239D01*
X35465Y32739D01*
Y29739D02*Y33739D01*
X38466Y33239D02*X41466Y30239D01*
X46467Y29739D02*X46967Y30239D01*
X44967Y29739D02*X46467D01*
X44467Y30239D02*X44967Y29739D01*
X44467Y30239D02*Y33239D01*
X44967Y33739D01*
X46467D01*
X46967Y33239D01*
Y32239D02*Y33239D01*
X46467Y31739D02*X46967Y32239D01*
X45467Y31739D02*X46467D01*
X48168Y29739D02*Y33739D01*
Y29739D02*Y30239D01*
X50668Y32739D01*
Y29739D02*Y33739D01*
X52369Y29739D02*Y33739D01*
X53869Y29739D02*X54369Y30239D01*
Y33239D01*
X53869Y33739D02*X54369Y33239D01*
X51869Y33739D02*X53869D01*
X51869Y29739D02*X53869D01*
X61200Y51694D02*Y55374D01*
Y51694D02*Y52154D01*
X63500Y54454D01*
Y51694D02*Y55374D01*
X64604Y53534D02*X65984D01*
X64604Y55374D02*X66444D01*
X64604Y51694D02*Y55374D01*
Y51694D02*X66444D01*
X67549D02*Y54454D01*
X68469Y55374D01*
X69389Y54454D01*
Y51694D02*Y54454D01*
X70494Y53534D02*X71874D01*
X70494Y55374D02*X72334D01*
X70494Y51694D02*Y55374D01*
Y51694D02*X72334D01*
X73439D02*X75279D01*
X75739Y52154D01*
Y53074D01*
X75279Y53534D02*X75739Y53074D01*
X73899Y53534D02*X75279D01*
X73899Y51694D02*Y55374D01*
Y53534D02*X75739Y55374D01*
X78500Y53534D02*X79880D01*
X78500Y55374D02*X80340D01*
X78500Y51694D02*Y55374D01*
Y51694D02*X80340D01*
X81445D02*Y52154D01*
X83745Y54454D01*
Y55374D01*
X81445Y54454D02*Y55374D01*
Y54454D02*X83745Y52154D01*
Y51694D02*Y52154D01*
X85310Y55374D02*X86690D01*
X84850Y54914D02*X85310Y55374D01*
X84850Y52154D02*Y54914D01*
Y52154D02*X85310Y51694D01*
X86690D01*
X87795Y53534D02*X89175D01*
X87795Y55374D02*X89635D01*
X87795Y51694D02*Y55374D01*
Y51694D02*X89635D01*
X90740Y53534D02*X92120D01*
X90740Y55374D02*X92580D01*
X90740Y51694D02*Y55374D01*
Y51694D02*X92580D01*
X94145D02*Y55374D01*
X95525Y51694D02*X95985Y52154D01*
Y54914D01*
X95525Y55374D02*X95985Y54914D01*
X93685Y55374D02*X95525D01*
X93685Y51694D02*X95525D01*
X98746Y52154D02*X99206Y51694D01*
X100126D01*
X100586Y52154D01*
Y54914D01*
X100126Y55374D02*X100586Y54914D01*
X99206Y55374D02*X100126D01*
X98746Y54914D02*X99206Y55374D01*
Y53534D02*X100586D01*
X103071Y51694D02*X103531Y52154D01*
X102151Y51694D02*X103071D01*
X101691Y52154D02*X102151Y51694D01*
X101691Y52154D02*Y54914D01*
X102151Y55374D01*
X103071Y53534D02*X103531Y53994D01*
X101691Y53534D02*X103071D01*
X102151Y55374D02*X103071D01*
X103531Y54914D01*
Y53994D02*Y54914D01*
X104635Y51694D02*Y54454D01*
X105555Y55374D01*
X106475Y54454D01*
Y51694D02*Y54454D01*
X30594Y77286D02*Y80326D01*
Y79186D02*X30974Y78806D01*
X31734D01*
X32114Y79186D01*
Y80326D01*
X33406Y77286D02*Y79946D01*
X33786Y80326D01*
X33026Y78426D02*X33786D01*
X34927Y77286D02*Y79946D01*
X35307Y80326D01*
X34547Y78426D02*X35307D01*
X36448Y79186D02*Y81466D01*
X36068Y78806D02*X36448Y79186D01*
X36828Y78806D01*
X37588D01*
X37968Y79186D01*
Y79946D01*
X37588Y80326D02*X37968Y79946D01*
X36828Y80326D02*X37588D01*
X36448Y79946D02*X36828Y80326D01*
X38881Y78426D02*X39261D01*
X38881Y79186D02*X39261D01*
X40173Y79946D02*X42453Y77666D01*
X43366Y79946D02*X45646Y77666D01*
X46559Y78806D02*Y79946D01*
X46939Y80326D01*
X47319D01*
X47699Y79946D01*
Y78806D02*Y79946D01*
X48079Y80326D01*
X48459D01*
X48839Y79946D01*
Y78806D02*Y79946D01*
X49752Y78806D02*Y79946D01*
X50132Y80326D01*
X50512D01*
X50892Y79946D01*
Y78806D02*Y79946D01*
X51272Y80326D01*
X51652D01*
X52032Y79946D01*
Y78806D02*Y79946D01*
X52944Y78806D02*Y79946D01*
X53324Y80326D01*
X53704D01*
X54084Y79946D01*
Y78806D02*Y79946D01*
X54464Y80326D01*
X54844D01*
X55224Y79946D01*
Y78806D02*Y79946D01*
X56137Y80326D02*X56517D01*
X57810D02*X58950D01*
X59330Y79946D01*
X58950Y79566D02*X59330Y79946D01*
X57810Y79566D02*X58950D01*
X57430Y79186D02*X57810Y79566D01*
X57430Y79186D02*X57810Y78806D01*
X58950D01*
X59330Y79186D01*
X57430Y79946D02*X57810Y80326D01*
X60243Y78806D02*Y79946D01*
X60623Y80326D01*
X61383D01*
X61763Y79946D01*
Y78806D02*Y79946D01*
X63055Y79186D02*Y81466D01*
X62675Y78806D02*X63055Y79186D01*
X63435Y78806D01*
X64195D01*
X64575Y79186D01*
Y79946D01*
X64195Y80326D02*X64575Y79946D01*
X63435Y80326D02*X64195D01*
X63055Y79946D02*X63435Y80326D01*
X65868D02*X67008D01*
X65488Y79946D02*X65868Y80326D01*
X65488Y79186D02*Y79946D01*
Y79186D02*X65868Y78806D01*
X66628D01*
X67008Y79186D01*
X65488Y79566D02*X67008D01*
Y79186D02*Y79566D01*
X68301Y79186D02*Y80326D01*
Y79186D02*X68681Y78806D01*
X69441D01*
X67921D02*X68301Y79186D01*
X70354Y78806D02*X71874D01*
X72786Y79186D02*Y79946D01*
Y79186D02*X73166Y78806D01*
X73926D01*
X74306Y79186D01*
Y79946D01*
X73926Y80326D02*X74306Y79946D01*
X73166Y80326D02*X73926D01*
X72786Y79946D02*X73166Y80326D01*
X75599D02*X76739D01*
X77119Y79946D01*
X76739Y79566D02*X77119Y79946D01*
X75599Y79566D02*X76739D01*
X75219Y79186D02*X75599Y79566D01*
X75219Y79186D02*X75599Y78806D01*
X76739D01*
X77119Y79186D01*
X75219Y79946D02*X75599Y80326D01*
X79552Y77286D02*Y80326D01*
X79172D02*X79552Y79946D01*
X78412Y80326D02*X79172D01*
X78032Y79946D02*X78412Y80326D01*
X78032Y79186D02*Y79946D01*
Y79186D02*X78412Y78806D01*
X79172D01*
X79552Y79186D01*
X80465Y80326D02*X80845D01*
X82137Y78806D02*X83277D01*
X81757Y79186D02*X82137Y78806D01*
X81757Y79186D02*Y79946D01*
X82137Y80326D01*
X83277D01*
X84190Y79186D02*Y79946D01*
Y79186D02*X84570Y78806D01*
X85330D01*
X85710Y79186D01*
Y79946D01*
X85330Y80326D02*X85710Y79946D01*
X84570Y80326D02*X85330D01*
X84190Y79946D02*X84570Y80326D01*
X87003Y79186D02*Y80326D01*
Y79186D02*X87383Y78806D01*
X87763D01*
X88143Y79186D01*
Y80326D01*
Y79186D02*X88523Y78806D01*
X88903D01*
X89283Y79186D01*
Y80326D01*
X86623Y78806D02*X87003Y79186D01*
X90196Y79946D02*X92476Y77666D01*
X30597Y81726D02*Y84766D01*
Y83626D02*X30977Y83246D01*
X31737D01*
X32117Y83626D01*
Y84766D01*
X33409Y81726D02*Y84386D01*
X33789Y84766D01*
X33029Y82866D02*X33789D01*
X34930Y81726D02*Y84386D01*
X35310Y84766D01*
X34550Y82866D02*X35310D01*
X36451Y83626D02*Y85906D01*
X36071Y83246D02*X36451Y83626D01*
X36831Y83246D01*
X37591D01*
X37971Y83626D01*
Y84386D01*
X37591Y84766D02*X37971Y84386D01*
X36831Y84766D02*X37591D01*
X36451Y84386D02*X36831Y84766D01*
X38884Y82866D02*X39264D01*
X38884Y83626D02*X39264D01*
X40176Y84386D02*X42456Y82106D01*
X43369Y84386D02*X45649Y82106D01*
X46942Y83246D02*X48082D01*
X46562Y83626D02*X46942Y83246D01*
X46562Y83626D02*Y84386D01*
X46942Y84766D01*
X48082D01*
X48995Y83626D02*Y84386D01*
Y83626D02*X49375Y83246D01*
X50135D01*
X50515Y83626D01*
Y84386D01*
X50135Y84766D02*X50515Y84386D01*
X49375Y84766D02*X50135D01*
X48995Y84386D02*X49375Y84766D01*
X52947Y81726D02*Y84766D01*
X52567D02*X52947Y84386D01*
X51807Y84766D02*X52567D01*
X51427Y84386D02*X51807Y84766D01*
X51427Y83626D02*Y84386D01*
Y83626D02*X51807Y83246D01*
X52567D01*
X52947Y83626D01*
X54240Y84766D02*X55380D01*
X53860Y84386D02*X54240Y84766D01*
X53860Y83626D02*Y84386D01*
Y83626D02*X54240Y83246D01*
X55000D01*
X55380Y83626D01*
X53860Y84006D02*X55380D01*
Y83626D02*Y84006D01*
X56293Y84766D02*X56673D01*
X58726Y83246D02*X59106Y83626D01*
X57966Y83246D02*X58726D01*
X57586Y83626D02*X57966Y83246D01*
X57586Y83626D02*Y84386D01*
X57966Y84766D01*
X58726D01*
X59106Y84386D01*
X57586Y85526D02*X57966Y85906D01*
X58726D01*
X59106Y85526D01*
Y83246D02*Y85526D01*
X60018Y83626D02*Y84386D01*
Y83626D02*X60398Y83246D01*
X61158D01*
X61538Y83626D01*
Y84386D01*
X61158Y84766D02*X61538Y84386D01*
X60398Y84766D02*X61158D01*
X60018Y84386D02*X60398Y84766D01*
X62451Y83626D02*Y84386D01*
Y83626D02*X62831Y83246D01*
X63591D01*
X63971Y83626D01*
Y84386D01*
X63591Y84766D02*X63971Y84386D01*
X62831Y84766D02*X63591D01*
X62451Y84386D02*X62831Y84766D01*
X66024Y83246D02*X66404Y83626D01*
X65264Y83246D02*X66024D01*
X64884Y83626D02*X65264Y83246D01*
X64884Y83626D02*Y84386D01*
X65264Y84766D01*
X66024D01*
X66404Y84386D01*
X64884Y85526D02*X65264Y85906D01*
X66024D01*
X66404Y85526D01*
Y83246D02*Y85526D01*
X67317Y81726D02*Y84386D01*
X67697Y84766D01*
X68837D02*X69977D01*
X68457Y84386D02*X68837Y84766D01*
X68457Y83626D02*Y84386D01*
Y83626D02*X68837Y83246D01*
X69597D01*
X69977Y83626D01*
X68457Y84006D02*X69977D01*
Y83626D02*Y84006D01*
X70890Y84766D02*X71270D01*
X72563Y83246D02*X73703D01*
X72183Y83626D02*X72563Y83246D01*
X72183Y83626D02*Y84386D01*
X72563Y84766D01*
X73703D01*
X74616Y83626D02*Y84386D01*
Y83626D02*X74996Y83246D01*
X75756D01*
X76136Y83626D01*
Y84386D01*
X75756Y84766D02*X76136Y84386D01*
X74996Y84766D02*X75756D01*
X74616Y84386D02*X74996Y84766D01*
X77428Y83626D02*Y84766D01*
Y83626D02*X77808Y83246D01*
X78188D01*
X78568Y83626D01*
Y84766D01*
Y83626D02*X78948Y83246D01*
X79328D01*
X79708Y83626D01*
Y84766D01*
X77048Y83246D02*X77428Y83626D01*
X80621Y84386D02*X82901Y82106D01*
X84194Y83626D02*Y85906D01*
X83814Y83246D02*X84194Y83626D01*
X84574Y83246D01*
X85334D01*
X85714Y83626D01*
Y84386D01*
X85334Y84766D02*X85714Y84386D01*
X84574Y84766D02*X85334D01*
X84194Y84386D02*X84574Y84766D01*
X86627Y84386D02*X88907Y82106D01*
X90200Y84766D02*X91340D01*
X91720Y84386D01*
X91340Y84006D02*X91720Y84386D01*
X90200Y84006D02*X91340D01*
X89820Y83626D02*X90200Y84006D01*
X89820Y83626D02*X90200Y83246D01*
X91340D01*
X91720Y83626D01*
X89820Y84386D02*X90200Y84766D01*
X92632Y83246D02*Y84386D01*
X93012Y84766D01*
X93772D01*
X94152Y84386D01*
Y83246D02*Y84386D01*
X95445Y83626D02*Y85906D01*
X95065Y83246D02*X95445Y83626D01*
X95825Y83246D01*
X96585D01*
X96965Y83626D01*
Y84386D01*
X96585Y84766D02*X96965Y84386D01*
X95825Y84766D02*X96585D01*
X95445Y84386D02*X95825Y84766D01*
X98258D02*X99398D01*
X97878Y84386D02*X98258Y84766D01*
X97878Y83626D02*Y84386D01*
Y83626D02*X98258Y83246D01*
X99018D01*
X99398Y83626D01*
X97878Y84006D02*X99398D01*
Y83626D02*Y84006D01*
X100691Y83626D02*Y84766D01*
Y83626D02*X101071Y83246D01*
X101831D01*
X100311D02*X100691Y83626D01*
X102743Y83246D02*X104263D01*
X105176Y83626D02*Y84386D01*
Y83626D02*X105556Y83246D01*
X106316D01*
X106696Y83626D01*
Y84386D01*
X106316Y84766D02*X106696Y84386D01*
X105556Y84766D02*X106316D01*
X105176Y84386D02*X105556Y84766D01*
X107989D02*X109129D01*
X109509Y84386D01*
X109129Y84006D02*X109509Y84386D01*
X107989Y84006D02*X109129D01*
X107609Y83626D02*X107989Y84006D01*
X107609Y83626D02*X107989Y83246D01*
X109129D01*
X109509Y83626D01*
X107609Y84386D02*X107989Y84766D01*
X111942Y81726D02*Y84766D01*
X111562D02*X111942Y84386D01*
X110802Y84766D02*X111562D01*
X110422Y84386D02*X110802Y84766D01*
X110422Y83626D02*Y84386D01*
Y83626D02*X110802Y83246D01*
X111562D01*
X111942Y83626D01*
X112854Y84386D02*X115134Y82106D01*
X5752Y28312D02*X7252D01*
X5252Y27812D02*X5752Y28312D01*
X5252Y24812D02*Y27812D01*
Y24812D02*X5752Y24312D01*
X7252D01*
X8453D02*Y28312D01*
Y24312D02*Y24812D01*
X10953Y27312D01*
Y24312D02*Y28312D01*
X12654D02*X13654D01*
X13154Y24312D02*Y28312D01*
X12154Y25312D02*X13154Y24312D01*
X5175Y101897D02*Y104897D01*
X6175Y105897D01*
X7175Y104897D01*
Y101897D02*Y104897D01*
X8376Y101897D02*X9376D01*
X8876D02*Y105897D01*
X8376D02*X9376D01*
X10577Y102397D02*X11077Y101897D01*
X12577D01*
X13077Y102397D01*
Y103397D01*
X10577Y105897D02*X13077Y103397D01*
X10577Y105897D02*X13077D01*
X141247Y73497D02*X142747D01*
X140747Y72997D02*X141247Y73497D01*
X140747Y69997D02*Y72997D01*
Y69997D02*X141247Y69497D01*
X142747D01*
X143948D02*Y73497D01*
Y69497D02*Y69997D01*
X146448Y72497D01*
Y69497D02*Y73497D01*
X147649Y72997D02*X148149Y73497D01*
X147649Y71997D02*Y72997D01*
Y71997D02*X148149Y71497D01*
X149149D01*
X149649Y71997D01*
Y72997D01*
X149149Y73497D02*X149649Y72997D01*
X148149Y73497D02*X149149D01*
X147649Y70997D02*X148149Y71497D01*
X147649Y69997D02*Y70997D01*
Y69997D02*X148149Y69497D01*
X149149D01*
X149649Y69997D01*
Y70997D01*
X149149Y71497D02*X149649Y70997D01*
X58965Y148237D02*X62465D01*
X58965D02*X58465Y147737D01*
Y146237D02*Y147737D01*
Y146237D02*X58965Y145737D01*
X62465D01*
X60465D02*Y148237D01*
X58465Y144536D02*X61965D01*
X62465Y144036D01*
Y143036D02*Y144036D01*
Y143036D02*X61965Y142536D01*
X58465D02*X61965D01*
X62465Y139835D02*Y140835D01*
X58465Y140335D02*X62465D01*
X59465Y141335D02*X58465Y140335D01*
X92919Y147893D02*X96919D01*
X92919Y146393D02*Y148393D01*
Y146393D02*X93419Y145893D01*
X94419D01*
X94919Y146393D02*X94419Y145893D01*
X94919Y146393D02*Y147893D01*
X92919Y144192D02*X96919D01*
X92919Y142692D02*Y144692D01*
Y142692D02*X93419Y142192D01*
X94419D01*
X94919Y142692D02*X94419Y142192D01*
X94919Y142692D02*Y144192D01*
X92919Y140991D02*X96919D01*
X92919D02*X94419Y139491D01*
X92919Y137991D01*
X96919D01*
X93419Y136790D02*X92919Y136290D01*
Y134790D02*Y136290D01*
Y134790D02*X93419Y134290D01*
X94419D01*
X96919Y136790D02*X94419Y134290D01*
X96919D02*Y136790D01*
X134580Y147237D02*Y148737D01*
X134080Y149237D02*X134580Y148737D01*
X131080Y149237D02*X134080D01*
X131080D02*X130580Y148737D01*
Y147237D02*Y148737D01*
Y146036D02*X134580D01*
X130580D02*X131080D01*
X133580Y143536D01*
X130580D02*X134580D01*
X130580Y140335D02*Y142335D01*
X132580D01*
X132080Y141835D01*
Y140835D02*Y141835D01*
Y140835D02*X132580Y140335D01*
X134080D01*
X134580Y140835D02*X134080Y140335D01*
X134580Y140835D02*Y141835D01*
X134080Y142335D02*X134580Y141835D01*
X193594Y81070D02*X195094D01*
X193094Y80570D02*X193594Y81070D01*
X193094Y77570D02*Y80570D01*
Y77570D02*X193594Y77070D01*
X195094D01*
X196295D02*Y81070D01*
Y77070D02*Y77570D01*
X198795Y80070D01*
Y77070D02*Y81070D01*
X199996D02*X201996Y79070D01*
Y77570D02*Y79070D01*
X201496Y77070D02*X201996Y77570D01*
X200496Y77070D02*X201496D01*
X199996Y77570D02*X200496Y77070D01*
X199996Y77570D02*Y78570D01*
X200496Y79070D01*
X201996D01*
X189060Y18270D02*Y19770D01*
X188560Y20270D02*X189060Y19770D01*
X185560Y20270D02*X188560D01*
X185560D02*X185060Y19770D01*
Y18270D02*Y19770D01*
Y17069D02*X189060D01*
X185060D02*X185560D01*
X188060Y14569D01*
X185060D02*X189060D01*
Y13368D02*X186560Y10868D01*
X185060D02*X186560D01*
X185060D02*Y13368D01*
X174899Y61260D02*X176399D01*
X174399Y60760D02*X174899Y61260D01*
X174399Y57760D02*Y60760D01*
Y57760D02*X174899Y57260D01*
X176399D01*
X177600D02*Y61260D01*
Y57260D02*Y57760D01*
X180100Y60260D01*
Y57260D02*Y61260D01*
X181801D02*X182801D01*
X182301Y57260D02*Y61260D01*
X181301Y58260D02*X182301Y57260D01*
X184002Y60760D02*X184502Y61260D01*
X184002Y57760D02*Y60760D01*
Y57760D02*X184502Y57260D01*
X185502D01*
X186002Y57760D01*
Y60760D01*
X185502Y61260D02*X186002Y60760D01*
X184502Y61260D02*X185502D01*
X184002Y60260D02*X186002Y58260D01*
M02*
