G04 start of page 8 for group -4078 idx -4078 *
G04 Title: (unknown), bottomsilk *
G04 Creator: pcb 20091103 *
G04 CreationDate: Fri 28 Jan 2011 22:02:30 GMT UTC *
G04 For: thomas *
G04 Format: Gerber/RS-274X *
G04 PCB-Dimensions: 179130 179130 *
G04 PCB-Coordinate-Origin: lower left *
%MOIN*%
%FSLAX25Y25*%
%LNBACKSILK*%
%ADD49C,0.0060*%
G54D49*X122835Y48092D02*X124715D01*
X125843Y49972D02*X127723Y48092D01*
Y46682D02*Y48092D01*
X127253Y46212D02*X127723Y46682D01*
X126313Y46212D02*X127253D01*
X125843Y46682D02*X126313Y46212D01*
X125843Y46682D02*Y47622D01*
X126313Y48092D01*
X127723D01*
X128852Y46212D02*Y49032D01*
X129792Y49972D01*
X130732Y49032D01*
Y46212D02*Y49032D01*
X129604Y35011D02*X130544D01*
X130074Y31251D02*Y35011D01*
X129134Y32191D02*X130074Y31251D01*
X131672Y31721D02*X132142Y31251D01*
X133552D01*
X134022Y31721D01*
Y32661D01*
X131672Y35011D02*X134022Y32661D01*
X131672Y35011D02*X134022D01*
X135151D02*X135621D01*
X136750Y31721D02*X137220Y31251D01*
X138160D01*
X138630Y31721D01*
Y34541D01*
X138160Y35011D02*X138630Y34541D01*
X137220Y35011D02*X138160D01*
X136750Y34541D02*X137220Y35011D01*
Y33131D02*X138630D01*
X139759Y35011D02*X142109Y32661D01*
Y31251D02*Y32661D01*
X139759Y31251D02*X142109D01*
X143238D02*Y34071D01*
X144178Y35011D01*
X145118Y34071D01*
Y31251D02*Y34071D01*
X139840Y49972D02*X140780D01*
X140310Y46212D02*Y49972D01*
X139370Y47152D02*X140310Y46212D01*
X141908Y46682D02*X142378Y46212D01*
X143788D01*
X144258Y46682D01*
Y47622D01*
X141908Y49972D02*X144258Y47622D01*
X141908Y49972D02*X144258D01*
X145387D02*X145857D01*
X146986Y46682D02*X147456Y46212D01*
X148396D01*
X148866Y46682D01*
Y49502D01*
X148396Y49972D02*X148866Y49502D01*
X147456Y49972D02*X148396D01*
X146986Y49502D02*X147456Y49972D01*
Y48092D02*X148866D01*
X149995Y49972D02*X152345Y47622D01*
Y46212D02*Y47622D01*
X149995Y46212D02*X152345D01*
X153474D02*Y49032D01*
X154414Y49972D01*
X155354Y49032D01*
Y46212D02*Y49032D01*
X127559Y58022D02*X129439D01*
X128499D02*Y61782D01*
X130567Y58022D02*X131507D01*
X131037D02*Y61782D01*
X130567D02*X131507D01*
X133106Y58022D02*Y61782D01*
X132636Y58022D02*X134516D01*
X134986Y58492D01*
Y59432D01*
X134516Y59902D02*X134986Y59432D01*
X133106Y59902D02*X134516D01*
X136115Y58492D02*X136585Y58022D01*
X137525D01*
X137995Y58492D01*
Y61312D01*
X137525Y61782D02*X137995Y61312D01*
X136585Y61782D02*X137525D01*
X136115Y61312D02*X136585Y61782D01*
Y59902D02*X137995D01*
X139594Y61782D02*X140534D01*
X140064Y58022D02*Y61782D01*
X139124Y58962D02*X140064Y58022D01*
X59634Y49998D02*Y53758D01*
X61514D01*
X62642Y49998D02*Y53758D01*
Y49998D02*X64052Y51408D01*
X65462Y49998D01*
Y53758D01*
X66591Y50468D02*X67061Y49998D01*
X68001D01*
X68471Y50468D01*
Y53288D01*
X68001Y53758D02*X68471Y53288D01*
X67061Y53758D02*X68001D01*
X66591Y53288D02*X67061Y53758D01*
Y51878D02*X68471D01*
X69600Y50468D02*X70070Y49998D01*
X71480D01*
X71950Y50468D01*
Y51408D01*
X69600Y53758D02*X71950Y51408D01*
X69600Y53758D02*X71950D01*
X73079Y51878D02*X74959Y49998D01*
X73079Y51878D02*X75429D01*
X74959Y49998D02*Y53758D01*
X58048Y56705D02*Y59525D01*
Y56705D02*X58518Y56235D01*
X59458D01*
X59928Y56705D01*
Y59525D01*
X59458Y59995D02*X59928Y59525D01*
X58518Y59995D02*X59458D01*
X58048Y59525D02*X58518Y59995D01*
X61526Y56235D02*Y59995D01*
X61056Y56235D02*X62936D01*
X63406Y56705D01*
Y57645D01*
X62936Y58115D02*X63406Y57645D01*
X61526Y58115D02*X62936D01*
X64535D02*X66415D01*
X67544Y56705D02*Y59995D01*
Y56705D02*X68014Y56235D01*
X69424D01*
X69894Y56705D01*
Y59995D01*
X67544Y58115D02*X69894D01*
X71023Y56235D02*Y59995D01*
Y56235D02*X72433Y57645D01*
X73843Y56235D01*
Y59995D01*
X75442Y56235D02*Y59995D01*
X74972Y56235D02*X76852D01*
X77322Y56705D01*
Y57645D01*
X76852Y58115D02*X77322Y57645D01*
X75442Y58115D02*X76852D01*
X5195Y58022D02*Y61782D01*
X4725Y58022D02*X6605D01*
X7075Y58492D01*
Y59432D01*
X6605Y59902D02*X7075Y59432D01*
X5195Y59902D02*X6605D01*
X8203Y58492D02*Y61312D01*
Y58492D02*X8673Y58022D01*
X9613D01*
X10083Y58492D01*
Y61312D01*
X9613Y61782D02*X10083Y61312D01*
X8673Y61782D02*X9613D01*
X8203Y61312D02*X8673Y61782D01*
X11212Y58022D02*Y61782D01*
X12622Y60372D01*
X14032Y61782D01*
Y58022D02*Y61782D01*
X15161Y59902D02*X16571D01*
X15161Y61782D02*X17041D01*
X15161Y58022D02*Y61782D01*
Y58022D02*X17041D01*
X18170D02*X20050D01*
X20520Y58492D01*
Y59432D01*
X20050Y59902D02*X20520Y59432D01*
X18640Y59902D02*X20050D01*
X18640Y58022D02*Y61782D01*
Y59902D02*X20520Y61782D01*
X154166Y31251D02*X154636Y31721D01*
X153226Y31251D02*X154166D01*
X152756Y31721D02*X153226Y31251D01*
X152756Y31721D02*Y34541D01*
X153226Y35011D01*
X154166Y33131D02*X154636Y33601D01*
X152756Y33131D02*X154166D01*
X153226Y35011D02*X154166D01*
X154636Y34541D01*
Y33601D02*Y34541D01*
X155764Y35011D02*X156234D01*
X157833D02*X158773D01*
X158303Y31251D02*Y35011D01*
X157363Y32191D02*X158303Y31251D01*
X161312D02*X161782Y31721D01*
X160372Y31251D02*X161312D01*
X159902Y31721D02*X160372Y31251D01*
X159902Y31721D02*Y34541D01*
X160372Y35011D01*
X161312Y33131D02*X161782Y33601D01*
X159902Y33131D02*X161312D01*
X160372Y35011D02*X161312D01*
X161782Y34541D01*
Y33601D02*Y34541D01*
X162911Y31251D02*Y34071D01*
X163851Y35011D01*
X164791Y34071D01*
Y31251D02*Y34071D01*
X88190Y15645D02*X88660Y16115D01*
X88190Y12825D02*Y15645D01*
Y12825D02*X88660Y12355D01*
X89600D01*
X90070Y12825D01*
Y15645D01*
X89600Y16115D02*X90070Y15645D01*
X88660Y16115D02*X89600D01*
X88190Y15175D02*X90070Y13295D01*
X91198Y16115D02*X91668D01*
X92797Y12825D02*X93267Y12355D01*
X94677D01*
X95147Y12825D01*
Y13765D01*
X92797Y16115D02*X95147Y13765D01*
X92797Y16115D02*X95147D01*
X96276Y12825D02*Y13295D01*
Y12825D02*X96746Y12355D01*
X97216D01*
X97686Y12825D01*
Y13295D01*
X97216Y13765D02*X97686Y13295D01*
X96746Y13765D02*X97216D01*
X96276Y13295D02*X96746Y13765D01*
X96276Y16115D02*X100036Y12355D01*
X99566Y16115D02*X100036Y15645D01*
Y15175D02*Y15645D01*
X99566Y14705D02*X100036Y15175D01*
X99096Y14705D02*X99566D01*
X98626Y15175D02*X99096Y14705D01*
X98626Y15175D02*Y15645D01*
X99096Y16115D01*
X99566D01*
X102857Y12825D02*Y16115D01*
Y12825D02*X103327Y12355D01*
X104737D01*
X105207Y12825D01*
Y16115D01*
X102857Y14235D02*X105207D01*
X106806Y16115D02*X108216D01*
X106336Y15645D02*X106806Y16115D01*
X106336Y12825D02*Y15645D01*
Y12825D02*X106806Y12355D01*
X108216D01*
X109815Y16115D02*X111225D01*
X109345Y15645D02*X109815Y16115D01*
X109345Y12825D02*Y15645D01*
Y12825D02*X109815Y12355D01*
X111225D01*
X112354D02*Y15645D01*
X112824Y16115D01*
X113764D01*
X114234Y15645D01*
Y12355D02*Y15645D01*
X115363Y12355D02*X117243D01*
X117713Y12825D01*
Y13765D01*
X117243Y14235D02*X117713Y13765D01*
X115833Y14235D02*X117243D01*
X115833Y12355D02*Y16115D01*
Y14235D02*X117713Y16115D01*
X118842Y12825D02*Y16115D01*
Y12825D02*X119312Y12355D01*
X120722D01*
X121192Y12825D01*
Y16115D01*
X118842Y14235D02*X121192D01*
X122321Y12355D02*X124201D01*
X123261D02*Y16115D01*
X125330Y14235D02*X126740D01*
X125330Y16115D02*X127210D01*
X125330Y12355D02*Y16115D01*
Y12355D02*X127210D01*
X130031Y12825D02*Y16115D01*
Y12825D02*X130501Y12355D01*
X131911D01*
X132381Y12825D01*
Y16115D01*
X130031Y14235D02*X132381D01*
X133510Y12355D02*X135390D01*
X134450D02*Y16115D01*
X138681D02*X139621D01*
X139151Y12355D02*Y16115D01*
X138211Y13295D02*X139151Y12355D01*
X140750Y15645D02*X141220Y16115D01*
X140750Y12825D02*Y15645D01*
Y12825D02*X141220Y12355D01*
X142160D01*
X142630Y12825D01*
Y15645D01*
X142160Y16115D02*X142630Y15645D01*
X141220Y16115D02*X142160D01*
X140750Y15175D02*X142630Y13295D01*
X143759Y14235D02*X145639D01*
X146767Y12825D02*X147237Y12355D01*
X148177D01*
X148647Y12825D01*
Y15645D01*
X148177Y16115D02*X148647Y15645D01*
X147237Y16115D02*X148177D01*
X146767Y15645D02*X147237Y16115D01*
Y14235D02*X148647D01*
X149776Y15645D02*X150246Y16115D01*
X149776Y12825D02*Y15645D01*
Y12825D02*X150246Y12355D01*
X151186D01*
X151656Y12825D01*
Y15645D01*
X151186Y16115D02*X151656Y15645D01*
X150246Y16115D02*X151186D01*
X149776Y15175D02*X151656Y13295D01*
X153255Y16115D02*X154665D01*
X152785Y15645D02*X153255Y16115D01*
X152785Y12825D02*Y15645D01*
Y12825D02*X153255Y12355D01*
X154665D01*
X41414Y25561D02*X42354D01*
X41884Y21801D02*Y25561D01*
X40944Y22741D02*X41884Y21801D01*
X43482Y22271D02*X43952Y21801D01*
X45362D01*
X45832Y22271D01*
Y23211D01*
X43482Y25561D02*X45832Y23211D01*
X43482Y25561D02*X45832D01*
X46961D02*X47431D01*
X48560Y22271D02*X49030Y21801D01*
X49970D01*
X50440Y22271D01*
Y25091D01*
X49970Y25561D02*X50440Y25091D01*
X49030Y25561D02*X49970D01*
X48560Y25091D02*X49030Y25561D01*
Y23681D02*X50440D01*
X52979Y21801D02*X53449Y22271D01*
X52039Y21801D02*X52979D01*
X51569Y22271D02*X52039Y21801D01*
X51569Y22271D02*Y25091D01*
X52039Y25561D01*
X52979Y23681D02*X53449Y24151D01*
X51569Y23681D02*X52979D01*
X52039Y25561D02*X52979D01*
X53449Y25091D01*
Y24151D02*Y25091D01*
X54578Y25561D02*X56458Y23681D01*
Y22271D02*Y23681D01*
X55988Y21801D02*X56458Y22271D01*
X55048Y21801D02*X55988D01*
X54578Y22271D02*X55048Y21801D01*
X54578Y22271D02*Y23211D01*
X55048Y23681D01*
X56458D01*
X57587Y25561D02*X59467Y23681D01*
Y22271D02*Y23681D01*
X58997Y21801D02*X59467Y22271D01*
X58057Y21801D02*X58997D01*
X57587Y22271D02*X58057Y21801D01*
X57587Y22271D02*Y23211D01*
X58057Y23681D01*
X59467D01*
X60596Y22271D02*X61066Y21801D01*
X62476D01*
X62946Y22271D01*
Y23211D01*
X60596Y25561D02*X62946Y23211D01*
X60596Y25561D02*X62946D01*
X64075Y21801D02*Y24621D01*
X65015Y25561D01*
X65955Y24621D01*
Y21801D02*Y24621D01*
X45507Y15501D02*X45977Y15971D01*
X44567Y15501D02*X45507D01*
X44097Y15971D02*X44567Y15501D01*
X44097Y15971D02*Y18791D01*
X44567Y19261D01*
X45507Y17381D02*X45977Y17851D01*
X44097Y17381D02*X45507D01*
X44567Y19261D02*X45507D01*
X45977Y18791D01*
Y17851D02*Y18791D01*
X47105Y19261D02*X47575D01*
X49174D02*X50114D01*
X49644Y15501D02*Y19261D01*
X48704Y16441D02*X49644Y15501D01*
X52653D02*X53123Y15971D01*
X51713Y15501D02*X52653D01*
X51243Y15971D02*X51713Y15501D01*
X51243Y15971D02*Y18791D01*
X51713Y19261D01*
X52653Y17381D02*X53123Y17851D01*
X51243Y17381D02*X52653D01*
X51713Y19261D02*X52653D01*
X53123Y18791D01*
Y17851D02*Y18791D01*
X54252Y17381D02*X56132Y15501D01*
X54252Y17381D02*X56602D01*
X56132Y15501D02*Y19261D01*
X57731Y17381D02*X59611Y15501D01*
X57731Y17381D02*X60081D01*
X59611Y15501D02*Y19261D01*
X61210Y18791D02*X61680Y19261D01*
X61210Y17851D02*Y18791D01*
Y17851D02*X61680Y17381D01*
X62620D01*
X63090Y17851D01*
Y18791D01*
X62620Y19261D02*X63090Y18791D01*
X61680Y19261D02*X62620D01*
X61210Y16911D02*X61680Y17381D01*
X61210Y15971D02*Y16911D01*
Y15971D02*X61680Y15501D01*
X62620D01*
X63090Y15971D01*
Y16911D01*
X62620Y17381D02*X63090Y16911D01*
X64219Y15501D02*Y18321D01*
X65159Y19261D01*
X66099Y18321D01*
Y15501D02*Y18321D01*
X44097Y9672D02*X44567Y9202D01*
X45977D01*
X46447Y9672D01*
Y10612D01*
X44097Y12962D02*X46447Y10612D01*
X44097Y12962D02*X46447D01*
X47575D02*X48045D01*
X49174Y12492D02*X49644Y12962D01*
X49174Y9672D02*Y12492D01*
Y9672D02*X49644Y9202D01*
X50584D01*
X51054Y9672D01*
Y12492D01*
X50584Y12962D02*X51054Y12492D01*
X49644Y12962D02*X50584D01*
X49174Y12022D02*X51054Y10142D01*
X52183Y11082D02*X54063Y9202D01*
X52183Y11082D02*X54533D01*
X54063Y9202D02*Y12962D01*
X55662Y12492D02*X56132Y12962D01*
X55662Y11552D02*Y12492D01*
Y11552D02*X56132Y11082D01*
X57072D01*
X57542Y11552D01*
Y12492D01*
X57072Y12962D02*X57542Y12492D01*
X56132Y12962D02*X57072D01*
X55662Y10612D02*X56132Y11082D01*
X55662Y9672D02*Y10612D01*
Y9672D02*X56132Y9202D01*
X57072D01*
X57542Y9672D01*
Y10612D01*
X57072Y11082D02*X57542Y10612D01*
X58671Y9202D02*Y12022D01*
X59611Y12962D01*
X60551Y12022D01*
Y9202D02*Y12022D01*
X114173Y144637D02*X116053D01*
X115113D02*Y148397D01*
X117651D02*X119061D01*
X117181Y147927D02*X117651Y148397D01*
X117181Y145107D02*Y147927D01*
Y145107D02*X117651Y144637D01*
X119061D01*
X120190Y148397D02*X122070Y146517D01*
Y145107D02*Y146517D01*
X121600Y144637D02*X122070Y145107D01*
X120660Y144637D02*X121600D01*
X120190Y145107D02*X120660Y144637D01*
X120190Y145107D02*Y146047D01*
X120660Y146517D01*
X122070D01*
X124609Y144637D02*X125079Y145107D01*
X123669Y144637D02*X124609D01*
X123199Y145107D02*X123669Y144637D01*
X123199Y145107D02*Y147927D01*
X123669Y148397D01*
X124609Y146517D02*X125079Y146987D01*
X123199Y146517D02*X124609D01*
X123669Y148397D02*X124609D01*
X125079Y147927D01*
Y146987D02*Y147927D01*
X126208Y145107D02*X126678Y144637D01*
X128088D01*
X128558Y145107D01*
Y146047D01*
X126208Y148397D02*X128558Y146047D01*
X126208Y148397D02*X128558D01*
X29922Y132178D02*X30392Y132648D01*
X29922Y131238D02*Y132178D01*
Y131238D02*X30392Y130768D01*
X31332D01*
X31802Y131238D01*
Y132178D01*
X31332Y132648D02*X31802Y132178D01*
X30392Y132648D02*X31332D01*
X29922Y130298D02*X30392Y130768D01*
X29922Y129358D02*Y130298D01*
Y129358D02*X30392Y128888D01*
X31332D01*
X31802Y129358D01*
Y130298D01*
X31332Y130768D02*X31802Y130298D01*
X32930Y128888D02*Y131708D01*
X33870Y132648D01*
X34810Y131708D01*
Y128888D02*Y131708D01*
X35939Y130768D02*X37819D01*
X39418Y132648D02*X40358D01*
X39888Y128888D02*Y132648D01*
X38948Y129828D02*X39888Y128888D01*
X41487Y129358D02*X41957Y128888D01*
X43367D01*
X43837Y129358D01*
Y130298D01*
X41487Y132648D02*X43837Y130298D01*
X41487Y132648D02*X43837D01*
X44966Y128888D02*Y131708D01*
X45906Y132648D01*
X46846Y131708D01*
Y128888D02*Y131708D01*
X49667Y129828D02*Y130298D01*
Y131238D02*Y132648D01*
X51078Y131238D02*Y132648D01*
Y131238D02*X51548Y130768D01*
X52018D01*
X52488Y131238D01*
Y132648D01*
X50608Y130768D02*X51078Y131238D01*
X54087D02*Y134058D01*
X53617Y130768D02*X54087Y131238D01*
X54557Y130768D01*
X55497D01*
X55967Y131238D01*
Y132178D01*
X55497Y132648D02*X55967Y132178D01*
X54557Y132648D02*X55497D01*
X54087Y132178D02*X54557Y132648D01*
X57096Y130768D02*Y132178D01*
X57566Y132648D01*
X58506D01*
X58976Y132178D01*
Y130768D02*Y132178D01*
X60575Y128888D02*Y132178D01*
X61045Y132648D01*
X60105Y130298D02*X61045D01*
X113069Y154696D02*X114479D01*
X112599Y154226D02*X113069Y154696D01*
X112599Y151406D02*Y154226D01*
Y151406D02*X113069Y150936D01*
X114479D01*
X115607D02*Y154696D01*
X117957Y150936D02*Y154696D01*
X115607Y152816D02*X117957D01*
X119086Y151406D02*Y154696D01*
Y151406D02*X119556Y150936D01*
X120966D01*
X121436Y151406D01*
Y154696D01*
X119086Y152816D02*X121436D01*
X122565Y150936D02*X124445D01*
X124915Y151406D01*
Y152346D01*
X124445Y152816D02*X124915Y152346D01*
X123035Y152816D02*X124445D01*
X123035Y150936D02*Y154696D01*
Y152816D02*X124915Y154696D01*
X127924Y150936D02*X128394Y151406D01*
X126514Y150936D02*X127924D01*
X126044Y151406D02*X126514Y150936D01*
X126044Y151406D02*Y154226D01*
X126514Y154696D01*
X127924D01*
X128394Y154226D01*
Y153286D02*Y154226D01*
X127924Y152816D02*X128394Y153286D01*
X126984Y152816D02*X127924D01*
X129523D02*X130933D01*
X129523Y154696D02*X131403D01*
X129523Y150936D02*Y154696D01*
Y150936D02*X131403D01*
X116217Y157236D02*Y160996D01*
X115747Y157236D02*X117627D01*
X118097Y157706D01*
Y158646D01*
X117627Y159116D02*X118097Y158646D01*
X116217Y159116D02*X117627D01*
X119225Y157236D02*Y160526D01*
X119695Y160996D01*
X120635D01*
X121105Y160526D01*
Y157236D02*Y160526D01*
X122234Y157236D02*Y160996D01*
Y157236D02*X123644Y158646D01*
X125054Y157236D01*
Y160996D01*
X126653Y157236D02*Y160996D01*
X126183Y157236D02*X128063D01*
X128533Y157706D01*
Y158646D01*
X128063Y159116D02*X128533Y158646D01*
X126653Y159116D02*X128063D01*
X17323Y160994D02*X19203Y159114D01*
Y157704D02*Y159114D01*
X18733Y157234D02*X19203Y157704D01*
X17793Y157234D02*X18733D01*
X17323Y157704D02*X17793Y157234D01*
X17323Y157704D02*Y158644D01*
X17793Y159114D01*
X19203D01*
X20331Y157234D02*Y160054D01*
X21271Y160994D01*
X22211Y160054D01*
Y157234D02*Y160054D01*
X25502Y157234D02*Y160994D01*
X25032Y157234D02*X26912D01*
X27382Y157704D01*
Y158644D01*
X26912Y159114D02*X27382Y158644D01*
X25502Y159114D02*X26912D01*
X28981Y157234D02*Y160994D01*
X28511Y157234D02*X30391D01*
X30861Y157704D01*
Y158644D01*
X30391Y159114D02*X30861Y158644D01*
X28981Y159114D02*X30391D01*
X31990Y157704D02*X32460Y157234D01*
X33400D01*
X33870Y157704D01*
Y160524D01*
X33400Y160994D02*X33870Y160524D01*
X32460Y160994D02*X33400D01*
X31990Y160524D02*X32460Y160994D01*
Y159114D02*X33870D01*
X36691Y157234D02*Y160994D01*
Y160524D02*X37161Y160994D01*
X38101D01*
X38571Y160524D01*
Y159584D02*Y160524D01*
X38101Y159114D02*X38571Y159584D01*
X37161Y159114D02*X38101D01*
X36691Y159584D02*X37161Y159114D01*
X41110D02*X41580Y159584D01*
X40170Y159114D02*X41110D01*
X39700Y159584D02*X40170Y159114D01*
X39700Y159584D02*Y160524D01*
X40170Y160994D01*
X41580Y159114D02*Y160524D01*
X42050Y160994D01*
X40170D02*X41110D01*
X41580Y160524D01*
X43649Y157234D02*Y160524D01*
X44119Y160994D01*
X43179Y158644D02*X44119D01*
X45530Y157234D02*Y160524D01*
X46000Y160994D01*
X45060Y158644D02*X46000D01*
X47411Y160994D02*X48821D01*
X46941Y160524D02*X47411Y160994D01*
X46941Y159584D02*Y160524D01*
Y159584D02*X47411Y159114D01*
X48351D01*
X48821Y159584D01*
X46941Y160054D02*X48821D01*
Y159584D02*Y160054D01*
X50420Y159584D02*Y160994D01*
Y159584D02*X50890Y159114D01*
X51830D01*
X49950D02*X50420Y159584D01*
X52959Y159114D02*Y160524D01*
X53429Y160994D01*
X54839Y159114D02*Y161934D01*
X54369Y162404D02*X54839Y161934D01*
X53429Y162404D02*X54369D01*
X52959Y161934D02*X53429Y162404D01*
Y160994D02*X54369D01*
X54839Y160524D01*
X8344Y93456D02*Y97216D01*
X7874Y93456D02*X9754D01*
X10224Y93926D01*
Y94866D01*
X9754Y95336D02*X10224Y94866D01*
X8344Y95336D02*X9754D01*
X11352Y93456D02*Y97216D01*
X12762Y95806D01*
X14172Y97216D01*
Y93456D02*Y97216D01*
X15301Y93456D02*X17181D01*
X17651Y93926D01*
Y94866D01*
X17181Y95336D02*X17651Y94866D01*
X15771Y95336D02*X17181D01*
X15771Y93456D02*Y97216D01*
Y95336D02*X17651Y97216D01*
X8967Y98967D02*X9437Y99437D01*
X7557Y98967D02*X8967D01*
X7087Y99437D02*X7557Y98967D01*
X7087Y99437D02*Y102257D01*
X7557Y102727D01*
X8967D01*
X9437Y102257D01*
Y101317D02*Y102257D01*
X8967Y100847D02*X9437Y101317D01*
X8027Y100847D02*X8967D01*
X10565Y99437D02*Y102257D01*
Y99437D02*X11035Y98967D01*
X11975D01*
X12445Y99437D01*
Y102257D01*
X11975Y102727D02*X12445Y102257D01*
X11035Y102727D02*X11975D01*
X10565Y102257D02*X11035Y102727D01*
X13574Y99437D02*Y102257D01*
Y99437D02*X14044Y98967D01*
X14984D01*
X15454Y99437D01*
Y102257D01*
X14984Y102727D02*X15454Y102257D01*
X14044Y102727D02*X14984D01*
X13574Y102257D02*X14044Y102727D01*
X17053Y98967D02*Y102727D01*
X18463Y98967D02*X18933Y99437D01*
Y102257D01*
X18463Y102727D02*X18933Y102257D01*
X16583Y102727D02*X18463D01*
X16583Y98967D02*X18463D01*
M02*
