M48
INCH
T13C0.020
T14C0.060
T25C0.038
T26C0.040
T27C0.043
T28C0.030
T29C0.125
T30C0.110
T31C0.028
T32C0.029
T33C0.130
T34C0.035
%
T13
X006417Y006298
X005118Y005472
X002047Y005393
X005196Y004763
X007716Y003818
X004803Y004448
X007125Y007794
X003425Y007794
X003346Y005432
X003346Y005983
X003188Y010078
X004252Y008621
X000866Y003031
X002204Y004605
X007716Y008936
X006692Y009645
X008346Y009251
X015118Y006259
X017480Y006653
X017480Y006259
X015118Y006653
X015118Y007598
X015118Y007991
X017480Y007991
X017480Y007598
T31
X010708Y016742
X010708Y015742
X010708Y014742
X010708Y013742
X013708Y013742
X013708Y016742
X013708Y014742
X013708Y015742
T32
X012823Y010283
X009823Y010283
X013858Y010275
X016858Y010275
T28
X007080Y014134
X008080Y014134
X008101Y010664
X008101Y011664
X015456Y015629
X016456Y015629
X014645Y011928
X013645Y011928
X016850Y012007
X016850Y013007
X010229Y011937
X011229Y011937
T34
X011889Y005550
X009448Y003582
X011889Y008149
X011889Y007440
X011889Y006732
X011889Y008857
X000866Y002322
X003149Y002322
X011968Y009645
X013858Y005550
X012598Y005550
X016535Y005078
X015590Y005944
X016299Y005787
X017007Y005944
X014015Y008149
X014015Y007440
X014015Y008857
X014015Y006731
X013307Y006731
X012598Y006731
X013307Y008149
X012598Y008149
X013307Y007440
X012598Y007440
X013307Y008857
X012598Y008857
X015590Y008306
X016299Y008464
X017007Y008306
T25
X007086Y015810
X008606Y002401
X007606Y002401
X001023Y016810
X001023Y015810
X007086Y016810
X016252Y004054
X015252Y004054
X014252Y004054
X013252Y004054
X012252Y004054
X016275Y002401
X015275Y002401
X014275Y002401
X012944Y002401
X011944Y002401
X010944Y002401
X009606Y002401
T26
X002204Y016810
X002204Y014842
X005704Y016810
X005704Y014842
T27
X000787Y008700
X000787Y006731
X001787Y008700
X001787Y006731
T14
X009611Y008128
X009611Y007128
X009611Y006128
T30
X003470Y011856
X004670Y009956
T29
X005870Y011856
T33
X016311Y007128
M30
