G04 start of page 7 for group -4079 idx -4079 *
G04 Title: (unknown), topsilk *
G04 Creator: pcb 20091103 *
G04 CreationDate: Fri 28 Jan 2011 22:03:10 GMT UTC *
G04 For: thomas *
G04 Format: Gerber/RS-274X *
G04 PCB-Dimensions: 179130 179130 *
G04 PCB-Coordinate-Origin: lower left *
%MOIN*%
%FSLAX25Y25*%
%LNFRONTSILK*%
%ADD12C,0.0100*%
%ADD13C,0.0200*%
%ADD28C,0.0300*%
%ADD47C,0.0080*%
%ADD49C,0.0060*%
%ADD50C,0.0075*%
G54D12*X110236Y31099D02*X106299D01*
X105512Y31886D01*
G54D49*X105511Y17729D02*Y14649D01*
X107436Y17729D02*Y14649D01*
X105511Y16189D02*X107436D01*
X108360Y17729D02*Y15419D01*
X109130Y14649D01*
X109900Y15419D01*
Y17729D02*Y15419D01*
X72441Y17730D02*Y14650D01*
X73981D01*
X74905Y17730D02*Y15420D01*
X75675Y14650D01*
X76445Y15420D01*
Y17730D02*Y15420D01*
X139754Y17729D02*Y14649D01*
X139369Y17729D02*X140909D01*
X141294Y17344D01*
Y16574D01*
X140909Y16189D02*X141294Y16574D01*
X139754Y16189D02*X140909D01*
X142218Y17729D02*Y14649D01*
X143373Y15804D01*
X144528Y14649D01*
Y17729D02*Y14649D01*
X145453Y17729D02*X146993D01*
X147378Y17344D01*
Y16574D01*
X146993Y16189D02*X147378Y16574D01*
X145838Y16189D02*X146993D01*
X145838Y17729D02*Y14649D01*
Y16189D02*X147378Y14649D01*
G54D50*X6890Y18992D02*X7825Y18057D01*
X4085Y18992D02*X6890D01*
X3150Y18057D02*X4085Y18992D01*
X3150Y18057D02*Y16187D01*
X4085Y15252D01*
X6890D01*
X7825Y14317D01*
Y12447D01*
X6890Y11512D02*X7825Y12447D01*
X4085Y11512D02*X6890D01*
X3150Y12447D02*X4085Y11512D01*
X10070Y18992D02*Y12447D01*
X11005Y11512D01*
X12875D01*
X13810Y12447D01*
Y18992D02*Y12447D01*
X16991Y18992D02*Y11512D01*
X16056Y18992D02*X19796D01*
X20731Y18057D01*
Y16187D01*
X19796Y15252D02*X20731Y16187D01*
X16991Y15252D02*X19796D01*
X22977D02*X25782D01*
X22977Y11512D02*X26717D01*
X22977Y18992D02*Y11512D01*
Y18992D02*X26717D01*
X28963D02*X32703D01*
X33638Y18057D01*
Y16187D01*
X32703Y15252D02*X33638Y16187D01*
X29898Y15252D02*X32703D01*
X29898Y18992D02*Y11512D01*
Y15252D02*X33638Y11512D01*
X39250Y18057D02*Y12447D01*
Y18057D02*X40185Y18992D01*
X42055D01*
X42990Y18057D01*
Y12447D01*
X42055Y11512D02*X42990Y12447D01*
X40185Y11512D02*X42055D01*
X39250Y12447D02*X40185Y11512D01*
X48976Y18992D02*X49911Y18057D01*
X46171Y18992D02*X48976D01*
X45236Y18057D02*X46171Y18992D01*
X45236Y18057D02*Y16187D01*
X46171Y15252D01*
X48976D01*
X49911Y14317D01*
Y12447D01*
X48976Y11512D02*X49911Y12447D01*
X46171Y11512D02*X48976D01*
X45236Y12447D02*X46171Y11512D01*
X53092Y18992D02*Y11512D01*
X55897Y18992D02*X56832Y18057D01*
Y12447D01*
X55897Y11512D02*X56832Y12447D01*
X52157Y11512D02*X55897D01*
X52157Y18992D02*X55897D01*
G54D49*X3740Y8658D02*Y3938D01*
X3150Y8658D02*X5510D01*
X6100Y8068D01*
Y6888D01*
X5510Y6298D02*X6100Y6888D01*
X3740Y6298D02*X5510D01*
X7517Y8658D02*X9877D01*
X10467Y8068D01*
Y6888D01*
X9877Y6298D02*X10467Y6888D01*
X8107Y6298D02*X9877D01*
X8107Y8658D02*Y3938D01*
Y6298D02*X10467Y3938D01*
X11884Y6298D02*X13654D01*
X11884Y3938D02*X14244D01*
X11884Y8658D02*Y3938D01*
Y8658D02*X14244D01*
X16251Y3938D02*X18021D01*
X15661Y4528D02*X16251Y3938D01*
X15661Y8068D02*Y4528D01*
Y8068D02*X16251Y8658D01*
X18021D01*
X19438D02*X20618D01*
X20028D02*Y3938D01*
X19438D02*X20618D01*
X24395Y8658D02*X24985Y8068D01*
X22625Y8658D02*X24395D01*
X22035Y8068D02*X22625Y8658D01*
X22035Y8068D02*Y6888D01*
X22625Y6298D01*
X24395D01*
X24985Y5708D01*
Y4528D01*
X24395Y3938D02*X24985Y4528D01*
X22625Y3938D02*X24395D01*
X22035Y4528D02*X22625Y3938D01*
X26403Y8658D02*X27583D01*
X26993D02*Y3938D01*
X26403D02*X27583D01*
X29000Y8068D02*Y4528D01*
Y8068D02*X29590Y8658D01*
X30770D01*
X31360Y8068D01*
Y4528D01*
X30770Y3938D02*X31360Y4528D01*
X29590Y3938D02*X30770D01*
X29000Y4528D02*X29590Y3938D01*
X32777Y8658D02*Y3938D01*
Y8658D02*Y8068D01*
X35727Y5118D01*
Y8658D02*Y3938D01*
X39268Y8658D02*Y5118D01*
X40448Y3938D01*
X41628Y5118D01*
Y8658D02*Y5118D01*
X43045Y8068D02*Y4528D01*
Y8068D02*X43635Y8658D01*
X44815D01*
X45405Y8068D01*
Y4528D01*
X44815Y3938D02*X45405Y4528D01*
X43635Y3938D02*X44815D01*
X43045Y4528D02*X43635Y3938D01*
X46822Y8658D02*Y3938D01*
X49182D01*
X50600Y8658D02*X52960D01*
X51780D02*Y3938D01*
X54377Y8068D02*Y3938D01*
Y8068D02*X54967Y8658D01*
X56737D01*
X57327Y8068D01*
Y3938D01*
X54377Y6298D02*X57327D01*
X61104Y8658D02*X61694Y8068D01*
X59334Y8658D02*X61104D01*
X58744Y8068D02*X59334Y8658D01*
X58744Y8068D02*Y4528D01*
X59334Y3938D01*
X61104D01*
X61694Y4528D01*
Y5708D02*Y4528D01*
X61104Y6298D02*X61694Y5708D01*
X59924Y6298D02*X61104D01*
X63111D02*X64881D01*
X63111Y3938D02*X65471D01*
X63111Y8658D02*Y3938D01*
Y8658D02*X65471D01*
X69602Y3938D02*X71372D01*
X69012Y4528D02*X69602Y3938D01*
X69012Y8068D02*Y4528D01*
Y8068D02*X69602Y8658D01*
X71372D01*
X72790Y8068D02*Y3938D01*
Y8068D02*X73380Y8658D01*
X75150D01*
X75740Y8068D01*
Y3938D01*
X72790Y6298D02*X75740D01*
X77157Y8658D02*Y3938D01*
X79517D01*
X80934Y8658D02*X82114D01*
X81524D02*Y3938D01*
X80934D02*X82114D01*
X83531D02*X85891D01*
X86481Y4528D01*
Y5708D02*Y4528D01*
X85891Y6298D02*X86481Y5708D01*
X84121Y6298D02*X85891D01*
X84121Y8658D02*Y3938D01*
X83531Y8658D02*X85891D01*
X86481Y8068D01*
Y6888D01*
X85891Y6298D02*X86481Y6888D01*
X87898Y8658D02*X90258D01*
X90848Y8068D01*
Y6888D01*
X90258Y6298D02*X90848Y6888D01*
X88488Y6298D02*X90258D01*
X88488Y8658D02*Y3938D01*
Y6298D02*X90848Y3938D01*
X92265Y8068D02*Y3938D01*
Y8068D02*X92855Y8658D01*
X94625D01*
X95215Y8068D01*
Y3938D01*
X92265Y6298D02*X95215D01*
X96633Y8658D02*X98993D01*
X97813D02*Y3938D01*
X100410Y8068D02*Y4528D01*
Y8068D02*X101000Y8658D01*
X102180D01*
X102770Y8068D01*
Y4528D01*
X102180Y3938D02*X102770Y4528D01*
X101000Y3938D02*X102180D01*
X100410Y4528D02*X101000Y3938D01*
X104187Y8658D02*X106547D01*
X107137Y8068D01*
Y6888D01*
X106547Y6298D02*X107137Y6888D01*
X104777Y6298D02*X106547D01*
X104777Y8658D02*Y3938D01*
Y6298D02*X107137Y3938D01*
X150864Y6549D02*Y5139D01*
Y6549D02*X151334Y7019D01*
X152274D01*
X150394D02*X150864Y6549D01*
X153872Y5139D02*X155282D01*
X153402Y5609D02*X153872Y5139D01*
X153402Y6549D02*Y5609D01*
Y6549D02*X153872Y7019D01*
X154812D01*
X155282Y6549D01*
X153402Y6079D02*X155282D01*
Y6549D02*Y6079D01*
X156411Y7019D02*Y6079D01*
X157351Y5139D01*
X158291Y6079D01*
Y7019D02*Y6079D01*
X159420Y7959D02*Y7489D01*
Y6549D02*Y5139D01*
X160831D02*X162241D01*
X162711Y5609D01*
X162241Y6079D02*X162711Y5609D01*
X160831Y6079D02*X162241D01*
X160361Y6549D02*X160831Y6079D01*
X160361Y6549D02*X160831Y7019D01*
X162241D01*
X162711Y6549D01*
X160361Y5609D02*X160831Y5139D01*
X163840Y7959D02*Y7489D01*
Y6549D02*Y5139D01*
X164781Y6549D02*Y5609D01*
Y6549D02*X165251Y7019D01*
X166191D01*
X166661Y6549D01*
Y5609D01*
X166191Y5139D02*X166661Y5609D01*
X165251Y5139D02*X166191D01*
X164781Y5609D02*X165251Y5139D01*
X168260Y6549D02*Y5139D01*
Y6549D02*X168730Y7019D01*
X169200D01*
X169670Y6549D01*
Y5139D01*
X167790Y7019D02*X168260Y6549D01*
X172961Y5139D02*X173901D01*
X173431Y8899D02*Y5139D01*
X172491Y7959D02*X173431Y8899D01*
G54D12*X5236Y173106D02*Y153106D01*
X15236D01*
Y173106D02*Y153106D01*
X5236Y173106D02*X15236D01*
X5236Y163106D02*X15236D01*
Y173106D02*Y163106D01*
G54D47*X27953Y96846D02*X28739D01*
X27953Y91336D02*X28739D01*
G54D12*X49302Y172960D02*Y163252D01*
Y168106D02*X52297D01*
X29792Y163252D02*X49302D01*
X29792Y172960D02*Y163252D01*
X26797Y168106D02*X29792D01*
Y172960D02*X49302D01*
X46302D02*Y163252D01*
X45802Y172960D02*Y163252D01*
X45302Y172960D02*Y163252D01*
X49302Y153275D02*Y143567D01*
Y148421D02*X52297D01*
X29792Y143567D02*X49302D01*
X29792Y153275D02*Y143567D01*
X26797Y148421D02*X29792D01*
Y153275D02*X49302D01*
X46302D02*Y143567D01*
X45802Y153275D02*Y143567D01*
X45302Y153275D02*Y143567D01*
X34707Y101564D02*X5207D01*
Y135564D01*
X61207D01*
Y130564D01*
X57207Y101564D02*X61207D01*
Y106564D01*
X5207Y101564D02*Y135564D01*
X5707Y101564D02*Y135564D01*
X6207Y101564D02*Y135564D01*
X6707Y101564D02*Y135564D01*
X7207Y101564D02*Y135564D01*
X7707Y101564D02*Y135564D01*
X8207Y101564D02*Y135564D01*
X8707Y101564D02*Y135564D01*
X18207Y101564D02*Y135564D01*
X17707Y101564D02*Y135564D01*
X17207Y101564D02*Y135564D01*
X16707Y101564D02*Y135564D01*
X16207Y101564D02*Y135564D01*
X15707Y101564D02*Y135564D01*
X15207Y101564D02*Y135564D01*
X14707Y101564D02*Y135564D01*
X102081Y172420D02*Y132420D01*
X142081D01*
Y172420D02*Y132420D01*
X102081Y172420D02*X117081D01*
X127081D02*X142081D01*
X117081D02*G75*G03X127081Y172420I5000J0D01*G01*
X91295Y119376D02*X95295D01*
X93295Y121376D02*Y117376D01*
X119295Y119376D02*X123295D01*
X97295D02*G75*G03X97295Y119376I10000J0D01*G01*
X153457Y119287D02*X157457D01*
X155457Y121287D02*Y117287D01*
X125457Y119287D02*X129457D01*
X151457D02*G75*G03X151457Y119287I-10000J0D01*G01*
X121710Y106096D02*Y99578D01*
Y102837D02*X123984D01*
X104758Y99578D02*X121710D01*
X104758Y106096D02*Y99578D01*
X102484Y102837D02*X104758D01*
Y106096D02*X121710D01*
X118710D02*Y99578D01*
X118210Y106096D02*Y99578D01*
X117710Y106096D02*Y99578D01*
X162059Y106011D02*Y99493D01*
Y102752D02*X164333D01*
X145107Y99493D02*X162059D01*
X145107Y106011D02*Y99493D01*
X142833Y102752D02*X145107D01*
Y106011D02*X162059D01*
X159059D02*Y99493D01*
X158559Y106011D02*Y99493D01*
X158059Y106011D02*Y99493D01*
X168504Y113075D02*Y109075D01*
X166504Y111075D02*X170504D01*
X168504Y141075D02*Y137075D01*
Y115075D02*G75*G03X168504Y115075I0J10000D01*G01*
G54D47*X150788Y133854D02*Y133068D01*
X156298Y133854D02*Y133068D01*
G54D12*X143568Y156294D02*X147568D01*
X145568Y158294D02*Y154294D01*
X171568Y156294D02*X175568D01*
X149568D02*G75*G03X149568Y156294I10000J0D01*G01*
G54D47*X151969Y177555D02*X152755D01*
X151969Y172045D02*X152755D01*
G54D12*X98287Y53610D02*Y39710D01*
X111087D01*
Y53610D01*
X98287D01*
X117520Y45547D02*X167520D01*
X117520D02*Y35547D01*
X167520D01*
Y45547D02*Y35547D01*
X157520Y45547D02*Y35547D01*
X167520D01*
G54D47*X104725Y32674D02*X105511D01*
X104725Y38184D02*X105511D01*
X170080Y42909D02*Y42123D01*
X175590Y42909D02*Y42123D01*
G54D12*X137756Y29012D02*X167756D01*
X137756D02*Y19012D01*
X167756D01*
Y29012D02*Y19012D01*
X157756Y29012D02*Y19012D01*
X167756D01*
X104449Y29012D02*X134449D01*
X104449D02*Y19012D01*
X134449D01*
Y29012D02*Y19012D01*
X124449Y29012D02*Y19012D01*
X134449D01*
G54D28*X96110Y81285D02*X114110D01*
X96110Y71285D02*X114110D01*
X96110Y61285D02*X114110D01*
G54D13*Y91285D02*Y51285D01*
X151610D01*
Y91285D02*Y51285D01*
X114110Y91285D02*X151610D01*
Y51285D01*
X164110D01*
Y52785D02*Y51285D01*
Y52785D02*X171110D01*
Y51285D01*
X175110D01*
Y91285D02*Y51285D01*
X171110Y91285D02*X175110D01*
X171110D02*Y89785D01*
X164110D02*X171110D01*
X164110Y91285D02*Y89785D01*
X151610Y91285D02*X164110D01*
G54D12*X75866Y173106D02*Y153106D01*
X65866Y173106D02*X75866D01*
X65866D02*Y153106D01*
X75866D01*
X65866Y163106D02*X75866D01*
X65866D02*Y153106D01*
G54D47*X84645Y163775D02*Y162989D01*
X79135Y163775D02*Y162989D01*
G54D12*X59806Y141345D02*X63806D01*
X61806Y143345D02*Y139345D01*
X87806Y141345D02*X91806D01*
X65806D02*G75*G03X65806Y141345I10000J0D01*G01*
X81016Y99643D02*Y95643D01*
X79016Y97643D02*X83016D01*
X81016Y127643D02*Y123643D01*
Y101643D02*G75*G03X81016Y101643I0J10000D01*G01*
G54D47*X92127Y96453D02*X92913D01*
X92127Y90943D02*X92913D01*
X74803Y48421D02*X75589D01*
X74803Y42911D02*X75589D01*
X60630Y48420D02*X61416D01*
X60630Y42910D02*X61416D01*
X88977Y48421D02*X89763D01*
X88977Y42911D02*X89763D01*
G54D12*X52506Y84775D02*Y50775D01*
X83506D01*
Y84775D01*
X52506D02*X65506D01*
X83506D02*X70506D01*
X65506D02*G75*G03X70506Y84775I2500J0D01*G01*
G54D47*X67717Y92516D02*X68503D01*
X67717Y87006D02*X68503D01*
X67717Y40546D02*X68503D01*
X67717Y35036D02*X68503D01*
G54D12*X71063Y29012D02*X101063D01*
X71063D02*Y19012D01*
X101063D01*
Y29012D02*Y19012D01*
X91063Y29012D02*Y19012D01*
X101063D01*
G54D47*X42127Y52750D02*X42913D01*
X42127Y47240D02*X42913D01*
X42126Y60624D02*X42912D01*
X42126Y55114D02*X42912D01*
X24410Y54720D02*Y53934D01*
X29920Y54720D02*Y53934D01*
G54D12*X8702Y82833D02*G75*G03X17045Y82832I4171J4171D01*G01*
X17045Y91176D02*G75*G03X8702Y91175I-4171J-4171D01*G01*
X7287Y81418D02*G75*G03X18460Y81417I5586J5586D01*G01*
X18460Y92591D02*G75*G03X7287Y92590I-5586J-5586D01*G01*
X8702Y63148D02*G75*G03X17045Y63147I4171J4171D01*G01*
X17045Y71491D02*G75*G03X8702Y71490I-4171J-4171D01*G01*
X7287Y61733D02*G75*G03X18460Y61732I5586J5586D01*G01*
X18460Y72906D02*G75*G03X7287Y72905I-5586J-5586D01*G01*
G54D47*X42126Y62988D02*X42912D01*
X42126Y68498D02*X42912D01*
X42126Y76372D02*X42912D01*
X42126Y70862D02*X42912D01*
X33857Y68893D02*Y68107D01*
X28347Y68893D02*Y68107D01*
X33071Y88579D02*X33857D01*
X33071Y83069D02*X33857D01*
X11811Y52358D02*X12597D01*
X11811Y46848D02*X12597D01*
G54D12*X5910Y32550D02*X19810D01*
Y44350D02*Y32550D01*
X5910Y44350D02*X19810D01*
X5910D02*Y32550D01*
G54D47*X21260Y38184D02*Y37398D01*
X26770Y38184D02*Y37398D01*
G54D49*X86306Y146345D02*X87806D01*
X85806Y146845D02*X86306Y146345D01*
X85806Y149845D02*Y146845D01*
Y149845D02*X86306Y150345D01*
X87806D01*
X89007Y149845D02*X89507Y150345D01*
X91007D01*
X91507Y149845D01*
Y148845D01*
X89007Y146345D02*X91507Y148845D01*
X89007Y146345D02*X91507D01*
X158807Y136099D02*X160307D01*
X158307Y136599D02*X158807Y136099D01*
X158307Y139599D02*Y136599D01*
Y139599D02*X158807Y140099D01*
X160307D01*
X162008Y136099D02*X163008D01*
X162508Y140099D02*Y136099D01*
X161508Y139099D02*X162508Y140099D01*
X164209Y136599D02*X164709Y136099D01*
X164209Y139599D02*Y136599D01*
Y139599D02*X164709Y140099D01*
X165709D01*
X166209Y139599D01*
Y136599D01*
X165709Y136099D02*X166209Y136599D01*
X164709Y136099D02*X165709D01*
X164209Y137099D02*X166209Y139099D01*
X118583Y110991D02*X120083D01*
X118083Y111491D02*X118583Y110991D01*
X118083Y114491D02*Y111491D01*
Y114491D02*X118583Y114991D01*
X120083D01*
X121284Y110991D02*X123784Y113491D01*
Y114991D02*Y113491D01*
X121284Y114991D02*X123784D01*
X7599Y147335D02*X9599D01*
X10099Y147835D01*
Y148835D02*Y147835D01*
X9599Y149335D02*X10099Y148835D01*
X8099Y149335D02*X9599D01*
X8099Y151335D02*Y147335D01*
X7599Y151335D02*X9599D01*
X10099Y150835D01*
Y149835D01*
X9599Y149335D02*X10099Y149835D01*
X11800Y147335D02*X12800D01*
X12300Y151335D02*Y147335D01*
X11300Y150335D02*X12300Y151335D01*
X30726Y161637D02*Y157637D01*
X32226Y161637D02*X32726Y161137D01*
Y158137D01*
X32226Y157637D02*X32726Y158137D01*
X30226Y157637D02*X32226D01*
X30226Y161637D02*X32226D01*
X33927Y161137D02*X34427Y161637D01*
X35927D01*
X36427Y161137D01*
Y160137D01*
X33927Y157637D02*X36427Y160137D01*
X33927Y157637D02*X36427D01*
X153295Y110901D02*X154795D01*
X152795Y111401D02*X153295Y110901D01*
X152795Y114401D02*Y111401D01*
Y114401D02*X153295Y114901D01*
X154795D01*
X155996Y110901D02*X157996Y112901D01*
Y114401D02*Y112901D01*
X157496Y114901D02*X157996Y114401D01*
X156496Y114901D02*X157496D01*
X155996Y114401D02*X156496Y114901D01*
X155996Y114401D02*Y113401D01*
X156496Y112901D01*
X157996D01*
X149093Y132311D02*Y130811D01*
X148593Y130311D02*X149093Y130811D01*
X145593Y130311D02*X148593D01*
X145593D02*X145093Y130811D01*
Y132311D02*Y130811D01*
X149093Y135012D02*Y134012D01*
X145093Y134512D02*X149093D01*
X146093Y133512D02*X145093Y134512D01*
X149093Y137713D02*Y136713D01*
X145093Y137213D02*X149093D01*
X146093Y136213D02*X145093Y137213D01*
X160736Y172949D02*X162236D01*
X160236Y173449D02*X160736Y172949D01*
X160236Y176449D02*Y173449D01*
Y176449D02*X160736Y176949D01*
X162236D01*
X163937Y172949D02*X164937D01*
X164437Y176949D02*Y172949D01*
X163437Y175949D02*X164437Y176949D01*
X167638D02*X168138Y176449D01*
X166638Y176949D02*X167638D01*
X166138Y176449D02*X166638Y176949D01*
X166138Y176449D02*Y173449D01*
X166638Y172949D01*
X167638Y174949D02*X168138Y174449D01*
X166138Y174949D02*X167638D01*
X166638Y172949D02*X167638D01*
X168138Y173449D01*
Y174449D02*Y173449D01*
X167705Y165231D02*X169205D01*
X167205Y165731D02*X167705Y165231D01*
X167205Y168731D02*Y165731D01*
Y168731D02*X167705Y169231D01*
X169205D01*
X170906Y165231D02*X171906D01*
X171406Y169231D02*Y165231D01*
X170406Y168231D02*X171406Y169231D01*
X173107D02*X175107D01*
X173107D02*Y167231D01*
X173607Y167731D01*
X174607D01*
X175107Y167231D01*
Y165731D01*
X174607Y165231D02*X175107Y165731D01*
X173607Y165231D02*X174607D01*
X173107Y165731D02*X173607Y165231D01*
X76016Y123643D02*Y122143D01*
X75516Y121643D02*X76016Y122143D01*
X72516Y121643D02*X75516D01*
X72516D02*X72016Y122143D01*
Y123643D02*Y122143D01*
X75516Y124844D02*X76016Y125344D01*
X74516Y124844D02*X75516D01*
X74516D02*X74016Y125344D01*
Y126344D02*Y125344D01*
Y126344D02*X74516Y126844D01*
X75516D01*
X76016Y126344D02*X75516Y126844D01*
X76016Y126344D02*Y125344D01*
X73516Y124844D02*X74016Y125344D01*
X72516Y124844D02*X73516D01*
X72516D02*X72016Y125344D01*
Y126344D02*Y125344D01*
Y126344D02*X72516Y126844D01*
X73516D01*
X74016Y126344D02*X73516Y126844D01*
X60078Y154606D02*Y153106D01*
Y154606D02*X63578D01*
X64078Y154106D02*X63578Y154606D01*
X64078Y154106D02*Y153606D01*
X63578Y153106D02*X64078Y153606D01*
Y157307D02*Y156307D01*
X60078Y156807D02*X64078D01*
X61078Y155807D02*X60078Y156807D01*
X30725Y141953D02*Y137953D01*
X32225Y141953D02*X32725Y141453D01*
Y138453D01*
X32225Y137953D02*X32725Y138453D01*
X30225Y137953D02*X32225D01*
X30225Y141953D02*X32225D01*
X34426Y137953D02*X35426D01*
X34926Y141953D02*Y137953D01*
X33926Y140953D02*X34926Y141953D01*
X6207Y137564D02*X7707D01*
X5707Y138064D02*X6207Y137564D01*
X5707Y141064D02*Y138064D01*
Y141064D02*X6207Y141564D01*
X7707D01*
X8908Y141064D02*Y138064D01*
Y141064D02*X9408Y141564D01*
X10408D01*
X10908Y141064D01*
Y138064D01*
X10408Y137564D02*X10908Y138064D01*
X9408Y137564D02*X10408D01*
X8908Y138064D02*X9408Y137564D01*
X12109Y141564D02*Y137564D01*
Y141564D02*Y141064D01*
X14609Y138564D01*
Y141564D02*Y137564D01*
X15810Y141564D02*Y137564D01*
Y141564D02*Y141064D01*
X18310Y138564D01*
Y141564D02*Y137564D01*
X20011D02*X21011D01*
X20511Y141564D02*Y137564D01*
X19511Y140564D02*X20511Y141564D01*
X90038Y163806D02*Y162306D01*
X89538Y161806D02*X90038Y162306D01*
X86538Y161806D02*X89538D01*
X86538D02*X86038Y162306D01*
Y163806D02*Y162306D01*
X86538Y165007D02*X86038Y165507D01*
Y166507D02*Y165507D01*
Y166507D02*X86538Y167007D01*
X89538D01*
X90038Y166507D02*X89538Y167007D01*
X90038Y166507D02*Y165507D01*
X89538Y165007D02*X90038Y165507D01*
X88038Y167007D02*Y165507D01*
X94662Y172291D02*Y168791D01*
X95162Y168291D01*
X96162D01*
X96662Y168791D01*
Y172291D02*Y168791D01*
X97863Y171791D02*X98363Y172291D01*
X99363D01*
X99863Y171791D01*
Y168791D01*
X99363Y168291D02*X99863Y168791D01*
X98363Y168291D02*X99363D01*
X97863Y168791D02*X98363Y168291D01*
Y170291D02*X99863D01*
X35314Y51602D02*Y50102D01*
X34814Y49602D02*X35314Y50102D01*
X31814Y49602D02*X34814D01*
X31814D02*X31314Y50102D01*
Y51602D02*Y50102D01*
X35314Y54303D02*Y53303D01*
X31314Y53803D02*X35314D01*
X32314Y52803D02*X31314Y53803D01*
X35314Y55504D02*X32814Y58004D01*
X31314D02*X32814D01*
X31314D02*Y55504D01*
X26654Y68138D02*Y66638D01*
X26154Y66138D02*X26654Y66638D01*
X23154Y66138D02*X26154D01*
X23154D02*X22654Y66638D01*
Y68138D02*Y66638D01*
Y70839D02*X23154Y71339D01*
X22654Y70839D02*Y69839D01*
X23154Y69339D02*X22654Y69839D01*
X23154Y69339D02*X26154D01*
X26654Y69839D01*
X24654Y70839D02*X25154Y71339D01*
X24654Y70839D02*Y69339D01*
X26654Y70839D02*Y69839D01*
Y70839D02*X26154Y71339D01*
X25154D02*X26154D01*
X30314Y81675D02*X32314D01*
X32814Y81175D01*
Y80175D01*
X32314Y79675D02*X32814Y80175D01*
X30814Y79675D02*X32314D01*
X30814Y81675D02*Y77675D01*
Y79675D02*X32814Y77675D01*
X34015D02*X36015Y79675D01*
Y81175D02*Y79675D01*
X35515Y81675D02*X36015Y81175D01*
X34515Y81675D02*X35515D01*
X34015Y81175D02*X34515Y81675D01*
X34015Y81175D02*Y80175D01*
X34515Y79675D01*
X36015D01*
X22259Y83493D02*Y81493D01*
Y83493D02*X22759Y83993D01*
X23759D01*
X24259Y83493D02*X23759Y83993D01*
X24259Y83493D02*Y81993D01*
X22259D02*X26259D01*
X24259D02*X26259Y83993D01*
Y86694D02*Y85694D01*
X22259Y86194D02*X26259D01*
X23259Y85194D02*X22259Y86194D01*
X25759Y87895D02*X26259Y88395D01*
X22759Y87895D02*X25759D01*
X22759D02*X22259Y88395D01*
Y89395D02*Y88395D01*
Y89395D02*X22759Y89895D01*
X25759D01*
X26259Y89395D02*X25759Y89895D01*
X26259Y89395D02*Y88395D01*
X25259Y87895D02*X23259Y89895D01*
X19790Y47753D02*X21290D01*
X19290Y48253D02*X19790Y47753D01*
X19290Y51253D02*Y48253D01*
Y51253D02*X19790Y51753D01*
X21290D01*
X22991Y47753D02*X23991D01*
X23491Y51753D02*Y47753D01*
X22491Y50753D02*X23491Y51753D01*
X1615Y57744D02*Y53744D01*
X3615D01*
X4816Y55744D02*X6316D01*
X4816Y53744D02*X6816D01*
X4816Y57744D02*Y53744D01*
Y57744D02*X6816D01*
X8517D02*Y53744D01*
X10017Y57744D02*X10517Y57244D01*
Y54244D01*
X10017Y53744D02*X10517Y54244D01*
X8017Y53744D02*X10017D01*
X8017Y57744D02*X10017D01*
X12218Y53744D02*X13218D01*
X12718Y57744D02*Y53744D01*
X11718Y56744D02*X12718Y57744D01*
X2401Y100264D02*Y96264D01*
X4401D01*
X5602Y98264D02*X7102D01*
X5602Y96264D02*X7602D01*
X5602Y100264D02*Y96264D01*
Y100264D02*X7602D01*
X9303D02*Y96264D01*
X10803Y100264D02*X11303Y99764D01*
Y96764D01*
X10803Y96264D02*X11303Y96764D01*
X8803Y96264D02*X10803D01*
X8803Y100264D02*X10803D01*
X12504Y99764D02*X13004Y100264D01*
X14504D01*
X15004Y99764D01*
Y98764D01*
X12504Y96264D02*X15004Y98764D01*
X12504Y96264D02*X15004D01*
X52361Y41516D02*X54361D01*
X54861Y41016D01*
Y40016D01*
X54361Y39516D02*X54861Y40016D01*
X52861Y39516D02*X54361D01*
X52861Y41516D02*Y37516D01*
Y39516D02*X54861Y37516D01*
X56062Y39516D02*X58062Y41516D01*
X56062Y39516D02*X58562D01*
X58062Y41516D02*Y37516D01*
X53408Y90097D02*Y86597D01*
X53908Y86097D01*
X54908D01*
X55408Y86597D01*
Y90097D02*Y86597D01*
X56609Y89597D02*X57109Y90097D01*
X58609D01*
X59109Y89597D01*
Y88597D01*
X56609Y86097D02*X59109Y88597D01*
X56609Y86097D02*X59109D01*
X39370Y29310D02*X41370D01*
X41870Y28810D01*
Y27810D01*
X41370Y27310D02*X41870Y27810D01*
X39870Y27310D02*X41370D01*
X39870Y29310D02*Y25310D01*
Y27310D02*X41870Y25310D01*
X43071Y25810D02*X43571Y25310D01*
X43071Y26810D02*Y25810D01*
Y26810D02*X43571Y27310D01*
X44571D01*
X45071Y26810D01*
Y25810D01*
X44571Y25310D02*X45071Y25810D01*
X43571Y25310D02*X44571D01*
X43071Y27810D02*X43571Y27310D01*
X43071Y28810D02*Y27810D01*
Y28810D02*X43571Y29310D01*
X44571D01*
X45071Y28810D01*
Y27810D01*
X44571Y27310D02*X45071Y27810D01*
X39368Y34823D02*X41368D01*
X41868Y34323D01*
Y33323D01*
X41368Y32823D02*X41868Y33323D01*
X39868Y32823D02*X41368D01*
X39868Y34823D02*Y30823D01*
Y32823D02*X41868Y30823D01*
X44569Y34823D02*X45069Y34323D01*
X43569Y34823D02*X44569D01*
X43069Y34323D02*X43569Y34823D01*
X43069Y34323D02*Y31323D01*
X43569Y30823D01*
X44569Y32823D02*X45069Y32323D01*
X43069Y32823D02*X44569D01*
X43569Y30823D02*X44569D01*
X45069Y31323D01*
Y32323D02*Y31323D01*
X39370Y40336D02*X41370D01*
X41870Y39836D01*
Y38836D01*
X41370Y38336D02*X41870Y38836D01*
X39870Y38336D02*X41370D01*
X39870Y40336D02*Y36336D01*
Y38336D02*X41870Y36336D01*
X43071Y39836D02*X43571Y40336D01*
X45071D01*
X45571Y39836D01*
Y38836D01*
X43071Y36336D02*X45571Y38836D01*
X43071Y36336D02*X45571D01*
X32952Y36641D02*Y35141D01*
X32452Y34641D02*X32952Y35141D01*
X29452Y34641D02*X32452D01*
X29452D02*X28952Y35141D01*
Y36641D02*Y35141D01*
X30952Y37842D02*X28952Y39842D01*
X30952Y40342D02*Y37842D01*
X28952Y39842D02*X32952D01*
X13784Y31177D02*Y27677D01*
X14284Y27177D01*
X15284D01*
X15784Y27677D01*
Y31177D02*Y27677D01*
X17485Y27177D02*X18485D01*
X17985Y31177D02*Y27177D01*
X16985Y30177D02*X17985Y31177D01*
X39369Y45846D02*X41369D01*
X41869Y45346D01*
Y44346D01*
X41369Y43846D02*X41869Y44346D01*
X39869Y43846D02*X41369D01*
X39869Y45846D02*Y41846D01*
Y43846D02*X41869Y41846D01*
X43570D02*X44570D01*
X44070Y45846D02*Y41846D01*
X43070Y44846D02*X44070Y45846D01*
X65460Y30429D02*X66960D01*
X64960Y30929D02*X65460Y30429D01*
X64960Y33929D02*Y30929D01*
Y33929D02*X65460Y34429D01*
X66960D01*
X68661Y30429D02*X69661D01*
X69161Y34429D02*Y30429D01*
X68161Y33429D02*X69161Y34429D01*
X70862Y33929D02*X71362Y34429D01*
X72362D01*
X72862Y33929D01*
Y30929D01*
X72362Y30429D02*X72862Y30929D01*
X71362Y30429D02*X72362D01*
X70862Y30929D02*X71362Y30429D01*
Y32429D02*X72862D01*
X76770Y41517D02*X78770D01*
X79270Y41017D01*
Y40017D01*
X78770Y39517D02*X79270Y40017D01*
X77270Y39517D02*X78770D01*
X77270Y41517D02*Y37517D01*
Y39517D02*X79270Y37517D01*
X80471Y41517D02*X82471D01*
X80471D02*Y39517D01*
X80971Y40017D01*
X81971D01*
X82471Y39517D01*
Y38017D01*
X81971Y37517D02*X82471Y38017D01*
X80971Y37517D02*X81971D01*
X80471Y38017D02*X80971Y37517D01*
X70184Y93422D02*X71684D01*
X69684Y93922D02*X70184Y93422D01*
X69684Y96922D02*Y93922D01*
Y96922D02*X70184Y97422D01*
X71684D01*
X72885D02*X74885D01*
X72885D02*Y95422D01*
X73385Y95922D01*
X74385D01*
X74885Y95422D01*
Y93922D01*
X74385Y93422D02*X74885Y93922D01*
X73385Y93422D02*X74385D01*
X72885Y93922D02*X73385Y93422D01*
X87795Y102147D02*X89795D01*
X90295Y101647D01*
Y100647D01*
X89795Y100147D02*X90295Y100647D01*
X88295Y100147D02*X89795D01*
X88295Y102147D02*Y98147D01*
Y100147D02*X90295Y98147D01*
X91496Y101647D02*X91996Y102147D01*
X92996D01*
X93496Y101647D01*
Y98647D01*
X92996Y98147D02*X93496Y98647D01*
X91996Y98147D02*X92996D01*
X91496Y98647D02*X91996Y98147D01*
Y100147D02*X93496D01*
X107923Y97754D02*Y93754D01*
X109423Y97754D02*X109923Y97254D01*
Y94254D01*
X109423Y93754D02*X109923Y94254D01*
X107423Y93754D02*X109423D01*
X107423Y97754D02*X109423D01*
X111124Y97254D02*X111624Y97754D01*
X112624D01*
X113124Y97254D01*
Y94254D01*
X112624Y93754D02*X113124Y94254D01*
X111624Y93754D02*X112624D01*
X111124Y94254D02*X111624Y93754D01*
Y95754D02*X113124D01*
X87008Y54115D02*X89008D01*
X89508Y53615D01*
Y52615D01*
X89008Y52115D02*X89508Y52615D01*
X87508Y52115D02*X89008D01*
X87508Y54115D02*Y50115D01*
Y52115D02*X89508Y50115D01*
X90709D02*X93209Y52615D01*
Y54115D02*Y52615D01*
X90709Y54115D02*X93209D01*
X104261Y58433D02*Y55433D01*
Y58433D02*X104761Y58933D01*
X105761D01*
X106261Y58433D01*
Y55433D01*
X105761Y54933D02*X106261Y55433D01*
X104761Y54933D02*X105761D01*
X104261Y55433D02*X104761Y54933D01*
X105261Y55933D02*X106261Y54933D01*
X107462Y58433D02*X107962Y58933D01*
X109462D01*
X109962Y58433D01*
Y57433D01*
X107462Y54933D02*X109962Y57433D01*
X107462Y54933D02*X109962D01*
X112704Y30430D02*X114204D01*
X112204Y30930D02*X112704Y30430D01*
X112204Y33930D02*Y30930D01*
Y33930D02*X112704Y34430D01*
X114204D01*
X115905Y30430D02*X116905D01*
X116405Y34430D02*Y30430D01*
X115405Y33430D02*X116405Y34430D01*
X118106Y32430D02*X120106Y34430D01*
X118106Y32430D02*X120606D01*
X120106Y34430D02*Y30430D01*
X151642Y13477D02*X153142D01*
X151142Y13977D02*X151642Y13477D01*
X151142Y16977D02*Y13977D01*
Y16977D02*X151642Y17477D01*
X153142D01*
X154343Y16977D02*Y13977D01*
Y16977D02*X154843Y17477D01*
X155843D01*
X156343Y16977D01*
Y13977D01*
X155843Y13477D02*X156343Y13977D01*
X154843Y13477D02*X155843D01*
X154343Y13977D02*X154843Y13477D01*
X157544Y17477D02*Y13477D01*
Y17477D02*Y16977D01*
X160044Y14477D01*
Y17477D02*Y13477D01*
X161245Y17477D02*Y13477D01*
Y17477D02*Y16977D01*
X163745Y14477D01*
Y17477D02*Y13477D01*
X164946Y15477D02*X166946Y17477D01*
X164946Y15477D02*X167446D01*
X166946Y17477D02*Y13477D01*
X175078Y28374D02*Y26874D01*
X174578Y26374D02*X175078Y26874D01*
X171578Y26374D02*X174578D01*
X171578D02*X171078Y26874D01*
Y28374D02*Y26874D01*
X175078Y31075D02*Y30075D01*
X171078Y30575D02*X175078D01*
X172078Y29575D02*X171078Y30575D01*
X171578Y32276D02*X171078Y32776D01*
Y34276D02*Y32776D01*
Y34276D02*X171578Y34776D01*
X172578D01*
X175078Y32276D02*X172578Y34776D01*
X175078D02*Y32276D01*
X151090Y30013D02*X152590D01*
X150590Y30513D02*X151090Y30013D01*
X150590Y33513D02*Y30513D01*
Y33513D02*X151090Y34013D01*
X152590D01*
X153791Y33513D02*Y30513D01*
Y33513D02*X154291Y34013D01*
X155291D01*
X155791Y33513D01*
Y30513D01*
X155291Y30013D02*X155791Y30513D01*
X154291Y30013D02*X155291D01*
X153791Y30513D02*X154291Y30013D01*
X156992Y34013D02*Y30013D01*
Y34013D02*Y33513D01*
X159492Y31013D01*
Y34013D02*Y30013D01*
X160693Y34013D02*Y30013D01*
Y34013D02*Y33513D01*
X163193Y31013D01*
Y34013D02*Y30013D01*
X164394Y33513D02*X164894Y34013D01*
X166394D01*
X166894Y33513D01*
Y32513D01*
X164394Y30013D02*X166894Y32513D01*
X164394Y30013D02*X166894D01*
X118808Y13475D02*X120308D01*
X118308Y13975D02*X118808Y13475D01*
X118308Y16975D02*Y13975D01*
Y16975D02*X118808Y17475D01*
X120308D01*
X121509Y16975D02*Y13975D01*
Y16975D02*X122009Y17475D01*
X123009D01*
X123509Y16975D01*
Y13975D01*
X123009Y13475D02*X123509Y13975D01*
X122009Y13475D02*X123009D01*
X121509Y13975D02*X122009Y13475D01*
X124710Y17475D02*Y13475D01*
Y17475D02*Y16975D01*
X127210Y14475D01*
Y17475D02*Y13475D01*
X128411Y17475D02*Y13475D01*
Y17475D02*Y16975D01*
X130911Y14475D01*
Y17475D02*Y13475D01*
X132112Y16975D02*X132612Y17475D01*
X133612D01*
X134112Y16975D01*
Y13975D01*
X133612Y13475D02*X134112Y13975D01*
X132612Y13475D02*X133612D01*
X132112Y13975D02*X132612Y13475D01*
Y15475D02*X134112D01*
X85264Y13475D02*X86764D01*
X84764Y13975D02*X85264Y13475D01*
X84764Y16975D02*Y13975D01*
Y16975D02*X85264Y17475D01*
X86764D01*
X87965Y16975D02*Y13975D01*
Y16975D02*X88465Y17475D01*
X89465D01*
X89965Y16975D01*
Y13975D01*
X89465Y13475D02*X89965Y13975D01*
X88465Y13475D02*X89465D01*
X87965Y13975D02*X88465Y13475D01*
X91166Y17475D02*Y13475D01*
Y17475D02*Y16975D01*
X93666Y14475D01*
Y17475D02*Y13475D01*
X94867Y17475D02*Y13475D01*
Y17475D02*Y16975D01*
X97367Y14475D01*
Y17475D02*Y13475D01*
X98568Y17475D02*X100568D01*
X98568D02*Y15475D01*
X99068Y15975D01*
X100068D01*
X100568Y15475D01*
Y13975D01*
X100068Y13475D02*X100568Y13975D01*
X99068Y13475D02*X100068D01*
X98568Y13975D02*X99068Y13475D01*
X169503Y97384D02*Y94384D01*
Y97384D02*X170003Y97884D01*
X171003D01*
X171503Y97384D01*
Y94384D01*
X171003Y93884D02*X171503Y94384D01*
X170003Y93884D02*X171003D01*
X169503Y94384D02*X170003Y93884D01*
X170503Y94884D02*X171503Y93884D01*
X173204D02*X174204D01*
X173704Y97884D02*Y93884D01*
X172704Y96884D02*X173704Y97884D01*
X151827Y97836D02*Y93836D01*
X153327Y97836D02*X153827Y97336D01*
Y94336D01*
X153327Y93836D02*X153827Y94336D01*
X151327Y93836D02*X153327D01*
X151327Y97836D02*X153327D01*
X155028Y95836D02*X157028Y97836D01*
X155028Y95836D02*X157528D01*
X157028Y97836D02*Y93836D01*
M02*
