G04 start of page 10 for group -3984 idx -3984 *
G04 Title: (unknown), fab *
G04 Creator: pcb 20091103 *
G04 CreationDate: Fri 28 Jan 2011 22:03:10 GMT UTC *
G04 For: thomas *
G04 Format: Gerber/RS-274X *
G04 PCB-Dimensions: 179130 179130 *
G04 PCB-Coordinate-Origin: lower left *
%MOIN*%
%FSLAX25Y25*%
%LNFAB*%
%ADD12C,0.0100*%
%ADD48R,0.0080X0.0080*%
%ADD49C,0.0060*%
G54D48*X163110Y76085D02*Y66485D01*
X158310Y71285D02*X167910D01*
X161510Y72885D02*X164710D01*
X161510D02*Y69685D01*
X164710D01*
Y72885D02*Y69685D01*
X159910Y74485D02*X166310D01*
X159910D02*Y68085D01*
X166310D01*
Y74485D02*Y68085D01*
X15000Y195180D02*Y185580D01*
X10200Y190380D02*X19800D01*
X13400Y191980D02*X16600D01*
X13400D02*Y188780D01*
X16600D01*
Y191980D02*Y188780D01*
X11800Y193580D02*X18200D01*
X11800D02*Y187180D01*
X18200D01*
Y193580D02*Y187180D01*
G54D49*X135000Y192630D02*Y191880D01*
X136500Y190380D01*
X138000Y191880D01*
Y192630D02*Y191880D01*
X136500Y190380D02*Y186630D01*
X139801Y189630D02*X142051D01*
X139801Y186630D02*X142801D01*
X139801Y192630D02*Y186630D01*
Y192630D02*X142801D01*
X147603D02*X148353Y191880D01*
X145353Y192630D02*X147603D01*
X144603Y191880D02*X145353Y192630D01*
X144603Y191880D02*Y190380D01*
X145353Y189630D01*
X147603D01*
X148353Y188880D01*
Y187380D01*
X147603Y186630D02*X148353Y187380D01*
X145353Y186630D02*X147603D01*
X144603Y187380D02*X145353Y186630D01*
X135000Y183379D02*X150154D01*
X98750Y186630D02*X100250D01*
X99500Y192630D02*Y186630D01*
X98000Y191130D02*X99500Y192630D01*
X98000Y183379D02*X102051D01*
X45000Y187380D02*X45750Y186630D01*
X45000Y191880D02*Y187380D01*
Y191880D02*X45750Y192630D01*
X47250D01*
X48000Y191880D01*
Y187380D01*
X47250Y186630D02*X48000Y187380D01*
X45750Y186630D02*X47250D01*
X45000Y188130D02*X48000Y191130D01*
X49801Y186630D02*X50551D01*
X53103D02*X54603D01*
X53853Y192630D02*Y186630D01*
X52353Y191130D02*X53853Y192630D01*
X56404Y191880D02*X57154Y192630D01*
X58654D01*
X59404Y191880D01*
Y187380D01*
X58654Y186630D02*X59404Y187380D01*
X57154Y186630D02*X58654D01*
X56404Y187380D02*X57154Y186630D01*
Y189630D02*X59404D01*
X61206Y187380D02*X61956Y186630D01*
X61206Y191880D02*Y187380D01*
Y191880D02*X61956Y192630D01*
X63456D01*
X64206Y191880D01*
Y187380D01*
X63456Y186630D02*X64206Y187380D01*
X61956Y186630D02*X63456D01*
X61206Y188130D02*X64206Y191130D01*
X45000Y183379D02*X66007D01*
X58707Y118564D02*Y113764D01*
Y118564D02*X62867Y120964D01*
X58707Y118564D02*X54547Y120964D01*
X57107Y118564D02*G75*G03X60307Y118564I1600J0D01*G01*
G75*G03X57107Y118564I-1600J0D01*G01*
X55507D02*G75*G03X61907Y118564I3200J0D01*G01*
G75*G03X55507Y118564I-3200J0D01*G01*
X15000Y205380D02*Y200580D01*
Y205380D02*X19160Y207780D01*
X15000Y205380D02*X10840Y207780D01*
X13400Y205380D02*G75*G03X16600Y205380I1600J0D01*G01*
G75*G03X13400Y205380I-1600J0D01*G01*
X11800D02*G75*G03X18200Y205380I3200J0D01*G01*
G75*G03X11800Y205380I-3200J0D01*G01*
X135000Y207630D02*Y206880D01*
X136500Y205380D01*
X138000Y206880D01*
Y207630D02*Y206880D01*
X136500Y205380D02*Y201630D01*
X139801Y204630D02*X142051D01*
X139801Y201630D02*X142801D01*
X139801Y207630D02*Y201630D01*
Y207630D02*X142801D01*
X147603D02*X148353Y206880D01*
X145353Y207630D02*X147603D01*
X144603Y206880D02*X145353Y207630D01*
X144603Y206880D02*Y205380D01*
X145353Y204630D01*
X147603D01*
X148353Y203880D01*
Y202380D01*
X147603Y201630D02*X148353Y202380D01*
X145353Y201630D02*X147603D01*
X144603Y202380D02*X145353Y201630D01*
X135000Y198379D02*X150154D01*
X98750Y201630D02*X100250D01*
X99500Y207630D02*Y201630D01*
X98000Y206130D02*X99500Y207630D01*
X98000Y198379D02*X102051D01*
X45000Y202380D02*X45750Y201630D01*
X45000Y206880D02*Y202380D01*
Y206880D02*X45750Y207630D01*
X47250D01*
X48000Y206880D01*
Y202380D01*
X47250Y201630D02*X48000Y202380D01*
X45750Y201630D02*X47250D01*
X45000Y203130D02*X48000Y206130D01*
X49801Y201630D02*X50551D01*
X53103D02*X54603D01*
X53853Y207630D02*Y201630D01*
X52353Y206130D02*X53853Y207630D01*
X56404Y206880D02*X57154Y207630D01*
X59404D01*
X60154Y206880D01*
Y205380D01*
X56404Y201630D02*X60154Y205380D01*
X56404Y201630D02*X60154D01*
X61956Y207630D02*X64956D01*
X61956D02*Y204630D01*
X62706Y205380D01*
X64206D01*
X64956Y204630D01*
Y202380D01*
X64206Y201630D02*X64956Y202380D01*
X62706Y201630D02*X64206D01*
X61956Y202380D02*X62706Y201630D01*
X45000Y198379D02*X66757D01*
X33107Y120164D02*X36307D01*
X33107D02*Y116964D01*
X36307D01*
Y120164D02*Y116964D01*
X31507Y121764D02*X37907D01*
X31507D02*Y115364D01*
X37907D01*
Y121764D02*Y115364D01*
X45107Y101164D02*X48307D01*
X45107D02*Y97964D01*
X48307D01*
Y101164D02*Y97964D01*
X43507Y102764D02*X49907D01*
X43507D02*Y96364D01*
X49907D01*
Y102764D02*Y96364D01*
X13400Y221980D02*X16600D01*
X13400D02*Y218780D01*
X16600D01*
Y221980D02*Y218780D01*
X11800Y223580D02*X18200D01*
X11800D02*Y217180D01*
X18200D01*
Y223580D02*Y217180D01*
X135000Y222630D02*Y221880D01*
X136500Y220380D01*
X138000Y221880D01*
Y222630D02*Y221880D01*
X136500Y220380D02*Y216630D01*
X139801Y219630D02*X142051D01*
X139801Y216630D02*X142801D01*
X139801Y222630D02*Y216630D01*
Y222630D02*X142801D01*
X147603D02*X148353Y221880D01*
X145353Y222630D02*X147603D01*
X144603Y221880D02*X145353Y222630D01*
X144603Y221880D02*Y220380D01*
X145353Y219630D01*
X147603D01*
X148353Y218880D01*
Y217380D01*
X147603Y216630D02*X148353Y217380D01*
X145353Y216630D02*X147603D01*
X144603Y217380D02*X145353Y216630D01*
X135000Y213379D02*X150154D01*
X98000Y221880D02*X98750Y222630D01*
X101000D01*
X101750Y221880D01*
Y220380D01*
X98000Y216630D02*X101750Y220380D01*
X98000Y216630D02*X101750D01*
X98000Y213379D02*X103551D01*
X45000Y217380D02*X45750Y216630D01*
X45000Y221880D02*Y217380D01*
Y221880D02*X45750Y222630D01*
X47250D01*
X48000Y221880D01*
Y217380D01*
X47250Y216630D02*X48000Y217380D01*
X45750Y216630D02*X47250D01*
X45000Y218130D02*X48000Y221130D01*
X49801Y216630D02*X50551D01*
X53103D02*X54603D01*
X53853Y222630D02*Y216630D01*
X52353Y221130D02*X53853Y222630D01*
X57154Y216630D02*X58654D01*
X57904Y222630D02*Y216630D01*
X56404Y221130D02*X57904Y222630D01*
X60456Y217380D02*X61206Y216630D01*
X60456Y221880D02*Y217380D01*
Y221880D02*X61206Y222630D01*
X62706D01*
X63456Y221880D01*
Y217380D01*
X62706Y216630D02*X63456Y217380D01*
X61206Y216630D02*X62706D01*
X60456Y218130D02*X63456Y221130D01*
X45000Y213379D02*X65257D01*
X95310Y81285D02*G75*G03X96910Y81285I800J0D01*G01*
G75*G03X95310Y81285I-800J0D01*G01*
X93710D02*G75*G03X98510Y81285I2400J0D01*G01*
G75*G03X93710Y81285I-2400J0D01*G01*
X95310Y71285D02*G75*G03X96910Y71285I800J0D01*G01*
G75*G03X95310Y71285I-800J0D01*G01*
X93710D02*G75*G03X98510Y71285I2400J0D01*G01*
G75*G03X93710Y71285I-2400J0D01*G01*
X95310Y61285D02*G75*G03X96910Y61285I800J0D01*G01*
G75*G03X95310Y61285I-800J0D01*G01*
X93710D02*G75*G03X98510Y61285I2400J0D01*G01*
G75*G03X93710Y61285I-2400J0D01*G01*
X14200Y235380D02*G75*G03X15800Y235380I800J0D01*G01*
G75*G03X14200Y235380I-800J0D01*G01*
X12600D02*G75*G03X17400Y235380I2400J0D01*G01*
G75*G03X12600Y235380I-2400J0D01*G01*
X135000Y237630D02*Y236880D01*
X136500Y235380D01*
X138000Y236880D01*
Y237630D02*Y236880D01*
X136500Y235380D02*Y231630D01*
X139801Y234630D02*X142051D01*
X139801Y231630D02*X142801D01*
X139801Y237630D02*Y231630D01*
Y237630D02*X142801D01*
X147603D02*X148353Y236880D01*
X145353Y237630D02*X147603D01*
X144603Y236880D02*X145353Y237630D01*
X144603Y236880D02*Y235380D01*
X145353Y234630D01*
X147603D01*
X148353Y233880D01*
Y232380D01*
X147603Y231630D02*X148353Y232380D01*
X145353Y231630D02*X147603D01*
X144603Y232380D02*X145353Y231630D01*
X135000Y228379D02*X150154D01*
X98000Y236880D02*X98750Y237630D01*
X100250D01*
X101000Y236880D01*
Y232380D01*
X100250Y231630D02*X101000Y232380D01*
X98750Y231630D02*X100250D01*
X98000Y232380D02*X98750Y231630D01*
Y234630D02*X101000D01*
X98000Y228379D02*X102801D01*
X45000Y232380D02*X45750Y231630D01*
X45000Y236880D02*Y232380D01*
Y236880D02*X45750Y237630D01*
X47250D01*
X48000Y236880D01*
Y232380D01*
X47250Y231630D02*X48000Y232380D01*
X45750Y231630D02*X47250D01*
X45000Y233130D02*X48000Y236130D01*
X49801Y231630D02*X50551D01*
X52353Y232380D02*X53103Y231630D01*
X52353Y236880D02*Y232380D01*
Y236880D02*X53103Y237630D01*
X54603D01*
X55353Y236880D01*
Y232380D01*
X54603Y231630D02*X55353Y232380D01*
X53103Y231630D02*X54603D01*
X52353Y233130D02*X55353Y236130D01*
X59404Y237630D02*X60154Y236880D01*
X57904Y237630D02*X59404D01*
X57154Y236880D02*X57904Y237630D01*
X57154Y236880D02*Y232380D01*
X57904Y231630D01*
X59404Y234630D02*X60154Y233880D01*
X57154Y234630D02*X59404D01*
X57904Y231630D02*X59404D01*
X60154Y232380D01*
Y233880D02*Y232380D01*
X61956D02*X62706Y231630D01*
X61956Y236880D02*Y232380D01*
Y236880D02*X62706Y237630D01*
X64206D01*
X64956Y236880D01*
Y232380D01*
X64206Y231630D02*X64956Y232380D01*
X62706Y231630D02*X64206D01*
X61956Y233130D02*X64956Y236130D01*
X45000Y228379D02*X66757D01*
X5474Y69719D02*X10274Y64919D01*
X5474D02*X10274Y69719D01*
X6274Y68919D02*X9474D01*
X6274D02*Y65719D01*
X9474D01*
Y68919D02*Y65719D01*
X15474Y69719D02*X20274Y64919D01*
X15474D02*X20274Y69719D01*
X16274Y68919D02*X19474D01*
X16274D02*Y65719D01*
X19474D01*
Y68919D02*Y65719D01*
X5474Y89404D02*X10274Y84604D01*
X5474D02*X10274Y89404D01*
X6274Y88604D02*X9474D01*
X6274D02*Y85404D01*
X9474D01*
Y88604D02*Y85404D01*
X15474Y89404D02*X20274Y84604D01*
X15474D02*X20274Y89404D01*
X16274Y88604D02*X19474D01*
X16274D02*Y85404D01*
X19474D01*
Y88604D02*Y85404D01*
X12600Y252780D02*X17400Y247980D01*
X12600D02*X17400Y252780D01*
X13400Y251980D02*X16600D01*
X13400D02*Y248780D01*
X16600D01*
Y251980D02*Y248780D01*
X135000Y252630D02*Y251880D01*
X136500Y250380D01*
X138000Y251880D01*
Y252630D02*Y251880D01*
X136500Y250380D02*Y246630D01*
X139801Y249630D02*X142051D01*
X139801Y246630D02*X142801D01*
X139801Y252630D02*Y246630D01*
Y252630D02*X142801D01*
X147603D02*X148353Y251880D01*
X145353Y252630D02*X147603D01*
X144603Y251880D02*X145353Y252630D01*
X144603Y251880D02*Y250380D01*
X145353Y249630D01*
X147603D01*
X148353Y248880D01*
Y247380D01*
X147603Y246630D02*X148353Y247380D01*
X145353Y246630D02*X147603D01*
X144603Y247380D02*X145353Y246630D01*
X135000Y243379D02*X150154D01*
X98000Y249630D02*X101000Y252630D01*
X98000Y249630D02*X101750D01*
X101000Y252630D02*Y246630D01*
X98000Y243379D02*X103551D01*
X45000Y247380D02*X45750Y246630D01*
X45000Y251880D02*Y247380D01*
Y251880D02*X45750Y252630D01*
X47250D01*
X48000Y251880D01*
Y247380D01*
X47250Y246630D02*X48000Y247380D01*
X45750Y246630D02*X47250D01*
X45000Y248130D02*X48000Y251130D01*
X49801Y246630D02*X50551D01*
X52353Y247380D02*X53103Y246630D01*
X52353Y251880D02*Y247380D01*
Y251880D02*X53103Y252630D01*
X54603D01*
X55353Y251880D01*
Y247380D01*
X54603Y246630D02*X55353Y247380D01*
X53103Y246630D02*X54603D01*
X52353Y248130D02*X55353Y251130D01*
X57154Y249630D02*X60154Y252630D01*
X57154Y249630D02*X60904D01*
X60154Y252630D02*Y246630D01*
X62706Y251880D02*X63456Y252630D01*
X64956D01*
X65706Y251880D01*
Y247380D01*
X64956Y246630D02*X65706Y247380D01*
X63456Y246630D02*X64956D01*
X62706Y247380D02*X63456Y246630D01*
Y249630D02*X65706D01*
X45000Y243379D02*X67507D01*
X57047Y151621D02*Y145221D01*
X53847Y148421D02*X60247D01*
X55447Y150021D02*X58647D01*
X55447D02*Y146821D01*
X58647D01*
Y150021D02*Y146821D01*
X22047Y151621D02*Y145221D01*
X18847Y148421D02*X25247D01*
X20447Y150021D02*X23647D01*
X20447D02*Y146821D01*
X23647D01*
Y150021D02*Y146821D01*
X57047Y171306D02*Y164906D01*
X53847Y168106D02*X60247D01*
X55447Y169706D02*X58647D01*
X55447D02*Y166506D01*
X58647D01*
Y169706D02*Y166506D01*
X22047Y171306D02*Y164906D01*
X18847Y168106D02*X25247D01*
X20447Y169706D02*X23647D01*
X20447D02*Y166506D01*
X23647D01*
Y169706D02*Y166506D01*
X15000Y268580D02*Y262180D01*
X11800Y265380D02*X18200D01*
X13400Y266980D02*X16600D01*
X13400D02*Y263780D01*
X16600D01*
Y266980D02*Y263780D01*
X135000Y267630D02*Y266880D01*
X136500Y265380D01*
X138000Y266880D01*
Y267630D02*Y266880D01*
X136500Y265380D02*Y261630D01*
X139801Y264630D02*X142051D01*
X139801Y261630D02*X142801D01*
X139801Y267630D02*Y261630D01*
Y267630D02*X142801D01*
X147603D02*X148353Y266880D01*
X145353Y267630D02*X147603D01*
X144603Y266880D02*X145353Y267630D01*
X144603Y266880D02*Y265380D01*
X145353Y264630D01*
X147603D01*
X148353Y263880D01*
Y262380D01*
X147603Y261630D02*X148353Y262380D01*
X145353Y261630D02*X147603D01*
X144603Y262380D02*X145353Y261630D01*
X135000Y258379D02*X150154D01*
X98000Y264630D02*X101000Y267630D01*
X98000Y264630D02*X101750D01*
X101000Y267630D02*Y261630D01*
X98000Y258379D02*X103551D01*
X45000Y262380D02*X45750Y261630D01*
X45000Y266880D02*Y262380D01*
Y266880D02*X45750Y267630D01*
X47250D01*
X48000Y266880D01*
Y262380D01*
X47250Y261630D02*X48000Y262380D01*
X45750Y261630D02*X47250D01*
X45000Y263130D02*X48000Y266130D01*
X49801Y261630D02*X50551D01*
X52353Y262380D02*X53103Y261630D01*
X52353Y266880D02*Y262380D01*
Y266880D02*X53103Y267630D01*
X54603D01*
X55353Y266880D01*
Y262380D01*
X54603Y261630D02*X55353Y262380D01*
X53103Y261630D02*X54603D01*
X52353Y263130D02*X55353Y266130D01*
X57154Y264630D02*X60154Y267630D01*
X57154Y264630D02*X60904D01*
X60154Y267630D02*Y261630D01*
X62706Y262380D02*X63456Y261630D01*
X62706Y266880D02*Y262380D01*
Y266880D02*X63456Y267630D01*
X64956D01*
X65706Y266880D01*
Y262380D01*
X64956Y261630D02*X65706Y262380D01*
X63456Y261630D02*X64956D01*
X62706Y263130D02*X65706Y266130D01*
X45000Y258379D02*X67507D01*
X162756Y24012D02*Y20812D01*
Y24012D02*X165529Y25612D01*
X162756Y24012D02*X159983Y25612D01*
X161156Y24012D02*G75*G03X164356Y24012I1600J0D01*G01*
G75*G03X161156Y24012I-1600J0D01*G01*
X152756D02*Y20812D01*
Y24012D02*X155529Y25612D01*
X152756Y24012D02*X149983Y25612D01*
X151156Y24012D02*G75*G03X154356Y24012I1600J0D01*G01*
G75*G03X151156Y24012I-1600J0D01*G01*
X142756D02*Y20812D01*
Y24012D02*X145529Y25612D01*
X142756Y24012D02*X139983Y25612D01*
X141156Y24012D02*G75*G03X144356Y24012I1600J0D01*G01*
G75*G03X141156Y24012I-1600J0D01*G01*
X96063D02*Y20812D01*
Y24012D02*X98836Y25612D01*
X96063Y24012D02*X93290Y25612D01*
X94463Y24012D02*G75*G03X97663Y24012I1600J0D01*G01*
G75*G03X94463Y24012I-1600J0D01*G01*
X86063D02*Y20812D01*
Y24012D02*X88836Y25612D01*
X86063Y24012D02*X83290Y25612D01*
X84463Y24012D02*G75*G03X87663Y24012I1600J0D01*G01*
G75*G03X84463Y24012I-1600J0D01*G01*
X76063D02*Y20812D01*
Y24012D02*X78836Y25612D01*
X76063Y24012D02*X73290Y25612D01*
X74463Y24012D02*G75*G03X77663Y24012I1600J0D01*G01*
G75*G03X74463Y24012I-1600J0D01*G01*
X162520Y40547D02*Y37347D01*
Y40547D02*X165293Y42147D01*
X162520Y40547D02*X159747Y42147D01*
X160920Y40547D02*G75*G03X164120Y40547I1600J0D01*G01*
G75*G03X160920Y40547I-1600J0D01*G01*
X152520D02*Y37347D01*
Y40547D02*X155293Y42147D01*
X152520Y40547D02*X149747Y42147D01*
X150920Y40547D02*G75*G03X154120Y40547I1600J0D01*G01*
G75*G03X150920Y40547I-1600J0D01*G01*
X142520D02*Y37347D01*
Y40547D02*X145293Y42147D01*
X142520Y40547D02*X139747Y42147D01*
X140920Y40547D02*G75*G03X144120Y40547I1600J0D01*G01*
G75*G03X140920Y40547I-1600J0D01*G01*
X132520D02*Y37347D01*
Y40547D02*X135293Y42147D01*
X132520Y40547D02*X129747Y42147D01*
X130920Y40547D02*G75*G03X134120Y40547I1600J0D01*G01*
G75*G03X130920Y40547I-1600J0D01*G01*
X122520D02*Y37347D01*
Y40547D02*X125293Y42147D01*
X122520Y40547D02*X119747Y42147D01*
X120920Y40547D02*G75*G03X124120Y40547I1600J0D01*G01*
G75*G03X120920Y40547I-1600J0D01*G01*
X129449Y24012D02*Y20812D01*
Y24012D02*X132222Y25612D01*
X129449Y24012D02*X126676Y25612D01*
X127849Y24012D02*G75*G03X131049Y24012I1600J0D01*G01*
G75*G03X127849Y24012I-1600J0D01*G01*
X119449D02*Y20812D01*
Y24012D02*X122222Y25612D01*
X119449Y24012D02*X116676Y25612D01*
X117849Y24012D02*G75*G03X121049Y24012I1600J0D01*G01*
G75*G03X117849Y24012I-1600J0D01*G01*
X109449D02*Y20812D01*
Y24012D02*X112222Y25612D01*
X109449Y24012D02*X106676Y25612D01*
X107849Y24012D02*G75*G03X111049Y24012I1600J0D01*G01*
G75*G03X107849Y24012I-1600J0D01*G01*
X10236Y168106D02*Y164906D01*
Y168106D02*X13009Y169706D01*
X10236Y168106D02*X7463Y169706D01*
X8636Y168106D02*G75*G03X11836Y168106I1600J0D01*G01*
G75*G03X8636Y168106I-1600J0D01*G01*
X10236Y158106D02*Y154906D01*
Y158106D02*X13009Y159706D01*
X10236Y158106D02*X7463Y159706D01*
X8636Y158106D02*G75*G03X11836Y158106I1600J0D01*G01*
G75*G03X8636Y158106I-1600J0D01*G01*
X70866D02*Y154906D01*
Y158106D02*X73639Y159706D01*
X70866Y158106D02*X68093Y159706D01*
X69266Y158106D02*G75*G03X72466Y158106I1600J0D01*G01*
G75*G03X69266Y158106I-1600J0D01*G01*
X70866Y168106D02*Y164906D01*
Y168106D02*X73639Y169706D01*
X70866Y168106D02*X68093Y169706D01*
X69266Y168106D02*G75*G03X72466Y168106I1600J0D01*G01*
G75*G03X69266Y168106I-1600J0D01*G01*
X15000Y280380D02*Y277180D01*
Y280380D02*X17773Y281980D01*
X15000Y280380D02*X12227Y281980D01*
X13400Y280380D02*G75*G03X16600Y280380I1600J0D01*G01*
G75*G03X13400Y280380I-1600J0D01*G01*
X135000Y282630D02*Y281880D01*
X136500Y280380D01*
X138000Y281880D01*
Y282630D02*Y281880D01*
X136500Y280380D02*Y276630D01*
X139801Y279630D02*X142051D01*
X139801Y276630D02*X142801D01*
X139801Y282630D02*Y276630D01*
Y282630D02*X142801D01*
X147603D02*X148353Y281880D01*
X145353Y282630D02*X147603D01*
X144603Y281880D02*X145353Y282630D01*
X144603Y281880D02*Y280380D01*
X145353Y279630D01*
X147603D01*
X148353Y278880D01*
Y277380D01*
X147603Y276630D02*X148353Y277380D01*
X145353Y276630D02*X147603D01*
X144603Y277380D02*X145353Y276630D01*
X135000Y273379D02*X150154D01*
X98750Y276630D02*X100250D01*
X99500Y282630D02*Y276630D01*
X98000Y281130D02*X99500Y282630D01*
X102051Y277380D02*X102801Y276630D01*
X102051Y278880D02*Y277380D01*
Y278880D02*X102801Y279630D01*
X104301D01*
X105051Y278880D01*
Y277380D01*
X104301Y276630D02*X105051Y277380D01*
X102801Y276630D02*X104301D01*
X102051Y280380D02*X102801Y279630D01*
X102051Y281880D02*Y280380D01*
Y281880D02*X102801Y282630D01*
X104301D01*
X105051Y281880D01*
Y280380D01*
X104301Y279630D02*X105051Y280380D01*
X98000Y273379D02*X106853D01*
X45000Y277380D02*X45750Y276630D01*
X45000Y281880D02*Y277380D01*
Y281880D02*X45750Y282630D01*
X47250D01*
X48000Y281880D01*
Y277380D01*
X47250Y276630D02*X48000Y277380D01*
X45750Y276630D02*X47250D01*
X45000Y278130D02*X48000Y281130D01*
X49801Y276630D02*X50551D01*
X52353Y277380D02*X53103Y276630D01*
X52353Y281880D02*Y277380D01*
Y281880D02*X53103Y282630D01*
X54603D01*
X55353Y281880D01*
Y277380D01*
X54603Y276630D02*X55353Y277380D01*
X53103Y276630D02*X54603D01*
X52353Y278130D02*X55353Y281130D01*
X57154Y281880D02*X57904Y282630D01*
X59404D01*
X60154Y281880D01*
Y277380D01*
X59404Y276630D02*X60154Y277380D01*
X57904Y276630D02*X59404D01*
X57154Y277380D02*X57904Y276630D01*
Y279630D02*X60154D01*
X61956Y277380D02*X62706Y276630D01*
X61956Y278880D02*Y277380D01*
Y278880D02*X62706Y279630D01*
X64206D01*
X64956Y278880D01*
Y277380D01*
X64206Y276630D02*X64956Y277380D01*
X62706Y276630D02*X64206D01*
X61956Y280380D02*X62706Y279630D01*
X61956Y281880D02*Y280380D01*
Y281880D02*X62706Y282630D01*
X64206D01*
X64956Y281880D01*
Y280380D01*
X64206Y279630D02*X64956Y280380D01*
X45000Y273379D02*X66757D01*
X118085Y98053D02*X121285D01*
X118085D02*Y94853D01*
X121285D01*
Y98053D02*Y94853D01*
X136983Y57108D02*X140183D01*
X136983D02*Y53908D01*
X140183D01*
Y57108D02*Y53908D01*
X92888Y37423D02*X96088D01*
X92888D02*Y34223D01*
X96088D01*
Y37423D02*Y34223D01*
X117298Y76006D02*X120498D01*
X117298D02*Y72806D01*
X120498D01*
Y76006D02*Y72806D01*
X124384Y57108D02*X127584D01*
X124384D02*Y53908D01*
X127584D01*
Y57108D02*Y53908D01*
X117298Y57108D02*X120498D01*
X117298D02*Y53908D01*
X120498D01*
Y57108D02*Y53908D01*
X117298Y83093D02*X120498D01*
X117298D02*Y79893D01*
X120498D01*
Y83093D02*Y79893D01*
X117298Y68920D02*X120498D01*
X117298D02*Y65720D01*
X120498D01*
Y68920D02*Y65720D01*
X131471Y90179D02*X134671D01*
X131471D02*Y86979D01*
X134671D01*
Y90179D02*Y86979D01*
X124384Y90179D02*X127584D01*
X124384D02*Y86979D01*
X127584D01*
Y90179D02*Y86979D01*
X117298Y90179D02*X120498D01*
X117298D02*Y86979D01*
X120498D01*
Y90179D02*Y86979D01*
X29896Y24824D02*X33096D01*
X29896D02*Y21624D01*
X33096D01*
Y24824D02*Y21624D01*
X138557Y90179D02*X141757D01*
X138557D02*Y86979D01*
X141757D01*
Y90179D02*Y86979D01*
X7061Y24824D02*X10261D01*
X7061D02*Y21624D01*
X10261D01*
Y24824D02*Y21624D01*
X131471Y68919D02*X134671D01*
X131471D02*Y65719D01*
X134671D01*
Y68919D02*Y65719D01*
X138557Y68919D02*X141757D01*
X138557D02*Y65719D01*
X141757D01*
Y68919D02*Y65719D01*
X124384Y68919D02*X127584D01*
X124384D02*Y65719D01*
X127584D01*
Y68919D02*Y65719D01*
X163754Y52384D02*X166954D01*
X163754D02*Y49184D01*
X166954D01*
Y52384D02*Y49184D01*
X124384Y76005D02*X127584D01*
X124384D02*Y72805D01*
X127584D01*
Y76005D02*Y72805D01*
X131471Y76005D02*X134671D01*
X131471D02*Y72805D01*
X134671D01*
Y76005D02*Y72805D01*
X138557Y83092D02*X141757D01*
X138557D02*Y79892D01*
X141757D01*
Y83092D02*Y79892D01*
X131471Y83092D02*X134671D01*
X131471D02*Y79892D01*
X134671D01*
Y83092D02*Y79892D01*
X124384Y83092D02*X127584D01*
X124384D02*Y79892D01*
X127584D01*
Y83092D02*Y79892D01*
X138557Y76005D02*X141757D01*
X138557D02*Y72805D01*
X141757D01*
Y76005D02*Y72805D01*
X154305Y84667D02*X157505D01*
X154305D02*Y81467D01*
X157505D01*
Y84667D02*Y81467D01*
X161392Y86242D02*X164592D01*
X161392D02*Y83042D01*
X164592D01*
Y86242D02*Y83042D01*
X154305Y61045D02*X157505D01*
X154305D02*Y57845D01*
X157505D01*
Y61045D02*Y57845D01*
X161392Y59470D02*X164592D01*
X161392D02*Y56270D01*
X164592D01*
Y59470D02*Y56270D01*
X168478Y84667D02*X171678D01*
X168478D02*Y81467D01*
X171678D01*
Y84667D02*Y81467D01*
X168478Y61045D02*X171678D01*
X168478D02*Y57845D01*
X171678D01*
Y61045D02*Y57845D01*
X13400Y296980D02*X16600D01*
X13400D02*Y293780D01*
X16600D01*
Y296980D02*Y293780D01*
X135000Y297630D02*Y296880D01*
X136500Y295380D01*
X138000Y296880D01*
Y297630D02*Y296880D01*
X136500Y295380D02*Y291630D01*
X139801Y294630D02*X142051D01*
X139801Y291630D02*X142801D01*
X139801Y297630D02*Y291630D01*
Y297630D02*X142801D01*
X147603D02*X148353Y296880D01*
X145353Y297630D02*X147603D01*
X144603Y296880D02*X145353Y297630D01*
X144603Y296880D02*Y295380D01*
X145353Y294630D01*
X147603D01*
X148353Y293880D01*
Y292380D01*
X147603Y291630D02*X148353Y292380D01*
X145353Y291630D02*X147603D01*
X144603Y292380D02*X145353Y291630D01*
X135000Y288379D02*X150154D01*
X98000Y296880D02*X98750Y297630D01*
X100250D01*
X101000Y296880D01*
Y292380D01*
X100250Y291630D02*X101000Y292380D01*
X98750Y291630D02*X100250D01*
X98000Y292380D02*X98750Y291630D01*
Y294630D02*X101000D01*
X102801Y292380D02*X103551Y291630D01*
X102801Y296880D02*Y292380D01*
Y296880D02*X103551Y297630D01*
X105051D01*
X105801Y296880D01*
Y292380D01*
X105051Y291630D02*X105801Y292380D01*
X103551Y291630D02*X105051D01*
X102801Y293130D02*X105801Y296130D01*
X98000Y288379D02*X107603D01*
X45000Y292380D02*X45750Y291630D01*
X45000Y296880D02*Y292380D01*
Y296880D02*X45750Y297630D01*
X47250D01*
X48000Y296880D01*
Y292380D01*
X47250Y291630D02*X48000Y292380D01*
X45750Y291630D02*X47250D01*
X45000Y293130D02*X48000Y296130D01*
X49801Y291630D02*X50551D01*
X52353Y292380D02*X53103Y291630D01*
X52353Y296880D02*Y292380D01*
Y296880D02*X53103Y297630D01*
X54603D01*
X55353Y296880D01*
Y292380D01*
X54603Y291630D02*X55353Y292380D01*
X53103Y291630D02*X54603D01*
X52353Y293130D02*X55353Y296130D01*
X57154Y296880D02*X57904Y297630D01*
X59404D01*
X60154Y296880D01*
Y292380D01*
X59404Y291630D02*X60154Y292380D01*
X57904Y291630D02*X59404D01*
X57154Y292380D02*X57904Y291630D01*
Y294630D02*X60154D01*
X61956Y297630D02*X64956D01*
X61956D02*Y294630D01*
X62706Y295380D01*
X64206D01*
X64956Y294630D01*
Y292380D01*
X64206Y291630D02*X64956Y292380D01*
X62706Y291630D02*X64206D01*
X61956Y292380D02*X62706Y291630D01*
X45000Y288379D02*X66757D01*
X153768Y156294D02*G75*G03X155368Y156294I800J0D01*G01*
G75*G03X153768Y156294I-800J0D01*G01*
X163768D02*G75*G03X165368Y156294I800J0D01*G01*
G75*G03X163768Y156294I-800J0D01*G01*
X145657Y119287D02*G75*G03X147257Y119287I800J0D01*G01*
G75*G03X145657Y119287I-800J0D01*G01*
X135657D02*G75*G03X137257Y119287I800J0D01*G01*
G75*G03X135657Y119287I-800J0D01*G01*
X101495Y119376D02*G75*G03X103095Y119376I800J0D01*G01*
G75*G03X101495Y119376I-800J0D01*G01*
X111495D02*G75*G03X113095Y119376I800J0D01*G01*
G75*G03X111495Y119376I-800J0D01*G01*
X80216Y106643D02*G75*G03X81816Y106643I800J0D01*G01*
G75*G03X80216Y106643I-800J0D01*G01*
Y116643D02*G75*G03X81816Y116643I800J0D01*G01*
G75*G03X80216Y116643I-800J0D01*G01*
X167704Y120075D02*G75*G03X169304Y120075I800J0D01*G01*
G75*G03X167704Y120075I-800J0D01*G01*
Y130075D02*G75*G03X169304Y130075I800J0D01*G01*
G75*G03X167704Y130075I-800J0D01*G01*
X70006Y141345D02*G75*G03X71606Y141345I800J0D01*G01*
G75*G03X70006Y141345I-800J0D01*G01*
X80006D02*G75*G03X81606Y141345I800J0D01*G01*
G75*G03X80006Y141345I-800J0D01*G01*
X14200Y310380D02*G75*G03X15800Y310380I800J0D01*G01*
G75*G03X14200Y310380I-800J0D01*G01*
X135000Y312630D02*Y311880D01*
X136500Y310380D01*
X138000Y311880D01*
Y312630D02*Y311880D01*
X136500Y310380D02*Y306630D01*
X139801Y309630D02*X142051D01*
X139801Y306630D02*X142801D01*
X139801Y312630D02*Y306630D01*
Y312630D02*X142801D01*
X147603D02*X148353Y311880D01*
X145353Y312630D02*X147603D01*
X144603Y311880D02*X145353Y312630D01*
X144603Y311880D02*Y310380D01*
X145353Y309630D01*
X147603D01*
X148353Y308880D01*
Y307380D01*
X147603Y306630D02*X148353Y307380D01*
X145353Y306630D02*X147603D01*
X144603Y307380D02*X145353Y306630D01*
X135000Y303379D02*X150154D01*
X98750Y306630D02*X100250D01*
X99500Y312630D02*Y306630D01*
X98000Y311130D02*X99500Y312630D01*
X102051Y311880D02*X102801Y312630D01*
X105051D01*
X105801Y311880D01*
Y310380D01*
X102051Y306630D02*X105801Y310380D01*
X102051Y306630D02*X105801D01*
X98000Y303379D02*X107603D01*
X45000Y307380D02*X45750Y306630D01*
X45000Y311880D02*Y307380D01*
Y311880D02*X45750Y312630D01*
X47250D01*
X48000Y311880D01*
Y307380D01*
X47250Y306630D02*X48000Y307380D01*
X45750Y306630D02*X47250D01*
X45000Y308130D02*X48000Y311130D01*
X49801Y306630D02*X50551D01*
X52353Y307380D02*X53103Y306630D01*
X52353Y311880D02*Y307380D01*
Y311880D02*X53103Y312630D01*
X54603D01*
X55353Y311880D01*
Y307380D01*
X54603Y306630D02*X55353Y307380D01*
X53103Y306630D02*X54603D01*
X52353Y308130D02*X55353Y311130D01*
X57154Y311880D02*X57904Y312630D01*
X59404D01*
X60154Y311880D01*
Y307380D01*
X59404Y306630D02*X60154Y307380D01*
X57904Y306630D02*X59404D01*
X57154Y307380D02*X57904Y306630D01*
Y309630D02*X60154D01*
X61956Y307380D02*X62706Y306630D01*
X61956Y311880D02*Y307380D01*
Y311880D02*X62706Y312630D01*
X64206D01*
X64956Y311880D01*
Y307380D01*
X64206Y306630D02*X64956Y307380D01*
X62706Y306630D02*X64206D01*
X61956Y308130D02*X64956Y311130D01*
X45000Y303379D02*X66757D01*
X167383Y103952D02*X169783Y101552D01*
X167383D02*X169783Y103952D01*
X137383D02*X139783Y101552D01*
X137383D02*X139783Y103952D01*
X127034Y104037D02*X129434Y101637D01*
X127034D02*X129434Y104037D01*
X97034D02*X99434Y101637D01*
X97034D02*X99434Y104037D01*
X13800Y326580D02*X16200Y324180D01*
X13800D02*X16200Y326580D01*
X135000Y327630D02*Y326880D01*
X136500Y325380D01*
X138000Y326880D01*
Y327630D02*Y326880D01*
X136500Y325380D02*Y321630D01*
X139801Y324630D02*X142051D01*
X139801Y321630D02*X142801D01*
X139801Y327630D02*Y321630D01*
Y327630D02*X142801D01*
X147603D02*X148353Y326880D01*
X145353Y327630D02*X147603D01*
X144603Y326880D02*X145353Y327630D01*
X144603Y326880D02*Y325380D01*
X145353Y324630D01*
X147603D01*
X148353Y323880D01*
Y322380D01*
X147603Y321630D02*X148353Y322380D01*
X145353Y321630D02*X147603D01*
X144603Y322380D02*X145353Y321630D01*
X135000Y318379D02*X150154D01*
X98000Y324630D02*X101000Y327630D01*
X98000Y324630D02*X101750D01*
X101000Y327630D02*Y321630D01*
X98000Y318379D02*X103551D01*
X45000Y322380D02*X45750Y321630D01*
X45000Y326880D02*Y322380D01*
Y326880D02*X45750Y327630D01*
X47250D01*
X48000Y326880D01*
Y322380D01*
X47250Y321630D02*X48000Y322380D01*
X45750Y321630D02*X47250D01*
X45000Y323130D02*X48000Y326130D01*
X49801Y321630D02*X50551D01*
X52353Y322380D02*X53103Y321630D01*
X52353Y326880D02*Y322380D01*
Y326880D02*X53103Y327630D01*
X54603D01*
X55353Y326880D01*
Y322380D01*
X54603Y321630D02*X55353Y322380D01*
X53103Y321630D02*X54603D01*
X52353Y323130D02*X55353Y326130D01*
X57154Y326880D02*X57904Y327630D01*
X60154D01*
X60904Y326880D01*
Y325380D01*
X57154Y321630D02*X60904Y325380D01*
X57154Y321630D02*X60904D01*
X62706D02*X65706Y324630D01*
Y326880D02*Y324630D01*
X64956Y327630D02*X65706Y326880D01*
X63456Y327630D02*X64956D01*
X62706Y326880D02*X63456Y327630D01*
X62706Y326880D02*Y325380D01*
X63456Y324630D01*
X65706D01*
X45000Y318379D02*X67507D01*
X107081Y169020D02*Y165820D01*
X105481Y167420D02*X108681D01*
X107081Y159020D02*Y155820D01*
X105481Y157420D02*X108681D01*
X107081Y149020D02*Y145820D01*
X105481Y147420D02*X108681D01*
X107081Y139020D02*Y135820D01*
X105481Y137420D02*X108681D01*
X137081Y139020D02*Y135820D01*
X135481Y137420D02*X138681D01*
X137081Y149020D02*Y145820D01*
X135481Y147420D02*X138681D01*
X137081Y159020D02*Y155820D01*
X135481Y157420D02*X138681D01*
X137081Y169020D02*Y165820D01*
X135481Y167420D02*X138681D01*
X15000Y341980D02*Y338780D01*
X13400Y340380D02*X16600D01*
X135000Y342630D02*Y341880D01*
X136500Y340380D01*
X138000Y341880D01*
Y342630D02*Y341880D01*
X136500Y340380D02*Y336630D01*
X139801Y339630D02*X142051D01*
X139801Y336630D02*X142801D01*
X139801Y342630D02*Y336630D01*
Y342630D02*X142801D01*
X147603D02*X148353Y341880D01*
X145353Y342630D02*X147603D01*
X144603Y341880D02*X145353Y342630D01*
X144603Y341880D02*Y340380D01*
X145353Y339630D01*
X147603D01*
X148353Y338880D01*
Y337380D01*
X147603Y336630D02*X148353Y337380D01*
X145353Y336630D02*X147603D01*
X144603Y337380D02*X145353Y336630D01*
X135000Y333379D02*X150154D01*
X98000Y337380D02*X98750Y336630D01*
X98000Y338880D02*Y337380D01*
Y338880D02*X98750Y339630D01*
X100250D01*
X101000Y338880D01*
Y337380D01*
X100250Y336630D02*X101000Y337380D01*
X98750Y336630D02*X100250D01*
X98000Y340380D02*X98750Y339630D01*
X98000Y341880D02*Y340380D01*
Y341880D02*X98750Y342630D01*
X100250D01*
X101000Y341880D01*
Y340380D01*
X100250Y339630D02*X101000Y340380D01*
X98000Y333379D02*X102801D01*
X45000Y337380D02*X45750Y336630D01*
X45000Y341880D02*Y337380D01*
Y341880D02*X45750Y342630D01*
X47250D01*
X48000Y341880D01*
Y337380D01*
X47250Y336630D02*X48000Y337380D01*
X45750Y336630D02*X47250D01*
X45000Y338130D02*X48000Y341130D01*
X49801Y336630D02*X50551D01*
X52353Y337380D02*X53103Y336630D01*
X52353Y341880D02*Y337380D01*
Y341880D02*X53103Y342630D01*
X54603D01*
X55353Y341880D01*
Y337380D01*
X54603Y336630D02*X55353Y337380D01*
X53103Y336630D02*X54603D01*
X52353Y338130D02*X55353Y341130D01*
X57154Y341880D02*X57904Y342630D01*
X60154D01*
X60904Y341880D01*
Y340380D01*
X57154Y336630D02*X60904Y340380D01*
X57154Y336630D02*X60904D01*
X62706Y337380D02*X63456Y336630D01*
X62706Y338880D02*Y337380D01*
Y338880D02*X63456Y339630D01*
X64956D01*
X65706Y338880D01*
Y337380D01*
X64956Y336630D02*X65706Y337380D01*
X63456Y336630D02*X64956D01*
X62706Y340380D02*X63456Y339630D01*
X62706Y341880D02*Y340380D01*
Y341880D02*X63456Y342630D01*
X64956D01*
X65706Y341880D01*
Y340380D01*
X64956Y339630D02*X65706Y340380D01*
X45000Y333379D02*X67507D01*
X34252Y77949D02*Y76349D01*
Y77949D02*X35638Y78749D01*
X34252Y77949D02*X32866Y78749D01*
X64173Y62988D02*Y61388D01*
Y62988D02*X65559Y63788D01*
X64173Y62988D02*X62787Y63788D01*
X71259Y77949D02*Y76349D01*
Y77949D02*X72645Y78749D01*
X71259Y77949D02*X69873Y78749D01*
X174802Y75980D02*Y74380D01*
Y75980D02*X176188Y76780D01*
X174802Y75980D02*X173416Y76780D01*
X33464Y54327D02*Y52727D01*
Y54327D02*X34850Y55127D01*
X33464Y54327D02*X32078Y55127D01*
X33464Y59838D02*Y58238D01*
Y59838D02*X34850Y60638D01*
X33464Y59838D02*X32078Y60638D01*
X51969Y47634D02*Y46034D01*
Y47634D02*X53355Y48434D01*
X51969Y47634D02*X50583Y48434D01*
X51181Y54721D02*Y53121D01*
Y54721D02*X52567Y55521D01*
X51181Y54721D02*X49795Y55521D01*
X77165Y89366D02*Y87766D01*
Y89366D02*X78551Y90166D01*
X77165Y89366D02*X75779Y90166D01*
X31889Y100783D02*Y99183D01*
Y100783D02*X33275Y101583D01*
X31889Y100783D02*X30503Y101583D01*
X42520Y86217D02*Y84617D01*
Y86217D02*X43906Y87017D01*
X42520Y86217D02*X41134Y87017D01*
X66929Y96453D02*Y94853D01*
Y96453D02*X68315Y97253D01*
X66929Y96453D02*X65543Y97253D01*
X83465Y92516D02*Y90916D01*
Y92516D02*X84851Y93316D01*
X83465Y92516D02*X82079Y93316D01*
X77165Y38185D02*Y36585D01*
Y38185D02*X78551Y38985D01*
X77165Y38185D02*X75779Y38985D01*
X48031Y44484D02*Y42884D01*
Y44484D02*X49417Y45284D01*
X48031Y44484D02*X46645Y45284D01*
X8661Y30311D02*Y28711D01*
Y30311D02*X10047Y31111D01*
X8661Y30311D02*X7275Y31111D01*
X20472Y53933D02*Y52333D01*
Y53933D02*X21858Y54733D01*
X20472Y53933D02*X19086Y54733D01*
X22047Y46059D02*Y44459D01*
Y46059D02*X23433Y46859D01*
X22047Y46059D02*X20661Y46859D01*
X151180Y66532D02*Y64932D01*
Y66532D02*X152566Y67332D01*
X151180Y66532D02*X149794Y67332D01*
X151180Y75980D02*Y74380D01*
Y75980D02*X152566Y76780D01*
X151180Y75980D02*X149794Y76780D01*
X151180Y79917D02*Y78317D01*
Y79917D02*X152566Y80717D01*
X151180Y79917D02*X149794Y80717D01*
X151180Y62595D02*Y60995D01*
Y62595D02*X152566Y63395D01*
X151180Y62595D02*X149794Y63395D01*
X174802Y79917D02*Y78317D01*
Y79917D02*X176188Y80717D01*
X174802Y79917D02*X173416Y80717D01*
X174802Y66532D02*Y64932D01*
Y66532D02*X176188Y67332D01*
X174802Y66532D02*X173416Y67332D01*
X174802Y62595D02*Y60995D01*
Y62595D02*X176188Y63395D01*
X174802Y62595D02*X173416Y63395D01*
X15000Y355380D02*Y353780D01*
Y355380D02*X16386Y356180D01*
X15000Y355380D02*X13614Y356180D01*
X135000Y357630D02*Y356880D01*
X136500Y355380D01*
X138000Y356880D01*
Y357630D02*Y356880D01*
X136500Y355380D02*Y351630D01*
X139801Y354630D02*X142051D01*
X139801Y351630D02*X142801D01*
X139801Y357630D02*Y351630D01*
Y357630D02*X142801D01*
X147603D02*X148353Y356880D01*
X145353Y357630D02*X147603D01*
X144603Y356880D02*X145353Y357630D01*
X144603Y356880D02*Y355380D01*
X145353Y354630D01*
X147603D01*
X148353Y353880D01*
Y352380D01*
X147603Y351630D02*X148353Y352380D01*
X145353Y351630D02*X147603D01*
X144603Y352380D02*X145353Y351630D01*
X135000Y348379D02*X150154D01*
X98000Y356880D02*X98750Y357630D01*
X101000D01*
X101750Y356880D01*
Y355380D01*
X98000Y351630D02*X101750Y355380D01*
X98000Y351630D02*X101750D01*
X103551Y357630D02*X106551D01*
X103551D02*Y354630D01*
X104301Y355380D01*
X105801D01*
X106551Y354630D01*
Y352380D01*
X105801Y351630D02*X106551Y352380D01*
X104301Y351630D02*X105801D01*
X103551Y352380D02*X104301Y351630D01*
X98000Y348379D02*X108353D01*
X45000Y352380D02*X45750Y351630D01*
X45000Y356880D02*Y352380D01*
Y356880D02*X45750Y357630D01*
X47250D01*
X48000Y356880D01*
Y352380D01*
X47250Y351630D02*X48000Y352380D01*
X45750Y351630D02*X47250D01*
X45000Y353130D02*X48000Y356130D01*
X49801Y351630D02*X50551D01*
X52353Y352380D02*X53103Y351630D01*
X52353Y356880D02*Y352380D01*
Y356880D02*X53103Y357630D01*
X54603D01*
X55353Y356880D01*
Y352380D01*
X54603Y351630D02*X55353Y352380D01*
X53103Y351630D02*X54603D01*
X52353Y353130D02*X55353Y356130D01*
X57154Y356880D02*X57904Y357630D01*
X60154D01*
X60904Y356880D01*
Y355380D01*
X57154Y351630D02*X60904Y355380D01*
X57154Y351630D02*X60904D01*
X62706Y352380D02*X63456Y351630D01*
X62706Y356880D02*Y352380D01*
Y356880D02*X63456Y357630D01*
X64956D01*
X65706Y356880D01*
Y352380D01*
X64956Y351630D02*X65706Y352380D01*
X63456Y351630D02*X64956D01*
X62706Y353130D02*X65706Y356130D01*
X45000Y348379D02*X67507D01*
X3000Y372630D02*X3750Y371880D01*
X750Y372630D02*X3000D01*
X0Y371880D02*X750Y372630D01*
X0Y371880D02*Y370380D01*
X750Y369630D01*
X3000D01*
X3750Y368880D01*
Y367380D01*
X3000Y366630D02*X3750Y367380D01*
X750Y366630D02*X3000D01*
X0Y367380D02*X750Y366630D01*
X5551Y369630D02*Y367380D01*
X6301Y366630D01*
X8551Y369630D02*Y365130D01*
X7801Y364380D02*X8551Y365130D01*
X6301Y364380D02*X7801D01*
X5551Y365130D02*X6301Y364380D01*
Y366630D02*X7801D01*
X8551Y367380D01*
X11103Y368880D02*Y366630D01*
Y368880D02*X11853Y369630D01*
X12603D01*
X13353Y368880D01*
Y366630D01*
Y368880D02*X14103Y369630D01*
X14853D01*
X15603Y368880D01*
Y366630D01*
X10353Y369630D02*X11103Y368880D01*
X17404Y372630D02*Y366630D01*
Y367380D02*X18154Y366630D01*
X19654D01*
X20404Y367380D01*
Y368880D02*Y367380D01*
X19654Y369630D02*X20404Y368880D01*
X18154Y369630D02*X19654D01*
X17404Y368880D02*X18154Y369630D01*
X22206Y368880D02*Y367380D01*
Y368880D02*X22956Y369630D01*
X24456D01*
X25206Y368880D01*
Y367380D01*
X24456Y366630D02*X25206Y367380D01*
X22956Y366630D02*X24456D01*
X22206Y367380D02*X22956Y366630D01*
X27007Y372630D02*Y367380D01*
X27757Y366630D01*
X41750Y372630D02*Y366630D01*
X44000Y372630D02*X44750Y371880D01*
Y367380D01*
X44000Y366630D02*X44750Y367380D01*
X41000Y366630D02*X44000D01*
X41000Y372630D02*X44000D01*
X46551Y371130D02*Y370380D01*
Y368880D02*Y366630D01*
X50303Y369630D02*X51053Y368880D01*
X48803Y369630D02*X50303D01*
X48053Y368880D02*X48803Y369630D01*
X48053Y368880D02*Y367380D01*
X48803Y366630D01*
X51053Y369630D02*Y367380D01*
X51803Y366630D01*
X48803D02*X50303D01*
X51053Y367380D01*
X54354Y368880D02*Y366630D01*
Y368880D02*X55104Y369630D01*
X55854D01*
X56604Y368880D01*
Y366630D01*
Y368880D02*X57354Y369630D01*
X58104D01*
X58854Y368880D01*
Y366630D01*
X53604Y369630D02*X54354Y368880D01*
X60656Y366630D02*X61406D01*
X65907Y367380D02*X66657Y366630D01*
X65907Y371880D02*X66657Y372630D01*
X65907Y371880D02*Y367380D01*
X68459Y372630D02*X69959D01*
X69209D02*Y366630D01*
X68459D02*X69959D01*
X72510Y368880D02*Y366630D01*
Y368880D02*X73260Y369630D01*
X74010D01*
X74760Y368880D01*
Y366630D01*
X71760Y369630D02*X72510Y368880D01*
X77312Y369630D02*X79562D01*
X76562Y368880D02*X77312Y369630D01*
X76562Y368880D02*Y367380D01*
X77312Y366630D01*
X79562D01*
X81363Y372630D02*Y366630D01*
Y368880D02*X82113Y369630D01*
X83613D01*
X84363Y368880D01*
Y366630D01*
X86165Y372630D02*X86915Y371880D01*
Y367380D01*
X86165Y366630D02*X86915Y367380D01*
X95750Y366630D02*X98000D01*
X95000Y367380D02*X95750Y366630D01*
X95000Y371880D02*Y367380D01*
Y371880D02*X95750Y372630D01*
X98000D01*
X99801Y368880D02*Y367380D01*
Y368880D02*X100551Y369630D01*
X102051D01*
X102801Y368880D01*
Y367380D01*
X102051Y366630D02*X102801Y367380D01*
X100551Y366630D02*X102051D01*
X99801Y367380D02*X100551Y366630D01*
X104603Y369630D02*Y367380D01*
X105353Y366630D01*
X106853D01*
X107603Y367380D01*
Y369630D02*Y367380D01*
X110154Y368880D02*Y366630D01*
Y368880D02*X110904Y369630D01*
X111654D01*
X112404Y368880D01*
Y366630D01*
X109404Y369630D02*X110154Y368880D01*
X114956Y372630D02*Y367380D01*
X115706Y366630D01*
X114206Y370380D02*X115706D01*
X130750Y372630D02*Y366630D01*
X130000Y372630D02*X133000D01*
X133750Y371880D01*
Y370380D01*
X133000Y369630D02*X133750Y370380D01*
X130750Y369630D02*X133000D01*
X135551Y372630D02*Y367380D01*
X136301Y366630D01*
X140053Y369630D02*X140803Y368880D01*
X138553Y369630D02*X140053D01*
X137803Y368880D02*X138553Y369630D01*
X137803Y368880D02*Y367380D01*
X138553Y366630D01*
X140803Y369630D02*Y367380D01*
X141553Y366630D01*
X138553D02*X140053D01*
X140803Y367380D01*
X144104Y372630D02*Y367380D01*
X144854Y366630D01*
X143354Y370380D02*X144854D01*
X147106Y366630D02*X149356D01*
X146356Y367380D02*X147106Y366630D01*
X146356Y368880D02*Y367380D01*
Y368880D02*X147106Y369630D01*
X148606D01*
X149356Y368880D01*
X146356Y368130D02*X149356D01*
Y368880D02*Y368130D01*
X154157Y372630D02*Y366630D01*
X153407D02*X154157Y367380D01*
X151907Y366630D02*X153407D01*
X151157Y367380D02*X151907Y366630D01*
X151157Y368880D02*Y367380D01*
Y368880D02*X151907Y369630D01*
X153407D01*
X154157Y368880D01*
X157459Y369630D02*Y368880D01*
Y367380D02*Y366630D01*
X155959Y371880D02*Y371130D01*
Y371880D02*X156709Y372630D01*
X158209D01*
X158959Y371880D01*
Y371130D01*
X157459Y369630D02*X158959Y371130D01*
X0Y387630D02*X3000D01*
X1500D02*Y381630D01*
X4801Y387630D02*Y381630D01*
Y383880D02*X5551Y384630D01*
X7051D01*
X7801Y383880D01*
Y381630D01*
X10353D02*X12603D01*
X9603Y382380D02*X10353Y381630D01*
X9603Y383880D02*Y382380D01*
Y383880D02*X10353Y384630D01*
X11853D01*
X12603Y383880D01*
X9603Y383130D02*X12603D01*
Y383880D02*Y383130D01*
X15154Y383880D02*Y381630D01*
Y383880D02*X15904Y384630D01*
X17404D01*
X14404D02*X15154Y383880D01*
X19956Y381630D02*X22206D01*
X19206Y382380D02*X19956Y381630D01*
X19206Y383880D02*Y382380D01*
Y383880D02*X19956Y384630D01*
X21456D01*
X22206Y383880D01*
X19206Y383130D02*X22206D01*
Y383880D02*Y383130D01*
X28957Y384630D02*X29707Y383880D01*
X27457Y384630D02*X28957D01*
X26707Y383880D02*X27457Y384630D01*
X26707Y383880D02*Y382380D01*
X27457Y381630D01*
X29707Y384630D02*Y382380D01*
X30457Y381630D01*
X27457D02*X28957D01*
X29707Y382380D01*
X33009Y383880D02*Y381630D01*
Y383880D02*X33759Y384630D01*
X35259D01*
X32259D02*X33009Y383880D01*
X37810Y381630D02*X40060D01*
X37060Y382380D02*X37810Y381630D01*
X37060Y383880D02*Y382380D01*
Y383880D02*X37810Y384630D01*
X39310D01*
X40060Y383880D01*
X37060Y383130D02*X40060D01*
Y383880D02*Y383130D01*
X45312Y381630D02*X46812D01*
X46062Y387630D02*Y381630D01*
X44562Y386130D02*X46062Y387630D01*
X48613Y386880D02*X49363Y387630D01*
X51613D01*
X52363Y386880D01*
Y385380D01*
X48613Y381630D02*X52363Y385380D01*
X48613Y381630D02*X52363D01*
X59865Y387630D02*Y381630D01*
X59115D02*X59865Y382380D01*
X57615Y381630D02*X59115D01*
X56865Y382380D02*X57615Y381630D01*
X56865Y383880D02*Y382380D01*
Y383880D02*X57615Y384630D01*
X59115D01*
X59865Y383880D01*
X61666Y386130D02*Y385380D01*
Y383880D02*Y381630D01*
X63918Y386880D02*Y381630D01*
Y386880D02*X64668Y387630D01*
X65418D01*
X63168Y384630D02*X64668D01*
X67669Y386880D02*Y381630D01*
Y386880D02*X68419Y387630D01*
X69169D01*
X66919Y384630D02*X68419D01*
X71421Y381630D02*X73671D01*
X70671Y382380D02*X71421Y381630D01*
X70671Y383880D02*Y382380D01*
Y383880D02*X71421Y384630D01*
X72921D01*
X73671Y383880D01*
X70671Y383130D02*X73671D01*
Y383880D02*Y383130D01*
X76222Y383880D02*Y381630D01*
Y383880D02*X76972Y384630D01*
X78472D01*
X75472D02*X76222Y383880D01*
X81024Y381630D02*X83274D01*
X80274Y382380D02*X81024Y381630D01*
X80274Y383880D02*Y382380D01*
Y383880D02*X81024Y384630D01*
X82524D01*
X83274Y383880D01*
X80274Y383130D02*X83274D01*
Y383880D02*Y383130D01*
X85825Y383880D02*Y381630D01*
Y383880D02*X86575Y384630D01*
X87325D01*
X88075Y383880D01*
Y381630D01*
X85075Y384630D02*X85825Y383880D01*
X90627Y387630D02*Y382380D01*
X91377Y381630D01*
X89877Y385380D02*X91377D01*
X98578Y387630D02*Y381630D01*
X97828D02*X98578Y382380D01*
X96328Y381630D02*X97828D01*
X95578Y382380D02*X96328Y381630D01*
X95578Y383880D02*Y382380D01*
Y383880D02*X96328Y384630D01*
X97828D01*
X98578Y383880D01*
X101130D02*Y381630D01*
Y383880D02*X101880Y384630D01*
X103380D01*
X100380D02*X101130Y383880D01*
X105181Y386130D02*Y385380D01*
Y383880D02*Y381630D01*
X106683Y387630D02*Y382380D01*
X107433Y381630D01*
X108934Y387630D02*Y382380D01*
X109684Y381630D01*
X114636D02*X116886D01*
X117636Y382380D01*
X116886Y383130D02*X117636Y382380D01*
X114636Y383130D02*X116886D01*
X113886Y383880D02*X114636Y383130D01*
X113886Y383880D02*X114636Y384630D01*
X116886D01*
X117636Y383880D01*
X113886Y382380D02*X114636Y381630D01*
X119437Y386130D02*Y385380D01*
Y383880D02*Y381630D01*
X120939Y384630D02*X123939D01*
X120939Y381630D02*X123939Y384630D01*
X120939Y381630D02*X123939D01*
X126490D02*X128740D01*
X125740Y382380D02*X126490Y381630D01*
X125740Y383880D02*Y382380D01*
Y383880D02*X126490Y384630D01*
X127990D01*
X128740Y383880D01*
X125740Y383130D02*X128740D01*
Y383880D02*Y383130D01*
X131292Y381630D02*X133542D01*
X134292Y382380D01*
X133542Y383130D02*X134292Y382380D01*
X131292Y383130D02*X133542D01*
X130542Y383880D02*X131292Y383130D01*
X130542Y383880D02*X131292Y384630D01*
X133542D01*
X134292Y383880D01*
X130542Y382380D02*X131292Y381630D01*
X138793Y384630D02*Y382380D01*
X139543Y381630D01*
X141043D01*
X141793Y382380D01*
Y384630D02*Y382380D01*
X144345Y381630D02*X146595D01*
X147345Y382380D01*
X146595Y383130D02*X147345Y382380D01*
X144345Y383130D02*X146595D01*
X143595Y383880D02*X144345Y383130D01*
X143595Y383880D02*X144345Y384630D01*
X146595D01*
X147345Y383880D01*
X143595Y382380D02*X144345Y381630D01*
X149896D02*X152146D01*
X149146Y382380D02*X149896Y381630D01*
X149146Y383880D02*Y382380D01*
Y383880D02*X149896Y384630D01*
X151396D01*
X152146Y383880D01*
X149146Y383130D02*X152146D01*
Y383880D02*Y383130D01*
X156948Y387630D02*Y381630D01*
X156198D02*X156948Y382380D01*
X154698Y381630D02*X156198D01*
X153948Y382380D02*X154698Y381630D01*
X153948Y383880D02*Y382380D01*
Y383880D02*X154698Y384630D01*
X156198D01*
X156948Y383880D01*
X161449Y386130D02*Y385380D01*
Y383880D02*Y381630D01*
X163701Y383880D02*Y381630D01*
Y383880D02*X164451Y384630D01*
X165201D01*
X165951Y383880D01*
Y381630D01*
X162951Y384630D02*X163701Y383880D01*
X171202Y387630D02*Y382380D01*
X171952Y381630D01*
X170452Y385380D02*X171952D01*
X173454Y387630D02*Y381630D01*
Y383880D02*X174204Y384630D01*
X175704D01*
X176454Y383880D01*
Y381630D01*
X178255Y386130D02*Y385380D01*
Y383880D02*Y381630D01*
X180507D02*X182757D01*
X183507Y382380D01*
X182757Y383130D02*X183507Y382380D01*
X180507Y383130D02*X182757D01*
X179757Y383880D02*X180507Y383130D01*
X179757Y383880D02*X180507Y384630D01*
X182757D01*
X183507Y383880D01*
X179757Y382380D02*X180507Y381630D01*
X188008Y387630D02*Y382380D01*
X188758Y381630D01*
X192510Y384630D02*X193260Y383880D01*
X191010Y384630D02*X192510D01*
X190260Y383880D02*X191010Y384630D01*
X190260Y383880D02*Y382380D01*
X191010Y381630D01*
X193260Y384630D02*Y382380D01*
X194010Y381630D01*
X191010D02*X192510D01*
X193260Y382380D01*
X195811Y384630D02*Y382380D01*
X196561Y381630D01*
X198811Y384630D02*Y380130D01*
X198061Y379380D02*X198811Y380130D01*
X196561Y379380D02*X198061D01*
X195811Y380130D02*X196561Y379380D01*
Y381630D02*X198061D01*
X198811Y382380D01*
X200613Y383880D02*Y382380D01*
Y383880D02*X201363Y384630D01*
X202863D01*
X203613Y383880D01*
Y382380D01*
X202863Y381630D02*X203613Y382380D01*
X201363Y381630D02*X202863D01*
X200613Y382380D02*X201363Y381630D01*
X205414Y384630D02*Y382380D01*
X206164Y381630D01*
X207664D01*
X208414Y382380D01*
Y384630D02*Y382380D01*
X210966Y387630D02*Y382380D01*
X211716Y381630D01*
X210216Y385380D02*X211716D01*
X213217Y380130D02*X214717Y381630D01*
X219969D02*X221469D01*
X220719Y387630D02*Y381630D01*
X219219Y386130D02*X220719Y387630D01*
X224020Y381630D02*X225520D01*
X224770Y387630D02*Y381630D01*
X223270Y386130D02*X224770Y387630D01*
X227322Y386880D02*X228072Y387630D01*
X230322D01*
X231072Y386880D01*
Y385380D01*
X227322Y381630D02*X231072Y385380D01*
X227322Y381630D02*X231072D01*
X235573Y387630D02*Y381630D01*
Y383880D02*X236323Y384630D01*
X237823D01*
X238573Y383880D01*
Y381630D01*
X240375Y383880D02*Y382380D01*
Y383880D02*X241125Y384630D01*
X242625D01*
X243375Y383880D01*
Y382380D01*
X242625Y381630D02*X243375Y382380D01*
X241125Y381630D02*X242625D01*
X240375Y382380D02*X241125Y381630D01*
X245176Y387630D02*Y382380D01*
X245926Y381630D01*
X248178D02*X250428D01*
X247428Y382380D02*X248178Y381630D01*
X247428Y383880D02*Y382380D01*
Y383880D02*X248178Y384630D01*
X249678D01*
X250428Y383880D01*
X247428Y383130D02*X250428D01*
Y383880D02*Y383130D01*
X252979Y381630D02*X255229D01*
X255979Y382380D01*
X255229Y383130D02*X255979Y382380D01*
X252979Y383130D02*X255229D01*
X252229Y383880D02*X252979Y383130D01*
X252229Y383880D02*X252979Y384630D01*
X255229D01*
X255979Y383880D01*
X252229Y382380D02*X252979Y381630D01*
X261231Y387630D02*Y382380D01*
X261981Y381630D01*
X260481Y385380D02*X261981D01*
X263482Y383880D02*Y382380D01*
Y383880D02*X264232Y384630D01*
X265732D01*
X266482Y383880D01*
Y382380D01*
X265732Y381630D02*X266482Y382380D01*
X264232Y381630D02*X265732D01*
X263482Y382380D02*X264232Y381630D01*
X269034Y387630D02*Y382380D01*
X269784Y381630D01*
X268284Y385380D02*X269784D01*
X273535Y384630D02*X274285Y383880D01*
X272035Y384630D02*X273535D01*
X271285Y383880D02*X272035Y384630D01*
X271285Y383880D02*Y382380D01*
X272035Y381630D01*
X274285Y384630D02*Y382380D01*
X275035Y381630D01*
X272035D02*X273535D01*
X274285Y382380D01*
X276837Y387630D02*Y382380D01*
X277587Y381630D01*
G54D12*X0Y179130D02*X179130D01*
X0D02*Y0D01*
X179130Y179130D02*Y0D01*
X0D02*X179130D01*
G54D49*X200000Y192630D02*Y186630D01*
Y192630D02*X202250Y190380D01*
X204500Y192630D01*
Y186630D01*
X208551Y189630D02*X209301Y188880D01*
X207051Y189630D02*X208551D01*
X206301Y188880D02*X207051Y189630D01*
X206301Y188880D02*Y187380D01*
X207051Y186630D01*
X209301Y189630D02*Y187380D01*
X210051Y186630D01*
X207051D02*X208551D01*
X209301Y187380D01*
X211853Y189630D02*X214853Y186630D01*
X211853D02*X214853Y189630D01*
X216654Y191130D02*Y190380D01*
Y188880D02*Y186630D01*
X218906Y188880D02*Y186630D01*
Y188880D02*X219656Y189630D01*
X220406D01*
X221156Y188880D01*
Y186630D01*
Y188880D02*X221906Y189630D01*
X222656D01*
X223406Y188880D01*
Y186630D01*
X218156Y189630D02*X218906Y188880D01*
X225207Y189630D02*Y187380D01*
X225957Y186630D01*
X227457D01*
X228207Y187380D01*
Y189630D02*Y187380D01*
X230759Y188880D02*Y186630D01*
Y188880D02*X231509Y189630D01*
X232259D01*
X233009Y188880D01*
Y186630D01*
Y188880D02*X233759Y189630D01*
X234509D01*
X235259Y188880D01*
Y186630D01*
X230009Y189630D02*X230759Y188880D01*
X240510Y192630D02*Y186630D01*
X242760Y192630D02*X243510Y191880D01*
Y187380D01*
X242760Y186630D02*X243510Y187380D01*
X239760Y186630D02*X242760D01*
X239760Y192630D02*X242760D01*
X245312Y191130D02*Y190380D01*
Y188880D02*Y186630D01*
X247563Y188880D02*Y186630D01*
Y188880D02*X248313Y189630D01*
X249063D01*
X249813Y188880D01*
Y186630D01*
Y188880D02*X250563Y189630D01*
X251313D01*
X252063Y188880D01*
Y186630D01*
X246813Y189630D02*X247563Y188880D01*
X254615Y186630D02*X256865D01*
X253865Y187380D02*X254615Y186630D01*
X253865Y188880D02*Y187380D01*
Y188880D02*X254615Y189630D01*
X256115D01*
X256865Y188880D01*
X253865Y188130D02*X256865D01*
Y188880D02*Y188130D01*
X259416Y188880D02*Y186630D01*
Y188880D02*X260166Y189630D01*
X260916D01*
X261666Y188880D01*
Y186630D01*
X258666Y189630D02*X259416Y188880D01*
X264218Y186630D02*X266468D01*
X267218Y187380D01*
X266468Y188130D02*X267218Y187380D01*
X264218Y188130D02*X266468D01*
X263468Y188880D02*X264218Y188130D01*
X263468Y188880D02*X264218Y189630D01*
X266468D01*
X267218Y188880D01*
X263468Y187380D02*X264218Y186630D01*
X269019Y191130D02*Y190380D01*
Y188880D02*Y186630D01*
X270521Y188880D02*Y187380D01*
Y188880D02*X271271Y189630D01*
X272771D01*
X273521Y188880D01*
Y187380D01*
X272771Y186630D02*X273521Y187380D01*
X271271Y186630D02*X272771D01*
X270521Y187380D02*X271271Y186630D01*
X276072Y188880D02*Y186630D01*
Y188880D02*X276822Y189630D01*
X277572D01*
X278322Y188880D01*
Y186630D01*
X275322Y189630D02*X276072Y188880D01*
X280874Y186630D02*X283124D01*
X283874Y187380D01*
X283124Y188130D02*X283874Y187380D01*
X280874Y188130D02*X283124D01*
X280124Y188880D02*X280874Y188130D01*
X280124Y188880D02*X280874Y189630D01*
X283124D01*
X283874Y188880D01*
X280124Y187380D02*X280874Y186630D01*
X285675Y190380D02*X286425D01*
X285675Y188880D02*X286425D01*
X291677Y186630D02*X293177D01*
X292427Y192630D02*Y186630D01*
X290927Y191130D02*X292427Y192630D01*
X294978Y186630D02*X298728Y190380D01*
Y192630D02*Y190380D01*
X294978Y192630D02*X298728D01*
X300530Y186630D02*X303530Y189630D01*
Y191880D02*Y189630D01*
X302780Y192630D02*X303530Y191880D01*
X301280Y192630D02*X302780D01*
X300530Y191880D02*X301280Y192630D01*
X300530Y191880D02*Y190380D01*
X301280Y189630D01*
X303530D01*
X306081Y186630D02*X307581D01*
X306831Y192630D02*Y186630D01*
X305331Y191130D02*X306831Y192630D01*
X312833Y188880D02*Y186630D01*
Y188880D02*X313583Y189630D01*
X314333D01*
X315083Y188880D01*
Y186630D01*
Y188880D02*X315833Y189630D01*
X316583D01*
X317333Y188880D01*
Y186630D01*
X312083Y189630D02*X312833Y188880D01*
X319134Y191130D02*Y190380D01*
Y188880D02*Y186630D01*
X320636Y192630D02*Y187380D01*
X321386Y186630D01*
X323637D02*X325887D01*
X326637Y187380D01*
X325887Y188130D02*X326637Y187380D01*
X323637Y188130D02*X325887D01*
X322887Y188880D02*X323637Y188130D01*
X322887Y188880D02*X323637Y189630D01*
X325887D01*
X326637Y188880D01*
X322887Y187380D02*X323637Y186630D01*
X331139Y189630D02*Y187380D01*
X331889Y186630D01*
X332639D01*
X333389Y187380D01*
Y189630D02*Y187380D01*
X334139Y186630D01*
X334889D01*
X335639Y187380D01*
Y189630D02*Y187380D01*
X337440Y191130D02*Y190380D01*
Y188880D02*Y186630D01*
X341942Y192630D02*Y186630D01*
X341192D02*X341942Y187380D01*
X339692Y186630D02*X341192D01*
X338942Y187380D02*X339692Y186630D01*
X338942Y188880D02*Y187380D01*
Y188880D02*X339692Y189630D01*
X341192D01*
X341942Y188880D01*
X344493Y186630D02*X346743D01*
X343743Y187380D02*X344493Y186630D01*
X343743Y188880D02*Y187380D01*
Y188880D02*X344493Y189630D01*
X345993D01*
X346743Y188880D01*
X343743Y188130D02*X346743D01*
Y188880D02*Y188130D01*
X348545Y185130D02*X350045Y186630D01*
X355296D02*X356796D01*
X356046Y192630D02*Y186630D01*
X354546Y191130D02*X356046Y192630D01*
X358598Y186630D02*X362348Y190380D01*
Y192630D02*Y190380D01*
X358598Y192630D02*X362348D01*
X364149Y186630D02*X367149Y189630D01*
Y191880D02*Y189630D01*
X366399Y192630D02*X367149Y191880D01*
X364899Y192630D02*X366399D01*
X364149Y191880D02*X364899Y192630D01*
X364149Y191880D02*Y190380D01*
X364899Y189630D01*
X367149D01*
X369701Y186630D02*X371201D01*
X370451Y192630D02*Y186630D01*
X368951Y191130D02*X370451Y192630D01*
X376452Y188880D02*Y186630D01*
Y188880D02*X377202Y189630D01*
X377952D01*
X378702Y188880D01*
Y186630D01*
Y188880D02*X379452Y189630D01*
X380202D01*
X380952Y188880D01*
Y186630D01*
X375702Y189630D02*X376452Y188880D01*
X382754Y191130D02*Y190380D01*
Y188880D02*Y186630D01*
X384255Y192630D02*Y187380D01*
X385005Y186630D01*
X387257D02*X389507D01*
X390257Y187380D01*
X389507Y188130D02*X390257Y187380D01*
X387257Y188130D02*X389507D01*
X386507Y188880D02*X387257Y188130D01*
X386507Y188880D02*X387257Y189630D01*
X389507D01*
X390257Y188880D01*
X386507Y187380D02*X387257Y186630D01*
X394758Y192630D02*Y186630D01*
Y188880D02*X395508Y189630D01*
X397008D01*
X397758Y188880D01*
Y186630D01*
X399560Y191130D02*Y190380D01*
Y188880D02*Y186630D01*
X403311Y189630D02*X404061Y188880D01*
X401811Y189630D02*X403311D01*
X401061Y188880D02*X401811Y189630D01*
X401061Y188880D02*Y187380D01*
X401811Y186630D01*
X403311D01*
X404061Y187380D01*
X401061Y185130D02*X401811Y184380D01*
X403311D01*
X404061Y185130D01*
Y189630D02*Y185130D01*
X405863Y192630D02*Y186630D01*
Y188880D02*X406613Y189630D01*
X408113D01*
X408863Y188880D01*
Y186630D01*
X0Y-9500D02*X3000D01*
X3750Y-8750D01*
Y-7250D02*Y-8750D01*
X3000Y-6500D02*X3750Y-7250D01*
X750Y-6500D02*X3000D01*
X750Y-3500D02*Y-9500D01*
X0Y-3500D02*X3000D01*
X3750Y-4250D01*
Y-5750D01*
X3000Y-6500D02*X3750Y-5750D01*
X5551Y-7250D02*Y-8750D01*
Y-7250D02*X6301Y-6500D01*
X7801D01*
X8551Y-7250D01*
Y-8750D01*
X7801Y-9500D02*X8551Y-8750D01*
X6301Y-9500D02*X7801D01*
X5551Y-8750D02*X6301Y-9500D01*
X12603Y-6500D02*X13353Y-7250D01*
X11103Y-6500D02*X12603D01*
X10353Y-7250D02*X11103Y-6500D01*
X10353Y-7250D02*Y-8750D01*
X11103Y-9500D01*
X13353Y-6500D02*Y-8750D01*
X14103Y-9500D01*
X11103D02*X12603D01*
X13353Y-8750D01*
X16654Y-7250D02*Y-9500D01*
Y-7250D02*X17404Y-6500D01*
X18904D01*
X15904D02*X16654Y-7250D01*
X23706Y-3500D02*Y-9500D01*
X22956D02*X23706Y-8750D01*
X21456Y-9500D02*X22956D01*
X20706Y-8750D02*X21456Y-9500D01*
X20706Y-7250D02*Y-8750D01*
Y-7250D02*X21456Y-6500D01*
X22956D01*
X23706Y-7250D01*
X28207D02*Y-8750D01*
Y-7250D02*X28957Y-6500D01*
X30457D01*
X31207Y-7250D01*
Y-8750D01*
X30457Y-9500D02*X31207Y-8750D01*
X28957Y-9500D02*X30457D01*
X28207Y-8750D02*X28957Y-9500D01*
X33009Y-6500D02*Y-8750D01*
X33759Y-9500D01*
X35259D01*
X36009Y-8750D01*
Y-6500D02*Y-8750D01*
X38560Y-3500D02*Y-8750D01*
X39310Y-9500D01*
X37810Y-5750D02*X39310D01*
X40812Y-3500D02*Y-8750D01*
X41562Y-9500D01*
X43063Y-5000D02*Y-5750D01*
Y-7250D02*Y-9500D01*
X45315Y-7250D02*Y-9500D01*
Y-7250D02*X46065Y-6500D01*
X46815D01*
X47565Y-7250D01*
Y-9500D01*
X44565Y-6500D02*X45315Y-7250D01*
X50116Y-9500D02*X52366D01*
X49366Y-8750D02*X50116Y-9500D01*
X49366Y-7250D02*Y-8750D01*
Y-7250D02*X50116Y-6500D01*
X51616D01*
X52366Y-7250D01*
X49366Y-8000D02*X52366D01*
Y-7250D02*Y-8000D01*
X56868Y-5000D02*Y-5750D01*
Y-7250D02*Y-9500D01*
X59119D02*X61369D01*
X62119Y-8750D01*
X61369Y-8000D02*X62119Y-8750D01*
X59119Y-8000D02*X61369D01*
X58369Y-7250D02*X59119Y-8000D01*
X58369Y-7250D02*X59119Y-6500D01*
X61369D01*
X62119Y-7250D01*
X58369Y-8750D02*X59119Y-9500D01*
X67371Y-3500D02*Y-8750D01*
X68121Y-9500D01*
X66621Y-5750D02*X68121D01*
X69622Y-3500D02*Y-9500D01*
Y-7250D02*X70372Y-6500D01*
X71872D01*
X72622Y-7250D01*
Y-9500D01*
X75174D02*X77424D01*
X74424Y-8750D02*X75174Y-9500D01*
X74424Y-7250D02*Y-8750D01*
Y-7250D02*X75174Y-6500D01*
X76674D01*
X77424Y-7250D01*
X74424Y-8000D02*X77424D01*
Y-7250D02*Y-8000D01*
X82675Y-6500D02*X84925D01*
X81925Y-7250D02*X82675Y-6500D01*
X81925Y-7250D02*Y-8750D01*
X82675Y-9500D01*
X84925D01*
X87477D02*X89727D01*
X86727Y-8750D02*X87477Y-9500D01*
X86727Y-7250D02*Y-8750D01*
Y-7250D02*X87477Y-6500D01*
X88977D01*
X89727Y-7250D01*
X86727Y-8000D02*X89727D01*
Y-7250D02*Y-8000D01*
X92278Y-7250D02*Y-9500D01*
Y-7250D02*X93028Y-6500D01*
X93778D01*
X94528Y-7250D01*
Y-9500D01*
X91528Y-6500D02*X92278Y-7250D01*
X97080Y-3500D02*Y-8750D01*
X97830Y-9500D01*
X96330Y-5750D02*X97830D01*
X100081Y-9500D02*X102331D01*
X99331Y-8750D02*X100081Y-9500D01*
X99331Y-7250D02*Y-8750D01*
Y-7250D02*X100081Y-6500D01*
X101581D01*
X102331Y-7250D01*
X99331Y-8000D02*X102331D01*
Y-7250D02*Y-8000D01*
X104883Y-7250D02*Y-9500D01*
Y-7250D02*X105633Y-6500D01*
X107133D01*
X104133D02*X104883Y-7250D01*
X108934Y-3500D02*Y-8750D01*
X109684Y-9500D01*
X111186Y-5000D02*Y-5750D01*
Y-7250D02*Y-9500D01*
X113437Y-7250D02*Y-9500D01*
Y-7250D02*X114187Y-6500D01*
X114937D01*
X115687Y-7250D01*
Y-9500D01*
X112687Y-6500D02*X113437Y-7250D01*
X118239Y-9500D02*X120489D01*
X117489Y-8750D02*X118239Y-9500D01*
X117489Y-7250D02*Y-8750D01*
Y-7250D02*X118239Y-6500D01*
X119739D01*
X120489Y-7250D01*
X117489Y-8000D02*X120489D01*
Y-7250D02*Y-8000D01*
X124990Y-7250D02*Y-8750D01*
Y-7250D02*X125740Y-6500D01*
X127240D01*
X127990Y-7250D01*
Y-8750D01*
X127240Y-9500D02*X127990Y-8750D01*
X125740Y-9500D02*X127240D01*
X124990Y-8750D02*X125740Y-9500D01*
X130542Y-4250D02*Y-9500D01*
Y-4250D02*X131292Y-3500D01*
X132042D01*
X129792Y-6500D02*X131292D01*
X136993Y-3500D02*Y-8750D01*
X137743Y-9500D01*
X136243Y-5750D02*X137743D01*
X139245Y-3500D02*Y-9500D01*
Y-7250D02*X139995Y-6500D01*
X141495D01*
X142245Y-7250D01*
Y-9500D01*
X144046Y-5000D02*Y-5750D01*
Y-7250D02*Y-9500D01*
X146298D02*X148548D01*
X149298Y-8750D01*
X148548Y-8000D02*X149298Y-8750D01*
X146298Y-8000D02*X148548D01*
X145548Y-7250D02*X146298Y-8000D01*
X145548Y-7250D02*X146298Y-6500D01*
X148548D01*
X149298Y-7250D01*
X145548Y-8750D02*X146298Y-9500D01*
X154549D02*X156049D01*
X155299Y-3500D02*Y-9500D01*
X153799Y-5000D02*X155299Y-3500D01*
X157851Y-8750D02*X158601Y-9500D01*
X157851Y-4250D02*Y-8750D01*
Y-4250D02*X158601Y-3500D01*
X160101D01*
X160851Y-4250D01*
Y-8750D01*
X160101Y-9500D02*X160851Y-8750D01*
X158601Y-9500D02*X160101D01*
X157851Y-8000D02*X160851Y-5000D01*
X166102Y-7250D02*Y-9500D01*
Y-7250D02*X166852Y-6500D01*
X167602D01*
X168352Y-7250D01*
Y-9500D01*
Y-7250D02*X169102Y-6500D01*
X169852D01*
X170602Y-7250D01*
Y-9500D01*
X165352Y-6500D02*X166102Y-7250D01*
X172404Y-5000D02*Y-5750D01*
Y-7250D02*Y-9500D01*
X173905Y-3500D02*Y-8750D01*
X174655Y-9500D01*
X179607Y-7250D02*Y-9500D01*
Y-7250D02*X180357Y-6500D01*
X181857D01*
X178857D02*X179607Y-7250D01*
X184408Y-9500D02*X186658D01*
X183658Y-8750D02*X184408Y-9500D01*
X183658Y-7250D02*Y-8750D01*
Y-7250D02*X184408Y-6500D01*
X185908D01*
X186658Y-7250D01*
X183658Y-8000D02*X186658D01*
Y-7250D02*Y-8000D01*
X189210Y-6500D02*X191460D01*
X188460Y-7250D02*X189210Y-6500D01*
X188460Y-7250D02*Y-8750D01*
X189210Y-9500D01*
X191460D01*
X194011Y-3500D02*Y-8750D01*
X194761Y-9500D01*
X193261Y-5750D02*X194761D01*
X198513Y-6500D02*X199263Y-7250D01*
X197013Y-6500D02*X198513D01*
X196263Y-7250D02*X197013Y-6500D01*
X196263Y-7250D02*Y-8750D01*
X197013Y-9500D01*
X199263Y-6500D02*Y-8750D01*
X200013Y-9500D01*
X197013D02*X198513D01*
X199263Y-8750D01*
X202564Y-7250D02*Y-9500D01*
Y-7250D02*X203314Y-6500D01*
X204064D01*
X204814Y-7250D01*
Y-9500D01*
X201814Y-6500D02*X202564Y-7250D01*
X208866Y-6500D02*X209616Y-7250D01*
X207366Y-6500D02*X208866D01*
X206616Y-7250D02*X207366Y-6500D01*
X206616Y-7250D02*Y-8750D01*
X207366Y-9500D01*
X208866D01*
X209616Y-8750D01*
X206616Y-11000D02*X207366Y-11750D01*
X208866D01*
X209616Y-11000D01*
Y-6500D02*Y-11000D01*
X211417Y-3500D02*Y-8750D01*
X212167Y-9500D01*
X214419D02*X216669D01*
X213669Y-8750D02*X214419Y-9500D01*
X213669Y-7250D02*Y-8750D01*
Y-7250D02*X214419Y-6500D01*
X215919D01*
X216669Y-7250D01*
X213669Y-8000D02*X216669D01*
Y-7250D02*Y-8000D01*
X221170Y-6500D02*X224170D01*
X228672Y-8750D02*X229422Y-9500D01*
X228672Y-4250D02*Y-8750D01*
Y-4250D02*X229422Y-3500D01*
X230922D01*
X231672Y-4250D01*
Y-8750D01*
X230922Y-9500D02*X231672Y-8750D01*
X229422Y-9500D02*X230922D01*
X228672Y-8000D02*X231672Y-5000D01*
X233473Y-11000D02*X234973Y-9500D01*
X236775Y-8750D02*X237525Y-9500D01*
X236775Y-4250D02*Y-8750D01*
Y-4250D02*X237525Y-3500D01*
X239025D01*
X239775Y-4250D01*
Y-8750D01*
X239025Y-9500D02*X239775Y-8750D01*
X237525Y-9500D02*X239025D01*
X236775Y-8000D02*X239775Y-5000D01*
X245026Y-3500D02*Y-8750D01*
X245776Y-9500D01*
X244276Y-5750D02*X245776D01*
X247278Y-7250D02*Y-8750D01*
Y-7250D02*X248028Y-6500D01*
X249528D01*
X250278Y-7250D01*
Y-8750D01*
X249528Y-9500D02*X250278Y-8750D01*
X248028Y-9500D02*X249528D01*
X247278Y-8750D02*X248028Y-9500D01*
X255529D02*X257029D01*
X256279Y-3500D02*Y-9500D01*
X254779Y-5000D02*X256279Y-3500D01*
X258831Y-9500D02*X262581Y-5750D01*
Y-3500D02*Y-5750D01*
X258831Y-3500D02*X262581D01*
X264382Y-9500D02*X267382Y-6500D01*
Y-4250D02*Y-6500D01*
X266632Y-3500D02*X267382Y-4250D01*
X265132Y-3500D02*X266632D01*
X264382Y-4250D02*X265132Y-3500D01*
X264382Y-4250D02*Y-5750D01*
X265132Y-6500D01*
X267382D01*
X269934Y-9500D02*X271434D01*
X270684Y-3500D02*Y-9500D01*
X269184Y-5000D02*X270684Y-3500D01*
X273235Y-11000D02*X274735Y-9500D01*
X277287D02*X278787D01*
X278037Y-3500D02*Y-9500D01*
X276537Y-5000D02*X278037Y-3500D01*
X280588Y-9500D02*X284338Y-5750D01*
Y-3500D02*Y-5750D01*
X280588Y-3500D02*X284338D01*
X286140Y-9500D02*X289140Y-6500D01*
Y-4250D02*Y-6500D01*
X288390Y-3500D02*X289140Y-4250D01*
X286890Y-3500D02*X288390D01*
X286140Y-4250D02*X286890Y-3500D01*
X286140Y-4250D02*Y-5750D01*
X286890Y-6500D01*
X289140D01*
X291691Y-9500D02*X293191D01*
X292441Y-3500D02*Y-9500D01*
X290941Y-5000D02*X292441Y-3500D01*
X298443Y-7250D02*Y-9500D01*
Y-7250D02*X299193Y-6500D01*
X299943D01*
X300693Y-7250D01*
Y-9500D01*
Y-7250D02*X301443Y-6500D01*
X302193D01*
X302943Y-7250D01*
Y-9500D01*
X297693Y-6500D02*X298443Y-7250D01*
X304744Y-5000D02*Y-5750D01*
Y-7250D02*Y-9500D01*
X306246Y-3500D02*Y-8750D01*
X306996Y-9500D01*
X309247D02*X311497D01*
X312247Y-8750D01*
X311497Y-8000D02*X312247Y-8750D01*
X309247Y-8000D02*X311497D01*
X308497Y-7250D02*X309247Y-8000D01*
X308497Y-7250D02*X309247Y-6500D01*
X311497D01*
X312247Y-7250D01*
X308497Y-8750D02*X309247Y-9500D01*
X200750Y207630D02*Y201630D01*
X203000Y207630D02*X203750Y206880D01*
Y202380D01*
X203000Y201630D02*X203750Y202380D01*
X200000Y201630D02*X203000D01*
X200000Y207630D02*X203000D01*
X207801Y204630D02*X208551Y203880D01*
X206301Y204630D02*X207801D01*
X205551Y203880D02*X206301Y204630D01*
X205551Y203880D02*Y202380D01*
X206301Y201630D01*
X208551Y204630D02*Y202380D01*
X209301Y201630D01*
X206301D02*X207801D01*
X208551Y202380D01*
X211853Y207630D02*Y202380D01*
X212603Y201630D01*
X211103Y205380D02*X212603D01*
X214854Y201630D02*X217104D01*
X214104Y202380D02*X214854Y201630D01*
X214104Y203880D02*Y202380D01*
Y203880D02*X214854Y204630D01*
X216354D01*
X217104Y203880D01*
X214104Y203130D02*X217104D01*
Y203880D02*Y203130D01*
X218906Y205380D02*X219656D01*
X218906Y203880D02*X219656D01*
X224157Y207630D02*Y201630D01*
Y207630D02*X227157D01*
X224157Y204630D02*X226407D01*
X229709Y203880D02*Y201630D01*
Y203880D02*X230459Y204630D01*
X231959D01*
X228959D02*X229709Y203880D01*
X233760Y206130D02*Y205380D01*
Y203880D02*Y201630D01*
X237962Y206880D02*X238712Y207630D01*
X240962D01*
X241712Y206880D01*
Y205380D01*
X237962Y201630D02*X241712Y205380D01*
X237962Y201630D02*X241712D01*
X243513Y202380D02*X244263Y201630D01*
X243513Y203880D02*Y202380D01*
Y203880D02*X244263Y204630D01*
X245763D01*
X246513Y203880D01*
Y202380D01*
X245763Y201630D02*X246513Y202380D01*
X244263Y201630D02*X245763D01*
X243513Y205380D02*X244263Y204630D01*
X243513Y206880D02*Y205380D01*
Y206880D02*X244263Y207630D01*
X245763D01*
X246513Y206880D01*
Y205380D01*
X245763Y204630D02*X246513Y205380D01*
X251015Y207630D02*X253265D01*
Y202380D01*
X252515Y201630D02*X253265Y202380D01*
X251765Y201630D02*X252515D01*
X251015Y202380D02*X251765Y201630D01*
X257316Y204630D02*X258066Y203880D01*
X255816Y204630D02*X257316D01*
X255066Y203880D02*X255816Y204630D01*
X255066Y203880D02*Y202380D01*
X255816Y201630D01*
X258066Y204630D02*Y202380D01*
X258816Y201630D01*
X255816D02*X257316D01*
X258066Y202380D01*
X261368Y203880D02*Y201630D01*
Y203880D02*X262118Y204630D01*
X262868D01*
X263618Y203880D01*
Y201630D01*
X260618Y204630D02*X261368Y203880D01*
X268119Y206880D02*X268869Y207630D01*
X271119D01*
X271869Y206880D01*
Y205380D01*
X268119Y201630D02*X271869Y205380D01*
X268119Y201630D02*X271869D01*
X273671Y202380D02*X274421Y201630D01*
X273671Y206880D02*Y202380D01*
Y206880D02*X274421Y207630D01*
X275921D01*
X276671Y206880D01*
Y202380D01*
X275921Y201630D02*X276671Y202380D01*
X274421Y201630D02*X275921D01*
X273671Y203130D02*X276671Y206130D01*
X279222Y201630D02*X280722D01*
X279972Y207630D02*Y201630D01*
X278472Y206130D02*X279972Y207630D01*
X283274Y201630D02*X284774D01*
X284024Y207630D02*Y201630D01*
X282524Y206130D02*X284024Y207630D01*
X289275Y206880D02*X290025Y207630D01*
X292275D01*
X293025Y206880D01*
Y205380D01*
X289275Y201630D02*X293025Y205380D01*
X289275Y201630D02*X293025D01*
X294827Y206880D02*X295577Y207630D01*
X297827D01*
X298577Y206880D01*
Y205380D01*
X294827Y201630D02*X298577Y205380D01*
X294827Y201630D02*X298577D01*
X300378Y205380D02*X301128D01*
X300378Y203880D02*X301128D01*
X302930Y202380D02*X303680Y201630D01*
X302930Y206880D02*Y202380D01*
Y206880D02*X303680Y207630D01*
X305180D01*
X305930Y206880D01*
Y202380D01*
X305180Y201630D02*X305930Y202380D01*
X303680Y201630D02*X305180D01*
X302930Y203130D02*X305930Y206130D01*
X307731Y206880D02*X308481Y207630D01*
X309981D01*
X310731Y206880D01*
Y202380D01*
X309981Y201630D02*X310731Y202380D01*
X308481Y201630D02*X309981D01*
X307731Y202380D02*X308481Y201630D01*
Y204630D02*X310731D01*
X312533Y205380D02*X313283D01*
X312533Y203880D02*X313283D01*
X315834Y201630D02*X317334D01*
X316584Y207630D02*Y201630D01*
X315084Y206130D02*X316584Y207630D01*
X319136Y202380D02*X319886Y201630D01*
X319136Y206880D02*Y202380D01*
Y206880D02*X319886Y207630D01*
X321386D01*
X322136Y206880D01*
Y202380D01*
X321386Y201630D02*X322136Y202380D01*
X319886Y201630D02*X321386D01*
X319136Y203130D02*X322136Y206130D01*
X329637Y207630D02*X330387Y206880D01*
X327387Y207630D02*X329637D01*
X326637Y206880D02*X327387Y207630D01*
X326637Y206880D02*Y202380D01*
X327387Y201630D01*
X329637D01*
X330387Y202380D01*
Y203880D02*Y202380D01*
X329637Y204630D02*X330387Y203880D01*
X328137Y204630D02*X329637D01*
X332189Y207630D02*Y201630D01*
Y207630D02*X334439Y205380D01*
X336689Y207630D01*
Y201630D01*
X338490Y207630D02*X341490D01*
X339990D02*Y201630D01*
X345992Y207630D02*Y202380D01*
X346742Y201630D01*
X348242D01*
X348992Y202380D01*
Y207630D02*Y202380D01*
X350793Y207630D02*X353793D01*
X352293D02*Y201630D01*
X356345D02*X358595D01*
X355595Y202380D02*X356345Y201630D01*
X355595Y206880D02*Y202380D01*
Y206880D02*X356345Y207630D01*
X358595D01*
X200000Y221880D02*Y216630D01*
Y221880D02*X200750Y222630D01*
X203000D01*
X203750Y221880D01*
Y216630D01*
X200000Y219630D02*X203750D01*
X205551D02*Y217380D01*
X206301Y216630D01*
X207801D01*
X208551Y217380D01*
Y219630D02*Y217380D01*
X211103Y222630D02*Y217380D01*
X211853Y216630D01*
X210353Y220380D02*X211853D01*
X213354Y222630D02*Y216630D01*
Y218880D02*X214104Y219630D01*
X215604D01*
X216354Y218880D01*
Y216630D01*
X218156Y218880D02*Y217380D01*
Y218880D02*X218906Y219630D01*
X220406D01*
X221156Y218880D01*
Y217380D01*
X220406Y216630D02*X221156Y217380D01*
X218906Y216630D02*X220406D01*
X218156Y217380D02*X218906Y216630D01*
X223707Y218880D02*Y216630D01*
Y218880D02*X224457Y219630D01*
X225957D01*
X222957D02*X223707Y218880D01*
X227759Y220380D02*X228509D01*
X227759Y218880D02*X228509D01*
X233010Y222630D02*X236010D01*
X234510D02*Y216630D01*
X237812Y222630D02*Y216630D01*
Y218880D02*X238562Y219630D01*
X240062D01*
X240812Y218880D01*
Y216630D01*
X242613Y218880D02*Y217380D01*
Y218880D02*X243363Y219630D01*
X244863D01*
X245613Y218880D01*
Y217380D01*
X244863Y216630D02*X245613Y217380D01*
X243363Y216630D02*X244863D01*
X242613Y217380D02*X243363Y216630D01*
X248165Y218880D02*Y216630D01*
Y218880D02*X248915Y219630D01*
X249665D01*
X250415Y218880D01*
Y216630D01*
Y218880D02*X251165Y219630D01*
X251915D01*
X252665Y218880D01*
Y216630D01*
X247415Y219630D02*X248165Y218880D01*
X256716Y219630D02*X257466Y218880D01*
X255216Y219630D02*X256716D01*
X254466Y218880D02*X255216Y219630D01*
X254466Y218880D02*Y217380D01*
X255216Y216630D01*
X257466Y219630D02*Y217380D01*
X258216Y216630D01*
X255216D02*X256716D01*
X257466Y217380D01*
X260768Y216630D02*X263018D01*
X263768Y217380D01*
X263018Y218130D02*X263768Y217380D01*
X260768Y218130D02*X263018D01*
X260018Y218880D02*X260768Y218130D01*
X260018Y218880D02*X260768Y219630D01*
X263018D01*
X263768Y218880D01*
X260018Y217380D02*X260768Y216630D01*
X268269Y221880D02*Y217380D01*
Y221880D02*X269019Y222630D01*
X270519D01*
X271269Y221880D01*
Y217380D01*
X270519Y216630D02*X271269Y217380D01*
X269019Y216630D02*X270519D01*
X268269Y217380D02*X269019Y216630D01*
X273071Y222630D02*Y217380D01*
X273821Y216630D01*
X278322Y222630D02*Y216630D01*
X277572D02*X278322Y217380D01*
X276072Y216630D02*X277572D01*
X275322Y217380D02*X276072Y216630D01*
X275322Y218880D02*Y217380D01*
Y218880D02*X276072Y219630D01*
X277572D01*
X278322Y218880D01*
X280124Y222630D02*Y216630D01*
Y217380D02*X280874Y216630D01*
X282374D01*
X283124Y217380D01*
Y218880D02*Y217380D01*
X282374Y219630D02*X283124Y218880D01*
X280874Y219630D02*X282374D01*
X280124Y218880D02*X280874Y219630D01*
X284925D02*Y217380D01*
X285675Y216630D01*
X287175D01*
X287925Y217380D01*
Y219630D02*Y217380D01*
X290477Y218880D02*Y216630D01*
Y218880D02*X291227Y219630D01*
X292727D01*
X289727D02*X290477Y218880D01*
X294528Y219630D02*Y217380D01*
X295278Y216630D01*
X297528Y219630D02*Y215130D01*
X296778Y214380D02*X297528Y215130D01*
X295278Y214380D02*X296778D01*
X294528Y215130D02*X295278Y214380D01*
Y216630D02*X296778D01*
X297528Y217380D01*
X200000Y237630D02*X203000D01*
X201500D02*Y231630D01*
X204801Y236130D02*Y235380D01*
Y233880D02*Y231630D01*
X207053Y237630D02*Y232380D01*
X207803Y231630D01*
X206303Y235380D02*X207803D01*
X209304Y237630D02*Y232380D01*
X210054Y231630D01*
X212306D02*X214556D01*
X211556Y232380D02*X212306Y231630D01*
X211556Y233880D02*Y232380D01*
Y233880D02*X212306Y234630D01*
X213806D01*
X214556Y233880D01*
X211556Y233130D02*X214556D01*
Y233880D02*Y233130D01*
X216357Y235380D02*X217107D01*
X216357Y233880D02*X217107D01*
X221609Y232380D02*X222359Y231630D01*
X221609Y236880D02*X222359Y237630D01*
X221609Y236880D02*Y232380D01*
X224160Y234630D02*Y232380D01*
X224910Y231630D01*
X226410D01*
X227160Y232380D01*
Y234630D02*Y232380D01*
X229712Y233880D02*Y231630D01*
Y233880D02*X230462Y234630D01*
X231212D01*
X231962Y233880D01*
Y231630D01*
X228962Y234630D02*X229712Y233880D01*
X233763Y237630D02*Y231630D01*
Y233880D02*X236013Y231630D01*
X233763Y233880D02*X235263Y235380D01*
X238565Y233880D02*Y231630D01*
Y233880D02*X239315Y234630D01*
X240065D01*
X240815Y233880D01*
Y231630D01*
X237815Y234630D02*X238565Y233880D01*
X242616D02*Y232380D01*
Y233880D02*X243366Y234630D01*
X244866D01*
X245616Y233880D01*
Y232380D01*
X244866Y231630D02*X245616Y232380D01*
X243366Y231630D02*X244866D01*
X242616Y232380D02*X243366Y231630D01*
X247418Y234630D02*Y232380D01*
X248168Y231630D01*
X248918D01*
X249668Y232380D01*
Y234630D02*Y232380D01*
X250418Y231630D01*
X251168D01*
X251918Y232380D01*
Y234630D02*Y232380D01*
X254469Y233880D02*Y231630D01*
Y233880D02*X255219Y234630D01*
X255969D01*
X256719Y233880D01*
Y231630D01*
X253719Y234630D02*X254469Y233880D01*
X258521Y237630D02*X259271Y236880D01*
Y232380D01*
X258521Y231630D02*X259271Y232380D01*
X263772Y234630D02*X266772D01*
X271274Y237630D02*Y231630D01*
Y237630D02*X274274D01*
X271274Y234630D02*X273524D01*
X278325D02*X279075Y233880D01*
X276825Y234630D02*X278325D01*
X276075Y233880D02*X276825Y234630D01*
X276075Y233880D02*Y232380D01*
X276825Y231630D01*
X279075Y234630D02*Y232380D01*
X279825Y231630D01*
X276825D02*X278325D01*
X279075Y232380D01*
X281627Y237630D02*Y231630D01*
Y232380D02*X282377Y231630D01*
X283877D01*
X284627Y232380D01*
Y233880D02*Y232380D01*
X283877Y234630D02*X284627Y233880D01*
X282377Y234630D02*X283877D01*
X281627Y233880D02*X282377Y234630D01*
X287178Y233880D02*Y231630D01*
Y233880D02*X287928Y234630D01*
X289428D01*
X286428D02*X287178Y233880D01*
X291230Y236130D02*Y235380D01*
Y233880D02*Y231630D01*
X293481Y234630D02*X295731D01*
X292731Y233880D02*X293481Y234630D01*
X292731Y233880D02*Y232380D01*
X293481Y231630D01*
X295731D01*
X299783Y234630D02*X300533Y233880D01*
X298283Y234630D02*X299783D01*
X297533Y233880D02*X298283Y234630D01*
X297533Y233880D02*Y232380D01*
X298283Y231630D01*
X300533Y234630D02*Y232380D01*
X301283Y231630D01*
X298283D02*X299783D01*
X300533Y232380D01*
X303834Y237630D02*Y232380D01*
X304584Y231630D01*
X303084Y235380D02*X304584D01*
X306086Y236130D02*Y235380D01*
Y233880D02*Y231630D01*
X307587Y233880D02*Y232380D01*
Y233880D02*X308337Y234630D01*
X309837D01*
X310587Y233880D01*
Y232380D01*
X309837Y231630D02*X310587Y232380D01*
X308337Y231630D02*X309837D01*
X307587Y232380D02*X308337Y231630D01*
X313139Y233880D02*Y231630D01*
Y233880D02*X313889Y234630D01*
X314639D01*
X315389Y233880D01*
Y231630D01*
X312389Y234630D02*X313139Y233880D01*
X320640Y237630D02*Y231630D01*
X322890Y237630D02*X323640Y236880D01*
Y232380D01*
X322890Y231630D02*X323640Y232380D01*
X319890Y231630D02*X322890D01*
X319890Y237630D02*X322890D01*
X326192Y233880D02*Y231630D01*
Y233880D02*X326942Y234630D01*
X328442D01*
X325442D02*X326192Y233880D01*
X332493Y234630D02*X333243Y233880D01*
X330993Y234630D02*X332493D01*
X330243Y233880D02*X330993Y234630D01*
X330243Y233880D02*Y232380D01*
X330993Y231630D01*
X333243Y234630D02*Y232380D01*
X333993Y231630D01*
X330993D02*X332493D01*
X333243Y232380D01*
X335795Y234630D02*Y232380D01*
X336545Y231630D01*
X337295D01*
X338045Y232380D01*
Y234630D02*Y232380D01*
X338795Y231630D01*
X339545D01*
X340295Y232380D01*
Y234630D02*Y232380D01*
X342096Y236130D02*Y235380D01*
Y233880D02*Y231630D01*
X344348Y233880D02*Y231630D01*
Y233880D02*X345098Y234630D01*
X345848D01*
X346598Y233880D01*
Y231630D01*
X343598Y234630D02*X344348Y233880D01*
X350649Y234630D02*X351399Y233880D01*
X349149Y234630D02*X350649D01*
X348399Y233880D02*X349149Y234630D01*
X348399Y233880D02*Y232380D01*
X349149Y231630D01*
X350649D01*
X351399Y232380D01*
X348399Y230130D02*X349149Y229380D01*
X350649D01*
X351399Y230130D01*
Y234630D02*Y230130D01*
M02*
