G04 start of page 9 for group -4015 idx -4015 *
G04 Title: (unknown), toppaste *
G04 Creator: pcb 20091103 *
G04 CreationDate: Fri 28 Jan 2011 22:03:10 GMT UTC *
G04 For: thomas *
G04 Format: Gerber/RS-274X *
G04 PCB-Dimensions: 179130 179130 *
G04 PCB-Coordinate-Origin: lower left *
%MOIN*%
%FSLAX25Y25*%
%LNFRONTPASTE*%
%ADD21R,0.0512X0.0512*%
%ADD22R,0.0200X0.0200*%
%ADD23R,0.0240X0.0240*%
%ADD24R,0.0340X0.0340*%
G54D21*X30709Y72043D02*X31495D01*
X30709Y64957D02*X31495D01*
X38976Y74010D02*Y73224D01*
X46062Y74010D02*Y73224D01*
X64567Y38184D02*Y37398D01*
X71653Y38184D02*Y37398D01*
G54D22*X54506Y82775D02*X61006D01*
X54506Y77775D02*X61006D01*
X54506Y72775D02*X61006D01*
X54506Y67775D02*X61006D01*
X54506Y62775D02*X61006D01*
X54506Y57775D02*X61006D01*
X54506Y52775D02*X61006D01*
X75006D02*X81506D01*
X75006Y57775D02*X81506D01*
X75006Y62775D02*X81506D01*
X75006Y67775D02*X81506D01*
X75006Y72775D02*X81506D01*
X75006Y77775D02*X81506D01*
X75006Y82775D02*X81506D01*
G54D21*X26772Y50784D02*X27558D01*
X26772Y57870D02*X27558D01*
X38976Y58262D02*Y57476D01*
X46062Y58262D02*Y57476D01*
Y66136D02*Y65350D01*
X38976Y66136D02*Y65350D01*
X71653Y46059D02*Y45273D01*
X78739Y46059D02*Y45273D01*
X38977Y50388D02*Y49602D01*
X46063Y50388D02*Y49602D01*
X64567Y90154D02*Y89368D01*
X71653Y90154D02*Y89368D01*
X148819Y175193D02*Y174407D01*
X155905Y175193D02*Y174407D01*
X153150Y129918D02*X153936D01*
X153150Y137004D02*X153936D01*
X29921Y86217D02*Y85431D01*
X37007Y86217D02*Y85431D01*
G54D24*X100787Y42910D02*Y42310D01*
X108587Y42910D02*Y42310D01*
X104687Y51110D02*Y50510D01*
G54D21*X108661Y35822D02*Y35036D01*
X101575Y35822D02*Y35036D01*
X172442Y38973D02*X173228D01*
X172442Y46059D02*X173228D01*
X85827D02*Y45273D01*
X92913Y46059D02*Y45273D01*
X88977Y94091D02*Y93305D01*
X96063Y94091D02*Y93305D01*
X81497Y166925D02*X82283D01*
X81497Y159839D02*X82283D01*
X57480Y46058D02*Y45272D01*
X64566Y46058D02*Y45272D01*
X24803Y94484D02*Y93698D01*
X31889Y94484D02*Y93698D01*
X23622Y34248D02*X24408D01*
X23622Y41334D02*X24408D01*
X8661Y49996D02*Y49210D01*
X15747Y49996D02*Y49210D01*
G54D23*X16110Y34550D02*X17710D01*
X16110Y38450D02*X17710D01*
X16110Y42350D02*X17710D01*
X7910D02*X9510D01*
X7910Y38450D02*X9510D01*
X7910Y34550D02*X9510D01*
M02*
