G04 start of page 4 for group -4063 idx -4063 *
G04 Title: (unknown), componentmask *
G04 Creator: pcb 20091103 *
G04 CreationDate: Fri 28 Jan 2011 22:03:10 GMT UTC *
G04 For: thomas *
G04 Format: Gerber/RS-274X *
G04 PCB-Dimensions: 179130 179130 *
G04 PCB-Coordinate-Origin: lower left *
%MOIN*%
%FSLAX25Y25*%
%LNFRONTMASK*%
%ADD13C,0.0200*%
%ADD36C,0.0660*%
%ADD37C,0.0850*%
%ADD38C,0.0710*%
%ADD39C,0.1950*%
%ADD40C,0.1700*%
%ADD41C,0.0750*%
%ADD42C,0.0960*%
%ADD43C,0.1560*%
%ADD44R,0.0572X0.0572*%
%ADD45R,0.0300X0.0300*%
%ADD46R,0.0400X0.0400*%
G54D13*G36*
X67566Y161406D02*Y154806D01*
X74166D01*
Y161406D01*
X67566D01*
G37*
G54D36*X86063Y24012D03*
X76063D03*
G54D13*G36*
X6936Y171406D02*Y164806D01*
X13536D01*
Y171406D01*
X6936D01*
G37*
G54D36*X10236Y158106D03*
G54D13*G36*
X4324Y90554D02*Y83454D01*
X11424D01*
Y90554D01*
X4324D01*
G37*
G36*
Y70869D02*Y63769D01*
X11424D01*
Y70869D01*
X4324D01*
G37*
G54D38*X17874Y87004D03*
Y67319D03*
G54D37*X22047Y168106D03*
Y148421D03*
G54D40*X34707Y118564D03*
G54D36*X70866Y168106D03*
G54D37*X57047D03*
G54D13*G36*
X67506Y144645D02*Y138045D01*
X74106D01*
Y144645D01*
X67506D01*
G37*
G54D36*X80806Y141345D03*
G54D37*X57047Y148421D03*
G54D13*G36*
X77716Y109943D02*Y103343D01*
X84316D01*
Y109943D01*
X77716D01*
G37*
G54D36*X81016Y116643D03*
G54D39*X58707Y118564D03*
G54D40*X46707Y99564D03*
G54D13*G36*
X103781Y170720D02*Y164120D01*
X110381D01*
Y170720D01*
X103781D01*
G37*
G54D36*X107081Y157420D03*
Y147420D03*
Y137420D03*
X137081D03*
Y167420D03*
Y147420D03*
Y157420D03*
G54D13*G36*
X151268Y159594D02*Y152994D01*
X157868D01*
Y159594D01*
X151268D01*
G37*
G54D36*X164568Y156294D03*
G54D13*G36*
X143157Y122587D02*Y115987D01*
X149757D01*
Y122587D01*
X143157D01*
G37*
G54D36*X136457Y119287D03*
G54D13*G36*
X165454Y123125D02*Y117025D01*
X171554D01*
Y123125D01*
X165454D01*
G37*
G54D36*X168504Y130075D03*
X102295Y119376D03*
G54D13*G36*
X108995Y122676D02*Y116076D01*
X115595D01*
Y122676D01*
X108995D01*
G37*
G54D41*X128234Y102837D03*
X98234D03*
X138583Y102752D03*
G54D13*G36*
X159220Y43847D02*Y37247D01*
X165820D01*
Y43847D01*
X159220D01*
G37*
G54D36*X152520Y40547D03*
G54D43*X163110Y71285D03*
G54D41*X168583Y102752D03*
G54D36*X142520Y40547D03*
X132520D03*
X122520D03*
G54D13*G36*
X159456Y27312D02*Y20712D01*
X166056D01*
Y27312D01*
X159456D01*
G37*
G54D36*X152756Y24012D03*
X142756D03*
G54D13*G36*
X126149Y27312D02*Y20712D01*
X132749D01*
Y27312D01*
X126149D01*
G37*
G54D36*X119449Y24012D03*
X109449D03*
G54D13*G36*
X92763Y27312D02*Y20712D01*
X99363D01*
Y27312D01*
X92763D01*
G37*
G36*
X91310Y86085D02*Y76485D01*
X100910D01*
Y86085D01*
X91310D01*
G37*
G54D42*X96110Y71285D03*
Y61285D03*
G54D44*X81497Y166925D02*X82283D01*
X81497Y159839D02*X82283D01*
X148819Y175193D02*Y174407D01*
X155905Y175193D02*Y174407D01*
X153150Y129918D02*X153936D01*
X153150Y137004D02*X153936D01*
X88977Y94091D02*Y93305D01*
X96063Y94091D02*Y93305D01*
G54D45*X54506Y82775D02*X61006D01*
X54506Y77775D02*X61006D01*
X54506Y72775D02*X61006D01*
X75006Y62775D02*X81506D01*
X75006Y67775D02*X81506D01*
X75006Y72775D02*X81506D01*
X75006Y77775D02*X81506D01*
X75006Y82775D02*X81506D01*
G54D44*X64567Y90154D02*Y89368D01*
X71653Y90154D02*Y89368D01*
X38977Y50388D02*Y49602D01*
X38976Y58262D02*Y57476D01*
X26772Y50784D02*X27558D01*
X26772Y57870D02*X27558D01*
X46063Y50388D02*Y49602D01*
X46062Y58262D02*Y57476D01*
Y66136D02*Y65350D01*
X38976Y66136D02*Y65350D01*
G54D45*X54506Y67775D02*X61006D01*
X54506Y62775D02*X61006D01*
X54506Y57775D02*X61006D01*
X54506Y52775D02*X61006D01*
G54D44*X38976Y74010D02*Y73224D01*
X37007Y86217D02*Y85431D01*
X46062Y74010D02*Y73224D01*
X30709Y72043D02*X31495D01*
X30709Y64957D02*X31495D01*
X24803Y94484D02*Y93698D01*
X31889Y94484D02*Y93698D01*
X29921Y86217D02*Y85431D01*
X8661Y49996D02*Y49210D01*
X15747Y49996D02*Y49210D01*
G54D45*X16110Y34550D02*X17710D01*
G54D44*X23622Y34248D02*X24408D01*
G54D45*X16110Y38450D02*X17710D01*
X16110Y42350D02*X17710D01*
X7910D02*X9510D01*
G54D44*X23622Y41334D02*X24408D01*
G54D45*X7910Y38450D02*X9510D01*
X7910Y34550D02*X9510D01*
G54D44*X71653Y46059D02*Y45273D01*
X57480Y46058D02*Y45272D01*
X64566Y46058D02*Y45272D01*
X78739Y46059D02*Y45273D01*
G54D45*X75006Y52775D02*X81506D01*
X75006Y57775D02*X81506D01*
G54D44*X85827Y46059D02*Y45273D01*
X64567Y38184D02*Y37398D01*
X71653Y38184D02*Y37398D01*
X172442Y38973D02*X173228D01*
X92913Y46059D02*Y45273D01*
G54D46*X100787Y42910D02*Y42310D01*
G54D44*X172442Y46059D02*X173228D01*
G54D46*X108587Y42910D02*Y42310D01*
G54D44*X108661Y35822D02*Y35036D01*
X101575Y35822D02*Y35036D01*
G54D46*X104687Y51110D02*Y50510D01*
M02*
