G04 start of page 7 for group -4079 idx -4079 *
G04 Title: (unknown), topsilk *
G04 Creator: pcb 20091103 *
G04 CreationDate: Fri 29 Oct 2010 14:31:42 GMT UTC *
G04 For: thomas *
G04 Format: Gerber/RS-274X *
G04 PCB-Dimensions: 600000 500000 *
G04 PCB-Coordinate-Origin: lower left *
%MOIN*%
%FSLAX25Y25*%
%LNFRONTSILK*%
%ADD11C,0.0100*%
%ADD15C,0.0200*%
%ADD47C,0.0060*%
%ADD48C,0.0080*%
G54D47*X254709Y172261D02*X252346D01*
X89000Y145000D02*Y143000D01*
X91000Y146000D02*X90000D01*
X89000Y145000D01*
X261008Y173048D02*X257858D01*
X257071Y172261D01*
X261008Y167536D02*X257858D01*
X257071Y166749D01*
X254709Y172261D02*X255496Y173048D01*
X278425Y113205D02*X279425Y112205D01*
X278425Y113205D02*X266425D01*
X252346Y172261D02*X251559Y173048D01*
X242110Y236039D02*Y232889D01*
X241323Y232102D01*
X274394Y178560D02*Y180134D01*
X273606Y180922D01*
X77095Y193560D02*X78095D01*
X79095Y192560D01*
Y189560D01*
X78095Y188560D01*
G54D11*X71276Y219008D02*X72851Y217433D01*
X76788Y219008D02*X75213Y220583D01*
X71276Y219008D02*X76788D01*
X75213Y217433D01*
X72851Y220583D02*X71276Y219008D01*
X80079Y232914D02*X68268D01*
X75095Y233623D02*X80095D01*
X68095Y232623D02*X80095D01*
Y233623D01*
X71418Y229765D02*X76930D01*
X71418Y232914D02*Y221891D01*
X76930Y232914D02*Y221891D01*
X71418D01*
X68095Y233623D02*X73095D01*
X68095Y232623D02*Y233623D01*
X68126Y237119D02*X69700Y238693D01*
X68126Y237119D02*Y237118D01*
X69700Y235544D01*
X79937Y237119D02*X68126D01*
X79937D02*X78362Y235544D01*
X79937Y237119D02*X79936D01*
X78362Y238693D01*
X152753Y208956D02*Y205956D01*
X153878Y208956D02*X154253Y208581D01*
Y206331D01*
X153878Y205956D02*X154253Y206331D01*
X152378Y205956D02*X153878D01*
X152378Y208956D02*X153878D01*
X156653D02*X157028Y208581D01*
X155528Y208956D02*X156653D01*
X155153Y208581D02*X155528Y208956D01*
X155153Y208581D02*Y207831D01*
X155528Y207456D01*
X156653D01*
X157028Y207081D01*
Y206331D01*
X156653Y205956D02*X157028Y206331D01*
X155528Y205956D02*X156653D01*
X155153Y206331D02*X155528Y205956D01*
X158304Y208956D02*Y205956D01*
X157929Y208956D02*X159429D01*
X159804Y208581D01*
Y207831D01*
X159429Y207456D02*X159804Y207831D01*
X158304Y207456D02*X159429D01*
X280968Y226989D02*X281468Y226489D01*
X280968Y227989D02*Y226989D01*
Y227989D02*X281468Y228489D01*
X282468D01*
X282968Y227989D01*
Y226989D01*
X282468Y226489D02*X282968Y226989D01*
X281468Y226489D02*X282468D01*
X280968Y228989D02*X281468Y228489D01*
X280968Y229989D02*Y228989D01*
Y229989D02*X281468Y230489D01*
X282468D01*
X282968Y229989D01*
Y228989D01*
X282468Y228489D02*X282968Y228989D01*
X285969Y230489D02*Y226489D01*
Y230489D02*X287469Y228989D01*
X288969Y230489D01*
Y226489D01*
X290170Y230489D02*Y226489D01*
X292670Y230489D02*Y226489D01*
X290170Y228489D02*X292670D01*
X293871D02*X295871D01*
X293871Y226489D02*X295871Y228489D01*
X293871Y226489D02*X295871D01*
X100394Y226276D02*X101394D01*
X100894D02*Y222276D01*
X100394D02*X101394D01*
X102595Y225776D02*X103095Y226276D01*
X104595D01*
X105095Y225776D01*
Y224776D01*
X102595Y222276D02*X105095Y224776D01*
X102595Y222276D02*X105095D01*
X106796D02*X108296D01*
X106296Y222776D02*X106796Y222276D01*
X106296Y225776D02*Y222776D01*
Y225776D02*X106796Y226276D01*
X108296D01*
X120000Y97470D02*Y94410D01*
Y97470D02*X120510Y97980D01*
X121530D01*
X122040Y97470D01*
Y94410D01*
X121530Y93900D02*X122040Y94410D01*
X120510Y93900D02*X121530D01*
X120000Y94410D02*X120510Y93900D01*
X123265Y97980D02*Y93900D01*
Y95940D02*X125305Y97980D01*
X123265Y95940D02*X125305Y93900D01*
X148000Y97980D02*Y94410D01*
X148510Y93900D01*
X149530D01*
X150040Y94410D01*
Y97980D02*Y94410D01*
X151775Y97980D02*Y93900D01*
X151265Y97980D02*X153305D01*
X153815Y97470D01*
Y96450D01*
X153305Y95940D02*X153815Y96450D01*
X151775Y95940D02*X153305D01*
X176510Y97980D02*Y93900D01*
X178040Y97980D02*X178550Y97470D01*
Y94410D01*
X178040Y93900D02*X178550Y94410D01*
X176000Y93900D02*X178040D01*
X176000Y97980D02*X178040D01*
X179775D02*Y93900D01*
Y97980D02*Y97470D01*
X182325Y94920D01*
Y97980D02*Y93900D01*
X188535Y140585D02*X189660D01*
X188535Y139085D02*X190035D01*
X188535Y142085D02*Y139085D01*
Y142085D02*X190035D01*
X190935Y140585D02*X192060D01*
X190935Y139085D02*X192435D01*
X190935Y142085D02*Y139085D01*
Y142085D02*X192435D01*
X193711D02*Y139085D01*
X193336Y142085D02*X194836D01*
X195211Y141710D01*
Y140960D01*
X194836Y140585D02*X195211Y140960D01*
X193711Y140585D02*X194836D01*
X196112Y142085D02*X197612D01*
X197987Y141710D01*
Y140960D01*
X197612Y140585D02*X197987Y140960D01*
X196487Y140585D02*X197612D01*
X196487Y142085D02*Y139085D01*
Y140585D02*X197987Y139085D01*
X198888Y141710D02*Y139460D01*
Y141710D02*X199263Y142085D01*
X200013D01*
X200388Y141710D01*
Y139460D01*
X200013Y139085D02*X200388Y139460D01*
X199263Y139085D02*X200013D01*
X198888Y139460D02*X199263Y139085D01*
X201288Y142085D02*Y139085D01*
Y142085D02*X202413Y140960D01*
X203538Y142085D01*
Y139085D01*
X250016Y93210D02*X251516D01*
X251891Y93585D01*
Y94335D02*Y93585D01*
X251516Y94710D02*X251891Y94335D01*
X250391Y94710D02*X251516D01*
X250391Y96210D02*Y93210D01*
X250016Y96210D02*X251516D01*
X251891Y95835D01*
Y95085D01*
X251516Y94710D02*X251891Y95085D01*
X252791Y96210D02*Y93585D01*
X253166Y93210D01*
X253916D01*
X254291Y93585D01*
Y96210D02*Y93585D01*
X255567Y93210D02*X256692D01*
X255192Y93585D02*X255567Y93210D01*
X255192Y95835D02*Y93585D01*
Y95835D02*X255567Y96210D01*
X256692D01*
X257593D02*Y93210D01*
Y94710D02*X259093Y96210D01*
X257593Y94710D02*X259093Y93210D01*
X261719Y96210D02*Y93210D01*
X261344Y96210D02*X262844D01*
X263219Y95835D01*
Y95085D01*
X262844Y94710D02*X263219Y95085D01*
X261719Y94710D02*X262844D01*
X264119Y95835D02*Y93585D01*
Y95835D02*X264494Y96210D01*
X265244D01*
X265619Y95835D01*
Y93585D01*
X265244Y93210D02*X265619Y93585D01*
X264494Y93210D02*X265244D01*
X264119Y93585D02*X264494Y93210D01*
X266520Y96210D02*Y93210D01*
X267645Y94335D01*
X268770Y93210D01*
Y96210D02*Y93210D01*
X269671Y94710D02*X270796D01*
X269671Y93210D02*X271171D01*
X269671Y96210D02*Y93210D01*
Y96210D02*X271171D01*
X272072D02*X273572D01*
X273947Y95835D01*
Y95085D01*
X273572Y94710D02*X273947Y95085D01*
X272447Y94710D02*X273572D01*
X272447Y96210D02*Y93210D01*
Y94710D02*X273947Y93210D01*
X277697Y96210D02*X278072Y95835D01*
X276572Y96210D02*X277697D01*
X276197Y95835D02*X276572Y96210D01*
X276197Y95835D02*Y95085D01*
X276572Y94710D01*
X277697D01*
X278072Y94335D01*
Y93585D01*
X277697Y93210D02*X278072Y93585D01*
X276572Y93210D02*X277697D01*
X276197Y93585D02*X276572Y93210D01*
X278973Y96210D02*Y93585D01*
X279348Y93210D01*
X280098D01*
X280473Y93585D01*
Y96210D02*Y93585D01*
X281749Y96210D02*Y93210D01*
X281374Y96210D02*X282874D01*
X283249Y95835D01*
Y95085D01*
X282874Y94710D02*X283249Y95085D01*
X281749Y94710D02*X282874D01*
X284525Y96210D02*Y93210D01*
X284150Y96210D02*X285650D01*
X286025Y95835D01*
Y95085D01*
X285650Y94710D02*X286025Y95085D01*
X284525Y94710D02*X285650D01*
X286925Y96210D02*Y93210D01*
X288425D01*
X289326Y96210D02*Y95835D01*
X290076Y95085D01*
X290826Y95835D01*
Y96210D02*Y95835D01*
X290076Y95085D02*Y93210D01*
X250394Y250276D02*X252394D01*
X252894Y249776D01*
Y248776D01*
X252394Y248276D02*X252894Y248776D01*
X250894Y248276D02*X252394D01*
X250894Y250276D02*Y246276D01*
Y248276D02*X252894Y246276D01*
X254095Y250276D02*X256095D01*
X255095D02*Y246276D01*
X257796D02*X259296D01*
X257296Y246776D02*X257796Y246276D01*
X257296Y249776D02*Y246776D01*
Y249776D02*X257796Y250276D01*
X259296D01*
X258145Y190630D02*X261145D01*
X258145D02*X259270Y191755D01*
X258145Y192880D01*
X261145D01*
Y195280D02*Y194155D01*
X260770Y193780D02*X261145Y194155D01*
X258520Y193780D02*X260770D01*
X258520D02*X258145Y194155D01*
Y195280D02*Y194155D01*
Y196181D02*X260770D01*
X261145Y196556D01*
Y197306D02*Y196556D01*
Y197306D02*X260770Y197681D01*
X258145D02*X260770D01*
X76244Y216004D02*Y215004D01*
Y215504D02*X80244D01*
X79244Y216504D02*X80244Y215504D01*
X76244Y213803D02*Y213303D01*
X78244Y212102D02*X80244Y210102D01*
X78244Y212102D02*Y209602D01*
X76244Y210102D02*X80244D01*
X76244Y207901D02*X77744D01*
X78244Y207401D01*
Y206901D01*
X77744Y206401D01*
X76244D02*X77744D01*
X78244Y205901D01*
Y205401D01*
X77744Y204901D01*
X76244D02*X77744D01*
X78244Y208401D02*X77744Y207901D01*
X76244Y203200D02*X77744D01*
X78244Y202700D01*
Y202200D01*
X77744Y201700D01*
X76244D02*X77744D01*
X78244Y201200D01*
Y200700D01*
X77744Y200200D01*
X76244D02*X77744D01*
X78244Y203700D02*X77744Y203200D01*
X81653Y238502D02*X82153Y239002D01*
X83153D01*
X83653Y238502D01*
Y235502D01*
X83153Y235002D02*X83653Y235502D01*
X82153Y235002D02*X83153D01*
X81653Y235502D02*X82153Y235002D01*
Y237002D02*X83653D01*
X85354Y236502D02*Y235002D01*
Y236502D02*X85854Y237002D01*
X86354D01*
X86854Y236502D01*
Y235002D01*
Y236502D02*X87354Y237002D01*
X87854D01*
X88354Y236502D01*
Y235002D01*
X84854Y237002D02*X85354Y236502D01*
X90055D02*Y235002D01*
Y236502D02*X90555Y237002D01*
X91055D01*
X91555Y236502D01*
Y235002D01*
Y236502D02*X92055Y237002D01*
X92555D01*
X93055Y236502D01*
Y235002D01*
X89555Y237002D02*X90055Y236502D01*
X89388Y252118D02*X90888D01*
X90138D02*Y249118D01*
X91788Y252118D02*Y249118D01*
X93663Y252118D02*Y249118D01*
X91788Y250618D02*X93663D01*
X94564Y252118D02*X95314D01*
X94939D02*Y249118D01*
X94564D02*X95314D01*
X97715Y252118D02*X98090Y251743D01*
X96590Y252118D02*X97715D01*
X96215Y251743D02*X96590Y252118D01*
X96215Y251743D02*Y250993D01*
X96590Y250618D01*
X97715D01*
X98090Y250243D01*
Y249493D01*
X97715Y249118D02*X98090Y249493D01*
X96590Y249118D02*X97715D01*
X96215Y249493D02*X96590Y249118D01*
X101841Y252118D02*X102216Y251743D01*
X100716Y252118D02*X101841D01*
X100341Y251743D02*X100716Y252118D01*
X100341Y251743D02*Y250993D01*
X100716Y250618D01*
X101841D01*
X102216Y250243D01*
Y249493D01*
X101841Y249118D02*X102216Y249493D01*
X100716Y249118D02*X101841D01*
X100341Y249493D02*X100716Y249118D01*
X103491Y252118D02*Y249118D01*
X103116Y252118D02*X104616D01*
X104991Y251743D01*
Y250993D01*
X104616Y250618D02*X104991Y250993D01*
X103491Y250618D02*X104616D01*
X105892Y251743D02*Y249118D01*
Y251743D02*X106267Y252118D01*
X107392D01*
X107767Y251743D01*
Y249118D01*
X105892Y250618D02*X107767D01*
X109043Y249118D02*X110168D01*
X108668Y249493D02*X109043Y249118D01*
X108668Y251743D02*Y249493D01*
Y251743D02*X109043Y252118D01*
X110168D01*
X111069Y250618D02*X112194D01*
X111069Y249118D02*X112569D01*
X111069Y252118D02*Y249118D01*
Y252118D02*X112569D01*
X89387Y247392D02*X90137D01*
X89762D02*Y244392D01*
X89387D02*X90137D01*
X91037Y247392D02*Y244392D01*
Y247392D02*Y247017D01*
X92912Y245142D01*
Y247392D02*Y244392D01*
X93813Y247392D02*X95313D01*
X94563D02*Y244392D01*
X96214Y245892D02*X97339D01*
X96214Y244392D02*X97714D01*
X96214Y247392D02*Y244392D01*
Y247392D02*X97714D01*
X98615D02*Y244392D01*
Y247392D02*Y247017D01*
X100490Y245142D01*
Y247392D02*Y244392D01*
X101390Y247392D02*X102890D01*
X102140D02*Y244392D01*
X103791Y247392D02*X104541D01*
X104166D02*Y244392D01*
X103791D02*X104541D01*
X105442Y247017D02*Y244767D01*
Y247017D02*X105817Y247392D01*
X106567D01*
X106942Y247017D01*
Y244767D01*
X106567Y244392D02*X106942Y244767D01*
X105817Y244392D02*X106567D01*
X105442Y244767D02*X105817Y244392D01*
X107843Y247392D02*Y244392D01*
Y247392D02*Y247017D01*
X109718Y245142D01*
Y247392D02*Y244392D01*
X110618Y247017D02*Y244392D01*
Y247017D02*X110993Y247392D01*
X112118D01*
X112493Y247017D01*
Y244392D01*
X110618Y245892D02*X112493D01*
X113394Y247392D02*Y244392D01*
X114894D01*
X115795Y247392D02*Y244392D01*
X117295D01*
X118196Y247392D02*Y247017D01*
X118946Y246267D01*
X119696Y247017D01*
Y247392D02*Y247017D01*
X118946Y246267D02*Y244392D01*
X89387Y242668D02*Y239668D01*
X90887D01*
X91787Y241168D02*X92912D01*
X91787Y239668D02*X93287D01*
X91787Y242668D02*Y239668D01*
Y242668D02*X93287D01*
X94188D02*Y239668D01*
Y242668D02*X95688D01*
X94188Y241168D02*X95313D01*
X96589Y242668D02*X98089D01*
X97339D02*Y239668D01*
X100340D02*X101840D01*
X102215Y240043D01*
Y240793D02*Y240043D01*
X101840Y241168D02*X102215Y240793D01*
X100715Y241168D02*X101840D01*
X100715Y242668D02*Y239668D01*
X100340Y242668D02*X101840D01*
X102215Y242293D01*
Y241543D01*
X101840Y241168D02*X102215Y241543D01*
X103115Y242668D02*Y239668D01*
X104615D01*
X105516Y242293D02*Y239668D01*
Y242293D02*X105891Y242668D01*
X107016D01*
X107391Y242293D01*
Y239668D01*
X105516Y241168D02*X107391D01*
X108292Y242668D02*Y239668D01*
Y242668D02*Y242293D01*
X110167Y240418D01*
Y242668D02*Y239668D01*
X111068Y242668D02*Y239668D01*
Y241168D02*X112568Y242668D01*
X111068Y241168D02*X112568Y239668D01*
G54D15*X230025Y99705D02*X238025D01*
G54D11*X239125Y103105D01*
Y120705D02*Y103105D01*
X228925Y120705D02*X239125D01*
X228925D02*Y103105D01*
X230025Y99705D01*
X217425Y138205D02*Y98205D01*
X227425D01*
Y138205D01*
X217425D01*
Y128205D02*X227425D01*
Y138205D01*
G54D48*X208425Y127205D02*X215425D01*
X208425D02*Y115205D01*
X215425D01*
Y127205D02*Y115205D01*
X208425Y126205D02*X215425D01*
G54D11*X181728Y163651D02*Y144651D01*
X212728D01*
Y163651D02*Y144651D01*
X181728Y163651D02*X194728D01*
X199728D02*X212728D01*
X194728D02*G75*G03X199728Y163651I2500J0D01*G01*
X183379Y178496D02*X197279D01*
Y191296D02*Y178496D01*
X183379Y191296D02*X197279D01*
X183379D02*Y178496D01*
X277819Y230954D02*Y210954D01*
X267819Y230954D02*Y210954D01*
X277819Y230954D02*G75*G03X267819Y230954I-5000J0D01*G01*
Y210954D02*G75*G03X277819Y210954I5000J0D01*G01*
X254709Y244741D02*G75*G03X254709Y244741I0J-10000D01*G01*
X250749Y160508D02*X264649D01*
X250749D02*Y147708D01*
X264649D01*
Y160508D02*Y147708D01*
G54D48*X264032Y126450D02*X264818D01*
X264032Y131960D02*X264818D01*
G54D11*X261675Y121405D02*Y123680D01*
X262900Y124905D01*
X265175D01*
Y121405D01*
X261675Y117005D02*Y113505D01*
X265175D01*
Y117005D01*
G54D15*X277925Y110805D02*Y102805D01*
G54D11*Y110805D02*X274525Y111905D01*
X256925D02*X274525D01*
X256925D02*Y101705D01*
X274525D01*
X277925Y102805D01*
X286480Y179623D02*Y139623D01*
X276480Y179623D02*X286480D01*
X276480D02*Y139623D01*
X286480D01*
X276480Y149623D02*X286480D01*
X276480D02*Y139623D01*
X297504Y179702D02*Y139702D01*
X287504Y179702D02*X297504D01*
X287504D02*Y139702D01*
X297504D01*
X287504Y149702D02*X297504D01*
X287504D02*Y139702D01*
X273225Y137339D02*Y113717D01*
X299059Y137339D02*Y113717D01*
X199315Y235764D02*X239315D01*
Y245764D02*Y235764D01*
X199315Y245764D02*X239315D01*
X199315D02*Y235764D01*
X209315Y245764D02*Y235764D01*
X199315Y245764D02*X209315D01*
G54D48*X211552Y220679D02*X247222D01*
Y182109D01*
X208652D01*
Y217779D01*
X211552Y220679D01*
X210552Y217779D02*G75*G03X210552Y217779I1000J0D01*G01*
X235180Y133598D02*Y132812D01*
X229670Y133598D02*Y132812D01*
G54D11*X250038Y140005D02*Y126105D01*
X237238Y140005D02*X250038D01*
X237238D02*Y126105D01*
X250038D01*
G54D48*X240685Y111567D02*Y106843D01*
X248165Y111567D02*Y106843D01*
G54D11*X108000Y139000D02*Y99000D01*
X98000Y139000D02*X108000D01*
X98000D02*Y99000D01*
X108000D01*
X98000Y109000D02*X108000D01*
X98000D02*Y99000D01*
G54D48*X101717Y92513D02*X102503D01*
X101717Y98023D02*X102503D01*
G54D11*X119472Y99622D02*X127346D01*
X119472Y123244D02*X127346D01*
X111598Y119307D02*Y103559D01*
X135220Y119307D02*Y103559D01*
X116323Y111433D02*G75*G03X116323Y111433I7086J0D01*G01*
X73700Y157300D02*Y143400D01*
X86500D01*
Y157300D01*
X73700D01*
X145800Y186500D02*X159700D01*
X145800D02*Y173700D01*
X159700D01*
Y186500D02*Y173700D01*
X145800Y200500D02*X159700D01*
X145800D02*Y187700D01*
X159700D01*
Y200500D02*Y187700D01*
X175378Y99622D02*X183252D01*
X175378Y123244D02*X183252D01*
X167504Y119307D02*Y103559D01*
X191126Y119307D02*Y103559D01*
X172229Y111433D02*G75*G03X172229Y111433I7086J0D01*G01*
X147425Y99622D02*X155299D01*
X147425Y123244D02*X155299D01*
X139551Y119307D02*Y103559D01*
X163173Y119307D02*Y103559D01*
X144276Y111433D02*G75*G03X144276Y111433I7086J0D01*G01*
X97095Y209560D02*Y140560D01*
X143095D01*
Y209560D02*Y140560D01*
X97095Y209560D02*X117595D01*
X122595D02*X143095D01*
X117595D02*G75*G03X122595Y209560I2500J0D01*G01*
X81992Y219780D02*Y169780D01*
X91992D01*
Y219780D02*Y169780D01*
X81992Y219780D02*X91992D01*
X81992Y209780D02*X91992D01*
Y219780D02*Y209780D01*
X100000Y211000D02*X140000D01*
Y221000D02*Y211000D01*
X100000Y221000D02*X140000D01*
X100000D02*Y211000D01*
X110000Y221000D02*Y211000D01*
X100000Y221000D02*X110000D01*
G54D48*X141245Y236708D02*X142031D01*
X141245Y231198D02*X142031D01*
G54D11*X181756Y215922D02*Y165922D01*
X171756Y215922D02*X181756D01*
X171756D02*Y165922D01*
X181756D01*
X171756Y175922D02*X181756D01*
X171756D02*Y165922D01*
G54D15*X187642Y193645D02*X196242D01*
G54D11*X197442Y196045D01*
Y211845D02*Y196045D01*
X186442Y211845D02*X197442D01*
X186442D02*Y196045D01*
X187642Y193645D01*
X169062Y234363D02*X209062D01*
X169062D02*Y224363D01*
X209062D01*
Y234363D02*Y224363D01*
X199062Y234363D02*Y224363D01*
X209062D01*
X148900Y229600D02*X162800D01*
Y242400D02*Y229600D01*
X148900Y242400D02*X162800D01*
X148900D02*Y229600D01*
X170756Y167922D02*Y166422D01*
X170256Y165922D02*X170756Y166422D01*
X167256Y165922D02*X170256D01*
X167256D02*X166756Y166422D01*
Y167922D02*Y166422D01*
X167256Y169123D02*X170256D01*
X167256D02*X166756Y169623D01*
Y170623D02*Y169623D01*
Y170623D02*X167256Y171123D01*
X170256D01*
X170756Y170623D02*X170256Y171123D01*
X170756Y170623D02*Y169623D01*
X170256Y169123D02*X170756Y169623D01*
X166756Y172324D02*X170756D01*
X166756D02*X167256D01*
X169756Y174824D01*
X166756D02*X170756D01*
X166756Y176025D02*X170756D01*
X166756D02*X167256D01*
X169756Y178525D01*
X166756D02*X170756D01*
X170256Y179726D02*X170756Y180226D01*
X169256Y179726D02*X170256D01*
X169256D02*X168756Y180226D01*
Y181226D02*Y180226D01*
Y181226D02*X169256Y181726D01*
X170256D01*
X170756Y181226D02*X170256Y181726D01*
X170756Y181226D02*Y180226D01*
X168256Y179726D02*X168756Y180226D01*
X167256Y179726D02*X168256D01*
X167256D02*X166756Y180226D01*
Y181226D02*Y180226D01*
Y181226D02*X167256Y181726D01*
X168256D01*
X168756Y181226D02*X168256Y181726D01*
X186930Y213570D02*X188430D01*
X186430Y214070D02*X186930Y213570D01*
X186430Y217070D02*Y214070D01*
Y217070D02*X186930Y217570D01*
X188430D01*
X190131Y213570D02*X191131D01*
X190631Y217570D02*Y213570D01*
X189631Y216570D02*X190631Y217570D01*
X192332Y214070D02*X192832Y213570D01*
X192332Y217070D02*Y214070D01*
Y217070D02*X192832Y217570D01*
X193832D01*
X194332Y217070D01*
Y214070D01*
X193832Y213570D02*X194332Y214070D01*
X192832Y213570D02*X193832D01*
X192332Y214570D02*X194332Y216570D01*
X181055Y142615D02*Y139115D01*
X181555Y138615D01*
X182555D01*
X183055Y139115D01*
Y142615D02*Y139115D01*
X184256Y142615D02*X186256D01*
X184256D02*Y140615D01*
X184756Y141115D01*
X185756D01*
X186256Y140615D01*
Y139115D01*
X185756Y138615D02*X186256Y139115D01*
X184756Y138615D02*X185756D01*
X184256Y139115D02*X184756Y138615D01*
X156818Y147343D02*X158818D01*
X159318Y146843D01*
Y145843D01*
X158818Y145343D02*X159318Y145843D01*
X157318Y145343D02*X158818D01*
X157318Y147343D02*Y143343D01*
Y145343D02*X159318Y143343D01*
X160519Y146843D02*X161019Y147343D01*
X162519D01*
X163019Y146843D01*
Y145843D01*
X160519Y143343D02*X163019Y145843D01*
X160519Y143343D02*X163019D01*
X164220Y146843D02*X164720Y147343D01*
X165720D01*
X166220Y146843D01*
Y143843D01*
X165720Y143343D02*X166220Y143843D01*
X164720Y143343D02*X165720D01*
X164220Y143843D02*X164720Y143343D01*
Y145343D02*X166220D01*
X147358Y150409D02*Y148409D01*
Y150409D02*X147858Y150909D01*
X148858D01*
X149358Y150409D02*X148858Y150909D01*
X149358Y150409D02*Y148909D01*
X147358D02*X151358D01*
X149358D02*X151358Y150909D01*
X147358Y154110D02*Y152110D01*
X149358D01*
X148858Y152610D01*
Y153610D02*Y152610D01*
Y153610D02*X149358Y154110D01*
X150858D01*
X151358Y153610D02*X150858Y154110D01*
X151358Y153610D02*Y152610D01*
X150858Y152110D02*X151358Y152610D01*
X150858Y155311D02*X151358Y155811D01*
X147858Y155311D02*X150858D01*
X147858D02*X147358Y155811D01*
Y156811D02*Y155811D01*
Y156811D02*X147858Y157311D01*
X150858D01*
X151358Y156811D02*X150858Y157311D01*
X151358Y156811D02*Y155811D01*
X150358Y155311D02*X148358Y157311D01*
X157150Y158150D02*Y156150D01*
X156650Y155650D01*
X155650D02*X156650D01*
X155150Y156150D02*X155650Y155650D01*
X155150Y157650D02*Y156150D01*
X153150Y157650D02*X157150D01*
X155150D02*X153150Y155650D01*
X156650Y154449D02*X157150Y153949D01*
Y152449D01*
X156650Y151949D01*
X155650D02*X156650D01*
X153150Y154449D02*X155650Y151949D01*
X153150Y154449D02*Y151949D01*
X155150Y150748D02*X157150Y148748D01*
X155150Y150748D02*Y148248D01*
X153150Y148748D02*X157150D01*
X145095Y209560D02*Y206060D01*
X145595Y205560D01*
X146595D01*
X147095Y206060D01*
Y209560D02*Y206060D01*
X148296D02*X148796Y205560D01*
X148296Y207060D02*Y206060D01*
Y207060D02*X148796Y207560D01*
X149796D01*
X150296Y207060D01*
Y206060D01*
X149796Y205560D02*X150296Y206060D01*
X148796Y205560D02*X149796D01*
X148296Y208060D02*X148796Y207560D01*
X148296Y209060D02*Y208060D01*
Y209060D02*X148796Y209560D01*
X149796D01*
X150296Y209060D01*
Y208060D01*
X149796Y207560D02*X150296Y208060D01*
X144850Y172150D02*X146850D01*
X147350Y171650D01*
Y170650D01*
X146850Y170150D02*X147350Y170650D01*
X145350Y170150D02*X146850D01*
X145350Y172150D02*Y168150D01*
Y170150D02*X147350Y168150D01*
X148551Y171650D02*X149051Y172150D01*
X150051D01*
X150551Y171650D01*
Y168650D01*
X150051Y168150D02*X150551Y168650D01*
X149051Y168150D02*X150051D01*
X148551Y168650D02*X149051Y168150D01*
Y170150D02*X150551D01*
X151752Y168150D02*X153752Y170150D01*
Y171650D02*Y170150D01*
X153252Y172150D02*X153752Y171650D01*
X152252Y172150D02*X153252D01*
X151752Y171650D02*X152252Y172150D01*
X151752Y171650D02*Y170650D01*
X152252Y170150D01*
X153752D01*
X161800Y185700D02*X164800D01*
X165300Y185200D01*
Y184200D01*
X164800Y183700D01*
X161800D02*X164800D01*
X161300Y184200D02*X161800Y183700D01*
X161300Y185200D02*Y184200D01*
X161800Y185700D02*X161300Y185200D01*
X162300Y184700D02*X161300Y183700D01*
X164800Y182499D02*X165300Y181999D01*
Y180499D01*
X164800Y179999D01*
X163800D02*X164800D01*
X161300Y182499D02*X163800Y179999D01*
X161300Y182499D02*Y179999D01*
X161800Y192700D02*X164800D01*
X165300Y192200D01*
Y191200D01*
X164800Y190700D01*
X161800D02*X164800D01*
X161300Y191200D02*X161800Y190700D01*
X161300Y192200D02*Y191200D01*
X161800Y192700D02*X161300Y192200D01*
X162300Y191700D02*X161300Y190700D01*
X164800Y189499D02*X165300Y188999D01*
Y187999D01*
X164800Y187499D01*
X161800D02*X164800D01*
X161300Y187999D02*X161800Y187499D01*
X161300Y188999D02*Y187999D01*
X161800Y189499D02*X161300Y188999D01*
X163300D02*Y187499D01*
X195850Y251150D02*X198350D01*
Y250650D01*
X195850Y248150D02*X198350Y250650D01*
X195850Y248150D02*Y247150D01*
X198350D01*
X201051Y251150D02*X201551Y250650D01*
X200051Y251150D02*X201051D01*
X199551Y250650D02*X200051Y251150D01*
X199551Y250650D02*Y247650D01*
X200051Y247150D01*
X201051Y249150D02*X201551Y248650D01*
X199551Y249150D02*X201051D01*
X200051Y247150D02*X201051D01*
X201551Y247650D01*
Y248650D02*Y247650D01*
X181945Y249710D02*X183945D01*
X184445Y249210D01*
Y248210D01*
X183945Y247710D02*X184445Y248210D01*
X182445Y247710D02*X183945D01*
X182445Y249710D02*Y245710D01*
Y247710D02*X184445Y245710D01*
X185646Y247710D02*X187646Y249710D01*
X185646Y247710D02*X188146D01*
X187646Y249710D02*Y245710D01*
X189347Y249210D02*X189847Y249710D01*
X191347D01*
X191847Y249210D01*
Y248210D01*
X189347Y245710D02*X191847Y248210D01*
X189347Y245710D02*X191847D01*
X149900Y227900D02*Y224900D01*
Y227900D02*X150400Y228400D01*
X151400D01*
X151900Y227900D01*
Y224900D01*
X151400Y224400D02*X151900Y224900D01*
X150400Y224400D02*X151400D01*
X149900Y224900D02*X150400Y224400D01*
X150900Y225400D02*X151900Y224400D01*
X153601D02*X154601D01*
X154101Y228400D02*Y224400D01*
X153101Y227400D02*X154101Y228400D01*
X92992Y219280D02*Y217780D01*
X93492Y219780D02*X92992Y219280D01*
X93492Y219780D02*X96492D01*
X96992Y219280D01*
Y217780D01*
X93492Y216579D02*X96492D01*
X96992Y216079D01*
Y215079D01*
X96492Y214579D01*
X93492D02*X96492D01*
X92992Y215079D02*X93492Y214579D01*
X92992Y216079D02*Y215079D01*
X93492Y216579D02*X92992Y216079D01*
Y213378D02*X96992D01*
X96492D02*X96992D01*
X96492D02*X93992Y210878D01*
X92992D02*X96992D01*
X92992Y209677D02*X96992D01*
X96492D02*X96992D01*
X96492D02*X93992Y207177D01*
X92992D02*X96992D01*
X92992Y205976D02*X94992Y203976D01*
X96492D01*
X96992Y204476D02*X96492Y203976D01*
X96992Y205476D02*Y204476D01*
X96492Y205976D02*X96992Y205476D01*
X95492Y205976D02*X96492D01*
X95492D02*X94992Y205476D01*
Y203976D01*
X124894Y222276D02*X126394D01*
X124394Y222776D02*X124894Y222276D01*
X124394Y225776D02*Y222776D01*
Y225776D02*X124894Y226276D01*
X126394D01*
X127595Y225776D02*Y222776D01*
Y225776D02*X128095Y226276D01*
X129095D01*
X129595Y225776D01*
Y222776D01*
X129095Y222276D02*X129595Y222776D01*
X128095Y222276D02*X129095D01*
X127595Y222776D02*X128095Y222276D01*
X130796Y226276D02*Y222276D01*
Y226276D02*Y225776D01*
X133296Y223276D01*
Y226276D02*Y222276D01*
X134497Y226276D02*Y222276D01*
Y226276D02*Y225776D01*
X136997Y223276D01*
Y226276D02*Y222276D01*
X139698Y226276D02*X140198Y225776D01*
X138698Y226276D02*X139698D01*
X138198Y225776D02*X138698Y226276D01*
X138198Y225776D02*Y222776D01*
X138698Y222276D01*
X139698Y224276D02*X140198Y223776D01*
X138198Y224276D02*X139698D01*
X138698Y222276D02*X139698D01*
X140198Y222776D01*
Y223776D02*Y222776D01*
X147150Y219650D02*Y218150D01*
X147650Y220150D02*X147150Y219650D01*
X147650Y220150D02*X150650D01*
X151150Y219650D01*
Y218150D01*
Y215449D02*X150650Y214949D01*
X151150Y216449D02*Y215449D01*
X150650Y216949D02*X151150Y216449D01*
X147650Y216949D02*X150650D01*
X147650D02*X147150Y216449D01*
X149150Y215449D02*X148650Y214949D01*
X149150Y216949D02*Y215449D01*
X147150Y216449D02*Y215449D01*
X147650Y214949D01*
X148650D01*
X157850Y216850D02*Y214850D01*
Y216850D02*X158350Y217350D01*
X159350D01*
X159850Y216850D02*X159350Y217350D01*
X159850Y216850D02*Y215350D01*
X157850D02*X161850D01*
X159850D02*X161850Y217350D01*
X159850Y218551D02*X157850Y220551D01*
X159850Y221051D02*Y218551D01*
X157850Y220551D02*X161850D01*
Y223752D02*Y222752D01*
X157850Y223252D02*X161850D01*
X158850Y222252D02*X157850Y223252D01*
X185331Y239411D02*X186831D01*
X187331Y238911D02*X186831Y239411D01*
X187331Y238911D02*Y235911D01*
X186831Y235411D01*
X185331D02*X186831D01*
X182130D02*X184130D01*
Y237411D02*Y235411D01*
Y237411D02*X183630Y236911D01*
X182630D02*X183630D01*
X182630D02*X182130Y237411D01*
Y238911D02*Y237411D01*
X182630Y239411D02*X182130Y238911D01*
X182630Y239411D02*X183630D01*
X184130Y238911D02*X183630Y239411D01*
X164496Y248710D02*X165996D01*
X163996Y249210D02*X164496Y248710D01*
X163996Y252210D02*Y249210D01*
Y252210D02*X164496Y252710D01*
X165996D01*
X167197Y252210D02*X167697Y252710D01*
X169197D01*
X169697Y252210D01*
Y251210D01*
X167197Y248710D02*X169697Y251210D01*
X167197Y248710D02*X169697D01*
X170898Y252210D02*X171398Y252710D01*
X172398D01*
X172898Y252210D01*
Y249210D01*
X172398Y248710D02*X172898Y249210D01*
X171398Y248710D02*X172398D01*
X170898Y249210D02*X171398Y248710D01*
Y250710D02*X172898D01*
X144445Y244710D02*X145945D01*
X143945Y245210D02*X144445Y244710D01*
X143945Y248210D02*Y245210D01*
Y248210D02*X144445Y248710D01*
X145945D01*
X147146Y248210D02*X147646Y248710D01*
X149146D01*
X149646Y248210D01*
Y247210D01*
X147146Y244710D02*X149646Y247210D01*
X147146Y244710D02*X149646D01*
X150847Y248710D02*X152847D01*
X150847D02*Y246710D01*
X151347Y247210D01*
X152347D01*
X152847Y246710D01*
Y245210D01*
X152347Y244710D02*X152847Y245210D01*
X151347Y244710D02*X152347D01*
X150847Y245210D02*X151347Y244710D01*
X136988Y238103D02*X138488D01*
X136488Y238603D02*X136988Y238103D01*
X136488Y241603D02*Y238603D01*
Y241603D02*X136988Y242103D01*
X138488D01*
X139689Y241603D02*X140189Y242103D01*
X141689D01*
X142189Y241603D01*
Y240603D01*
X139689Y238103D02*X142189Y240603D01*
X139689Y238103D02*X142189D01*
X143390Y240103D02*X145390Y242103D01*
X143390Y240103D02*X145890D01*
X145390Y242103D02*Y238103D01*
X140482Y249135D02*X142482D01*
X140482D02*X139982Y249635D01*
Y250635D02*Y249635D01*
X140482Y251135D02*X139982Y250635D01*
X140482Y251135D02*X141982D01*
Y253135D02*Y249135D01*
Y251135D02*X139982Y253135D01*
X138781Y251135D02*X136781Y249135D01*
X136281Y251135D02*X138781D01*
X136781Y253135D02*Y249135D01*
X135080Y249635D02*X134580Y249135D01*
X133580D02*X134580D01*
X133580D02*X133080Y249635D01*
Y252635D02*Y249635D01*
X133580Y253135D02*X133080Y252635D01*
X133580Y253135D02*X134580D01*
X135080Y252635D02*X134580Y253135D01*
X133080Y251135D02*X134580D01*
X97000Y101000D02*Y99500D01*
X96500Y99000D02*X97000Y99500D01*
X93500Y99000D02*X96500D01*
X93500D02*X93000Y99500D01*
Y101000D02*Y99500D01*
X93500Y102201D02*X96500D01*
X93500D02*X93000Y102701D01*
Y103701D02*Y102701D01*
Y103701D02*X93500Y104201D01*
X96500D01*
X97000Y103701D02*X96500Y104201D01*
X97000Y103701D02*Y102701D01*
X96500Y102201D02*X97000Y102701D01*
X93000Y105402D02*X97000D01*
X93000D02*X93500D01*
X96000Y107902D01*
X93000D02*X97000D01*
X93000Y109103D02*X97000D01*
X93000D02*X93500D01*
X96000Y111603D01*
X93000D02*X97000D01*
X93000Y114804D02*Y112804D01*
X95000D01*
X94500Y113304D01*
Y114304D02*Y113304D01*
Y114304D02*X95000Y114804D01*
X96500D01*
X97000Y114304D02*X96500Y114804D01*
X97000Y114304D02*Y113304D01*
X96500Y112804D02*X97000Y113304D01*
X92850Y127850D02*Y125850D01*
Y127850D02*X93350Y128350D01*
X94350D01*
X94850Y127850D02*X94350Y128350D01*
X94850Y127850D02*Y126350D01*
X92850D02*X96850D01*
X94850D02*X96850Y128350D01*
X92850Y131551D02*Y129551D01*
X94850D01*
X94350Y130051D01*
Y131051D02*Y130051D01*
Y131051D02*X94850Y131551D01*
X96350D01*
X96850Y131051D02*X96350Y131551D01*
X96850Y131051D02*Y130051D01*
X96350Y129551D02*X96850Y130051D01*
X93350Y132752D02*X92850Y133252D01*
Y134752D02*Y133252D01*
Y134752D02*X93350Y135252D01*
X94350D01*
X96850Y132752D02*X94350Y135252D01*
X96850D02*Y132752D01*
X86850Y107850D02*Y105850D01*
Y107850D02*X87350Y108350D01*
X88350D01*
X88850Y107850D02*X88350Y108350D01*
X88850Y107850D02*Y106350D01*
X86850D02*X90850D01*
X88850D02*X90850Y108350D01*
X88850Y109551D02*X86850Y111551D01*
X88850Y112051D02*Y109551D01*
X86850Y111551D02*X90850D01*
X90350Y113252D02*X90850Y113752D01*
X87350Y113252D02*X90350D01*
X87350D02*X86850Y113752D01*
Y114752D02*Y113752D01*
Y114752D02*X87350Y115252D01*
X90350D01*
X90850Y114752D02*X90350Y115252D01*
X90850Y114752D02*Y113752D01*
X89850Y113252D02*X87850Y115252D01*
Y133850D02*Y131850D01*
Y133850D02*X88350Y134350D01*
X89350D01*
X89850Y133850D02*X89350Y134350D01*
X89850Y133850D02*Y132350D01*
X87850D02*X91850D01*
X89850D02*X91850Y134350D01*
X89850Y135551D02*X87850Y137551D01*
X89850Y138051D02*Y135551D01*
X87850Y137551D02*X91850D01*
Y139252D02*X89850Y141252D01*
X88350D02*X89850D01*
X87850Y140752D02*X88350Y141252D01*
X87850Y140752D02*Y139752D01*
X88350Y139252D02*X87850Y139752D01*
X88350Y139252D02*X89350D01*
X89850Y139752D01*
Y141252D02*Y139752D01*
X76095Y140560D02*X78095D01*
X78595Y140060D01*
Y139060D01*
X78095Y138560D02*X78595Y139060D01*
X76595Y138560D02*X78095D01*
X76595Y140560D02*Y136560D01*
Y138560D02*X78595Y136560D01*
X79796Y138560D02*X81796Y140560D01*
X79796Y138560D02*X82296D01*
X81796Y140560D02*Y136560D01*
X83497D02*X85997Y139060D01*
Y140560D02*Y139060D01*
X83497Y140560D02*X85997D01*
X68500Y148800D02*X72500D01*
Y147300D02*X72000Y146800D01*
X69000D02*X72000D01*
X68500Y147300D02*X69000Y146800D01*
X68500Y149300D02*Y147300D01*
X72500Y149300D02*Y147300D01*
X70500Y145599D02*X72500Y143599D01*
X70500Y145599D02*Y143099D01*
X68500Y143599D02*X72500D01*
X71095Y126560D02*Y124560D01*
Y126560D02*X71595Y127060D01*
X72595D01*
X73095Y126560D02*X72595Y127060D01*
X73095Y126560D02*Y125060D01*
X71095D02*X75095D01*
X73095D02*X75095Y127060D01*
X73095Y128261D02*X71095Y130261D01*
X73095Y130761D02*Y128261D01*
X71095Y130261D02*X75095D01*
X71095Y133462D02*X71595Y133962D01*
X71095Y133462D02*Y132462D01*
X71595Y131962D02*X71095Y132462D01*
X71595Y131962D02*X74595D01*
X75095Y132462D01*
X73095Y133462D02*X73595Y133962D01*
X73095Y133462D02*Y131962D01*
X75095Y133462D02*Y132462D01*
Y133462D02*X74595Y133962D01*
X73595D02*X74595D01*
X91850Y165850D02*Y163850D01*
Y165850D02*X92350Y166350D01*
X93350D01*
X93850Y165850D02*X93350Y166350D01*
X93850Y165850D02*Y164350D01*
X91850D02*X95850D01*
X93850D02*X95850Y166350D01*
X93850Y167551D02*X91850Y169551D01*
X93850Y170051D02*Y167551D01*
X91850Y169551D02*X95850D01*
X95350Y171252D02*X95850Y171752D01*
X94350Y171252D02*X95350D01*
X94350D02*X93850Y171752D01*
Y172752D02*Y171752D01*
Y172752D02*X94350Y173252D01*
X95350D01*
X95850Y172752D02*X95350Y173252D01*
X95850Y172752D02*Y171752D01*
X93350Y171252D02*X93850Y171752D01*
X92350Y171252D02*X93350D01*
X92350D02*X91850Y171752D01*
Y172752D02*Y171752D01*
Y172752D02*X92350Y173252D01*
X93350D01*
X93850Y172752D02*X93350Y173252D01*
X71737Y184151D02*Y182151D01*
X71237Y181651D01*
X70237D02*X71237D01*
X69737Y182151D02*X70237Y181651D01*
X69737Y183651D02*Y182151D01*
X67737Y183651D02*X71737D01*
X69737D02*X67737Y181651D01*
X71737Y180450D02*Y178450D01*
X69737Y180450D02*X71737D01*
X69737D02*X70237Y179950D01*
Y178950D01*
X69737Y178450D01*
X68237D02*X69737D01*
X67737Y178950D02*X68237Y178450D01*
X67737Y179950D02*Y178950D01*
X68237Y180450D02*X67737Y179950D01*
X68237Y177249D02*X67737Y176749D01*
X68237Y177249D02*X69237D01*
X69737Y176749D01*
Y175749D01*
X69237Y175249D01*
X68237D02*X69237D01*
X67737Y175749D02*X68237Y175249D01*
X67737Y176749D02*Y175749D01*
X70237Y177249D02*X69737Y176749D01*
X70237Y177249D02*X71237D01*
X71737Y176749D01*
Y175749D01*
X71237Y175249D01*
X70237D02*X71237D01*
X69737Y175749D02*X70237Y175249D01*
X79945Y161410D02*Y159410D01*
Y161410D02*X80445Y161910D01*
X81445D01*
X81945Y161410D02*X81445Y161910D01*
X81945Y161410D02*Y159910D01*
X79945D02*X83945D01*
X81945D02*X83945Y161910D01*
X80445Y163111D02*X79945Y163611D01*
Y164611D02*Y163611D01*
Y164611D02*X80445Y165111D01*
X83445D01*
X83945Y164611D02*X83445Y165111D01*
X83945Y164611D02*Y163611D01*
X83445Y163111D02*X83945Y163611D01*
X81945Y165111D02*Y163611D01*
X83945Y166312D02*X81445Y168812D01*
X79945D02*X81445D01*
X79945D02*Y166312D01*
X67945Y197710D02*X69945D01*
X70445Y197210D01*
Y196210D01*
X69945Y195710D02*X70445Y196210D01*
X68445Y195710D02*X69945D01*
X68445Y197710D02*Y193710D01*
Y195710D02*X70445Y193710D01*
X71646Y197710D02*X73646D01*
X71646D02*Y195710D01*
X72146Y196210D01*
X73146D01*
X73646Y195710D01*
Y194210D01*
X73146Y193710D02*X73646Y194210D01*
X72146Y193710D02*X73146D01*
X71646Y194210D02*X72146Y193710D01*
X74847D02*X77347Y196210D01*
Y197710D02*Y196210D01*
X74847Y197710D02*X77347D01*
X71095Y115560D02*Y113560D01*
Y115560D02*X71595Y116060D01*
X72595D01*
X73095Y115560D02*X72595Y116060D01*
X73095Y115560D02*Y114060D01*
X71095D02*X75095D01*
X73095D02*X75095Y116060D01*
X73095Y117261D02*X71095Y119261D01*
X73095Y119761D02*Y117261D01*
X71095Y119261D02*X75095D01*
X71095Y122962D02*Y120962D01*
X73095D01*
X72595Y121462D01*
Y122462D02*Y121462D01*
Y122462D02*X73095Y122962D01*
X74595D01*
X75095Y122462D02*X74595Y122962D01*
X75095Y122462D02*Y121462D01*
X74595Y120962D02*X75095Y121462D01*
Y112560D02*X77095D01*
X77595Y112060D01*
Y111060D01*
X77095Y110560D02*X77595Y111060D01*
X75595Y110560D02*X77095D01*
X75595Y112560D02*Y108560D01*
Y110560D02*X77595Y108560D01*
X78796Y110560D02*X80796Y112560D01*
X78796Y110560D02*X81296D01*
X80796Y112560D02*Y108560D01*
X82497Y110560D02*X84497Y112560D01*
X82497Y110560D02*X84997D01*
X84497Y112560D02*Y108560D01*
X92664Y97496D02*X94164D01*
X94664Y96996D02*X94164Y97496D01*
X94664Y96996D02*Y93996D01*
X94164Y93496D01*
X92664D02*X94164D01*
X91463Y93996D02*X90963Y93496D01*
X89463D02*X90963D01*
X89463D02*X88963Y93996D01*
Y94996D02*Y93996D01*
X91463Y97496D02*X88963Y94996D01*
Y97496D02*X91463D01*
X87762Y93996D02*X87262Y93496D01*
X85762D02*X87262D01*
X85762D02*X85262Y93996D01*
Y94996D02*Y93996D01*
X87762Y97496D02*X85262Y94996D01*
Y97496D02*X87762D01*
X122259Y128820D02*X122759Y128320D01*
X120759Y128820D02*X122259D01*
X120259Y128320D02*X120759Y128820D01*
X120259Y128320D02*Y127320D01*
X120759Y126820D01*
X122259D01*
X122759Y126320D01*
Y125320D01*
X122259Y124820D02*X122759Y125320D01*
X120759Y124820D02*X122259D01*
X120259Y125320D02*X120759Y124820D01*
X124460D02*X125460D01*
X124960Y128820D02*Y124820D01*
X123960Y127820D02*X124960Y128820D01*
X144192Y133118D02*Y131118D01*
Y133118D02*X144692Y133618D01*
X145692D01*
X146192Y133118D02*X145692Y133618D01*
X146192Y133118D02*Y131618D01*
X144192D02*X148192D01*
X146192D02*X148192Y133618D01*
X144692Y134819D02*X144192Y135319D01*
Y136319D02*Y135319D01*
Y136319D02*X144692Y136819D01*
X147692D01*
X148192Y136319D02*X147692Y136819D01*
X148192Y136319D02*Y135319D01*
X147692Y134819D02*X148192Y135319D01*
X146192Y136819D02*Y135319D01*
X144692Y138020D02*X144192Y138520D01*
Y140020D02*Y138520D01*
Y140020D02*X144692Y140520D01*
X145692D01*
X148192Y138020D02*X145692Y140520D01*
X148192D02*Y138020D01*
X134599Y129952D02*X136599D01*
X134599D02*X134099Y130452D01*
Y131452D02*Y130452D01*
X134599Y131952D02*X134099Y131452D01*
X134599Y131952D02*X136099D01*
Y133952D02*Y129952D01*
Y131952D02*X134099Y133952D01*
X132898Y130452D02*X132398Y129952D01*
X131398D02*X132398D01*
X131398D02*X130898Y130452D01*
Y133452D02*Y130452D01*
X131398Y133952D02*X130898Y133452D01*
X131398Y133952D02*X132398D01*
X132898Y133452D02*X132398Y133952D01*
X130898Y131952D02*X132398D01*
X128197Y133952D02*X129197D01*
X128697D02*Y129952D01*
X129697Y130952D02*X128697Y129952D01*
X178165Y128818D02*X178665Y128318D01*
X176665Y128818D02*X178165D01*
X176165Y128318D02*X176665Y128818D01*
X176165Y128318D02*Y127318D01*
X176665Y126818D01*
X178165D01*
X178665Y126318D01*
Y125318D01*
X178165Y124818D02*X178665Y125318D01*
X176665Y124818D02*X178165D01*
X176165Y125318D02*X176665Y124818D01*
X179866Y128318D02*X180366Y128818D01*
X181366D01*
X181866Y128318D01*
Y125318D01*
X181366Y124818D02*X181866Y125318D01*
X180366Y124818D02*X181366D01*
X179866Y125318D02*X180366Y124818D01*
Y126818D02*X181866D01*
X165095Y137251D02*X167095D01*
X165095D02*X164595Y137751D01*
Y138751D02*Y137751D01*
X165095Y139251D02*X164595Y138751D01*
X165095Y139251D02*X166595D01*
Y141251D02*Y137251D01*
Y139251D02*X164595Y141251D01*
X163394Y137751D02*X162894Y137251D01*
X161394D02*X162894D01*
X161394D02*X160894Y137751D01*
Y138751D02*Y137751D01*
X163394Y141251D02*X160894Y138751D01*
Y141251D02*X163394D01*
X159693D02*X157693Y139251D01*
Y137751D01*
X158193Y137251D02*X157693Y137751D01*
X158193Y137251D02*X159193D01*
X159693Y137751D02*X159193Y137251D01*
X159693Y138751D02*Y137751D01*
Y138751D02*X159193Y139251D01*
X157693D02*X159193D01*
X169244Y129952D02*X171244D01*
X169244D02*X168744Y130452D01*
Y131452D02*Y130452D01*
X169244Y131952D02*X168744Y131452D01*
X169244Y131952D02*X170744D01*
Y133952D02*Y129952D01*
Y131952D02*X168744Y133952D01*
X167543Y130452D02*X167043Y129952D01*
X166043D02*X167043D01*
X166043D02*X165543Y130452D01*
Y133452D02*Y130452D01*
X166043Y133952D02*X165543Y133452D01*
X166043Y133952D02*X167043D01*
X167543Y133452D02*X167043Y133952D01*
X165543Y131952D02*X167043D01*
X164342Y133452D02*X163842Y133952D01*
X164342Y133452D02*Y130452D01*
X163842Y129952D01*
X162842D02*X163842D01*
X162842D02*X162342Y130452D01*
Y133452D02*Y130452D01*
X162842Y133952D02*X162342Y133452D01*
X162842Y133952D02*X163842D01*
X164342Y132952D02*X162342Y130952D01*
X150212Y128819D02*X150712Y128319D01*
X148712Y128819D02*X150212D01*
X148212Y128319D02*X148712Y128819D01*
X148212Y128319D02*Y127319D01*
X148712Y126819D01*
X150212D01*
X150712Y126319D01*
Y125319D01*
X150212Y124819D02*X150712Y125319D01*
X148712Y124819D02*X150212D01*
X148212Y125319D02*X148712Y124819D01*
X151913Y128319D02*X152413Y128819D01*
X153913D01*
X154413Y128319D01*
Y127319D01*
X151913Y124819D02*X154413Y127319D01*
X151913Y124819D02*X154413D01*
X192475Y114055D02*Y112055D01*
Y114055D02*X192975Y114555D01*
X193975D01*
X194475Y114055D02*X193975Y114555D01*
X194475Y114055D02*Y112555D01*
X192475D02*X196475D01*
X194475D02*X196475Y114555D01*
X192975Y115756D02*X192475Y116256D01*
Y117256D02*Y116256D01*
Y117256D02*X192975Y117756D01*
X195975D01*
X196475Y117256D02*X195975Y117756D01*
X196475Y117256D02*Y116256D01*
X195975Y115756D02*X196475Y116256D01*
X194475Y117756D02*Y116256D01*
Y118957D02*X192475Y120957D01*
X194475Y121457D02*Y118957D01*
X192475Y120957D02*X196475D01*
X192520Y129432D02*X194020D01*
X192020Y129932D02*X192520Y129432D01*
X192020Y132932D02*Y129932D01*
Y132932D02*X192520Y133432D01*
X194020D01*
X195221Y131432D02*X197221Y133432D01*
X195221Y131432D02*X197721D01*
X197221Y133432D02*Y129432D01*
X183933Y169130D02*X185433D01*
X183433Y169630D02*X183933Y169130D01*
X183433Y172630D02*Y169630D01*
Y172630D02*X183933Y173130D01*
X185433D01*
X187134Y169130D02*X188134D01*
X187634Y173130D02*Y169130D01*
X186634Y172130D02*X187634Y173130D01*
X189335Y169630D02*X189835Y169130D01*
X189335Y170630D02*Y169630D01*
Y170630D02*X189835Y171130D01*
X190835D01*
X191335Y170630D01*
Y169630D01*
X190835Y169130D02*X191335Y169630D01*
X189835Y169130D02*X190835D01*
X189335Y171630D02*X189835Y171130D01*
X189335Y172630D02*Y171630D01*
Y172630D02*X189835Y173130D01*
X190835D01*
X191335Y172630D01*
Y171630D01*
X190835Y171130D02*X191335Y171630D01*
X199127Y183635D02*Y180135D01*
X199627Y179635D01*
X200627D01*
X201127Y180135D01*
Y183635D02*Y180135D01*
X203828Y183635D02*X204328Y183135D01*
X202828Y183635D02*X203828D01*
X202328Y183135D02*X202828Y183635D01*
X202328Y183135D02*Y180135D01*
X202828Y179635D01*
X203828Y181635D02*X204328Y181135D01*
X202328Y181635D02*X203828D01*
X202828Y179635D02*X203828D01*
X204328Y180135D01*
Y181135D02*Y180135D01*
X204034Y172094D02*Y170094D01*
Y172094D02*X204534Y172594D01*
X205534D01*
X206034Y172094D02*X205534Y172594D01*
X206034Y172094D02*Y170594D01*
X204034D02*X208034D01*
X206034D02*X208034Y172594D01*
X204534Y173795D02*X204034Y174295D01*
Y175795D02*Y174295D01*
Y175795D02*X204534Y176295D01*
X205534D01*
X208034Y173795D02*X205534Y176295D01*
X208034D02*Y173795D01*
Y177496D02*X205534Y179996D01*
X204034D02*X205534D01*
X204034D02*Y177496D01*
X192505Y176559D02*X194505D01*
X195005Y176059D01*
Y175059D01*
X194505Y174559D02*X195005Y175059D01*
X193005Y174559D02*X194505D01*
X193005Y176559D02*Y172559D01*
Y174559D02*X195005Y172559D01*
X196206Y176059D02*X196706Y176559D01*
X198206D01*
X198706Y176059D01*
Y175059D01*
X196206Y172559D02*X198706Y175059D01*
X196206Y172559D02*X198706D01*
X199907Y176059D02*X200407Y176559D01*
X201907D01*
X202407Y176059D01*
Y175059D01*
X199907Y172559D02*X202407Y175059D01*
X199907Y172559D02*X202407D01*
X188780Y238039D02*Y236039D01*
Y238039D02*X189280Y238539D01*
X190280D01*
X190780Y238039D02*X190280Y238539D01*
X190780Y238039D02*Y236539D01*
X188780D02*X192780D01*
X190780D02*X192780Y238539D01*
Y241240D02*Y240240D01*
X188780Y240740D02*X192780D01*
X189780Y239740D02*X188780Y240740D01*
Y243941D02*X189280Y244441D01*
X188780Y243941D02*Y242941D01*
X189280Y242441D02*X188780Y242941D01*
X189280Y242441D02*X192280D01*
X192780Y242941D01*
X190780Y243941D02*X191280Y244441D01*
X190780Y243941D02*Y242441D01*
X192780Y243941D02*Y242941D01*
Y243941D02*X192280Y244441D01*
X191280D02*X192280D01*
X209629Y234548D02*X211629D01*
X212129Y234048D01*
Y233048D01*
X211629Y232548D02*X212129Y233048D01*
X210129Y232548D02*X211629D01*
X210129Y234548D02*Y230548D01*
Y232548D02*X212129Y230548D01*
X213830D02*X214830D01*
X214330Y234548D02*Y230548D01*
X213330Y233548D02*X214330Y234548D01*
X216031Y230548D02*X218531Y233048D01*
Y234548D02*Y233048D01*
X216031Y234548D02*X218531D01*
X224224Y247551D02*X225724D01*
X223724Y248051D02*X224224Y247551D01*
X223724Y251051D02*Y248051D01*
Y251051D02*X224224Y251551D01*
X225724D01*
X226925Y251051D02*Y248051D01*
Y251051D02*X227425Y251551D01*
X228425D01*
X228925Y251051D01*
Y248051D01*
X228425Y247551D02*X228925Y248051D01*
X227425Y247551D02*X228425D01*
X226925Y248051D02*X227425Y247551D01*
X230126Y251551D02*Y247551D01*
Y251551D02*Y251051D01*
X232626Y248551D01*
Y251551D02*Y247551D01*
X233827Y251551D02*Y247551D01*
Y251551D02*Y251051D01*
X236327Y248551D01*
Y251551D02*Y247551D01*
X237528D02*X240028Y250051D01*
Y251551D02*Y250051D01*
X237528Y251551D02*X240028D01*
X261598Y177265D02*X263598D01*
X264098Y176765D01*
Y175765D01*
X263598Y175265D02*X264098Y175765D01*
X262098Y175265D02*X263598D01*
X262098Y177265D02*Y173265D01*
Y175265D02*X264098Y173265D01*
X265299Y175265D02*X267299Y177265D01*
X265299Y175265D02*X267799D01*
X267299Y177265D02*Y173265D01*
X257563Y137567D02*X259063D01*
X257063Y138067D02*X257563Y137567D01*
X257063Y141067D02*Y138067D01*
Y141067D02*X257563Y141567D01*
X259063D01*
X260264Y141067D02*X260764Y141567D01*
X262264D01*
X262764Y141067D01*
Y140067D01*
X260264Y137567D02*X262764Y140067D01*
X260264Y137567D02*X262764D01*
X262780Y171654D02*X264780D01*
X265280Y171154D01*
Y170154D01*
X264780Y169654D02*X265280Y170154D01*
X263280Y169654D02*X264780D01*
X263280Y171654D02*Y167654D01*
Y169654D02*X265280Y167654D01*
X266481Y171154D02*X266981Y171654D01*
X268481D01*
X268981Y171154D01*
Y170154D01*
X266481Y167654D02*X268981Y170154D01*
X266481Y167654D02*X268981D01*
X270682D02*X271682D01*
X271182Y171654D02*Y167654D01*
X270182Y170654D02*X271182Y171654D01*
X259342Y142062D02*X260842D01*
X258842Y142562D02*X259342Y142062D01*
X258842Y145562D02*Y142562D01*
Y145562D02*X259342Y146062D01*
X260842D01*
X262043Y145562D02*Y142562D01*
Y145562D02*X262543Y146062D01*
X263543D01*
X264043Y145562D01*
Y142562D01*
X263543Y142062D02*X264043Y142562D01*
X262543Y142062D02*X263543D01*
X262043Y142562D02*X262543Y142062D01*
X265244Y146062D02*Y142062D01*
Y146062D02*Y145562D01*
X267744Y143062D01*
Y146062D02*Y142062D01*
X268945Y146062D02*Y142062D01*
Y146062D02*Y145562D01*
X271445Y143062D01*
Y146062D02*Y142062D01*
X272646Y145562D02*X273146Y146062D01*
X274646D01*
X275146Y145562D01*
Y144562D01*
X272646Y142062D02*X275146Y144562D01*
X272646Y142062D02*X275146D01*
X268684Y177266D02*X270684D01*
X271184Y176766D01*
Y175766D01*
X270684Y175266D02*X271184Y175766D01*
X269184Y175266D02*X270684D01*
X269184Y177266D02*Y173266D01*
Y175266D02*X271184Y173266D01*
X272385D02*X274885Y175766D01*
Y177266D02*Y175766D01*
X272385Y177266D02*X274885D01*
X267810Y157025D02*X269310D01*
X267310Y157525D02*X267810Y157025D01*
X267310Y160525D02*Y157525D01*
Y160525D02*X267810Y161025D01*
X269310D01*
X271011Y157025D02*X272011D01*
X271511Y161025D02*Y157025D01*
X270511Y160025D02*X271511Y161025D01*
X273212Y157025D02*X275712Y159525D01*
Y161025D02*Y159525D01*
X273212Y161025D02*X275712D01*
X267261Y153747D02*X270761D01*
X267261D02*X266761Y153247D01*
Y152247D01*
X267261Y151747D01*
X270761D01*
X266761Y150546D02*X269261Y148046D01*
X270761D01*
Y150546D02*Y148046D01*
X280725Y107705D02*X284225D01*
X284725Y108205D01*
Y109205D02*Y108205D01*
Y109205D02*X284225Y109705D01*
X280725D02*X284225D01*
X284725Y112406D02*Y111406D01*
X280725Y111906D02*X284725D01*
X281725Y110906D02*X280725Y111906D01*
X299292Y156288D02*Y154788D01*
X299792Y156788D02*X299292Y156288D01*
X299792Y156788D02*X302792D01*
X303292Y156288D01*
Y154788D01*
X299792Y153587D02*X302792D01*
X303292Y153087D01*
Y152087D01*
X302792Y151587D01*
X299792D02*X302792D01*
X299292Y152087D02*X299792Y151587D01*
X299292Y153087D02*Y152087D01*
X299792Y153587D02*X299292Y153087D01*
Y150386D02*X303292D01*
X302792D02*X303292D01*
X302792D02*X300292Y147886D01*
X299292D02*X303292D01*
X299292Y146685D02*X303292D01*
X302792D02*X303292D01*
X302792D02*X300292Y144185D01*
X299292D02*X303292D01*
X302792Y142984D02*X303292Y142484D01*
Y141484D01*
X302792Y140984D01*
X299792D02*X302792D01*
X299292Y141484D02*X299792Y140984D01*
X299292Y142484D02*Y141484D01*
X299792Y142984D02*X299292Y142484D01*
X301292D02*Y140984D01*
X287315Y112405D02*Y108405D01*
X289315D01*
X291016D02*X292016D01*
X291516Y112405D02*Y108405D01*
X290516Y111405D02*X291516Y112405D01*
X280525Y105705D02*Y101705D01*
X282025Y105705D02*X282525Y105205D01*
Y102205D01*
X282025Y101705D02*X282525Y102205D01*
X280025Y101705D02*X282025D01*
X280025Y105705D02*X282025D01*
X283726Y105205D02*X284226Y105705D01*
X285726D01*
X286226Y105205D01*
Y104205D01*
X283726Y101705D02*X286226Y104205D01*
X283726Y101705D02*X286226D01*
X289156Y207973D02*X291156D01*
X291656Y207473D01*
Y206473D01*
X291156Y205973D02*X291656Y206473D01*
X289656Y205973D02*X291156D01*
X289656Y207973D02*Y203973D01*
Y205973D02*X291656Y203973D01*
X293357D02*X294357D01*
X293857Y207973D02*Y203973D01*
X292857Y206973D02*X293857Y207973D01*
X296058Y203973D02*X297058D01*
X296558Y207973D02*Y203973D01*
X295558Y206973D02*X296558Y207973D01*
X273690Y201986D02*Y199986D01*
X273190Y199486D01*
X272190D02*X273190D01*
X271690Y199986D02*X272190Y199486D01*
X271690Y201486D02*Y199986D01*
X269690Y201486D02*X273690D01*
X271690D02*X269690Y199486D01*
X270190Y198285D02*X269690Y197785D01*
X270190Y198285D02*X271190D01*
X271690Y197785D01*
Y196785D01*
X271190Y196285D01*
X270190D02*X271190D01*
X269690Y196785D02*X270190Y196285D01*
X269690Y197785D02*Y196785D01*
X272190Y198285D02*X271690Y197785D01*
X272190Y198285D02*X273190D01*
X273690Y197785D01*
Y196785D01*
X273190Y196285D01*
X272190D02*X273190D01*
X271690Y196785D02*X272190Y196285D01*
X278331Y207483D02*X280331D01*
X280831Y206983D01*
Y205983D01*
X280331Y205483D02*X280831Y205983D01*
X278831Y205483D02*X280331D01*
X278831Y207483D02*Y203483D01*
Y205483D02*X280831Y203483D01*
X282032D02*X284032Y205483D01*
Y206983D02*Y205483D01*
X283532Y207483D02*X284032Y206983D01*
X282532Y207483D02*X283532D01*
X282032Y206983D02*X282532Y207483D01*
X282032Y206983D02*Y205983D01*
X282532Y205483D01*
X284032D01*
X278921Y201676D02*X280921D01*
X281421Y201176D01*
Y200176D01*
X280921Y199676D02*X281421Y200176D01*
X279421Y199676D02*X280921D01*
X279421Y201676D02*Y197676D01*
Y199676D02*X281421Y197676D01*
X283122D02*X284122D01*
X283622Y201676D02*Y197676D01*
X282622Y200676D02*X283622Y201676D01*
X285323Y201176D02*X285823Y201676D01*
X286823D01*
X287323Y201176D01*
Y198176D01*
X286823Y197676D02*X287323Y198176D01*
X285823Y197676D02*X286823D01*
X285323Y198176D02*X285823Y197676D01*
Y199676D02*X287323D01*
X266735Y248067D02*X268235D01*
X266235Y248567D02*X266735Y248067D01*
X266235Y251567D02*Y248567D01*
Y251567D02*X266735Y252067D01*
X268235D01*
X269936Y248067D02*X270936D01*
X270436Y252067D02*Y248067D01*
X269436Y251067D02*X270436Y252067D01*
X272637Y248067D02*X273637D01*
X273137Y252067D02*Y248067D01*
X272137Y251067D02*X273137Y252067D01*
X240473Y248764D02*Y245264D01*
X240973Y244764D01*
X241973D01*
X242473Y245264D01*
Y248764D02*Y245264D01*
X243674Y248264D02*X244174Y248764D01*
X245174D01*
X245674Y248264D01*
Y245264D01*
X245174Y244764D02*X245674Y245264D01*
X244174Y244764D02*X245174D01*
X243674Y245264D02*X244174Y244764D01*
Y246764D02*X245674D01*
X240451Y239522D02*Y237022D01*
Y239522D02*X240951D01*
X243451Y237022D02*X240951Y239522D01*
X243451Y237022D02*X244451D01*
Y239522D02*Y237022D01*
Y240723D02*X241951Y243223D01*
X240451D02*X241951D01*
X240451D02*Y240723D01*
X276240Y237815D02*X277740D01*
X275740Y238315D02*X276240Y237815D01*
X275740Y241315D02*Y238315D01*
Y241315D02*X276240Y241815D01*
X277740D01*
X279441Y237815D02*X280441D01*
X279941Y241815D02*Y237815D01*
X278941Y240815D02*X279941Y241815D01*
X281642Y241315D02*X282142Y241815D01*
X283642D01*
X284142Y241315D01*
Y240315D01*
X281642Y237815D02*X284142Y240315D01*
X281642Y237815D02*X284142D01*
X288764Y213093D02*X290764D01*
X291264Y212593D01*
Y211593D01*
X290764Y211093D02*X291264Y211593D01*
X289264Y211093D02*X290764D01*
X289264Y213093D02*Y209093D01*
Y211093D02*X291264Y209093D01*
X292965D02*X293965D01*
X293465Y213093D02*Y209093D01*
X292465Y212093D02*X293465Y213093D01*
X295166Y212593D02*X295666Y213093D01*
X297166D01*
X297666Y212593D01*
Y211593D01*
X295166Y209093D02*X297666Y211593D01*
X295166Y209093D02*X297666D01*
X302823Y185056D02*Y183056D01*
X302323Y182556D01*
X301323D02*X302323D01*
X300823Y183056D02*X301323Y182556D01*
X300823Y184556D02*Y183056D01*
X298823Y184556D02*X302823D01*
X300823D02*X298823Y182556D01*
Y180855D02*Y179855D01*
Y180355D02*X302823D01*
X301823Y181355D02*X302823Y180355D01*
X299323Y178654D02*X298823Y178154D01*
X299323Y178654D02*X302323D01*
X302823Y178154D01*
Y177154D01*
X302323Y176654D01*
X299323D02*X302323D01*
X298823Y177154D02*X299323Y176654D01*
X298823Y178154D02*Y177154D01*
X299823Y178654D02*X301823Y176654D01*
X260790Y209497D02*Y207997D01*
X260290Y207497D02*X260790Y207997D01*
X257290Y207497D02*X260290D01*
X257290D02*X256790Y207997D01*
Y209497D02*Y207997D01*
X260790Y212198D02*Y211198D01*
X256790Y211698D02*X260790D01*
X257790Y210698D02*X256790Y211698D01*
X258790Y213399D02*X256790Y215399D01*
X258790Y215899D02*Y213399D01*
X256790Y215399D02*X260790D01*
X278330Y212994D02*X280330D01*
X280830Y212494D01*
Y211494D01*
X280330Y210994D02*X280830Y211494D01*
X278830Y210994D02*X280330D01*
X278830Y212994D02*Y208994D01*
Y210994D02*X280830Y208994D01*
X282531D02*X283531D01*
X283031Y212994D02*Y208994D01*
X282031Y211994D02*X283031Y212994D01*
X284732Y210994D02*X286732Y212994D01*
X284732Y210994D02*X287232D01*
X286732Y212994D02*Y208994D01*
X280216Y223867D02*X283716D01*
X280216D02*X279716Y223367D01*
Y222367D01*
X280216Y221867D01*
X283716D01*
X281716Y220666D02*X283716Y218666D01*
X281716Y220666D02*Y218166D01*
X279716Y218666D02*X283716D01*
X257070Y187795D02*Y184295D01*
X257570Y183795D01*
X258570D01*
X259070Y184295D01*
Y187795D02*Y184295D01*
X260271Y187295D02*X260771Y187795D01*
X262271D01*
X262771Y187295D01*
Y186295D01*
X260271Y183795D02*X262771Y186295D01*
X260271Y183795D02*X262771D01*
X267390Y203561D02*Y201561D01*
X266890Y201061D01*
X265890D02*X266890D01*
X265390Y201561D02*X265890Y201061D01*
X265390Y203061D02*Y201561D01*
X263390Y203061D02*X267390D01*
X265390D02*X263390Y201061D01*
Y199360D02*Y198360D01*
Y198860D02*X267390D01*
X266390Y199860D02*X267390Y198860D01*
Y197159D02*Y195159D01*
X265390Y197159D02*X267390D01*
X265390D02*X265890Y196659D01*
Y195659D01*
X265390Y195159D01*
X263890D02*X265390D01*
X263390Y195659D02*X263890Y195159D01*
X263390Y196659D02*Y195659D01*
X263890Y197159D02*X263390Y196659D01*
X221048Y156595D02*X223048D01*
X223548Y156095D01*
Y155095D01*
X223048Y154595D02*X223548Y155095D01*
X221548Y154595D02*X223048D01*
X221548Y156595D02*Y152595D01*
Y154595D02*X223548Y152595D01*
X224749Y156095D02*X225249Y156595D01*
X226749D01*
X227249Y156095D01*
Y155095D01*
X224749Y152595D02*X227249Y155095D01*
X224749Y152595D02*X227249D01*
X229950Y156595D02*X230450Y156095D01*
X228950Y156595D02*X229950D01*
X228450Y156095D02*X228950Y156595D01*
X228450Y156095D02*Y153095D01*
X228950Y152595D01*
X229950Y154595D02*X230450Y154095D01*
X228450Y154595D02*X229950D01*
X228950Y152595D02*X229950D01*
X230450Y153095D01*
Y154095D02*Y153095D01*
X232738Y125705D02*Y121705D01*
X234238Y125705D02*X234738Y125205D01*
Y122205D01*
X234238Y121705D02*X234738Y122205D01*
X232238Y121705D02*X234238D01*
X232238Y125705D02*X234238D01*
X236439Y121705D02*X237439D01*
X236939Y125705D02*Y121705D01*
X235939Y124705D02*X236939Y125705D01*
X225625Y144419D02*Y140419D01*
X225125Y144419D02*X227125D01*
X227625Y143919D01*
Y142919D01*
X227125Y142419D02*X227625Y142919D01*
X225625Y142419D02*X227125D01*
X228826Y144419D02*X230826D01*
X229826D02*Y140419D01*
X232527D02*X234027D01*
X232027Y140919D02*X232527Y140419D01*
X232027Y143919D02*Y140919D01*
Y143919D02*X232527Y144419D01*
X234027D01*
X235728Y140419D02*X236728D01*
X236228Y144419D02*Y140419D01*
X235228Y143419D02*X236228Y144419D01*
X245342Y120642D02*Y118642D01*
Y120642D02*X245842Y121142D01*
X246842D01*
X247342Y120642D02*X246842Y121142D01*
X247342Y120642D02*Y119142D01*
X245342D02*X249342D01*
X247342D02*X249342Y121142D01*
X245842Y122343D02*X245342Y122843D01*
Y124343D02*Y122843D01*
Y124343D02*X245842Y124843D01*
X246842D01*
X249342Y122343D02*X246842Y124843D01*
X249342D02*Y122343D01*
X239828Y146065D02*X241828D01*
X242328Y145565D01*
Y144565D01*
X241828Y144065D02*X242328Y144565D01*
X240328Y144065D02*X241828D01*
X240328Y146065D02*Y142065D01*
Y144065D02*X242328Y142065D01*
X243529Y145565D02*X244029Y146065D01*
X245529D01*
X246029Y145565D01*
Y144565D01*
X243529Y142065D02*X246029Y144565D01*
X243529Y142065D02*X246029D01*
X247230Y142565D02*X247730Y142065D01*
X247230Y145565D02*Y142565D01*
Y145565D02*X247730Y146065D01*
X248730D01*
X249230Y145565D01*
Y142565D01*
X248730Y142065D02*X249230Y142565D01*
X247730Y142065D02*X248730D01*
X247230Y143065D02*X249230Y145065D01*
X251129Y134943D02*X255129D01*
X251129Y136443D02*X251629Y136943D01*
X254629D01*
X255129Y136443D02*X254629Y136943D01*
X255129Y136443D02*Y134443D01*
X251129Y136443D02*Y134443D01*
X251629Y138144D02*X251129Y138644D01*
Y139644D02*Y138644D01*
Y139644D02*X251629Y140144D01*
X254629D01*
X255129Y139644D02*X254629Y140144D01*
X255129Y139644D02*Y138644D01*
X254629Y138144D02*X255129Y138644D01*
X253129Y140144D02*Y138644D01*
X256668Y128598D02*Y127098D01*
X256168Y126598D02*X256668Y127098D01*
X253168Y126598D02*X256168D01*
X253168D02*X252668Y127098D01*
Y128598D02*Y127098D01*
X253168Y129799D02*X252668Y130299D01*
Y131299D02*Y130299D01*
Y131299D02*X253168Y131799D01*
X256168D01*
X256668Y131299D02*X256168Y131799D01*
X256668Y131299D02*Y130299D01*
X256168Y129799D02*X256668Y130299D01*
X254668Y131799D02*Y130299D01*
X238749Y156513D02*Y154513D01*
X238249Y154013D01*
X237249D02*X238249D01*
X236749Y154513D02*X237249Y154013D01*
X236749Y156013D02*Y154513D01*
X234749Y156013D02*X238749D01*
X236749D02*X234749Y154013D01*
X238249Y152812D02*X238749Y152312D01*
Y150812D01*
X238249Y150312D01*
X237249D02*X238249D01*
X234749Y152812D02*X237249Y150312D01*
X234749Y152812D02*Y150312D01*
X235249Y149111D02*X234749Y148611D01*
X235249Y149111D02*X236249D01*
X236749Y148611D01*
Y147611D01*
X236249Y147111D01*
X235249D02*X236249D01*
X234749Y147611D02*X235249Y147111D01*
X234749Y148611D02*Y147611D01*
X237249Y149111D02*X236749Y148611D01*
X237249Y149111D02*X238249D01*
X238749Y148611D01*
Y147611D01*
X238249Y147111D01*
X237249D02*X238249D01*
X236749Y147611D02*X237249Y147111D01*
X223602Y93930D02*X225102D01*
X223102Y94430D02*X223602Y93930D01*
X223102Y97430D02*Y94430D01*
Y97430D02*X223602Y97930D01*
X225102D01*
X226303Y97430D02*Y94430D01*
Y97430D02*X226803Y97930D01*
X227803D01*
X228303Y97430D01*
Y94430D01*
X227803Y93930D02*X228303Y94430D01*
X226803Y93930D02*X227803D01*
X226303Y94430D02*X226803Y93930D01*
X229504Y97930D02*Y93930D01*
Y97930D02*Y97430D01*
X232004Y94930D01*
Y97930D02*Y93930D01*
X233205Y97930D02*Y93930D01*
Y97930D02*Y97430D01*
X235705Y94930D01*
Y97930D02*Y93930D01*
X237406D02*X238406D01*
X237906Y97930D02*Y93930D01*
X236906Y96930D02*X237906Y97930D01*
X209925Y113705D02*X213925D01*
X209925D02*Y111705D01*
X211925Y110504D02*Y109004D01*
X209925Y110504D02*Y108504D01*
Y110504D02*X213925D01*
Y108504D01*
X209925Y106803D02*X213925D01*
Y105303D02*X213425Y104803D01*
X210425D02*X213425D01*
X209925Y105303D02*X210425Y104803D01*
X209925Y107303D02*Y105303D01*
X213925Y107303D02*Y105303D01*
X209925Y103102D02*Y102102D01*
Y102602D02*X213925D01*
X212925Y103602D02*X213925Y102602D01*
X197843Y112313D02*X199843D01*
X200343Y111813D01*
Y110813D01*
X199843Y110313D02*X200343Y110813D01*
X198343Y110313D02*X199843D01*
X198343Y112313D02*Y108313D01*
Y110313D02*X200343Y108313D01*
X201544Y111813D02*X202044Y112313D01*
X203044D01*
X203544Y111813D01*
Y108813D01*
X203044Y108313D02*X203544Y108813D01*
X202044Y108313D02*X203044D01*
X201544Y108813D02*X202044Y108313D01*
Y110313D02*X203544D01*
X204745Y112313D02*X206745D01*
X204745D02*Y110313D01*
X205245Y110813D01*
X206245D01*
X206745Y110313D01*
Y108813D01*
X206245Y108313D02*X206745Y108813D01*
X205245Y108313D02*X206245D01*
X204745Y108813D02*X205245Y108313D01*
X203019Y124300D02*Y122300D01*
Y124300D02*X203519Y124800D01*
X204519D01*
X205019Y124300D02*X204519Y124800D01*
X205019Y124300D02*Y122800D01*
X203019D02*X207019D01*
X205019D02*X207019Y124800D01*
X203519Y126001D02*X203019Y126501D01*
Y127501D02*Y126501D01*
Y127501D02*X203519Y128001D01*
X206519D01*
X207019Y127501D02*X206519Y128001D01*
X207019Y127501D02*Y126501D01*
X206519Y126001D02*X207019Y126501D01*
X205019Y128001D02*Y126501D01*
X210106Y142092D02*X212606D01*
Y141592D01*
X210106Y139092D02*X212606Y141592D01*
X210106Y139092D02*Y138092D01*
X212606D01*
X214307D02*X215307D01*
X214807Y142092D02*Y138092D01*
X213807Y141092D02*X214807Y142092D01*
X243987Y95544D02*X245487D01*
X243487Y96044D02*X243987Y95544D01*
X243487Y99044D02*Y96044D01*
Y99044D02*X243987Y99544D01*
X245487D01*
X247188Y95544D02*X248188D01*
X247688Y99544D02*Y95544D01*
X246688Y98544D02*X247688Y99544D01*
X249834Y101910D02*X251834D01*
X252334Y101410D01*
Y100410D01*
X251834Y99910D02*X252334Y100410D01*
X250334Y99910D02*X251834D01*
X250334Y101910D02*Y97910D01*
Y99910D02*X252334Y97910D01*
X254035D02*X255035D01*
X254535Y101910D02*Y97910D01*
X253535Y100910D02*X254535Y101910D01*
X253438Y219331D02*X254938D01*
X252938Y219831D02*X253438Y219331D01*
X252938Y222831D02*Y219831D01*
Y222831D02*X253438Y223331D01*
X254938D01*
X256639Y219331D02*X257639D01*
X257139Y223331D02*Y219331D01*
X256139Y222331D02*X257139Y223331D01*
X258840Y222831D02*X259340Y223331D01*
X260340D01*
X260840Y222831D01*
Y219831D01*
X260340Y219331D02*X260840Y219831D01*
X259340Y219331D02*X260340D01*
X258840Y219831D02*X259340Y219331D01*
Y221331D02*X260840D01*
X207062Y223363D02*X208562D01*
X209062Y222863D02*X208562Y223363D01*
X209062Y222863D02*Y219863D01*
X208562Y219363D01*
X207062D02*X208562D01*
X205861Y222863D02*Y219863D01*
X205361Y219363D01*
X204361D02*X205361D01*
X204361D02*X203861Y219863D01*
Y222863D02*Y219863D01*
X204361Y223363D02*X203861Y222863D01*
X204361Y223363D02*X205361D01*
X205861Y222863D02*X205361Y223363D01*
X202660D02*Y219363D01*
Y219863D02*Y219363D01*
Y219863D02*X200160Y222363D01*
Y223363D02*Y219363D01*
X198959Y223363D02*Y219363D01*
Y219863D02*Y219363D01*
Y219863D02*X196459Y222363D01*
Y223363D02*Y219363D01*
X195258Y221363D02*X193258Y219363D01*
X192758Y221363D02*X195258D01*
X193258Y223363D02*Y219363D01*
X208055Y168604D02*X210055D01*
X210555Y168104D01*
Y167104D01*
X210055Y166604D02*X210555Y167104D01*
X208555Y166604D02*X210055D01*
X208555Y168604D02*Y164604D01*
Y166604D02*X210555Y164604D01*
X212256D02*X213256D01*
X212756Y168604D02*Y164604D01*
X211756Y167604D02*X212756Y168604D01*
X214457Y165104D02*X214957Y164604D01*
X214457Y166104D02*Y165104D01*
Y166104D02*X214957Y166604D01*
X215957D01*
X216457Y166104D01*
Y165104D01*
X215957Y164604D02*X216457Y165104D01*
X214957Y164604D02*X215957D01*
X214457Y167104D02*X214957Y166604D01*
X214457Y168104D02*Y167104D01*
Y168104D02*X214957Y168604D01*
X215957D01*
X216457Y168104D01*
Y167104D01*
X215957Y166604D02*X216457Y167104D01*
X227150Y165749D02*X229150D01*
X229650Y165249D01*
Y164249D01*
X229150Y163749D02*X229650Y164249D01*
X227650Y163749D02*X229150D01*
X227650Y165749D02*Y161749D01*
Y163749D02*X229650Y161749D01*
X230851Y165249D02*X231351Y165749D01*
X232351D01*
X232851Y165249D01*
Y162249D01*
X232351Y161749D02*X232851Y162249D01*
X231351Y161749D02*X232351D01*
X230851Y162249D02*X231351Y161749D01*
Y163749D02*X232851D01*
X234052Y165249D02*X234552Y165749D01*
X235552D01*
X236052Y165249D01*
Y162249D01*
X235552Y161749D02*X236052Y162249D01*
X234552Y161749D02*X235552D01*
X234052Y162249D02*X234552Y161749D01*
Y163749D02*X236052D01*
X246047Y182286D02*X248047D01*
X248547Y181786D01*
Y180786D01*
X248047Y180286D02*X248547Y180786D01*
X246547Y180286D02*X248047D01*
X246547Y182286D02*Y178286D01*
Y180286D02*X248547Y178286D01*
X251248Y182286D02*X251748Y181786D01*
X250248Y182286D02*X251248D01*
X249748Y181786D02*X250248Y182286D01*
X249748Y181786D02*Y178786D01*
X250248Y178286D01*
X251248Y180286D02*X251748Y179786D01*
X249748Y180286D02*X251248D01*
X250248Y178286D02*X251248D01*
X251748Y178786D01*
Y179786D02*Y178786D01*
X246047Y176773D02*X248047D01*
X248547Y176273D01*
Y175273D01*
X248047Y174773D02*X248547Y175273D01*
X246547Y174773D02*X248047D01*
X246547Y176773D02*Y172773D01*
Y174773D02*X248547Y172773D01*
X249748Y176773D02*X251748D01*
X249748D02*Y174773D01*
X250248Y175273D01*
X251248D01*
X251748Y174773D01*
Y173273D01*
X251248Y172773D02*X251748Y173273D01*
X250248Y172773D02*X251248D01*
X249748Y173273D02*X250248Y172773D01*
X243095Y171557D02*X245095D01*
X245595Y171057D01*
Y170057D01*
X245095Y169557D02*X245595Y170057D01*
X243595Y169557D02*X245095D01*
X243595Y171557D02*Y167557D01*
Y169557D02*X245595Y167557D01*
X247296D02*X248296D01*
X247796Y171557D02*Y167557D01*
X246796Y170557D02*X247796Y171557D01*
X249497Y167557D02*X251497Y169557D01*
Y171057D02*Y169557D01*
X250997Y171557D02*X251497Y171057D01*
X249997Y171557D02*X250997D01*
X249497Y171057D02*X249997Y171557D01*
X249497Y171057D02*Y170057D01*
X249997Y169557D01*
X251497D01*
X233851Y167755D02*X235351D01*
X233351Y168255D02*X233851Y167755D01*
X233351Y171255D02*Y168255D01*
Y171255D02*X233851Y171755D01*
X235351D01*
X237052Y167755D02*X238052D01*
X237552Y171755D02*Y167755D01*
X236552Y170755D02*X237552Y171755D01*
X240753D02*X241253Y171255D01*
X239753Y171755D02*X240753D01*
X239253Y171255D02*X239753Y171755D01*
X239253Y171255D02*Y168255D01*
X239753Y167755D01*
X240753Y169755D02*X241253Y169255D01*
X239253Y169755D02*X240753D01*
X239753Y167755D02*X240753D01*
X241253Y168255D01*
Y169255D02*Y168255D01*
M02*
