G04 start of page 2 for group 0 idx 0 *
G04 Title: (unknown), component *
G04 Creator: pcb 20091103 *
G04 CreationDate: Fri 29 Oct 2010 14:31:42 GMT UTC *
G04 For: thomas *
G04 Format: Gerber/RS-274X *
G04 PCB-Dimensions: 600000 500000 *
G04 PCB-Coordinate-Origin: lower left *
%MOIN*%
%FSLAX25Y25*%
%LNFRONT*%
%ADD11C,0.0100*%
%ADD12C,0.0180*%
%ADD13C,0.0230*%
%ADD14C,0.1200*%
%ADD15C,0.0200*%
%ADD16C,0.0600*%
%ADD17C,0.0750*%
%ADD18C,0.0360*%
%ADD19C,0.0430*%
%ADD20R,0.0295X0.0295*%
%ADD21R,0.0512X0.0512*%
%ADD22R,0.0340X0.0340*%
%ADD23R,0.0200X0.0200*%
%ADD24R,0.0490X0.0490*%
%ADD25R,0.0157X0.0157*%
%ADD26R,0.0240X0.0240*%
%ADD27R,0.0827X0.0827*%
%ADD28R,0.0690X0.0690*%
%ADD29R,0.0300X0.0300*%
%ADD30C,0.0380*%
%ADD31C,0.0280*%
%ADD32C,0.0300*%
%ADD33C,0.0460*%
%ADD34C,0.0250*%
G54D11*X254709Y239537D02*X243669Y228497D01*
X254709Y229741D02*Y217457D01*
X254819Y217347D01*
X258646Y213206D02*Y225805D01*
X254709Y229741D02*X257858D01*
X243685Y232890D02*X246047Y235252D01*
X238567Y232890D02*X243685D01*
X241323Y219504D02*Y227505D01*
X240536Y228292D01*
X266224Y187812D02*X256007D01*
X254819Y189000D01*
X270752Y192340D02*X266224Y187812D01*
X223213Y190371D02*X229512D01*
X231087Y188796D01*
X249810Y202182D02*X250393Y201599D01*
X254835Y195094D02*X255212D01*
X255023Y198245D02*X254819Y198449D01*
Y185851D02*X261886D01*
X255212Y195094D02*X261394Y201276D01*
X262166Y199276D02*X254835Y191945D01*
X265240Y192930D02*Y196122D01*
X266394Y197276D01*
X255362Y198244D02*X260394Y203276D01*
X254835Y198244D02*X255362D01*
X270752Y187812D02*Y186927D01*
X270000Y187060D02*X270752Y187812D01*
Y192930D02*Y192340D01*
X266394Y197276D02*X273001D01*
X246047Y202182D02*X249810D01*
X246047Y206119D02*X249022D01*
X250393Y204748D01*
X254819Y207898D02*X270188D01*
X271244Y208954D01*
X254819Y211047D02*X256487D01*
X258646Y213206D01*
X263370Y213599D02*Y214780D01*
X264945Y216355D01*
X263370Y219505D02*Y217930D01*
X265024Y216276D01*
X270394D02*X265024D01*
X272394Y220276D02*Y218276D01*
X270394Y216276D01*
X227921Y224071D02*Y219521D01*
X224000Y219505D02*Y223299D01*
X224772Y224071D01*
X227921Y219521D02*X227937Y219505D01*
X232661Y229740D02*Y217929D01*
X233449Y231906D02*Y230528D01*
X232661Y229740D01*
Y217929D02*X230299Y215567D01*
X220063D01*
X216913Y230528D02*Y216355D01*
Y240764D02*X220850Y236827D01*
X225574D01*
X226362Y236039D01*
Y233677D01*
X225575Y232890D01*
X220457D02*Y230134D01*
X220063Y229740D01*
Y213205D01*
X214757Y207899D01*
X272394Y246260D02*Y240747D01*
X272684Y230819D02*X272819Y230954D01*
X272394Y246260D02*X275641D01*
X264157Y239188D02*X262583Y237614D01*
X262614Y230819D02*X272684D01*
X267012Y239483D02*X267307Y239188D01*
X257858Y229741D02*X261008Y232891D01*
X263402Y228457D02*Y230031D01*
X263370Y224623D02*Y228954D01*
X258677Y225308D02*Y226882D01*
X263402Y230031D02*X262614Y230819D01*
X258677Y226882D02*X262614Y230819D01*
X246047Y235252D02*Y242338D01*
X247622Y243913D01*
X254709Y239741D02*Y239537D01*
X268095Y244701D02*X260457D01*
X259669D02*X254709Y239741D01*
X260220Y244701D02*X259669D01*
X267307Y239188D02*X264157D01*
X261008Y232891D02*Y236040D01*
X262583Y237615D01*
X170952Y220000D02*X167307Y216355D01*
X195361Y220000D02*X170952D01*
X170000Y215000D02*X180000D01*
X197229Y218229D02*X194000Y215000D01*
X192000D01*
X194679Y188796D02*X200818D01*
X201023Y189001D01*
Y195300D02*Y194953D01*
X198803Y192733D01*
X185879Y184896D02*X190105D01*
X190142Y184859D01*
X198803Y192733D02*X185418D01*
X185417Y180135D02*X193218D01*
X194079Y180996D01*
X201023Y185851D02*Y179992D01*
X190142Y198245D02*X200818D01*
X201023Y198450D01*
X190142Y205331D02*X192504Y202969D01*
X199653D01*
X201023Y201599D01*
X190142Y208245D02*Y205331D01*
X201023Y214198D02*X199386D01*
X198016Y215568D01*
X192000Y215000D02*X189000Y212000D01*
X183000D01*
X185418Y192733D02*X182268Y189583D01*
Y186434D01*
X176756Y180922D01*
X167307Y179348D02*Y216355D01*
X183000Y212000D02*X180000Y215000D01*
X170000D02*Y178000D01*
G54D12*X174197Y237122D02*Y229498D01*
G54D11*X166536Y247052D02*Y246836D01*
X171654Y247052D02*Y240119D01*
X166095Y234560D01*
X174536Y246068D02*X170654D01*
G54D12*X174197Y229498D02*X174062Y229363D01*
G54D11*X165000Y226000D02*X171000Y220000D01*
G54D12*X184062Y229363D02*Y232375D01*
X179315Y237122D01*
G54D11*X179654Y242119D02*X179095Y241560D01*
Y246493D01*
X179654Y247052D01*
X198016Y222655D02*X210757D01*
X197229Y218718D02*X199591Y221080D01*
X198016Y222655D02*X195361Y220000D01*
X195654Y220292D02*Y220293D01*
X199591Y221080D02*X212332D01*
X215323Y224071D01*
X210757Y222655D02*X212173Y224071D01*
X209827Y217930D02*X206032D01*
X205449Y217347D01*
Y207899D02*X214757D01*
X205449Y211048D02*X211606D01*
X216913Y216355D01*
X197229Y218718D02*Y218229D01*
X196638Y237417D02*X198803Y235252D01*
X202544Y242535D02*X204315Y240764D01*
X196638Y237417D02*X192583D01*
X198803Y235252D02*X212189D01*
X216913Y230528D01*
X214315Y240764D02*X216913D01*
X194178Y242535D02*X201560D01*
X192583Y237417D02*X191000Y239000D01*
Y244000D01*
X193000Y246000D01*
X197000D01*
X200000Y249000D01*
X204000D01*
X209118D02*X215000D01*
X215339Y180922D02*Y179144D01*
X215322Y179127D01*
X216914Y182497D02*X215339Y180922D01*
X211953Y179347D02*X212173Y179127D01*
X210728Y161651D02*X217327D01*
X210728Y156651D02*X213903D01*
X214551Y157299D01*
X217503D01*
X210728Y151651D02*X213114D01*
X214551Y150214D01*
Y145490D01*
X212976Y143915D01*
X200379D01*
X198016Y141552D01*
X205449Y201599D02*X208835D01*
X210614Y199820D01*
X209040Y188560D02*X205449Y192151D01*
X205103Y182497D02*Y178560D01*
X237369Y174701D02*Y170703D01*
G54D12*X232032Y136748D02*Y141710D01*
G54D11*X231875Y172261D02*X232661Y173047D01*
X237369Y170703D02*X238961Y169111D01*
X227937Y172261D02*X231875D01*
X218292Y171276D02*X220063Y173047D01*
X221621Y174701D02*Y173031D01*
X220851Y172261D01*
Y166748D01*
G54D12*X218292Y170390D02*Y163009D01*
G54D11*Y170390D02*Y171276D01*
G54D12*X220851Y160450D02*X225574D01*
G54D11*X222426Y165961D02*X224000Y164387D01*
X220851Y166748D02*X221638Y165961D01*
X222426D01*
G54D12*X218292Y163009D02*X220851Y160450D01*
G54D11*X217327Y161651D02*X218488Y162812D01*
X217503Y157299D02*X217504Y157300D01*
Y152182D02*X226756D01*
X211402Y185646D02*X213763D01*
X216126Y188009D01*
X224771Y174701D02*Y184055D01*
X227150Y186434D01*
X220063Y184858D02*X220851Y185646D01*
X216126Y188009D02*X220851D01*
X223213Y190371D01*
X220063Y184858D02*Y173047D01*
X231087Y188796D02*Y179144D01*
X231070Y179127D01*
X232661Y180134D02*X234236Y181709D01*
X232661Y173047D02*Y180134D01*
X210614Y179347D02*X211953D01*
X209040Y188560D02*Y180922D01*
X207465Y179347D01*
X209040Y174623D02*Y177773D01*
X210614Y179347D01*
X217996Y170686D02*X194866D01*
X238961Y169111D02*X254217D01*
X292504Y164702D02*X294393D01*
X297228Y167537D01*
X284000Y169000D02*X286000Y167000D01*
X280000Y169000D02*X284000D01*
X254217Y165174D02*X246639D01*
X254217Y169111D02*X254512Y169406D01*
Y170390D01*
Y175902D02*X252838D01*
X251559Y174623D01*
Y172260D01*
X250772Y171473D01*
X241324D01*
X240536Y172261D01*
Y174684D01*
X240519Y174701D01*
X243669Y179127D02*Y180905D01*
X244473Y181709D01*
X254217D01*
X254512Y181414D01*
X259630Y180430D02*X261500D01*
X264158Y177772D01*
X264000Y178000D02*X266000Y176000D01*
X269000Y163815D02*X269080Y163895D01*
X280000Y169000D02*X271000Y178000D01*
X269000D01*
X261886Y185851D02*X266323Y181414D01*
X270000Y185000D02*Y187060D01*
X269000Y178000D02*Y184000D01*
X270000Y185000D01*
X297622Y202048D02*X296394Y203276D01*
X297622Y187616D02*Y192931D01*
Y194899D02*Y196277D01*
X297228Y180628D02*X295063Y182793D01*
X297622Y194899D02*Y202048D01*
X287394Y199276D02*Y188276D01*
X290929Y199033D02*Y196474D01*
X292504Y194899D01*
Y174702D02*Y189584D01*
X289945Y183777D02*X284827D01*
X289945D02*Y185844D01*
X288567Y187222D01*
X287394Y188276D02*X288394Y187276D01*
X287780Y178560D02*X286205Y180135D01*
X277544D01*
X275969Y181710D01*
X279709Y183777D02*X281186D01*
X275969Y181710D02*Y185548D01*
X279709Y189288D01*
X281186Y183777D02*X282268Y184859D01*
Y191257D01*
X284827Y189288D02*Y190174D01*
Y188304D02*Y197843D01*
X283394Y199276D01*
X282268Y191257D02*X279709Y193816D01*
X276461D01*
X275181Y195096D01*
X273001Y197276D02*X275969Y194308D01*
X283394Y199276D02*X262166D01*
X261394Y201276D02*X285394D01*
X287394Y199276D01*
X260394Y203276D02*X296394D01*
X207465Y178560D02*X201953Y173048D01*
X206087Y168029D02*Y165372D01*
X205102Y164387D01*
X201953D01*
X201657Y175114D02*X205103Y178560D01*
X207465Y179347D02*Y178560D01*
X201953Y164387D02*X200378Y162812D01*
Y158088D01*
X201953Y156513D01*
X204090D01*
X204228Y156651D01*
Y146651D02*X199965D01*
X177308Y171474D02*X176756Y170922D01*
X168882Y173835D02*Y166749D01*
X171244Y164387D01*
X167307Y165174D02*Y165173D01*
X185417Y180135D02*Y175310D01*
X185221Y175114D01*
X185417Y180135D02*Y180134D01*
X182268Y176985D01*
X167307Y175411D02*X169669Y177773D01*
X164945Y176986D02*X167307Y179348D01*
X182268Y176985D02*X172032D01*
X168882Y173835D01*
X170000Y178000D02*X169000Y177000D01*
X191717Y147064D02*X190641D01*
X180693Y152576D02*X181480Y151789D01*
X183728Y151651D02*X181618D01*
X190641Y147064D02*X190228Y146651D01*
X192504Y147851D02*X191717Y147064D01*
X191579Y156651D02*X192504Y155726D01*
Y147851D01*
X193291D01*
X195654Y150214D01*
X199965Y146651D02*X196441Y143127D01*
X190228Y156651D02*X191579D01*
X171244Y164387D02*X182268D01*
X183055Y165174D02*Y168323D01*
X174394Y160449D02*X178331Y164386D01*
X173606Y160449D02*X174394D01*
X182268Y164387D02*X183055Y165174D01*
X180693Y164387D02*Y152576D01*
X183728Y161651D02*Y156651D01*
X164945Y176986D02*Y149425D01*
X175181Y152575D02*X174394D01*
X167307Y156512D02*X170457D01*
X180693Y152576D02*X175182D01*
X167307Y175411D02*Y150213D01*
X198016Y141552D02*X197228D01*
X179118D02*X197229D01*
X168882Y141551D02*X171244Y139189D01*
X179118Y141551D02*X172819D01*
X174394Y135252D02*X179906D01*
X175182Y152576D02*X175181Y152575D01*
X174393Y143127D02*X167307Y150213D01*
X172819Y141551D02*X164945Y149425D01*
X196441Y143127D02*X174393D01*
X194078Y173048D02*X192504Y171474D01*
X201953Y173048D02*X194078D01*
X200969Y168029D02*X195949D01*
X190339Y175114D02*X201657D01*
X194079Y169899D02*X194866Y170686D01*
X201023Y179992D02*X199591Y178560D01*
X195949Y168029D02*X194079Y169899D01*
X184630D02*X194079D01*
X192504Y171474D02*X177308D01*
X183055Y168323D02*X183843Y169111D01*
Y169112D02*X184630Y169899D01*
X183843Y169111D02*Y169112D01*
X186795Y167240D02*X184138D01*
X183055Y168323D01*
X191913Y166256D02*Y163336D01*
X190228Y161651D01*
G54D12*X232032Y141710D02*X235811Y145489D01*
Y150214D01*
X232662Y153363D01*
X228724D01*
X226362Y155725D01*
G54D11*X226756Y152182D02*X230299Y148639D01*
G54D12*X248725Y137205D02*X248325Y136805D01*
G54D11*X297228Y167537D02*Y180628D01*
X292504Y154702D02*X290378D01*
X287780Y157300D01*
Y178560D01*
X292504Y144702D02*X288567D01*
X286000Y147269D02*X288567Y144702D01*
X286000Y167000D02*Y147269D01*
X266000Y176000D02*X270000D01*
X269669Y173048D02*X262484D01*
X259630Y175902D01*
X256284Y139190D02*Y140765D01*
X262583Y150213D02*Y147064D01*
X256284Y140765D02*X262583Y147064D01*
X269669Y163306D02*X269080Y163895D01*
X258843Y164879D02*Y157498D01*
X257858Y156513D01*
X269000Y161000D02*Y163815D01*
X268000Y160000D02*X269000Y161000D01*
X275181Y135252D02*X275968D01*
X109095Y101560D02*Y98317D01*
X103000Y122655D02*X111095Y114560D01*
Y108560D02*Y103560D01*
X109095Y101560D01*
Y98317D02*X105653Y94875D01*
X87668Y106560D02*X98567Y95661D01*
X81095Y106560D02*X87668D01*
X94508Y106492D02*X97000Y104000D01*
X103000D01*
X114551Y124228D02*Y98638D01*
X82654Y122052D02*X84587D01*
X85095Y122560D01*
X161795Y132890D02*X170457Y124228D01*
X161795Y136039D02*Y132890D01*
Y147063D02*Y153362D01*
X160993Y152560D02*X161795Y153362D01*
X158644Y139190D02*X161795Y136039D01*
X155496Y139190D02*X158644D01*
X148409Y141551D02*X168882D01*
X158646Y135252D02*X158351D01*
X155693Y132594D01*
Y132891D01*
X150378Y138206D01*
X142678Y142560D02*X141095D01*
X142678D02*X144394Y144276D01*
Y146276D01*
X142504Y124228D02*Y98638D01*
X170457Y124228D02*Y98638D01*
X103000Y124000D02*Y122655D01*
X89000Y124051D02*X89492Y123559D01*
X89508Y118559D02*X94508Y123559D01*
X77536Y116052D02*Y110119D01*
X81095Y106560D01*
X94508Y118441D02*Y106492D01*
X89508Y118441D02*Y118559D01*
X82654Y115068D02*Y121068D01*
X77536Y122052D02*X77638D01*
X82654Y127068D01*
X77536Y134052D02*X75603D01*
X73095Y136560D01*
X82654Y127068D02*Y133068D01*
X77536Y128052D02*X78587D01*
X80095Y129560D01*
Y142095D01*
X85095Y122560D02*Y141560D01*
X98214Y143441D02*X90559D01*
X89000Y145000D01*
X85095Y141560D02*X87095Y143560D01*
X76200Y146000D02*Y149800D01*
X74000Y152000D01*
X80095Y142095D02*X84000Y146000D01*
X87095Y143560D02*Y152560D01*
X85095Y154560D02*X80340D01*
X80100Y154800D01*
X143394Y147276D02*X141379D01*
X144394Y146276D02*X143394Y147276D01*
X150575Y132594D02*Y132299D01*
X142504Y124228D01*
X146835Y139977D02*X148409Y141551D01*
X144473Y137614D02*X146835Y139976D01*
X150378Y139190D02*Y137909D01*
X146835Y139976D02*Y139977D01*
X148409Y145685D02*Y141551D01*
X147622Y136434D02*X150378Y139190D01*
X144866Y132496D02*X147622Y135252D01*
Y136434D01*
X113267Y147560D02*X123213Y137614D01*
X120654Y130331D02*X114551Y124228D01*
X120654Y132594D02*Y130331D01*
X125870Y132496D02*X125772Y132594D01*
X144473Y137614D02*X123213D01*
X144866Y132496D02*X126658D01*
X125772Y131610D01*
X155988Y159366D02*X153921Y157299D01*
X155988Y161039D02*Y159366D01*
X141323Y157299D02*X164945D01*
X161795Y153362D02*X146047D01*
X145260Y152575D01*
X152527Y145685D02*X159417D01*
X160417D02*X161795Y147063D01*
X145260Y152575D02*X141110D01*
X141095Y152560D01*
X134655Y153000D02*X135095Y152560D01*
X126362Y156638D02*X130000Y153000D01*
X126000Y157000D02*X130000Y153000D01*
X134655D01*
X105095Y147560D02*X113267D01*
X94508Y123559D02*Y137973D01*
X99095Y142560D01*
X89000Y128000D02*Y124051D01*
X98214Y143441D02*X99095Y142560D01*
X92508Y152508D02*X94000Y154000D01*
X95535D01*
X99095Y157560D01*
X89000Y157000D02*X90000Y158000D01*
X91949D01*
X92508Y157441D01*
Y148559D02*Y152508D01*
X89000Y145000D02*Y157000D01*
X84000Y146000D02*Y150000D01*
X87095Y152560D02*X85095Y154560D01*
G54D12*X232032Y136748D02*X233882D01*
G54D11*X225425Y137205D02*X227425Y135205D01*
X230489D01*
X232032Y136748D01*
G54D12*X233882D02*X237425Y133205D01*
X243425D01*
X232032Y129662D02*X225968D01*
G54D11*X214184Y130646D02*X216625Y128205D01*
X225625D01*
G54D12*X225968Y129662D02*X222425Y133205D01*
G54D11*X225625Y128205D02*X229625Y124205D01*
G54D12*X224850Y133410D02*X223589D01*
G54D11*X243638Y128605D02*Y125064D01*
X212917Y135764D02*Y135713D01*
Y135764D02*X216984D01*
X218425Y137205D01*
X225425D01*
X206133Y135764D02*X211933D01*
X203528Y137615D02*X215339D01*
X212917Y130646D02*X214184D01*
X206133D02*Y129497D01*
X211425Y124205D01*
X201657Y130332D02*Y131808D01*
X202740Y132891D02*X210122D01*
X215339Y137615D02*X218929Y141205D01*
X215339Y140765D02*X224000Y149426D01*
X222425Y141205D02*X218929D01*
X201657Y131808D02*X202740Y132891D01*
X203528Y137615D02*X201657Y135744D01*
G54D12*X194866Y127047D02*Y134921D01*
G54D11*X205890Y140765D02*X215339D01*
X210122Y132891D02*X212681Y130332D01*
X229316Y159367D02*Y167339D01*
X234434Y174487D02*Y158383D01*
X234828Y158973D02*X234336Y159465D01*
X243981Y158186D02*X242111Y160056D01*
X235811Y157990D02*X234434Y159367D01*
X246442Y165371D02*X238370D01*
X237386Y164387D01*
Y158580D01*
X234434Y174487D02*X234220Y174701D01*
X223410Y170390D02*X226066D01*
X227937Y172261D01*
Y174685D01*
X227921Y174701D01*
G54D12*X226362Y159662D02*Y155725D01*
X225574Y160450D02*X226362Y159662D01*
X245606Y102024D02*X247425Y100205D01*
X233425Y105205D02*X241339D01*
X243244Y103300D01*
X222425Y103205D02*Y104205D01*
X228425Y110205D02*X245425D01*
X243244Y103300D02*X245606D01*
X222425Y113205D02*X230425D01*
X233425Y116205D01*
X243244Y115110D02*Y120733D01*
X241323Y122654D01*
X229625Y124205D02*X239724D01*
X239748Y124229D01*
X222425Y104205D02*X228425Y110205D01*
G54D11*X211425Y114205D02*X222425Y103205D01*
Y113205D02*X218625D01*
X251933Y117646D02*Y113764D01*
G54D12*X245425Y112929D02*X243244Y115110D01*
X245606Y103300D02*Y102024D01*
X245425Y110205D02*Y112929D01*
Y110205D02*X251425Y104205D01*
G54D11*X252917Y108646D02*Y106697D01*
X251425Y105205D01*
G54D12*X258075Y120205D02*X257075Y119205D01*
G54D11*X248425Y120205D02*X254375D01*
G54D12*X263425Y119205D02*X259425D01*
X258425Y118205D01*
X258075D01*
G54D11*X251933Y113764D02*X255334D01*
G54D13*X258175Y114205D02*X253358D01*
X252917Y113764D01*
X257625Y114205D02*X257743D01*
G54D11*X255334Y113764D02*X257075Y115505D01*
G54D13*X252917Y113764D02*X259184D01*
G54D12*X256925Y115505D02*X255625Y114205D01*
G54D13*X257743D02*X258184Y113764D01*
X258625Y114205D01*
Y114655D01*
X257075Y122905D02*X257325D01*
X259475D02*Y123355D01*
G54D12*X257075Y115505D02*X259475D01*
X256925D01*
G54D13*X259475D02*X258925D01*
X259184Y113764D02*X259625Y114205D01*
X258175D02*X259475Y115505D01*
X258625Y114655D02*X259475Y115505D01*
X258925D02*X257625Y114205D01*
G54D12*X247425Y100205D02*X264425D01*
X251425Y104205D02*X259425D01*
X261425Y106205D01*
Y107405D02*Y106205D01*
X262425Y114205D02*Y108405D01*
X261425Y107405D01*
G54D11*X211933Y124713D02*X211425Y124205D01*
Y118205D02*Y114205D01*
X218625Y113205D02*X216625Y115205D01*
Y119205D01*
X214625Y121205D01*
X211676D01*
X211625D02*X208625D01*
X198133Y119764D02*X205117D01*
Y120277D01*
X205103Y119778D02*X205117Y119764D01*
X198803Y120078D02*X199117Y119764D01*
X208625Y121205D02*Y118154D01*
X205117Y114646D01*
X200625Y110205D02*X207425D01*
X211425Y114205D01*
X198133Y114646D02*Y112697D01*
X200625Y110205D01*
X198803Y124229D02*Y120078D01*
G54D12*X266425Y111205D02*Y102205D01*
G54D11*Y111205D02*X267425D01*
G54D12*X263425Y109405D02*X261425Y107405D01*
G54D11*X260184Y108646D02*X261425Y107405D01*
G54D12*X266425Y102205D02*X264425Y100205D01*
X259475Y119205D02*X261425D01*
X263425Y117205D01*
X261425Y118205D02*X258075D01*
X257075Y119205D01*
X263425Y109405D02*Y126269D01*
X260882Y128812D01*
X262425Y119205D02*Y127269D01*
X260882Y128812D01*
X262425Y118205D02*Y113205D01*
X263425Y125205D02*Y127055D01*
X262425Y120205D02*X258075D01*
G54D11*X254375D02*X257075Y122905D01*
Y122855D01*
X256866Y123114D02*X257075Y122905D01*
G54D13*X259475Y123355D02*X258625Y124205D01*
X257625D01*
G54D11*X254425Y124272D02*X252917Y122764D01*
X267968Y129598D02*Y130662D01*
G54D12*X268361Y129205D02*X267968Y129598D01*
Y128812D01*
X271032D01*
X268575Y130205D02*X267968Y129598D01*
Y128812D02*X274466D01*
X274425Y129205D02*X268361D01*
X271032Y128812D02*X272425Y130205D01*
X268575D02*X273425D01*
G54D11*X267968Y129598D02*X267032D01*
G54D12*X274466Y133164D02*X274425Y133205D01*
Y137205D01*
G54D11*X272425D01*
G54D12*X274859D02*X271425D01*
X272425Y138205D02*X273859D01*
X271425D01*
G54D11*X272425Y137205D02*X270425Y139205D01*
X261984Y135697D02*X265933D01*
X266425Y135205D01*
G54D12*X263425Y127055D02*X260882Y129598D01*
X263032D01*
X263425Y129205D01*
Y127205D01*
G54D11*X256866Y135697D02*Y123114D01*
X254425Y124205D02*Y137205D01*
X270425Y139205D02*X256425D01*
G54D12*X271425Y137205D02*X269425Y139205D01*
X270425Y138205D01*
Y139205D02*X271425Y138205D01*
X254425Y139205D02*X252425Y137205D01*
X248725D01*
G54D11*X254425D02*X253425Y138205D01*
G54D12*X248325Y137405D02*X247625D01*
X243425Y133205D01*
G54D11*X243638Y125064D02*X248410Y120292D01*
G54D12*X254425Y139205D02*X270425D01*
X274466Y128812D02*Y133164D01*
X272425Y130205D02*X275859D01*
X274859Y137205D02*X278859Y133205D01*
X273859Y138205D02*X278859Y133205D01*
G54D11*X276756Y132890D02*Y134465D01*
G54D12*X274466Y128812D02*X278859Y133205D01*
X278425D01*
X274425Y129205D01*
X275859Y130205D02*X278859Y133205D01*
X267375Y122905D02*X273805D01*
X272425Y124205D02*X272505D01*
X273425D02*X267425D01*
X267375Y122905D02*X271725D01*
X267425Y124205D02*Y122955D01*
X267375Y122905D01*
X269775Y123855D02*X269425Y124205D01*
X268675D01*
X269775Y122905D02*Y123855D01*
X268675Y124205D02*X267375Y122905D01*
X267425Y124205D02*X269425D01*
X267375Y122905D02*X269725D01*
X267425Y124205D02*X271425D01*
X273425Y121205D02*X274425D01*
X278859Y117851D02*X272505Y124205D01*
X276425Y122205D02*Y120285D01*
X274394Y120292D02*X276418D01*
G54D11*X275181Y123441D02*Y119504D01*
X274394Y118717D01*
G54D12*X272425Y122205D02*X274505D01*
X271725Y122905D02*X274425Y120205D01*
G54D11*X276425Y125205D02*X274425Y123205D01*
G54D12*X275425Y122205D02*Y121285D01*
G54D11*X274425Y124205D02*X275425Y123205D01*
Y121285D01*
G54D12*X274425Y124205D02*X276425Y122205D01*
X274425Y118205D02*Y120205D01*
X274473Y117851D02*X274394Y117930D01*
G54D11*X276756Y119505D02*Y118717D01*
X275969Y117930D01*
G54D12*X275425Y114417D02*X278859Y117851D01*
X275213Y114205D02*X278859Y117851D01*
X278252D02*X274394Y113993D01*
G54D11*X275969Y117143D02*X274394Y115568D01*
G54D12*X274425Y117205D02*Y114205D01*
X275213D01*
X278859Y118771D02*Y116639D01*
X274625Y116205D02*Y119205D01*
X272425Y111417D02*X278859Y117851D01*
X275425Y113205D02*Y114417D01*
X274425Y112205D02*X278859Y116639D01*
X274625Y117205D02*Y113205D01*
X275425Y121285D02*X278859Y117851D01*
X274505Y122205D02*X278859Y117851D01*
X274425Y120205D02*X276505D01*
X278859Y117851D01*
X276425Y120285D02*X278859Y117851D01*
X278252D01*
X274425Y118005D02*X274625Y118205D01*
X276418Y120292D02*X278859Y117851D01*
X274473D01*
G54D11*X275969Y122654D02*Y117143D01*
G54D12*X269775Y119205D02*Y114555D01*
Y119205D02*Y115505D01*
Y115855D01*
X268425Y117205D01*
G54D11*X270075Y115205D02*X269775Y115505D01*
Y116555D01*
G54D12*X267375Y115505D02*Y119205D01*
X268425Y117205D02*Y118155D01*
X267375Y119205D01*
Y114255D01*
Y115505D02*Y115955D01*
G54D11*Y115505D02*X269775D01*
G54D12*X267425Y115455D02*X267375Y115505D01*
X267425Y115455D02*Y112205D01*
X267625D02*Y113355D01*
X270625Y116355D01*
X267375Y115955D02*X268625Y117205D01*
X262425Y113205D02*X263425Y112205D01*
G54D11*X271425Y115205D02*X266425Y110205D01*
G54D12*X269775Y114555D02*X266425Y111205D01*
X267425Y112205D02*X266425Y111205D01*
X267375Y114255D02*X268425Y113205D01*
X267425D01*
G54D11*X268425D02*X266425Y111205D01*
X269425Y113205D02*X268425D01*
G54D12*X274425Y124205D02*X272425D01*
G54D11*X273425D02*X274425D01*
X269775Y118855D02*X271425Y117205D01*
X269775Y119205D02*X271425D01*
Y115205D01*
G54D12*X270625Y118205D02*Y116355D01*
X269775Y119055D02*X270625Y118205D01*
X272425Y112205D02*X274425D01*
X272425D02*X273425D01*
X274425Y111205D01*
G54D11*X271425Y115205D02*X270075D01*
X269775Y116555D02*X270425Y117205D01*
Y116155D01*
X269775Y115505D01*
G54D12*X272425Y112205D02*X274425Y114205D01*
Y118005D01*
X272425Y112005D02*X273625Y113205D01*
X274394Y113993D02*Y120292D01*
G54D11*X269775Y119205D02*Y118855D01*
G54D12*Y119205D02*X267375D01*
X269775D02*Y119055D01*
X272425Y107405D02*Y110205D01*
Y107405D02*Y111417D01*
X272625Y107605D02*X272425Y107405D01*
Y111405D01*
Y110205D02*X273425Y111205D01*
X274425D02*Y109405D01*
X272425Y107405D01*
G54D11*X273425Y108405D02*X272425Y107405D01*
G54D12*X272625Y112205D02*Y107605D01*
X272425Y107405D02*Y112205D01*
G54D11*X273425D02*Y108405D01*
X237386Y158580D02*X240831Y155135D01*
Y150017D02*X240732D01*
X235811Y154938D01*
Y157990D01*
X247623Y153363D02*X250194D01*
X253349Y150208D01*
X247623Y148245D02*X248115D01*
X251068Y145292D01*
X254217D01*
X257367Y148442D01*
X243981Y150903D02*X246639Y148245D01*
X243981Y158186D02*Y150903D01*
X247623Y160056D02*Y153363D01*
X246442Y165371D02*X246639Y165174D01*
X257367Y149926D02*X261549Y154108D01*
X257367Y149926D02*Y148442D01*
X259335Y164485D02*X259138Y164682D01*
X259335Y164485D02*X263173D01*
X254512Y159171D02*X253349Y158008D01*
X254512Y164879D02*Y159171D01*
X254217Y165174D02*X254512Y164879D01*
X268291Y160250D02*X262149Y154108D01*
X259630Y170390D02*X269178D01*
X272032Y167536D01*
Y146276D02*Y167536D01*
X281480Y154387D02*X275732D01*
X274394Y155725D01*
Y168323D01*
X281480Y174387D02*X277484D01*
X271441Y180430D01*
X281480Y164623D02*X281377D01*
X274394Y168323D02*X269669Y173048D01*
X270000Y176000D02*X281377Y164623D01*
X272032Y146276D02*X274394Y143914D01*
Y143127D02*X281007D01*
Y143914D02*X281480Y144387D01*
X278859Y133205D02*X275497D01*
X277756Y132102D02*X278859Y133205D01*
X275968Y135252D02*Y132102D01*
X275497Y133205D02*X274394Y132102D01*
X277756D01*
X275181Y130528D02*Y135252D01*
X275968Y132102D02*X276756Y132890D01*
X89212Y202560D02*X110993D01*
X96315Y194780D02*X99095Y197560D01*
Y192560D02*X94772D01*
X105095Y197560D02*X107568D01*
X110993Y202560D02*X111402Y202969D01*
X107568Y197560D02*X108252Y198244D01*
X105095Y172560D02*X108739D01*
X98755Y187220D02*X99095Y187560D01*
X105095Y182560D02*X106095D01*
X109095Y179560D01*
X86992Y194780D02*X96315D01*
X94772Y192560D02*X86992Y184780D01*
Y174780D02*Y176984D01*
X92504Y182496D01*
Y184858D01*
X94866Y187220D01*
X80100Y154200D02*Y203555D01*
X93095Y168560D02*Y171560D01*
X94866Y187220D02*X98755D01*
X93095Y171560D02*X99095Y177560D01*
X91508Y162559D02*X99094D01*
X99095Y162560D01*
X86603Y159397D02*X89000Y157000D01*
X86603Y161001D02*Y159397D01*
X78095Y163560D02*X73095Y158560D01*
X71095D01*
X69095Y156560D01*
Y152560D01*
X86603Y166119D02*X90654D01*
X93095Y168560D01*
X78095Y201560D02*Y163560D01*
X68095Y205560D02*X70095Y207560D01*
X72095Y202560D02*Y193627D01*
X69603Y198052D02*X68095Y199560D01*
Y205560D01*
X69603Y186001D02*X74603D01*
Y181052D01*
X72095Y193627D02*X74603Y191119D01*
X69603D02*Y198052D01*
X88559Y216347D02*X86992Y214780D01*
X99095Y207560D02*X94212D01*
X86992Y214780D01*
X95508Y214441D02*Y212492D01*
X86992Y204780D02*X89212Y202560D01*
X78095Y223560D02*X84095Y229560D01*
X120095D02*X84095D01*
X120000Y222000D02*Y225465D01*
X117095Y232560D02*X84095D01*
X76095Y224560D01*
X80100Y203555D02*X78095Y205560D01*
Y223560D01*
X76095Y224560D02*Y203560D01*
X78095Y201560D01*
X120850Y206118D02*X120882D01*
X121000Y206000D01*
G54D12*X125000Y216000D02*Y222000D01*
X126000Y223000D01*
G54D11*X132440Y202560D02*X130000Y205000D01*
G54D12*X126000Y223000D02*X141051D01*
G54D11*X115339Y216354D02*Y211629D01*
X121000Y205968D01*
X120000Y225465D02*X123095Y228560D01*
X145655Y203000D02*X141095Y207560D01*
X154000Y204000D02*X148000Y210000D01*
X146000Y203000D02*X145655D01*
X162000Y201000D02*X159000Y204000D01*
X154000D01*
X156600Y180100D02*X160100D01*
X162000Y182000D01*
Y201000D01*
X153000Y191000D02*X159000D01*
X160000Y192000D01*
Y196000D01*
X158000Y198000D01*
X162000Y206000D02*Y209933D01*
G54D12*X143508Y214441D02*X136559D01*
X135000Y216000D01*
G54D11*X162000Y209933D02*X155492Y216441D01*
X148000Y210000D02*Y225655D01*
X135095Y182560D02*X133440D01*
X135095Y162560D02*X132125D01*
X134535Y177000D02*X135095Y177560D01*
X131899Y167560D02*X131874Y167535D01*
X126000Y178000D02*Y157000D01*
X135095Y167560D02*X131899D01*
X141095Y177560D02*X142560D01*
X143000Y178000D02*X144000Y179000D01*
X146000D02*Y175000D01*
X144000Y173000D01*
X141535D01*
X141095Y172560D01*
X144000Y173000D02*Y165882D01*
X149000Y166000D02*Y175600D01*
X148400Y176200D01*
X144000Y165882D02*X149000Y160882D01*
X144000Y179000D02*Y196000D01*
X148400Y184000D02*Y181400D01*
X146000Y179000D01*
X144000Y196000D02*X146000Y198000D01*
X148400D01*
X157200Y194100D02*X152100D01*
X152000Y194000D01*
X149000Y190200D02*X150800D01*
X152000Y189000D01*
X155000D02*Y186000D01*
X152000Y183000D01*
X151000Y190000D02*X152000D01*
X153000Y191000D01*
X152000Y189000D02*Y179200D01*
X121000Y183000D02*Y205968D01*
X135095Y202560D02*X132440D01*
X132000Y184000D02*X125000D01*
X133440Y182560D02*X132000Y184000D01*
X135095Y192560D02*X134440D01*
X132000Y195000D01*
Y177000D02*X134535D01*
X126000Y178000D02*X121000Y183000D01*
X152000Y179200D02*X149000Y176200D01*
X155441Y170492D02*X154108D01*
X148400Y176200D01*
X160000Y176000D02*X154000D01*
X156492Y165559D02*X157441D01*
X161000Y162000D01*
Y170933D02*X160559Y170492D01*
X161559Y169508D02*Y174441D01*
X160000Y176000D01*
G54D12*X141051Y223000D02*X144492Y219559D01*
G54D11*X148000Y225655D02*X144095Y229560D01*
X139654Y247052D02*Y246001D01*
X160200Y227251D02*X154508Y221559D01*
X160200Y232100D02*Y227251D01*
X153095Y231560D02*X156095Y234560D01*
X123095Y228560D02*Y236560D01*
X125095Y238560D01*
X132095Y241560D02*Y244611D01*
X134536Y247052D01*
X132095Y241560D02*X125095D01*
X120095Y236560D01*
Y235560D01*
X117095Y232560D01*
X144095Y229560D02*X129095D01*
X150095Y238560D02*X133560D01*
X151400Y237255D02*X150095Y238560D01*
X145181Y233560D02*X148095D01*
X150095Y231560D01*
X153095D01*
X151400Y236000D02*Y237255D01*
X125095Y238560D02*X133095D01*
X138095Y234346D02*X132309D01*
X132095Y234560D01*
X156095D02*Y236395D01*
X155536Y247052D02*Y240136D01*
X160654Y247052D02*Y249119D01*
X162095Y250560D01*
X155536Y240136D02*X151400Y236000D01*
X156095Y236395D02*X166536Y246836D01*
X168146Y250560D02*X171654Y247052D01*
X160540Y239560D02*X160200Y239900D01*
X165095Y239560D02*X160540D01*
X168146Y250560D02*X143162D01*
X139654Y247052D01*
G54D14*X74394Y246276D03*
G54D15*G36*
X102000Y219000D02*Y213000D01*
X108000D01*
Y219000D01*
X102000D01*
G37*
G54D16*X115000Y216000D03*
X125000D03*
X135000D03*
G54D15*G36*
X83992Y217780D02*Y211780D01*
X89992D01*
Y217780D01*
X83992D01*
G37*
G54D16*X86992Y204780D03*
Y194780D03*
Y184780D03*
Y174780D03*
G54D14*X298803Y99819D03*
Y246276D03*
G54D15*G36*
X289504Y147702D02*Y141702D01*
X295504D01*
Y147702D01*
X289504D01*
G37*
G54D16*X292504Y154702D03*
Y164702D03*
Y174702D03*
X214315Y240764D03*
X224315D03*
G54D15*G36*
X219425Y136205D02*Y130205D01*
X225425D01*
Y136205D01*
X219425D01*
G37*
G54D16*X222425Y123205D03*
Y113205D03*
Y103205D03*
X234315Y240764D03*
G54D15*G36*
X269819Y233954D02*Y227954D01*
X275819D01*
Y233954D01*
X269819D01*
G37*
G54D16*X272819Y210954D03*
G54D15*G36*
X251709Y242741D02*Y236741D01*
X257709D01*
Y242741D01*
X251709D01*
G37*
G54D16*X254709Y229741D03*
G54D15*G36*
X278480Y147623D02*Y141623D01*
X284480D01*
Y147623D01*
X278480D01*
G37*
G54D16*X281480Y154623D03*
Y164623D03*
Y174623D03*
G54D17*X114551Y98638D03*
Y124228D03*
X132267D03*
Y98638D03*
X142504D03*
Y124228D03*
G54D15*G36*
X100000Y107000D02*Y101000D01*
X106000D01*
Y107000D01*
X100000D01*
G37*
G54D16*X103000Y114000D03*
Y124000D03*
Y134000D03*
G54D14*X74394Y99819D03*
G54D15*G36*
X201315Y243764D02*Y237764D01*
X207315D01*
Y243764D01*
X201315D01*
G37*
G36*
X201062Y232363D02*Y226363D01*
X207062D01*
Y232363D01*
X201062D01*
G37*
G54D16*X194062Y229363D03*
X184062D03*
X174062D03*
X176756Y210922D03*
G54D15*G36*
X173756Y173922D02*Y167922D01*
X179756D01*
Y173922D01*
X173756D01*
G37*
G54D16*X176756Y180922D03*
Y190922D03*
Y200922D03*
G54D17*X170457Y98638D03*
Y124228D03*
X160220D03*
Y98638D03*
X188173Y124228D03*
Y98638D03*
G54D14*X201953Y99819D03*
G54D18*X290929Y199033D03*
X275969Y194308D03*
X276394Y246276D03*
X227937Y219505D03*
X272394Y220276D03*
X241323Y219504D03*
X246047Y206119D03*
X247622Y243913D03*
X246047Y202182D03*
X242110Y192732D03*
G54D19*X263625Y118205D03*
X242898Y120292D03*
X239748Y124229D03*
X263625Y113205D03*
G54D18*X234025Y110705D03*
G54D19*X251425Y104205D03*
G54D18*X266425Y135205D03*
G54D19*X263625Y123205D03*
G54D18*X276425Y126205D03*
X254217Y145292D03*
X262583Y150213D03*
X258646Y157300D03*
X229625Y124205D03*
G54D19*X222425Y141205D03*
G54D18*X230299Y148639D03*
X229512Y167536D03*
X224000Y164387D03*
Y149426D03*
X190142Y184859D03*
X185417Y180135D03*
X211402Y185646D03*
X205103Y182497D03*
X199591Y178560D03*
X216914Y182497D03*
X227150Y186434D03*
X220851Y185646D03*
X235024Y182496D03*
X209039Y174622D03*
X196441Y168323D03*
G54D19*X194866Y136327D03*
G54D18*X224000Y219505D03*
X209827Y217930D03*
X198016Y215568D03*
X215000Y249000D03*
X210614Y199820D03*
X162000Y206000D03*
X152000Y194000D03*
X155000Y188000D03*
X146000Y203000D03*
X158000Y198000D03*
X184000Y216000D03*
G54D19*X165000Y226000D03*
G54D18*X166095Y234560D03*
X179095Y241560D03*
X165095Y239560D03*
X111095Y114560D03*
X89000Y128000D03*
X111095Y108560D03*
X113267Y147560D03*
X84000Y151000D03*
X74000Y152000D03*
X73095Y136560D03*
X132000Y163000D03*
X108000D03*
X69095Y152560D03*
X74603Y181052D03*
X72095Y202560D03*
X70095Y207560D03*
X109095Y179560D03*
G54D19*X198803Y124229D03*
G54D18*X206677Y140764D03*
G54D19*X194866Y126634D03*
G54D18*X171244Y139189D03*
X170457Y156512D03*
X161795Y153362D03*
X161000Y162000D03*
X154000Y176000D03*
X173606Y160449D03*
X158646Y135252D03*
X180693D03*
X195654Y150214D03*
X174394Y152575D03*
X173606Y135252D03*
X108739Y172560D03*
X118000Y185000D03*
X125000Y184000D03*
X131899Y167560D03*
X132000Y195000D03*
Y177000D03*
X111402Y202969D03*
X108252Y197457D03*
X120000Y222000D03*
X120095Y229560D03*
X130000Y205000D03*
X129095Y229560D03*
X132095Y234560D03*
Y241560D03*
G54D20*X139654Y247052D02*Y246068D01*
X134536Y247052D02*Y246068D01*
G54D21*X138095Y234346D02*Y233560D01*
X145181Y234346D02*Y233560D01*
G54D20*X155536Y247052D02*Y246068D01*
G54D22*X151400Y236000D02*X152000D01*
G54D20*X160654Y247052D02*Y246068D01*
X165536Y247052D02*Y246068D01*
X143508Y219559D02*X144492D01*
X143508Y214441D02*X144492D01*
X154508Y216441D02*X155492D01*
X154508Y221559D02*X155492D01*
G54D22*X159600Y232100D02*X160200D01*
X159600Y239900D02*X160200D01*
G54D20*X174536Y247052D02*Y246068D01*
X179654Y247052D02*Y246068D01*
X170654Y247052D02*Y246068D01*
X179654Y238052D02*Y237068D01*
X174536Y238052D02*Y237068D01*
X195162Y237417D02*X196146D01*
X195162Y242535D02*X196146D01*
X204000Y249984D02*Y249000D01*
X209118Y249984D02*Y249000D01*
G54D23*X135095Y152560D02*X141095D01*
X135095Y157560D02*X141095D01*
X135095Y162560D02*X141095D01*
G54D20*X155508Y160441D02*X156492D01*
G54D23*X135095Y167560D02*X141095D01*
X135095Y172560D02*X141095D01*
X135095Y177560D02*X141095D01*
G54D20*X156441Y170492D02*Y169508D01*
X161559Y170492D02*Y169508D01*
X155508Y165559D02*X156492D01*
G54D23*X135095Y182560D02*X141095D01*
X135095Y187560D02*X141095D01*
X135095Y192560D02*X141095D01*
X135095Y197560D02*X141095D01*
X135095Y202560D02*X141095D01*
X135095Y207560D02*X141095D01*
G54D20*X185221Y175901D02*Y174917D01*
G54D24*X190142Y198245D02*X193742D01*
X190142Y208245D02*X193742D01*
G54D22*X194079Y180996D02*X194679D01*
X194079Y188796D02*X194679D01*
X185879Y184896D02*X186479D01*
G54D20*X190339Y175901D02*Y174917D01*
X200969Y168029D02*Y167045D01*
X186795Y167240D02*Y166256D01*
X191913Y167240D02*Y166256D01*
G54D23*X183728Y161651D02*X190228D01*
X183728Y156651D02*X190228D01*
X183728Y151651D02*X190228D01*
X183728Y146651D02*X190228D01*
X204228D02*X210728D01*
X204228Y151651D02*X210728D01*
X204228Y156651D02*X210728D01*
X204228Y161651D02*X210728D01*
G54D20*X206087Y168029D02*Y167045D01*
X86603Y161001D02*X87587D01*
X92508Y157441D02*X93492D01*
X92508Y162559D02*X93492D01*
X86603Y166119D02*X87587D01*
G54D22*X76200Y146600D02*Y146000D01*
X80100Y154800D02*Y154200D01*
X84000Y146600D02*Y146000D01*
G54D20*X92508Y143441D02*X93492D01*
X92508Y148559D02*X93492D01*
X149508Y160441D02*X150492D01*
X149508Y165559D02*X150492D01*
G54D22*X156600Y180100D02*X157200D01*
G54D20*X155693Y132594D02*Y131610D01*
X150575Y132594D02*Y131610D01*
X150378Y139190D02*Y138206D01*
X155496Y139190D02*Y138206D01*
X153527Y145685D02*Y144701D01*
X140339Y137614D02*X141323D01*
G54D23*X135095Y142560D02*X141095D01*
X135095Y147560D02*X141095D01*
G54D20*X148409Y145685D02*Y144701D01*
X125772Y132594D02*Y131610D01*
X120654Y132594D02*Y131610D01*
G54D22*X148400Y198000D02*X149000D01*
X148400Y190200D02*X149000D01*
X156600Y194100D02*X157200D01*
X148400Y184000D02*X149000D01*
X148400Y176200D02*X149000D01*
G54D23*X99095Y207560D02*X105095D01*
X99095Y202560D02*X105095D01*
X99095Y197560D02*X105095D01*
X99095Y192560D02*X105095D01*
G54D20*X69603Y186001D02*X70587D01*
X74603D02*X75587D01*
X69603Y191119D02*X70587D01*
X74603D02*X75587D01*
G54D23*X99095Y187560D02*X105095D01*
X99095Y182560D02*X105095D01*
X99095Y177560D02*X105095D01*
X99095Y172560D02*X105095D01*
X99095Y167560D02*X105095D01*
X99095Y162560D02*X105095D01*
X99095Y157560D02*X105095D01*
X99095Y152560D02*X105095D01*
X99095Y147560D02*X105095D01*
X99095Y142560D02*X105095D01*
G54D20*X240831Y155135D02*X241815D01*
X246639Y153363D02*X247623D01*
G54D22*X253349Y158008D02*X253949D01*
X261549Y154108D02*X262149D01*
G54D20*X246639Y160056D02*X247623D01*
X240831Y160253D02*X241815D01*
X240831Y150017D02*X241815D01*
X246639Y148245D02*X247623D01*
G54D22*X253349Y150208D02*X253949D01*
G54D20*X217504Y157300D02*X218488D01*
X217504Y152182D02*X218488D01*
X229316Y159367D02*Y158383D01*
X234434Y159367D02*Y158383D01*
G54D25*X201039Y217142D02*X205465D01*
X201039Y213993D02*X205465D01*
X201039Y210843D02*X205465D01*
X201039Y207694D02*X205465D01*
X201039Y204544D02*X205465D01*
X201039Y201394D02*X205465D01*
X201039Y198245D02*X205465D01*
X201039Y195095D02*X205465D01*
X201039Y191946D02*X205465D01*
X237385Y178922D02*Y174496D01*
X240535Y178922D02*Y174496D01*
X243685Y178922D02*Y174496D01*
G54D20*X240831Y165371D02*X241815D01*
G54D25*X201039Y188796D02*X205465D01*
X201039Y185646D02*X205465D01*
X212189Y178922D02*Y174496D01*
X215338Y178922D02*Y174496D01*
X218488Y178922D02*Y174496D01*
X221637Y178922D02*Y174496D01*
X224787Y178922D02*Y174496D01*
X227937Y178922D02*Y174496D01*
X231086Y178922D02*Y174496D01*
X234236Y178922D02*Y174496D01*
G54D20*X218292Y170390D02*Y169406D01*
X223410Y170390D02*Y169406D01*
G54D25*X250409Y185646D02*X254835D01*
X250409Y188795D02*X254835D01*
X250409Y191945D02*X254835D01*
X250409Y195094D02*X254835D01*
X250409Y198244D02*X254835D01*
G54D20*X254512Y181414D02*Y180430D01*
X259630Y164879D02*Y163895D01*
X263962Y164879D02*Y163895D01*
X269080Y164879D02*Y163895D01*
X254512Y164879D02*Y163895D01*
Y170390D02*Y169406D01*
Y175902D02*Y174918D01*
X259630Y170390D02*Y169406D01*
X266323Y181414D02*Y180430D01*
X259630Y181414D02*Y180430D01*
Y175902D02*Y174918D01*
X246639Y165174D02*X247623D01*
G54D25*X250409Y201394D02*X254835D01*
X250409Y204543D02*X254835D01*
X250409Y207693D02*X254835D01*
X250409Y210842D02*X254835D01*
X250409Y213992D02*X254835D01*
X250409Y217142D02*X254835D01*
G54D20*X263370Y219505D02*X264354D01*
X263370Y208481D02*X264354D01*
X263370Y213599D02*X264354D01*
G54D25*X243685Y228292D02*Y223866D01*
X240536Y228292D02*Y223866D01*
G54D20*X263370Y224623D02*X264354D01*
G54D25*X227937Y228292D02*Y223866D01*
X224788Y228292D02*Y223866D01*
G54D20*X226362Y232890D02*Y231906D01*
G54D25*X221638Y228292D02*Y223866D01*
X218489Y228292D02*Y223866D01*
X215339Y228292D02*Y223866D01*
X212189Y228292D02*Y223866D01*
G54D20*X221244Y232890D02*Y231906D01*
G54D25*X237386Y228292D02*Y223866D01*
X234237Y228292D02*Y223866D01*
X231087Y228292D02*Y223866D01*
G54D20*X233449Y232890D02*Y231906D01*
X238567Y232890D02*Y231906D01*
X267276Y246260D02*Y245276D01*
X272394Y246260D02*Y245276D01*
X267276Y240747D02*Y239763D01*
X272394Y240747D02*Y239763D01*
X265240Y192930D02*X266224D01*
X265240Y187812D02*X266224D01*
X279709Y183777D02*Y182793D01*
Y189288D02*Y188304D01*
Y194800D02*Y193816D01*
X284827Y183777D02*Y182793D01*
X289945Y183777D02*Y182793D01*
X295063Y183777D02*Y182793D01*
X284827Y189288D02*Y188304D01*
X292504Y194899D02*Y193915D01*
X297622Y194899D02*Y193915D01*
X284827Y194800D02*Y193816D01*
X297622Y189584D02*Y188600D01*
X292504Y189584D02*Y188600D01*
X270752Y192930D02*X271736D01*
X270752Y187812D02*X271736D01*
X271441Y181414D02*Y180430D01*
G54D26*X257075Y122905D02*X259475D01*
X257075Y119205D02*X259475D01*
G54D20*X251933Y122764D02*X252917D01*
G54D26*X267375Y115505D02*X269775D01*
X267375Y119205D02*X269775D01*
X267375Y122905D02*X269775D01*
G54D21*X267968Y129598D02*Y128812D01*
X260882Y129598D02*Y128812D01*
G54D20*X257654Y135697D02*Y134713D01*
X262772Y135697D02*Y134713D01*
G54D27*X278859Y117851D02*X293425D01*
X278859Y133205D02*X293425D01*
G54D28*X272425Y107405D02*Y106205D01*
X261425Y107405D02*Y106205D01*
G54D22*X239738Y137405D02*Y136805D01*
G54D21*X232032Y136748D02*X232818D01*
G54D29*X211425Y124205D02*X212425D01*
X211425Y118205D02*X212425D01*
G54D20*X198133Y119764D02*X199117D01*
X198133Y114646D02*X199117D01*
X204133D02*X205117D01*
X204133Y119764D02*X205117D01*
X206185Y130332D02*X207169D01*
X200673D02*X201657D01*
X206185Y135450D02*X207169D01*
X200673D02*X201657D01*
X211697D02*X212681D01*
X211697Y130332D02*X212681D01*
G54D22*X247538Y137405D02*Y136805D01*
X243638Y129205D02*Y128605D01*
G54D21*X232032Y129662D02*X232818D01*
G54D28*X233425Y105205D02*X234625D01*
X233425Y116205D02*X234625D01*
G54D21*X243244Y115110D02*X245606D01*
X243244Y103300D02*X245606D01*
G54D26*X257075Y115505D02*X259475D01*
G54D20*X251933Y117646D02*X252917D01*
X251933Y108646D02*X252917D01*
X251933Y113764D02*X252917D01*
X140339Y132496D02*X141323D01*
G54D21*X105653Y95661D02*Y94875D01*
X98567Y95661D02*Y94875D01*
G54D20*X94508Y118441D02*X95492D01*
X94508Y123559D02*X95492D01*
X77536Y128052D02*Y127068D01*
X82654Y128052D02*Y127068D01*
X77536Y134052D02*Y133068D01*
X82654Y134052D02*Y133068D01*
X88508Y118441D02*X89492D01*
X88508Y123559D02*X89492D01*
X77536Y122052D02*Y121068D01*
X82654Y122052D02*Y121068D01*
X77536Y116052D02*Y115068D01*
X82654Y116052D02*Y115068D01*
G54D16*G54D30*G54D16*G54D30*G54D31*G54D32*G54D30*G54D33*G54D30*G54D16*G54D30*G54D33*G54D16*G54D15*G54D34*G54D15*G54D34*G54D15*G54D34*G54D15*G54D34*G54D15*G54D34*G54D15*G54D34*G54D15*G54D34*G54D15*G54D34*G54D15*M02*
