G04 start of page 5 for group -4062 idx -4062 *
G04 Title: (unknown), soldermask *
G04 Creator: pcb 20091103 *
G04 CreationDate: Fri 29 Oct 2010 14:31:42 GMT UTC *
G04 For: thomas *
G04 Format: Gerber/RS-274X *
G04 PCB-Dimensions: 600000 500000 *
G04 PCB-Coordinate-Origin: lower left *
%MOIN*%
%FSLAX25Y25*%
%LNBACKMASK*%
%ADD15C,0.0200*%
%ADD35C,0.1260*%
%ADD36C,0.0660*%
%ADD37C,0.0950*%
%ADD38R,0.0355X0.0355*%
%ADD41R,0.0550X0.0550*%
G54D35*X74394Y246276D03*
G54D15*G36*
X101700Y219300D02*Y212700D01*
X108300D01*
Y219300D01*
X101700D01*
G37*
G54D36*X115000Y216000D03*
X125000D03*
X135000D03*
G54D15*G36*
X83692Y218080D02*Y211480D01*
X90292D01*
Y218080D01*
X83692D01*
G37*
G54D36*X86992Y204780D03*
Y194780D03*
Y184780D03*
Y174780D03*
G54D35*X298803Y99819D03*
Y246276D03*
G54D15*G36*
X289204Y148002D02*Y141402D01*
X295804D01*
Y148002D01*
X289204D01*
G37*
G54D36*X292504Y154702D03*
Y164702D03*
Y174702D03*
X214315Y240764D03*
X224315D03*
G54D15*G36*
X219125Y136505D02*Y129905D01*
X225725D01*
Y136505D01*
X219125D01*
G37*
G54D36*X222425Y123205D03*
Y113205D03*
Y103205D03*
X234315Y240764D03*
G54D15*G36*
X269519Y234254D02*Y227654D01*
X276119D01*
Y234254D01*
X269519D01*
G37*
G54D36*X272819Y210954D03*
G54D15*G36*
X251409Y243041D02*Y236441D01*
X258009D01*
Y243041D01*
X251409D01*
G37*
G54D36*X254709Y229741D03*
G54D15*G36*
X278180Y147923D02*Y141323D01*
X284780D01*
Y147923D01*
X278180D01*
G37*
G54D36*X281480Y154623D03*
Y164623D03*
Y174623D03*
G54D37*X114551Y98638D03*
Y124228D03*
X132267D03*
Y98638D03*
X142504D03*
Y124228D03*
G54D15*G36*
X99700Y107300D02*Y100700D01*
X106300D01*
Y107300D01*
X99700D01*
G37*
G54D36*X103000Y114000D03*
Y124000D03*
Y134000D03*
G54D35*X74394Y99819D03*
G54D15*G36*
X201015Y244064D02*Y237464D01*
X207615D01*
Y244064D01*
X201015D01*
G37*
G36*
X200762Y232663D02*Y226063D01*
X207362D01*
Y232663D01*
X200762D01*
G37*
G54D36*X194062Y229363D03*
X184062D03*
X174062D03*
X176756Y210922D03*
G54D15*G36*
X173456Y174222D02*Y167622D01*
X180056D01*
Y174222D01*
X173456D01*
G37*
G54D36*X176756Y180922D03*
Y190922D03*
Y200922D03*
G54D37*X170457Y98638D03*
Y124228D03*
X160220D03*
Y98638D03*
X188173Y124228D03*
Y98638D03*
G54D35*X201953Y99819D03*
G54D38*X203508Y222559D02*X204492D01*
X189508D02*X190492D01*
X195949Y164583D02*X196933D01*
X195949Y159465D02*X196933D01*
G54D41*X122425Y167535D02*X126025D01*
G54D38*X129508Y181441D02*X130492D01*
G54D41*X122425Y157535D02*X126025D01*
G54D38*X109508Y152441D02*X110492D01*
X121508Y149559D02*X122492D01*
X121508Y144441D02*X122492D01*
X109508Y157559D02*X110492D01*
X129508Y186559D02*X130492D01*
X123118Y197000D02*Y196016D01*
X118000Y197000D02*Y196016D01*
Y202984D02*Y202000D01*
X123118Y202984D02*Y202000D01*
X83441Y222492D02*Y221508D01*
X88559Y222492D02*Y221508D01*
X95508Y219559D02*X96492D01*
X95508Y214441D02*X96492D01*
X103441Y209492D02*Y208508D01*
X108559Y209492D02*Y208508D01*
X203508Y217441D02*X204492D01*
X189508D02*X190492D01*
X224000Y212417D02*Y211433D01*
X229118Y212417D02*Y211433D01*
X240142Y188008D02*Y187024D01*
X235024Y188008D02*Y187024D01*
X239255Y201984D02*X240239D01*
X239255Y207102D02*X240239D01*
X237189Y215272D02*Y214288D01*
X242307Y215272D02*Y214288D01*
X124559Y108492D02*Y107508D01*
X119441Y108492D02*Y107508D01*
X119536Y115052D02*Y114068D01*
X124654Y115052D02*Y114068D01*
X131536Y115052D02*Y114068D01*
X136654Y115052D02*Y114068D01*
M02*
