G04 start of page 9 for group -4014 idx -4014 *
G04 Title: (unknown), bottompaste *
G04 Creator: pcb 20091103 *
G04 CreationDate: Fri 29 Oct 2010 14:31:42 GMT UTC *
G04 For: thomas *
G04 Format: Gerber/RS-274X *
G04 PCB-Dimensions: 600000 500000 *
G04 PCB-Coordinate-Origin: lower left *
%MOIN*%
%FSLAX25Y25*%
%LNBACKPASTE*%
%ADD20R,0.0295X0.0295*%
%ADD24R,0.0490X0.0490*%
G54D20*X235024Y188008D02*Y187024D01*
X240142Y188008D02*Y187024D01*
X195949Y164583D02*X196933D01*
X195949Y159465D02*X196933D01*
X121508Y149559D02*X122492D01*
X121508Y144441D02*X122492D01*
X118000Y202984D02*Y202000D01*
X123118Y202984D02*Y202000D01*
X108559Y209492D02*Y208508D01*
X103441Y209492D02*Y208508D01*
X237189Y215272D02*Y214288D01*
X242307Y215272D02*Y214288D01*
X224000Y212417D02*Y211433D01*
X229118Y212417D02*Y211433D01*
X109508Y152441D02*X110492D01*
X109508Y157559D02*X110492D01*
X123118Y197000D02*Y196016D01*
X118000Y197000D02*Y196016D01*
X189508Y222559D02*X190492D01*
X189508Y217441D02*X190492D01*
X239255Y201984D02*X240239D01*
X239255Y207102D02*X240239D01*
X95508Y219559D02*X96492D01*
X95508Y214441D02*X96492D01*
X83441Y222492D02*Y221508D01*
X88559Y222492D02*Y221508D01*
X129508Y181441D02*X130492D01*
X129508Y186559D02*X130492D01*
X203508Y222559D02*X204492D01*
X203508Y217441D02*X204492D01*
G54D24*X122425Y167535D02*X126025D01*
X122425Y157535D02*X126025D01*
G54D20*X136654Y115052D02*Y114068D01*
X131536Y115052D02*Y114068D01*
X119536Y115052D02*Y114068D01*
X124654Y115052D02*Y114068D01*
X124559Y108492D02*Y107508D01*
X119441Y108492D02*Y107508D01*
M02*
