M48
INCH
T15C0.020
T16C0.060
T30C0.038
T31C0.028
T32C0.030
T33C0.046
T34C0.025
%
T15
X029092Y019903
X027596Y019430
X027639Y024627
X022793Y021950
X027239Y022027
X024132Y021950
X024604Y020611
X024762Y024391
X024604Y020218
X024211Y019273
X023402Y011070
X026642Y013520
X027642Y012620
X025421Y014529
X026258Y015021
X025864Y015730
X022962Y012420
X023029Y014863
X022951Y016753
X022400Y016438
X022400Y014942
X019014Y018485
X018541Y018013
X021140Y018564
X020510Y018249
X019959Y017856
X021691Y018249
X022715Y018643
X022085Y018564
X023502Y018249
X020903Y017462
X019644Y016832
X022400Y021950
X020982Y021793
X019801Y021556
X021500Y024900
X021061Y019982
X016200Y020600
X015200Y019400
X015500Y018800
X014600Y020300
X015800Y019800
X018400Y021600
X016609Y023456
X017909Y024156
X016509Y023956
X011109Y011456
X008900Y012800
X011109Y010856
X011326Y014756
X008400Y015100
X007400Y015200
X007309Y013656
X013200Y016300
X010800Y016300
X006909Y015256
X007460Y018105
X007209Y020256
X007009Y020756
X010909Y017956
X020667Y014076
X017124Y013918
X017045Y015651
X016179Y015336
X016100Y016200
X015400Y017600
X017360Y016044
X015864Y013525
X018069Y013525
X019565Y015021
X017439Y015257
X017360Y013525
X010873Y017256
X011800Y018500
X012500Y018400
X013189Y016756
X013200Y019500
X013200Y017700
X011140Y020296
X010825Y019745
X012000Y022200
X012009Y022956
X013000Y020500
X012909Y022956
X013209Y023456
X013209Y024156
T34
X026362Y011820
X024289Y012029
X023974Y012422
X026362Y011320
X025142Y010420
X026362Y012320
X022242Y014120
X019486Y013632
X016500Y022600
X019880Y012422
X019486Y012663
T31
X027281Y023095
X027281Y021095
T32
X025470Y023974
X025470Y022974
T30
X010500Y021600
X011500Y021600
X012500Y021600
X013500Y021600
X008699Y021478
X008699Y020478
X008699Y019478
X008699Y018478
X008699Y017478
X029250Y014470
X029250Y015470
X029250Y016470
X029250Y017470
X021431Y024076
X022431Y024076
X022242Y013320
X022242Y012320
X022242Y011320
X022242Y010320
X023431Y024076
X028148Y014462
X028148Y015462
X028148Y016462
X028148Y017462
X010300Y010400
X010300Y011400
X010300Y012400
X010300Y013400
X020431Y024076
X020406Y022936
X019406Y022936
X018406Y022936
X017406Y022936
X017675Y021092
X017675Y017092
X017675Y018092
X017675Y019092
X017675Y020092
T33
X011455Y009863
X011455Y012422
X013226Y012422
X013226Y009863
X014250Y009863
X014250Y012422
X017045Y009863
X017045Y012422
X016022Y012422
X016022Y009863
X018817Y012422
X018817Y009863
T16
X007439Y024627
X029880Y009981
X029880Y024627
X007439Y009981
X020195Y009981
M30
